<?xml version="1.0" encoding="utf-8" standalone="no"?>
<!DOCTYPE svg PUBLIC "-//W3C//DTD SVG 1.1//EN"
  "http://www.w3.org/Graphics/SVG/1.1/DTD/svg11.dtd">
<svg xmlns:xlink="http://www.w3.org/1999/xlink" width="506.617469pt" height="646.838187pt" viewBox="0 0 506.617469 646.838187" xmlns="http://www.w3.org/2000/svg" version="1.1">
 <metadata>
  <rdf:RDF xmlns:dc="http://purl.org/dc/elements/1.1/" xmlns:cc="http://creativecommons.org/ns#" xmlns:rdf="http://www.w3.org/1999/02/22-rdf-syntax-ns#">
   <cc:Work>
    <dc:type rdf:resource="http://purl.org/dc/dcmitype/StillImage"/>
    <dc:date>2025-02-19T10:07:47.061111</dc:date>
    <dc:format>image/svg+xml</dc:format>
    <dc:creator>
     <cc:Agent>
      <dc:title>Matplotlib v3.5.3, https://matplotlib.org/</dc:title>
     </cc:Agent>
    </dc:creator>
   </cc:Work>
  </rdf:RDF>
 </metadata>
 <defs>
  <style type="text/css">*{stroke-linejoin: round; stroke-linecap: butt}</style>
 </defs>
 <g id="figure_1">
  <g id="patch_1">
   <path d="M 0 646.838187 
L 506.617469 646.838187 
L 506.617469 0 
L 0 0 
z
" style="fill: #ffffff"/>
  </g>
  <g id="axes_1">
   <g id="patch_2">
    <path d="M 53.31 383.04 
L 276.51 383.04 
L 276.51 50.4 
L 53.31 50.4 
z
" style="fill: #ffffff"/>
   </g>
   <g id="matplotlib.axis_1"/>
   <g id="matplotlib.axis_2">
    <g id="ytick_1">
     <g id="line2d_1">
      <path d="M 53.31 383.04 
L 276.51 383.04 
" clip-path="url(#pcd2f28329d)" style="fill: none; stroke: #ffffff; stroke-linecap: round"/>
     </g>
     <g id="text_1">
      <text style="fill: #262626; font: 11px 'sans-serif'; text-anchor: end" x="43.81" y="387.219141" transform="rotate(-0, 43.81, 387.219141)">0</text>
     </g>
    </g>
    <g id="ytick_2">
     <g id="line2d_2">
      <path d="M 53.31 316.512 
L 276.51 316.512 
" clip-path="url(#pcd2f28329d)" style="fill: none; stroke: #ffffff; stroke-linecap: round"/>
     </g>
     <g id="text_2">
      <text style="fill: #262626; font: 11px 'sans-serif'; text-anchor: end" x="43.81" y="320.691141" transform="rotate(-0, 43.81, 320.691141)">20</text>
     </g>
    </g>
    <g id="ytick_3">
     <g id="line2d_3">
      <path d="M 53.31 249.984 
L 276.51 249.984 
" clip-path="url(#pcd2f28329d)" style="fill: none; stroke: #ffffff; stroke-linecap: round"/>
     </g>
     <g id="text_3">
      <text style="fill: #262626; font: 11px 'sans-serif'; text-anchor: end" x="43.81" y="254.163141" transform="rotate(-0, 43.81, 254.163141)">40</text>
     </g>
    </g>
    <g id="ytick_4">
     <g id="line2d_4">
      <path d="M 53.31 183.456 
L 276.51 183.456 
" clip-path="url(#pcd2f28329d)" style="fill: none; stroke: #ffffff; stroke-linecap: round"/>
     </g>
     <g id="text_4">
      <text style="fill: #262626; font: 11px 'sans-serif'; text-anchor: end" x="43.81" y="187.635141" transform="rotate(-0, 43.81, 187.635141)">60</text>
     </g>
    </g>
    <g id="ytick_5">
     <g id="line2d_5">
      <path d="M 53.31 116.928 
L 276.51 116.928 
" clip-path="url(#pcd2f28329d)" style="fill: none; stroke: #ffffff; stroke-linecap: round"/>
     </g>
     <g id="text_5">
      <text style="fill: #262626; font: 11px 'sans-serif'; text-anchor: end" x="43.81" y="121.107141" transform="rotate(-0, 43.81, 121.107141)">80</text>
     </g>
    </g>
    <g id="ytick_6">
     <g id="line2d_6">
      <path d="M 53.31 50.4 
L 276.51 50.4 
" clip-path="url(#pcd2f28329d)" style="fill: none; stroke: #ffffff; stroke-linecap: round"/>
     </g>
     <g id="text_6">
      <text style="fill: #262626; font: 11px 'sans-serif'; text-anchor: end" x="43.81" y="54.579141" transform="rotate(-0, 43.81, 54.579141)">100</text>
     </g>
    </g>
    <g id="text_7">
     <text style="fill: #262626; font: 12px 'sans-serif'; text-anchor: middle" x="16.318125" y="216.72" transform="rotate(-90, 16.318125, 216.72)">relative abundance family level %</text>
    </g>
   </g>
   <g id="PolyCollection_1">
    <defs>
     <path id="m5a8db8826d" d="M 166.01495 -392.670315 
L 166.01495 -263.798187 
L 221.262475 -263.798187 
L 221.262475 -263.798187 
L 276.51 -263.798187 
L 276.51 -416.428203 
L 276.51 -416.428203 
L 221.262475 -416.428203 
L 221.262475 -392.670315 
L 166.01495 -392.670315 
z
"/>
    </defs>
    <g clip-path="url(#pcd2f28329d)">
     <use xlink:href="#m5a8db8826d" x="0" y="646.838187" style="fill: #b2df8a"/>
    </g>
   </g>
   <g id="PolyCollection_2">
    <defs>
     <path id="m64b3d0db73" d="M 53.31 -420.257259 
L 53.31 -263.798187 
L 108.557525 -263.798187 
L 108.557525 -263.798187 
L 163.80505 -263.798187 
L 163.80505 -427.619691 
L 163.80505 -427.619691 
L 108.557525 -427.619691 
L 108.557525 -420.257259 
L 53.31 -420.257259 
z
"/>
    </defs>
    <g clip-path="url(#pcd2f28329d)">
     <use xlink:href="#m64b3d0db73" x="0" y="646.838187" style="fill: #b2df8a"/>
    </g>
   </g>
   <g id="PolyCollection_3">
    <defs>
     <path id="m5a40a0977d" d="M 166.01495 -470.241963 
L 166.01495 -392.670315 
L 221.262475 -392.670315 
L 221.262475 -416.428203 
L 276.51 -416.428203 
L 276.51 -490.806507 
L 276.51 -490.806507 
L 221.262475 -490.806507 
L 221.262475 -470.241963 
L 166.01495 -470.241963 
z
"/>
    </defs>
    <g clip-path="url(#pcd2f28329d)">
     <use xlink:href="#m5a40a0977d" x="0" y="646.838187" style="fill: #1f78b4"/>
    </g>
   </g>
   <g id="PolyCollection_4">
    <defs>
     <path id="mae237dff2c" d="M 53.31 -493.275435 
L 53.31 -420.257259 
L 108.557525 -420.257259 
L 108.557525 -427.619691 
L 163.80505 -427.619691 
L 163.80505 -488.751531 
L 163.80505 -488.751531 
L 108.557525 -488.751531 
L 108.557525 -493.275435 
L 53.31 -493.275435 
z
"/>
    </defs>
    <g clip-path="url(#pcd2f28329d)">
     <use xlink:href="#mae237dff2c" x="0" y="646.838187" style="fill: #1f78b4"/>
    </g>
   </g>
   <g id="PolyCollection_5">
    <defs>
     <path id="mbca0f049bb" d="M 166.01495 -493.704171 
L 166.01495 -470.241963 
L 221.262475 -470.241963 
L 221.262475 -490.806507 
L 276.51 -490.806507 
L 276.51 -513.721707 
L 276.51 -513.721707 
L 221.262475 -513.721707 
L 221.262475 -493.704171 
L 166.01495 -493.704171 
z
"/>
    </defs>
    <g clip-path="url(#pcd2f28329d)">
     <use xlink:href="#mbca0f049bb" x="0" y="646.838187" style="fill: #fdbf6f"/>
    </g>
   </g>
   <g id="PolyCollection_6">
    <defs>
     <path id="m18c30ccfdb" d="M 53.31 -512.420715 
L 53.31 -493.275435 
L 108.557525 -493.275435 
L 108.557525 -488.751531 
L 163.80505 -488.751531 
L 163.80505 -510.277035 
L 163.80505 -510.277035 
L 108.557525 -510.277035 
L 108.557525 -512.420715 
L 53.31 -512.420715 
z
"/>
    </defs>
    <g clip-path="url(#pcd2f28329d)">
     <use xlink:href="#m18c30ccfdb" x="0" y="646.838187" style="fill: #fdbf6f"/>
    </g>
   </g>
   <g id="PolyCollection_7">
    <defs>
     <path id="mbed573f267" d="M 166.01495 -510.912747 
L 166.01495 -493.704171 
L 221.262475 -493.704171 
L 221.262475 -513.721707 
L 276.51 -513.721707 
L 276.51 -526.391595 
L 276.51 -526.391595 
L 221.262475 -526.391595 
L 221.262475 -510.912747 
L 166.01495 -510.912747 
z
"/>
    </defs>
    <g clip-path="url(#pcd2f28329d)">
     <use xlink:href="#mbed573f267" x="0" y="646.838187" style="fill: #33a02c"/>
    </g>
   </g>
   <g id="PolyCollection_8">
    <defs>
     <path id="mcc49cc709d" d="M 53.31 -525.785451 
L 53.31 -512.420715 
L 108.557525 -512.420715 
L 108.557525 -510.277035 
L 163.80505 -510.277035 
L 163.80505 -524.410539 
L 163.80505 -524.410539 
L 108.557525 -524.410539 
L 108.557525 -525.785451 
L 53.31 -525.785451 
z
"/>
    </defs>
    <g clip-path="url(#pcd2f28329d)">
     <use xlink:href="#mcc49cc709d" x="0" y="646.838187" style="fill: #33a02c"/>
    </g>
   </g>
   <g id="PolyCollection_9">
    <defs>
     <path id="m22572010ff" d="M 166.01495 -523.833963 
L 166.01495 -510.912747 
L 221.262475 -510.912747 
L 221.262475 -526.391595 
L 276.51 -526.391595 
L 276.51 -538.070955 
L 276.51 -538.070955 
L 221.262475 -538.070955 
L 221.262475 -523.833963 
L 166.01495 -523.833963 
z
"/>
    </defs>
    <g clip-path="url(#pcd2f28329d)">
     <use xlink:href="#m22572010ff" x="0" y="646.838187" style="fill: #fb9a99"/>
    </g>
   </g>
   <g id="PolyCollection_10">
    <defs>
     <path id="m4f35af28b6" d="M 53.31 -536.962155 
L 53.31 -525.785451 
L 108.557525 -525.785451 
L 108.557525 -524.410539 
L 163.80505 -524.410539 
L 163.80505 -534.729771 
L 163.80505 -534.729771 
L 108.557525 -534.729771 
L 108.557525 -536.962155 
L 53.31 -536.962155 
z
"/>
    </defs>
    <g clip-path="url(#pcd2f28329d)">
     <use xlink:href="#m4f35af28b6" x="0" y="646.838187" style="fill: #fb9a99"/>
    </g>
   </g>
   <g id="PolyCollection_11">
    <defs>
     <path id="m456cc3795e" d="M 166.01495 -532.512171 
L 166.01495 -523.833963 
L 221.262475 -523.833963 
L 221.262475 -538.070955 
L 276.51 -538.070955 
L 276.51 -546.660459 
L 276.51 -546.660459 
L 221.262475 -546.660459 
L 221.262475 -532.512171 
L 166.01495 -532.512171 
z
"/>
    </defs>
    <g clip-path="url(#pcd2f28329d)">
     <use xlink:href="#m456cc3795e" x="0" y="646.838187" style="fill: #cab2d6"/>
    </g>
   </g>
   <g id="PolyCollection_12">
    <defs>
     <path id="mbc663be84e" d="M 53.31 -547.370091 
L 53.31 -536.962155 
L 108.557525 -536.962155 
L 108.557525 -534.729771 
L 163.80505 -534.729771 
L 163.80505 -542.195691 
L 163.80505 -542.195691 
L 108.557525 -542.195691 
L 108.557525 -547.370091 
L 53.31 -547.370091 
z
"/>
    </defs>
    <g clip-path="url(#pcd2f28329d)">
     <use xlink:href="#mbc663be84e" x="0" y="646.838187" style="fill: #cab2d6"/>
    </g>
   </g>
   <g id="PolyCollection_13">
    <defs>
     <path id="mb4e210e8ee" d="M 166.01495 -542.254827 
L 166.01495 -532.512171 
L 221.262475 -532.512171 
L 221.262475 -546.660459 
L 276.51 -546.660459 
L 276.51 -556.033515 
L 276.51 -556.033515 
L 221.262475 -556.033515 
L 221.262475 -542.254827 
L 166.01495 -542.254827 
z
"/>
    </defs>
    <g clip-path="url(#pcd2f28329d)">
     <use xlink:href="#mb4e210e8ee" x="0" y="646.838187" style="fill: #e31a1c"/>
    </g>
   </g>
   <g id="PolyCollection_14">
    <defs>
     <path id="md92dd48db6" d="M 53.31 -552.396651 
L 53.31 -547.370091 
L 108.557525 -547.370091 
L 108.557525 -542.195691 
L 163.80505 -542.195691 
L 163.80505 -547.488363 
L 163.80505 -547.488363 
L 108.557525 -547.488363 
L 108.557525 -552.396651 
L 53.31 -552.396651 
z
"/>
    </defs>
    <g clip-path="url(#pcd2f28329d)">
     <use xlink:href="#md92dd48db6" x="0" y="646.838187" style="fill: #e31a1c"/>
    </g>
   </g>
   <g id="PolyCollection_15">
    <defs>
     <path id="m9833bb3167" d="M 166.01495 -553.076715 
L 166.01495 -542.254827 
L 221.262475 -542.254827 
L 221.262475 -556.033515 
L 276.51 -556.033515 
L 276.51 -564.031659 
L 276.51 -564.031659 
L 221.262475 -564.031659 
L 221.262475 -553.076715 
L 166.01495 -553.076715 
z
"/>
    </defs>
    <g clip-path="url(#pcd2f28329d)">
     <use xlink:href="#m9833bb3167" x="0" y="646.838187" style="fill: #6a3d9a"/>
    </g>
   </g>
   <g id="PolyCollection_16">
    <defs>
     <path id="m3e9552311e" d="M 53.31 -558.857259 
L 53.31 -552.396651 
L 108.557525 -552.396651 
L 108.557525 -547.488363 
L 163.80505 -547.488363 
L 163.80505 -555.028203 
L 163.80505 -555.028203 
L 108.557525 -555.028203 
L 108.557525 -558.857259 
L 53.31 -558.857259 
z
"/>
    </defs>
    <g clip-path="url(#pcd2f28329d)">
     <use xlink:href="#m3e9552311e" x="0" y="646.838187" style="fill: #6a3d9a"/>
    </g>
   </g>
   <g id="PolyCollection_17">
    <defs>
     <path id="m6bf2696eee" d="M 166.01495 -555.649131 
L 166.01495 -553.076715 
L 221.262475 -553.076715 
L 221.262475 -564.031659 
L 276.51 -564.031659 
L 276.51 -566.264043 
L 276.51 -566.264043 
L 221.262475 -566.264043 
L 221.262475 -555.649131 
L 166.01495 -555.649131 
z
"/>
    </defs>
    <g clip-path="url(#pcd2f28329d)">
     <use xlink:href="#m6bf2696eee" x="0" y="646.838187" style="fill: #ffff99"/>
    </g>
   </g>
   <g id="PolyCollection_18">
    <defs>
     <path id="m6c54d75d2a" d="M 53.31 -566.737131 
L 53.31 -558.857259 
L 108.557525 -558.857259 
L 108.557525 -555.028203 
L 163.80505 -555.028203 
L 163.80505 -566.042283 
L 163.80505 -566.042283 
L 108.557525 -566.042283 
L 108.557525 -566.737131 
L 53.31 -566.737131 
z
"/>
    </defs>
    <g clip-path="url(#pcd2f28329d)">
     <use xlink:href="#m6c54d75d2a" x="0" y="646.838187" style="fill: #ffff99"/>
    </g>
   </g>
   <g id="PolyCollection_19">
    <defs>
     <path id="m812da5682f" d="M 166.01495 -562.848939 
L 166.01495 -555.649131 
L 221.262475 -555.649131 
L 221.262475 -566.264043 
L 276.51 -566.264043 
L 276.51 -572.325483 
L 276.51 -572.325483 
L 221.262475 -572.325483 
L 221.262475 -562.848939 
L 166.01495 -562.848939 
z
"/>
    </defs>
    <g clip-path="url(#pcd2f28329d)">
     <use xlink:href="#m812da5682f" x="0" y="646.838187" style="fill: #7570b3"/>
    </g>
   </g>
   <g id="PolyCollection_20">
    <defs>
     <path id="m49ba857b1d" d="M 53.31 -569.073003 
L 53.31 -566.737131 
L 108.557525 -566.737131 
L 108.557525 -566.042283 
L 163.80505 -566.042283 
L 163.80505 -569.634795 
L 163.80505 -569.634795 
L 108.557525 -569.634795 
L 108.557525 -569.073003 
L 53.31 -569.073003 
z
"/>
    </defs>
    <g clip-path="url(#pcd2f28329d)">
     <use xlink:href="#m49ba857b1d" x="0" y="646.838187" style="fill: #7570b3"/>
    </g>
   </g>
   <g id="PolyCollection_21">
    <defs>
     <path id="m8fdb3cb892" d="M 166.01495 -566.914539 
L 166.01495 -562.848939 
L 221.262475 -562.848939 
L 221.262475 -572.325483 
L 276.51 -572.325483 
L 276.51 -574.631787 
L 276.51 -574.631787 
L 221.262475 -574.631787 
L 221.262475 -566.914539 
L 166.01495 -566.914539 
z
"/>
    </defs>
    <g clip-path="url(#pcd2f28329d)">
     <use xlink:href="#m8fdb3cb892" x="0" y="646.838187" style="fill: #b15928"/>
    </g>
   </g>
   <g id="PolyCollection_22">
    <defs>
     <path id="mc8c3b41ab8" d="M 53.31 -571.571499 
L 53.31 -569.073003 
L 108.557525 -569.073003 
L 108.557525 -569.634795 
L 163.80505 -569.634795 
L 163.80505 -572.044587 
L 163.80505 -572.044587 
L 108.557525 -572.044587 
L 108.557525 -571.571499 
L 53.31 -571.571499 
z
"/>
    </defs>
    <g clip-path="url(#pcd2f28329d)">
     <use xlink:href="#mc8c3b41ab8" x="0" y="646.838187" style="fill: #b15928"/>
    </g>
   </g>
   <g id="PolyCollection_23">
    <defs>
     <path id="me0f2bcbf7b" d="M 166.01495 -570.492267 
L 166.01495 -566.914539 
L 221.262475 -566.914539 
L 221.262475 -574.631787 
L 276.51 -574.631787 
L 276.51 -578.150379 
L 276.51 -578.150379 
L 221.262475 -578.150379 
L 221.262475 -570.492267 
L 166.01495 -570.492267 
z
"/>
    </defs>
    <g clip-path="url(#pcd2f28329d)">
     <use xlink:href="#me0f2bcbf7b" x="0" y="646.838187" style="fill: #e7298a"/>
    </g>
   </g>
   <g id="PolyCollection_24">
    <defs>
     <path id="m452e03c2c2" d="M 53.31 -574.868331 
L 53.31 -571.571499 
L 108.557525 -571.571499 
L 108.557525 -572.044587 
L 163.80505 -572.044587 
L 163.80505 -576.612843 
L 163.80505 -576.612843 
L 108.557525 -576.612843 
L 108.557525 -574.868331 
L 53.31 -574.868331 
z
"/>
    </defs>
    <g clip-path="url(#pcd2f28329d)">
     <use xlink:href="#m452e03c2c2" x="0" y="646.838187" style="fill: #e7298a"/>
    </g>
   </g>
   <g id="PolyCollection_25">
    <defs>
     <path id="m6b71fb0993" d="M 166.01495 -571.615851 
L 166.01495 -570.492267 
L 221.262475 -570.492267 
L 221.262475 -578.150379 
L 276.51 -578.150379 
L 276.51 -578.638251 
L 276.51 -578.638251 
L 221.262475 -578.638251 
L 221.262475 -571.615851 
L 166.01495 -571.615851 
z
"/>
    </defs>
    <g clip-path="url(#pcd2f28329d)">
     <use xlink:href="#m6b71fb0993" x="0" y="646.838187" style="fill: #ff7f00"/>
    </g>
   </g>
   <g id="PolyCollection_26">
    <defs>
     <path id="me8279cbe82" d="M 53.31 -582.644715 
L 53.31 -574.868331 
L 108.557525 -574.868331 
L 108.557525 -576.612843 
L 163.80505 -576.612843 
L 163.80505 -579.229611 
L 163.80505 -579.229611 
L 108.557525 -579.229611 
L 108.557525 -582.644715 
L 53.31 -582.644715 
z
"/>
    </defs>
    <g clip-path="url(#pcd2f28329d)">
     <use xlink:href="#me8279cbe82" x="0" y="646.838187" style="fill: #ff7f00"/>
    </g>
   </g>
   <g id="PolyCollection_27">
    <defs>
     <path id="m4b499fe36b" d="M 166.01495 -573.966507 
L 166.01495 -571.615851 
L 221.262475 -571.615851 
L 221.262475 -578.638251 
L 276.51 -578.638251 
L 276.51 -581.077611 
L 276.51 -581.077611 
L 221.262475 -581.077611 
L 221.262475 -573.966507 
L 166.01495 -573.966507 
z
"/>
    </defs>
    <g clip-path="url(#pcd2f28329d)">
     <use xlink:href="#m4b499fe36b" x="0" y="646.838187" style="fill: #a6761d"/>
    </g>
   </g>
   <g id="PolyCollection_28">
    <defs>
     <path id="mde84796d17" d="M 53.31 -584.862315 
L 53.31 -582.644715 
L 108.557525 -582.644715 
L 108.557525 -579.229611 
L 163.80505 -579.229611 
L 163.80505 -581.757675 
L 163.80505 -581.757675 
L 108.557525 -581.757675 
L 108.557525 -584.862315 
L 53.31 -584.862315 
z
"/>
    </defs>
    <g clip-path="url(#pcd2f28329d)">
     <use xlink:href="#mde84796d17" x="0" y="646.838187" style="fill: #a6761d"/>
    </g>
   </g>
   <g id="PolyCollection_29">
    <defs>
     <path id="m8d8bca3fb5" d="M 166.01495 -576.036267 
L 166.01495 -573.966507 
L 221.262475 -573.966507 
L 221.262475 -581.077611 
L 276.51 -581.077611 
L 276.51 -584.270955 
L 276.51 -584.270955 
L 221.262475 -584.270955 
L 221.262475 -576.036267 
L 166.01495 -576.036267 
z
"/>
    </defs>
    <g clip-path="url(#pcd2f28329d)">
     <use xlink:href="#m8d8bca3fb5" x="0" y="646.838187" style="fill: #1b9e77"/>
    </g>
   </g>
   <g id="PolyCollection_30">
    <defs>
     <path id="m8b5bf063d9" d="M 53.31 -586.710315 
L 53.31 -584.862315 
L 108.557525 -584.862315 
L 108.557525 -581.757675 
L 163.80505 -581.757675 
L 163.80505 -584.551851 
L 163.80505 -584.551851 
L 108.557525 -584.551851 
L 108.557525 -586.710315 
L 53.31 -586.710315 
z
"/>
    </defs>
    <g clip-path="url(#pcd2f28329d)">
     <use xlink:href="#m8b5bf063d9" x="0" y="646.838187" style="fill: #1b9e77"/>
    </g>
   </g>
   <g id="PolyCollection_31">
    <defs>
     <path id="ma351e84e30" d="M 166.01495 -581.328939 
L 166.01495 -576.036267 
L 221.262475 -576.036267 
L 221.262475 -584.270955 
L 276.51 -584.270955 
L 276.51 -587.419947 
L 276.51 -587.419947 
L 221.262475 -587.419947 
L 221.262475 -581.328939 
L 166.01495 -581.328939 
z
"/>
    </defs>
    <g clip-path="url(#pcd2f28329d)">
     <use xlink:href="#ma351e84e30" x="0" y="646.838187" style="fill: #d95f02"/>
    </g>
   </g>
   <g id="PolyCollection_32">
    <defs>
     <path id="ma5a92a0c23" d="M 53.31 -586.710315 
L 53.31 -586.710315 
L 108.557525 -586.710315 
L 108.557525 -584.551851 
L 163.80505 -584.551851 
L 163.80505 -586.207659 
L 163.80505 -586.207659 
L 108.557525 -586.207659 
L 108.557525 -586.710315 
L 53.31 -586.710315 
z
"/>
    </defs>
    <g clip-path="url(#pcd2f28329d)">
     <use xlink:href="#ma5a92a0c23" x="0" y="646.838187" style="fill: #d95f02"/>
    </g>
   </g>
   <g id="PolyCollection_33">
    <defs>
     <path id="md4daf68701" d="M 166.01495 -582.925611 
L 166.01495 -581.328939 
L 221.262475 -581.328939 
L 221.262475 -587.419947 
L 276.51 -587.419947 
L 276.51 -589.282731 
L 276.51 -589.282731 
L 221.262475 -589.282731 
L 221.262475 -582.925611 
L 166.01495 -582.925611 
z
"/>
    </defs>
    <g clip-path="url(#pcd2f28329d)">
     <use xlink:href="#md4daf68701" x="0" y="646.838187" style="fill: #66a61e"/>
    </g>
   </g>
   <g id="PolyCollection_34">
    <defs>
     <path id="mc1150c47f0" d="M 53.31 -588.336555 
L 53.31 -586.710315 
L 108.557525 -586.710315 
L 108.557525 -586.207659 
L 163.80505 -586.207659 
L 163.80505 -588.100011 
L 163.80505 -588.100011 
L 108.557525 -588.100011 
L 108.557525 -588.336555 
L 53.31 -588.336555 
z
"/>
    </defs>
    <g clip-path="url(#pcd2f28329d)">
     <use xlink:href="#mc1150c47f0" x="0" y="646.838187" style="fill: #66a61e"/>
    </g>
   </g>
   <g id="PolyCollection_35">
    <defs>
     <path id="m4c5c9cf533" d="M 166.01495 -587.035563 
L 166.01495 -582.925611 
L 221.262475 -582.925611 
L 221.262475 -589.282731 
L 276.51 -589.282731 
L 276.51 -589.962795 
L 276.51 -589.962795 
L 221.262475 -589.962795 
L 221.262475 -587.035563 
L 166.01495 -587.035563 
z
"/>
    </defs>
    <g clip-path="url(#pcd2f28329d)">
     <use xlink:href="#m4c5c9cf533" x="0" y="646.838187" style="fill: #1b9e77"/>
    </g>
   </g>
   <g id="PolyCollection_36">
    <defs>
     <path id="ma88ae61547" d="M 53.31 -588.336555 
L 53.31 -588.336555 
L 108.557525 -588.336555 
L 108.557525 -588.100011 
L 163.80505 -588.100011 
L 163.80505 -588.100011 
L 163.80505 -588.100011 
L 108.557525 -588.100011 
L 108.557525 -588.336555 
L 53.31 -588.336555 
z
"/>
    </defs>
    <g clip-path="url(#pcd2f28329d)">
     <use xlink:href="#ma88ae61547" x="0" y="646.838187" style="fill: #1b9e77"/>
    </g>
   </g>
   <g id="PolyCollection_37">
    <defs>
     <path id="m7a1b358920" d="M 166.01495 -588.144363 
L 166.01495 -587.035563 
L 221.262475 -587.035563 
L 221.262475 -589.962795 
L 276.51 -589.962795 
L 276.51 -590.923755 
L 276.51 -590.923755 
L 221.262475 -590.923755 
L 221.262475 -588.144363 
L 166.01495 -588.144363 
z
"/>
    </defs>
    <g clip-path="url(#pcd2f28329d)">
     <use xlink:href="#m7a1b358920" x="0" y="646.838187" style="fill: #e7298a"/>
    </g>
   </g>
   <g id="PolyCollection_38">
    <defs>
     <path id="mfbbdebb3e7" d="M 53.31 -589.489707 
L 53.31 -588.336555 
L 108.557525 -588.336555 
L 108.557525 -588.100011 
L 163.80505 -588.100011 
L 163.80505 -589.090539 
L 163.80505 -589.090539 
L 108.557525 -589.090539 
L 108.557525 -589.489707 
L 53.31 -589.489707 
z
"/>
    </defs>
    <g clip-path="url(#pcd2f28329d)">
     <use xlink:href="#mfbbdebb3e7" x="0" y="646.838187" style="fill: #e7298a"/>
    </g>
   </g>
   <g id="PolyCollection_39">
    <defs>
     <path id="m4f3d0ff9fd" d="M 166.01495 -589.208811 
L 166.01495 -588.144363 
L 221.262475 -588.144363 
L 221.262475 -590.923755 
L 276.51 -590.923755 
L 276.51 -591.352491 
L 276.51 -591.352491 
L 221.262475 -591.352491 
L 221.262475 -589.208811 
L 166.01495 -589.208811 
z
"/>
    </defs>
    <g clip-path="url(#pcd2f28329d)">
     <use xlink:href="#m4f3d0ff9fd" x="0" y="646.838187" style="fill: #fbb4ae"/>
    </g>
   </g>
   <g id="PolyCollection_40">
    <defs>
     <path id="m564152d43b" d="M 53.31 -590.613291 
L 53.31 -589.489707 
L 108.557525 -589.489707 
L 108.557525 -589.090539 
L 163.80505 -589.090539 
L 163.80505 -590.066283 
L 163.80505 -590.066283 
L 108.557525 -590.066283 
L 108.557525 -590.613291 
L 53.31 -590.613291 
z
"/>
    </defs>
    <g clip-path="url(#pcd2f28329d)">
     <use xlink:href="#m564152d43b" x="0" y="646.838187" style="fill: #fbb4ae"/>
    </g>
   </g>
   <g id="PolyCollection_41">
    <defs>
     <path id="m85d0ca3f8e" d="M 166.01495 -590.361963 
L 166.01495 -589.208811 
L 221.262475 -589.208811 
L 221.262475 -591.352491 
L 276.51 -591.352491 
L 276.51 -591.914283 
L 276.51 -591.914283 
L 221.262475 -591.914283 
L 221.262475 -590.361963 
L 166.01495 -590.361963 
z
"/>
    </defs>
    <g clip-path="url(#pcd2f28329d)">
     <use xlink:href="#m85d0ca3f8e" x="0" y="646.838187" style="fill: #e6ab02"/>
    </g>
   </g>
   <g id="PolyCollection_42">
    <defs>
     <path id="mcb78f56887" d="M 53.31 -591.382059 
L 53.31 -590.613291 
L 108.557525 -590.613291 
L 108.557525 -590.066283 
L 163.80505 -590.066283 
L 163.80505 -590.716779 
L 163.80505 -590.716779 
L 108.557525 -590.716779 
L 108.557525 -591.382059 
L 53.31 -591.382059 
z
"/>
    </defs>
    <g clip-path="url(#pcd2f28329d)">
     <use xlink:href="#mcb78f56887" x="0" y="646.838187" style="fill: #e6ab02"/>
    </g>
   </g>
   <g id="PolyCollection_43">
    <defs>
     <path id="me6e68d6aec" d="M 166.01495 -592.269099 
L 166.01495 -590.361963 
L 221.262475 -590.361963 
L 221.262475 -591.914283 
L 276.51 -591.914283 
L 276.51 -592.505643 
L 276.51 -592.505643 
L 221.262475 -592.505643 
L 221.262475 -592.269099 
L 166.01495 -592.269099 
z
"/>
    </defs>
    <g clip-path="url(#pcd2f28329d)">
     <use xlink:href="#me6e68d6aec" x="0" y="646.838187" style="fill: #7570b3"/>
    </g>
   </g>
   <g id="PolyCollection_44">
    <defs>
     <path id="m9a7a8918c4" d="M 53.31 -591.382059 
L 53.31 -591.382059 
L 108.557525 -591.382059 
L 108.557525 -590.716779 
L 163.80505 -590.716779 
L 163.80505 -590.938539 
L 163.80505 -590.938539 
L 108.557525 -590.938539 
L 108.557525 -591.382059 
L 53.31 -591.382059 
z
"/>
    </defs>
    <g clip-path="url(#pcd2f28329d)">
     <use xlink:href="#m9a7a8918c4" x="0" y="646.838187" style="fill: #7570b3"/>
    </g>
   </g>
   <g id="PolyCollection_45">
    <defs>
     <path id="mb5564c69a8" d="M 166.01495 -592.461291 
L 166.01495 -592.269099 
L 221.262475 -592.269099 
L 221.262475 -592.505643 
L 276.51 -592.505643 
L 276.51 -592.712619 
L 276.51 -592.712619 
L 221.262475 -592.712619 
L 221.262475 -592.461291 
L 166.01495 -592.461291 
z
"/>
    </defs>
    <g clip-path="url(#pcd2f28329d)">
     <use xlink:href="#mb5564c69a8" x="0" y="646.838187" style="fill: #d95f02"/>
    </g>
   </g>
   <g id="PolyCollection_46">
    <defs>
     <path id="m752c25e4b9" d="M 53.31 -592.461291 
L 53.31 -591.382059 
L 108.557525 -591.382059 
L 108.557525 -590.938539 
L 163.80505 -590.938539 
L 163.80505 -592.328235 
L 163.80505 -592.328235 
L 108.557525 -592.328235 
L 108.557525 -592.461291 
L 53.31 -592.461291 
z
"/>
    </defs>
    <g clip-path="url(#pcd2f28329d)">
     <use xlink:href="#m752c25e4b9" x="0" y="646.838187" style="fill: #d95f02"/>
    </g>
   </g>
   <g id="PolyCollection_47">
    <defs>
     <path id="m9a2066ae2d" d="M 166.01495 -592.683051 
L 166.01495 -592.461291 
L 221.262475 -592.461291 
L 221.262475 -592.712619 
L 276.51 -592.712619 
L 276.51 -592.860459 
L 276.51 -592.860459 
L 221.262475 -592.860459 
L 221.262475 -592.683051 
L 166.01495 -592.683051 
z
"/>
    </defs>
    <g clip-path="url(#pcd2f28329d)">
     <use xlink:href="#m9a2066ae2d" x="0" y="646.838187" style="fill: #ccebc5"/>
    </g>
   </g>
   <g id="PolyCollection_48">
    <defs>
     <path id="m6fca81d092" d="M 53.31 -593.200491 
L 53.31 -592.461291 
L 108.557525 -592.461291 
L 108.557525 -592.328235 
L 163.80505 -592.328235 
L 163.80505 -594.013611 
L 163.80505 -594.013611 
L 108.557525 -594.013611 
L 108.557525 -593.200491 
L 53.31 -593.200491 
z
"/>
    </defs>
    <g clip-path="url(#pcd2f28329d)">
     <use xlink:href="#m6fca81d092" x="0" y="646.838187" style="fill: #ccebc5"/>
    </g>
   </g>
   <g id="PolyCollection_49">
    <defs>
     <path id="mc0e6f6e4db" d="M 166.01495 -593.037867 
L 166.01495 -592.683051 
L 221.262475 -592.683051 
L 221.262475 -592.860459 
L 276.51 -592.860459 
L 276.51 -593.200491 
L 276.51 -593.200491 
L 221.262475 -593.200491 
L 221.262475 -593.037867 
L 166.01495 -593.037867 
z
"/>
    </defs>
    <g clip-path="url(#pcd2f28329d)">
     <use xlink:href="#mc0e6f6e4db" x="0" y="646.838187" style="fill: #fed9a6"/>
    </g>
   </g>
   <g id="PolyCollection_50">
    <defs>
     <path id="mb5f6c2acdd" d="M 53.31 -593.717931 
L 53.31 -593.200491 
L 108.557525 -593.200491 
L 108.557525 -594.013611 
L 163.80505 -594.013611 
L 163.80505 -594.412779 
L 163.80505 -594.412779 
L 108.557525 -594.412779 
L 108.557525 -593.717931 
L 53.31 -593.717931 
z
"/>
    </defs>
    <g clip-path="url(#pcd2f28329d)">
     <use xlink:href="#mb5f6c2acdd" x="0" y="646.838187" style="fill: #fed9a6"/>
    </g>
   </g>
   <g id="PolyCollection_51">
    <defs>
     <path id="m9f706d831a" d="M 166.01495 -593.629227 
L 166.01495 -593.037867 
L 221.262475 -593.037867 
L 221.262475 -593.200491 
L 276.51 -593.200491 
L 276.51 -594.664107 
L 276.51 -594.664107 
L 221.262475 -594.664107 
L 221.262475 -593.629227 
L 166.01495 -593.629227 
z
"/>
    </defs>
    <g clip-path="url(#pcd2f28329d)">
     <use xlink:href="#m9f706d831a" x="0" y="646.838187" style="fill: #decbe4"/>
    </g>
   </g>
   <g id="PolyCollection_52">
    <defs>
     <path id="m5dc83f6277" d="M 53.31 -593.717931 
L 53.31 -593.717931 
L 108.557525 -593.717931 
L 108.557525 -594.412779 
L 163.80505 -594.412779 
L 163.80505 -594.412779 
L 163.80505 -594.412779 
L 108.557525 -594.412779 
L 108.557525 -593.717931 
L 53.31 -593.717931 
z
"/>
    </defs>
    <g clip-path="url(#pcd2f28329d)">
     <use xlink:href="#m5dc83f6277" x="0" y="646.838187" style="fill: #decbe4"/>
    </g>
   </g>
   <g id="PolyCollection_53">
    <defs>
     <path id="me858d23609" d="M 166.01495 -593.969259 
L 166.01495 -593.629227 
L 221.262475 -593.629227 
L 221.262475 -594.664107 
L 276.51 -594.664107 
L 276.51 -595.092843 
L 276.51 -595.092843 
L 221.262475 -595.092843 
L 221.262475 -593.969259 
L 166.01495 -593.969259 
z
"/>
    </defs>
    <g clip-path="url(#pcd2f28329d)">
     <use xlink:href="#me858d23609" x="0" y="646.838187" style="fill: #666666"/>
    </g>
   </g>
   <g id="PolyCollection_54">
    <defs>
     <path id="md822df8eae" d="M 53.31 -594.501483 
L 53.31 -593.717931 
L 108.557525 -593.717931 
L 108.557525 -594.412779 
L 163.80505 -594.412779 
L 163.80505 -594.767595 
L 163.80505 -594.767595 
L 108.557525 -594.767595 
L 108.557525 -594.501483 
L 53.31 -594.501483 
z
"/>
    </defs>
    <g clip-path="url(#pcd2f28329d)">
     <use xlink:href="#md822df8eae" x="0" y="646.838187" style="fill: #666666"/>
    </g>
   </g>
   <g id="PolyCollection_55">
    <defs>
     <path id="mab50d84b2b" d="M 166.01495 -594.545835 
L 166.01495 -593.969259 
L 221.262475 -593.969259 
L 221.262475 -595.092843 
L 276.51 -595.092843 
L 276.51 -595.462443 
L 276.51 -595.462443 
L 221.262475 -595.462443 
L 221.262475 -594.545835 
L 166.01495 -594.545835 
z
"/>
    </defs>
    <g clip-path="url(#pcd2f28329d)">
     <use xlink:href="#mab50d84b2b" x="0" y="646.838187" style="fill: #ccebc5"/>
    </g>
   </g>
   <g id="PolyCollection_56">
    <defs>
     <path id="m6263ef2f2e" d="M 53.31 -594.974571 
L 53.31 -594.501483 
L 108.557525 -594.501483 
L 108.557525 -594.767595 
L 163.80505 -594.767595 
L 163.80505 -595.107627 
L 163.80505 -595.107627 
L 108.557525 -595.107627 
L 108.557525 -594.974571 
L 53.31 -594.974571 
z
"/>
    </defs>
    <g clip-path="url(#pcd2f28329d)">
     <use xlink:href="#m6263ef2f2e" x="0" y="646.838187" style="fill: #ccebc5"/>
    </g>
   </g>
   <g id="PolyCollection_57">
    <defs>
     <path id="ma6aaace628" d="M 166.01495 -595.004139 
L 166.01495 -594.545835 
L 221.262475 -594.545835 
L 221.262475 -595.462443 
L 276.51 -595.462443 
L 276.51 -595.728555 
L 276.51 -595.728555 
L 221.262475 -595.728555 
L 221.262475 -595.004139 
L 166.01495 -595.004139 
z
"/>
    </defs>
    <g clip-path="url(#pcd2f28329d)">
     <use xlink:href="#ma6aaace628" x="0" y="646.838187" style="fill: #f2f2f2"/>
    </g>
   </g>
   <g id="PolyCollection_58">
    <defs>
     <path id="m1b77d117ea" d="M 53.31 -595.447659 
L 53.31 -594.974571 
L 108.557525 -594.974571 
L 108.557525 -595.107627 
L 163.80505 -595.107627 
L 163.80505 -595.492011 
L 163.80505 -595.492011 
L 108.557525 -595.492011 
L 108.557525 -595.447659 
L 53.31 -595.447659 
z
"/>
    </defs>
    <g clip-path="url(#pcd2f28329d)">
     <use xlink:href="#m1b77d117ea" x="0" y="646.838187" style="fill: #f2f2f2"/>
    </g>
   </g>
   <g id="PolyCollection_59">
    <defs>
     <path id="m8fdb53186b" d="M 166.01495 -595.004139 
L 166.01495 -595.004139 
L 221.262475 -595.004139 
L 221.262475 -595.728555 
L 276.51 -595.728555 
L 276.51 -595.728555 
L 276.51 -595.728555 
L 221.262475 -595.728555 
L 221.262475 -595.004139 
L 166.01495 -595.004139 
z
"/>
    </defs>
    <g clip-path="url(#pcd2f28329d)">
     <use xlink:href="#m8fdb53186b" x="0" y="646.838187" style="fill: #b2df8a"/>
    </g>
   </g>
   <g id="PolyCollection_60">
    <defs>
     <path id="mfcae69c032" d="M 53.31 -595.447659 
L 53.31 -595.447659 
L 108.557525 -595.447659 
L 108.557525 -595.492011 
L 163.80505 -595.492011 
L 163.80505 -595.492011 
L 163.80505 -595.492011 
L 108.557525 -595.492011 
L 108.557525 -595.447659 
L 53.31 -595.447659 
z
"/>
    </defs>
    <g clip-path="url(#pcd2f28329d)">
     <use xlink:href="#mfcae69c032" x="0" y="646.838187" style="fill: #b2df8a"/>
    </g>
   </g>
   <g id="PolyCollection_61">
    <defs>
     <path id="m2de29dc927" d="M 166.01495 -595.004139 
L 166.01495 -595.004139 
L 221.262475 -595.004139 
L 221.262475 -595.728555 
L 276.51 -595.728555 
L 276.51 -595.728555 
L 276.51 -595.728555 
L 221.262475 -595.728555 
L 221.262475 -595.004139 
L 166.01495 -595.004139 
z
"/>
    </defs>
    <g clip-path="url(#pcd2f28329d)">
     <use xlink:href="#m2de29dc927" x="0" y="646.838187" style="fill: #33a02c"/>
    </g>
   </g>
   <g id="PolyCollection_62">
    <defs>
     <path id="m496a75d3c5" d="M 53.31 -595.447659 
L 53.31 -595.447659 
L 108.557525 -595.447659 
L 108.557525 -595.492011 
L 163.80505 -595.492011 
L 163.80505 -595.492011 
L 163.80505 -595.492011 
L 108.557525 -595.492011 
L 108.557525 -595.447659 
L 53.31 -595.447659 
z
"/>
    </defs>
    <g clip-path="url(#pcd2f28329d)">
     <use xlink:href="#m496a75d3c5" x="0" y="646.838187" style="fill: #33a02c"/>
    </g>
   </g>
   <g id="PolyCollection_63">
    <defs>
     <path id="m4d4841bdc9" d="M 166.01495 -595.595499 
L 166.01495 -595.004139 
L 221.262475 -595.004139 
L 221.262475 -595.728555 
L 276.51 -595.728555 
L 276.51 -595.846827 
L 276.51 -595.846827 
L 221.262475 -595.846827 
L 221.262475 -595.595499 
L 166.01495 -595.595499 
z
"/>
    </defs>
    <g clip-path="url(#pcd2f28329d)">
     <use xlink:href="#m4d4841bdc9" x="0" y="646.838187" style="fill: #b3cde3"/>
    </g>
   </g>
   <g id="PolyCollection_64">
    <defs>
     <path id="m692994e910" d="M 53.31 -595.758123 
L 53.31 -595.447659 
L 108.557525 -595.447659 
L 108.557525 -595.492011 
L 163.80505 -595.492011 
L 163.80505 -595.669419 
L 163.80505 -595.669419 
L 108.557525 -595.669419 
L 108.557525 -595.758123 
L 53.31 -595.758123 
z
"/>
    </defs>
    <g clip-path="url(#pcd2f28329d)">
     <use xlink:href="#m692994e910" x="0" y="646.838187" style="fill: #b3cde3"/>
    </g>
   </g>
   <g id="PolyCollection_65">
    <defs>
     <path id="mdfec759ab0" d="M 166.01495 -595.669419 
L 166.01495 -595.595499 
L 221.262475 -595.595499 
L 221.262475 -595.846827 
L 276.51 -595.846827 
L 276.51 -596.083371 
L 276.51 -596.083371 
L 221.262475 -596.083371 
L 221.262475 -595.669419 
L 166.01495 -595.669419 
z
"/>
    </defs>
    <g clip-path="url(#pcd2f28329d)">
     <use xlink:href="#mdfec759ab0" x="0" y="646.838187" style="fill: #b3cde3"/>
    </g>
   </g>
   <g id="PolyCollection_66">
    <defs>
     <path id="m3fdd989b15" d="M 53.31 -596.127723 
L 53.31 -595.758123 
L 108.557525 -595.758123 
L 108.557525 -595.669419 
L 163.80505 -595.669419 
L 163.80505 -596.083371 
L 163.80505 -596.083371 
L 108.557525 -596.083371 
L 108.557525 -596.127723 
L 53.31 -596.127723 
z
"/>
    </defs>
    <g clip-path="url(#pcd2f28329d)">
     <use xlink:href="#m3fdd989b15" x="0" y="646.838187" style="fill: #b3cde3"/>
    </g>
   </g>
   <g id="PolyCollection_67">
    <defs>
     <path id="m130801278d" d="M 166.01495 -596.083371 
L 166.01495 -595.669419 
L 221.262475 -595.669419 
L 221.262475 -596.083371 
L 276.51 -596.083371 
L 276.51 -596.172075 
L 276.51 -596.172075 
L 221.262475 -596.172075 
L 221.262475 -596.083371 
L 166.01495 -596.083371 
z
"/>
    </defs>
    <g clip-path="url(#pcd2f28329d)">
     <use xlink:href="#m130801278d" x="0" y="646.838187" style="fill: #ffffcc"/>
    </g>
   </g>
   <g id="PolyCollection_68">
    <defs>
     <path id="m45fe10435a" d="M 53.31 -596.319915 
L 53.31 -596.127723 
L 108.557525 -596.127723 
L 108.557525 -596.083371 
L 163.80505 -596.083371 
L 163.80505 -596.186859 
L 163.80505 -596.186859 
L 108.557525 -596.186859 
L 108.557525 -596.319915 
L 53.31 -596.319915 
z
"/>
    </defs>
    <g clip-path="url(#pcd2f28329d)">
     <use xlink:href="#m45fe10435a" x="0" y="646.838187" style="fill: #ffffcc"/>
    </g>
   </g>
   <g id="PolyCollection_69">
    <defs>
     <path id="m20254a1519" d="M 166.01495 -596.438187 
L 166.01495 -596.083371 
L 221.262475 -596.083371 
L 221.262475 -596.172075 
L 276.51 -596.172075 
L 276.51 -596.438187 
L 276.51 -596.438187 
L 221.262475 -596.438187 
L 221.262475 -596.438187 
L 166.01495 -596.438187 
z
"/>
    </defs>
    <g clip-path="url(#pcd2f28329d)">
     <use xlink:href="#m20254a1519" x="0" y="646.838187" style="fill: #ffffff"/>
    </g>
   </g>
   <g id="PolyCollection_70">
    <defs>
     <path id="m9726e2b30a" d="M 53.31 -596.438187 
L 53.31 -596.319915 
L 108.557525 -596.319915 
L 108.557525 -596.186859 
L 163.80505 -596.186859 
L 163.80505 -596.438187 
L 163.80505 -596.438187 
L 108.557525 -596.438187 
L 108.557525 -596.438187 
L 53.31 -596.438187 
z
"/>
    </defs>
    <g clip-path="url(#pcd2f28329d)">
     <use xlink:href="#m9726e2b30a" x="0" y="646.838187" style="fill: #ffffff"/>
    </g>
   </g>
   <g id="patch_3">
    <path d="M 166.01495 383.04 
L 276.51 383.04 
L 276.51 50.4 
L 166.01495 50.4 
L 166.01495 383.04 
z
" clip-path="url(#pcd2f28329d)" style="fill: none; stroke: #808080; stroke-linejoin: miter"/>
   </g>
   <g id="patch_4">
    <path d="M 53.31 383.04 
L 163.80505 383.04 
L 163.80505 50.4 
L 53.31 50.4 
L 53.31 383.04 
z
" clip-path="url(#pcd2f28329d)" style="fill: none; stroke: #808080; stroke-linejoin: miter"/>
   </g>
   <g id="patch_5">
    <path d="M 53.31 383.04 
L 53.31 50.4 
" style="fill: none; stroke: #ffffff; stroke-width: 1.25; stroke-linejoin: miter; stroke-linecap: square"/>
   </g>
   <g id="patch_6">
    <path d="M 276.51 383.04 
L 276.51 50.4 
" style="fill: none; stroke: #ffffff; stroke-width: 1.25; stroke-linejoin: miter; stroke-linecap: square"/>
   </g>
   <g id="patch_7">
    <path d="M 53.31 383.04 
L 276.51 383.04 
" style="fill: none; stroke: #ffffff; stroke-width: 1.25; stroke-linejoin: miter; stroke-linecap: square"/>
   </g>
   <g id="patch_8">
    <path d="M 53.31 50.4 
L 276.51 50.4 
" style="fill: none; stroke: #ffffff; stroke-width: 1.25; stroke-linejoin: miter; stroke-linecap: square"/>
   </g>
   <g id="legend_1">
    <g id="patch_9">
     <path d="M 286.442 639.638187 
L 497.217469 639.638187 
Q 499.417469 639.638187 499.417469 637.438187 
L 499.417469 41.468 
Q 499.417469 39.268 497.217469 39.268 
L 286.442 39.268 
Q 284.242 39.268 284.242 41.468 
L 284.242 637.438187 
Q 284.242 639.638187 286.442 639.638187 
z
" style="fill: #eaeaf2; opacity: 0.8; stroke: #cccccc; stroke-linejoin: miter"/>
    </g>
    <g id="text_8">
     <text style="fill: #262626; font: 700 12px 'sans-serif'" transform="translate(322.051609 52.786125)">Aggregrated "mean"</text>
     <text style="fill: #262626; font: 700 12px 'sans-serif'" transform="translate(322.051609 66.31725)">Rank: Family</text>
    </g>
    <g id="patch_10">
     <path d="M 288.642 82.764906 
L 310.642 82.764906 
L 310.642 75.064906 
L 288.642 75.064906 
z
" style="fill: #b2df8a; stroke: #b2df8a; stroke-linejoin: miter"/>
    </g>
    <g id="text_9">
     <text style="fill: #262626; font: 11px 'sans-serif'; text-anchor: start" x="319.442" y="82.764906" transform="rotate(-0, 319.442, 82.764906)">Lachnospiraceae</text>
    </g>
    <g id="patch_11">
     <path d="M 288.642 98.910844 
L 310.642 98.910844 
L 310.642 91.210844 
L 288.642 91.210844 
z
" style="fill: #1f78b4; stroke: #1f78b4; stroke-linejoin: miter"/>
    </g>
    <g id="text_10">
     <text style="fill: #262626; font: 11px 'sans-serif'; text-anchor: start" x="319.442" y="98.910844" transform="rotate(-0, 319.442, 98.910844)">Muribaculaceae</text>
    </g>
    <g id="patch_12">
     <path d="M 288.642 115.056781 
L 310.642 115.056781 
L 310.642 107.356781 
L 288.642 107.356781 
z
" style="fill: #fdbf6f; stroke: #fdbf6f; stroke-linejoin: miter"/>
    </g>
    <g id="text_11">
     <text style="fill: #262626; font: 11px 'sans-serif'; text-anchor: start" x="319.442" y="115.056781" transform="rotate(-0, 319.442, 115.056781)">Oscillospiraceae_88309</text>
    </g>
    <g id="patch_13">
     <path d="M 288.642 131.508656 
L 310.642 131.508656 
L 310.642 123.808656 
L 288.642 123.808656 
z
" style="fill: #33a02c; stroke: #33a02c; stroke-linejoin: miter"/>
    </g>
    <g id="text_12">
     <text style="fill: #262626; font: 11px 'sans-serif'; text-anchor: start" x="319.442" y="131.508656" transform="rotate(-0, 319.442, 131.508656)">Erysipelotrichaceae</text>
    </g>
    <g id="patch_14">
     <path d="M 288.642 147.654594 
L 310.642 147.654594 
L 310.642 139.954594 
L 288.642 139.954594 
z
" style="fill: #fb9a99; stroke: #fb9a99; stroke-linejoin: miter"/>
    </g>
    <g id="text_13">
     <text style="fill: #262626; font: 11px 'sans-serif'; text-anchor: start" x="319.442" y="147.654594" transform="rotate(-0, 319.442, 147.654594)">Bacteroidaceae</text>
    </g>
    <g id="patch_15">
     <path d="M 288.642 163.800531 
L 310.642 163.800531 
L 310.642 156.100531 
L 288.642 156.100531 
z
" style="fill: #cab2d6; stroke: #cab2d6; stroke-linejoin: miter"/>
    </g>
    <g id="text_14">
     <text style="fill: #262626; font: 11px 'sans-serif'; text-anchor: start" x="319.442" y="163.800531" transform="rotate(-0, 319.442, 163.800531)">unclassified family</text>
    </g>
    <g id="patch_16">
     <path d="M 288.642 179.946469 
L 310.642 179.946469 
L 310.642 172.246469 
L 288.642 172.246469 
z
" style="fill: #e31a1c; stroke: #e31a1c; stroke-linejoin: miter"/>
    </g>
    <g id="text_15">
     <text style="fill: #262626; font: 11px 'sans-serif'; text-anchor: start" x="319.442" y="179.946469" transform="rotate(-0, 319.442, 179.946469)">Lactobacillaceae</text>
    </g>
    <g id="patch_17">
     <path d="M 288.642 196.092406 
L 310.642 196.092406 
L 310.642 188.392406 
L 288.642 188.392406 
z
" style="fill: #6a3d9a; stroke: #6a3d9a; stroke-linejoin: miter"/>
    </g>
    <g id="text_16">
     <text style="fill: #262626; font: 11px 'sans-serif'; text-anchor: start" x="319.442" y="196.092406" transform="rotate(-0, 319.442, 196.092406)">Rikenellaceae</text>
    </g>
    <g id="patch_18">
     <path d="M 288.642 212.238344 
L 310.642 212.238344 
L 310.642 204.538344 
L 288.642 204.538344 
z
" style="fill: #ffff99; stroke: #ffff99; stroke-linejoin: miter"/>
    </g>
    <g id="text_17">
     <text style="fill: #262626; font: 11px 'sans-serif'; text-anchor: start" x="319.442" y="212.238344" transform="rotate(-0, 319.442, 212.238344)">Ruminococcaceae</text>
    </g>
    <g id="patch_19">
     <path d="M 288.642 228.384281 
L 310.642 228.384281 
L 310.642 220.684281 
L 288.642 220.684281 
z
" style="fill: #7570b3; stroke: #7570b3; stroke-linejoin: miter"/>
    </g>
    <g id="text_18">
     <text style="fill: #262626; font: 11px 'sans-serif'; text-anchor: start" x="319.442" y="228.384281" transform="rotate(-0, 319.442, 228.384281)">Desulfovibrionaceae</text>
    </g>
    <g id="patch_20">
     <path d="M 288.642 244.530219 
L 310.642 244.530219 
L 310.642 236.830219 
L 288.642 236.830219 
z
" style="fill: #b15928; stroke: #b15928; stroke-linejoin: miter"/>
    </g>
    <g id="text_19">
     <text style="fill: #262626; font: 11px 'sans-serif'; text-anchor: start" x="319.442" y="244.530219" transform="rotate(-0, 319.442, 244.530219)">CAG-508</text>
    </g>
    <g id="patch_21">
     <path d="M 288.642 260.676156 
L 310.642 260.676156 
L 310.642 252.976156 
L 288.642 252.976156 
z
" style="fill: #e7298a; stroke: #e7298a; stroke-linejoin: miter"/>
    </g>
    <g id="text_20">
     <text style="fill: #262626; font: 11px 'sans-serif'; text-anchor: start" x="319.442" y="260.676156" transform="rotate(-0, 319.442, 260.676156)">Anaerotignaceae</text>
    </g>
    <g id="patch_22">
     <path d="M 288.642 276.822094 
L 310.642 276.822094 
L 310.642 269.122094 
L 288.642 269.122094 
z
" style="fill: #ff7f00; stroke: #ff7f00; stroke-linejoin: miter"/>
    </g>
    <g id="text_21">
     <text style="fill: #262626; font: 11px 'sans-serif'; text-anchor: start" x="319.442" y="276.822094" transform="rotate(-0, 319.442, 276.822094)">Akkermansiaceae</text>
    </g>
    <g id="patch_23">
     <path d="M 288.642 292.968031 
L 310.642 292.968031 
L 310.642 285.268031 
L 288.642 285.268031 
z
" style="fill: #a6761d; stroke: #a6761d; stroke-linejoin: miter"/>
    </g>
    <g id="text_22">
     <text style="fill: #262626; font: 11px 'sans-serif'; text-anchor: start" x="319.442" y="292.968031" transform="rotate(-0, 319.442, 292.968031)">Dehalobacteriaceae</text>
    </g>
    <g id="patch_24">
     <path d="M 288.642 309.113969 
L 310.642 309.113969 
L 310.642 301.413969 
L 288.642 301.413969 
z
" style="fill: #1b9e77; stroke: #1b9e77; stroke-linejoin: miter"/>
    </g>
    <g id="text_23">
     <text style="fill: #262626; font: 11px 'sans-serif'; text-anchor: start" x="319.442" y="309.113969" transform="rotate(-0, 319.442, 309.113969)">Butyricicoccaceae</text>
    </g>
    <g id="patch_25">
     <path d="M 288.642 325.259906 
L 310.642 325.259906 
L 310.642 317.559906 
L 288.642 317.559906 
z
" style="fill: #d95f02; stroke: #d95f02; stroke-linejoin: miter"/>
    </g>
    <g id="text_24">
     <text style="fill: #262626; font: 11px 'sans-serif'; text-anchor: start" x="319.442" y="325.259906" transform="rotate(-0, 319.442, 325.259906)">Turicibacteraceae</text>
    </g>
    <g id="patch_26">
     <path d="M 288.642 341.405844 
L 310.642 341.405844 
L 310.642 333.705844 
L 288.642 333.705844 
z
" style="fill: #66a61e; stroke: #66a61e; stroke-linejoin: miter"/>
    </g>
    <g id="text_25">
     <text style="fill: #262626; font: 11px 'sans-serif'; text-anchor: start" x="319.442" y="341.405844" transform="rotate(-0, 319.442, 341.405844)">Acutalibacteraceae</text>
    </g>
    <g id="patch_27">
     <path d="M 288.642 357.551781 
L 310.642 357.551781 
L 310.642 349.851781 
L 288.642 349.851781 
z
" style="fill: #1b9e77; stroke: #1b9e77; stroke-linejoin: miter"/>
    </g>
    <g id="text_26">
     <text style="fill: #262626; font: 11px 'sans-serif'; text-anchor: start" x="319.442" y="357.551781" transform="rotate(-0, 319.442, 357.551781)">Clostridiaceae_222000</text>
    </g>
    <g id="patch_28">
     <path d="M 288.642 374.003656 
L 310.642 374.003656 
L 310.642 366.303656 
L 288.642 366.303656 
z
" style="fill: #e7298a; stroke: #e7298a; stroke-linejoin: miter"/>
    </g>
    <g id="text_27">
     <text style="fill: #262626; font: 11px 'sans-serif'; text-anchor: start" x="319.442" y="374.003656" transform="rotate(-0, 319.442, 374.003656)">Marinifilaceae</text>
    </g>
    <g id="patch_29">
     <path d="M 288.642 390.149594 
L 310.642 390.149594 
L 310.642 382.449594 
L 288.642 382.449594 
z
" style="fill: #fbb4ae; stroke: #fbb4ae; stroke-linejoin: miter"/>
    </g>
    <g id="text_28">
     <text style="fill: #262626; font: 11px 'sans-serif'; text-anchor: start" x="319.442" y="390.149594" transform="rotate(-0, 319.442, 390.149594)">Gastranaerophilaceae</text>
    </g>
    <g id="patch_30">
     <path d="M 288.642 406.295531 
L 310.642 406.295531 
L 310.642 398.595531 
L 288.642 398.595531 
z
" style="fill: #e6ab02; stroke: #e6ab02; stroke-linejoin: miter"/>
    </g>
    <g id="text_29">
     <text style="fill: #262626; font: 11px 'sans-serif'; text-anchor: start" x="319.442" y="406.295531" transform="rotate(-0, 319.442, 406.295531)">Eggerthellaceae</text>
    </g>
    <g id="patch_31">
     <path d="M 288.642 422.441469 
L 310.642 422.441469 
L 310.642 414.741469 
L 288.642 414.741469 
z
" style="fill: #7570b3; stroke: #7570b3; stroke-linejoin: miter"/>
    </g>
    <g id="text_30">
     <text style="fill: #262626; font: 11px 'sans-serif'; text-anchor: start" x="319.442" y="422.441469" transform="rotate(-0, 319.442, 422.441469)">Peptostreptococcaceae_256921</text>
    </g>
    <g id="patch_32">
     <path d="M 288.642 438.893344 
L 310.642 438.893344 
L 310.642 431.193344 
L 288.642 431.193344 
z
" style="fill: #d95f02; stroke: #d95f02; stroke-linejoin: miter"/>
    </g>
    <g id="text_31">
     <text style="fill: #262626; font: 11px 'sans-serif'; text-anchor: start" x="319.442" y="438.893344" transform="rotate(-0, 319.442, 438.893344)">UBA932</text>
    </g>
    <g id="patch_33">
     <path d="M 288.642 455.039281 
L 310.642 455.039281 
L 310.642 447.339281 
L 288.642 447.339281 
z
" style="fill: #ccebc5; stroke: #ccebc5; stroke-linejoin: miter"/>
    </g>
    <g id="text_32">
     <text style="fill: #262626; font: 11px 'sans-serif'; text-anchor: start" x="319.442" y="455.039281" transform="rotate(-0, 319.442, 455.039281)">CAG-314</text>
    </g>
    <g id="patch_34">
     <path d="M 288.642 471.185219 
L 310.642 471.185219 
L 310.642 463.485219 
L 288.642 463.485219 
z
" style="fill: #fed9a6; stroke: #fed9a6; stroke-linejoin: miter"/>
    </g>
    <g id="text_33">
     <text style="fill: #262626; font: 11px 'sans-serif'; text-anchor: start" x="319.442" y="471.185219" transform="rotate(-0, 319.442, 471.185219)">Tannerellaceae</text>
    </g>
    <g id="patch_35">
     <path d="M 288.642 487.331156 
L 310.642 487.331156 
L 310.642 479.631156 
L 288.642 479.631156 
z
" style="fill: #decbe4; stroke: #decbe4; stroke-linejoin: miter"/>
    </g>
    <g id="text_34">
     <text style="fill: #262626; font: 11px 'sans-serif'; text-anchor: start" x="319.442" y="487.331156" transform="rotate(-0, 319.442, 487.331156)">Bifidobacteriaceae</text>
    </g>
    <g id="patch_36">
     <path d="M 288.642 503.477094 
L 310.642 503.477094 
L 310.642 495.777094 
L 288.642 495.777094 
z
" style="fill: #666666; stroke: #666666; stroke-linejoin: miter"/>
    </g>
    <g id="text_35">
     <text style="fill: #262626; font: 11px 'sans-serif'; text-anchor: start" x="319.442" y="503.477094" transform="rotate(-0, 319.442, 503.477094)">Coprobacillaceae</text>
    </g>
    <g id="patch_37">
     <path d="M 288.642 519.623031 
L 310.642 519.623031 
L 310.642 511.923031 
L 288.642 511.923031 
z
" style="fill: #ccebc5; stroke: #ccebc5; stroke-linejoin: miter"/>
    </g>
    <g id="text_36">
     <text style="fill: #262626; font: 11px 'sans-serif'; text-anchor: start" x="319.442" y="519.623031" transform="rotate(-0, 319.442, 519.623031)">Burkholderiaceae_A_595427</text>
    </g>
    <g id="patch_38">
     <path d="M 288.642 536.074906 
L 310.642 536.074906 
L 310.642 528.374906 
L 288.642 528.374906 
z
" style="fill: #f2f2f2; stroke: #f2f2f2; stroke-linejoin: miter"/>
    </g>
    <g id="text_37">
     <text style="fill: #262626; font: 11px 'sans-serif'; text-anchor: start" x="319.442" y="536.074906" transform="rotate(-0, 319.442, 536.074906)">CAG-239</text>
    </g>
    <g id="patch_39">
     <path d="M 288.642 552.220844 
L 310.642 552.220844 
L 310.642 544.520844 
L 288.642 544.520844 
z
" style="fill: #b2df8a; stroke: #b2df8a; stroke-linejoin: miter"/>
    </g>
    <g id="text_38">
     <text style="fill: #262626; font: 11px 'sans-serif'; text-anchor: start" x="319.442" y="552.220844" transform="rotate(-0, 319.442, 552.220844)">Pseudomonadaceae</text>
    </g>
    <g id="patch_40">
     <path d="M 288.642 568.366781 
L 310.642 568.366781 
L 310.642 560.666781 
L 288.642 560.666781 
z
" style="fill: #33a02c; stroke: #33a02c; stroke-linejoin: miter"/>
    </g>
    <g id="text_39">
     <text style="fill: #262626; font: 11px 'sans-serif'; text-anchor: start" x="319.442" y="568.366781" transform="rotate(-0, 319.442, 568.366781)">Parvibaculaceae</text>
    </g>
    <g id="patch_41">
     <path d="M 288.642 584.512719 
L 310.642 584.512719 
L 310.642 576.812719 
L 288.642 576.812719 
z
" style="fill: #b3cde3; stroke: #b3cde3; stroke-linejoin: miter"/>
    </g>
    <g id="text_40">
     <text style="fill: #262626; font: 11px 'sans-serif'; text-anchor: start" x="319.442" y="584.512719" transform="rotate(-0, 319.442, 584.512719)">Atopobiaceae</text>
    </g>
    <g id="patch_42">
     <path d="M 288.642 600.658656 
L 310.642 600.658656 
L 310.642 592.958656 
L 288.642 592.958656 
z
" style="fill: #b3cde3; stroke: #b3cde3; stroke-linejoin: miter"/>
    </g>
    <g id="text_41">
     <text style="fill: #262626; font: 11px 'sans-serif'; text-anchor: start" x="319.442" y="600.658656" transform="rotate(-0, 319.442, 600.658656)">Borkfalkiaceae</text>
    </g>
    <g id="patch_43">
     <path d="M 288.642 616.804594 
L 310.642 616.804594 
L 310.642 609.104594 
L 288.642 609.104594 
z
" style="fill: #ffffcc; stroke: #ffffcc; stroke-linejoin: miter"/>
    </g>
    <g id="text_42">
     <text style="fill: #262626; font: 11px 'sans-serif'; text-anchor: start" x="319.442" y="616.804594" transform="rotate(-0, 319.442, 616.804594)">UBA1381</text>
    </g>
    <g id="patch_44">
     <path d="M 288.642 632.950531 
L 310.642 632.950531 
L 310.642 625.250531 
L 288.642 625.250531 
z
" style="fill: #ffffff; stroke: #ffffff; stroke-linejoin: miter"/>
    </g>
    <g id="text_43">
     <text style="fill: #262626; font: 11px 'sans-serif'; text-anchor: start" x="319.442" y="632.950531" transform="rotate(-0, 319.442, 632.950531)"> abundance</text>
    </g>
   </g>
  </g>
  <g id="axes_2">
   <g id="matplotlib.axis_3">
    <g id="xtick_1">
     <g id="line2d_7">
      <defs>
       <path id="m5e42a1445d" d="M 0 0 
L 0 -6 
" style="stroke: #262626; stroke-width: 1.25"/>
      </defs>
      <g>
       <use xlink:href="#m5e42a1445d" x="221.262475" y="50.4" style="fill: #262626; stroke: #262626; stroke-width: 1.25"/>
      </g>
     </g>
     <g id="text_44">
      <text style="fill: #262626; font: 11px 'sans-serif'" transform="translate(202.302085 26.29475)">female</text>
      <text style="fill: #262626; font: 11px 'sans-serif'" transform="translate(201.877553 38.612344)">(n=18)</text>
     </g>
    </g>
    <g id="xtick_2">
     <g id="line2d_8">
      <g>
       <use xlink:href="#m5e42a1445d" x="108.557525" y="50.4" style="fill: #262626; stroke: #262626; stroke-width: 1.25"/>
      </g>
     </g>
     <g id="text_45">
      <text style="fill: #262626; font: 11px 'sans-serif'" transform="translate(94.917525 26.29475)">male</text>
      <text style="fill: #262626; font: 11px 'sans-serif'" transform="translate(89.172603 38.612344)">(n=18)</text>
     </g>
    </g>
   </g>
   <g id="patch_45">
    <path d="M 53.31 383.04 
L 53.31 50.4 
" style="fill: none; stroke: #ffffff; stroke-width: 1.25; stroke-linejoin: miter; stroke-linecap: square"/>
   </g>
   <g id="patch_46">
    <path d="M 276.51 383.04 
L 276.51 50.4 
" style="fill: none; stroke: #ffffff; stroke-width: 1.25; stroke-linejoin: miter; stroke-linecap: square"/>
   </g>
   <g id="patch_47">
    <path d="M 53.31 383.04 
L 276.51 383.04 
" style="fill: none; stroke: #ffffff; stroke-width: 1.25; stroke-linejoin: miter; stroke-linecap: square"/>
   </g>
   <g id="patch_48">
    <path d="M 53.31 50.4 
L 276.51 50.4 
" style="fill: none; stroke: #ffffff; stroke-width: 1.25; stroke-linejoin: miter; stroke-linecap: square"/>
   </g>
  </g>
  <g id="axes_3">
   <g id="matplotlib.axis_4">
    <g id="xtick_3">
     <g id="line2d_9">
      <defs>
       <path id="mf92f90eeb3" d="M 0 0 
L 0 6 
" style="stroke: #262626; stroke-width: 1.25"/>
      </defs>
      <g>
       <use xlink:href="#mf92f90eeb3" x="248.886238" y="383.04" style="fill: #262626; stroke: #262626; stroke-width: 1.25"/>
      </g>
     </g>
     <g id="text_46">
      <text style="fill: #262626; font: 11px 'sans-serif'" transform="translate(245.762753 423.772266)rotate(-90)">TCDD</text>
      <text style="fill: #262626; font: 11px 'sans-serif'" transform="translate(258.080347 424.311094)rotate(-90)">(n=9)</text>
     </g>
    </g>
    <g id="xtick_4">
     <g id="line2d_10">
      <g>
       <use xlink:href="#mf92f90eeb3" x="193.638713" y="383.04" style="fill: #262626; stroke: #262626; stroke-width: 1.25"/>
      </g>
     </g>
     <g id="text_47">
      <text style="fill: #262626; font: 11px 'sans-serif'" transform="translate(190.515228 417.394844)rotate(-90)">ctrl</text>
      <text style="fill: #262626; font: 11px 'sans-serif'" transform="translate(202.832822 424.311094)rotate(-90)">(n=9)</text>
     </g>
    </g>
    <g id="xtick_5">
     <g id="line2d_11">
      <g>
       <use xlink:href="#mf92f90eeb3" x="136.181287" y="383.04" style="fill: #262626; stroke: #262626; stroke-width: 1.25"/>
      </g>
     </g>
     <g id="text_48">
      <text style="fill: #262626; font: 11px 'sans-serif'" transform="translate(133.057803 423.772266)rotate(-90)">TCDD</text>
      <text style="fill: #262626; font: 11px 'sans-serif'" transform="translate(145.375397 424.311094)rotate(-90)">(n=9)</text>
     </g>
    </g>
    <g id="xtick_6">
     <g id="line2d_12">
      <g>
       <use xlink:href="#mf92f90eeb3" x="80.933762" y="383.04" style="fill: #262626; stroke: #262626; stroke-width: 1.25"/>
      </g>
     </g>
     <g id="text_49">
      <text style="fill: #262626; font: 11px 'sans-serif'" transform="translate(77.810278 417.394844)rotate(-90)">ctrl</text>
      <text style="fill: #262626; font: 11px 'sans-serif'" transform="translate(90.127872 424.311094)rotate(-90)">(n=9)</text>
     </g>
    </g>
    <g id="xtick_7">
     <g id="line2d_13">
      <path d="M 221.262475 383.04 
L 221.262475 50.4 
" clip-path="url(#pcd2f28329d)" style="fill: none; stroke: #ffffff; stroke-linecap: round"/>
     </g>
     <g id="line2d_14">
      <defs>
       <path id="ma8970d78ab" d="M 0 0 
L 0 4 
" style="stroke: #262626"/>
      </defs>
      <g>
       <use xlink:href="#ma8970d78ab" x="221.262475" y="383.04" style="fill: #262626; stroke: #262626"/>
      </g>
     </g>
    </g>
    <g id="xtick_8">
     <g id="line2d_15">
      <path d="M 166.01495 383.04 
L 166.01495 50.4 
" clip-path="url(#pcd2f28329d)" style="fill: none; stroke: #ffffff; stroke-linecap: round"/>
     </g>
     <g id="line2d_16">
      <g>
       <use xlink:href="#ma8970d78ab" x="166.01495" y="383.04" style="fill: #262626; stroke: #262626"/>
      </g>
     </g>
    </g>
    <g id="xtick_9">
     <g id="line2d_17">
      <path d="M 108.557525 383.04 
L 108.557525 50.4 
" clip-path="url(#pcd2f28329d)" style="fill: none; stroke: #ffffff; stroke-linecap: round"/>
     </g>
     <g id="line2d_18">
      <g>
       <use xlink:href="#ma8970d78ab" x="108.557525" y="383.04" style="fill: #262626; stroke: #262626"/>
      </g>
     </g>
    </g>
    <g id="xtick_10">
     <g id="line2d_19">
      <path d="M 53.31 383.04 
L 53.31 50.4 
" clip-path="url(#pcd2f28329d)" style="fill: none; stroke: #ffffff; stroke-linecap: round"/>
     </g>
     <g id="line2d_20">
      <g>
       <use xlink:href="#ma8970d78ab" x="53.31" y="383.04" style="fill: #262626; stroke: #262626"/>
      </g>
     </g>
    </g>
   </g>
   <g id="patch_49">
    <path d="M 53.31 383.04 
L 53.31 50.4 
" style="fill: none; stroke: #ffffff; stroke-width: 1.25; stroke-linejoin: miter; stroke-linecap: square"/>
   </g>
   <g id="patch_50">
    <path d="M 276.51 383.04 
L 276.51 50.4 
" style="fill: none; stroke: #ffffff; stroke-width: 1.25; stroke-linejoin: miter; stroke-linecap: square"/>
   </g>
   <g id="patch_51">
    <path d="M 53.31 383.04 
L 276.51 383.04 
" style="fill: none; stroke: #ffffff; stroke-width: 1.25; stroke-linejoin: miter; stroke-linecap: square"/>
   </g>
   <g id="patch_52">
    <path d="M 53.31 50.4 
L 276.51 50.4 
" style="fill: none; stroke: #ffffff; stroke-width: 1.25; stroke-linejoin: miter; stroke-linecap: square"/>
   </g>
  </g>
  <g id="text_50">
   <text style="fill: #262626; font: 14.4px 'sans-serif'; text-anchor: middle" x="161.31" y="18.14175" transform="rotate(-0, 161.31, 18.14175)">family cecum</text>
  </g>
 </g>
 <defs>
  <clipPath id="pcd2f28329d">
   <rect x="53.31" y="50.4" width="223.2" height="332.64"/>
  </clipPath>
 </defs>
</svg>
