<?xml version="1.0" encoding="utf-8" standalone="no"?>
<!DOCTYPE svg PUBLIC "-//W3C//DTD SVG 1.1//EN"
  "http://www.w3.org/Graphics/SVG/1.1/DTD/svg11.dtd">
<svg xmlns:xlink="http://www.w3.org/1999/xlink" width="506.617469pt" height="598.400375pt" viewBox="0 0 506.617469 598.400375" xmlns="http://www.w3.org/2000/svg" version="1.1">
 <metadata>
  <rdf:RDF xmlns:dc="http://purl.org/dc/elements/1.1/" xmlns:cc="http://creativecommons.org/ns#" xmlns:rdf="http://www.w3.org/1999/02/22-rdf-syntax-ns#">
   <cc:Work>
    <dc:type rdf:resource="http://purl.org/dc/dcmitype/StillImage"/>
    <dc:date>2025-02-20T16:04:54.437375</dc:date>
    <dc:format>image/svg+xml</dc:format>
    <dc:creator>
     <cc:Agent>
      <dc:title>Matplotlib v3.5.3, https://matplotlib.org/</dc:title>
     </cc:Agent>
    </dc:creator>
   </cc:Work>
  </rdf:RDF>
 </metadata>
 <defs>
  <style type="text/css">*{stroke-linejoin: round; stroke-linecap: butt}</style>
 </defs>
 <g id="figure_1">
  <g id="patch_1">
   <path d="M 0 598.400375 
L 506.617469 598.400375 
L 506.617469 0 
L 0 0 
z
" style="fill: #ffffff"/>
  </g>
  <g id="axes_1">
   <g id="patch_2">
    <path d="M 53.31 383.04 
L 276.51 383.04 
L 276.51 50.4 
L 53.31 50.4 
z
" style="fill: #ffffff"/>
   </g>
   <g id="matplotlib.axis_1"/>
   <g id="matplotlib.axis_2">
    <g id="ytick_1">
     <g id="line2d_1">
      <path d="M 53.31 383.04 
L 276.51 383.04 
" clip-path="url(#pdb44a65e50)" style="fill: none; stroke: #ffffff; stroke-linecap: round"/>
     </g>
     <g id="text_1">
      <text style="fill: #262626; font: 11px 'sans-serif'; text-anchor: end" x="43.81" y="387.219141" transform="rotate(-0, 43.81, 387.219141)">0</text>
     </g>
    </g>
    <g id="ytick_2">
     <g id="line2d_2">
      <path d="M 53.31 316.512 
L 276.51 316.512 
" clip-path="url(#pdb44a65e50)" style="fill: none; stroke: #ffffff; stroke-linecap: round"/>
     </g>
     <g id="text_2">
      <text style="fill: #262626; font: 11px 'sans-serif'; text-anchor: end" x="43.81" y="320.691141" transform="rotate(-0, 43.81, 320.691141)">20</text>
     </g>
    </g>
    <g id="ytick_3">
     <g id="line2d_3">
      <path d="M 53.31 249.984 
L 276.51 249.984 
" clip-path="url(#pdb44a65e50)" style="fill: none; stroke: #ffffff; stroke-linecap: round"/>
     </g>
     <g id="text_3">
      <text style="fill: #262626; font: 11px 'sans-serif'; text-anchor: end" x="43.81" y="254.163141" transform="rotate(-0, 43.81, 254.163141)">40</text>
     </g>
    </g>
    <g id="ytick_4">
     <g id="line2d_4">
      <path d="M 53.31 183.456 
L 276.51 183.456 
" clip-path="url(#pdb44a65e50)" style="fill: none; stroke: #ffffff; stroke-linecap: round"/>
     </g>
     <g id="text_4">
      <text style="fill: #262626; font: 11px 'sans-serif'; text-anchor: end" x="43.81" y="187.635141" transform="rotate(-0, 43.81, 187.635141)">60</text>
     </g>
    </g>
    <g id="ytick_5">
     <g id="line2d_5">
      <path d="M 53.31 116.928 
L 276.51 116.928 
" clip-path="url(#pdb44a65e50)" style="fill: none; stroke: #ffffff; stroke-linecap: round"/>
     </g>
     <g id="text_5">
      <text style="fill: #262626; font: 11px 'sans-serif'; text-anchor: end" x="43.81" y="121.107141" transform="rotate(-0, 43.81, 121.107141)">80</text>
     </g>
    </g>
    <g id="ytick_6">
     <g id="line2d_6">
      <path d="M 53.31 50.4 
L 276.51 50.4 
" clip-path="url(#pdb44a65e50)" style="fill: none; stroke: #ffffff; stroke-linecap: round"/>
     </g>
     <g id="text_6">
      <text style="fill: #262626; font: 11px 'sans-serif'; text-anchor: end" x="43.81" y="54.579141" transform="rotate(-0, 43.81, 54.579141)">100</text>
     </g>
    </g>
    <g id="text_7">
     <text style="fill: #262626; font: 12px 'sans-serif'; text-anchor: middle" x="16.318125" y="216.72" transform="rotate(-90, 16.318125, 216.72)">relative abundance family level %</text>
    </g>
   </g>
   <g id="PolyCollection_1">
    <defs>
     <path id="m554d6116b9" d="M 166.01495 -345.666551 
L 166.01495 -215.360375 
L 221.262475 -215.360375 
L 221.262475 -215.360375 
L 276.51 -215.360375 
L 276.51 -368.315639 
L 276.51 -368.315639 
L 221.262475 -368.315639 
L 221.262475 -345.666551 
L 166.01495 -345.666551 
z
"/>
    </defs>
    <g clip-path="url(#pdb44a65e50)">
     <use xlink:href="#m554d6116b9" x="0" y="598.400375" style="fill: #b2df8a"/>
    </g>
   </g>
   <g id="PolyCollection_2">
    <defs>
     <path id="mbd7066d1c5" d="M 53.31 -370.089719 
L 53.31 -215.360375 
L 108.557525 -215.360375 
L 108.557525 -215.360375 
L 163.80505 -215.360375 
L 163.80505 -380.630711 
L 163.80505 -380.630711 
L 108.557525 -380.630711 
L 108.557525 -370.089719 
L 53.31 -370.089719 
z
"/>
    </defs>
    <g clip-path="url(#pdb44a65e50)">
     <use xlink:href="#mbd7066d1c5" x="0" y="598.400375" style="fill: #b2df8a"/>
    </g>
   </g>
   <g id="PolyCollection_3">
    <defs>
     <path id="me6759b1f96" d="M 166.01495 -423.445175 
L 166.01495 -345.666551 
L 221.262475 -345.666551 
L 221.262475 -368.315639 
L 276.51 -368.315639 
L 276.51 -442.087799 
L 276.51 -442.087799 
L 221.262475 -442.087799 
L 221.262475 -423.445175 
L 166.01495 -423.445175 
z
"/>
    </defs>
    <g clip-path="url(#pdb44a65e50)">
     <use xlink:href="#me6759b1f96" x="0" y="598.400375" style="fill: #1f78b4"/>
    </g>
   </g>
   <g id="PolyCollection_4">
    <defs>
     <path id="mbacee6e837" d="M 53.31 -444.556727 
L 53.31 -370.089719 
L 108.557525 -370.089719 
L 108.557525 -380.630711 
L 163.80505 -380.630711 
L 163.80505 -442.309559 
L 163.80505 -442.309559 
L 108.557525 -442.309559 
L 108.557525 -444.556727 
L 53.31 -444.556727 
z
"/>
    </defs>
    <g clip-path="url(#pdb44a65e50)">
     <use xlink:href="#mbacee6e837" x="0" y="598.400375" style="fill: #1f78b4"/>
    </g>
   </g>
   <g id="PolyCollection_5">
    <defs>
     <path id="m7a08f6c988" d="M 166.01495 -446.301239 
L 166.01495 -423.445175 
L 221.262475 -423.445175 
L 221.262475 -442.087799 
L 276.51 -442.087799 
L 276.51 -464.692535 
L 276.51 -464.692535 
L 221.262475 -464.692535 
L 221.262475 -446.301239 
L 166.01495 -446.301239 
z
"/>
    </defs>
    <g clip-path="url(#pdb44a65e50)">
     <use xlink:href="#m7a08f6c988" x="0" y="598.400375" style="fill: #fdbf6f"/>
    </g>
   </g>
   <g id="PolyCollection_6">
    <defs>
     <path id="m7a88b442c1" d="M 53.31 -464.130743 
L 53.31 -444.556727 
L 108.557525 -444.556727 
L 108.557525 -442.309559 
L 163.80505 -442.309559 
L 163.80505 -463.169783 
L 163.80505 -463.169783 
L 108.557525 -463.169783 
L 108.557525 -464.130743 
L 53.31 -464.130743 
z
"/>
    </defs>
    <g clip-path="url(#pdb44a65e50)">
     <use xlink:href="#m7a88b442c1" x="0" y="598.400375" style="fill: #fdbf6f"/>
    </g>
   </g>
   <g id="PolyCollection_7">
    <defs>
     <path id="mdecc6407f1" d="M 166.01495 -463.214135 
L 166.01495 -446.301239 
L 221.262475 -446.301239 
L 221.262475 -464.692535 
L 276.51 -464.692535 
L 276.51 -477.229367 
L 276.51 -477.229367 
L 221.262475 -477.229367 
L 221.262475 -463.214135 
L 166.01495 -463.214135 
z
"/>
    </defs>
    <g clip-path="url(#pdb44a65e50)">
     <use xlink:href="#mdecc6407f1" x="0" y="598.400375" style="fill: #33a02c"/>
    </g>
   </g>
   <g id="PolyCollection_8">
    <defs>
     <path id="mfe74afa6cb" d="M 53.31 -477.229367 
L 53.31 -464.130743 
L 108.557525 -464.130743 
L 108.557525 -463.169783 
L 163.80505 -463.169783 
L 163.80505 -476.711927 
L 163.80505 -476.711927 
L 108.557525 -476.711927 
L 108.557525 -477.229367 
L 53.31 -477.229367 
z
"/>
    </defs>
    <g clip-path="url(#pdb44a65e50)">
     <use xlink:href="#mfe74afa6cb" x="0" y="598.400375" style="fill: #33a02c"/>
    </g>
   </g>
   <g id="PolyCollection_9">
    <defs>
     <path id="mee670a111d" d="M 166.01495 -476.578871 
L 166.01495 -463.214135 
L 221.262475 -463.214135 
L 221.262475 -477.229367 
L 276.51 -477.229367 
L 276.51 -489.056567 
L 276.51 -489.056567 
L 221.262475 -489.056567 
L 221.262475 -476.578871 
L 166.01495 -476.578871 
z
"/>
    </defs>
    <g clip-path="url(#pdb44a65e50)">
     <use xlink:href="#mee670a111d" x="0" y="598.400375" style="fill: #fb9a99"/>
    </g>
   </g>
   <g id="PolyCollection_10">
    <defs>
     <path id="m7eccbea115" d="M 53.31 -488.184311 
L 53.31 -477.229367 
L 108.557525 -477.229367 
L 108.557525 -476.711927 
L 163.80505 -476.711927 
L 163.80505 -487.031159 
L 163.80505 -487.031159 
L 108.557525 -487.031159 
L 108.557525 -488.184311 
L 53.31 -488.184311 
z
"/>
    </defs>
    <g clip-path="url(#pdb44a65e50)">
     <use xlink:href="#m7eccbea115" x="0" y="598.400375" style="fill: #fb9a99"/>
    </g>
   </g>
   <g id="PolyCollection_11">
    <defs>
     <path id="maf12a3c9d8" d="M 166.01495 -484.695287 
L 166.01495 -476.578871 
L 221.262475 -476.578871 
L 221.262475 -489.056567 
L 276.51 -489.056567 
L 276.51 -497.542583 
L 276.51 -497.542583 
L 221.262475 -497.542583 
L 221.262475 -484.695287 
L 166.01495 -484.695287 
z
"/>
    </defs>
    <g clip-path="url(#pdb44a65e50)">
     <use xlink:href="#maf12a3c9d8" x="0" y="598.400375" style="fill: #cab2d6"/>
    </g>
   </g>
   <g id="PolyCollection_12">
    <defs>
     <path id="mdfce6bcf2b" d="M 53.31 -499.109687 
L 53.31 -488.184311 
L 108.557525 -488.184311 
L 108.557525 -487.031159 
L 163.80505 -487.031159 
L 163.80505 -494.644919 
L 163.80505 -494.644919 
L 108.557525 -494.644919 
L 108.557525 -499.109687 
L 53.31 -499.109687 
z
"/>
    </defs>
    <g clip-path="url(#pdb44a65e50)">
     <use xlink:href="#mdfce6bcf2b" x="0" y="598.400375" style="fill: #cab2d6"/>
    </g>
   </g>
   <g id="PolyCollection_13">
    <defs>
     <path id="mdec35f55a8" d="M 166.01495 -495.221495 
L 166.01495 -484.695287 
L 221.262475 -484.695287 
L 221.262475 -497.542583 
L 276.51 -497.542583 
L 276.51 -505.259831 
L 276.51 -505.259831 
L 221.262475 -505.259831 
L 221.262475 -495.221495 
L 166.01495 -495.221495 
z
"/>
    </defs>
    <g clip-path="url(#pdb44a65e50)">
     <use xlink:href="#mdec35f55a8" x="0" y="598.400375" style="fill: #6a3d9a"/>
    </g>
   </g>
   <g id="PolyCollection_14">
    <defs>
     <path id="m784b825520" d="M 53.31 -505.126775 
L 53.31 -499.109687 
L 108.557525 -499.109687 
L 108.557525 -494.644919 
L 163.80505 -494.644919 
L 163.80505 -501.667319 
L 163.80505 -501.667319 
L 108.557525 -501.667319 
L 108.557525 -505.126775 
L 53.31 -505.126775 
z
"/>
    </defs>
    <g clip-path="url(#pdb44a65e50)">
     <use xlink:href="#m784b825520" x="0" y="598.400375" style="fill: #6a3d9a"/>
    </g>
   </g>
   <g id="PolyCollection_15">
    <defs>
     <path id="medaa4e947a" d="M 166.01495 -504.653687 
L 166.01495 -495.221495 
L 221.262475 -495.221495 
L 221.262475 -505.259831 
L 276.51 -505.259831 
L 276.51 -514.884215 
L 276.51 -514.884215 
L 221.262475 -514.884215 
L 221.262475 -504.653687 
L 166.01495 -504.653687 
z
"/>
    </defs>
    <g clip-path="url(#pdb44a65e50)">
     <use xlink:href="#medaa4e947a" x="0" y="598.400375" style="fill: #e31a1c"/>
    </g>
   </g>
   <g id="PolyCollection_16">
    <defs>
     <path id="m73e74e103a" d="M 53.31 -510.375095 
L 53.31 -505.126775 
L 108.557525 -505.126775 
L 108.557525 -501.667319 
L 163.80505 -501.667319 
L 163.80505 -506.856503 
L 163.80505 -506.856503 
L 108.557525 -506.856503 
L 108.557525 -510.375095 
L 53.31 -510.375095 
z
"/>
    </defs>
    <g clip-path="url(#pdb44a65e50)">
     <use xlink:href="#m73e74e103a" x="0" y="598.400375" style="fill: #e31a1c"/>
    </g>
   </g>
   <g id="PolyCollection_17">
    <defs>
     <path id="m0b458c0d1d" d="M 166.01495 -507.300023 
L 166.01495 -504.653687 
L 221.262475 -504.653687 
L 221.262475 -514.884215 
L 276.51 -514.884215 
L 276.51 -517.234871 
L 276.51 -517.234871 
L 221.262475 -517.234871 
L 221.262475 -507.300023 
L 166.01495 -507.300023 
z
"/>
    </defs>
    <g clip-path="url(#pdb44a65e50)">
     <use xlink:href="#m0b458c0d1d" x="0" y="598.400375" style="fill: #ffff99"/>
    </g>
   </g>
   <g id="PolyCollection_18">
    <defs>
     <path id="me6dd3c2b50" d="M 53.31 -518.299319 
L 53.31 -510.375095 
L 108.557525 -510.375095 
L 108.557525 -506.856503 
L 163.80505 -506.856503 
L 163.80505 -517.678391 
L 163.80505 -517.678391 
L 108.557525 -517.678391 
L 108.557525 -518.299319 
L 53.31 -518.299319 
z
"/>
    </defs>
    <g clip-path="url(#pdb44a65e50)">
     <use xlink:href="#me6dd3c2b50" x="0" y="598.400375" style="fill: #ffff99"/>
    </g>
   </g>
   <g id="PolyCollection_19">
    <defs>
     <path id="m8bc42aaf2c" d="M 166.01495 -514.499831 
L 166.01495 -507.300023 
L 221.262475 -507.300023 
L 221.262475 -517.234871 
L 276.51 -517.234871 
L 276.51 -522.985847 
L 276.51 -522.985847 
L 221.262475 -522.985847 
L 221.262475 -514.499831 
L 166.01495 -514.499831 
z
"/>
    </defs>
    <g clip-path="url(#pdb44a65e50)">
     <use xlink:href="#m8bc42aaf2c" x="0" y="598.400375" style="fill: #7570b3"/>
    </g>
   </g>
   <g id="PolyCollection_20">
    <defs>
     <path id="mbf130e78f1" d="M 53.31 -520.901303 
L 53.31 -518.299319 
L 108.557525 -518.299319 
L 108.557525 -517.678391 
L 163.80505 -517.678391 
L 163.80505 -521.359607 
L 163.80505 -521.359607 
L 108.557525 -521.359607 
L 108.557525 -520.901303 
L 53.31 -520.901303 
z
"/>
    </defs>
    <g clip-path="url(#pdb44a65e50)">
     <use xlink:href="#mbf130e78f1" x="0" y="598.400375" style="fill: #7570b3"/>
    </g>
   </g>
   <g id="PolyCollection_21">
    <defs>
     <path id="m480a423bb3" d="M 166.01495 -518.195831 
L 166.01495 -514.499831 
L 221.262475 -514.499831 
L 221.262475 -522.985847 
L 276.51 -522.985847 
L 276.51 -526.622711 
L 276.51 -526.622711 
L 221.262475 -526.622711 
L 221.262475 -518.195831 
L 166.01495 -518.195831 
z
"/>
    </defs>
    <g clip-path="url(#pdb44a65e50)">
     <use xlink:href="#m480a423bb3" x="0" y="598.400375" style="fill: #e7298a"/>
    </g>
   </g>
   <g id="PolyCollection_22">
    <defs>
     <path id="m550bfcc1fb" d="M 53.31 -524.124215 
L 53.31 -520.901303 
L 108.557525 -520.901303 
L 108.557525 -521.359607 
L 163.80505 -521.359607 
L 163.80505 -526.001783 
L 163.80505 -526.001783 
L 108.557525 -526.001783 
L 108.557525 -524.124215 
L 53.31 -524.124215 
z
"/>
    </defs>
    <g clip-path="url(#pdb44a65e50)">
     <use xlink:href="#m550bfcc1fb" x="0" y="598.400375" style="fill: #e7298a"/>
    </g>
   </g>
   <g id="PolyCollection_23">
    <defs>
     <path id="m6227012bfa" d="M 166.01495 -519.245495 
L 166.01495 -518.195831 
L 221.262475 -518.195831 
L 221.262475 -526.622711 
L 276.51 -526.622711 
L 276.51 -527.140151 
L 276.51 -527.140151 
L 221.262475 -527.140151 
L 221.262475 -519.245495 
L 166.01495 -519.245495 
z
"/>
    </defs>
    <g clip-path="url(#pdb44a65e50)">
     <use xlink:href="#m6227012bfa" x="0" y="598.400375" style="fill: #ff7f00"/>
    </g>
   </g>
   <g id="PolyCollection_24">
    <defs>
     <path id="meaf62069a4" d="M 53.31 -531.383159 
L 53.31 -524.124215 
L 108.557525 -524.124215 
L 108.557525 -526.001783 
L 163.80505 -526.001783 
L 163.80505 -528.618551 
L 163.80505 -528.618551 
L 108.557525 -528.618551 
L 108.557525 -531.383159 
L 53.31 -531.383159 
z
"/>
    </defs>
    <g clip-path="url(#pdb44a65e50)">
     <use xlink:href="#meaf62069a4" x="0" y="598.400375" style="fill: #ff7f00"/>
    </g>
   </g>
   <g id="PolyCollection_25">
    <defs>
     <path id="m15d1675432" d="M 166.01495 -522.838007 
L 166.01495 -519.245495 
L 221.262475 -519.245495 
L 221.262475 -527.140151 
L 276.51 -527.140151 
L 276.51 -529.520375 
L 276.51 -529.520375 
L 221.262475 -529.520375 
L 221.262475 -522.838007 
L 166.01495 -522.838007 
z
"/>
    </defs>
    <g clip-path="url(#pdb44a65e50)">
     <use xlink:href="#m15d1675432" x="0" y="598.400375" style="fill: #b15928"/>
    </g>
   </g>
   <g id="PolyCollection_26">
    <defs>
     <path id="m5ccb0b3c73" d="M 53.31 -533.999927 
L 53.31 -531.383159 
L 108.557525 -531.383159 
L 108.557525 -528.618551 
L 163.80505 -528.618551 
L 163.80505 -531.043127 
L 163.80505 -531.043127 
L 108.557525 -531.043127 
L 108.557525 -533.999927 
L 53.31 -533.999927 
z
"/>
    </defs>
    <g clip-path="url(#pdb44a65e50)">
     <use xlink:href="#m5ccb0b3c73" x="0" y="598.400375" style="fill: #b15928"/>
    </g>
   </g>
   <g id="PolyCollection_27">
    <defs>
     <path id="m92c2d0e730" d="M 166.01495 -527.923703 
L 166.01495 -522.838007 
L 221.262475 -522.838007 
L 221.262475 -529.520375 
L 276.51 -529.520375 
L 276.51 -533.053751 
L 276.51 -533.053751 
L 221.262475 -533.053751 
L 221.262475 -527.923703 
L 166.01495 -527.923703 
z
"/>
    </defs>
    <g clip-path="url(#pdb44a65e50)">
     <use xlink:href="#m92c2d0e730" x="0" y="598.400375" style="fill: #d95f02"/>
    </g>
   </g>
   <g id="PolyCollection_28">
    <defs>
     <path id="m955ced4764" d="M 53.31 -533.999927 
L 53.31 -533.999927 
L 108.557525 -533.999927 
L 108.557525 -531.043127 
L 163.80505 -531.043127 
L 163.80505 -532.772855 
L 163.80505 -532.772855 
L 108.557525 -532.772855 
L 108.557525 -533.999927 
L 53.31 -533.999927 
z
"/>
    </defs>
    <g clip-path="url(#pdb44a65e50)">
     <use xlink:href="#m955ced4764" x="0" y="598.400375" style="fill: #d95f02"/>
    </g>
   </g>
   <g id="PolyCollection_29">
    <defs>
     <path id="m95ee2d3483" d="M 166.01495 -530.082167 
L 166.01495 -527.923703 
L 221.262475 -527.923703 
L 221.262475 -533.053751 
L 276.51 -533.053751 
L 276.51 -536.040119 
L 276.51 -536.040119 
L 221.262475 -536.040119 
L 221.262475 -530.082167 
L 166.01495 -530.082167 
z
"/>
    </defs>
    <g clip-path="url(#pdb44a65e50)">
     <use xlink:href="#m95ee2d3483" x="0" y="598.400375" style="fill: #1b9e77"/>
    </g>
   </g>
   <g id="PolyCollection_30">
    <defs>
     <path id="m9623336f93" d="M 53.31 -535.907063 
L 53.31 -533.999927 
L 108.557525 -533.999927 
L 108.557525 -532.772855 
L 163.80505 -532.772855 
L 163.80505 -535.360055 
L 163.80505 -535.360055 
L 108.557525 -535.360055 
L 108.557525 -535.907063 
L 53.31 -535.907063 
z
"/>
    </defs>
    <g clip-path="url(#pdb44a65e50)">
     <use xlink:href="#m9623336f93" x="0" y="598.400375" style="fill: #1b9e77"/>
    </g>
   </g>
   <g id="PolyCollection_31">
    <defs>
     <path id="mac661ce33f" d="M 166.01495 -532.491959 
L 166.01495 -530.082167 
L 221.262475 -530.082167 
L 221.262475 -536.040119 
L 276.51 -536.040119 
L 276.51 -538.405559 
L 276.51 -538.405559 
L 221.262475 -538.405559 
L 221.262475 -532.491959 
L 166.01495 -532.491959 
z
"/>
    </defs>
    <g clip-path="url(#pdb44a65e50)">
     <use xlink:href="#mac661ce33f" x="0" y="598.400375" style="fill: #666666"/>
    </g>
   </g>
   <g id="PolyCollection_32">
    <defs>
     <path id="mc72c3ea3c0" d="M 53.31 -538.095095 
L 53.31 -535.907063 
L 108.557525 -535.907063 
L 108.557525 -535.360055 
L 163.80505 -535.360055 
L 163.80505 -537.784631 
L 163.80505 -537.784631 
L 108.557525 -537.784631 
L 108.557525 -538.095095 
L 53.31 -538.095095 
z
"/>
    </defs>
    <g clip-path="url(#pdb44a65e50)">
     <use xlink:href="#mc72c3ea3c0" x="0" y="598.400375" style="fill: #666666"/>
    </g>
   </g>
   <g id="PolyCollection_33">
    <defs>
     <path id="m86a3c77eb3" d="M 166.01495 -534.369527 
L 166.01495 -532.491959 
L 221.262475 -532.491959 
L 221.262475 -538.405559 
L 276.51 -538.405559 
L 276.51 -540.490103 
L 276.51 -540.490103 
L 221.262475 -540.490103 
L 221.262475 -534.369527 
L 166.01495 -534.369527 
z
"/>
    </defs>
    <g clip-path="url(#pdb44a65e50)">
     <use xlink:href="#m86a3c77eb3" x="0" y="598.400375" style="fill: #66a61e"/>
    </g>
   </g>
   <g id="PolyCollection_34">
    <defs>
     <path id="md7d1b6bdb4" d="M 53.31 -539.854391 
L 53.31 -538.095095 
L 108.557525 -538.095095 
L 108.557525 -537.784631 
L 163.80505 -537.784631 
L 163.80505 -539.736119 
L 163.80505 -539.736119 
L 108.557525 -539.736119 
L 108.557525 -539.854391 
L 53.31 -539.854391 
z
"/>
    </defs>
    <g clip-path="url(#pdb44a65e50)">
     <use xlink:href="#md7d1b6bdb4" x="0" y="598.400375" style="fill: #66a61e"/>
    </g>
   </g>
   <g id="PolyCollection_35">
    <defs>
     <path id="m56d4513ac5" d="M 166.01495 -538.435127 
L 166.01495 -534.369527 
L 221.262475 -534.369527 
L 221.262475 -540.490103 
L 276.51 -540.490103 
L 276.51 -541.244087 
L 276.51 -541.244087 
L 221.262475 -541.244087 
L 221.262475 -538.435127 
L 166.01495 -538.435127 
z
"/>
    </defs>
    <g clip-path="url(#pdb44a65e50)">
     <use xlink:href="#m56d4513ac5" x="0" y="598.400375" style="fill: #1b9e77"/>
    </g>
   </g>
   <g id="PolyCollection_36">
    <defs>
     <path id="mbff43610ec" d="M 53.31 -539.854391 
L 53.31 -539.854391 
L 108.557525 -539.854391 
L 108.557525 -539.736119 
L 163.80505 -539.736119 
L 163.80505 -539.736119 
L 163.80505 -539.736119 
L 108.557525 -539.736119 
L 108.557525 -539.854391 
L 53.31 -539.854391 
z
"/>
    </defs>
    <g clip-path="url(#pdb44a65e50)">
     <use xlink:href="#mbff43610ec" x="0" y="598.400375" style="fill: #1b9e77"/>
    </g>
   </g>
   <g id="PolyCollection_37">
    <defs>
     <path id="mf850841d7c" d="M 166.01495 -539.529143 
L 166.01495 -538.435127 
L 221.262475 -538.435127 
L 221.262475 -541.244087 
L 276.51 -541.244087 
L 276.51 -542.338103 
L 276.51 -542.338103 
L 221.262475 -542.338103 
L 221.262475 -539.529143 
L 166.01495 -539.529143 
z
"/>
    </defs>
    <g clip-path="url(#pdb44a65e50)">
     <use xlink:href="#mf850841d7c" x="0" y="598.400375" style="fill: #e7298a"/>
    </g>
   </g>
   <g id="PolyCollection_38">
    <defs>
     <path id="m882ee9b664" d="M 53.31 -541.007543 
L 53.31 -539.854391 
L 108.557525 -539.854391 
L 108.557525 -539.736119 
L 163.80505 -539.736119 
L 163.80505 -540.608375 
L 163.80505 -540.608375 
L 108.557525 -540.608375 
L 108.557525 -541.007543 
L 53.31 -541.007543 
z
"/>
    </defs>
    <g clip-path="url(#pdb44a65e50)">
     <use xlink:href="#m882ee9b664" x="0" y="598.400375" style="fill: #e7298a"/>
    </g>
   </g>
   <g id="PolyCollection_39">
    <defs>
     <path id="mc090af1889" d="M 166.01495 -540.593591 
L 166.01495 -539.529143 
L 221.262475 -539.529143 
L 221.262475 -542.338103 
L 276.51 -542.338103 
L 276.51 -542.781623 
L 276.51 -542.781623 
L 221.262475 -542.781623 
L 221.262475 -540.593591 
L 166.01495 -540.593591 
z
"/>
    </defs>
    <g clip-path="url(#pdb44a65e50)">
     <use xlink:href="#mc090af1889" x="0" y="598.400375" style="fill: #fbb4ae"/>
    </g>
   </g>
   <g id="PolyCollection_40">
    <defs>
     <path id="m45670596a8" d="M 53.31 -541.894583 
L 53.31 -541.007543 
L 108.557525 -541.007543 
L 108.557525 -540.608375 
L 163.80505 -540.608375 
L 163.80505 -541.687607 
L 163.80505 -541.687607 
L 108.557525 -541.687607 
L 108.557525 -541.894583 
L 53.31 -541.894583 
z
"/>
    </defs>
    <g clip-path="url(#pdb44a65e50)">
     <use xlink:href="#m45670596a8" x="0" y="598.400375" style="fill: #fbb4ae"/>
    </g>
   </g>
   <g id="PolyCollection_41">
    <defs>
     <path id="m69783aea2b" d="M 166.01495 -541.598903 
L 166.01495 -540.593591 
L 221.262475 -540.593591 
L 221.262475 -542.781623 
L 276.51 -542.781623 
L 276.51 -543.491255 
L 276.51 -543.491255 
L 221.262475 -543.491255 
L 221.262475 -541.598903 
L 166.01495 -541.598903 
z
"/>
    </defs>
    <g clip-path="url(#pdb44a65e50)">
     <use xlink:href="#m69783aea2b" x="0" y="598.400375" style="fill: #e6ab02"/>
    </g>
   </g>
   <g id="PolyCollection_42">
    <defs>
     <path id="mf7d81dd0ec" d="M 53.31 -542.825975 
L 53.31 -541.894583 
L 108.557525 -541.894583 
L 108.557525 -541.687607 
L 163.80505 -541.687607 
L 163.80505 -542.412023 
L 163.80505 -542.412023 
L 108.557525 -542.412023 
L 108.557525 -542.825975 
L 53.31 -542.825975 
z
"/>
    </defs>
    <g clip-path="url(#pdb44a65e50)">
     <use xlink:href="#mf7d81dd0ec" x="0" y="598.400375" style="fill: #e6ab02"/>
    </g>
   </g>
   <g id="PolyCollection_43">
    <defs>
     <path id="m3b6ccfdef4" d="M 166.01495 -541.791095 
L 166.01495 -541.598903 
L 221.262475 -541.598903 
L 221.262475 -543.491255 
L 276.51 -543.491255 
L 276.51 -543.698231 
L 276.51 -543.698231 
L 221.262475 -543.698231 
L 221.262475 -541.791095 
L 166.01495 -541.791095 
z
"/>
    </defs>
    <g clip-path="url(#pdb44a65e50)">
     <use xlink:href="#m3b6ccfdef4" x="0" y="598.400375" style="fill: #d95f02"/>
    </g>
   </g>
   <g id="PolyCollection_44">
    <defs>
     <path id="mea7103ac8a" d="M 53.31 -543.801719 
L 53.31 -542.825975 
L 108.557525 -542.825975 
L 108.557525 -542.412023 
L 163.80505 -542.412023 
L 163.80505 -544.008695 
L 163.80505 -544.008695 
L 108.557525 -544.008695 
L 108.557525 -543.801719 
L 53.31 -543.801719 
z
"/>
    </defs>
    <g clip-path="url(#pdb44a65e50)">
     <use xlink:href="#mea7103ac8a" x="0" y="598.400375" style="fill: #d95f02"/>
    </g>
   </g>
   <g id="PolyCollection_45">
    <defs>
     <path id="m3ea0e791b5" d="M 166.01495 -543.683447 
L 166.01495 -541.791095 
L 221.262475 -541.791095 
L 221.262475 -543.698231 
L 276.51 -543.698231 
L 276.51 -544.422647 
L 276.51 -544.422647 
L 221.262475 -544.422647 
L 221.262475 -543.683447 
L 166.01495 -543.683447 
z
"/>
    </defs>
    <g clip-path="url(#pdb44a65e50)">
     <use xlink:href="#m3ea0e791b5" x="0" y="598.400375" style="fill: #7570b3"/>
    </g>
   </g>
   <g id="PolyCollection_46">
    <defs>
     <path id="me08775c7c9" d="M 53.31 -543.801719 
L 53.31 -543.801719 
L 108.557525 -543.801719 
L 108.557525 -544.008695 
L 163.80505 -544.008695 
L 163.80505 -544.230455 
L 163.80505 -544.230455 
L 108.557525 -544.230455 
L 108.557525 -543.801719 
L 53.31 -543.801719 
z
"/>
    </defs>
    <g clip-path="url(#pdb44a65e50)">
     <use xlink:href="#me08775c7c9" x="0" y="598.400375" style="fill: #7570b3"/>
    </g>
   </g>
   <g id="PolyCollection_47">
    <defs>
     <path id="mb7a9200947" d="M 166.01495 -543.993911 
L 166.01495 -543.683447 
L 221.262475 -543.683447 
L 221.262475 -544.422647 
L 276.51 -544.422647 
L 276.51 -544.540919 
L 276.51 -544.540919 
L 221.262475 -544.540919 
L 221.262475 -543.993911 
L 166.01495 -543.993911 
z
"/>
    </defs>
    <g clip-path="url(#pdb44a65e50)">
     <use xlink:href="#mb7a9200947" x="0" y="598.400375" style="fill: #ccebc5"/>
    </g>
   </g>
   <g id="PolyCollection_48">
    <defs>
     <path id="ma0f0f50864" d="M 53.31 -544.481783 
L 53.31 -543.801719 
L 108.557525 -543.801719 
L 108.557525 -544.230455 
L 163.80505 -544.230455 
L 163.80505 -545.841911 
L 163.80505 -545.841911 
L 108.557525 -545.841911 
L 108.557525 -544.481783 
L 53.31 -544.481783 
z
"/>
    </defs>
    <g clip-path="url(#pdb44a65e50)">
     <use xlink:href="#ma0f0f50864" x="0" y="598.400375" style="fill: #ccebc5"/>
    </g>
   </g>
   <g id="PolyCollection_49">
    <defs>
     <path id="mc4626df9d6" d="M 166.01495 -544.673975 
L 166.01495 -543.993911 
L 221.262475 -543.993911 
L 221.262475 -544.540919 
L 276.51 -544.540919 
L 276.51 -545.915831 
L 276.51 -545.915831 
L 221.262475 -545.915831 
L 221.262475 -544.673975 
L 166.01495 -544.673975 
z
"/>
    </defs>
    <g clip-path="url(#pdb44a65e50)">
     <use xlink:href="#mc4626df9d6" x="0" y="598.400375" style="fill: #decbe4"/>
    </g>
   </g>
   <g id="PolyCollection_50">
    <defs>
     <path id="m748c377e4e" d="M 53.31 -544.481783 
L 53.31 -544.481783 
L 108.557525 -544.481783 
L 108.557525 -545.841911 
L 163.80505 -545.841911 
L 163.80505 -545.841911 
L 163.80505 -545.841911 
L 108.557525 -545.841911 
L 108.557525 -544.481783 
L 53.31 -544.481783 
z
"/>
    </defs>
    <g clip-path="url(#pdb44a65e50)">
     <use xlink:href="#m748c377e4e" x="0" y="598.400375" style="fill: #decbe4"/>
    </g>
   </g>
   <g id="PolyCollection_51">
    <defs>
     <path id="m9e3866d69d" d="M 166.01495 -545.028791 
L 166.01495 -544.673975 
L 221.262475 -544.673975 
L 221.262475 -545.915831 
L 276.51 -545.915831 
L 276.51 -546.255863 
L 276.51 -546.255863 
L 221.262475 -546.255863 
L 221.262475 -545.028791 
L 166.01495 -545.028791 
z
"/>
    </defs>
    <g clip-path="url(#pdb44a65e50)">
     <use xlink:href="#m9e3866d69d" x="0" y="598.400375" style="fill: #a6761d"/>
    </g>
   </g>
   <g id="PolyCollection_52">
    <defs>
     <path id="m82827cba9f" d="M 53.31 -545.339255 
L 53.31 -544.481783 
L 108.557525 -544.481783 
L 108.557525 -545.841911 
L 163.80505 -545.841911 
L 163.80505 -546.181943 
L 163.80505 -546.181943 
L 108.557525 -546.181943 
L 108.557525 -545.339255 
L 53.31 -545.339255 
z
"/>
    </defs>
    <g clip-path="url(#pdb44a65e50)">
     <use xlink:href="#m82827cba9f" x="0" y="598.400375" style="fill: #a6761d"/>
    </g>
   </g>
   <g id="PolyCollection_53">
    <defs>
     <path id="mea392ea0a2" d="M 166.01495 -545.561015 
L 166.01495 -545.028791 
L 221.262475 -545.028791 
L 221.262475 -546.255863 
L 276.51 -546.255863 
L 276.51 -546.640247 
L 276.51 -546.640247 
L 221.262475 -546.640247 
L 221.262475 -545.561015 
L 166.01495 -545.561015 
z
"/>
    </defs>
    <g clip-path="url(#pdb44a65e50)">
     <use xlink:href="#mea392ea0a2" x="0" y="598.400375" style="fill: #ccebc5"/>
    </g>
   </g>
   <g id="PolyCollection_54">
    <defs>
     <path id="mdfb2aa0447" d="M 53.31 -545.841911 
L 53.31 -545.339255 
L 108.557525 -545.339255 
L 108.557525 -546.181943 
L 163.80505 -546.181943 
L 163.80505 -546.448055 
L 163.80505 -546.448055 
L 108.557525 -546.448055 
L 108.557525 -545.841911 
L 53.31 -545.841911 
z
"/>
    </defs>
    <g clip-path="url(#pdb44a65e50)">
     <use xlink:href="#mdfb2aa0447" x="0" y="598.400375" style="fill: #ccebc5"/>
    </g>
   </g>
   <g id="PolyCollection_55">
    <defs>
     <path id="ma2a12ad890" d="M 166.01495 -546.004535 
L 166.01495 -545.561015 
L 221.262475 -545.561015 
L 221.262475 -546.640247 
L 276.51 -546.640247 
L 276.51 -546.891575 
L 276.51 -546.891575 
L 221.262475 -546.891575 
L 221.262475 -546.004535 
L 166.01495 -546.004535 
z
"/>
    </defs>
    <g clip-path="url(#pdb44a65e50)">
     <use xlink:href="#ma2a12ad890" x="0" y="598.400375" style="fill: #f2f2f2"/>
    </g>
   </g>
   <g id="PolyCollection_56">
    <defs>
     <path id="m8a6614eaf0" d="M 53.31 -546.359351 
L 53.31 -545.841911 
L 108.557525 -545.841911 
L 108.557525 -546.448055 
L 163.80505 -546.448055 
L 163.80505 -546.876791 
L 163.80505 -546.876791 
L 108.557525 -546.876791 
L 108.557525 -546.359351 
L 53.31 -546.359351 
z
"/>
    </defs>
    <g clip-path="url(#pdb44a65e50)">
     <use xlink:href="#m8a6614eaf0" x="0" y="598.400375" style="fill: #f2f2f2"/>
    </g>
   </g>
   <g id="PolyCollection_57">
    <defs>
     <path id="me6d8f2776c" d="M 166.01495 -546.329783 
L 166.01495 -546.004535 
L 221.262475 -546.004535 
L 221.262475 -546.891575 
L 276.51 -546.891575 
L 276.51 -547.246391 
L 276.51 -547.246391 
L 221.262475 -547.246391 
L 221.262475 -546.329783 
L 166.01495 -546.329783 
z
"/>
    </defs>
    <g clip-path="url(#pdb44a65e50)">
     <use xlink:href="#me6d8f2776c" x="0" y="598.400375" style="fill: #fed9a6"/>
    </g>
   </g>
   <g id="PolyCollection_58">
    <defs>
     <path id="ma8debfb5f3" d="M 53.31 -546.980279 
L 53.31 -546.359351 
L 108.557525 -546.359351 
L 108.557525 -546.876791 
L 163.80505 -546.876791 
L 163.80505 -547.216823 
L 163.80505 -547.216823 
L 108.557525 -547.216823 
L 108.557525 -546.980279 
L 53.31 -546.980279 
z
"/>
    </defs>
    <g clip-path="url(#pdb44a65e50)">
     <use xlink:href="#ma8debfb5f3" x="0" y="598.400375" style="fill: #fed9a6"/>
    </g>
   </g>
   <g id="PolyCollection_59">
    <defs>
     <path id="mf53dc131a5" d="M 166.01495 -547.054199 
L 166.01495 -546.329783 
L 221.262475 -546.329783 
L 221.262475 -547.246391 
L 276.51 -547.246391 
L 276.51 -547.379447 
L 276.51 -547.379447 
L 221.262475 -547.379447 
L 221.262475 -547.054199 
L 166.01495 -547.054199 
z
"/>
    </defs>
    <g clip-path="url(#pdb44a65e50)">
     <use xlink:href="#mf53dc131a5" x="0" y="598.400375" style="fill: #b3cde3"/>
    </g>
   </g>
   <g id="PolyCollection_60">
    <defs>
     <path id="m4c92d154c0" d="M 53.31 -547.157687 
L 53.31 -546.980279 
L 108.557525 -546.980279 
L 108.557525 -547.216823 
L 163.80505 -547.216823 
L 163.80505 -547.349879 
L 163.80505 -547.349879 
L 108.557525 -547.349879 
L 108.557525 -547.157687 
L 53.31 -547.157687 
z
"/>
    </defs>
    <g clip-path="url(#pdb44a65e50)">
     <use xlink:href="#m4c92d154c0" x="0" y="598.400375" style="fill: #b3cde3"/>
    </g>
   </g>
   <g id="PolyCollection_61">
    <defs>
     <path id="m71660c5519" d="M 166.01495 -547.113335 
L 166.01495 -547.054199 
L 221.262475 -547.054199 
L 221.262475 -547.379447 
L 276.51 -547.379447 
L 276.51 -547.630775 
L 276.51 -547.630775 
L 221.262475 -547.630775 
L 221.262475 -547.113335 
L 166.01495 -547.113335 
z
"/>
    </defs>
    <g clip-path="url(#pdb44a65e50)">
     <use xlink:href="#m71660c5519" x="0" y="598.400375" style="fill: #b3cde3"/>
    </g>
   </g>
   <g id="PolyCollection_62">
    <defs>
     <path id="m596ff2352e" d="M 53.31 -547.645559 
L 53.31 -547.157687 
L 108.557525 -547.157687 
L 108.557525 -547.349879 
L 163.80505 -547.349879 
L 163.80505 -547.675127 
L 163.80505 -547.675127 
L 108.557525 -547.675127 
L 108.557525 -547.645559 
L 53.31 -547.645559 
z
"/>
    </defs>
    <g clip-path="url(#pdb44a65e50)">
     <use xlink:href="#m596ff2352e" x="0" y="598.400375" style="fill: #b3cde3"/>
    </g>
   </g>
   <g id="PolyCollection_63">
    <defs>
     <path id="m8174349b5d" d="M 166.01495 -548.000375 
L 166.01495 -547.113335 
L 221.262475 -547.113335 
L 221.262475 -547.630775 
L 276.51 -547.630775 
L 276.51 -548.000375 
L 276.51 -548.000375 
L 221.262475 -548.000375 
L 221.262475 -548.000375 
L 166.01495 -548.000375 
z
"/>
    </defs>
    <g clip-path="url(#pdb44a65e50)">
     <use xlink:href="#m8174349b5d" x="0" y="598.400375" style="fill: #ffffff"/>
    </g>
   </g>
   <g id="PolyCollection_64">
    <defs>
     <path id="m8af9cc0e48" d="M 53.31 -548.000375 
L 53.31 -547.645559 
L 108.557525 -547.645559 
L 108.557525 -547.675127 
L 163.80505 -547.675127 
L 163.80505 -548.000375 
L 163.80505 -548.000375 
L 108.557525 -548.000375 
L 108.557525 -548.000375 
L 53.31 -548.000375 
z
"/>
    </defs>
    <g clip-path="url(#pdb44a65e50)">
     <use xlink:href="#m8af9cc0e48" x="0" y="598.400375" style="fill: #ffffff"/>
    </g>
   </g>
   <g id="patch_3">
    <path d="M 166.01495 383.04 
L 276.51 383.04 
L 276.51 50.4 
L 166.01495 50.4 
L 166.01495 383.04 
z
" clip-path="url(#pdb44a65e50)" style="fill: none; stroke: #808080; stroke-linejoin: miter"/>
   </g>
   <g id="patch_4">
    <path d="M 53.31 383.04 
L 163.80505 383.04 
L 163.80505 50.4 
L 53.31 50.4 
L 53.31 383.04 
z
" clip-path="url(#pdb44a65e50)" style="fill: none; stroke: #808080; stroke-linejoin: miter"/>
   </g>
   <g id="patch_5">
    <path d="M 53.31 383.04 
L 53.31 50.4 
" style="fill: none; stroke: #ffffff; stroke-width: 1.25; stroke-linejoin: miter; stroke-linecap: square"/>
   </g>
   <g id="patch_6">
    <path d="M 276.51 383.04 
L 276.51 50.4 
" style="fill: none; stroke: #ffffff; stroke-width: 1.25; stroke-linejoin: miter; stroke-linecap: square"/>
   </g>
   <g id="patch_7">
    <path d="M 53.31 383.04 
L 276.51 383.04 
" style="fill: none; stroke: #ffffff; stroke-width: 1.25; stroke-linejoin: miter; stroke-linecap: square"/>
   </g>
   <g id="patch_8">
    <path d="M 53.31 50.4 
L 276.51 50.4 
" style="fill: none; stroke: #ffffff; stroke-width: 1.25; stroke-linejoin: miter; stroke-linecap: square"/>
   </g>
   <g id="legend_1">
    <g id="patch_9">
     <path d="M 286.442 591.200375 
L 497.217469 591.200375 
Q 499.417469 591.200375 499.417469 589.000375 
L 499.417469 41.468 
Q 499.417469 39.268 497.217469 39.268 
L 286.442 39.268 
Q 284.242 39.268 284.242 41.468 
L 284.242 589.000375 
Q 284.242 591.200375 286.442 591.200375 
z
" style="fill: #eaeaf2; opacity: 0.8; stroke: #cccccc; stroke-linejoin: miter"/>
    </g>
    <g id="text_8">
     <text style="fill: #262626; font: 700 12px 'sans-serif'" transform="translate(322.051609 52.786125)">Aggregrated "mean"</text>
     <text style="fill: #262626; font: 700 12px 'sans-serif'" transform="translate(322.051609 66.31725)">Rank: Family</text>
    </g>
    <g id="patch_10">
     <path d="M 288.642 82.764906 
L 310.642 82.764906 
L 310.642 75.064906 
L 288.642 75.064906 
z
" style="fill: #b2df8a; stroke: #b2df8a; stroke-linejoin: miter"/>
    </g>
    <g id="text_9">
     <text style="fill: #262626; font: 11px 'sans-serif'; text-anchor: start" x="319.442" y="82.764906" transform="rotate(-0, 319.442, 82.764906)">Lachnospiraceae</text>
    </g>
    <g id="patch_11">
     <path d="M 288.642 98.910844 
L 310.642 98.910844 
L 310.642 91.210844 
L 288.642 91.210844 
z
" style="fill: #1f78b4; stroke: #1f78b4; stroke-linejoin: miter"/>
    </g>
    <g id="text_10">
     <text style="fill: #262626; font: 11px 'sans-serif'; text-anchor: start" x="319.442" y="98.910844" transform="rotate(-0, 319.442, 98.910844)">Muribaculaceae</text>
    </g>
    <g id="patch_12">
     <path d="M 288.642 115.056781 
L 310.642 115.056781 
L 310.642 107.356781 
L 288.642 107.356781 
z
" style="fill: #fdbf6f; stroke: #fdbf6f; stroke-linejoin: miter"/>
    </g>
    <g id="text_11">
     <text style="fill: #262626; font: 11px 'sans-serif'; text-anchor: start" x="319.442" y="115.056781" transform="rotate(-0, 319.442, 115.056781)">Oscillospiraceae_88309</text>
    </g>
    <g id="patch_13">
     <path d="M 288.642 131.508656 
L 310.642 131.508656 
L 310.642 123.808656 
L 288.642 123.808656 
z
" style="fill: #33a02c; stroke: #33a02c; stroke-linejoin: miter"/>
    </g>
    <g id="text_12">
     <text style="fill: #262626; font: 11px 'sans-serif'; text-anchor: start" x="319.442" y="131.508656" transform="rotate(-0, 319.442, 131.508656)">Erysipelotrichaceae</text>
    </g>
    <g id="patch_14">
     <path d="M 288.642 147.654594 
L 310.642 147.654594 
L 310.642 139.954594 
L 288.642 139.954594 
z
" style="fill: #fb9a99; stroke: #fb9a99; stroke-linejoin: miter"/>
    </g>
    <g id="text_13">
     <text style="fill: #262626; font: 11px 'sans-serif'; text-anchor: start" x="319.442" y="147.654594" transform="rotate(-0, 319.442, 147.654594)">Bacteroidaceae</text>
    </g>
    <g id="patch_15">
     <path d="M 288.642 163.800531 
L 310.642 163.800531 
L 310.642 156.100531 
L 288.642 156.100531 
z
" style="fill: #cab2d6; stroke: #cab2d6; stroke-linejoin: miter"/>
    </g>
    <g id="text_14">
     <text style="fill: #262626; font: 11px 'sans-serif'; text-anchor: start" x="319.442" y="163.800531" transform="rotate(-0, 319.442, 163.800531)">unclassified family</text>
    </g>
    <g id="patch_16">
     <path d="M 288.642 179.946469 
L 310.642 179.946469 
L 310.642 172.246469 
L 288.642 172.246469 
z
" style="fill: #6a3d9a; stroke: #6a3d9a; stroke-linejoin: miter"/>
    </g>
    <g id="text_15">
     <text style="fill: #262626; font: 11px 'sans-serif'; text-anchor: start" x="319.442" y="179.946469" transform="rotate(-0, 319.442, 179.946469)">Rikenellaceae</text>
    </g>
    <g id="patch_17">
     <path d="M 288.642 196.092406 
L 310.642 196.092406 
L 310.642 188.392406 
L 288.642 188.392406 
z
" style="fill: #e31a1c; stroke: #e31a1c; stroke-linejoin: miter"/>
    </g>
    <g id="text_16">
     <text style="fill: #262626; font: 11px 'sans-serif'; text-anchor: start" x="319.442" y="196.092406" transform="rotate(-0, 319.442, 196.092406)">Lactobacillaceae</text>
    </g>
    <g id="patch_18">
     <path d="M 288.642 212.238344 
L 310.642 212.238344 
L 310.642 204.538344 
L 288.642 204.538344 
z
" style="fill: #ffff99; stroke: #ffff99; stroke-linejoin: miter"/>
    </g>
    <g id="text_17">
     <text style="fill: #262626; font: 11px 'sans-serif'; text-anchor: start" x="319.442" y="212.238344" transform="rotate(-0, 319.442, 212.238344)">Ruminococcaceae</text>
    </g>
    <g id="patch_19">
     <path d="M 288.642 228.384281 
L 310.642 228.384281 
L 310.642 220.684281 
L 288.642 220.684281 
z
" style="fill: #7570b3; stroke: #7570b3; stroke-linejoin: miter"/>
    </g>
    <g id="text_18">
     <text style="fill: #262626; font: 11px 'sans-serif'; text-anchor: start" x="319.442" y="228.384281" transform="rotate(-0, 319.442, 228.384281)">Desulfovibrionaceae</text>
    </g>
    <g id="patch_20">
     <path d="M 288.642 244.530219 
L 310.642 244.530219 
L 310.642 236.830219 
L 288.642 236.830219 
z
" style="fill: #e7298a; stroke: #e7298a; stroke-linejoin: miter"/>
    </g>
    <g id="text_19">
     <text style="fill: #262626; font: 11px 'sans-serif'; text-anchor: start" x="319.442" y="244.530219" transform="rotate(-0, 319.442, 244.530219)">Anaerotignaceae</text>
    </g>
    <g id="patch_21">
     <path d="M 288.642 260.676156 
L 310.642 260.676156 
L 310.642 252.976156 
L 288.642 252.976156 
z
" style="fill: #ff7f00; stroke: #ff7f00; stroke-linejoin: miter"/>
    </g>
    <g id="text_20">
     <text style="fill: #262626; font: 11px 'sans-serif'; text-anchor: start" x="319.442" y="260.676156" transform="rotate(-0, 319.442, 260.676156)">Akkermansiaceae</text>
    </g>
    <g id="patch_22">
     <path d="M 288.642 276.822094 
L 310.642 276.822094 
L 310.642 269.122094 
L 288.642 269.122094 
z
" style="fill: #b15928; stroke: #b15928; stroke-linejoin: miter"/>
    </g>
    <g id="text_21">
     <text style="fill: #262626; font: 11px 'sans-serif'; text-anchor: start" x="319.442" y="276.822094" transform="rotate(-0, 319.442, 276.822094)">CAG-508</text>
    </g>
    <g id="patch_23">
     <path d="M 288.642 292.968031 
L 310.642 292.968031 
L 310.642 285.268031 
L 288.642 285.268031 
z
" style="fill: #d95f02; stroke: #d95f02; stroke-linejoin: miter"/>
    </g>
    <g id="text_22">
     <text style="fill: #262626; font: 11px 'sans-serif'; text-anchor: start" x="319.442" y="292.968031" transform="rotate(-0, 319.442, 292.968031)">Turicibacteraceae</text>
    </g>
    <g id="patch_24">
     <path d="M 288.642 309.113969 
L 310.642 309.113969 
L 310.642 301.413969 
L 288.642 301.413969 
z
" style="fill: #1b9e77; stroke: #1b9e77; stroke-linejoin: miter"/>
    </g>
    <g id="text_23">
     <text style="fill: #262626; font: 11px 'sans-serif'; text-anchor: start" x="319.442" y="309.113969" transform="rotate(-0, 319.442, 309.113969)">Butyricicoccaceae</text>
    </g>
    <g id="patch_25">
     <path d="M 288.642 325.259906 
L 310.642 325.259906 
L 310.642 317.559906 
L 288.642 317.559906 
z
" style="fill: #666666; stroke: #666666; stroke-linejoin: miter"/>
    </g>
    <g id="text_24">
     <text style="fill: #262626; font: 11px 'sans-serif'; text-anchor: start" x="319.442" y="325.259906" transform="rotate(-0, 319.442, 325.259906)">Dehalobacteriaceae</text>
    </g>
    <g id="patch_26">
     <path d="M 288.642 341.405844 
L 310.642 341.405844 
L 310.642 333.705844 
L 288.642 333.705844 
z
" style="fill: #66a61e; stroke: #66a61e; stroke-linejoin: miter"/>
    </g>
    <g id="text_25">
     <text style="fill: #262626; font: 11px 'sans-serif'; text-anchor: start" x="319.442" y="341.405844" transform="rotate(-0, 319.442, 341.405844)">Acutalibacteraceae</text>
    </g>
    <g id="patch_27">
     <path d="M 288.642 357.551781 
L 310.642 357.551781 
L 310.642 349.851781 
L 288.642 349.851781 
z
" style="fill: #1b9e77; stroke: #1b9e77; stroke-linejoin: miter"/>
    </g>
    <g id="text_26">
     <text style="fill: #262626; font: 11px 'sans-serif'; text-anchor: start" x="319.442" y="357.551781" transform="rotate(-0, 319.442, 357.551781)">Clostridiaceae_222000</text>
    </g>
    <g id="patch_28">
     <path d="M 288.642 374.003656 
L 310.642 374.003656 
L 310.642 366.303656 
L 288.642 366.303656 
z
" style="fill: #e7298a; stroke: #e7298a; stroke-linejoin: miter"/>
    </g>
    <g id="text_27">
     <text style="fill: #262626; font: 11px 'sans-serif'; text-anchor: start" x="319.442" y="374.003656" transform="rotate(-0, 319.442, 374.003656)">Marinifilaceae</text>
    </g>
    <g id="patch_29">
     <path d="M 288.642 390.149594 
L 310.642 390.149594 
L 310.642 382.449594 
L 288.642 382.449594 
z
" style="fill: #fbb4ae; stroke: #fbb4ae; stroke-linejoin: miter"/>
    </g>
    <g id="text_28">
     <text style="fill: #262626; font: 11px 'sans-serif'; text-anchor: start" x="319.442" y="390.149594" transform="rotate(-0, 319.442, 390.149594)">Gastranaerophilaceae</text>
    </g>
    <g id="patch_30">
     <path d="M 288.642 406.295531 
L 310.642 406.295531 
L 310.642 398.595531 
L 288.642 398.595531 
z
" style="fill: #e6ab02; stroke: #e6ab02; stroke-linejoin: miter"/>
    </g>
    <g id="text_29">
     <text style="fill: #262626; font: 11px 'sans-serif'; text-anchor: start" x="319.442" y="406.295531" transform="rotate(-0, 319.442, 406.295531)">Eggerthellaceae</text>
    </g>
    <g id="patch_31">
     <path d="M 288.642 422.441469 
L 310.642 422.441469 
L 310.642 414.741469 
L 288.642 414.741469 
z
" style="fill: #d95f02; stroke: #d95f02; stroke-linejoin: miter"/>
    </g>
    <g id="text_30">
     <text style="fill: #262626; font: 11px 'sans-serif'; text-anchor: start" x="319.442" y="422.441469" transform="rotate(-0, 319.442, 422.441469)">UBA932</text>
    </g>
    <g id="patch_32">
     <path d="M 288.642 438.587406 
L 310.642 438.587406 
L 310.642 430.887406 
L 288.642 430.887406 
z
" style="fill: #7570b3; stroke: #7570b3; stroke-linejoin: miter"/>
    </g>
    <g id="text_31">
     <text style="fill: #262626; font: 11px 'sans-serif'; text-anchor: start" x="319.442" y="438.587406" transform="rotate(-0, 319.442, 438.587406)">Peptostreptococcaceae_256921</text>
    </g>
    <g id="patch_33">
     <path d="M 288.642 455.039281 
L 310.642 455.039281 
L 310.642 447.339281 
L 288.642 447.339281 
z
" style="fill: #ccebc5; stroke: #ccebc5; stroke-linejoin: miter"/>
    </g>
    <g id="text_32">
     <text style="fill: #262626; font: 11px 'sans-serif'; text-anchor: start" x="319.442" y="455.039281" transform="rotate(-0, 319.442, 455.039281)">CAG-314</text>
    </g>
    <g id="patch_34">
     <path d="M 288.642 471.185219 
L 310.642 471.185219 
L 310.642 463.485219 
L 288.642 463.485219 
z
" style="fill: #decbe4; stroke: #decbe4; stroke-linejoin: miter"/>
    </g>
    <g id="text_33">
     <text style="fill: #262626; font: 11px 'sans-serif'; text-anchor: start" x="319.442" y="471.185219" transform="rotate(-0, 319.442, 471.185219)">Bifidobacteriaceae</text>
    </g>
    <g id="patch_35">
     <path d="M 288.642 487.331156 
L 310.642 487.331156 
L 310.642 479.631156 
L 288.642 479.631156 
z
" style="fill: #a6761d; stroke: #a6761d; stroke-linejoin: miter"/>
    </g>
    <g id="text_34">
     <text style="fill: #262626; font: 11px 'sans-serif'; text-anchor: start" x="319.442" y="487.331156" transform="rotate(-0, 319.442, 487.331156)">Coprobacillaceae</text>
    </g>
    <g id="patch_36">
     <path d="M 288.642 503.477094 
L 310.642 503.477094 
L 310.642 495.777094 
L 288.642 495.777094 
z
" style="fill: #ccebc5; stroke: #ccebc5; stroke-linejoin: miter"/>
    </g>
    <g id="text_35">
     <text style="fill: #262626; font: 11px 'sans-serif'; text-anchor: start" x="319.442" y="503.477094" transform="rotate(-0, 319.442, 503.477094)">Burkholderiaceae_A_595427</text>
    </g>
    <g id="patch_37">
     <path d="M 288.642 519.928969 
L 310.642 519.928969 
L 310.642 512.228969 
L 288.642 512.228969 
z
" style="fill: #f2f2f2; stroke: #f2f2f2; stroke-linejoin: miter"/>
    </g>
    <g id="text_36">
     <text style="fill: #262626; font: 11px 'sans-serif'; text-anchor: start" x="319.442" y="519.928969" transform="rotate(-0, 319.442, 519.928969)">CAG-239</text>
    </g>
    <g id="patch_38">
     <path d="M 288.642 536.074906 
L 310.642 536.074906 
L 310.642 528.374906 
L 288.642 528.374906 
z
" style="fill: #fed9a6; stroke: #fed9a6; stroke-linejoin: miter"/>
    </g>
    <g id="text_37">
     <text style="fill: #262626; font: 11px 'sans-serif'; text-anchor: start" x="319.442" y="536.074906" transform="rotate(-0, 319.442, 536.074906)">Tannerellaceae</text>
    </g>
    <g id="patch_39">
     <path d="M 288.642 552.220844 
L 310.642 552.220844 
L 310.642 544.520844 
L 288.642 544.520844 
z
" style="fill: #b3cde3; stroke: #b3cde3; stroke-linejoin: miter"/>
    </g>
    <g id="text_38">
     <text style="fill: #262626; font: 11px 'sans-serif'; text-anchor: start" x="319.442" y="552.220844" transform="rotate(-0, 319.442, 552.220844)">Atopobiaceae</text>
    </g>
    <g id="patch_40">
     <path d="M 288.642 568.366781 
L 310.642 568.366781 
L 310.642 560.666781 
L 288.642 560.666781 
z
" style="fill: #b3cde3; stroke: #b3cde3; stroke-linejoin: miter"/>
    </g>
    <g id="text_39">
     <text style="fill: #262626; font: 11px 'sans-serif'; text-anchor: start" x="319.442" y="568.366781" transform="rotate(-0, 319.442, 568.366781)">Borkfalkiaceae</text>
    </g>
    <g id="patch_41">
     <path d="M 288.642 584.512719 
L 310.642 584.512719 
L 310.642 576.812719 
L 288.642 576.812719 
z
" style="fill: #ffffff; stroke: #ffffff; stroke-linejoin: miter"/>
    </g>
    <g id="text_40">
     <text style="fill: #262626; font: 11px 'sans-serif'; text-anchor: start" x="319.442" y="584.512719" transform="rotate(-0, 319.442, 584.512719)"> abundance</text>
    </g>
   </g>
  </g>
  <g id="axes_2">
   <g id="matplotlib.axis_3">
    <g id="xtick_1">
     <g id="line2d_7">
      <defs>
       <path id="m816a558fd8" d="M 0 0 
L 0 -6 
" style="stroke: #262626; stroke-width: 1.25"/>
      </defs>
      <g>
       <use xlink:href="#m816a558fd8" x="221.262475" y="50.4" style="fill: #262626; stroke: #262626; stroke-width: 1.25"/>
      </g>
     </g>
     <g id="text_41">
      <text style="fill: #262626; font: 11px 'sans-serif'" transform="translate(202.302085 26.29475)">female</text>
      <text style="fill: #262626; font: 11px 'sans-serif'" transform="translate(201.877553 38.612344)">(n=18)</text>
     </g>
    </g>
    <g id="xtick_2">
     <g id="line2d_8">
      <g>
       <use xlink:href="#m816a558fd8" x="108.557525" y="50.4" style="fill: #262626; stroke: #262626; stroke-width: 1.25"/>
      </g>
     </g>
     <g id="text_42">
      <text style="fill: #262626; font: 11px 'sans-serif'" transform="translate(94.917525 26.29475)">male</text>
      <text style="fill: #262626; font: 11px 'sans-serif'" transform="translate(89.172603 38.612344)">(n=18)</text>
     </g>
    </g>
   </g>
   <g id="patch_42">
    <path d="M 53.31 383.04 
L 53.31 50.4 
" style="fill: none; stroke: #ffffff; stroke-width: 1.25; stroke-linejoin: miter; stroke-linecap: square"/>
   </g>
   <g id="patch_43">
    <path d="M 276.51 383.04 
L 276.51 50.4 
" style="fill: none; stroke: #ffffff; stroke-width: 1.25; stroke-linejoin: miter; stroke-linecap: square"/>
   </g>
   <g id="patch_44">
    <path d="M 53.31 383.04 
L 276.51 383.04 
" style="fill: none; stroke: #ffffff; stroke-width: 1.25; stroke-linejoin: miter; stroke-linecap: square"/>
   </g>
   <g id="patch_45">
    <path d="M 53.31 50.4 
L 276.51 50.4 
" style="fill: none; stroke: #ffffff; stroke-width: 1.25; stroke-linejoin: miter; stroke-linecap: square"/>
   </g>
  </g>
  <g id="axes_3">
   <g id="matplotlib.axis_4">
    <g id="xtick_3">
     <g id="line2d_9">
      <defs>
       <path id="mb240b6aead" d="M 0 0 
L 0 6 
" style="stroke: #262626; stroke-width: 1.25"/>
      </defs>
      <g>
       <use xlink:href="#mb240b6aead" x="248.886238" y="383.04" style="fill: #262626; stroke: #262626; stroke-width: 1.25"/>
      </g>
     </g>
     <g id="text_43">
      <text style="fill: #262626; font: 11px 'sans-serif'" transform="translate(245.762753 423.772266)rotate(-90)">TCDD</text>
      <text style="fill: #262626; font: 11px 'sans-serif'" transform="translate(258.080347 424.311094)rotate(-90)">(n=9)</text>
     </g>
    </g>
    <g id="xtick_4">
     <g id="line2d_10">
      <g>
       <use xlink:href="#mb240b6aead" x="193.638713" y="383.04" style="fill: #262626; stroke: #262626; stroke-width: 1.25"/>
      </g>
     </g>
     <g id="text_44">
      <text style="fill: #262626; font: 11px 'sans-serif'" transform="translate(190.515228 430.663594)rotate(-90)">control</text>
      <text style="fill: #262626; font: 11px 'sans-serif'" transform="translate(202.832822 427.487344)rotate(-90)">(n=9)</text>
     </g>
    </g>
    <g id="xtick_5">
     <g id="line2d_11">
      <g>
       <use xlink:href="#mb240b6aead" x="136.181287" y="383.04" style="fill: #262626; stroke: #262626; stroke-width: 1.25"/>
      </g>
     </g>
     <g id="text_45">
      <text style="fill: #262626; font: 11px 'sans-serif'" transform="translate(133.057803 423.772266)rotate(-90)">TCDD</text>
      <text style="fill: #262626; font: 11px 'sans-serif'" transform="translate(145.375397 424.311094)rotate(-90)">(n=9)</text>
     </g>
    </g>
    <g id="xtick_6">
     <g id="line2d_12">
      <g>
       <use xlink:href="#mb240b6aead" x="80.933762" y="383.04" style="fill: #262626; stroke: #262626; stroke-width: 1.25"/>
      </g>
     </g>
     <g id="text_46">
      <text style="fill: #262626; font: 11px 'sans-serif'" transform="translate(77.810278 430.663594)rotate(-90)">control</text>
      <text style="fill: #262626; font: 11px 'sans-serif'" transform="translate(90.127872 427.487344)rotate(-90)">(n=9)</text>
     </g>
    </g>
    <g id="xtick_7">
     <g id="line2d_13">
      <path d="M 221.262475 383.04 
L 221.262475 50.4 
" clip-path="url(#pdb44a65e50)" style="fill: none; stroke: #ffffff; stroke-linecap: round"/>
     </g>
     <g id="line2d_14">
      <defs>
       <path id="m7b6aade238" d="M 0 0 
L 0 4 
" style="stroke: #262626"/>
      </defs>
      <g>
       <use xlink:href="#m7b6aade238" x="221.262475" y="383.04" style="fill: #262626; stroke: #262626"/>
      </g>
     </g>
    </g>
    <g id="xtick_8">
     <g id="line2d_15">
      <path d="M 166.01495 383.04 
L 166.01495 50.4 
" clip-path="url(#pdb44a65e50)" style="fill: none; stroke: #ffffff; stroke-linecap: round"/>
     </g>
     <g id="line2d_16">
      <g>
       <use xlink:href="#m7b6aade238" x="166.01495" y="383.04" style="fill: #262626; stroke: #262626"/>
      </g>
     </g>
    </g>
    <g id="xtick_9">
     <g id="line2d_17">
      <path d="M 108.557525 383.04 
L 108.557525 50.4 
" clip-path="url(#pdb44a65e50)" style="fill: none; stroke: #ffffff; stroke-linecap: round"/>
     </g>
     <g id="line2d_18">
      <g>
       <use xlink:href="#m7b6aade238" x="108.557525" y="383.04" style="fill: #262626; stroke: #262626"/>
      </g>
     </g>
    </g>
    <g id="xtick_10">
     <g id="line2d_19">
      <path d="M 53.31 383.04 
L 53.31 50.4 
" clip-path="url(#pdb44a65e50)" style="fill: none; stroke: #ffffff; stroke-linecap: round"/>
     </g>
     <g id="line2d_20">
      <g>
       <use xlink:href="#m7b6aade238" x="53.31" y="383.04" style="fill: #262626; stroke: #262626"/>
      </g>
     </g>
    </g>
   </g>
   <g id="patch_46">
    <path d="M 53.31 383.04 
L 53.31 50.4 
" style="fill: none; stroke: #ffffff; stroke-width: 1.25; stroke-linejoin: miter; stroke-linecap: square"/>
   </g>
   <g id="patch_47">
    <path d="M 276.51 383.04 
L 276.51 50.4 
" style="fill: none; stroke: #ffffff; stroke-width: 1.25; stroke-linejoin: miter; stroke-linecap: square"/>
   </g>
   <g id="patch_48">
    <path d="M 53.31 383.04 
L 276.51 383.04 
" style="fill: none; stroke: #ffffff; stroke-width: 1.25; stroke-linejoin: miter; stroke-linecap: square"/>
   </g>
   <g id="patch_49">
    <path d="M 53.31 50.4 
L 276.51 50.4 
" style="fill: none; stroke: #ffffff; stroke-width: 1.25; stroke-linejoin: miter; stroke-linecap: square"/>
   </g>
  </g>
  <g id="text_47">
   <text style="fill: #262626; font: 14.4px 'sans-serif'; text-anchor: middle" x="161.31" y="18.14175" transform="rotate(-0, 161.31, 18.14175)">family cecum</text>
  </g>
 </g>
 <defs>
  <clipPath id="pdb44a65e50">
   <rect x="53.31" y="50.4" width="223.2" height="332.64"/>
  </clipPath>
 </defs>
</svg>
