<?xml version="1.0" encoding="utf-8" standalone="no"?>
<!DOCTYPE svg PUBLIC "-//W3C//DTD SVG 1.1//EN"
  "http://www.w3.org/Graphics/SVG/1.1/DTD/svg11.dtd">
<svg xmlns:xlink="http://www.w3.org/1999/xlink" width="732.049469pt" height="695.276pt" viewBox="0 0 732.049469 695.276" xmlns="http://www.w3.org/2000/svg" version="1.1">
 <metadata>
  <rdf:RDF xmlns:dc="http://purl.org/dc/elements/1.1/" xmlns:cc="http://creativecommons.org/ns#" xmlns:rdf="http://www.w3.org/1999/02/22-rdf-syntax-ns#">
   <cc:Work>
    <dc:type rdf:resource="http://purl.org/dc/dcmitype/StillImage"/>
    <dc:date>2025-02-20T14:15:28.273390</dc:date>
    <dc:format>image/svg+xml</dc:format>
    <dc:creator>
     <cc:Agent>
      <dc:title>Matplotlib v3.5.3, https://matplotlib.org/</dc:title>
     </cc:Agent>
    </dc:creator>
   </cc:Work>
  </rdf:RDF>
 </metadata>
 <defs>
  <style type="text/css">*{stroke-linejoin: round; stroke-linecap: butt}</style>
 </defs>
 <g id="figure_1">
  <g id="patch_1">
   <path d="M 0 695.276 
L 732.049469 695.276 
L 732.049469 0 
L 0 0 
z
" style="fill: #ffffff"/>
  </g>
  <g id="axes_1">
   <g id="patch_2">
    <path d="M 53.31 383.04 
L 499.71 383.04 
L 499.71 50.4 
L 53.31 50.4 
z
" style="fill: #ffffff"/>
   </g>
   <g id="matplotlib.axis_1">
    <g id="xtick_1">
     <g id="line2d_1">
      <path d="M 80.865556 383.04 
L 80.865556 50.4 
" clip-path="url(#p53dfa8efca)" style="fill: none; stroke: #ffffff; stroke-linecap: round"/>
     </g>
     <g id="line2d_2">
      <defs>
       <path id="mb3dc024c73" d="M 0 0 
L 0 6 
" style="stroke: #262626; stroke-width: 1.25"/>
      </defs>
      <g>
       <use xlink:href="#mb3dc024c73" x="80.865556" y="383.04" style="fill: #262626; stroke: #262626; stroke-width: 1.25"/>
      </g>
     </g>
     <g id="text_1">
      <text style="fill: #262626; font: 11px 'sans-serif'" transform="translate(83.900868 465.930625)rotate(-90)">control (n=9)</text>
     </g>
    </g>
    <g id="xtick_2">
     <g id="line2d_3">
      <path d="M 135.976667 383.04 
L 135.976667 50.4 
" clip-path="url(#p53dfa8efca)" style="fill: none; stroke: #ffffff; stroke-linecap: round"/>
     </g>
     <g id="line2d_4">
      <g>
       <use xlink:href="#mb3dc024c73" x="135.976667" y="383.04" style="fill: #262626; stroke: #262626; stroke-width: 1.25"/>
      </g>
     </g>
     <g id="text_2">
      <text style="fill: #262626; font: 11px 'sans-serif'" transform="translate(139.011979 458.500469)rotate(-90)">TCDD (n=9)</text>
     </g>
    </g>
    <g id="xtick_3">
     <g id="line2d_5">
      <path d="M 191.087778 383.04 
L 191.087778 50.4 
" clip-path="url(#p53dfa8efca)" style="fill: none; stroke: #ffffff; stroke-linecap: round"/>
     </g>
     <g id="line2d_6">
      <g>
       <use xlink:href="#mb3dc024c73" x="191.087778" y="383.04" style="fill: #262626; stroke: #262626; stroke-width: 1.25"/>
      </g>
     </g>
     <g id="text_3">
      <text style="fill: #262626; font: 11px 'sans-serif'" transform="translate(194.12309 465.930625)rotate(-90)">control (n=9)</text>
     </g>
    </g>
    <g id="xtick_4">
     <g id="line2d_7">
      <path d="M 246.198889 383.04 
L 246.198889 50.4 
" clip-path="url(#p53dfa8efca)" style="fill: none; stroke: #ffffff; stroke-linecap: round"/>
     </g>
     <g id="line2d_8">
      <g>
       <use xlink:href="#mb3dc024c73" x="246.198889" y="383.04" style="fill: #262626; stroke: #262626; stroke-width: 1.25"/>
      </g>
     </g>
     <g id="text_4">
      <text style="fill: #262626; font: 11px 'sans-serif'" transform="translate(249.234201 458.500469)rotate(-90)">TCDD (n=9)</text>
     </g>
    </g>
    <g id="xtick_5">
     <g id="line2d_9">
      <path d="M 306.821111 383.04 
L 306.821111 50.4 
" clip-path="url(#p53dfa8efca)" style="fill: none; stroke: #ffffff; stroke-linecap: round"/>
     </g>
     <g id="line2d_10">
      <g>
       <use xlink:href="#mb3dc024c73" x="306.821111" y="383.04" style="fill: #262626; stroke: #262626; stroke-width: 1.25"/>
      </g>
     </g>
     <g id="text_5">
      <text style="fill: #262626; font: 11px 'sans-serif'" transform="translate(309.856424 465.930625)rotate(-90)">control (n=9)</text>
     </g>
    </g>
    <g id="xtick_6">
     <g id="line2d_11">
      <path d="M 361.932222 383.04 
L 361.932222 50.4 
" clip-path="url(#p53dfa8efca)" style="fill: none; stroke: #ffffff; stroke-linecap: round"/>
     </g>
     <g id="line2d_12">
      <g>
       <use xlink:href="#mb3dc024c73" x="361.932222" y="383.04" style="fill: #262626; stroke: #262626; stroke-width: 1.25"/>
      </g>
     </g>
     <g id="text_6">
      <text style="fill: #262626; font: 11px 'sans-serif'" transform="translate(364.967535 458.500469)rotate(-90)">TCDD (n=8)</text>
     </g>
    </g>
    <g id="xtick_7">
     <g id="line2d_13">
      <path d="M 417.043333 383.04 
L 417.043333 50.4 
" clip-path="url(#p53dfa8efca)" style="fill: none; stroke: #ffffff; stroke-linecap: round"/>
     </g>
     <g id="line2d_14">
      <g>
       <use xlink:href="#mb3dc024c73" x="417.043333" y="383.04" style="fill: #262626; stroke: #262626; stroke-width: 1.25"/>
      </g>
     </g>
     <g id="text_7">
      <text style="fill: #262626; font: 11px 'sans-serif'" transform="translate(420.078646 465.930625)rotate(-90)">control (n=9)</text>
     </g>
    </g>
    <g id="xtick_8">
     <g id="line2d_15">
      <path d="M 472.154444 383.04 
L 472.154444 50.4 
" clip-path="url(#p53dfa8efca)" style="fill: none; stroke: #ffffff; stroke-linecap: round"/>
     </g>
     <g id="line2d_16">
      <g>
       <use xlink:href="#mb3dc024c73" x="472.154444" y="383.04" style="fill: #262626; stroke: #262626; stroke-width: 1.25"/>
      </g>
     </g>
     <g id="text_8">
      <text style="fill: #262626; font: 11px 'sans-serif'" transform="translate(475.189757 458.500469)rotate(-90)">TCDD (n=8)</text>
     </g>
    </g>
   </g>
   <g id="matplotlib.axis_2">
    <g id="ytick_1">
     <g id="line2d_17">
      <path d="M 53.31 383.04 
L 499.71 383.04 
" clip-path="url(#p53dfa8efca)" style="fill: none; stroke: #ffffff; stroke-linecap: round"/>
     </g>
     <g id="text_9">
      <text style="fill: #262626; font: 11px 'sans-serif'; text-anchor: end" x="43.81" y="387.219141" transform="rotate(-0, 43.81, 387.219141)">0</text>
     </g>
    </g>
    <g id="ytick_2">
     <g id="line2d_18">
      <path d="M 53.31 316.512 
L 499.71 316.512 
" clip-path="url(#p53dfa8efca)" style="fill: none; stroke: #ffffff; stroke-linecap: round"/>
     </g>
     <g id="text_10">
      <text style="fill: #262626; font: 11px 'sans-serif'; text-anchor: end" x="43.81" y="320.691141" transform="rotate(-0, 43.81, 320.691141)">20</text>
     </g>
    </g>
    <g id="ytick_3">
     <g id="line2d_19">
      <path d="M 53.31 249.984 
L 499.71 249.984 
" clip-path="url(#p53dfa8efca)" style="fill: none; stroke: #ffffff; stroke-linecap: round"/>
     </g>
     <g id="text_11">
      <text style="fill: #262626; font: 11px 'sans-serif'; text-anchor: end" x="43.81" y="254.163141" transform="rotate(-0, 43.81, 254.163141)">40</text>
     </g>
    </g>
    <g id="ytick_4">
     <g id="line2d_20">
      <path d="M 53.31 183.456 
L 499.71 183.456 
" clip-path="url(#p53dfa8efca)" style="fill: none; stroke: #ffffff; stroke-linecap: round"/>
     </g>
     <g id="text_12">
      <text style="fill: #262626; font: 11px 'sans-serif'; text-anchor: end" x="43.81" y="187.635141" transform="rotate(-0, 43.81, 187.635141)">60</text>
     </g>
    </g>
    <g id="ytick_5">
     <g id="line2d_21">
      <path d="M 53.31 116.928 
L 499.71 116.928 
" clip-path="url(#p53dfa8efca)" style="fill: none; stroke: #ffffff; stroke-linecap: round"/>
     </g>
     <g id="text_13">
      <text style="fill: #262626; font: 11px 'sans-serif'; text-anchor: end" x="43.81" y="121.107141" transform="rotate(-0, 43.81, 121.107141)">80</text>
     </g>
    </g>
    <g id="ytick_6">
     <g id="line2d_22">
      <path d="M 53.31 50.4 
L 499.71 50.4 
" clip-path="url(#p53dfa8efca)" style="fill: none; stroke: #ffffff; stroke-linecap: round"/>
     </g>
     <g id="text_14">
      <text style="fill: #262626; font: 11px 'sans-serif'; text-anchor: end" x="43.81" y="54.579141" transform="rotate(-0, 43.81, 54.579141)">100</text>
     </g>
    </g>
    <g id="text_15">
     <text style="fill: #262626; font: 12px 'sans-serif'; text-anchor: middle" x="16.318125" y="216.72" transform="rotate(-90, 16.318125, 216.72)">relative abundance family level %</text>
    </g>
   </g>
   <g id="PolyCollection_1">
    <defs>
     <path id="m9a5e77ac9d" d="M 279.265556 -427.780352 
L 279.265556 -312.236 
L 334.376667 -312.236 
L 334.376667 -312.236 
L 389.487778 -312.236 
L 389.487778 -312.236 
L 444.598889 -312.236 
L 444.598889 -312.236 
L 499.71 -312.236 
L 499.71 -456.1721 
L 499.71 -456.1721 
L 444.598889 -456.1721 
L 444.598889 -445.496512 
L 389.487778 -445.496512 
L 389.487778 -438.885908 
L 334.376667 -438.885908 
L 334.376667 -427.780352 
L 279.265556 -427.780352 
z
"/>
    </defs>
    <g clip-path="url(#p53dfa8efca)">
     <use xlink:href="#m9a5e77ac9d" x="0" y="695.276" style="fill: #1f78b4"/>
    </g>
   </g>
   <g id="PolyCollection_2">
    <defs>
     <path id="m3b1f73af06" d="M 53.31 -459.62016 
L 53.31 -312.236 
L 108.421111 -312.236 
L 108.421111 -312.236 
L 163.532222 -312.236 
L 163.532222 -312.236 
L 218.643333 -312.236 
L 218.643333 -312.236 
L 273.754444 -312.236 
L 273.754444 -497.794912 
L 273.754444 -497.794912 
L 218.643333 -497.794912 
L 218.643333 -488.333152 
L 163.532222 -488.333152 
L 163.532222 -450.190432 
L 108.421111 -450.190432 
L 108.421111 -459.62016 
L 53.31 -459.62016 
z
"/>
    </defs>
    <g clip-path="url(#p53dfa8efca)">
     <use xlink:href="#m3b1f73af06" x="0" y="695.276" style="fill: #1f78b4"/>
    </g>
   </g>
   <g id="PolyCollection_3">
    <defs>
     <path id="m97b98358d5" d="M 279.265556 -543.388768 
L 279.265556 -427.780352 
L 334.376667 -427.780352 
L 334.376667 -438.885908 
L 389.487778 -438.885908 
L 389.487778 -445.496512 
L 444.598889 -445.496512 
L 444.598889 -456.1721 
L 499.71 -456.1721 
L 499.71 -524.781872 
L 499.71 -524.781872 
L 444.598889 -524.781872 
L 444.598889 -496.461888 
L 389.487778 -496.461888 
L 389.487778 -523.401416 
L 334.376667 -523.401416 
L 334.376667 -543.388768 
L 279.265556 -543.388768 
z
"/>
    </defs>
    <g clip-path="url(#p53dfa8efca)">
     <use xlink:href="#m97b98358d5" x="0" y="695.276" style="fill: #b2df8a"/>
    </g>
   </g>
   <g id="PolyCollection_4">
    <defs>
     <path id="me2fb943f44" d="M 53.31 -526.64096 
L 53.31 -459.62016 
L 108.421111 -459.62016 
L 108.421111 -450.190432 
L 163.532222 -450.190432 
L 163.532222 -488.333152 
L 218.643333 -488.333152 
L 218.643333 -497.794912 
L 273.754444 -497.794912 
L 273.754444 -535.67152 
L 273.754444 -535.67152 
L 218.643333 -535.67152 
L 218.643333 -527.422048 
L 163.532222 -527.422048 
L 163.532222 -494.086592 
L 108.421111 -494.086592 
L 108.421111 -526.64096 
L 53.31 -526.64096 
z
"/>
    </defs>
    <g clip-path="url(#p53dfa8efca)">
     <use xlink:href="#me2fb943f44" x="0" y="695.276" style="fill: #b2df8a"/>
    </g>
   </g>
   <g id="PolyCollection_5">
    <defs>
     <path id="md66bcb527a" d="M 279.265556 -565.729856 
L 279.265556 -543.388768 
L 334.376667 -543.388768 
L 334.376667 -523.401416 
L 389.487778 -523.401416 
L 389.487778 -496.461888 
L 444.598889 -496.461888 
L 444.598889 -524.781872 
L 499.71 -524.781872 
L 499.71 -570.070808 
L 499.71 -570.070808 
L 444.598889 -570.070808 
L 444.598889 -567.98688 
L 389.487778 -567.98688 
L 389.487778 -578.81924 
L 334.376667 -578.81924 
L 334.376667 -565.729856 
L 279.265556 -565.729856 
z
"/>
    </defs>
    <g clip-path="url(#p53dfa8efca)">
     <use xlink:href="#md66bcb527a" x="0" y="695.276" style="fill: #33a02c"/>
    </g>
   </g>
   <g id="PolyCollection_6">
    <defs>
     <path id="me36d783911" d="M 53.31 -588.95552 
L 53.31 -526.64096 
L 108.421111 -526.64096 
L 108.421111 -494.086592 
L 163.532222 -494.086592 
L 163.532222 -527.422048 
L 218.643333 -527.422048 
L 218.643333 -535.67152 
L 273.754444 -535.67152 
L 273.754444 -577.709824 
L 273.754444 -577.709824 
L 218.643333 -577.709824 
L 218.643333 -581.647296 
L 163.532222 -581.647296 
L 163.532222 -580.395584 
L 108.421111 -580.395584 
L 108.421111 -588.95552 
L 53.31 -588.95552 
z
"/>
    </defs>
    <g clip-path="url(#p53dfa8efca)">
     <use xlink:href="#me36d783911" x="0" y="695.276" style="fill: #33a02c"/>
    </g>
   </g>
   <g id="PolyCollection_7">
    <defs>
     <path id="m08ec4e924b" d="M 279.265556 -579.791904 
L 279.265556 -565.729856 
L 334.376667 -565.729856 
L 334.376667 -578.81924 
L 389.487778 -578.81924 
L 389.487778 -567.98688 
L 444.598889 -567.98688 
L 444.598889 -570.070808 
L 499.71 -570.070808 
L 499.71 -589.341752 
L 499.71 -589.341752 
L 444.598889 -589.341752 
L 444.598889 -584.808608 
L 389.487778 -584.808608 
L 389.487778 -592.399268 
L 334.376667 -592.399268 
L 334.376667 -579.791904 
L 279.265556 -579.791904 
z
"/>
    </defs>
    <g clip-path="url(#p53dfa8efca)">
     <use xlink:href="#m08ec4e924b" x="0" y="695.276" style="fill: #fb9a99"/>
    </g>
   </g>
   <g id="PolyCollection_8">
    <defs>
     <path id="m196dbea692" d="M 53.31 -602.776096 
L 53.31 -588.95552 
L 108.421111 -588.95552 
L 108.421111 -580.395584 
L 163.532222 -580.395584 
L 163.532222 -581.647296 
L 218.643333 -581.647296 
L 218.643333 -577.709824 
L 273.754444 -577.709824 
L 273.754444 -589.495136 
L 273.754444 -589.495136 
L 218.643333 -589.495136 
L 218.643333 -593.334048 
L 163.532222 -593.334048 
L 163.532222 -592.299168 
L 108.421111 -592.299168 
L 108.421111 -602.776096 
L 53.31 -602.776096 
z
"/>
    </defs>
    <g clip-path="url(#p53dfa8efca)">
     <use xlink:href="#m196dbea692" x="0" y="695.276" style="fill: #fb9a99"/>
    </g>
   </g>
   <g id="PolyCollection_9">
    <defs>
     <path id="m0581671f2d" d="M 279.265556 -584.764256 
L 279.265556 -579.791904 
L 334.376667 -579.791904 
L 334.376667 -592.399268 
L 389.487778 -592.399268 
L 389.487778 -584.808608 
L 444.598889 -584.808608 
L 444.598889 -589.341752 
L 499.71 -589.341752 
L 499.71 -595.334816 
L 499.71 -595.334816 
L 444.598889 -595.334816 
L 444.598889 -594.492128 
L 389.487778 -594.492128 
L 389.487778 -596.343824 
L 334.376667 -596.343824 
L 334.376667 -584.764256 
L 279.265556 -584.764256 
z
"/>
    </defs>
    <g clip-path="url(#p53dfa8efca)">
     <use xlink:href="#m0581671f2d" x="0" y="695.276" style="fill: #e31a1c"/>
    </g>
   </g>
   <g id="PolyCollection_10">
    <defs>
     <path id="mdf4e34be67" d="M 53.31 -608.652736 
L 53.31 -602.776096 
L 108.421111 -602.776096 
L 108.421111 -592.299168 
L 163.532222 -592.299168 
L 163.532222 -593.334048 
L 218.643333 -593.334048 
L 218.643333 -589.495136 
L 273.754444 -589.495136 
L 273.754444 -609.49296 
L 273.754444 -609.49296 
L 218.643333 -609.49296 
L 218.643333 -614.465312 
L 163.532222 -614.465312 
L 163.532222 -604.683232 
L 108.421111 -604.683232 
L 108.421111 -608.652736 
L 53.31 -608.652736 
z
"/>
    </defs>
    <g clip-path="url(#p53dfa8efca)">
     <use xlink:href="#mdf4e34be67" x="0" y="695.276" style="fill: #e31a1c"/>
    </g>
   </g>
   <g id="PolyCollection_11">
    <defs>
     <path id="m4430f2434a" d="M 279.265556 -598.348288 
L 279.265556 -584.764256 
L 334.376667 -584.764256 
L 334.376667 -596.343824 
L 389.487778 -596.343824 
L 389.487778 -594.492128 
L 444.598889 -594.492128 
L 444.598889 -595.334816 
L 499.71 -595.334816 
L 499.71 -606.079088 
L 499.71 -606.079088 
L 444.598889 -606.079088 
L 444.598889 -602.330112 
L 389.487778 -602.330112 
L 389.487778 -607.573196 
L 334.376667 -607.573196 
L 334.376667 -598.348288 
L 279.265556 -598.348288 
z
"/>
    </defs>
    <g clip-path="url(#p53dfa8efca)">
     <use xlink:href="#m4430f2434a" x="0" y="695.276" style="fill: #fdbf6f"/>
    </g>
   </g>
   <g id="PolyCollection_12">
    <defs>
     <path id="m2bbe525d8e" d="M 53.31 -617.473856 
L 53.31 -608.652736 
L 108.421111 -608.652736 
L 108.421111 -604.683232 
L 163.532222 -604.683232 
L 163.532222 -614.465312 
L 218.643333 -614.465312 
L 218.643333 -609.49296 
L 273.754444 -609.49296 
L 273.754444 -613.240704 
L 273.754444 -613.240704 
L 218.643333 -613.240704 
L 218.643333 -618.764992 
L 163.532222 -618.764992 
L 163.532222 -610.596832 
L 108.421111 -610.596832 
L 108.421111 -617.473856 
L 53.31 -617.473856 
z
"/>
    </defs>
    <g clip-path="url(#p53dfa8efca)">
     <use xlink:href="#m2bbe525d8e" x="0" y="695.276" style="fill: #fdbf6f"/>
    </g>
   </g>
   <g id="PolyCollection_13">
    <defs>
     <path id="me4ac2bee8a" d="M 279.265556 -608.502432 
L 279.265556 -598.348288 
L 334.376667 -598.348288 
L 334.376667 -607.573196 
L 389.487778 -607.573196 
L 389.487778 -602.330112 
L 444.598889 -602.330112 
L 444.598889 -606.079088 
L 499.71 -606.079088 
L 499.71 -608.873264 
L 499.71 -608.873264 
L 444.598889 -608.873264 
L 444.598889 -603.744448 
L 389.487778 -603.744448 
L 389.487778 -610.677836 
L 334.376667 -610.677836 
L 334.376667 -608.502432 
L 279.265556 -608.502432 
z
"/>
    </defs>
    <g clip-path="url(#p53dfa8efca)">
     <use xlink:href="#me4ac2bee8a" x="0" y="695.276" style="fill: #ff7f00"/>
    </g>
   </g>
   <g id="PolyCollection_14">
    <defs>
     <path id="m6b4e122237" d="M 53.31 -621.226528 
L 53.31 -617.473856 
L 108.421111 -617.473856 
L 108.421111 -610.596832 
L 163.532222 -610.596832 
L 163.532222 -618.764992 
L 218.643333 -618.764992 
L 218.643333 -613.240704 
L 273.754444 -613.240704 
L 273.754444 -621.20928 
L 273.754444 -621.20928 
L 218.643333 -621.20928 
L 218.643333 -619.565792 
L 163.532222 -619.565792 
L 163.532222 -619.319392 
L 108.421111 -619.319392 
L 108.421111 -621.226528 
L 53.31 -621.226528 
z
"/>
    </defs>
    <g clip-path="url(#p53dfa8efca)">
     <use xlink:href="#m6b4e122237" x="0" y="695.276" style="fill: #ff7f00"/>
    </g>
   </g>
   <g id="PolyCollection_15">
    <defs>
     <path id="m4f9f331787" d="M 279.265556 -614.797952 
L 279.265556 -608.502432 
L 334.376667 -608.502432 
L 334.376667 -610.677836 
L 389.487778 -610.677836 
L 389.487778 -603.744448 
L 444.598889 -603.744448 
L 444.598889 -608.873264 
L 499.71 -608.873264 
L 499.71 -614.275892 
L 499.71 -614.275892 
L 444.598889 -614.275892 
L 444.598889 -608.603456 
L 389.487778 -608.603456 
L 389.487778 -615.046508 
L 334.376667 -615.046508 
L 334.376667 -614.797952 
L 279.265556 -614.797952 
z
"/>
    </defs>
    <g clip-path="url(#p53dfa8efca)">
     <use xlink:href="#m4f9f331787" x="0" y="695.276" style="fill: #cab2d6"/>
    </g>
   </g>
   <g id="PolyCollection_16">
    <defs>
     <path id="m45ea5e3c49" d="M 53.31 -625.523744 
L 53.31 -621.226528 
L 108.421111 -621.226528 
L 108.421111 -619.319392 
L 163.532222 -619.319392 
L 163.532222 -619.565792 
L 218.643333 -619.565792 
L 218.643333 -621.20928 
L 273.754444 -621.20928 
L 273.754444 -624.22768 
L 273.754444 -624.22768 
L 218.643333 -624.22768 
L 218.643333 -622.667968 
L 163.532222 -622.667968 
L 163.532222 -623.178016 
L 108.421111 -623.178016 
L 108.421111 -625.523744 
L 53.31 -625.523744 
z
"/>
    </defs>
    <g clip-path="url(#p53dfa8efca)">
     <use xlink:href="#m45ea5e3c49" x="0" y="695.276" style="fill: #cab2d6"/>
    </g>
   </g>
   <g id="PolyCollection_17">
    <defs>
     <path id="m5198516d14" d="M 279.265556 -619.942784 
L 279.265556 -614.797952 
L 334.376667 -614.797952 
L 334.376667 -615.046508 
L 389.487778 -615.046508 
L 389.487778 -608.603456 
L 444.598889 -608.603456 
L 444.598889 -614.275892 
L 499.71 -614.275892 
L 499.71 -619.728416 
L 499.71 -619.728416 
L 444.598889 -619.728416 
L 444.598889 -613.689152 
L 389.487778 -613.689152 
L 389.487778 -619.140752 
L 334.376667 -619.140752 
L 334.376667 -619.942784 
L 279.265556 -619.942784 
z
"/>
    </defs>
    <g clip-path="url(#p53dfa8efca)">
     <use xlink:href="#m5198516d14" x="0" y="695.276" style="fill: #6a3d9a"/>
    </g>
   </g>
   <g id="PolyCollection_18">
    <defs>
     <path id="m7fddac1b87" d="M 53.31 -628.837824 
L 53.31 -625.523744 
L 108.421111 -625.523744 
L 108.421111 -623.178016 
L 163.532222 -623.178016 
L 163.532222 -622.667968 
L 218.643333 -622.667968 
L 218.643333 -624.22768 
L 273.754444 -624.22768 
L 273.754444 -628.726944 
L 273.754444 -628.726944 
L 218.643333 -628.726944 
L 218.643333 -626.068288 
L 163.532222 -626.068288 
L 163.532222 -626.56848 
L 108.421111 -626.56848 
L 108.421111 -628.837824 
L 53.31 -628.837824 
z
"/>
    </defs>
    <g clip-path="url(#p53dfa8efca)">
     <use xlink:href="#m7fddac1b87" x="0" y="695.276" style="fill: #6a3d9a"/>
    </g>
   </g>
   <g id="PolyCollection_19">
    <defs>
     <path id="m719ec392ea" d="M 279.265556 -626.711392 
L 279.265556 -619.942784 
L 334.376667 -619.942784 
L 334.376667 -619.140752 
L 389.487778 -619.140752 
L 389.487778 -613.689152 
L 444.598889 -613.689152 
L 444.598889 -619.728416 
L 499.71 -619.728416 
L 499.71 -621.380528 
L 499.71 -621.380528 
L 444.598889 -621.380528 
L 444.598889 -614.829984 
L 389.487778 -614.829984 
L 389.487778 -626.328548 
L 334.376667 -626.328548 
L 334.376667 -626.711392 
L 279.265556 -626.711392 
z
"/>
    </defs>
    <g clip-path="url(#p53dfa8efca)">
     <use xlink:href="#m719ec392ea" x="0" y="695.276" style="fill: #ffff99"/>
    </g>
   </g>
   <g id="PolyCollection_20">
    <defs>
     <path id="m0fcd9239ab" d="M 53.31 -633.965408 
L 53.31 -628.837824 
L 108.421111 -628.837824 
L 108.421111 -626.56848 
L 163.532222 -626.56848 
L 163.532222 -626.068288 
L 218.643333 -626.068288 
L 218.643333 -628.726944 
L 273.754444 -628.726944 
L 273.754444 -629.50064 
L 273.754444 -629.50064 
L 218.643333 -629.50064 
L 218.643333 -626.669504 
L 163.532222 -626.669504 
L 163.532222 -631.242688 
L 108.421111 -631.242688 
L 108.421111 -633.965408 
L 53.31 -633.965408 
z
"/>
    </defs>
    <g clip-path="url(#p53dfa8efca)">
     <use xlink:href="#m0fcd9239ab" x="0" y="695.276" style="fill: #ffff99"/>
    </g>
   </g>
   <g id="PolyCollection_21">
    <defs>
     <path id="m9a454a3513" d="M 279.265556 -629.532672 
L 279.265556 -626.711392 
L 334.376667 -626.711392 
L 334.376667 -626.328548 
L 389.487778 -626.328548 
L 389.487778 -614.829984 
L 444.598889 -614.829984 
L 444.598889 -621.380528 
L 499.71 -621.380528 
L 499.71 -624.975812 
L 499.71 -624.975812 
L 444.598889 -624.975812 
L 444.598889 -621.127968 
L 389.487778 -621.127968 
L 389.487778 -628.981352 
L 334.376667 -628.981352 
L 334.376667 -629.532672 
L 279.265556 -629.532672 
z
"/>
    </defs>
    <g clip-path="url(#p53dfa8efca)">
     <use xlink:href="#m9a454a3513" x="0" y="695.276" style="fill: #b15928"/>
    </g>
   </g>
   <g id="PolyCollection_22">
    <defs>
     <path id="m74b0c908bc" d="M 53.31 -635.978496 
L 53.31 -633.965408 
L 108.421111 -633.965408 
L 108.421111 -631.242688 
L 163.532222 -631.242688 
L 163.532222 -626.669504 
L 218.643333 -626.669504 
L 218.643333 -629.50064 
L 273.754444 -629.50064 
L 273.754444 -631.604896 
L 273.754444 -631.604896 
L 218.643333 -631.604896 
L 218.643333 -628.248928 
L 163.532222 -628.248928 
L 163.532222 -632.96256 
L 108.421111 -632.96256 
L 108.421111 -635.978496 
L 53.31 -635.978496 
z
"/>
    </defs>
    <g clip-path="url(#p53dfa8efca)">
     <use xlink:href="#m74b0c908bc" x="0" y="695.276" style="fill: #b15928"/>
    </g>
   </g>
   <g id="PolyCollection_23">
    <defs>
     <path id="m2522e1f308" d="M 279.265556 -629.535136 
L 279.265556 -629.532672 
L 334.376667 -629.532672 
L 334.376667 -628.981352 
L 389.487778 -628.981352 
L 389.487778 -621.127968 
L 444.598889 -621.127968 
L 444.598889 -624.975812 
L 499.71 -624.975812 
L 499.71 -626.658416 
L 499.71 -626.658416 
L 444.598889 -626.658416 
L 444.598889 -623.848224 
L 389.487778 -623.848224 
L 389.487778 -628.981352 
L 334.376667 -628.981352 
L 334.376667 -629.535136 
L 279.265556 -629.535136 
z
"/>
    </defs>
    <g clip-path="url(#p53dfa8efca)">
     <use xlink:href="#m2522e1f308" x="0" y="695.276" style="fill: #1b9e77"/>
    </g>
   </g>
   <g id="PolyCollection_24">
    <defs>
     <path id="m39f9cc58d2" d="M 53.31 -635.990816 
L 53.31 -635.978496 
L 108.421111 -635.978496 
L 108.421111 -632.96256 
L 163.532222 -632.96256 
L 163.532222 -628.248928 
L 218.643333 -628.248928 
L 218.643333 -631.604896 
L 273.754444 -631.604896 
L 273.754444 -637.801856 
L 273.754444 -637.801856 
L 218.643333 -637.801856 
L 218.643333 -635.860224 
L 163.532222 -635.860224 
L 163.532222 -632.982272 
L 108.421111 -632.982272 
L 108.421111 -635.990816 
L 53.31 -635.990816 
z
"/>
    </defs>
    <g clip-path="url(#p53dfa8efca)">
     <use xlink:href="#m39f9cc58d2" x="0" y="695.276" style="fill: #1b9e77"/>
    </g>
   </g>
   <g id="PolyCollection_25">
    <defs>
     <path id="m550f58895f" d="M 279.265556 -629.535136 
L 279.265556 -629.535136 
L 334.376667 -629.535136 
L 334.376667 -628.981352 
L 389.487778 -628.981352 
L 389.487778 -623.848224 
L 444.598889 -623.848224 
L 444.598889 -626.658416 
L 499.71 -626.658416 
L 499.71 -630.353492 
L 499.71 -630.353492 
L 444.598889 -630.353492 
L 444.598889 -631.112096 
L 389.487778 -631.112096 
L 389.487778 -630.33686 
L 334.376667 -630.33686 
L 334.376667 -629.535136 
L 279.265556 -629.535136 
z
"/>
    </defs>
    <g clip-path="url(#p53dfa8efca)">
     <use xlink:href="#m550f58895f" x="0" y="695.276" style="fill: #d95f02"/>
    </g>
   </g>
   <g id="PolyCollection_26">
    <defs>
     <path id="m856ce6a39b" d="M 53.31 -636.04256 
L 53.31 -635.990816 
L 108.421111 -635.990816 
L 108.421111 -632.982272 
L 163.532222 -632.982272 
L 163.532222 -635.860224 
L 218.643333 -635.860224 
L 218.643333 -637.801856 
L 273.754444 -637.801856 
L 273.754444 -638.159136 
L 273.754444 -638.159136 
L 218.643333 -638.159136 
L 218.643333 -637.575168 
L 163.532222 -637.575168 
L 163.532222 -635.946464 
L 108.421111 -635.946464 
L 108.421111 -636.04256 
L 53.31 -636.04256 
z
"/>
    </defs>
    <g clip-path="url(#p53dfa8efca)">
     <use xlink:href="#m856ce6a39b" x="0" y="695.276" style="fill: #d95f02"/>
    </g>
   </g>
   <g id="PolyCollection_27">
    <defs>
     <path id="m308e334e38" d="M 279.265556 -631.28704 
L 279.265556 -629.535136 
L 334.376667 -629.535136 
L 334.376667 -630.33686 
L 389.487778 -630.33686 
L 389.487778 -631.112096 
L 444.598889 -631.112096 
L 444.598889 -630.353492 
L 499.71 -630.353492 
L 499.71 -632.839976 
L 499.71 -632.839976 
L 444.598889 -632.839976 
L 444.598889 -633.423328 
L 389.487778 -633.423328 
L 389.487778 -631.684052 
L 334.376667 -631.684052 
L 334.376667 -631.28704 
L 279.265556 -631.28704 
z
"/>
    </defs>
    <g clip-path="url(#p53dfa8efca)">
     <use xlink:href="#m308e334e38" x="0" y="695.276" style="fill: #7570b3"/>
    </g>
   </g>
   <g id="PolyCollection_28">
    <defs>
     <path id="mb3a0b7ec70" d="M 53.31 -637.158752 
L 53.31 -636.04256 
L 108.421111 -636.04256 
L 108.421111 -635.946464 
L 163.532222 -635.946464 
L 163.532222 -637.575168 
L 218.643333 -637.575168 
L 218.643333 -638.159136 
L 273.754444 -638.159136 
L 273.754444 -639.415776 
L 273.754444 -639.415776 
L 218.643333 -639.415776 
L 218.643333 -638.597728 
L 163.532222 -638.597728 
L 163.532222 -637.001056 
L 108.421111 -637.001056 
L 108.421111 -637.158752 
L 53.31 -637.158752 
z
"/>
    </defs>
    <g clip-path="url(#p53dfa8efca)">
     <use xlink:href="#mb3a0b7ec70" x="0" y="695.276" style="fill: #7570b3"/>
    </g>
   </g>
   <g id="PolyCollection_29">
    <defs>
     <path id="m1d92a65f84" d="M 279.265556 -633.896416 
L 279.265556 -631.28704 
L 334.376667 -631.28704 
L 334.376667 -631.684052 
L 389.487778 -631.684052 
L 389.487778 -633.423328 
L 444.598889 -633.423328 
L 444.598889 -632.839976 
L 499.71 -632.839976 
L 499.71 -634.14836 
L 499.71 -634.14836 
L 444.598889 -634.14836 
L 444.598889 -634.714464 
L 389.487778 -634.714464 
L 389.487778 -634.32854 
L 334.376667 -634.32854 
L 334.376667 -633.896416 
L 279.265556 -633.896416 
z
"/>
    </defs>
    <g clip-path="url(#p53dfa8efca)">
     <use xlink:href="#m1d92a65f84" x="0" y="695.276" style="fill: #e7298a"/>
    </g>
   </g>
   <g id="PolyCollection_30">
    <defs>
     <path id="m8ae49e3bdf" d="M 53.31 -638.336544 
L 53.31 -637.158752 
L 108.421111 -637.158752 
L 108.421111 -637.001056 
L 163.532222 -637.001056 
L 163.532222 -638.597728 
L 218.643333 -638.597728 
L 218.643333 -639.415776 
L 273.754444 -639.415776 
L 273.754444 -640.014528 
L 273.754444 -640.014528 
L 218.643333 -640.014528 
L 218.643333 -639.092992 
L 163.532222 -639.092992 
L 163.532222 -638.274944 
L 108.421111 -638.274944 
L 108.421111 -638.336544 
L 53.31 -638.336544 
z
"/>
    </defs>
    <g clip-path="url(#p53dfa8efca)">
     <use xlink:href="#m8ae49e3bdf" x="0" y="695.276" style="fill: #e7298a"/>
    </g>
   </g>
   <g id="PolyCollection_31">
    <defs>
     <path id="ma2e0038e4e" d="M 279.265556 -635.633536 
L 279.265556 -633.896416 
L 334.376667 -633.896416 
L 334.376667 -634.32854 
L 389.487778 -634.32854 
L 389.487778 -634.714464 
L 444.598889 -634.714464 
L 444.598889 -634.14836 
L 499.71 -634.14836 
L 499.71 -635.57594 
L 499.71 -635.57594 
L 444.598889 -635.57594 
L 444.598889 -635.668032 
L 389.487778 -635.668032 
L 389.487778 -635.803244 
L 334.376667 -635.803244 
L 334.376667 -635.633536 
L 279.265556 -635.633536 
z
"/>
    </defs>
    <g clip-path="url(#p53dfa8efca)">
     <use xlink:href="#ma2e0038e4e" x="0" y="695.276" style="fill: #66a61e"/>
    </g>
   </g>
   <g id="PolyCollection_32">
    <defs>
     <path id="m6754ef61a6" d="M 53.31 -639.322144 
L 53.31 -638.336544 
L 108.421111 -638.336544 
L 108.421111 -638.274944 
L 163.532222 -638.274944 
L 163.532222 -639.092992 
L 218.643333 -639.092992 
L 218.643333 -640.014528 
L 273.754444 -640.014528 
L 273.754444 -640.546752 
L 273.754444 -640.546752 
L 218.643333 -640.546752 
L 218.643333 -639.649856 
L 163.532222 -639.649856 
L 163.532222 -638.982112 
L 108.421111 -638.982112 
L 108.421111 -639.322144 
L 53.31 -639.322144 
z
"/>
    </defs>
    <g clip-path="url(#p53dfa8efca)">
     <use xlink:href="#m6754ef61a6" x="0" y="695.276" style="fill: #66a61e"/>
    </g>
   </g>
   <g id="PolyCollection_33">
    <defs>
     <path id="m5fe833bd11" d="M 279.265556 -636.912352 
L 279.265556 -635.633536 
L 334.376667 -635.633536 
L 334.376667 -635.803244 
L 389.487778 -635.803244 
L 389.487778 -635.668032 
L 444.598889 -635.668032 
L 444.598889 -635.57594 
L 499.71 -635.57594 
L 499.71 -636.64316 
L 499.71 -636.64316 
L 444.598889 -636.64316 
L 444.598889 -636.4368 
L 389.487778 -636.4368 
L 389.487778 -637.05896 
L 334.376667 -637.05896 
L 334.376667 -636.912352 
L 279.265556 -636.912352 
z
"/>
    </defs>
    <g clip-path="url(#p53dfa8efca)">
     <use xlink:href="#m5fe833bd11" x="0" y="695.276" style="fill: #e6ab02"/>
    </g>
   </g>
   <g id="PolyCollection_34">
    <defs>
     <path id="m7f069c915f" d="M 53.31 -640.125408 
L 53.31 -639.322144 
L 108.421111 -639.322144 
L 108.421111 -638.982112 
L 163.532222 -638.982112 
L 163.532222 -639.649856 
L 218.643333 -639.649856 
L 218.643333 -640.546752 
L 273.754444 -640.546752 
L 273.754444 -641.717152 
L 273.754444 -641.717152 
L 218.643333 -641.717152 
L 218.643333 -640.697056 
L 163.532222 -640.697056 
L 163.532222 -639.790304 
L 108.421111 -639.790304 
L 108.421111 -640.125408 
L 53.31 -640.125408 
z
"/>
    </defs>
    <g clip-path="url(#p53dfa8efca)">
     <use xlink:href="#m7f069c915f" x="0" y="695.276" style="fill: #e6ab02"/>
    </g>
   </g>
   <g id="PolyCollection_35">
    <defs>
     <path id="m773dbcad00" d="M 279.265556 -638.2848 
L 279.265556 -636.912352 
L 334.376667 -636.912352 
L 334.376667 -637.05896 
L 389.487778 -637.05896 
L 389.487778 -636.4368 
L 444.598889 -636.4368 
L 444.598889 -636.64316 
L 499.71 -636.64316 
L 499.71 -637.818488 
L 499.71 -637.818488 
L 444.598889 -637.818488 
L 444.598889 -637.740256 
L 389.487778 -637.740256 
L 389.487778 -637.885016 
L 334.376667 -637.885016 
L 334.376667 -638.2848 
L 279.265556 -638.2848 
z
"/>
    </defs>
    <g clip-path="url(#p53dfa8efca)">
     <use xlink:href="#m773dbcad00" x="0" y="695.276" style="fill: #a6761d"/>
    </g>
   </g>
   <g id="PolyCollection_36">
    <defs>
     <path id="mfadeb2c0bd" d="M 53.31 -640.881856 
L 53.31 -640.125408 
L 108.421111 -640.125408 
L 108.421111 -639.790304 
L 163.532222 -639.790304 
L 163.532222 -640.697056 
L 218.643333 -640.697056 
L 218.643333 -641.717152 
L 273.754444 -641.717152 
L 273.754444 -642.086752 
L 273.754444 -642.086752 
L 218.643333 -642.086752 
L 218.643333 -641.172608 
L 163.532222 -641.172608 
L 163.532222 -640.297888 
L 108.421111 -640.297888 
L 108.421111 -640.881856 
L 53.31 -640.881856 
z
"/>
    </defs>
    <g clip-path="url(#p53dfa8efca)">
     <use xlink:href="#mfadeb2c0bd" x="0" y="695.276" style="fill: #a6761d"/>
    </g>
   </g>
   <g id="PolyCollection_37">
    <defs>
     <path id="m421175c123" d="M 279.265556 -639.588256 
L 279.265556 -638.2848 
L 334.376667 -638.2848 
L 334.376667 -637.885016 
L 389.487778 -637.885016 
L 389.487778 -637.740256 
L 444.598889 -637.740256 
L 444.598889 -637.818488 
L 499.71 -637.818488 
L 499.71 -638.799776 
L 499.71 -638.799776 
L 444.598889 -638.799776 
L 444.598889 -638.388288 
L 389.487778 -638.388288 
L 389.487778 -638.880164 
L 334.376667 -638.880164 
L 334.376667 -639.588256 
L 279.265556 -639.588256 
z
"/>
    </defs>
    <g clip-path="url(#p53dfa8efca)">
     <use xlink:href="#m421175c123" x="0" y="695.276" style="fill: #666666"/>
    </g>
   </g>
   <g id="PolyCollection_38">
    <defs>
     <path id="m98696580ea" d="M 53.31 -641.877312 
L 53.31 -640.881856 
L 108.421111 -640.881856 
L 108.421111 -640.297888 
L 163.532222 -640.297888 
L 163.532222 -641.172608 
L 218.643333 -641.172608 
L 218.643333 -642.086752 
L 273.754444 -642.086752 
L 273.754444 -642.675648 
L 273.754444 -642.675648 
L 218.643333 -642.675648 
L 218.643333 -641.675264 
L 163.532222 -641.675264 
L 163.532222 -641.017376 
L 108.421111 -641.017376 
L 108.421111 -641.877312 
L 53.31 -641.877312 
z
"/>
    </defs>
    <g clip-path="url(#p53dfa8efca)">
     <use xlink:href="#m98696580ea" x="0" y="695.276" style="fill: #666666"/>
    </g>
   </g>
   <g id="PolyCollection_39">
    <defs>
     <path id="mac63a36132" d="M 279.265556 -640.758656 
L 279.265556 -639.588256 
L 334.376667 -639.588256 
L 334.376667 -638.880164 
L 389.487778 -638.880164 
L 389.487778 -638.388288 
L 444.598889 -638.388288 
L 444.598889 -638.799776 
L 499.71 -638.799776 
L 499.71 -639.98342 
L 499.71 -639.98342 
L 444.598889 -639.98342 
L 444.598889 -638.881088 
L 389.487778 -638.881088 
L 389.487778 -639.961244 
L 334.376667 -639.961244 
L 334.376667 -640.758656 
L 279.265556 -640.758656 
z
"/>
    </defs>
    <g clip-path="url(#p53dfa8efca)">
     <use xlink:href="#mac63a36132" x="0" y="695.276" style="fill: #1b9e77"/>
    </g>
   </g>
   <g id="PolyCollection_40">
    <defs>
     <path id="m5497cbcb25" d="M 53.31 -642.382432 
L 53.31 -641.877312 
L 108.421111 -641.877312 
L 108.421111 -641.017376 
L 163.532222 -641.017376 
L 163.532222 -641.675264 
L 218.643333 -641.675264 
L 218.643333 -642.675648 
L 273.754444 -642.675648 
L 273.754444 -643.06496 
L 273.754444 -643.06496 
L 218.643333 -643.06496 
L 218.643333 -642.010368 
L 163.532222 -642.010368 
L 163.532222 -641.246528 
L 108.421111 -641.246528 
L 108.421111 -642.382432 
L 53.31 -642.382432 
z
"/>
    </defs>
    <g clip-path="url(#p53dfa8efca)">
     <use xlink:href="#m5497cbcb25" x="0" y="695.276" style="fill: #1b9e77"/>
    </g>
   </g>
   <g id="PolyCollection_41">
    <defs>
     <path id="me383427092" d="M 279.265556 -641.763968 
L 279.265556 -640.758656 
L 334.376667 -640.758656 
L 334.376667 -639.961244 
L 389.487778 -639.961244 
L 389.487778 -638.881088 
L 444.598889 -638.881088 
L 444.598889 -639.98342 
L 499.71 -639.98342 
L 499.71 -640.133108 
L 499.71 -640.133108 
L 444.598889 -640.133108 
L 444.598889 -639.004288 
L 389.487778 -639.004288 
L 389.487778 -641.807396 
L 334.376667 -641.807396 
L 334.376667 -641.763968 
L 279.265556 -641.763968 
z
"/>
    </defs>
    <g clip-path="url(#p53dfa8efca)">
     <use xlink:href="#me383427092" x="0" y="695.276" style="fill: #d95f02"/>
    </g>
   </g>
   <g id="PolyCollection_42">
    <defs>
     <path id="mef825571a3" d="M 53.31 -643.239904 
L 53.31 -642.382432 
L 108.421111 -642.382432 
L 108.421111 -641.246528 
L 163.532222 -641.246528 
L 163.532222 -642.010368 
L 218.643333 -642.010368 
L 218.643333 -643.06496 
L 273.754444 -643.06496 
L 273.754444 -643.094528 
L 273.754444 -643.094528 
L 218.643333 -643.094528 
L 218.643333 -642.07936 
L 163.532222 -642.07936 
L 163.532222 -642.148352 
L 108.421111 -642.148352 
L 108.421111 -643.239904 
L 53.31 -643.239904 
z
"/>
    </defs>
    <g clip-path="url(#p53dfa8efca)">
     <use xlink:href="#mef825571a3" x="0" y="695.276" style="fill: #d95f02"/>
    </g>
   </g>
   <g id="PolyCollection_43">
    <defs>
     <path id="mcdba13e760" d="M 279.265556 -641.763968 
L 279.265556 -641.763968 
L 334.376667 -641.763968 
L 334.376667 -641.807396 
L 389.487778 -641.807396 
L 389.487778 -639.004288 
L 444.598889 -639.004288 
L 444.598889 -640.133108 
L 499.71 -640.133108 
L 499.71 -641.155976 
L 499.71 -641.155976 
L 444.598889 -641.155976 
L 444.598889 -640.221504 
L 389.487778 -640.221504 
L 389.487778 -641.871152 
L 334.376667 -641.871152 
L 334.376667 -641.763968 
L 279.265556 -641.763968 
z
"/>
    </defs>
    <g clip-path="url(#p53dfa8efca)">
     <use xlink:href="#mcdba13e760" x="0" y="695.276" style="fill: #7570b3"/>
    </g>
   </g>
   <g id="PolyCollection_44">
    <defs>
     <path id="m293255691d" d="M 53.31 -643.239904 
L 53.31 -643.239904 
L 108.421111 -643.239904 
L 108.421111 -642.148352 
L 163.532222 -642.148352 
L 163.532222 -642.07936 
L 218.643333 -642.07936 
L 218.643333 -643.094528 
L 273.754444 -643.094528 
L 273.754444 -643.432096 
L 273.754444 -643.432096 
L 218.643333 -643.432096 
L 218.643333 -642.811168 
L 163.532222 -642.811168 
L 163.532222 -642.148352 
L 108.421111 -642.148352 
L 108.421111 -643.239904 
L 53.31 -643.239904 
z
"/>
    </defs>
    <g clip-path="url(#p53dfa8efca)">
     <use xlink:href="#m293255691d" x="0" y="695.276" style="fill: #7570b3"/>
    </g>
   </g>
   <g id="PolyCollection_45">
    <defs>
     <path id="md99ca5237e" d="M 279.265556 -642.148352 
L 279.265556 -641.763968 
L 334.376667 -641.763968 
L 334.376667 -641.871152 
L 389.487778 -641.871152 
L 389.487778 -640.221504 
L 444.598889 -640.221504 
L 444.598889 -641.155976 
L 499.71 -641.155976 
L 499.71 -641.682656 
L 499.71 -641.682656 
L 444.598889 -641.682656 
L 444.598889 -640.729088 
L 389.487778 -640.729088 
L 389.487778 -642.300812 
L 334.376667 -642.300812 
L 334.376667 -642.148352 
L 279.265556 -642.148352 
z
"/>
    </defs>
    <g clip-path="url(#p53dfa8efca)">
     <use xlink:href="#md99ca5237e" x="0" y="695.276" style="fill: #e7298a"/>
    </g>
   </g>
   <g id="PolyCollection_46">
    <defs>
     <path id="m3e195f7157" d="M 53.31 -643.542976 
L 53.31 -643.239904 
L 108.421111 -643.239904 
L 108.421111 -642.148352 
L 163.532222 -642.148352 
L 163.532222 -642.811168 
L 218.643333 -642.811168 
L 218.643333 -643.432096 
L 273.754444 -643.432096 
L 273.754444 -643.722848 
L 273.754444 -643.722848 
L 218.643333 -643.722848 
L 218.643333 -643.07728 
L 163.532222 -643.07728 
L 163.532222 -642.589408 
L 108.421111 -642.589408 
L 108.421111 -643.542976 
L 53.31 -643.542976 
z
"/>
    </defs>
    <g clip-path="url(#p53dfa8efca)">
     <use xlink:href="#m3e195f7157" x="0" y="695.276" style="fill: #e7298a"/>
    </g>
   </g>
   <g id="PolyCollection_47">
    <defs>
     <path id="mf669620cb0" d="M 279.265556 -642.816096 
L 279.265556 -642.148352 
L 334.376667 -642.148352 
L 334.376667 -642.300812 
L 389.487778 -642.300812 
L 389.487778 -640.729088 
L 444.598889 -640.729088 
L 444.598889 -641.682656 
L 499.71 -641.682656 
L 499.71 -642.120632 
L 499.71 -642.120632 
L 444.598889 -642.120632 
L 444.598889 -640.990272 
L 389.487778 -640.990272 
L 389.487778 -642.871844 
L 334.376667 -642.871844 
L 334.376667 -642.816096 
L 279.265556 -642.816096 
z
"/>
    </defs>
    <g clip-path="url(#p53dfa8efca)">
     <use xlink:href="#mf669620cb0" x="0" y="695.276" style="fill: #fbb4ae"/>
    </g>
   </g>
   <g id="PolyCollection_48">
    <defs>
     <path id="mf24330ae7a" d="M 53.31 -643.848512 
L 53.31 -643.542976 
L 108.421111 -643.542976 
L 108.421111 -642.589408 
L 163.532222 -642.589408 
L 163.532222 -643.07728 
L 218.643333 -643.07728 
L 218.643333 -643.722848 
L 273.754444 -643.722848 
L 273.754444 -643.84112 
L 273.754444 -643.84112 
L 218.643333 -643.84112 
L 218.643333 -643.242368 
L 163.532222 -643.242368 
L 163.532222 -643.129024 
L 108.421111 -643.129024 
L 108.421111 -643.848512 
L 53.31 -643.848512 
z
"/>
    </defs>
    <g clip-path="url(#p53dfa8efca)">
     <use xlink:href="#mf24330ae7a" x="0" y="695.276" style="fill: #fbb4ae"/>
    </g>
   </g>
   <g id="PolyCollection_49">
    <defs>
     <path id="ma1a327e810" d="M 279.265556 -643.156128 
L 279.265556 -642.816096 
L 334.376667 -642.816096 
L 334.376667 -642.871844 
L 389.487778 -642.871844 
L 389.487778 -640.990272 
L 444.598889 -640.990272 
L 444.598889 -642.120632 
L 499.71 -642.120632 
L 499.71 -642.541976 
L 499.71 -642.541976 
L 444.598889 -642.541976 
L 444.598889 -641.458432 
L 389.487778 -641.458432 
L 389.487778 -643.312592 
L 334.376667 -643.312592 
L 334.376667 -643.156128 
L 279.265556 -643.156128 
z
"/>
    </defs>
    <g clip-path="url(#p53dfa8efca)">
     <use xlink:href="#ma1a327e810" x="0" y="695.276" style="fill: #b3cde3"/>
    </g>
   </g>
   <g id="PolyCollection_50">
    <defs>
     <path id="m642b73edea" d="M 53.31 -643.974176 
L 53.31 -643.848512 
L 108.421111 -643.848512 
L 108.421111 -643.129024 
L 163.532222 -643.129024 
L 163.532222 -643.242368 
L 218.643333 -643.242368 
L 218.643333 -643.84112 
L 273.754444 -643.84112 
L 273.754444 -644.003744 
L 273.754444 -644.003744 
L 218.643333 -644.003744 
L 218.643333 -643.550368 
L 163.532222 -643.550368 
L 163.532222 -643.685888 
L 108.421111 -643.685888 
L 108.421111 -643.974176 
L 53.31 -643.974176 
z
"/>
    </defs>
    <g clip-path="url(#p53dfa8efca)">
     <use xlink:href="#m642b73edea" x="0" y="695.276" style="fill: #b3cde3"/>
    </g>
   </g>
   <g id="PolyCollection_51">
    <defs>
     <path id="m5954a85290" d="M 279.265556 -643.365568 
L 279.265556 -643.156128 
L 334.376667 -643.156128 
L 334.376667 -643.312592 
L 389.487778 -643.312592 
L 389.487778 -641.458432 
L 444.598889 -641.458432 
L 444.598889 -642.541976 
L 499.71 -642.541976 
L 499.71 -643.093604 
L 499.71 -643.093604 
L 444.598889 -643.093604 
L 444.598889 -641.88224 
L 389.487778 -641.88224 
L 389.487778 -643.473368 
L 334.376667 -643.473368 
L 334.376667 -643.365568 
L 279.265556 -643.365568 
z
"/>
    </defs>
    <g clip-path="url(#p53dfa8efca)">
     <use xlink:href="#m5954a85290" x="0" y="695.276" style="fill: #ccebc5"/>
    </g>
   </g>
   <g id="PolyCollection_52">
    <defs>
     <path id="m96457998b5" d="M 53.31 -644.119552 
L 53.31 -643.974176 
L 108.421111 -643.974176 
L 108.421111 -643.685888 
L 163.532222 -643.685888 
L 163.532222 -643.550368 
L 218.643333 -643.550368 
L 218.643333 -644.003744 
L 273.754444 -644.003744 
L 273.754444 -644.287104 
L 273.754444 -644.287104 
L 218.643333 -644.287104 
L 218.643333 -643.969248 
L 163.532222 -643.969248 
L 163.532222 -643.966784 
L 108.421111 -643.966784 
L 108.421111 -644.119552 
L 53.31 -644.119552 
z
"/>
    </defs>
    <g clip-path="url(#p53dfa8efca)">
     <use xlink:href="#m96457998b5" x="0" y="695.276" style="fill: #ccebc5"/>
    </g>
   </g>
   <g id="PolyCollection_53">
    <defs>
     <path id="m53088faa93" d="M 279.265556 -643.365568 
L 279.265556 -643.365568 
L 334.376667 -643.365568 
L 334.376667 -643.473368 
L 389.487778 -643.473368 
L 389.487778 -641.88224 
L 444.598889 -641.88224 
L 444.598889 -643.093604 
L 499.71 -643.093604 
L 499.71 -643.6286 
L 499.71 -643.6286 
L 444.598889 -643.6286 
L 444.598889 -643.220192 
L 389.487778 -643.220192 
L 389.487778 -643.473368 
L 334.376667 -643.473368 
L 334.376667 -643.365568 
L 279.265556 -643.365568 
z
"/>
    </defs>
    <g clip-path="url(#p53dfa8efca)">
     <use xlink:href="#m53088faa93" x="0" y="695.276" style="fill: #decbe4"/>
    </g>
   </g>
   <g id="PolyCollection_54">
    <defs>
     <path id="m772c825188" d="M 53.31 -644.119552 
L 53.31 -644.119552 
L 108.421111 -644.119552 
L 108.421111 -643.966784 
L 163.532222 -643.966784 
L 163.532222 -643.969248 
L 218.643333 -643.969248 
L 218.643333 -644.287104 
L 273.754444 -644.287104 
L 273.754444 -644.311744 
L 273.754444 -644.311744 
L 218.643333 -644.311744 
L 218.643333 -644.341312 
L 163.532222 -644.341312 
L 163.532222 -643.966784 
L 108.421111 -643.966784 
L 108.421111 -644.119552 
L 53.31 -644.119552 
z
"/>
    </defs>
    <g clip-path="url(#p53dfa8efca)">
     <use xlink:href="#m772c825188" x="0" y="695.276" style="fill: #decbe4"/>
    </g>
   </g>
   <g id="PolyCollection_55">
    <defs>
     <path id="m157256b1b7" d="M 279.265556 -643.671104 
L 279.265556 -643.365568 
L 334.376667 -643.365568 
L 334.376667 -643.473368 
L 389.487778 -643.473368 
L 389.487778 -643.220192 
L 444.598889 -643.220192 
L 444.598889 -643.6286 
L 499.71 -643.6286 
L 499.71 -643.916888 
L 499.71 -643.916888 
L 444.598889 -643.916888 
L 444.598889 -643.40992 
L 389.487778 -643.40992 
L 389.487778 -643.789376 
L 334.376667 -643.789376 
L 334.376667 -643.671104 
L 279.265556 -643.671104 
z
"/>
    </defs>
    <g clip-path="url(#p53dfa8efca)">
     <use xlink:href="#m157256b1b7" x="0" y="695.276" style="fill: #fed9a6"/>
    </g>
   </g>
   <g id="PolyCollection_56">
    <defs>
     <path id="m619ca92c1b" d="M 53.31 -644.316672 
L 53.31 -644.119552 
L 108.421111 -644.119552 
L 108.421111 -643.966784 
L 163.532222 -643.966784 
L 163.532222 -644.341312 
L 218.643333 -644.341312 
L 218.643333 -644.311744 
L 273.754444 -644.311744 
L 273.754444 -644.39552 
L 273.754444 -644.39552 
L 218.643333 -644.39552 
L 218.643333 -644.397984 
L 163.532222 -644.397984 
L 163.532222 -644.163904 
L 108.421111 -644.163904 
L 108.421111 -644.316672 
L 53.31 -644.316672 
z
"/>
    </defs>
    <g clip-path="url(#p53dfa8efca)">
     <use xlink:href="#m619ca92c1b" x="0" y="695.276" style="fill: #fed9a6"/>
    </g>
   </g>
   <g id="PolyCollection_57">
    <defs>
     <path id="m136d2ea045" d="M 279.265556 -643.942144 
L 279.265556 -643.671104 
L 334.376667 -643.671104 
L 334.376667 -643.789376 
L 389.487778 -643.789376 
L 389.487778 -643.40992 
L 444.598889 -643.40992 
L 444.598889 -643.916888 
L 499.71 -643.916888 
L 499.71 -644.05826 
L 499.71 -644.05826 
L 444.598889 -644.05826 
L 444.598889 -643.907648 
L 389.487778 -643.907648 
L 389.487778 -643.958468 
L 334.376667 -643.958468 
L 334.376667 -643.942144 
L 279.265556 -643.942144 
z
"/>
    </defs>
    <g clip-path="url(#p53dfa8efca)">
     <use xlink:href="#m136d2ea045" x="0" y="695.276" style="fill: #ffffcc"/>
    </g>
   </g>
   <g id="PolyCollection_58">
    <defs>
     <path id="m81b064cfbc" d="M 53.31 -644.402912 
L 53.31 -644.316672 
L 108.421111 -644.316672 
L 108.421111 -644.163904 
L 163.532222 -644.163904 
L 163.532222 -644.397984 
L 218.643333 -644.397984 
L 218.643333 -644.39552 
L 273.754444 -644.39552 
L 273.754444 -644.508864 
L 273.754444 -644.508864 
L 218.643333 -644.508864 
L 218.643333 -644.425088 
L 163.532222 -644.425088 
L 163.532222 -644.213184 
L 108.421111 -644.213184 
L 108.421111 -644.402912 
L 53.31 -644.402912 
z
"/>
    </defs>
    <g clip-path="url(#p53dfa8efca)">
     <use xlink:href="#m81b064cfbc" x="0" y="695.276" style="fill: #ffffcc"/>
    </g>
   </g>
   <g id="PolyCollection_59">
    <defs>
     <path id="m7fa5e3f835" d="M 279.265556 -644.053024 
L 279.265556 -643.942144 
L 334.376667 -643.942144 
L 334.376667 -643.958468 
L 389.487778 -643.958468 
L 389.487778 -643.907648 
L 444.598889 -643.907648 
L 444.598889 -644.05826 
L 499.71 -644.05826 
L 499.71 -644.249528 
L 499.71 -644.249528 
L 444.598889 -644.249528 
L 444.598889 -644.23536 
L 389.487778 -644.23536 
L 389.487778 -644.077664 
L 334.376667 -644.077664 
L 334.376667 -644.053024 
L 279.265556 -644.053024 
z
"/>
    </defs>
    <g clip-path="url(#p53dfa8efca)">
     <use xlink:href="#m7fa5e3f835" x="0" y="695.276" style="fill: #e5d8bd"/>
    </g>
   </g>
   <g id="PolyCollection_60">
    <defs>
     <path id="mb413334c87" d="M 53.31 -644.48176 
L 53.31 -644.402912 
L 108.421111 -644.402912 
L 108.421111 -644.213184 
L 163.532222 -644.213184 
L 163.532222 -644.425088 
L 218.643333 -644.425088 
L 218.643333 -644.508864 
L 273.754444 -644.508864 
L 273.754444 -644.636992 
L 273.754444 -644.636992 
L 218.643333 -644.636992 
L 218.643333 -644.540896 
L 163.532222 -644.540896 
L 163.532222 -644.348704 
L 108.421111 -644.348704 
L 108.421111 -644.48176 
L 53.31 -644.48176 
z
"/>
    </defs>
    <g clip-path="url(#p53dfa8efca)">
     <use xlink:href="#mb413334c87" x="0" y="695.276" style="fill: #e5d8bd"/>
    </g>
   </g>
   <g id="PolyCollection_61">
    <defs>
     <path id="md5ce152025" d="M 279.265556 -644.262464 
L 279.265556 -644.053024 
L 334.376667 -644.053024 
L 334.376667 -644.077664 
L 389.487778 -644.077664 
L 389.487778 -644.23536 
L 444.598889 -644.23536 
L 444.598889 -644.249528 
L 499.71 -644.249528 
L 499.71 -644.40476 
L 499.71 -644.40476 
L 444.598889 -644.40476 
L 444.598889 -644.397984 
L 389.487778 -644.397984 
L 389.487778 -644.271704 
L 334.376667 -644.271704 
L 334.376667 -644.262464 
L 279.265556 -644.262464 
z
"/>
    </defs>
    <g clip-path="url(#p53dfa8efca)">
     <use xlink:href="#md5ce152025" x="0" y="695.276" style="fill: #fddaec"/>
    </g>
   </g>
   <g id="PolyCollection_62">
    <defs>
     <path id="m99fb4e7154" d="M 53.31 -644.582784 
L 53.31 -644.48176 
L 108.421111 -644.48176 
L 108.421111 -644.348704 
L 163.532222 -644.348704 
L 163.532222 -644.540896 
L 218.643333 -644.540896 
L 218.643333 -644.636992 
L 273.754444 -644.636992 
L 273.754444 -644.720768 
L 273.754444 -644.720768 
L 218.643333 -644.720768 
L 218.643333 -644.659168 
L 163.532222 -644.659168 
L 163.532222 -644.45712 
L 108.421111 -644.45712 
L 108.421111 -644.582784 
L 53.31 -644.582784 
z
"/>
    </defs>
    <g clip-path="url(#p53dfa8efca)">
     <use xlink:href="#m99fb4e7154" x="0" y="695.276" style="fill: #fddaec"/>
    </g>
   </g>
   <g id="PolyCollection_63">
    <defs>
     <path id="m564ccfba74" d="M 279.265556 -644.390592 
L 279.265556 -644.262464 
L 334.376667 -644.262464 
L 334.376667 -644.271704 
L 389.487778 -644.271704 
L 389.487778 -644.397984 
L 444.598889 -644.397984 
L 444.598889 -644.40476 
L 499.71 -644.40476 
L 499.71 -644.620976 
L 499.71 -644.620976 
L 444.598889 -644.620976 
L 444.598889 -644.6296 
L 389.487778 -644.6296 
L 389.487778 -644.329916 
L 334.376667 -644.329916 
L 334.376667 -644.390592 
L 279.265556 -644.390592 
z
"/>
    </defs>
    <g clip-path="url(#p53dfa8efca)">
     <use xlink:href="#m564ccfba74" x="0" y="695.276" style="fill: #f2f2f2"/>
    </g>
   </g>
   <g id="PolyCollection_64">
    <defs>
     <path id="mafbd3eac1b" d="M 53.31 -644.664096 
L 53.31 -644.582784 
L 108.421111 -644.582784 
L 108.421111 -644.45712 
L 163.532222 -644.45712 
L 163.532222 -644.659168 
L 218.643333 -644.659168 
L 218.643333 -644.720768 
L 273.754444 -644.720768 
L 273.754444 -644.770048 
L 273.754444 -644.770048 
L 218.643333 -644.770048 
L 218.643333 -644.713376 
L 163.532222 -644.713376 
L 163.532222 -644.587712 
L 108.421111 -644.587712 
L 108.421111 -644.664096 
L 53.31 -644.664096 
z
"/>
    </defs>
    <g clip-path="url(#p53dfa8efca)">
     <use xlink:href="#mafbd3eac1b" x="0" y="695.276" style="fill: #f2f2f2"/>
    </g>
   </g>
   <g id="PolyCollection_65">
    <defs>
     <path id="m356aee9d20" d="M 279.265556 -644.46944 
L 279.265556 -644.390592 
L 334.376667 -644.390592 
L 334.376667 -644.329916 
L 389.487778 -644.329916 
L 389.487778 -644.6296 
L 444.598889 -644.6296 
L 444.598889 -644.620976 
L 499.71 -644.620976 
L 499.71 -644.706908 
L 499.71 -644.706908 
L 444.598889 -644.706908 
L 444.598889 -644.747872 
L 389.487778 -644.747872 
L 389.487778 -644.3909 
L 334.376667 -644.3909 
L 334.376667 -644.46944 
L 279.265556 -644.46944 
z
"/>
    </defs>
    <g clip-path="url(#p53dfa8efca)">
     <use xlink:href="#m356aee9d20" x="0" y="695.276" style="fill: #fbb4ae"/>
    </g>
   </g>
   <g id="PolyCollection_66">
    <defs>
     <path id="m2cfe4d82e7" d="M 53.31 -644.70352 
L 53.31 -644.664096 
L 108.421111 -644.664096 
L 108.421111 -644.587712 
L 163.532222 -644.587712 
L 163.532222 -644.713376 
L 218.643333 -644.713376 
L 218.643333 -644.770048 
L 273.754444 -644.770048 
L 273.754444 -644.797152 
L 273.754444 -644.797152 
L 218.643333 -644.797152 
L 218.643333 -644.76512 
L 163.532222 -644.76512 
L 163.532222 -644.64192 
L 108.421111 -644.64192 
L 108.421111 -644.70352 
L 53.31 -644.70352 
z
"/>
    </defs>
    <g clip-path="url(#p53dfa8efca)">
     <use xlink:href="#m2cfe4d82e7" x="0" y="695.276" style="fill: #fbb4ae"/>
    </g>
   </g>
   <g id="PolyCollection_67">
    <defs>
     <path id="mc8b0739582" d="M 279.265556 -644.61728 
L 279.265556 -644.46944 
L 334.376667 -644.46944 
L 334.376667 -644.3909 
L 389.487778 -644.3909 
L 389.487778 -644.747872 
L 444.598889 -644.747872 
L 444.598889 -644.706908 
L 499.71 -644.706908 
L 499.71 -644.729084 
L 499.71 -644.729084 
L 444.598889 -644.729084 
L 444.598889 -644.747872 
L 389.487778 -644.747872 
L 389.487778 -644.476832 
L 334.376667 -644.476832 
L 334.376667 -644.61728 
L 279.265556 -644.61728 
z
"/>
    </defs>
    <g clip-path="url(#p53dfa8efca)">
     <use xlink:href="#mc8b0739582" x="0" y="695.276" style="fill: #b3cde3"/>
    </g>
   </g>
   <g id="PolyCollection_68">
    <defs>
     <path id="m3c97cb7e14" d="M 53.31 -644.767584 
L 53.31 -644.70352 
L 108.421111 -644.70352 
L 108.421111 -644.64192 
L 163.532222 -644.64192 
L 163.532222 -644.76512 
L 218.643333 -644.76512 
L 218.643333 -644.797152 
L 273.754444 -644.797152 
L 273.754444 -644.80208 
L 273.754444 -644.80208 
L 218.643333 -644.80208 
L 218.643333 -644.779904 
L 163.532222 -644.779904 
L 163.532222 -644.762656 
L 108.421111 -644.762656 
L 108.421111 -644.767584 
L 53.31 -644.767584 
z
"/>
    </defs>
    <g clip-path="url(#p53dfa8efca)">
     <use xlink:href="#m3c97cb7e14" x="0" y="695.276" style="fill: #b3cde3"/>
    </g>
   </g>
   <g id="PolyCollection_69">
    <defs>
     <path id="m237edf7d49" d="M 279.265556 -644.71584 
L 279.265556 -644.61728 
L 334.376667 -644.61728 
L 334.376667 -644.476832 
L 389.487778 -644.476832 
L 389.487778 -644.747872 
L 444.598889 -644.747872 
L 444.598889 -644.729084 
L 499.71 -644.729084 
L 499.71 -644.740172 
L 499.71 -644.740172 
L 444.598889 -644.740172 
L 444.598889 -644.762656 
L 389.487778 -644.762656 
L 389.487778 -644.704136 
L 334.376667 -644.704136 
L 334.376667 -644.71584 
L 279.265556 -644.71584 
z
"/>
    </defs>
    <g clip-path="url(#p53dfa8efca)">
     <use xlink:href="#m237edf7d49" x="0" y="695.276" style="fill: #ccebc5"/>
    </g>
   </g>
   <g id="PolyCollection_70">
    <defs>
     <path id="mdc07531531" d="M 53.31 -644.816864 
L 53.31 -644.767584 
L 108.421111 -644.767584 
L 108.421111 -644.762656 
L 163.532222 -644.762656 
L 163.532222 -644.779904 
L 218.643333 -644.779904 
L 218.643333 -644.80208 
L 273.754444 -644.80208 
L 273.754444 -644.8144 
L 273.754444 -644.8144 
L 218.643333 -644.8144 
L 218.643333 -644.78976 
L 163.532222 -644.78976 
L 163.532222 -644.77744 
L 108.421111 -644.77744 
L 108.421111 -644.816864 
L 53.31 -644.816864 
z
"/>
    </defs>
    <g clip-path="url(#p53dfa8efca)">
     <use xlink:href="#mdc07531531" x="0" y="695.276" style="fill: #ccebc5"/>
    </g>
   </g>
   <g id="PolyCollection_71">
    <defs>
     <path id="me7a09a95fd" d="M 279.265556 -644.762656 
L 279.265556 -644.71584 
L 334.376667 -644.71584 
L 334.376667 -644.704136 
L 389.487778 -644.704136 
L 389.487778 -644.762656 
L 444.598889 -644.762656 
L 444.598889 -644.740172 
L 499.71 -644.740172 
L 499.71 -644.79284 
L 499.71 -644.79284 
L 444.598889 -644.79284 
L 444.598889 -644.792224 
L 389.487778 -644.792224 
L 389.487778 -644.76512 
L 334.376667 -644.76512 
L 334.376667 -644.762656 
L 279.265556 -644.762656 
z
"/>
    </defs>
    <g clip-path="url(#p53dfa8efca)">
     <use xlink:href="#me7a09a95fd" x="0" y="695.276" style="fill: #a6cee3"/>
    </g>
   </g>
   <g id="PolyCollection_72">
    <defs>
     <path id="mfbd01bb88a" d="M 53.31 -644.834112 
L 53.31 -644.816864 
L 108.421111 -644.816864 
L 108.421111 -644.77744 
L 163.532222 -644.77744 
L 163.532222 -644.78976 
L 218.643333 -644.78976 
L 218.643333 -644.8144 
L 273.754444 -644.8144 
L 273.754444 -644.856288 
L 273.754444 -644.856288 
L 218.643333 -644.856288 
L 218.643333 -644.848896 
L 163.532222 -644.848896 
L 163.532222 -644.861216 
L 108.421111 -644.861216 
L 108.421111 -644.834112 
L 53.31 -644.834112 
z
"/>
    </defs>
    <g clip-path="url(#p53dfa8efca)">
     <use xlink:href="#mfbd01bb88a" x="0" y="695.276" style="fill: #a6cee3"/>
    </g>
   </g>
   <g id="PolyCollection_73">
    <defs>
     <path id="mcaba055d56" d="M 279.265556 -644.797152 
L 279.265556 -644.762656 
L 334.376667 -644.762656 
L 334.376667 -644.76512 
L 389.487778 -644.76512 
L 389.487778 -644.792224 
L 444.598889 -644.792224 
L 444.598889 -644.79284 
L 499.71 -644.79284 
L 499.71 -644.815016 
L 499.71 -644.815016 
L 444.598889 -644.815016 
L 444.598889 -644.811936 
L 389.487778 -644.811936 
L 389.487778 -644.817788 
L 334.376667 -644.817788 
L 334.376667 -644.797152 
L 279.265556 -644.797152 
z
"/>
    </defs>
    <g clip-path="url(#p53dfa8efca)">
     <use xlink:href="#mcaba055d56" x="0" y="695.276" style="fill: #1f78b4"/>
    </g>
   </g>
   <g id="PolyCollection_74">
    <defs>
     <path id="mec07b9c3dc" d="M 53.31 -644.843968 
L 53.31 -644.834112 
L 108.421111 -644.834112 
L 108.421111 -644.861216 
L 163.532222 -644.861216 
L 163.532222 -644.848896 
L 218.643333 -644.848896 
L 218.643333 -644.856288 
L 273.754444 -644.856288 
L 273.754444 -644.861216 
L 273.754444 -644.861216 
L 218.643333 -644.861216 
L 218.643333 -644.856288 
L 163.532222 -644.856288 
L 163.532222 -644.86368 
L 108.421111 -644.86368 
L 108.421111 -644.843968 
L 53.31 -644.843968 
z
"/>
    </defs>
    <g clip-path="url(#p53dfa8efca)">
     <use xlink:href="#mec07b9c3dc" x="0" y="695.276" style="fill: #1f78b4"/>
    </g>
   </g>
   <g id="PolyCollection_75">
    <defs>
     <path id="m63475209a6" d="M 279.265556 -644.876 
L 279.265556 -644.797152 
L 334.376667 -644.797152 
L 334.376667 -644.817788 
L 389.487778 -644.817788 
L 389.487778 -644.811936 
L 444.598889 -644.811936 
L 444.598889 -644.815016 
L 499.71 -644.815016 
L 499.71 -644.876 
L 499.71 -644.876 
L 444.598889 -644.876 
L 444.598889 -644.876 
L 389.487778 -644.876 
L 389.487778 -644.876 
L 334.376667 -644.876 
L 334.376667 -644.876 
L 279.265556 -644.876 
z
"/>
    </defs>
    <g clip-path="url(#p53dfa8efca)">
     <use xlink:href="#m63475209a6" x="0" y="695.276" style="fill: #ffffff"/>
    </g>
   </g>
   <g id="PolyCollection_76">
    <defs>
     <path id="m180381d4b5" d="M 53.31 -644.876 
L 53.31 -644.843968 
L 108.421111 -644.843968 
L 108.421111 -644.86368 
L 163.532222 -644.86368 
L 163.532222 -644.856288 
L 218.643333 -644.856288 
L 218.643333 -644.861216 
L 273.754444 -644.861216 
L 273.754444 -644.876 
L 273.754444 -644.876 
L 218.643333 -644.876 
L 218.643333 -644.876 
L 163.532222 -644.876 
L 163.532222 -644.876 
L 108.421111 -644.876 
L 108.421111 -644.876 
L 53.31 -644.876 
z
"/>
    </defs>
    <g clip-path="url(#p53dfa8efca)">
     <use xlink:href="#m180381d4b5" x="0" y="695.276" style="fill: #ffffff"/>
    </g>
   </g>
   <g id="patch_3">
    <path d="M 279.265556 383.04 
L 499.71 383.04 
L 499.71 50.4 
L 279.265556 50.4 
L 279.265556 383.04 
z
" clip-path="url(#p53dfa8efca)" style="fill: none; stroke: #808080; stroke-linejoin: miter"/>
   </g>
   <g id="patch_4">
    <path d="M 53.31 383.04 
L 273.754444 383.04 
L 273.754444 50.4 
L 53.31 50.4 
L 53.31 383.04 
z
" clip-path="url(#p53dfa8efca)" style="fill: none; stroke: #808080; stroke-linejoin: miter"/>
   </g>
   <g id="line2d_23">
    <path d="M 444.598889 383.04 
L 444.598889 50.4 
" clip-path="url(#p53dfa8efca)" style="fill: none; stroke: #ffffff; stroke-linecap: round"/>
   </g>
   <g id="line2d_24">
    <path d="M 334.376667 383.04 
L 334.376667 50.4 
" clip-path="url(#p53dfa8efca)" style="fill: none; stroke: #ffffff; stroke-linecap: round"/>
   </g>
   <g id="line2d_25">
    <path d="M 218.643333 383.04 
L 218.643333 50.4 
" clip-path="url(#p53dfa8efca)" style="fill: none; stroke: #ffffff; stroke-linecap: round"/>
   </g>
   <g id="line2d_26">
    <path d="M 108.421111 383.04 
L 108.421111 50.4 
" clip-path="url(#p53dfa8efca)" style="fill: none; stroke: #ffffff; stroke-linecap: round"/>
   </g>
   <g id="patch_5">
    <path d="M 53.31 383.04 
L 53.31 50.4 
" style="fill: none; stroke: #ffffff; stroke-width: 1.25; stroke-linejoin: miter; stroke-linecap: square"/>
   </g>
   <g id="patch_6">
    <path d="M 499.71 383.04 
L 499.71 50.4 
" style="fill: none; stroke: #ffffff; stroke-width: 1.25; stroke-linejoin: miter; stroke-linecap: square"/>
   </g>
   <g id="patch_7">
    <path d="M 53.31 383.04 
L 499.71 383.04 
" style="fill: none; stroke: #ffffff; stroke-width: 1.25; stroke-linejoin: miter; stroke-linecap: square"/>
   </g>
   <g id="patch_8">
    <path d="M 53.31 50.4 
L 499.71 50.4 
" style="fill: none; stroke: #ffffff; stroke-width: 1.25; stroke-linejoin: miter; stroke-linecap: square"/>
   </g>
   <g id="legend_1">
    <g id="patch_9">
     <path d="M 511.874 688.076 
L 722.649469 688.076 
Q 724.849469 688.076 724.849469 685.876 
L 724.849469 41.468 
Q 724.849469 39.268 722.649469 39.268 
L 511.874 39.268 
Q 509.674 39.268 509.674 41.468 
L 509.674 685.876 
Q 509.674 688.076 511.874 688.076 
z
" style="fill: #eaeaf2; opacity: 0.8; stroke: #cccccc; stroke-linejoin: miter"/>
    </g>
    <g id="text_16">
     <text style="fill: #262626; font: 700 12px 'sans-serif'" transform="translate(547.483609 52.786125)">Aggregrated "mean"</text>
     <text style="fill: #262626; font: 700 12px 'sans-serif'" transform="translate(547.483609 66.31725)">Rank: Family</text>
    </g>
    <g id="patch_10">
     <path d="M 514.074 82.764906 
L 536.074 82.764906 
L 536.074 75.064906 
L 514.074 75.064906 
z
" style="fill: #1f78b4; stroke: #1f78b4; stroke-linejoin: miter"/>
    </g>
    <g id="text_17">
     <text style="fill: #262626; font: 11px 'sans-serif'; text-anchor: start" x="544.874" y="82.764906" transform="rotate(-0, 544.874, 82.764906)">Muribaculaceae</text>
    </g>
    <g id="patch_11">
     <path d="M 514.074 98.910844 
L 536.074 98.910844 
L 536.074 91.210844 
L 514.074 91.210844 
z
" style="fill: #b2df8a; stroke: #b2df8a; stroke-linejoin: miter"/>
    </g>
    <g id="text_18">
     <text style="fill: #262626; font: 11px 'sans-serif'; text-anchor: start" x="544.874" y="98.910844" transform="rotate(-0, 544.874, 98.910844)">Lachnospiraceae</text>
    </g>
    <g id="patch_12">
     <path d="M 514.074 115.056781 
L 536.074 115.056781 
L 536.074 107.356781 
L 514.074 107.356781 
z
" style="fill: #33a02c; stroke: #33a02c; stroke-linejoin: miter"/>
    </g>
    <g id="text_19">
     <text style="fill: #262626; font: 11px 'sans-serif'; text-anchor: start" x="544.874" y="115.056781" transform="rotate(-0, 544.874, 115.056781)">Erysipelotrichaceae</text>
    </g>
    <g id="patch_13">
     <path d="M 514.074 131.202719 
L 536.074 131.202719 
L 536.074 123.502719 
L 514.074 123.502719 
z
" style="fill: #fb9a99; stroke: #fb9a99; stroke-linejoin: miter"/>
    </g>
    <g id="text_20">
     <text style="fill: #262626; font: 11px 'sans-serif'; text-anchor: start" x="544.874" y="131.202719" transform="rotate(-0, 544.874, 131.202719)">Bacteroidaceae</text>
    </g>
    <g id="patch_14">
     <path d="M 514.074 147.348656 
L 536.074 147.348656 
L 536.074 139.648656 
L 514.074 139.648656 
z
" style="fill: #e31a1c; stroke: #e31a1c; stroke-linejoin: miter"/>
    </g>
    <g id="text_21">
     <text style="fill: #262626; font: 11px 'sans-serif'; text-anchor: start" x="544.874" y="147.348656" transform="rotate(-0, 544.874, 147.348656)">Lactobacillaceae</text>
    </g>
    <g id="patch_15">
     <path d="M 514.074 163.494594 
L 536.074 163.494594 
L 536.074 155.794594 
L 514.074 155.794594 
z
" style="fill: #fdbf6f; stroke: #fdbf6f; stroke-linejoin: miter"/>
    </g>
    <g id="text_22">
     <text style="fill: #262626; font: 11px 'sans-serif'; text-anchor: start" x="544.874" y="163.494594" transform="rotate(-0, 544.874, 163.494594)">Oscillospiraceae_88309</text>
    </g>
    <g id="patch_16">
     <path d="M 514.074 179.946469 
L 536.074 179.946469 
L 536.074 172.246469 
L 514.074 172.246469 
z
" style="fill: #ff7f00; stroke: #ff7f00; stroke-linejoin: miter"/>
    </g>
    <g id="text_23">
     <text style="fill: #262626; font: 11px 'sans-serif'; text-anchor: start" x="544.874" y="179.946469" transform="rotate(-0, 544.874, 179.946469)">Akkermansiaceae</text>
    </g>
    <g id="patch_17">
     <path d="M 514.074 196.092406 
L 536.074 196.092406 
L 536.074 188.392406 
L 514.074 188.392406 
z
" style="fill: #cab2d6; stroke: #cab2d6; stroke-linejoin: miter"/>
    </g>
    <g id="text_24">
     <text style="fill: #262626; font: 11px 'sans-serif'; text-anchor: start" x="544.874" y="196.092406" transform="rotate(-0, 544.874, 196.092406)">unclassified family</text>
    </g>
    <g id="patch_18">
     <path d="M 514.074 212.238344 
L 536.074 212.238344 
L 536.074 204.538344 
L 514.074 204.538344 
z
" style="fill: #6a3d9a; stroke: #6a3d9a; stroke-linejoin: miter"/>
    </g>
    <g id="text_25">
     <text style="fill: #262626; font: 11px 'sans-serif'; text-anchor: start" x="544.874" y="212.238344" transform="rotate(-0, 544.874, 212.238344)">Rikenellaceae</text>
    </g>
    <g id="patch_19">
     <path d="M 514.074 228.384281 
L 536.074 228.384281 
L 536.074 220.684281 
L 514.074 220.684281 
z
" style="fill: #ffff99; stroke: #ffff99; stroke-linejoin: miter"/>
    </g>
    <g id="text_26">
     <text style="fill: #262626; font: 11px 'sans-serif'; text-anchor: start" x="544.874" y="228.384281" transform="rotate(-0, 544.874, 228.384281)">Ruminococcaceae</text>
    </g>
    <g id="patch_20">
     <path d="M 514.074 244.530219 
L 536.074 244.530219 
L 536.074 236.830219 
L 514.074 236.830219 
z
" style="fill: #b15928; stroke: #b15928; stroke-linejoin: miter"/>
    </g>
    <g id="text_27">
     <text style="fill: #262626; font: 11px 'sans-serif'; text-anchor: start" x="544.874" y="244.530219" transform="rotate(-0, 544.874, 244.530219)">CAG-508</text>
    </g>
    <g id="patch_21">
     <path d="M 514.074 260.676156 
L 536.074 260.676156 
L 536.074 252.976156 
L 514.074 252.976156 
z
" style="fill: #1b9e77; stroke: #1b9e77; stroke-linejoin: miter"/>
    </g>
    <g id="text_28">
     <text style="fill: #262626; font: 11px 'sans-serif'; text-anchor: start" x="544.874" y="260.676156" transform="rotate(-0, 544.874, 260.676156)">Clostridiaceae_222000</text>
    </g>
    <g id="patch_22">
     <path d="M 514.074 277.128031 
L 536.074 277.128031 
L 536.074 269.428031 
L 514.074 269.428031 
z
" style="fill: #d95f02; stroke: #d95f02; stroke-linejoin: miter"/>
    </g>
    <g id="text_29">
     <text style="fill: #262626; font: 11px 'sans-serif'; text-anchor: start" x="544.874" y="277.128031" transform="rotate(-0, 544.874, 277.128031)">Turicibacteraceae</text>
    </g>
    <g id="patch_23">
     <path d="M 514.074 293.273969 
L 536.074 293.273969 
L 536.074 285.573969 
L 514.074 285.573969 
z
" style="fill: #7570b3; stroke: #7570b3; stroke-linejoin: miter"/>
    </g>
    <g id="text_30">
     <text style="fill: #262626; font: 11px 'sans-serif'; text-anchor: start" x="544.874" y="293.273969" transform="rotate(-0, 544.874, 293.273969)">Desulfovibrionaceae</text>
    </g>
    <g id="patch_24">
     <path d="M 514.074 309.419906 
L 536.074 309.419906 
L 536.074 301.719906 
L 514.074 301.719906 
z
" style="fill: #e7298a; stroke: #e7298a; stroke-linejoin: miter"/>
    </g>
    <g id="text_31">
     <text style="fill: #262626; font: 11px 'sans-serif'; text-anchor: start" x="544.874" y="309.419906" transform="rotate(-0, 544.874, 309.419906)">Anaerotignaceae</text>
    </g>
    <g id="patch_25">
     <path d="M 514.074 325.565844 
L 536.074 325.565844 
L 536.074 317.865844 
L 514.074 317.865844 
z
" style="fill: #66a61e; stroke: #66a61e; stroke-linejoin: miter"/>
    </g>
    <g id="text_32">
     <text style="fill: #262626; font: 11px 'sans-serif'; text-anchor: start" x="544.874" y="325.565844" transform="rotate(-0, 544.874, 325.565844)">Acutalibacteraceae</text>
    </g>
    <g id="patch_26">
     <path d="M 514.074 341.711781 
L 536.074 341.711781 
L 536.074 334.011781 
L 514.074 334.011781 
z
" style="fill: #e6ab02; stroke: #e6ab02; stroke-linejoin: miter"/>
    </g>
    <g id="text_33">
     <text style="fill: #262626; font: 11px 'sans-serif'; text-anchor: start" x="544.874" y="341.711781" transform="rotate(-0, 544.874, 341.711781)">Eggerthellaceae</text>
    </g>
    <g id="patch_27">
     <path d="M 514.074 357.857719 
L 536.074 357.857719 
L 536.074 350.157719 
L 514.074 350.157719 
z
" style="fill: #a6761d; stroke: #a6761d; stroke-linejoin: miter"/>
    </g>
    <g id="text_34">
     <text style="fill: #262626; font: 11px 'sans-serif'; text-anchor: start" x="544.874" y="357.857719" transform="rotate(-0, 544.874, 357.857719)">Coprobacillaceae</text>
    </g>
    <g id="patch_28">
     <path d="M 514.074 374.003656 
L 536.074 374.003656 
L 536.074 366.303656 
L 514.074 366.303656 
z
" style="fill: #666666; stroke: #666666; stroke-linejoin: miter"/>
    </g>
    <g id="text_35">
     <text style="fill: #262626; font: 11px 'sans-serif'; text-anchor: start" x="544.874" y="374.003656" transform="rotate(-0, 544.874, 374.003656)">Dehalobacteriaceae</text>
    </g>
    <g id="patch_29">
     <path d="M 514.074 390.149594 
L 536.074 390.149594 
L 536.074 382.449594 
L 514.074 382.449594 
z
" style="fill: #1b9e77; stroke: #1b9e77; stroke-linejoin: miter"/>
    </g>
    <g id="text_36">
     <text style="fill: #262626; font: 11px 'sans-serif'; text-anchor: start" x="544.874" y="390.149594" transform="rotate(-0, 544.874, 390.149594)">Butyricicoccaceae</text>
    </g>
    <g id="patch_30">
     <path d="M 514.074 406.295531 
L 536.074 406.295531 
L 536.074 398.595531 
L 514.074 398.595531 
z
" style="fill: #d95f02; stroke: #d95f02; stroke-linejoin: miter"/>
    </g>
    <g id="text_37">
     <text style="fill: #262626; font: 11px 'sans-serif'; text-anchor: start" x="544.874" y="406.295531" transform="rotate(-0, 544.874, 406.295531)">UBA932</text>
    </g>
    <g id="patch_31">
     <path d="M 514.074 422.441469 
L 536.074 422.441469 
L 536.074 414.741469 
L 514.074 414.741469 
z
" style="fill: #7570b3; stroke: #7570b3; stroke-linejoin: miter"/>
    </g>
    <g id="text_38">
     <text style="fill: #262626; font: 11px 'sans-serif'; text-anchor: start" x="544.874" y="422.441469" transform="rotate(-0, 544.874, 422.441469)">Peptostreptococcaceae_256921</text>
    </g>
    <g id="patch_32">
     <path d="M 514.074 438.893344 
L 536.074 438.893344 
L 536.074 431.193344 
L 514.074 431.193344 
z
" style="fill: #e7298a; stroke: #e7298a; stroke-linejoin: miter"/>
    </g>
    <g id="text_39">
     <text style="fill: #262626; font: 11px 'sans-serif'; text-anchor: start" x="544.874" y="438.893344" transform="rotate(-0, 544.874, 438.893344)">Marinifilaceae</text>
    </g>
    <g id="patch_33">
     <path d="M 514.074 455.039281 
L 536.074 455.039281 
L 536.074 447.339281 
L 514.074 447.339281 
z
" style="fill: #fbb4ae; stroke: #fbb4ae; stroke-linejoin: miter"/>
    </g>
    <g id="text_40">
     <text style="fill: #262626; font: 11px 'sans-serif'; text-anchor: start" x="544.874" y="455.039281" transform="rotate(-0, 544.874, 455.039281)">Gastranaerophilaceae</text>
    </g>
    <g id="patch_34">
     <path d="M 514.074 471.185219 
L 536.074 471.185219 
L 536.074 463.485219 
L 514.074 463.485219 
z
" style="fill: #b3cde3; stroke: #b3cde3; stroke-linejoin: miter"/>
    </g>
    <g id="text_41">
     <text style="fill: #262626; font: 11px 'sans-serif'; text-anchor: start" x="544.874" y="471.185219" transform="rotate(-0, 544.874, 471.185219)">Atopobiaceae</text>
    </g>
    <g id="patch_35">
     <path d="M 514.074 487.331156 
L 536.074 487.331156 
L 536.074 479.631156 
L 514.074 479.631156 
z
" style="fill: #ccebc5; stroke: #ccebc5; stroke-linejoin: miter"/>
    </g>
    <g id="text_42">
     <text style="fill: #262626; font: 11px 'sans-serif'; text-anchor: start" x="544.874" y="487.331156" transform="rotate(-0, 544.874, 487.331156)">Burkholderiaceae_A_595427</text>
    </g>
    <g id="patch_36">
     <path d="M 514.074 503.783031 
L 536.074 503.783031 
L 536.074 496.083031 
L 514.074 496.083031 
z
" style="fill: #decbe4; stroke: #decbe4; stroke-linejoin: miter"/>
    </g>
    <g id="text_43">
     <text style="fill: #262626; font: 11px 'sans-serif'; text-anchor: start" x="544.874" y="503.783031" transform="rotate(-0, 544.874, 503.783031)">Bifidobacteriaceae</text>
    </g>
    <g id="patch_37">
     <path d="M 514.074 519.928969 
L 536.074 519.928969 
L 536.074 512.228969 
L 514.074 512.228969 
z
" style="fill: #fed9a6; stroke: #fed9a6; stroke-linejoin: miter"/>
    </g>
    <g id="text_44">
     <text style="fill: #262626; font: 11px 'sans-serif'; text-anchor: start" x="544.874" y="519.928969" transform="rotate(-0, 544.874, 519.928969)">Tannerellaceae</text>
    </g>
    <g id="patch_38">
     <path d="M 514.074 536.074906 
L 536.074 536.074906 
L 536.074 528.374906 
L 514.074 528.374906 
z
" style="fill: #ffffcc; stroke: #ffffcc; stroke-linejoin: miter"/>
    </g>
    <g id="text_45">
     <text style="fill: #262626; font: 11px 'sans-serif'; text-anchor: start" x="544.874" y="536.074906" transform="rotate(-0, 544.874, 536.074906)">UBA1381</text>
    </g>
    <g id="patch_39">
     <path d="M 514.074 552.220844 
L 536.074 552.220844 
L 536.074 544.520844 
L 514.074 544.520844 
z
" style="fill: #e5d8bd; stroke: #e5d8bd; stroke-linejoin: miter"/>
    </g>
    <g id="text_46">
     <text style="fill: #262626; font: 11px 'sans-serif'; text-anchor: start" x="544.874" y="552.220844" transform="rotate(-0, 544.874, 552.220844)">UBA660</text>
    </g>
    <g id="patch_40">
     <path d="M 514.074 568.366781 
L 536.074 568.366781 
L 536.074 560.666781 
L 514.074 560.666781 
z
" style="fill: #fddaec; stroke: #fddaec; stroke-linejoin: miter"/>
    </g>
    <g id="text_47">
     <text style="fill: #262626; font: 11px 'sans-serif'; text-anchor: start" x="544.874" y="568.366781" transform="rotate(-0, 544.874, 568.366781)">Anaerovoracaceae</text>
    </g>
    <g id="patch_41">
     <path d="M 514.074 584.512719 
L 536.074 584.512719 
L 536.074 576.812719 
L 514.074 576.812719 
z
" style="fill: #f2f2f2; stroke: #f2f2f2; stroke-linejoin: miter"/>
    </g>
    <g id="text_48">
     <text style="fill: #262626; font: 11px 'sans-serif'; text-anchor: start" x="544.874" y="584.512719" transform="rotate(-0, 544.874, 584.512719)">CAG-239</text>
    </g>
    <g id="patch_42">
     <path d="M 514.074 600.658656 
L 536.074 600.658656 
L 536.074 592.958656 
L 514.074 592.958656 
z
" style="fill: #fbb4ae; stroke: #fbb4ae; stroke-linejoin: miter"/>
    </g>
    <g id="text_49">
     <text style="fill: #262626; font: 11px 'sans-serif'; text-anchor: start" x="544.874" y="600.658656" transform="rotate(-0, 544.874, 600.658656)">Aristaeellaceae</text>
    </g>
    <g id="patch_43">
     <path d="M 514.074 616.804594 
L 536.074 616.804594 
L 536.074 609.104594 
L 514.074 609.104594 
z
" style="fill: #b3cde3; stroke: #b3cde3; stroke-linejoin: miter"/>
    </g>
    <g id="text_50">
     <text style="fill: #262626; font: 11px 'sans-serif'; text-anchor: start" x="544.874" y="616.804594" transform="rotate(-0, 544.874, 616.804594)">Borkfalkiaceae</text>
    </g>
    <g id="patch_44">
     <path d="M 514.074 632.950531 
L 536.074 632.950531 
L 536.074 625.250531 
L 514.074 625.250531 
z
" style="fill: #ccebc5; stroke: #ccebc5; stroke-linejoin: miter"/>
    </g>
    <g id="text_51">
     <text style="fill: #262626; font: 11px 'sans-serif'; text-anchor: start" x="544.874" y="632.950531" transform="rotate(-0, 544.874, 632.950531)">CAG-314</text>
    </g>
    <g id="patch_45">
     <path d="M 514.074 649.096469 
L 536.074 649.096469 
L 536.074 641.396469 
L 514.074 641.396469 
z
" style="fill: #a6cee3; stroke: #a6cee3; stroke-linejoin: miter"/>
    </g>
    <g id="text_52">
     <text style="fill: #262626; font: 11px 'sans-serif'; text-anchor: start" x="544.874" y="649.096469" transform="rotate(-0, 544.874, 649.096469)">CAG-272</text>
    </g>
    <g id="patch_46">
     <path d="M 514.074 665.242406 
L 536.074 665.242406 
L 536.074 657.542406 
L 514.074 657.542406 
z
" style="fill: #1f78b4; stroke: #1f78b4; stroke-linejoin: miter"/>
    </g>
    <g id="text_53">
     <text style="fill: #262626; font: 11px 'sans-serif'; text-anchor: start" x="544.874" y="665.242406" transform="rotate(-0, 544.874, 665.242406)">Anaerofustaceae</text>
    </g>
    <g id="patch_47">
     <path d="M 514.074 681.388344 
L 536.074 681.388344 
L 536.074 673.688344 
L 514.074 673.688344 
z
" style="fill: #ffffff; stroke: #ffffff; stroke-linejoin: miter"/>
    </g>
    <g id="text_54">
     <text style="fill: #262626; font: 11px 'sans-serif'; text-anchor: start" x="544.874" y="681.388344" transform="rotate(-0, 544.874, 681.388344)"> abundance</text>
    </g>
   </g>
  </g>
  <g id="axes_2">
   <g id="matplotlib.axis_3">
    <g id="xtick_9">
     <g id="text_55">
      <text style="fill: #262626; font: 11px 'sans-serif'" transform="translate(377.991059 26.29475)">12w</text>
      <text style="fill: #262626; font: 11px 'sans-serif'" transform="translate(370.102856 38.612344)">(n=34)</text>
     </g>
    </g>
    <g id="xtick_10">
     <g id="text_56">
      <text style="fill: #262626; font: 11px 'sans-serif'" transform="translate(156.541207 26.29475)">d0</text>
      <text style="fill: #262626; font: 11px 'sans-serif'" transform="translate(144.1473 38.612344)">(n=36)</text>
     </g>
    </g>
   </g>
   <g id="patch_48">
    <path d="M 53.31 383.04 
L 53.31 50.4 
" style="fill: none; stroke: #ffffff; stroke-width: 1.25; stroke-linejoin: miter; stroke-linecap: square"/>
   </g>
   <g id="patch_49">
    <path d="M 499.71 383.04 
L 499.71 50.4 
" style="fill: none; stroke: #ffffff; stroke-width: 1.25; stroke-linejoin: miter; stroke-linecap: square"/>
   </g>
   <g id="patch_50">
    <path d="M 53.31 383.04 
L 499.71 383.04 
" style="fill: none; stroke: #ffffff; stroke-width: 1.25; stroke-linejoin: miter; stroke-linecap: square"/>
   </g>
   <g id="patch_51">
    <path d="M 53.31 50.4 
L 499.71 50.4 
" style="fill: none; stroke: #ffffff; stroke-width: 1.25; stroke-linejoin: miter; stroke-linecap: square"/>
   </g>
  </g>
  <g id="axes_3">
   <g id="matplotlib.axis_4">
    <g id="xtick_11">
     <g id="text_57">
      <text style="fill: #262626; font: 11px 'sans-serif'" transform="translate(441.475405 430.885312)rotate(-90)">female</text>
      <text style="fill: #262626; font: 11px 'sans-serif'" transform="translate(453.792998 431.309844)rotate(-90)">(n=17)</text>
     </g>
    </g>
    <g id="xtick_12">
     <g id="text_58">
      <text style="fill: #262626; font: 11px 'sans-serif'" transform="translate(331.253182 425.564922)rotate(-90)">male</text>
      <text style="fill: #262626; font: 11px 'sans-serif'" transform="translate(343.570776 431.309844)rotate(-90)">(n=17)</text>
     </g>
    </g>
    <g id="xtick_13">
     <g id="text_59">
      <text style="fill: #262626; font: 11px 'sans-serif'" transform="translate(215.519849 430.885312)rotate(-90)">female</text>
      <text style="fill: #262626; font: 11px 'sans-serif'" transform="translate(227.837443 431.309844)rotate(-90)">(n=18)</text>
     </g>
    </g>
    <g id="xtick_14">
     <g id="text_60">
      <text style="fill: #262626; font: 11px 'sans-serif'" transform="translate(105.297627 425.564922)rotate(-90)">male</text>
      <text style="fill: #262626; font: 11px 'sans-serif'" transform="translate(117.61522 431.309844)rotate(-90)">(n=18)</text>
     </g>
    </g>
    <g id="xtick_15">
     <g id="line2d_27">
      <path d="M 389.487778 383.04 
L 389.487778 50.4 
" clip-path="url(#p53dfa8efca)" style="fill: none; stroke: #ffffff; stroke-width: 4; stroke-linecap: round"/>
     </g>
    </g>
    <g id="xtick_16">
     <g id="line2d_28">
      <path d="M 279.265556 383.04 
L 279.265556 50.4 
" clip-path="url(#p53dfa8efca)" style="fill: none; stroke: #ffffff; stroke-width: 4; stroke-linecap: round"/>
     </g>
    </g>
    <g id="xtick_17">
     <g id="line2d_29">
      <path d="M 163.532222 383.04 
L 163.532222 50.4 
" clip-path="url(#p53dfa8efca)" style="fill: none; stroke: #ffffff; stroke-width: 4; stroke-linecap: round"/>
     </g>
    </g>
    <g id="xtick_18">
     <g id="line2d_30">
      <path d="M 53.31 383.04 
L 53.31 50.4 
" clip-path="url(#p53dfa8efca)" style="fill: none; stroke: #ffffff; stroke-width: 4; stroke-linecap: round"/>
     </g>
    </g>
   </g>
   <g id="patch_52">
    <path d="M 53.31 383.04 
L 53.31 50.4 
" style="fill: none; stroke: #ffffff; stroke-width: 1.25; stroke-linejoin: miter; stroke-linecap: square"/>
   </g>
   <g id="patch_53">
    <path d="M 499.71 383.04 
L 499.71 50.4 
" style="fill: none; stroke: #ffffff; stroke-width: 1.25; stroke-linejoin: miter; stroke-linecap: square"/>
   </g>
   <g id="patch_54">
    <path d="M 53.31 383.04 
L 499.71 383.04 
" style="fill: none; stroke: #ffffff; stroke-width: 1.25; stroke-linejoin: miter; stroke-linecap: square"/>
   </g>
   <g id="patch_55">
    <path d="M 53.31 50.4 
L 499.71 50.4 
" style="fill: none; stroke: #ffffff; stroke-width: 1.25; stroke-linejoin: miter; stroke-linecap: square"/>
   </g>
  </g>
  <g id="text_61">
   <text style="fill: #262626; font: 14.4px 'sans-serif'; text-anchor: middle" x="269.31" y="18.14175" transform="rotate(-0, 269.31, 18.14175)">family feces</text>
  </g>
 </g>
 <defs>
  <clipPath id="p53dfa8efca">
   <rect x="53.31" y="50.4" width="446.4" height="332.64"/>
  </clipPath>
 </defs>
</svg>
