<?xml version="1.0" encoding="utf-8" standalone="no"?>
<!DOCTYPE svg PUBLIC "-//W3C//DTD SVG 1.1//EN"
  "http://www.w3.org/Graphics/SVG/1.1/DTD/svg11.dtd">
<svg xmlns:xlink="http://www.w3.org/1999/xlink" width="732.049469pt" height="695.276pt" viewBox="0 0 732.049469 695.276" xmlns="http://www.w3.org/2000/svg" version="1.1">
 <metadata>
  <rdf:RDF xmlns:dc="http://purl.org/dc/elements/1.1/" xmlns:cc="http://creativecommons.org/ns#" xmlns:rdf="http://www.w3.org/1999/02/22-rdf-syntax-ns#">
   <cc:Work>
    <dc:type rdf:resource="http://purl.org/dc/dcmitype/StillImage"/>
    <dc:date>2025-02-19T10:07:45.545755</dc:date>
    <dc:format>image/svg+xml</dc:format>
    <dc:creator>
     <cc:Agent>
      <dc:title>Matplotlib v3.5.3, https://matplotlib.org/</dc:title>
     </cc:Agent>
    </dc:creator>
   </cc:Work>
  </rdf:RDF>
 </metadata>
 <defs>
  <style type="text/css">*{stroke-linejoin: round; stroke-linecap: butt}</style>
 </defs>
 <g id="figure_1">
  <g id="patch_1">
   <path d="M 0 695.276 
L 732.049469 695.276 
L 732.049469 0 
L 0 0 
z
" style="fill: #ffffff"/>
  </g>
  <g id="axes_1">
   <g id="patch_2">
    <path d="M 53.31 383.04 
L 499.71 383.04 
L 499.71 50.4 
L 53.31 50.4 
z
" style="fill: #ffffff"/>
   </g>
   <g id="matplotlib.axis_1">
    <g id="xtick_1">
     <g id="line2d_1">
      <path d="M 80.865556 383.04 
L 80.865556 50.4 
" clip-path="url(#p7f3e0fd750)" style="fill: none; stroke: #ffffff; stroke-linecap: round"/>
     </g>
     <g id="line2d_2">
      <defs>
       <path id="m3fdb21c2d2" d="M 0 0 
L 0 6 
" style="stroke: #262626; stroke-width: 1.25"/>
      </defs>
      <g>
       <use xlink:href="#m3fdb21c2d2" x="80.865556" y="383.04" style="fill: #262626; stroke: #262626; stroke-width: 1.25"/>
      </g>
     </g>
     <g id="text_1">
      <text style="fill: #262626; font: 11px 'sans-serif'" transform="translate(83.900868 445.745625)rotate(-90)">ctrl (n=9)</text>
     </g>
    </g>
    <g id="xtick_2">
     <g id="line2d_3">
      <path d="M 135.976667 383.04 
L 135.976667 50.4 
" clip-path="url(#p7f3e0fd750)" style="fill: none; stroke: #ffffff; stroke-linecap: round"/>
     </g>
     <g id="line2d_4">
      <g>
       <use xlink:href="#m3fdb21c2d2" x="135.976667" y="383.04" style="fill: #262626; stroke: #262626; stroke-width: 1.25"/>
      </g>
     </g>
     <g id="text_2">
      <text style="fill: #262626; font: 11px 'sans-serif'" transform="translate(139.011979 458.500469)rotate(-90)">TCDD (n=9)</text>
     </g>
    </g>
    <g id="xtick_3">
     <g id="line2d_5">
      <path d="M 191.087778 383.04 
L 191.087778 50.4 
" clip-path="url(#p7f3e0fd750)" style="fill: none; stroke: #ffffff; stroke-linecap: round"/>
     </g>
     <g id="line2d_6">
      <g>
       <use xlink:href="#m3fdb21c2d2" x="191.087778" y="383.04" style="fill: #262626; stroke: #262626; stroke-width: 1.25"/>
      </g>
     </g>
     <g id="text_3">
      <text style="fill: #262626; font: 11px 'sans-serif'" transform="translate(194.12309 445.745625)rotate(-90)">ctrl (n=9)</text>
     </g>
    </g>
    <g id="xtick_4">
     <g id="line2d_7">
      <path d="M 246.198889 383.04 
L 246.198889 50.4 
" clip-path="url(#p7f3e0fd750)" style="fill: none; stroke: #ffffff; stroke-linecap: round"/>
     </g>
     <g id="line2d_8">
      <g>
       <use xlink:href="#m3fdb21c2d2" x="246.198889" y="383.04" style="fill: #262626; stroke: #262626; stroke-width: 1.25"/>
      </g>
     </g>
     <g id="text_4">
      <text style="fill: #262626; font: 11px 'sans-serif'" transform="translate(249.234201 458.500469)rotate(-90)">TCDD (n=9)</text>
     </g>
    </g>
    <g id="xtick_5">
     <g id="line2d_9">
      <path d="M 306.821111 383.04 
L 306.821111 50.4 
" clip-path="url(#p7f3e0fd750)" style="fill: none; stroke: #ffffff; stroke-linecap: round"/>
     </g>
     <g id="line2d_10">
      <g>
       <use xlink:href="#m3fdb21c2d2" x="306.821111" y="383.04" style="fill: #262626; stroke: #262626; stroke-width: 1.25"/>
      </g>
     </g>
     <g id="text_5">
      <text style="fill: #262626; font: 11px 'sans-serif'" transform="translate(309.856424 445.745625)rotate(-90)">ctrl (n=9)</text>
     </g>
    </g>
    <g id="xtick_6">
     <g id="line2d_11">
      <path d="M 361.932222 383.04 
L 361.932222 50.4 
" clip-path="url(#p7f3e0fd750)" style="fill: none; stroke: #ffffff; stroke-linecap: round"/>
     </g>
     <g id="line2d_12">
      <g>
       <use xlink:href="#m3fdb21c2d2" x="361.932222" y="383.04" style="fill: #262626; stroke: #262626; stroke-width: 1.25"/>
      </g>
     </g>
     <g id="text_6">
      <text style="fill: #262626; font: 11px 'sans-serif'" transform="translate(364.967535 458.500469)rotate(-90)">TCDD (n=8)</text>
     </g>
    </g>
    <g id="xtick_7">
     <g id="line2d_13">
      <path d="M 417.043333 383.04 
L 417.043333 50.4 
" clip-path="url(#p7f3e0fd750)" style="fill: none; stroke: #ffffff; stroke-linecap: round"/>
     </g>
     <g id="line2d_14">
      <g>
       <use xlink:href="#m3fdb21c2d2" x="417.043333" y="383.04" style="fill: #262626; stroke: #262626; stroke-width: 1.25"/>
      </g>
     </g>
     <g id="text_7">
      <text style="fill: #262626; font: 11px 'sans-serif'" transform="translate(420.078646 445.745625)rotate(-90)">ctrl (n=9)</text>
     </g>
    </g>
    <g id="xtick_8">
     <g id="line2d_15">
      <path d="M 472.154444 383.04 
L 472.154444 50.4 
" clip-path="url(#p7f3e0fd750)" style="fill: none; stroke: #ffffff; stroke-linecap: round"/>
     </g>
     <g id="line2d_16">
      <g>
       <use xlink:href="#m3fdb21c2d2" x="472.154444" y="383.04" style="fill: #262626; stroke: #262626; stroke-width: 1.25"/>
      </g>
     </g>
     <g id="text_8">
      <text style="fill: #262626; font: 11px 'sans-serif'" transform="translate(475.189757 458.500469)rotate(-90)">TCDD (n=8)</text>
     </g>
    </g>
   </g>
   <g id="matplotlib.axis_2">
    <g id="ytick_1">
     <g id="line2d_17">
      <path d="M 53.31 383.04 
L 499.71 383.04 
" clip-path="url(#p7f3e0fd750)" style="fill: none; stroke: #ffffff; stroke-linecap: round"/>
     </g>
     <g id="text_9">
      <text style="fill: #262626; font: 11px 'sans-serif'; text-anchor: end" x="43.81" y="387.219141" transform="rotate(-0, 43.81, 387.219141)">0</text>
     </g>
    </g>
    <g id="ytick_2">
     <g id="line2d_18">
      <path d="M 53.31 316.512 
L 499.71 316.512 
" clip-path="url(#p7f3e0fd750)" style="fill: none; stroke: #ffffff; stroke-linecap: round"/>
     </g>
     <g id="text_10">
      <text style="fill: #262626; font: 11px 'sans-serif'; text-anchor: end" x="43.81" y="320.691141" transform="rotate(-0, 43.81, 320.691141)">20</text>
     </g>
    </g>
    <g id="ytick_3">
     <g id="line2d_19">
      <path d="M 53.31 249.984 
L 499.71 249.984 
" clip-path="url(#p7f3e0fd750)" style="fill: none; stroke: #ffffff; stroke-linecap: round"/>
     </g>
     <g id="text_11">
      <text style="fill: #262626; font: 11px 'sans-serif'; text-anchor: end" x="43.81" y="254.163141" transform="rotate(-0, 43.81, 254.163141)">40</text>
     </g>
    </g>
    <g id="ytick_4">
     <g id="line2d_20">
      <path d="M 53.31 183.456 
L 499.71 183.456 
" clip-path="url(#p7f3e0fd750)" style="fill: none; stroke: #ffffff; stroke-linecap: round"/>
     </g>
     <g id="text_12">
      <text style="fill: #262626; font: 11px 'sans-serif'; text-anchor: end" x="43.81" y="187.635141" transform="rotate(-0, 43.81, 187.635141)">60</text>
     </g>
    </g>
    <g id="ytick_5">
     <g id="line2d_21">
      <path d="M 53.31 116.928 
L 499.71 116.928 
" clip-path="url(#p7f3e0fd750)" style="fill: none; stroke: #ffffff; stroke-linecap: round"/>
     </g>
     <g id="text_13">
      <text style="fill: #262626; font: 11px 'sans-serif'; text-anchor: end" x="43.81" y="121.107141" transform="rotate(-0, 43.81, 121.107141)">80</text>
     </g>
    </g>
    <g id="ytick_6">
     <g id="line2d_22">
      <path d="M 53.31 50.4 
L 499.71 50.4 
" clip-path="url(#p7f3e0fd750)" style="fill: none; stroke: #ffffff; stroke-linecap: round"/>
     </g>
     <g id="text_14">
      <text style="fill: #262626; font: 11px 'sans-serif'; text-anchor: end" x="43.81" y="54.579141" transform="rotate(-0, 43.81, 54.579141)">100</text>
     </g>
    </g>
    <g id="text_15">
     <text style="fill: #262626; font: 12px 'sans-serif'; text-anchor: middle" x="16.318125" y="216.72" transform="rotate(-90, 16.318125, 216.72)">relative abundance family level %</text>
    </g>
   </g>
   <g id="PolyCollection_1">
    <defs>
     <path id="ma13b564e85" d="M 279.265556 -427.309728 
L 279.265556 -312.236 
L 334.376667 -312.236 
L 334.376667 -312.236 
L 389.487778 -312.236 
L 389.487778 -312.236 
L 444.598889 -312.236 
L 444.598889 -312.236 
L 499.71 -312.236 
L 499.71 -456.174872 
L 499.71 -456.174872 
L 444.598889 -456.174872 
L 444.598889 -445.804512 
L 389.487778 -445.804512 
L 389.487778 -438.921944 
L 334.376667 -438.921944 
L 334.376667 -427.309728 
L 279.265556 -427.309728 
z
"/>
    </defs>
    <g clip-path="url(#p7f3e0fd750)">
     <use xlink:href="#ma13b564e85" x="0" y="695.276" style="fill: #1f78b4"/>
    </g>
   </g>
   <g id="PolyCollection_2">
    <defs>
     <path id="mb70c6a434b" d="M 53.31 -460.590976 
L 53.31 -312.236 
L 108.421111 -312.236 
L 108.421111 -312.236 
L 163.532222 -312.236 
L 163.532222 -312.236 
L 218.643333 -312.236 
L 218.643333 -312.236 
L 273.754444 -312.236 
L 273.754444 -498.122624 
L 273.754444 -498.122624 
L 218.643333 -498.122624 
L 218.643333 -488.21488 
L 163.532222 -488.21488 
L 163.532222 -450.242176 
L 108.421111 -450.242176 
L 108.421111 -460.590976 
L 53.31 -460.590976 
z
"/>
    </defs>
    <g clip-path="url(#p7f3e0fd750)">
     <use xlink:href="#mb70c6a434b" x="0" y="695.276" style="fill: #1f78b4"/>
    </g>
   </g>
   <g id="PolyCollection_3">
    <defs>
     <path id="m5d9c003a8e" d="M 279.265556 -542.73088 
L 279.265556 -427.309728 
L 334.376667 -427.309728 
L 334.376667 -438.921944 
L 389.487778 -438.921944 
L 389.487778 -445.804512 
L 444.598889 -445.804512 
L 444.598889 -456.174872 
L 499.71 -456.174872 
L 499.71 -525.025808 
L 499.71 -525.025808 
L 444.598889 -525.025808 
L 444.598889 -496.676256 
L 389.487778 -496.676256 
L 389.487778 -523.409732 
L 334.376667 -523.409732 
L 334.376667 -542.73088 
L 279.265556 -542.73088 
z
"/>
    </defs>
    <g clip-path="url(#p7f3e0fd750)">
     <use xlink:href="#m5d9c003a8e" x="0" y="695.276" style="fill: #b2df8a"/>
    </g>
   </g>
   <g id="PolyCollection_4">
    <defs>
     <path id="m63a0eaf99e" d="M 53.31 -527.444224 
L 53.31 -460.590976 
L 108.421111 -460.590976 
L 108.421111 -450.242176 
L 163.532222 -450.242176 
L 163.532222 -488.21488 
L 218.643333 -488.21488 
L 218.643333 -498.122624 
L 273.754444 -498.122624 
L 273.754444 -535.752832 
L 273.754444 -535.752832 
L 218.643333 -535.752832 
L 218.643333 -527.091872 
L 163.532222 -527.091872 
L 163.532222 -494.709984 
L 108.421111 -494.709984 
L 108.421111 -527.444224 
L 53.31 -527.444224 
z
"/>
    </defs>
    <g clip-path="url(#p7f3e0fd750)">
     <use xlink:href="#m63a0eaf99e" x="0" y="695.276" style="fill: #b2df8a"/>
    </g>
   </g>
   <g id="PolyCollection_5">
    <defs>
     <path id="m9647417e58" d="M 279.265556 -565.402144 
L 279.265556 -542.73088 
L 334.376667 -542.73088 
L 334.376667 -523.409732 
L 389.487778 -523.409732 
L 389.487778 -496.676256 
L 444.598889 -496.676256 
L 444.598889 -525.025808 
L 499.71 -525.025808 
L 499.71 -570.553136 
L 499.71 -570.553136 
L 444.598889 -570.553136 
L 444.598889 -567.866144 
L 389.487778 -567.866144 
L 389.487778 -579.104756 
L 334.376667 -579.104756 
L 334.376667 -565.402144 
L 279.265556 -565.402144 
z
"/>
    </defs>
    <g clip-path="url(#p7f3e0fd750)">
     <use xlink:href="#m9647417e58" x="0" y="695.276" style="fill: #33a02c"/>
    </g>
   </g>
   <g id="PolyCollection_6">
    <defs>
     <path id="m8a14390390" d="M 53.31 -589.209312 
L 53.31 -527.444224 
L 108.421111 -527.444224 
L 108.421111 -494.709984 
L 163.532222 -494.709984 
L 163.532222 -527.091872 
L 218.643333 -527.091872 
L 218.643333 -535.752832 
L 273.754444 -535.752832 
L 273.754444 -578.020288 
L 273.754444 -578.020288 
L 218.643333 -578.020288 
L 218.643333 -581.913408 
L 163.532222 -581.913408 
L 163.532222 -580.5656 
L 108.421111 -580.5656 
L 108.421111 -589.209312 
L 53.31 -589.209312 
z
"/>
    </defs>
    <g clip-path="url(#p7f3e0fd750)">
     <use xlink:href="#m8a14390390" x="0" y="695.276" style="fill: #33a02c"/>
    </g>
   </g>
   <g id="PolyCollection_7">
    <defs>
     <path id="mf855e3b64b" d="M 279.265556 -579.528256 
L 279.265556 -565.402144 
L 334.376667 -565.402144 
L 334.376667 -579.104756 
L 389.487778 -579.104756 
L 389.487778 -567.866144 
L 444.598889 -567.866144 
L 444.598889 -570.553136 
L 499.71 -570.553136 
L 499.71 -589.438772 
L 499.71 -589.438772 
L 444.598889 -589.438772 
L 444.598889 -584.697728 
L 389.487778 -584.697728 
L 389.487778 -592.73468 
L 334.376667 -592.73468 
L 334.376667 -579.528256 
L 279.265556 -579.528256 
z
"/>
    </defs>
    <g clip-path="url(#p7f3e0fd750)">
     <use xlink:href="#mf855e3b64b" x="0" y="695.276" style="fill: #fb9a99"/>
    </g>
   </g>
   <g id="PolyCollection_8">
    <defs>
     <path id="md4b6f2db6e" d="M 53.31 -602.921472 
L 53.31 -589.209312 
L 108.421111 -589.209312 
L 108.421111 -580.5656 
L 163.532222 -580.5656 
L 163.532222 -581.913408 
L 218.643333 -581.913408 
L 218.643333 -578.020288 
L 273.754444 -578.020288 
L 273.754444 -589.970688 
L 273.754444 -589.970688 
L 218.643333 -589.970688 
L 218.643333 -593.553344 
L 163.532222 -593.553344 
L 163.532222 -592.61456 
L 108.421111 -592.61456 
L 108.421111 -602.921472 
L 53.31 -602.921472 
z
"/>
    </defs>
    <g clip-path="url(#p7f3e0fd750)">
     <use xlink:href="#md4b6f2db6e" x="0" y="695.276" style="fill: #fb9a99"/>
    </g>
   </g>
   <g id="PolyCollection_9">
    <defs>
     <path id="m11df296847" d="M 279.265556 -584.579456 
L 279.265556 -579.528256 
L 334.376667 -579.528256 
L 334.376667 -592.73468 
L 389.487778 -592.73468 
L 389.487778 -584.697728 
L 444.598889 -584.697728 
L 444.598889 -589.438772 
L 499.71 -589.438772 
L 499.71 -595.490048 
L 499.71 -595.490048 
L 444.598889 -595.490048 
L 444.598889 -594.649824 
L 389.487778 -594.649824 
L 389.487778 -596.590532 
L 334.376667 -596.590532 
L 334.376667 -584.579456 
L 279.265556 -584.579456 
z
"/>
    </defs>
    <g clip-path="url(#p7f3e0fd750)">
     <use xlink:href="#m11df296847" x="0" y="695.276" style="fill: #e31a1c"/>
    </g>
   </g>
   <g id="PolyCollection_10">
    <defs>
     <path id="m00633b05f6" d="M 53.31 -608.830144 
L 53.31 -602.921472 
L 108.421111 -602.921472 
L 108.421111 -592.61456 
L 163.532222 -592.61456 
L 163.532222 -593.553344 
L 218.643333 -593.553344 
L 218.643333 -589.970688 
L 273.754444 -589.970688 
L 273.754444 -609.75168 
L 273.754444 -609.75168 
L 218.643333 -609.75168 
L 218.643333 -614.610688 
L 163.532222 -614.610688 
L 163.532222 -604.794112 
L 108.421111 -604.794112 
L 108.421111 -608.830144 
L 53.31 -608.830144 
z
"/>
    </defs>
    <g clip-path="url(#p7f3e0fd750)">
     <use xlink:href="#m00633b05f6" x="0" y="695.276" style="fill: #e31a1c"/>
    </g>
   </g>
   <g id="PolyCollection_11">
    <defs>
     <path id="m1e045f078a" d="M 279.265556 -598.106816 
L 279.265556 -584.579456 
L 334.376667 -584.579456 
L 334.376667 -596.590532 
L 389.487778 -596.590532 
L 389.487778 -594.649824 
L 444.598889 -594.649824 
L 444.598889 -595.490048 
L 499.71 -595.490048 
L 499.71 -606.328568 
L 499.71 -606.328568 
L 444.598889 -606.328568 
L 444.598889 -602.59376 
L 389.487778 -602.59376 
L 389.487778 -607.628636 
L 334.376667 -607.628636 
L 334.376667 -598.106816 
L 279.265556 -598.106816 
z
"/>
    </defs>
    <g clip-path="url(#p7f3e0fd750)">
     <use xlink:href="#m1e045f078a" x="0" y="695.276" style="fill: #fdbf6f"/>
    </g>
   </g>
   <g id="PolyCollection_12">
    <defs>
     <path id="m940e295123" d="M 53.31 -617.629088 
L 53.31 -608.830144 
L 108.421111 -608.830144 
L 108.421111 -604.794112 
L 163.532222 -604.794112 
L 163.532222 -614.610688 
L 218.643333 -614.610688 
L 218.643333 -609.75168 
L 273.754444 -609.75168 
L 273.754444 -613.366368 
L 273.754444 -613.366368 
L 218.643333 -613.366368 
L 218.643333 -618.784704 
L 163.532222 -618.784704 
L 163.532222 -610.77424 
L 108.421111 -610.77424 
L 108.421111 -617.629088 
L 53.31 -617.629088 
z
"/>
    </defs>
    <g clip-path="url(#p7f3e0fd750)">
     <use xlink:href="#m940e295123" x="0" y="695.276" style="fill: #fdbf6f"/>
    </g>
   </g>
   <g id="PolyCollection_13">
    <defs>
     <path id="m8f3224dc02" d="M 279.265556 -608.361984 
L 279.265556 -598.106816 
L 334.376667 -598.106816 
L 334.376667 -607.628636 
L 389.487778 -607.628636 
L 389.487778 -602.59376 
L 444.598889 -602.59376 
L 444.598889 -606.328568 
L 499.71 -606.328568 
L 499.71 -609.086708 
L 499.71 -609.086708 
L 444.598889 -609.086708 
L 444.598889 -604.064768 
L 389.487778 -604.064768 
L 389.487778 -610.730504 
L 334.376667 -610.730504 
L 334.376667 -608.361984 
L 279.265556 -608.361984 
z
"/>
    </defs>
    <g clip-path="url(#p7f3e0fd750)">
     <use xlink:href="#m8f3224dc02" x="0" y="695.276" style="fill: #ff7f00"/>
    </g>
   </g>
   <g id="PolyCollection_14">
    <defs>
     <path id="m03dfb75ac5" d="M 53.31 -621.32016 
L 53.31 -617.629088 
L 108.421111 -617.629088 
L 108.421111 -610.77424 
L 163.532222 -610.77424 
L 163.532222 -618.784704 
L 218.643333 -618.784704 
L 218.643333 -613.366368 
L 273.754444 -613.366368 
L 273.754444 -621.327552 
L 273.754444 -621.327552 
L 218.643333 -621.327552 
L 218.643333 -619.60768 
L 163.532222 -619.60768 
L 163.532222 -619.523904 
L 108.421111 -619.523904 
L 108.421111 -621.32016 
L 53.31 -621.32016 
z
"/>
    </defs>
    <g clip-path="url(#p7f3e0fd750)">
     <use xlink:href="#m03dfb75ac5" x="0" y="695.276" style="fill: #ff7f00"/>
    </g>
   </g>
   <g id="PolyCollection_15">
    <defs>
     <path id="m0f4b0143d3" d="M 279.265556 -614.7536 
L 279.265556 -608.361984 
L 334.376667 -608.361984 
L 334.376667 -610.730504 
L 389.487778 -610.730504 
L 389.487778 -604.064768 
L 444.598889 -604.064768 
L 444.598889 -609.086708 
L 499.71 -609.086708 
L 499.71 -614.458844 
L 499.71 -614.458844 
L 444.598889 -614.458844 
L 444.598889 -608.820288 
L 389.487778 -608.820288 
L 389.487778 -615.024332 
L 334.376667 -615.024332 
L 334.376667 -614.7536 
L 279.265556 -614.7536 
z
"/>
    </defs>
    <g clip-path="url(#p7f3e0fd750)">
     <use xlink:href="#m0f4b0143d3" x="0" y="695.276" style="fill: #cab2d6"/>
    </g>
   </g>
   <g id="PolyCollection_16">
    <defs>
     <path id="m0649ed3568" d="M 53.31 -625.612448 
L 53.31 -621.32016 
L 108.421111 -621.32016 
L 108.421111 -619.523904 
L 163.532222 -619.523904 
L 163.532222 -619.60768 
L 218.643333 -619.60768 
L 218.643333 -621.327552 
L 273.754444 -621.327552 
L 273.754444 -624.321312 
L 273.754444 -624.321312 
L 218.643333 -624.321312 
L 218.643333 -622.768992 
L 163.532222 -622.768992 
L 163.532222 -623.483552 
L 108.421111 -623.483552 
L 108.421111 -625.612448 
L 53.31 -625.612448 
z
"/>
    </defs>
    <g clip-path="url(#p7f3e0fd750)">
     <use xlink:href="#m0649ed3568" x="0" y="695.276" style="fill: #cab2d6"/>
    </g>
   </g>
   <g id="PolyCollection_17">
    <defs>
     <path id="mbedafe862a" d="M 279.265556 -619.87872 
L 279.265556 -614.7536 
L 334.376667 -614.7536 
L 334.376667 -615.024332 
L 389.487778 -615.024332 
L 389.487778 -608.820288 
L 444.598889 -608.820288 
L 444.598889 -614.458844 
L 499.71 -614.458844 
L 499.71 -619.889192 
L 499.71 -619.889192 
L 444.598889 -619.889192 
L 444.598889 -613.78032 
L 389.487778 -613.78032 
L 389.487778 -619.090856 
L 334.376667 -619.090856 
L 334.376667 -619.87872 
L 279.265556 -619.87872 
z
"/>
    </defs>
    <g clip-path="url(#p7f3e0fd750)">
     <use xlink:href="#mbedafe862a" x="0" y="695.276" style="fill: #6a3d9a"/>
    </g>
   </g>
   <g id="PolyCollection_18">
    <defs>
     <path id="mf395043d96" d="M 53.31 -628.877248 
L 53.31 -625.612448 
L 108.421111 -625.612448 
L 108.421111 -623.483552 
L 163.532222 -623.483552 
L 163.532222 -622.768992 
L 218.643333 -622.768992 
L 218.643333 -624.321312 
L 273.754444 -624.321312 
L 273.754444 -628.808256 
L 273.754444 -628.808256 
L 218.643333 -628.808256 
L 218.643333 -626.129888 
L 163.532222 -626.129888 
L 163.532222 -626.846912 
L 108.421111 -626.846912 
L 108.421111 -628.877248 
L 53.31 -628.877248 
z
"/>
    </defs>
    <g clip-path="url(#p7f3e0fd750)">
     <use xlink:href="#mf395043d96" x="0" y="695.276" style="fill: #6a3d9a"/>
    </g>
   </g>
   <g id="PolyCollection_19">
    <defs>
     <path id="m3701e464a6" d="M 279.265556 -626.708928 
L 279.265556 -619.87872 
L 334.376667 -619.87872 
L 334.376667 -619.090856 
L 389.487778 -619.090856 
L 389.487778 -613.78032 
L 444.598889 -613.78032 
L 444.598889 -619.889192 
L 499.71 -619.889192 
L 499.71 -621.338948 
L 499.71 -621.338948 
L 444.598889 -621.338948 
L 444.598889 -614.879264 
L 389.487778 -614.879264 
L 389.487778 -626.383988 
L 334.376667 -626.383988 
L 334.376667 -626.708928 
L 279.265556 -626.708928 
z
"/>
    </defs>
    <g clip-path="url(#p7f3e0fd750)">
     <use xlink:href="#m3701e464a6" x="0" y="695.276" style="fill: #ffff99"/>
    </g>
   </g>
   <g id="PolyCollection_20">
    <defs>
     <path id="m7a217ad9a7" d="M 53.31 -633.955552 
L 53.31 -628.877248 
L 108.421111 -628.877248 
L 108.421111 -626.846912 
L 163.532222 -626.846912 
L 163.532222 -626.129888 
L 218.643333 -626.129888 
L 218.643333 -628.808256 
L 273.754444 -628.808256 
L 273.754444 -629.527744 
L 273.754444 -629.527744 
L 218.643333 -629.527744 
L 218.643333 -626.775456 
L 163.532222 -626.775456 
L 163.532222 -631.498944 
L 108.421111 -631.498944 
L 108.421111 -633.955552 
L 53.31 -633.955552 
z
"/>
    </defs>
    <g clip-path="url(#p7f3e0fd750)">
     <use xlink:href="#m7a217ad9a7" x="0" y="695.276" style="fill: #ffff99"/>
    </g>
   </g>
   <g id="PolyCollection_21">
    <defs>
     <path id="mcd728b9333" d="M 279.265556 -629.503104 
L 279.265556 -626.708928 
L 334.376667 -626.708928 
L 334.376667 -626.383988 
L 389.487778 -626.383988 
L 389.487778 -614.879264 
L 444.598889 -614.879264 
L 444.598889 -621.338948 
L 499.71 -621.338948 
L 499.71 -624.925916 
L 499.71 -624.925916 
L 444.598889 -624.925916 
L 444.598889 -621.157536 
L 389.487778 -621.157536 
L 389.487778 -629.028476 
L 334.376667 -629.028476 
L 334.376667 -629.503104 
L 279.265556 -629.503104 
z
"/>
    </defs>
    <g clip-path="url(#p7f3e0fd750)">
     <use xlink:href="#mcd728b9333" x="0" y="695.276" style="fill: #b15928"/>
    </g>
   </g>
   <g id="PolyCollection_22">
    <defs>
     <path id="mfe72e136c8" d="M 53.31 -635.99328 
L 53.31 -633.955552 
L 108.421111 -633.955552 
L 108.421111 -631.498944 
L 163.532222 -631.498944 
L 163.532222 -626.775456 
L 218.643333 -626.775456 
L 218.643333 -629.527744 
L 273.754444 -629.527744 
L 273.754444 -631.632 
L 273.754444 -631.632 
L 218.643333 -631.632 
L 218.643333 -628.396768 
L 163.532222 -628.396768 
L 163.532222 -633.179392 
L 108.421111 -633.179392 
L 108.421111 -635.99328 
L 53.31 -635.99328 
z
"/>
    </defs>
    <g clip-path="url(#p7f3e0fd750)">
     <use xlink:href="#mfe72e136c8" x="0" y="695.276" style="fill: #b15928"/>
    </g>
   </g>
   <g id="PolyCollection_23">
    <defs>
     <path id="m48f3493e75" d="M 279.265556 -629.508032 
L 279.265556 -629.503104 
L 334.376667 -629.503104 
L 334.376667 -629.028476 
L 389.487778 -629.028476 
L 389.487778 -621.157536 
L 444.598889 -621.157536 
L 444.598889 -624.925916 
L 499.71 -624.925916 
L 499.71 -626.56694 
L 499.71 -626.56694 
L 444.598889 -626.56694 
L 444.598889 -623.880256 
L 389.487778 -623.880256 
L 389.487778 -629.028476 
L 334.376667 -629.028476 
L 334.376667 -629.508032 
L 279.265556 -629.508032 
z
"/>
    </defs>
    <g clip-path="url(#p7f3e0fd750)">
     <use xlink:href="#m48f3493e75" x="0" y="695.276" style="fill: #1b9e77"/>
    </g>
   </g>
   <g id="PolyCollection_24">
    <defs>
     <path id="m33fc024f51" d="M 53.31 -636.003136 
L 53.31 -635.99328 
L 108.421111 -635.99328 
L 108.421111 -633.179392 
L 163.532222 -633.179392 
L 163.532222 -628.396768 
L 218.643333 -628.396768 
L 218.643333 -631.632 
L 273.754444 -631.632 
L 273.754444 -637.75504 
L 273.754444 -637.75504 
L 218.643333 -637.75504 
L 218.643333 -635.914432 
L 163.532222 -635.914432 
L 163.532222 -633.191712 
L 108.421111 -633.191712 
L 108.421111 -636.003136 
L 53.31 -636.003136 
z
"/>
    </defs>
    <g clip-path="url(#p7f3e0fd750)">
     <use xlink:href="#m33fc024f51" x="0" y="695.276" style="fill: #1b9e77"/>
    </g>
   </g>
   <g id="PolyCollection_25">
    <defs>
     <path id="m59289ec39a" d="M 279.265556 -629.508032 
L 279.265556 -629.508032 
L 334.376667 -629.508032 
L 334.376667 -629.028476 
L 389.487778 -629.028476 
L 389.487778 -623.880256 
L 444.598889 -623.880256 
L 444.598889 -626.56694 
L 499.71 -626.56694 
L 499.71 -630.37844 
L 499.71 -630.37844 
L 444.598889 -630.37844 
L 444.598889 -631.097312 
L 389.487778 -631.097312 
L 389.487778 -630.325772 
L 334.376667 -630.325772 
L 334.376667 -629.508032 
L 279.265556 -629.508032 
z
"/>
    </defs>
    <g clip-path="url(#p7f3e0fd750)">
     <use xlink:href="#m59289ec39a" x="0" y="695.276" style="fill: #d95f02"/>
    </g>
   </g>
   <g id="PolyCollection_26">
    <defs>
     <path id="m7a3f88a55e" d="M 53.31 -636.064736 
L 53.31 -636.003136 
L 108.421111 -636.003136 
L 108.421111 -633.191712 
L 163.532222 -633.191712 
L 163.532222 -635.914432 
L 218.643333 -635.914432 
L 218.643333 -637.75504 
L 273.754444 -637.75504 
L 273.754444 -638.171456 
L 273.754444 -638.171456 
L 218.643333 -638.171456 
L 218.643333 -637.589952 
L 163.532222 -637.589952 
L 163.532222 -636.094304 
L 108.421111 -636.094304 
L 108.421111 -636.064736 
L 53.31 -636.064736 
z
"/>
    </defs>
    <g clip-path="url(#p7f3e0fd750)">
     <use xlink:href="#m7a3f88a55e" x="0" y="695.276" style="fill: #d95f02"/>
    </g>
   </g>
   <g id="PolyCollection_27">
    <defs>
     <path id="mbf6833f30f" d="M 279.265556 -631.356032 
L 279.265556 -629.508032 
L 334.376667 -629.508032 
L 334.376667 -630.325772 
L 389.487778 -630.325772 
L 389.487778 -631.097312 
L 444.598889 -631.097312 
L 444.598889 -630.37844 
L 499.71 -630.37844 
L 499.71 -632.892644 
L 499.71 -632.892644 
L 444.598889 -632.892644 
L 444.598889 -633.36912 
L 389.487778 -633.36912 
L 389.487778 -631.623068 
L 334.376667 -631.623068 
L 334.376667 -631.356032 
L 279.265556 -631.356032 
z
"/>
    </defs>
    <g clip-path="url(#p7f3e0fd750)">
     <use xlink:href="#mbf6833f30f" x="0" y="695.276" style="fill: #7570b3"/>
    </g>
   </g>
   <g id="PolyCollection_28">
    <defs>
     <path id="m65a5f0a4b5" d="M 53.31 -637.173536 
L 53.31 -636.064736 
L 108.421111 -636.064736 
L 108.421111 -636.094304 
L 163.532222 -636.094304 
L 163.532222 -637.589952 
L 218.643333 -637.589952 
L 218.643333 -638.171456 
L 273.754444 -638.171456 
L 273.754444 -639.403456 
L 273.754444 -639.403456 
L 218.643333 -639.403456 
L 218.643333 -638.560768 
L 163.532222 -638.560768 
L 163.532222 -637.119328 
L 108.421111 -637.119328 
L 108.421111 -637.173536 
L 53.31 -637.173536 
z
"/>
    </defs>
    <g clip-path="url(#p7f3e0fd750)">
     <use xlink:href="#m65a5f0a4b5" x="0" y="695.276" style="fill: #7570b3"/>
    </g>
   </g>
   <g id="PolyCollection_29">
    <defs>
     <path id="madbb0c40c1" d="M 279.265556 -634.036864 
L 279.265556 -631.356032 
L 334.376667 -631.356032 
L 334.376667 -631.623068 
L 389.487778 -631.623068 
L 389.487778 -633.36912 
L 444.598889 -633.36912 
L 444.598889 -632.892644 
L 499.71 -632.892644 
L 499.71 -634.156676 
L 499.71 -634.156676 
L 444.598889 -634.156676 
L 444.598889 -634.628224 
L 389.487778 -634.628224 
L 389.487778 -634.289732 
L 334.376667 -634.289732 
L 334.376667 -634.036864 
L 279.265556 -634.036864 
z
"/>
    </defs>
    <g clip-path="url(#p7f3e0fd750)">
     <use xlink:href="#madbb0c40c1" x="0" y="695.276" style="fill: #e7298a"/>
    </g>
   </g>
   <g id="PolyCollection_30">
    <defs>
     <path id="m4a5b99333e" d="M 53.31 -638.343936 
L 53.31 -637.173536 
L 108.421111 -637.173536 
L 108.421111 -637.119328 
L 163.532222 -637.119328 
L 163.532222 -638.560768 
L 218.643333 -638.560768 
L 218.643333 -639.403456 
L 273.754444 -639.403456 
L 273.754444 -639.999744 
L 273.754444 -639.999744 
L 218.643333 -639.999744 
L 218.643333 -639.056032 
L 163.532222 -639.056032 
L 163.532222 -638.462208 
L 108.421111 -638.462208 
L 108.421111 -638.343936 
L 53.31 -638.343936 
z
"/>
    </defs>
    <g clip-path="url(#p7f3e0fd750)">
     <use xlink:href="#m4a5b99333e" x="0" y="695.276" style="fill: #e7298a"/>
    </g>
   </g>
   <g id="PolyCollection_31">
    <defs>
     <path id="m6206d649a7" d="M 279.265556 -635.769056 
L 279.265556 -634.036864 
L 334.376667 -634.036864 
L 334.376667 -634.289732 
L 389.487778 -634.289732 
L 389.487778 -634.628224 
L 444.598889 -634.628224 
L 444.598889 -634.156676 
L 499.71 -634.156676 
L 499.71 -635.5898 
L 499.71 -635.5898 
L 444.598889 -635.5898 
L 444.598889 -635.608896 
L 389.487778 -635.608896 
L 389.487778 -635.722856 
L 334.376667 -635.722856 
L 334.376667 -635.769056 
L 279.265556 -635.769056 
z
"/>
    </defs>
    <g clip-path="url(#p7f3e0fd750)">
     <use xlink:href="#m6206d649a7" x="0" y="695.276" style="fill: #66a61e"/>
    </g>
   </g>
   <g id="PolyCollection_32">
    <defs>
     <path id="m2cb76103c9" d="M 53.31 -639.277792 
L 53.31 -638.343936 
L 108.421111 -638.343936 
L 108.421111 -638.462208 
L 163.532222 -638.462208 
L 163.532222 -639.056032 
L 218.643333 -639.056032 
L 218.643333 -639.999744 
L 273.754444 -639.999744 
L 273.754444 -640.559072 
L 273.754444 -640.559072 
L 218.643333 -640.559072 
L 218.643333 -639.588256 
L 163.532222 -639.588256 
L 163.532222 -639.186624 
L 108.421111 -639.186624 
L 108.421111 -639.277792 
L 53.31 -639.277792 
z
"/>
    </defs>
    <g clip-path="url(#p7f3e0fd750)">
     <use xlink:href="#m2cb76103c9" x="0" y="695.276" style="fill: #66a61e"/>
    </g>
   </g>
   <g id="PolyCollection_33">
    <defs>
     <path id="m2c5c537eda" d="M 279.265556 -637.07744 
L 279.265556 -635.769056 
L 334.376667 -635.769056 
L 334.376667 -635.722856 
L 389.487778 -635.722856 
L 389.487778 -635.608896 
L 444.598889 -635.608896 
L 444.598889 -635.5898 
L 499.71 -635.5898 
L 499.71 -636.734636 
L 499.71 -636.734636 
L 444.598889 -636.734636 
L 444.598889 -636.348096 
L 389.487778 -636.348096 
L 389.487778 -636.923132 
L 334.376667 -636.923132 
L 334.376667 -637.07744 
L 279.265556 -637.07744 
z
"/>
    </defs>
    <g clip-path="url(#p7f3e0fd750)">
     <use xlink:href="#m2c5c537eda" x="0" y="695.276" style="fill: #e6ab02"/>
    </g>
   </g>
   <g id="PolyCollection_34">
    <defs>
     <path id="m12632de9b4" d="M 53.31 -640.061344 
L 53.31 -639.277792 
L 108.421111 -639.277792 
L 108.421111 -639.186624 
L 163.532222 -639.186624 
L 163.532222 -639.588256 
L 218.643333 -639.588256 
L 218.643333 -640.559072 
L 273.754444 -640.559072 
L 273.754444 -641.694976 
L 273.754444 -641.694976 
L 218.643333 -641.694976 
L 218.643333 -640.60096 
L 163.532222 -640.60096 
L 163.532222 -639.98496 
L 108.421111 -639.98496 
L 108.421111 -640.061344 
L 53.31 -640.061344 
z
"/>
    </defs>
    <g clip-path="url(#p7f3e0fd750)">
     <use xlink:href="#m12632de9b4" x="0" y="695.276" style="fill: #e6ab02"/>
    </g>
   </g>
   <g id="PolyCollection_35">
    <defs>
     <path id="mc659a1f9a6" d="M 279.265556 -638.393216 
L 279.265556 -637.07744 
L 334.376667 -637.07744 
L 334.376667 -636.923132 
L 389.487778 -636.923132 
L 389.487778 -636.348096 
L 444.598889 -636.348096 
L 444.598889 -636.734636 
L 499.71 -636.734636 
L 499.71 -637.746416 
L 499.71 -637.746416 
L 444.598889 -637.746416 
L 444.598889 -636.981344 
L 389.487778 -636.981344 
L 389.487778 -637.940456 
L 334.376667 -637.940456 
L 334.376667 -638.393216 
L 279.265556 -638.393216 
z
"/>
    </defs>
    <g clip-path="url(#p7f3e0fd750)">
     <use xlink:href="#mc659a1f9a6" x="0" y="695.276" style="fill: #a6761d"/>
    </g>
   </g>
   <g id="PolyCollection_36">
    <defs>
     <path id="m47771e9deb" d="M 53.31 -641.083904 
L 53.31 -640.061344 
L 108.421111 -640.061344 
L 108.421111 -639.98496 
L 163.532222 -639.98496 
L 163.532222 -640.60096 
L 218.643333 -640.60096 
L 218.643333 -641.694976 
L 273.754444 -641.694976 
L 273.754444 -642.315904 
L 273.754444 -642.315904 
L 218.643333 -642.315904 
L 218.643333 -641.165216 
L 163.532222 -641.165216 
L 163.532222 -640.67488 
L 108.421111 -640.67488 
L 108.421111 -641.083904 
L 53.31 -641.083904 
z
"/>
    </defs>
    <g clip-path="url(#p7f3e0fd750)">
     <use xlink:href="#m47771e9deb" x="0" y="695.276" style="fill: #a6761d"/>
    </g>
   </g>
   <g id="PolyCollection_37">
    <defs>
     <path id="m7819471e24" d="M 279.265556 -639.731168 
L 279.265556 -638.393216 
L 334.376667 -638.393216 
L 334.376667 -637.940456 
L 389.487778 -637.940456 
L 389.487778 -636.981344 
L 444.598889 -636.981344 
L 444.598889 -637.746416 
L 499.71 -637.746416 
L 499.71 -638.977184 
L 499.71 -638.977184 
L 444.598889 -638.977184 
L 444.598889 -638.316832 
L 389.487778 -638.316832 
L 389.487778 -638.797004 
L 334.376667 -638.797004 
L 334.376667 -639.731168 
L 279.265556 -639.731168 
z
"/>
    </defs>
    <g clip-path="url(#p7f3e0fd750)">
     <use xlink:href="#m7819471e24" x="0" y="695.276" style="fill: #666666"/>
    </g>
   </g>
   <g id="PolyCollection_38">
    <defs>
     <path id="m309b35c34b" d="M 53.31 -641.781216 
L 53.31 -641.083904 
L 108.421111 -641.083904 
L 108.421111 -640.67488 
L 163.532222 -640.67488 
L 163.532222 -641.165216 
L 218.643333 -641.165216 
L 218.643333 -642.315904 
L 273.754444 -642.315904 
L 273.754444 -642.690432 
L 273.754444 -642.690432 
L 218.643333 -642.690432 
L 218.643333 -641.675264 
L 163.532222 -641.675264 
L 163.532222 -641.172608 
L 108.421111 -641.172608 
L 108.421111 -641.781216 
L 53.31 -641.781216 
z
"/>
    </defs>
    <g clip-path="url(#p7f3e0fd750)">
     <use xlink:href="#m309b35c34b" x="0" y="695.276" style="fill: #666666"/>
    </g>
   </g>
   <g id="PolyCollection_39">
    <defs>
     <path id="mbeb0b69d1e" d="M 279.265556 -640.854752 
L 279.265556 -639.731168 
L 334.376667 -639.731168 
L 334.376667 -638.797004 
L 389.487778 -638.797004 
L 389.487778 -638.316832 
L 444.598889 -638.316832 
L 444.598889 -638.977184 
L 499.71 -638.977184 
L 499.71 -640.17746 
L 499.71 -640.17746 
L 444.598889 -640.17746 
L 444.598889 -638.797312 
L 389.487778 -638.797312 
L 389.487778 -639.91412 
L 334.376667 -639.91412 
L 334.376667 -640.854752 
L 279.265556 -640.854752 
z
"/>
    </defs>
    <g clip-path="url(#p7f3e0fd750)">
     <use xlink:href="#mbeb0b69d1e" x="0" y="695.276" style="fill: #1b9e77"/>
    </g>
   </g>
   <g id="PolyCollection_40">
    <defs>
     <path id="m5a522edc38" d="M 53.31 -642.27648 
L 53.31 -641.781216 
L 108.421111 -641.781216 
L 108.421111 -641.172608 
L 163.532222 -641.172608 
L 163.532222 -641.675264 
L 218.643333 -641.675264 
L 218.643333 -642.690432 
L 273.754444 -642.690432 
L 273.754444 -643.099456 
L 273.754444 -643.099456 
L 218.643333 -643.099456 
L 218.643333 -641.966016 
L 163.532222 -641.966016 
L 163.532222 -641.384512 
L 108.421111 -641.384512 
L 108.421111 -642.27648 
L 53.31 -642.27648 
z
"/>
    </defs>
    <g clip-path="url(#p7f3e0fd750)">
     <use xlink:href="#m5a522edc38" x="0" y="695.276" style="fill: #1b9e77"/>
    </g>
   </g>
   <g id="PolyCollection_41">
    <defs>
     <path id="m3170b06934" d="M 279.265556 -641.852672 
L 279.265556 -640.854752 
L 334.376667 -640.854752 
L 334.376667 -639.91412 
L 389.487778 -639.91412 
L 389.487778 -638.797312 
L 444.598889 -638.797312 
L 444.598889 -640.17746 
L 499.71 -640.17746 
L 499.71 -640.313288 
L 499.71 -640.313288 
L 444.598889 -640.313288 
L 444.598889 -638.920512 
L 389.487778 -638.920512 
L 389.487778 -641.774132 
L 334.376667 -641.774132 
L 334.376667 -641.852672 
L 279.265556 -641.852672 
z
"/>
    </defs>
    <g clip-path="url(#p7f3e0fd750)">
     <use xlink:href="#m3170b06934" x="0" y="695.276" style="fill: #d95f02"/>
    </g>
   </g>
   <g id="PolyCollection_42">
    <defs>
     <path id="m6ce08434ec" d="M 53.31 -643.210336 
L 53.31 -642.27648 
L 108.421111 -642.27648 
L 108.421111 -641.384512 
L 163.532222 -641.384512 
L 163.532222 -641.966016 
L 218.643333 -641.966016 
L 218.643333 -643.099456 
L 273.754444 -643.099456 
L 273.754444 -643.119168 
L 273.754444 -643.119168 
L 218.643333 -643.119168 
L 218.643333 -642.022688 
L 163.532222 -642.022688 
L 163.532222 -642.224736 
L 108.421111 -642.224736 
L 108.421111 -643.210336 
L 53.31 -643.210336 
z
"/>
    </defs>
    <g clip-path="url(#p7f3e0fd750)">
     <use xlink:href="#m6ce08434ec" x="0" y="695.276" style="fill: #d95f02"/>
    </g>
   </g>
   <g id="PolyCollection_43">
    <defs>
     <path id="me95c4546f6" d="M 279.265556 -641.852672 
L 279.265556 -641.852672 
L 334.376667 -641.852672 
L 334.376667 -641.774132 
L 389.487778 -641.774132 
L 389.487778 -638.920512 
L 444.598889 -638.920512 
L 444.598889 -640.313288 
L 499.71 -640.313288 
L 499.71 -641.28626 
L 499.71 -641.28626 
L 444.598889 -641.28626 
L 444.598889 -640.147584 
L 389.487778 -640.147584 
L 389.487778 -641.846204 
L 334.376667 -641.846204 
L 334.376667 -641.852672 
L 279.265556 -641.852672 
z
"/>
    </defs>
    <g clip-path="url(#p7f3e0fd750)">
     <use xlink:href="#me95c4546f6" x="0" y="695.276" style="fill: #7570b3"/>
    </g>
   </g>
   <g id="PolyCollection_44">
    <defs>
     <path id="mbd1318948a" d="M 53.31 -643.210336 
L 53.31 -643.210336 
L 108.421111 -643.210336 
L 108.421111 -642.224736 
L 163.532222 -642.224736 
L 163.532222 -642.022688 
L 218.643333 -642.022688 
L 218.643333 -643.119168 
L 273.754444 -643.119168 
L 273.754444 -643.42224 
L 273.754444 -643.42224 
L 218.643333 -643.42224 
L 218.643333 -642.80624 
L 163.532222 -642.80624 
L 163.532222 -642.224736 
L 108.421111 -642.224736 
L 108.421111 -643.210336 
L 53.31 -643.210336 
z
"/>
    </defs>
    <g clip-path="url(#p7f3e0fd750)">
     <use xlink:href="#mbd1318948a" x="0" y="695.276" style="fill: #7570b3"/>
    </g>
   </g>
   <g id="PolyCollection_45">
    <defs>
     <path id="mc8c2190e1a" d="M 279.265556 -642.21488 
L 279.265556 -641.852672 
L 334.376667 -641.852672 
L 334.376667 -641.846204 
L 389.487778 -641.846204 
L 389.487778 -640.147584 
L 444.598889 -640.147584 
L 444.598889 -641.28626 
L 499.71 -641.28626 
L 499.71 -641.810168 
L 499.71 -641.810168 
L 444.598889 -641.810168 
L 444.598889 -640.652704 
L 389.487778 -640.652704 
L 389.487778 -642.281408 
L 334.376667 -642.281408 
L 334.376667 -642.21488 
L 279.265556 -642.21488 
z
"/>
    </defs>
    <g clip-path="url(#p7f3e0fd750)">
     <use xlink:href="#mc8c2190e1a" x="0" y="695.276" style="fill: #e7298a"/>
    </g>
   </g>
   <g id="PolyCollection_46">
    <defs>
     <path id="m100d3ed3c5" d="M 53.31 -643.510944 
L 53.31 -643.210336 
L 108.421111 -643.210336 
L 108.421111 -642.224736 
L 163.532222 -642.224736 
L 163.532222 -642.80624 
L 218.643333 -642.80624 
L 218.643333 -643.42224 
L 273.754444 -643.42224 
L 273.754444 -643.720384 
L 273.754444 -643.720384 
L 218.643333 -643.720384 
L 218.643333 -643.096992 
L 163.532222 -643.096992 
L 163.532222 -642.611584 
L 108.421111 -642.611584 
L 108.421111 -643.510944 
L 53.31 -643.510944 
z
"/>
    </defs>
    <g clip-path="url(#p7f3e0fd750)">
     <use xlink:href="#m100d3ed3c5" x="0" y="695.276" style="fill: #e7298a"/>
    </g>
   </g>
   <g id="PolyCollection_47">
    <defs>
     <path id="m680b95e9ac" d="M 279.265556 -642.828416 
L 279.265556 -642.21488 
L 334.376667 -642.21488 
L 334.376667 -642.281408 
L 389.487778 -642.281408 
L 389.487778 -640.652704 
L 444.598889 -640.652704 
L 444.598889 -641.810168 
L 499.71 -641.810168 
L 499.71 -642.223196 
L 499.71 -642.223196 
L 444.598889 -642.223196 
L 444.598889 -640.916352 
L 389.487778 -640.916352 
L 389.487778 -642.869072 
L 334.376667 -642.869072 
L 334.376667 -642.828416 
L 279.265556 -642.828416 
z
"/>
    </defs>
    <g clip-path="url(#p7f3e0fd750)">
     <use xlink:href="#m680b95e9ac" x="0" y="695.276" style="fill: #fbb4ae"/>
    </g>
   </g>
   <g id="PolyCollection_48">
    <defs>
     <path id="m71f802da48" d="M 53.31 -643.814016 
L 53.31 -643.510944 
L 108.421111 -643.510944 
L 108.421111 -642.611584 
L 163.532222 -642.611584 
L 163.532222 -643.096992 
L 218.643333 -643.096992 
L 218.643333 -643.720384 
L 273.754444 -643.720384 
L 273.754444 -643.873152 
L 273.754444 -643.873152 
L 218.643333 -643.873152 
L 218.643333 -643.269472 
L 163.532222 -643.269472 
L 163.532222 -643.158592 
L 108.421111 -643.158592 
L 108.421111 -643.814016 
L 53.31 -643.814016 
z
"/>
    </defs>
    <g clip-path="url(#p7f3e0fd750)">
     <use xlink:href="#m71f802da48" x="0" y="695.276" style="fill: #fbb4ae"/>
    </g>
   </g>
   <g id="PolyCollection_49">
    <defs>
     <path id="me666700d01" d="M 279.265556 -643.158592 
L 279.265556 -642.828416 
L 334.376667 -642.828416 
L 334.376667 -642.869072 
L 389.487778 -642.869072 
L 389.487778 -640.916352 
L 444.598889 -640.916352 
L 444.598889 -642.223196 
L 499.71 -642.223196 
L 499.71 -642.67226 
L 499.71 -642.67226 
L 444.598889 -642.67226 
L 444.598889 -641.372192 
L 389.487778 -641.372192 
L 389.487778 -643.301504 
L 334.376667 -643.301504 
L 334.376667 -643.158592 
L 279.265556 -643.158592 
z
"/>
    </defs>
    <g clip-path="url(#p7f3e0fd750)">
     <use xlink:href="#me666700d01" x="0" y="695.276" style="fill: #b3cde3"/>
    </g>
   </g>
   <g id="PolyCollection_50">
    <defs>
     <path id="meed4ffdfab" d="M 53.31 -643.932288 
L 53.31 -643.814016 
L 108.421111 -643.814016 
L 108.421111 -643.158592 
L 163.532222 -643.158592 
L 163.532222 -643.269472 
L 218.643333 -643.269472 
L 218.643333 -643.873152 
L 273.754444 -643.873152 
L 273.754444 -644.00128 
L 273.754444 -644.00128 
L 218.643333 -644.00128 
L 218.643333 -643.584864 
L 163.532222 -643.584864 
L 163.532222 -643.69328 
L 108.421111 -643.69328 
L 108.421111 -643.932288 
L 53.31 -643.932288 
z
"/>
    </defs>
    <g clip-path="url(#p7f3e0fd750)">
     <use xlink:href="#meed4ffdfab" x="0" y="695.276" style="fill: #b3cde3"/>
    </g>
   </g>
   <g id="PolyCollection_51">
    <defs>
     <path id="m05c51042a3" d="M 279.265556 -643.34832 
L 279.265556 -643.158592 
L 334.376667 -643.158592 
L 334.376667 -643.301504 
L 389.487778 -643.301504 
L 389.487778 -641.372192 
L 444.598889 -641.372192 
L 444.598889 -642.67226 
L 499.71 -642.67226 
L 499.71 -643.237748 
L 499.71 -643.237748 
L 444.598889 -643.237748 
L 444.598889 -641.800928 
L 389.487778 -641.800928 
L 389.487778 -643.445648 
L 334.376667 -643.445648 
L 334.376667 -643.34832 
L 279.265556 -643.34832 
z
"/>
    </defs>
    <g clip-path="url(#p7f3e0fd750)">
     <use xlink:href="#m05c51042a3" x="0" y="695.276" style="fill: #ccebc5"/>
    </g>
   </g>
   <g id="PolyCollection_52">
    <defs>
     <path id="mc9ecf109f2" d="M 53.31 -644.0752 
L 53.31 -643.932288 
L 108.421111 -643.932288 
L 108.421111 -643.69328 
L 163.532222 -643.69328 
L 163.532222 -643.584864 
L 218.643333 -643.584864 
L 218.643333 -644.00128 
L 273.754444 -644.00128 
L 273.754444 -644.282176 
L 273.754444 -644.282176 
L 218.643333 -644.282176 
L 218.643333 -644.011136 
L 163.532222 -644.011136 
L 163.532222 -643.974176 
L 108.421111 -643.974176 
L 108.421111 -644.0752 
L 53.31 -644.0752 
z
"/>
    </defs>
    <g clip-path="url(#p7f3e0fd750)">
     <use xlink:href="#mc9ecf109f2" x="0" y="695.276" style="fill: #ccebc5"/>
    </g>
   </g>
   <g id="PolyCollection_53">
    <defs>
     <path id="mc9015af818" d="M 279.265556 -643.34832 
L 279.265556 -643.34832 
L 334.376667 -643.34832 
L 334.376667 -643.445648 
L 389.487778 -643.445648 
L 389.487778 -641.800928 
L 444.598889 -641.800928 
L 444.598889 -643.237748 
L 499.71 -643.237748 
L 499.71 -643.731164 
L 499.71 -643.731164 
L 444.598889 -643.731164 
L 444.598889 -643.2128 
L 389.487778 -643.2128 
L 389.487778 -643.445648 
L 334.376667 -643.445648 
L 334.376667 -643.34832 
L 279.265556 -643.34832 
z
"/>
    </defs>
    <g clip-path="url(#p7f3e0fd750)">
     <use xlink:href="#mc9015af818" x="0" y="695.276" style="fill: #decbe4"/>
    </g>
   </g>
   <g id="PolyCollection_54">
    <defs>
     <path id="m23ac85e937" d="M 53.31 -644.0752 
L 53.31 -644.0752 
L 108.421111 -644.0752 
L 108.421111 -643.974176 
L 163.532222 -643.974176 
L 163.532222 -644.011136 
L 218.643333 -644.011136 
L 218.643333 -644.282176 
L 273.754444 -644.282176 
L 273.754444 -644.30928 
L 273.754444 -644.30928 
L 218.643333 -644.30928 
L 218.643333 -644.37088 
L 163.532222 -644.37088 
L 163.532222 -643.974176 
L 108.421111 -643.974176 
L 108.421111 -644.0752 
L 53.31 -644.0752 
z
"/>
    </defs>
    <g clip-path="url(#p7f3e0fd750)">
     <use xlink:href="#m23ac85e937" x="0" y="695.276" style="fill: #decbe4"/>
    </g>
   </g>
   <g id="PolyCollection_55">
    <defs>
     <path id="mf2fd77fc9d" d="M 279.265556 -643.678496 
L 279.265556 -643.34832 
L 334.376667 -643.34832 
L 334.376667 -643.445648 
L 389.487778 -643.445648 
L 389.487778 -643.2128 
L 444.598889 -643.2128 
L 444.598889 -643.731164 
L 499.71 -643.731164 
L 499.71 -644.013908 
L 499.71 -644.013908 
L 444.598889 -644.013908 
L 444.598889 -643.3976 
L 389.487778 -643.3976 
L 389.487778 -643.825412 
L 334.376667 -643.825412 
L 334.376667 -643.678496 
L 279.265556 -643.678496 
z
"/>
    </defs>
    <g clip-path="url(#p7f3e0fd750)">
     <use xlink:href="#mf2fd77fc9d" x="0" y="695.276" style="fill: #fed9a6"/>
    </g>
   </g>
   <g id="PolyCollection_56">
    <defs>
     <path id="ma8dbf5826f" d="M 53.31 -644.304352 
L 53.31 -644.0752 
L 108.421111 -644.0752 
L 108.421111 -643.974176 
L 163.532222 -643.974176 
L 163.532222 -644.37088 
L 218.643333 -644.37088 
L 218.643333 -644.30928 
L 273.754444 -644.30928 
L 273.754444 -644.380736 
L 273.754444 -644.380736 
L 218.643333 -644.380736 
L 218.643333 -644.430016 
L 163.532222 -644.430016 
L 163.532222 -644.144192 
L 108.421111 -644.144192 
L 108.421111 -644.304352 
L 53.31 -644.304352 
z
"/>
    </defs>
    <g clip-path="url(#p7f3e0fd750)">
     <use xlink:href="#ma8dbf5826f" x="0" y="695.276" style="fill: #fed9a6"/>
    </g>
   </g>
   <g id="PolyCollection_57">
    <defs>
     <path id="m555c27371e" d="M 279.265556 -643.917504 
L 279.265556 -643.678496 
L 334.376667 -643.678496 
L 334.376667 -643.825412 
L 389.487778 -643.825412 
L 389.487778 -643.3976 
L 444.598889 -643.3976 
L 444.598889 -644.013908 
L 499.71 -644.013908 
L 499.71 -644.146964 
L 499.71 -644.146964 
L 444.598889 -644.146964 
L 444.598889 -643.892864 
L 389.487778 -643.892864 
L 389.487778 -644.011136 
L 334.376667 -644.011136 
L 334.376667 -643.917504 
L 279.265556 -643.917504 
z
"/>
    </defs>
    <g clip-path="url(#p7f3e0fd750)">
     <use xlink:href="#m555c27371e" x="0" y="695.276" style="fill: #ffffcc"/>
    </g>
   </g>
   <g id="PolyCollection_58">
    <defs>
     <path id="m46eaa9f48b" d="M 53.31 -644.390592 
L 53.31 -644.304352 
L 108.421111 -644.304352 
L 108.421111 -644.144192 
L 163.532222 -644.144192 
L 163.532222 -644.430016 
L 218.643333 -644.430016 
L 218.643333 -644.380736 
L 273.754444 -644.380736 
L 273.754444 -644.499008 
L 273.754444 -644.499008 
L 218.643333 -644.499008 
L 218.643333 -644.452192 
L 163.532222 -644.452192 
L 163.532222 -644.200864 
L 108.421111 -644.200864 
L 108.421111 -644.390592 
L 53.31 -644.390592 
z
"/>
    </defs>
    <g clip-path="url(#p7f3e0fd750)">
     <use xlink:href="#m46eaa9f48b" x="0" y="695.276" style="fill: #ffffcc"/>
    </g>
   </g>
   <g id="PolyCollection_59">
    <defs>
     <path id="m347c359bf2" d="M 279.265556 -644.048096 
L 279.265556 -643.917504 
L 334.376667 -643.917504 
L 334.376667 -644.011136 
L 389.487778 -644.011136 
L 389.487778 -643.892864 
L 444.598889 -643.892864 
L 444.598889 -644.146964 
L 499.71 -644.146964 
L 499.71 -644.318828 
L 499.71 -644.318828 
L 444.598889 -644.318828 
L 444.598889 -644.1984 
L 389.487778 -644.1984 
L 389.487778 -644.149736 
L 334.376667 -644.149736 
L 334.376667 -644.048096 
L 279.265556 -644.048096 
z
"/>
    </defs>
    <g clip-path="url(#p7f3e0fd750)">
     <use xlink:href="#m347c359bf2" x="0" y="695.276" style="fill: #e5d8bd"/>
    </g>
   </g>
   <g id="PolyCollection_60">
    <defs>
     <path id="m807250a927" d="M 53.31 -644.486688 
L 53.31 -644.390592 
L 108.421111 -644.390592 
L 108.421111 -644.200864 
L 163.532222 -644.200864 
L 163.532222 -644.452192 
L 218.643333 -644.452192 
L 218.643333 -644.499008 
L 273.754444 -644.499008 
L 273.754444 -644.632064 
L 273.754444 -644.632064 
L 218.643333 -644.632064 
L 218.643333 -644.553216 
L 163.532222 -644.553216 
L 163.532222 -644.338848 
L 108.421111 -644.338848 
L 108.421111 -644.486688 
L 53.31 -644.486688 
z
"/>
    </defs>
    <g clip-path="url(#p7f3e0fd750)">
     <use xlink:href="#m807250a927" x="0" y="695.276" style="fill: #e5d8bd"/>
    </g>
   </g>
   <g id="PolyCollection_61">
    <defs>
     <path id="m714395d318" d="M 279.265556 -644.269856 
L 279.265556 -644.048096 
L 334.376667 -644.048096 
L 334.376667 -644.149736 
L 389.487778 -644.149736 
L 389.487778 -644.1984 
L 444.598889 -644.1984 
L 444.598889 -644.318828 
L 499.71 -644.318828 
L 499.71 -644.462972 
L 499.71 -644.462972 
L 444.598889 -644.462972 
L 444.598889 -644.35856 
L 389.487778 -644.35856 
L 389.487778 -644.33546 
L 334.376667 -644.33546 
L 334.376667 -644.269856 
L 279.265556 -644.269856 
z
"/>
    </defs>
    <g clip-path="url(#p7f3e0fd750)">
     <use xlink:href="#m714395d318" x="0" y="695.276" style="fill: #fddaec"/>
    </g>
   </g>
   <g id="PolyCollection_62">
    <defs>
     <path id="m7d7d598f7d" d="M 53.31 -644.577856 
L 53.31 -644.486688 
L 108.421111 -644.486688 
L 108.421111 -644.338848 
L 163.532222 -644.338848 
L 163.532222 -644.553216 
L 218.643333 -644.553216 
L 218.643333 -644.632064 
L 273.754444 -644.632064 
L 273.754444 -644.705984 
L 273.754444 -644.705984 
L 218.643333 -644.705984 
L 218.643333 -644.671488 
L 163.532222 -644.671488 
L 163.532222 -644.459584 
L 108.421111 -644.459584 
L 108.421111 -644.577856 
L 53.31 -644.577856 
z
"/>
    </defs>
    <g clip-path="url(#p7f3e0fd750)">
     <use xlink:href="#m7d7d598f7d" x="0" y="695.276" style="fill: #fddaec"/>
    </g>
   </g>
   <g id="PolyCollection_63">
    <defs>
     <path id="m0373e0aa3f" d="M 279.265556 -644.388128 
L 279.265556 -644.269856 
L 334.376667 -644.269856 
L 334.376667 -644.33546 
L 389.487778 -644.33546 
L 389.487778 -644.35856 
L 444.598889 -644.35856 
L 444.598889 -644.462972 
L 499.71 -644.462972 
L 499.71 -644.662556 
L 499.71 -644.662556 
L 444.598889 -644.662556 
L 444.598889 -644.607424 
L 389.487778 -644.607424 
L 389.487778 -644.37704 
L 334.376667 -644.37704 
L 334.376667 -644.388128 
L 279.265556 -644.388128 
z
"/>
    </defs>
    <g clip-path="url(#p7f3e0fd750)">
     <use xlink:href="#m0373e0aa3f" x="0" y="695.276" style="fill: #f2f2f2"/>
    </g>
   </g>
   <g id="PolyCollection_64">
    <defs>
     <path id="m91aadf39fe" d="M 53.31 -644.661632 
L 53.31 -644.577856 
L 108.421111 -644.577856 
L 108.421111 -644.459584 
L 163.532222 -644.459584 
L 163.532222 -644.671488 
L 218.643333 -644.671488 
L 218.643333 -644.705984 
L 273.754444 -644.705984 
L 273.754444 -644.757728 
L 273.754444 -644.757728 
L 218.643333 -644.757728 
L 218.643333 -644.718304 
L 163.532222 -644.718304 
L 163.532222 -644.600032 
L 108.421111 -644.600032 
L 108.421111 -644.661632 
L 53.31 -644.661632 
z
"/>
    </defs>
    <g clip-path="url(#p7f3e0fd750)">
     <use xlink:href="#m91aadf39fe" x="0" y="695.276" style="fill: #f2f2f2"/>
    </g>
   </g>
   <g id="PolyCollection_65">
    <defs>
     <path id="ma28a6a5642" d="M 279.265556 -644.46944 
L 279.265556 -644.388128 
L 334.376667 -644.388128 
L 334.376667 -644.37704 
L 389.487778 -644.37704 
L 389.487778 -644.607424 
L 444.598889 -644.607424 
L 444.598889 -644.662556 
L 499.71 -644.662556 
L 499.71 -644.745716 
L 499.71 -644.745716 
L 444.598889 -644.745716 
L 444.598889 -644.742944 
L 389.487778 -644.742944 
L 389.487778 -644.44634 
L 334.376667 -644.44634 
L 334.376667 -644.46944 
L 279.265556 -644.46944 
z
"/>
    </defs>
    <g clip-path="url(#p7f3e0fd750)">
     <use xlink:href="#ma28a6a5642" x="0" y="695.276" style="fill: #fbb4ae"/>
    </g>
   </g>
   <g id="PolyCollection_66">
    <defs>
     <path id="m18844dc8c7" d="M 53.31 -644.688736 
L 53.31 -644.661632 
L 108.421111 -644.661632 
L 108.421111 -644.600032 
L 163.532222 -644.600032 
L 163.532222 -644.718304 
L 218.643333 -644.718304 
L 218.643333 -644.757728 
L 273.754444 -644.757728 
L 273.754444 -644.797152 
L 273.754444 -644.797152 
L 218.643333 -644.797152 
L 218.643333 -644.774976 
L 163.532222 -644.774976 
L 163.532222 -644.651776 
L 108.421111 -644.651776 
L 108.421111 -644.688736 
L 53.31 -644.688736 
z
"/>
    </defs>
    <g clip-path="url(#p7f3e0fd750)">
     <use xlink:href="#m18844dc8c7" x="0" y="695.276" style="fill: #fbb4ae"/>
    </g>
   </g>
   <g id="PolyCollection_67">
    <defs>
     <path id="mcfdf0757fd" d="M 279.265556 -644.619744 
L 279.265556 -644.46944 
L 334.376667 -644.46944 
L 334.376667 -644.44634 
L 389.487778 -644.44634 
L 389.487778 -644.742944 
L 444.598889 -644.742944 
L 444.598889 -644.745716 
L 499.71 -644.745716 
L 499.71 -644.762348 
L 499.71 -644.762348 
L 444.598889 -644.762348 
L 444.598889 -644.742944 
L 389.487778 -644.742944 
L 389.487778 -644.535044 
L 334.376667 -644.535044 
L 334.376667 -644.619744 
L 279.265556 -644.619744 
z
"/>
    </defs>
    <g clip-path="url(#p7f3e0fd750)">
     <use xlink:href="#mcfdf0757fd" x="0" y="695.276" style="fill: #b3cde3"/>
    </g>
   </g>
   <g id="PolyCollection_68">
    <defs>
     <path id="m66621a72b3" d="M 53.31 -644.757728 
L 53.31 -644.688736 
L 108.421111 -644.688736 
L 108.421111 -644.651776 
L 163.532222 -644.651776 
L 163.532222 -644.774976 
L 218.643333 -644.774976 
L 218.643333 -644.797152 
L 273.754444 -644.797152 
L 273.754444 -644.80208 
L 273.754444 -644.80208 
L 218.643333 -644.80208 
L 218.643333 -644.784832 
L 163.532222 -644.784832 
L 163.532222 -644.747872 
L 108.421111 -644.747872 
L 108.421111 -644.757728 
L 53.31 -644.757728 
z
"/>
    </defs>
    <g clip-path="url(#p7f3e0fd750)">
     <use xlink:href="#m66621a72b3" x="0" y="695.276" style="fill: #b3cde3"/>
    </g>
   </g>
   <g id="PolyCollection_69">
    <defs>
     <path id="m95f7f6be83" d="M 279.265556 -644.718304 
L 279.265556 -644.619744 
L 334.376667 -644.619744 
L 334.376667 -644.535044 
L 389.487778 -644.535044 
L 389.487778 -644.742944 
L 444.598889 -644.742944 
L 444.598889 -644.762348 
L 499.71 -644.762348 
L 499.71 -644.776208 
L 499.71 -644.776208 
L 444.598889 -644.776208 
L 444.598889 -644.757728 
L 389.487778 -644.757728 
L 389.487778 -644.72354 
L 334.376667 -644.72354 
L 334.376667 -644.718304 
L 279.265556 -644.718304 
z
"/>
    </defs>
    <g clip-path="url(#p7f3e0fd750)">
     <use xlink:href="#m95f7f6be83" x="0" y="695.276" style="fill: #ccebc5"/>
    </g>
   </g>
   <g id="PolyCollection_70">
    <defs>
     <path id="m9c2151a31f" d="M 53.31 -644.804544 
L 53.31 -644.757728 
L 108.421111 -644.757728 
L 108.421111 -644.747872 
L 163.532222 -644.747872 
L 163.532222 -644.784832 
L 218.643333 -644.784832 
L 218.643333 -644.80208 
L 273.754444 -644.80208 
L 273.754444 -644.8144 
L 273.754444 -644.8144 
L 218.643333 -644.8144 
L 218.643333 -644.797152 
L 163.532222 -644.797152 
L 163.532222 -644.772512 
L 108.421111 -644.772512 
L 108.421111 -644.804544 
L 53.31 -644.804544 
z
"/>
    </defs>
    <g clip-path="url(#p7f3e0fd750)">
     <use xlink:href="#m9c2151a31f" x="0" y="695.276" style="fill: #ccebc5"/>
    </g>
   </g>
   <g id="PolyCollection_71">
    <defs>
     <path id="m4734fa0131" d="M 279.265556 -644.770048 
L 279.265556 -644.718304 
L 334.376667 -644.718304 
L 334.376667 -644.72354 
L 389.487778 -644.72354 
L 389.487778 -644.757728 
L 444.598889 -644.757728 
L 444.598889 -644.776208 
L 499.71 -644.776208 
L 499.71 -644.809472 
L 499.71 -644.809472 
L 444.598889 -644.809472 
L 444.598889 -644.782368 
L 389.487778 -644.782368 
L 389.487778 -644.773436 
L 334.376667 -644.773436 
L 334.376667 -644.770048 
L 279.265556 -644.770048 
z
"/>
    </defs>
    <g clip-path="url(#p7f3e0fd750)">
     <use xlink:href="#m4734fa0131" x="0" y="695.276" style="fill: #a6cee3"/>
    </g>
   </g>
   <g id="PolyCollection_72">
    <defs>
     <path id="m99e210a60f" d="M 53.31 -644.82672 
L 53.31 -644.804544 
L 108.421111 -644.804544 
L 108.421111 -644.772512 
L 163.532222 -644.772512 
L 163.532222 -644.797152 
L 218.643333 -644.797152 
L 218.643333 -644.8144 
L 273.754444 -644.8144 
L 273.754444 -644.858752 
L 273.754444 -644.858752 
L 218.643333 -644.858752 
L 218.643333 -644.853824 
L 163.532222 -644.853824 
L 163.532222 -644.85136 
L 108.421111 -644.85136 
L 108.421111 -644.82672 
L 53.31 -644.82672 
z
"/>
    </defs>
    <g clip-path="url(#p7f3e0fd750)">
     <use xlink:href="#m99e210a60f" x="0" y="695.276" style="fill: #a6cee3"/>
    </g>
   </g>
   <g id="PolyCollection_73">
    <defs>
     <path id="mf656ab0c49" d="M 279.265556 -644.804544 
L 279.265556 -644.770048 
L 334.376667 -644.770048 
L 334.376667 -644.773436 
L 389.487778 -644.773436 
L 389.487778 -644.782368 
L 444.598889 -644.782368 
L 444.598889 -644.809472 
L 499.71 -644.809472 
L 499.71 -644.826104 
L 499.71 -644.826104 
L 444.598889 -644.826104 
L 444.598889 -644.804544 
L 389.487778 -644.804544 
L 389.487778 -644.817788 
L 334.376667 -644.817788 
L 334.376667 -644.804544 
L 279.265556 -644.804544 
z
"/>
    </defs>
    <g clip-path="url(#p7f3e0fd750)">
     <use xlink:href="#mf656ab0c49" x="0" y="695.276" style="fill: #1f78b4"/>
    </g>
   </g>
   <g id="PolyCollection_74">
    <defs>
     <path id="m5c6d85e4d4" d="M 53.31 -644.834112 
L 53.31 -644.82672 
L 108.421111 -644.82672 
L 108.421111 -644.85136 
L 163.532222 -644.85136 
L 163.532222 -644.853824 
L 218.643333 -644.853824 
L 218.643333 -644.858752 
L 273.754444 -644.858752 
L 273.754444 -644.861216 
L 273.754444 -644.861216 
L 218.643333 -644.861216 
L 218.643333 -644.858752 
L 163.532222 -644.858752 
L 163.532222 -644.858752 
L 108.421111 -644.858752 
L 108.421111 -644.834112 
L 53.31 -644.834112 
z
"/>
    </defs>
    <g clip-path="url(#p7f3e0fd750)">
     <use xlink:href="#m5c6d85e4d4" x="0" y="695.276" style="fill: #1f78b4"/>
    </g>
   </g>
   <g id="PolyCollection_75">
    <defs>
     <path id="m1feeb43d16" d="M 279.265556 -644.876 
L 279.265556 -644.804544 
L 334.376667 -644.804544 
L 334.376667 -644.817788 
L 389.487778 -644.817788 
L 389.487778 -644.804544 
L 444.598889 -644.804544 
L 444.598889 -644.826104 
L 499.71 -644.826104 
L 499.71 -644.876 
L 499.71 -644.876 
L 444.598889 -644.876 
L 444.598889 -644.876 
L 389.487778 -644.876 
L 389.487778 -644.876 
L 334.376667 -644.876 
L 334.376667 -644.876 
L 279.265556 -644.876 
z
"/>
    </defs>
    <g clip-path="url(#p7f3e0fd750)">
     <use xlink:href="#m1feeb43d16" x="0" y="695.276" style="fill: #ffffff"/>
    </g>
   </g>
   <g id="PolyCollection_76">
    <defs>
     <path id="m2a4f570fca" d="M 53.31 -644.876 
L 53.31 -644.834112 
L 108.421111 -644.834112 
L 108.421111 -644.858752 
L 163.532222 -644.858752 
L 163.532222 -644.858752 
L 218.643333 -644.858752 
L 218.643333 -644.861216 
L 273.754444 -644.861216 
L 273.754444 -644.876 
L 273.754444 -644.876 
L 218.643333 -644.876 
L 218.643333 -644.876 
L 163.532222 -644.876 
L 163.532222 -644.876 
L 108.421111 -644.876 
L 108.421111 -644.876 
L 53.31 -644.876 
z
"/>
    </defs>
    <g clip-path="url(#p7f3e0fd750)">
     <use xlink:href="#m2a4f570fca" x="0" y="695.276" style="fill: #ffffff"/>
    </g>
   </g>
   <g id="patch_3">
    <path d="M 279.265556 383.04 
L 499.71 383.04 
L 499.71 50.4 
L 279.265556 50.4 
L 279.265556 383.04 
z
" clip-path="url(#p7f3e0fd750)" style="fill: none; stroke: #808080; stroke-linejoin: miter"/>
   </g>
   <g id="patch_4">
    <path d="M 53.31 383.04 
L 273.754444 383.04 
L 273.754444 50.4 
L 53.31 50.4 
L 53.31 383.04 
z
" clip-path="url(#p7f3e0fd750)" style="fill: none; stroke: #808080; stroke-linejoin: miter"/>
   </g>
   <g id="line2d_23">
    <path d="M 444.598889 383.04 
L 444.598889 50.4 
" clip-path="url(#p7f3e0fd750)" style="fill: none; stroke: #ffffff; stroke-linecap: round"/>
   </g>
   <g id="line2d_24">
    <path d="M 334.376667 383.04 
L 334.376667 50.4 
" clip-path="url(#p7f3e0fd750)" style="fill: none; stroke: #ffffff; stroke-linecap: round"/>
   </g>
   <g id="line2d_25">
    <path d="M 218.643333 383.04 
L 218.643333 50.4 
" clip-path="url(#p7f3e0fd750)" style="fill: none; stroke: #ffffff; stroke-linecap: round"/>
   </g>
   <g id="line2d_26">
    <path d="M 108.421111 383.04 
L 108.421111 50.4 
" clip-path="url(#p7f3e0fd750)" style="fill: none; stroke: #ffffff; stroke-linecap: round"/>
   </g>
   <g id="patch_5">
    <path d="M 53.31 383.04 
L 53.31 50.4 
" style="fill: none; stroke: #ffffff; stroke-width: 1.25; stroke-linejoin: miter; stroke-linecap: square"/>
   </g>
   <g id="patch_6">
    <path d="M 499.71 383.04 
L 499.71 50.4 
" style="fill: none; stroke: #ffffff; stroke-width: 1.25; stroke-linejoin: miter; stroke-linecap: square"/>
   </g>
   <g id="patch_7">
    <path d="M 53.31 383.04 
L 499.71 383.04 
" style="fill: none; stroke: #ffffff; stroke-width: 1.25; stroke-linejoin: miter; stroke-linecap: square"/>
   </g>
   <g id="patch_8">
    <path d="M 53.31 50.4 
L 499.71 50.4 
" style="fill: none; stroke: #ffffff; stroke-width: 1.25; stroke-linejoin: miter; stroke-linecap: square"/>
   </g>
   <g id="legend_1">
    <g id="patch_9">
     <path d="M 511.874 688.076 
L 722.649469 688.076 
Q 724.849469 688.076 724.849469 685.876 
L 724.849469 41.468 
Q 724.849469 39.268 722.649469 39.268 
L 511.874 39.268 
Q 509.674 39.268 509.674 41.468 
L 509.674 685.876 
Q 509.674 688.076 511.874 688.076 
z
" style="fill: #eaeaf2; opacity: 0.8; stroke: #cccccc; stroke-linejoin: miter"/>
    </g>
    <g id="text_16">
     <text style="fill: #262626; font: 700 12px 'sans-serif'" transform="translate(547.483609 52.786125)">Aggregrated "mean"</text>
     <text style="fill: #262626; font: 700 12px 'sans-serif'" transform="translate(547.483609 66.31725)">Rank: Family</text>
    </g>
    <g id="patch_10">
     <path d="M 514.074 82.764906 
L 536.074 82.764906 
L 536.074 75.064906 
L 514.074 75.064906 
z
" style="fill: #1f78b4; stroke: #1f78b4; stroke-linejoin: miter"/>
    </g>
    <g id="text_17">
     <text style="fill: #262626; font: 11px 'sans-serif'; text-anchor: start" x="544.874" y="82.764906" transform="rotate(-0, 544.874, 82.764906)">Muribaculaceae</text>
    </g>
    <g id="patch_11">
     <path d="M 514.074 98.910844 
L 536.074 98.910844 
L 536.074 91.210844 
L 514.074 91.210844 
z
" style="fill: #b2df8a; stroke: #b2df8a; stroke-linejoin: miter"/>
    </g>
    <g id="text_18">
     <text style="fill: #262626; font: 11px 'sans-serif'; text-anchor: start" x="544.874" y="98.910844" transform="rotate(-0, 544.874, 98.910844)">Lachnospiraceae</text>
    </g>
    <g id="patch_12">
     <path d="M 514.074 115.056781 
L 536.074 115.056781 
L 536.074 107.356781 
L 514.074 107.356781 
z
" style="fill: #33a02c; stroke: #33a02c; stroke-linejoin: miter"/>
    </g>
    <g id="text_19">
     <text style="fill: #262626; font: 11px 'sans-serif'; text-anchor: start" x="544.874" y="115.056781" transform="rotate(-0, 544.874, 115.056781)">Erysipelotrichaceae</text>
    </g>
    <g id="patch_13">
     <path d="M 514.074 131.202719 
L 536.074 131.202719 
L 536.074 123.502719 
L 514.074 123.502719 
z
" style="fill: #fb9a99; stroke: #fb9a99; stroke-linejoin: miter"/>
    </g>
    <g id="text_20">
     <text style="fill: #262626; font: 11px 'sans-serif'; text-anchor: start" x="544.874" y="131.202719" transform="rotate(-0, 544.874, 131.202719)">Bacteroidaceae</text>
    </g>
    <g id="patch_14">
     <path d="M 514.074 147.348656 
L 536.074 147.348656 
L 536.074 139.648656 
L 514.074 139.648656 
z
" style="fill: #e31a1c; stroke: #e31a1c; stroke-linejoin: miter"/>
    </g>
    <g id="text_21">
     <text style="fill: #262626; font: 11px 'sans-serif'; text-anchor: start" x="544.874" y="147.348656" transform="rotate(-0, 544.874, 147.348656)">Lactobacillaceae</text>
    </g>
    <g id="patch_15">
     <path d="M 514.074 163.494594 
L 536.074 163.494594 
L 536.074 155.794594 
L 514.074 155.794594 
z
" style="fill: #fdbf6f; stroke: #fdbf6f; stroke-linejoin: miter"/>
    </g>
    <g id="text_22">
     <text style="fill: #262626; font: 11px 'sans-serif'; text-anchor: start" x="544.874" y="163.494594" transform="rotate(-0, 544.874, 163.494594)">Oscillospiraceae_88309</text>
    </g>
    <g id="patch_16">
     <path d="M 514.074 179.946469 
L 536.074 179.946469 
L 536.074 172.246469 
L 514.074 172.246469 
z
" style="fill: #ff7f00; stroke: #ff7f00; stroke-linejoin: miter"/>
    </g>
    <g id="text_23">
     <text style="fill: #262626; font: 11px 'sans-serif'; text-anchor: start" x="544.874" y="179.946469" transform="rotate(-0, 544.874, 179.946469)">Akkermansiaceae</text>
    </g>
    <g id="patch_17">
     <path d="M 514.074 196.092406 
L 536.074 196.092406 
L 536.074 188.392406 
L 514.074 188.392406 
z
" style="fill: #cab2d6; stroke: #cab2d6; stroke-linejoin: miter"/>
    </g>
    <g id="text_24">
     <text style="fill: #262626; font: 11px 'sans-serif'; text-anchor: start" x="544.874" y="196.092406" transform="rotate(-0, 544.874, 196.092406)">unclassified family</text>
    </g>
    <g id="patch_18">
     <path d="M 514.074 212.238344 
L 536.074 212.238344 
L 536.074 204.538344 
L 514.074 204.538344 
z
" style="fill: #6a3d9a; stroke: #6a3d9a; stroke-linejoin: miter"/>
    </g>
    <g id="text_25">
     <text style="fill: #262626; font: 11px 'sans-serif'; text-anchor: start" x="544.874" y="212.238344" transform="rotate(-0, 544.874, 212.238344)">Rikenellaceae</text>
    </g>
    <g id="patch_19">
     <path d="M 514.074 228.384281 
L 536.074 228.384281 
L 536.074 220.684281 
L 514.074 220.684281 
z
" style="fill: #ffff99; stroke: #ffff99; stroke-linejoin: miter"/>
    </g>
    <g id="text_26">
     <text style="fill: #262626; font: 11px 'sans-serif'; text-anchor: start" x="544.874" y="228.384281" transform="rotate(-0, 544.874, 228.384281)">Ruminococcaceae</text>
    </g>
    <g id="patch_20">
     <path d="M 514.074 244.530219 
L 536.074 244.530219 
L 536.074 236.830219 
L 514.074 236.830219 
z
" style="fill: #b15928; stroke: #b15928; stroke-linejoin: miter"/>
    </g>
    <g id="text_27">
     <text style="fill: #262626; font: 11px 'sans-serif'; text-anchor: start" x="544.874" y="244.530219" transform="rotate(-0, 544.874, 244.530219)">CAG-508</text>
    </g>
    <g id="patch_21">
     <path d="M 514.074 260.676156 
L 536.074 260.676156 
L 536.074 252.976156 
L 514.074 252.976156 
z
" style="fill: #1b9e77; stroke: #1b9e77; stroke-linejoin: miter"/>
    </g>
    <g id="text_28">
     <text style="fill: #262626; font: 11px 'sans-serif'; text-anchor: start" x="544.874" y="260.676156" transform="rotate(-0, 544.874, 260.676156)">Clostridiaceae_222000</text>
    </g>
    <g id="patch_22">
     <path d="M 514.074 277.128031 
L 536.074 277.128031 
L 536.074 269.428031 
L 514.074 269.428031 
z
" style="fill: #d95f02; stroke: #d95f02; stroke-linejoin: miter"/>
    </g>
    <g id="text_29">
     <text style="fill: #262626; font: 11px 'sans-serif'; text-anchor: start" x="544.874" y="277.128031" transform="rotate(-0, 544.874, 277.128031)">Turicibacteraceae</text>
    </g>
    <g id="patch_23">
     <path d="M 514.074 293.273969 
L 536.074 293.273969 
L 536.074 285.573969 
L 514.074 285.573969 
z
" style="fill: #7570b3; stroke: #7570b3; stroke-linejoin: miter"/>
    </g>
    <g id="text_30">
     <text style="fill: #262626; font: 11px 'sans-serif'; text-anchor: start" x="544.874" y="293.273969" transform="rotate(-0, 544.874, 293.273969)">Desulfovibrionaceae</text>
    </g>
    <g id="patch_24">
     <path d="M 514.074 309.419906 
L 536.074 309.419906 
L 536.074 301.719906 
L 514.074 301.719906 
z
" style="fill: #e7298a; stroke: #e7298a; stroke-linejoin: miter"/>
    </g>
    <g id="text_31">
     <text style="fill: #262626; font: 11px 'sans-serif'; text-anchor: start" x="544.874" y="309.419906" transform="rotate(-0, 544.874, 309.419906)">Anaerotignaceae</text>
    </g>
    <g id="patch_25">
     <path d="M 514.074 325.565844 
L 536.074 325.565844 
L 536.074 317.865844 
L 514.074 317.865844 
z
" style="fill: #66a61e; stroke: #66a61e; stroke-linejoin: miter"/>
    </g>
    <g id="text_32">
     <text style="fill: #262626; font: 11px 'sans-serif'; text-anchor: start" x="544.874" y="325.565844" transform="rotate(-0, 544.874, 325.565844)">Acutalibacteraceae</text>
    </g>
    <g id="patch_26">
     <path d="M 514.074 341.711781 
L 536.074 341.711781 
L 536.074 334.011781 
L 514.074 334.011781 
z
" style="fill: #e6ab02; stroke: #e6ab02; stroke-linejoin: miter"/>
    </g>
    <g id="text_33">
     <text style="fill: #262626; font: 11px 'sans-serif'; text-anchor: start" x="544.874" y="341.711781" transform="rotate(-0, 544.874, 341.711781)">Eggerthellaceae</text>
    </g>
    <g id="patch_27">
     <path d="M 514.074 357.857719 
L 536.074 357.857719 
L 536.074 350.157719 
L 514.074 350.157719 
z
" style="fill: #a6761d; stroke: #a6761d; stroke-linejoin: miter"/>
    </g>
    <g id="text_34">
     <text style="fill: #262626; font: 11px 'sans-serif'; text-anchor: start" x="544.874" y="357.857719" transform="rotate(-0, 544.874, 357.857719)">Dehalobacteriaceae</text>
    </g>
    <g id="patch_28">
     <path d="M 514.074 374.003656 
L 536.074 374.003656 
L 536.074 366.303656 
L 514.074 366.303656 
z
" style="fill: #666666; stroke: #666666; stroke-linejoin: miter"/>
    </g>
    <g id="text_35">
     <text style="fill: #262626; font: 11px 'sans-serif'; text-anchor: start" x="544.874" y="374.003656" transform="rotate(-0, 544.874, 374.003656)">Coprobacillaceae</text>
    </g>
    <g id="patch_29">
     <path d="M 514.074 390.149594 
L 536.074 390.149594 
L 536.074 382.449594 
L 514.074 382.449594 
z
" style="fill: #1b9e77; stroke: #1b9e77; stroke-linejoin: miter"/>
    </g>
    <g id="text_36">
     <text style="fill: #262626; font: 11px 'sans-serif'; text-anchor: start" x="544.874" y="390.149594" transform="rotate(-0, 544.874, 390.149594)">Butyricicoccaceae</text>
    </g>
    <g id="patch_30">
     <path d="M 514.074 406.295531 
L 536.074 406.295531 
L 536.074 398.595531 
L 514.074 398.595531 
z
" style="fill: #d95f02; stroke: #d95f02; stroke-linejoin: miter"/>
    </g>
    <g id="text_37">
     <text style="fill: #262626; font: 11px 'sans-serif'; text-anchor: start" x="544.874" y="406.295531" transform="rotate(-0, 544.874, 406.295531)">UBA932</text>
    </g>
    <g id="patch_31">
     <path d="M 514.074 422.441469 
L 536.074 422.441469 
L 536.074 414.741469 
L 514.074 414.741469 
z
" style="fill: #7570b3; stroke: #7570b3; stroke-linejoin: miter"/>
    </g>
    <g id="text_38">
     <text style="fill: #262626; font: 11px 'sans-serif'; text-anchor: start" x="544.874" y="422.441469" transform="rotate(-0, 544.874, 422.441469)">Peptostreptococcaceae_256921</text>
    </g>
    <g id="patch_32">
     <path d="M 514.074 438.893344 
L 536.074 438.893344 
L 536.074 431.193344 
L 514.074 431.193344 
z
" style="fill: #e7298a; stroke: #e7298a; stroke-linejoin: miter"/>
    </g>
    <g id="text_39">
     <text style="fill: #262626; font: 11px 'sans-serif'; text-anchor: start" x="544.874" y="438.893344" transform="rotate(-0, 544.874, 438.893344)">Marinifilaceae</text>
    </g>
    <g id="patch_33">
     <path d="M 514.074 455.039281 
L 536.074 455.039281 
L 536.074 447.339281 
L 514.074 447.339281 
z
" style="fill: #fbb4ae; stroke: #fbb4ae; stroke-linejoin: miter"/>
    </g>
    <g id="text_40">
     <text style="fill: #262626; font: 11px 'sans-serif'; text-anchor: start" x="544.874" y="455.039281" transform="rotate(-0, 544.874, 455.039281)">Gastranaerophilaceae</text>
    </g>
    <g id="patch_34">
     <path d="M 514.074 471.185219 
L 536.074 471.185219 
L 536.074 463.485219 
L 514.074 463.485219 
z
" style="fill: #b3cde3; stroke: #b3cde3; stroke-linejoin: miter"/>
    </g>
    <g id="text_41">
     <text style="fill: #262626; font: 11px 'sans-serif'; text-anchor: start" x="544.874" y="471.185219" transform="rotate(-0, 544.874, 471.185219)">Atopobiaceae</text>
    </g>
    <g id="patch_35">
     <path d="M 514.074 487.331156 
L 536.074 487.331156 
L 536.074 479.631156 
L 514.074 479.631156 
z
" style="fill: #ccebc5; stroke: #ccebc5; stroke-linejoin: miter"/>
    </g>
    <g id="text_42">
     <text style="fill: #262626; font: 11px 'sans-serif'; text-anchor: start" x="544.874" y="487.331156" transform="rotate(-0, 544.874, 487.331156)">Burkholderiaceae_A_595427</text>
    </g>
    <g id="patch_36">
     <path d="M 514.074 503.783031 
L 536.074 503.783031 
L 536.074 496.083031 
L 514.074 496.083031 
z
" style="fill: #decbe4; stroke: #decbe4; stroke-linejoin: miter"/>
    </g>
    <g id="text_43">
     <text style="fill: #262626; font: 11px 'sans-serif'; text-anchor: start" x="544.874" y="503.783031" transform="rotate(-0, 544.874, 503.783031)">Bifidobacteriaceae</text>
    </g>
    <g id="patch_37">
     <path d="M 514.074 519.928969 
L 536.074 519.928969 
L 536.074 512.228969 
L 514.074 512.228969 
z
" style="fill: #fed9a6; stroke: #fed9a6; stroke-linejoin: miter"/>
    </g>
    <g id="text_44">
     <text style="fill: #262626; font: 11px 'sans-serif'; text-anchor: start" x="544.874" y="519.928969" transform="rotate(-0, 544.874, 519.928969)">Tannerellaceae</text>
    </g>
    <g id="patch_38">
     <path d="M 514.074 536.074906 
L 536.074 536.074906 
L 536.074 528.374906 
L 514.074 528.374906 
z
" style="fill: #ffffcc; stroke: #ffffcc; stroke-linejoin: miter"/>
    </g>
    <g id="text_45">
     <text style="fill: #262626; font: 11px 'sans-serif'; text-anchor: start" x="544.874" y="536.074906" transform="rotate(-0, 544.874, 536.074906)">UBA1381</text>
    </g>
    <g id="patch_39">
     <path d="M 514.074 552.220844 
L 536.074 552.220844 
L 536.074 544.520844 
L 514.074 544.520844 
z
" style="fill: #e5d8bd; stroke: #e5d8bd; stroke-linejoin: miter"/>
    </g>
    <g id="text_46">
     <text style="fill: #262626; font: 11px 'sans-serif'; text-anchor: start" x="544.874" y="552.220844" transform="rotate(-0, 544.874, 552.220844)">UBA660</text>
    </g>
    <g id="patch_40">
     <path d="M 514.074 568.366781 
L 536.074 568.366781 
L 536.074 560.666781 
L 514.074 560.666781 
z
" style="fill: #fddaec; stroke: #fddaec; stroke-linejoin: miter"/>
    </g>
    <g id="text_47">
     <text style="fill: #262626; font: 11px 'sans-serif'; text-anchor: start" x="544.874" y="568.366781" transform="rotate(-0, 544.874, 568.366781)">Anaerovoracaceae</text>
    </g>
    <g id="patch_41">
     <path d="M 514.074 584.512719 
L 536.074 584.512719 
L 536.074 576.812719 
L 514.074 576.812719 
z
" style="fill: #f2f2f2; stroke: #f2f2f2; stroke-linejoin: miter"/>
    </g>
    <g id="text_48">
     <text style="fill: #262626; font: 11px 'sans-serif'; text-anchor: start" x="544.874" y="584.512719" transform="rotate(-0, 544.874, 584.512719)">CAG-239</text>
    </g>
    <g id="patch_42">
     <path d="M 514.074 600.658656 
L 536.074 600.658656 
L 536.074 592.958656 
L 514.074 592.958656 
z
" style="fill: #fbb4ae; stroke: #fbb4ae; stroke-linejoin: miter"/>
    </g>
    <g id="text_49">
     <text style="fill: #262626; font: 11px 'sans-serif'; text-anchor: start" x="544.874" y="600.658656" transform="rotate(-0, 544.874, 600.658656)">Aristaeellaceae</text>
    </g>
    <g id="patch_43">
     <path d="M 514.074 616.804594 
L 536.074 616.804594 
L 536.074 609.104594 
L 514.074 609.104594 
z
" style="fill: #b3cde3; stroke: #b3cde3; stroke-linejoin: miter"/>
    </g>
    <g id="text_50">
     <text style="fill: #262626; font: 11px 'sans-serif'; text-anchor: start" x="544.874" y="616.804594" transform="rotate(-0, 544.874, 616.804594)">Borkfalkiaceae</text>
    </g>
    <g id="patch_44">
     <path d="M 514.074 632.950531 
L 536.074 632.950531 
L 536.074 625.250531 
L 514.074 625.250531 
z
" style="fill: #ccebc5; stroke: #ccebc5; stroke-linejoin: miter"/>
    </g>
    <g id="text_51">
     <text style="fill: #262626; font: 11px 'sans-serif'; text-anchor: start" x="544.874" y="632.950531" transform="rotate(-0, 544.874, 632.950531)">CAG-314</text>
    </g>
    <g id="patch_45">
     <path d="M 514.074 649.096469 
L 536.074 649.096469 
L 536.074 641.396469 
L 514.074 641.396469 
z
" style="fill: #a6cee3; stroke: #a6cee3; stroke-linejoin: miter"/>
    </g>
    <g id="text_52">
     <text style="fill: #262626; font: 11px 'sans-serif'; text-anchor: start" x="544.874" y="649.096469" transform="rotate(-0, 544.874, 649.096469)">CAG-272</text>
    </g>
    <g id="patch_46">
     <path d="M 514.074 665.242406 
L 536.074 665.242406 
L 536.074 657.542406 
L 514.074 657.542406 
z
" style="fill: #1f78b4; stroke: #1f78b4; stroke-linejoin: miter"/>
    </g>
    <g id="text_53">
     <text style="fill: #262626; font: 11px 'sans-serif'; text-anchor: start" x="544.874" y="665.242406" transform="rotate(-0, 544.874, 665.242406)">Anaerofustaceae</text>
    </g>
    <g id="patch_47">
     <path d="M 514.074 681.388344 
L 536.074 681.388344 
L 536.074 673.688344 
L 514.074 673.688344 
z
" style="fill: #ffffff; stroke: #ffffff; stroke-linejoin: miter"/>
    </g>
    <g id="text_54">
     <text style="fill: #262626; font: 11px 'sans-serif'; text-anchor: start" x="544.874" y="681.388344" transform="rotate(-0, 544.874, 681.388344)"> abundance</text>
    </g>
   </g>
  </g>
  <g id="axes_2">
   <g id="matplotlib.axis_3">
    <g id="xtick_9">
     <g id="text_55">
      <text style="fill: #262626; font: 11px 'sans-serif'" transform="translate(377.991059 26.29475)">12w</text>
      <text style="fill: #262626; font: 11px 'sans-serif'" transform="translate(370.102856 38.612344)">(n=34)</text>
     </g>
    </g>
    <g id="xtick_10">
     <g id="text_56">
      <text style="fill: #262626; font: 11px 'sans-serif'" transform="translate(156.541207 26.29475)">d0</text>
      <text style="fill: #262626; font: 11px 'sans-serif'" transform="translate(144.1473 38.612344)">(n=36)</text>
     </g>
    </g>
   </g>
   <g id="patch_48">
    <path d="M 53.31 383.04 
L 53.31 50.4 
" style="fill: none; stroke: #ffffff; stroke-width: 1.25; stroke-linejoin: miter; stroke-linecap: square"/>
   </g>
   <g id="patch_49">
    <path d="M 499.71 383.04 
L 499.71 50.4 
" style="fill: none; stroke: #ffffff; stroke-width: 1.25; stroke-linejoin: miter; stroke-linecap: square"/>
   </g>
   <g id="patch_50">
    <path d="M 53.31 383.04 
L 499.71 383.04 
" style="fill: none; stroke: #ffffff; stroke-width: 1.25; stroke-linejoin: miter; stroke-linecap: square"/>
   </g>
   <g id="patch_51">
    <path d="M 53.31 50.4 
L 499.71 50.4 
" style="fill: none; stroke: #ffffff; stroke-width: 1.25; stroke-linejoin: miter; stroke-linecap: square"/>
   </g>
  </g>
  <g id="axes_3">
   <g id="matplotlib.axis_4">
    <g id="xtick_11">
     <g id="text_57">
      <text style="fill: #262626; font: 11px 'sans-serif'" transform="translate(441.475405 430.885312)rotate(-90)">female</text>
      <text style="fill: #262626; font: 11px 'sans-serif'" transform="translate(453.792998 431.309844)rotate(-90)">(n=17)</text>
     </g>
    </g>
    <g id="xtick_12">
     <g id="text_58">
      <text style="fill: #262626; font: 11px 'sans-serif'" transform="translate(331.253182 425.564922)rotate(-90)">male</text>
      <text style="fill: #262626; font: 11px 'sans-serif'" transform="translate(343.570776 431.309844)rotate(-90)">(n=17)</text>
     </g>
    </g>
    <g id="xtick_13">
     <g id="text_59">
      <text style="fill: #262626; font: 11px 'sans-serif'" transform="translate(215.519849 430.885312)rotate(-90)">female</text>
      <text style="fill: #262626; font: 11px 'sans-serif'" transform="translate(227.837443 431.309844)rotate(-90)">(n=18)</text>
     </g>
    </g>
    <g id="xtick_14">
     <g id="text_60">
      <text style="fill: #262626; font: 11px 'sans-serif'" transform="translate(105.297627 425.564922)rotate(-90)">male</text>
      <text style="fill: #262626; font: 11px 'sans-serif'" transform="translate(117.61522 431.309844)rotate(-90)">(n=18)</text>
     </g>
    </g>
    <g id="xtick_15">
     <g id="line2d_27">
      <path d="M 389.487778 383.04 
L 389.487778 50.4 
" clip-path="url(#p7f3e0fd750)" style="fill: none; stroke: #ffffff; stroke-width: 4; stroke-linecap: round"/>
     </g>
    </g>
    <g id="xtick_16">
     <g id="line2d_28">
      <path d="M 279.265556 383.04 
L 279.265556 50.4 
" clip-path="url(#p7f3e0fd750)" style="fill: none; stroke: #ffffff; stroke-width: 4; stroke-linecap: round"/>
     </g>
    </g>
    <g id="xtick_17">
     <g id="line2d_29">
      <path d="M 163.532222 383.04 
L 163.532222 50.4 
" clip-path="url(#p7f3e0fd750)" style="fill: none; stroke: #ffffff; stroke-width: 4; stroke-linecap: round"/>
     </g>
    </g>
    <g id="xtick_18">
     <g id="line2d_30">
      <path d="M 53.31 383.04 
L 53.31 50.4 
" clip-path="url(#p7f3e0fd750)" style="fill: none; stroke: #ffffff; stroke-width: 4; stroke-linecap: round"/>
     </g>
    </g>
   </g>
   <g id="patch_52">
    <path d="M 53.31 383.04 
L 53.31 50.4 
" style="fill: none; stroke: #ffffff; stroke-width: 1.25; stroke-linejoin: miter; stroke-linecap: square"/>
   </g>
   <g id="patch_53">
    <path d="M 499.71 383.04 
L 499.71 50.4 
" style="fill: none; stroke: #ffffff; stroke-width: 1.25; stroke-linejoin: miter; stroke-linecap: square"/>
   </g>
   <g id="patch_54">
    <path d="M 53.31 383.04 
L 499.71 383.04 
" style="fill: none; stroke: #ffffff; stroke-width: 1.25; stroke-linejoin: miter; stroke-linecap: square"/>
   </g>
   <g id="patch_55">
    <path d="M 53.31 50.4 
L 499.71 50.4 
" style="fill: none; stroke: #ffffff; stroke-width: 1.25; stroke-linejoin: miter; stroke-linecap: square"/>
   </g>
  </g>
  <g id="text_61">
   <text style="fill: #262626; font: 14.4px 'sans-serif'; text-anchor: middle" x="269.31" y="18.14175" transform="rotate(-0, 269.31, 18.14175)">family feces</text>
  </g>
 </g>
 <defs>
  <clipPath id="p7f3e0fd750">
   <rect x="53.31" y="50.4" width="446.4" height="332.64"/>
  </clipPath>
 </defs>
</svg>
