<?xml version="1.0" encoding="utf-8" standalone="no"?>
<!DOCTYPE svg PUBLIC "-//W3C//DTD SVG 1.1//EN"
  "http://www.w3.org/Graphics/SVG/1.1/DTD/svg11.dtd">
<svg xmlns:xlink="http://www.w3.org/1999/xlink" width="601.492656pt" height="506.684625pt" viewBox="0 0 601.492656 506.684625" xmlns="http://www.w3.org/2000/svg" version="1.1">
 <metadata>
  <rdf:RDF xmlns:dc="http://purl.org/dc/elements/1.1/" xmlns:cc="http://creativecommons.org/ns#" xmlns:rdf="http://www.w3.org/1999/02/22-rdf-syntax-ns#">
   <cc:Work>
    <dc:type rdf:resource="http://purl.org/dc/dcmitype/StillImage"/>
    <dc:date>2025-02-28T16:44:50.474126</dc:date>
    <dc:format>image/svg+xml</dc:format>
    <dc:creator>
     <cc:Agent>
      <dc:title>Matplotlib v3.5.3, https://matplotlib.org/</dc:title>
     </cc:Agent>
    </dc:creator>
   </cc:Work>
  </rdf:RDF>
 </metadata>
 <defs>
  <style type="text/css">*{stroke-linejoin: round; stroke-linecap: butt}</style>
 </defs>
 <g id="figure_1">
  <g id="patch_1">
   <path d="M 0 506.684625 
L 601.492656 506.684625 
L 601.492656 -0 
L 0 -0 
z
" style="fill: #ffffff"/>
  </g>
  <g id="axes_1">
   <g id="patch_2">
    <path d="M 49.807188 372.303531 
L 328.807187 372.303531 
L 328.807187 39.663531 
L 49.807188 39.663531 
z
" style="fill: #ffffff"/>
   </g>
   <g id="matplotlib.axis_1">
    <g id="xtick_1">
     <g id="line2d_1">
      <path d="M 71.950045 372.303531 
L 71.950045 39.663531 
" clip-path="url(#p7dba5ca987)" style="fill: none; stroke: #ffffff; stroke-linecap: round"/>
     </g>
     <g id="line2d_2">
      <defs>
       <path id="m1fdc5d8b95" d="M 0 0 
L 0 6 
" style="stroke: #262626; stroke-width: 1.25"/>
      </defs>
      <g>
       <use xlink:href="#m1fdc5d8b95" x="71.950045" y="372.303531" style="fill: #262626; stroke: #262626; stroke-width: 1.25"/>
      </g>
     </g>
     <g id="text_1">
      <text style="fill: #262626; font: 11px 'sans-serif'" transform="translate(74.985357 499.484625)rotate(-90)">15900.s325.1.S325.1</text>
     </g>
    </g>
    <g id="xtick_2">
     <g id="line2d_3">
      <path d="M 116.235759 372.303531 
L 116.235759 39.663531 
" clip-path="url(#p7dba5ca987)" style="fill: none; stroke: #ffffff; stroke-linecap: round"/>
     </g>
     <g id="line2d_4">
      <g>
       <use xlink:href="#m1fdc5d8b95" x="116.235759" y="372.303531" style="fill: #262626; stroke: #262626; stroke-width: 1.25"/>
      </g>
     </g>
     <g id="text_2">
      <text style="fill: #262626; font: 11px 'sans-serif'" transform="translate(119.271071 499.484625)rotate(-90)">15900.s326.1.S326.1</text>
     </g>
    </g>
    <g id="xtick_3">
     <g id="line2d_5">
      <path d="M 160.521473 372.303531 
L 160.521473 39.663531 
" clip-path="url(#p7dba5ca987)" style="fill: none; stroke: #ffffff; stroke-linecap: round"/>
     </g>
     <g id="line2d_6">
      <g>
       <use xlink:href="#m1fdc5d8b95" x="160.521473" y="372.303531" style="fill: #262626; stroke: #262626; stroke-width: 1.25"/>
      </g>
     </g>
     <g id="text_3">
      <text style="fill: #262626; font: 11px 'sans-serif'" transform="translate(163.556786 499.484625)rotate(-90)">15900.s327.1.S327.1</text>
     </g>
    </g>
    <g id="xtick_4">
     <g id="line2d_7">
      <path d="M 218.092902 372.303531 
L 218.092902 39.663531 
" clip-path="url(#p7dba5ca987)" style="fill: none; stroke: #ffffff; stroke-linecap: round"/>
     </g>
     <g id="line2d_8">
      <g>
       <use xlink:href="#m1fdc5d8b95" x="218.092902" y="372.303531" style="fill: #262626; stroke: #262626; stroke-width: 1.25"/>
      </g>
     </g>
     <g id="text_4">
      <text style="fill: #262626; font: 11px 'sans-serif'" transform="translate(221.128214 499.484625)rotate(-90)">15900.s328.1.S328.1</text>
     </g>
    </g>
    <g id="xtick_5">
     <g id="line2d_9">
      <path d="M 262.378616 372.303531 
L 262.378616 39.663531 
" clip-path="url(#p7dba5ca987)" style="fill: none; stroke: #ffffff; stroke-linecap: round"/>
     </g>
     <g id="line2d_10">
      <g>
       <use xlink:href="#m1fdc5d8b95" x="262.378616" y="372.303531" style="fill: #262626; stroke: #262626; stroke-width: 1.25"/>
      </g>
     </g>
     <g id="text_5">
      <text style="fill: #262626; font: 11px 'sans-serif'" transform="translate(265.413929 499.484625)rotate(-90)">15900.s329.1.S329.1</text>
     </g>
    </g>
    <g id="xtick_6">
     <g id="line2d_11">
      <path d="M 306.66433 372.303531 
L 306.66433 39.663531 
" clip-path="url(#p7dba5ca987)" style="fill: none; stroke: #ffffff; stroke-linecap: round"/>
     </g>
     <g id="line2d_12">
      <g>
       <use xlink:href="#m1fdc5d8b95" x="306.66433" y="372.303531" style="fill: #262626; stroke: #262626; stroke-width: 1.25"/>
      </g>
     </g>
     <g id="text_6">
      <text style="fill: #262626; font: 11px 'sans-serif'" transform="translate(309.699643 499.484625)rotate(-90)">15900.s330.1.S330.1</text>
     </g>
    </g>
   </g>
   <g id="matplotlib.axis_2">
    <g id="ytick_1">
     <g id="line2d_13">
      <path d="M 49.807188 372.303531 
L 328.807187 372.303531 
" clip-path="url(#p7dba5ca987)" style="fill: none; stroke: #ffffff; stroke-linecap: round"/>
     </g>
     <g id="text_7">
      <text style="fill: #262626; font: 11px 'sans-serif'; text-anchor: end" x="40.307188" y="376.482672" transform="rotate(-0, 40.307188, 376.482672)">0.0</text>
     </g>
    </g>
    <g id="ytick_2">
     <g id="line2d_14">
      <path d="M 49.807188 305.775531 
L 328.807187 305.775531 
" clip-path="url(#p7dba5ca987)" style="fill: none; stroke: #ffffff; stroke-linecap: round"/>
     </g>
     <g id="text_8">
      <text style="fill: #262626; font: 11px 'sans-serif'; text-anchor: end" x="40.307188" y="309.954672" transform="rotate(-0, 40.307188, 309.954672)">0.2</text>
     </g>
    </g>
    <g id="ytick_3">
     <g id="line2d_15">
      <path d="M 49.807188 239.247531 
L 328.807187 239.247531 
" clip-path="url(#p7dba5ca987)" style="fill: none; stroke: #ffffff; stroke-linecap: round"/>
     </g>
     <g id="text_9">
      <text style="fill: #262626; font: 11px 'sans-serif'; text-anchor: end" x="40.307188" y="243.426672" transform="rotate(-0, 40.307188, 243.426672)">0.4</text>
     </g>
    </g>
    <g id="ytick_4">
     <g id="line2d_16">
      <path d="M 49.807188 172.719531 
L 328.807187 172.719531 
" clip-path="url(#p7dba5ca987)" style="fill: none; stroke: #ffffff; stroke-linecap: round"/>
     </g>
     <g id="text_10">
      <text style="fill: #262626; font: 11px 'sans-serif'; text-anchor: end" x="40.307188" y="176.898672" transform="rotate(-0, 40.307188, 176.898672)">0.6</text>
     </g>
    </g>
    <g id="ytick_5">
     <g id="line2d_17">
      <path d="M 49.807188 106.191531 
L 328.807187 106.191531 
" clip-path="url(#p7dba5ca987)" style="fill: none; stroke: #ffffff; stroke-linecap: round"/>
     </g>
     <g id="text_11">
      <text style="fill: #262626; font: 11px 'sans-serif'; text-anchor: end" x="40.307188" y="110.370672" transform="rotate(-0, 40.307188, 110.370672)">0.8</text>
     </g>
    </g>
    <g id="ytick_6">
     <g id="line2d_18">
      <path d="M 49.807188 39.663531 
L 328.807187 39.663531 
" clip-path="url(#p7dba5ca987)" style="fill: none; stroke: #ffffff; stroke-linecap: round"/>
     </g>
     <g id="text_12">
      <text style="fill: #262626; font: 11px 'sans-serif'; text-anchor: end" x="40.307188" y="43.842672" transform="rotate(-0, 40.307188, 43.842672)">1.0</text>
     </g>
    </g>
    <g id="text_13">
     <text style="fill: #262626; font: 12px 'sans-serif'; text-anchor: middle" x="16.318125" y="205.983531" transform="rotate(-90, 16.318125, 205.983531)">relative abundance</text>
    </g>
   </g>
   <g id="PolyCollection_1">
    <defs>
     <path id="me076ab8f08" d="M 195.950045 -334.757094 
L 195.950045 -134.381094 
L 240.235759 -134.381094 
L 240.235759 -134.381094 
L 284.521473 -134.381094 
L 284.521473 -134.381094 
L 328.807187 -134.381094 
L 328.807187 -287.237094 
L 328.807187 -287.237094 
L 284.521473 -287.237094 
L 284.521473 -294.365094 
L 240.235759 -294.365094 
L 240.235759 -334.757094 
L 195.950045 -334.757094 
z
"/>
    </defs>
    <g clip-path="url(#p7dba5ca987)">
     <use xlink:href="#me076ab8f08" x="0" y="506.684625" style="fill: #ffff99"/>
    </g>
   </g>
   <g id="PolyCollection_2">
    <defs>
     <path id="m4dbf4e6d4f" d="M 49.807188 -227.045094 
L 49.807188 -134.381094 
L 94.092902 -134.381094 
L 94.092902 -134.381094 
L 138.378616 -134.381094 
L 138.378616 -134.381094 
L 182.66433 -134.381094 
L 182.66433 -232.589094 
L 182.66433 -232.589094 
L 138.378616 -232.589094 
L 138.378616 -283.277094 
L 94.092902 -283.277094 
L 94.092902 -227.045094 
L 49.807188 -227.045094 
z
"/>
    </defs>
    <g clip-path="url(#p7dba5ca987)">
     <use xlink:href="#m4dbf4e6d4f" x="0" y="506.684625" style="fill: #ffff99"/>
    </g>
   </g>
   <g id="PolyCollection_3">
    <defs>
     <path id="md58353c36e" d="M 195.950045 -437.717094 
L 195.950045 -334.757094 
L 240.235759 -334.757094 
L 240.235759 -294.365094 
L 284.521473 -294.365094 
L 284.521473 -287.237094 
L 328.807187 -287.237094 
L 328.807187 -425.837094 
L 328.807187 -425.837094 
L 284.521473 -425.837094 
L 284.521473 -384.653094 
L 240.235759 -384.653094 
L 240.235759 -437.717094 
L 195.950045 -437.717094 
z
"/>
    </defs>
    <g clip-path="url(#p7dba5ca987)">
     <use xlink:href="#md58353c36e" x="0" y="506.684625" style="fill: #b15928"/>
    </g>
   </g>
   <g id="PolyCollection_4">
    <defs>
     <path id="m75183bea9a" d="M 49.807188 -373.565094 
L 49.807188 -227.045094 
L 94.092902 -227.045094 
L 94.092902 -283.277094 
L 138.378616 -283.277094 
L 138.378616 -232.589094 
L 182.66433 -232.589094 
L 182.66433 -402.077094 
L 182.66433 -402.077094 
L 138.378616 -402.077094 
L 138.378616 -375.941094 
L 94.092902 -375.941094 
L 94.092902 -373.565094 
L 49.807188 -373.565094 
z
"/>
    </defs>
    <g clip-path="url(#p7dba5ca987)">
     <use xlink:href="#m75183bea9a" x="0" y="506.684625" style="fill: #b15928"/>
    </g>
   </g>
   <g id="PolyCollection_5">
    <defs>
     <path id="m4b90bc96c1" d="M 195.950045 -448.805094 
L 195.950045 -437.717094 
L 240.235759 -437.717094 
L 240.235759 -384.653094 
L 284.521473 -384.653094 
L 284.521473 -425.837094 
L 328.807187 -425.837094 
L 328.807187 -442.469094 
L 328.807187 -442.469094 
L 284.521473 -442.469094 
L 284.521473 -431.381094 
L 240.235759 -431.381094 
L 240.235759 -448.805094 
L 195.950045 -448.805094 
z
"/>
    </defs>
    <g clip-path="url(#p7dba5ca987)">
     <use xlink:href="#m4b90bc96c1" x="0" y="506.684625" style="fill: #1b9e77"/>
    </g>
   </g>
   <g id="PolyCollection_6">
    <defs>
     <path id="m90432725ea" d="M 49.807188 -381.485094 
L 49.807188 -373.565094 
L 94.092902 -373.565094 
L 94.092902 -375.941094 
L 138.378616 -375.941094 
L 138.378616 -402.077094 
L 182.66433 -402.077094 
L 182.66433 -430.589094 
L 182.66433 -430.589094 
L 138.378616 -430.589094 
L 138.378616 -393.365094 
L 94.092902 -393.365094 
L 94.092902 -381.485094 
L 49.807188 -381.485094 
z
"/>
    </defs>
    <g clip-path="url(#p7dba5ca987)">
     <use xlink:href="#m90432725ea" x="0" y="506.684625" style="fill: #1b9e77"/>
    </g>
   </g>
   <g id="PolyCollection_7">
    <defs>
     <path id="mcd12ff36ee" d="M 195.950045 -451.181094 
L 195.950045 -448.805094 
L 240.235759 -448.805094 
L 240.235759 -431.381094 
L 284.521473 -431.381094 
L 284.521473 -442.469094 
L 328.807187 -442.469094 
L 328.807187 -444.053094 
L 328.807187 -444.053094 
L 284.521473 -444.053094 
L 284.521473 -444.053094 
L 240.235759 -444.053094 
L 240.235759 -451.181094 
L 195.950045 -451.181094 
z
"/>
    </defs>
    <g clip-path="url(#p7dba5ca987)">
     <use xlink:href="#mcd12ff36ee" x="0" y="506.684625" style="fill: #d95f02"/>
    </g>
   </g>
   <g id="PolyCollection_8">
    <defs>
     <path id="mfd64a40763" d="M 49.807188 -412.373094 
L 49.807188 -381.485094 
L 94.092902 -381.485094 
L 94.092902 -393.365094 
L 138.378616 -393.365094 
L 138.378616 -430.589094 
L 182.66433 -430.589094 
L 182.66433 -436.925094 
L 182.66433 -436.925094 
L 138.378616 -436.925094 
L 138.378616 -404.453094 
L 94.092902 -404.453094 
L 94.092902 -412.373094 
L 49.807188 -412.373094 
z
"/>
    </defs>
    <g clip-path="url(#p7dba5ca987)">
     <use xlink:href="#mfd64a40763" x="0" y="506.684625" style="fill: #d95f02"/>
    </g>
   </g>
   <g id="PolyCollection_9">
    <defs>
     <path id="m90b7261f09" d="M 195.950045 -451.181094 
L 195.950045 -451.181094 
L 240.235759 -451.181094 
L 240.235759 -444.053094 
L 284.521473 -444.053094 
L 284.521473 -444.053094 
L 328.807187 -444.053094 
L 328.807187 -444.053094 
L 328.807187 -444.053094 
L 284.521473 -444.053094 
L 284.521473 -446.429094 
L 240.235759 -446.429094 
L 240.235759 -451.181094 
L 195.950045 -451.181094 
z
"/>
    </defs>
    <g clip-path="url(#p7dba5ca987)">
     <use xlink:href="#m90b7261f09" x="0" y="506.684625" style="fill: #7570b3"/>
    </g>
   </g>
   <g id="PolyCollection_10">
    <defs>
     <path id="m3b0b964357" d="M 49.807188 -432.173094 
L 49.807188 -412.373094 
L 94.092902 -412.373094 
L 94.092902 -404.453094 
L 138.378616 -404.453094 
L 138.378616 -436.925094 
L 182.66433 -436.925094 
L 182.66433 -443.261094 
L 182.66433 -443.261094 
L 138.378616 -443.261094 
L 138.378616 -425.837094 
L 94.092902 -425.837094 
L 94.092902 -432.173094 
L 49.807188 -432.173094 
z
"/>
    </defs>
    <g clip-path="url(#p7dba5ca987)">
     <use xlink:href="#m3b0b964357" x="0" y="506.684625" style="fill: #7570b3"/>
    </g>
   </g>
   <g id="PolyCollection_11">
    <defs>
     <path id="mc8d091f5d0" d="M 195.950045 -456.725094 
L 195.950045 -451.181094 
L 240.235759 -451.181094 
L 240.235759 -446.429094 
L 284.521473 -446.429094 
L 284.521473 -444.053094 
L 328.807187 -444.053094 
L 328.807187 -448.805094 
L 328.807187 -448.805094 
L 284.521473 -448.805094 
L 284.521473 -449.597094 
L 240.235759 -449.597094 
L 240.235759 -456.725094 
L 195.950045 -456.725094 
z
"/>
    </defs>
    <g clip-path="url(#p7dba5ca987)">
     <use xlink:href="#mc8d091f5d0" x="0" y="506.684625" style="fill: #e7298a"/>
    </g>
   </g>
   <g id="PolyCollection_12">
    <defs>
     <path id="m2a74741b3d" d="M 49.807188 -444.845094 
L 49.807188 -432.173094 
L 94.092902 -432.173094 
L 94.092902 -425.837094 
L 138.378616 -425.837094 
L 138.378616 -443.261094 
L 182.66433 -443.261094 
L 182.66433 -455.933094 
L 182.66433 -455.933094 
L 138.378616 -455.933094 
L 138.378616 -432.173094 
L 94.092902 -432.173094 
L 94.092902 -444.845094 
L 49.807188 -444.845094 
z
"/>
    </defs>
    <g clip-path="url(#p7dba5ca987)">
     <use xlink:href="#m2a74741b3d" x="0" y="506.684625" style="fill: #e7298a"/>
    </g>
   </g>
   <g id="PolyCollection_13">
    <defs>
     <path id="m867fdc57ad" d="M 195.950045 -457.517094 
L 195.950045 -456.725094 
L 240.235759 -456.725094 
L 240.235759 -449.597094 
L 284.521473 -449.597094 
L 284.521473 -448.805094 
L 328.807187 -448.805094 
L 328.807187 -454.349094 
L 328.807187 -454.349094 
L 284.521473 -454.349094 
L 284.521473 -457.517094 
L 240.235759 -457.517094 
L 240.235759 -457.517094 
L 195.950045 -457.517094 
z
"/>
    </defs>
    <g clip-path="url(#p7dba5ca987)">
     <use xlink:href="#m867fdc57ad" x="0" y="506.684625" style="fill: #66a61e"/>
    </g>
   </g>
   <g id="PolyCollection_14">
    <defs>
     <path id="m8a8f55c5dd" d="M 49.807188 -448.805094 
L 49.807188 -444.845094 
L 94.092902 -444.845094 
L 94.092902 -432.173094 
L 138.378616 -432.173094 
L 138.378616 -455.933094 
L 182.66433 -455.933094 
L 182.66433 -455.933094 
L 182.66433 -455.933094 
L 138.378616 -455.933094 
L 138.378616 -434.549094 
L 94.092902 -434.549094 
L 94.092902 -448.805094 
L 49.807188 -448.805094 
z
"/>
    </defs>
    <g clip-path="url(#p7dba5ca987)">
     <use xlink:href="#m8a8f55c5dd" x="0" y="506.684625" style="fill: #66a61e"/>
    </g>
   </g>
   <g id="PolyCollection_15">
    <defs>
     <path id="md353f99227" d="M 195.950045 -460.685094 
L 195.950045 -457.517094 
L 240.235759 -457.517094 
L 240.235759 -457.517094 
L 284.521473 -457.517094 
L 284.521473 -454.349094 
L 328.807187 -454.349094 
L 328.807187 -459.893094 
L 328.807187 -459.893094 
L 284.521473 -459.893094 
L 284.521473 -457.517094 
L 240.235759 -457.517094 
L 240.235759 -460.685094 
L 195.950045 -460.685094 
z
"/>
    </defs>
    <g clip-path="url(#p7dba5ca987)">
     <use xlink:href="#md353f99227" x="0" y="506.684625" style="fill: #e6ab02"/>
    </g>
   </g>
   <g id="PolyCollection_16">
    <defs>
     <path id="m4cb843a32d" d="M 49.807188 -451.181094 
L 49.807188 -448.805094 
L 94.092902 -448.805094 
L 94.092902 -434.549094 
L 138.378616 -434.549094 
L 138.378616 -455.933094 
L 182.66433 -455.933094 
L 182.66433 -457.517094 
L 182.66433 -457.517094 
L 138.378616 -457.517094 
L 138.378616 -438.509094 
L 94.092902 -438.509094 
L 94.092902 -451.181094 
L 49.807188 -451.181094 
z
"/>
    </defs>
    <g clip-path="url(#p7dba5ca987)">
     <use xlink:href="#m4cb843a32d" x="0" y="506.684625" style="fill: #e6ab02"/>
    </g>
   </g>
   <g id="PolyCollection_17">
    <defs>
     <path id="me6db3e6f75" d="M 195.950045 -460.685094 
L 195.950045 -460.685094 
L 240.235759 -460.685094 
L 240.235759 -457.517094 
L 284.521473 -457.517094 
L 284.521473 -459.893094 
L 328.807187 -459.893094 
L 328.807187 -461.477094 
L 328.807187 -461.477094 
L 284.521473 -461.477094 
L 284.521473 -460.685094 
L 240.235759 -460.685094 
L 240.235759 -460.685094 
L 195.950045 -460.685094 
z
"/>
    </defs>
    <g clip-path="url(#p7dba5ca987)">
     <use xlink:href="#me6db3e6f75" x="0" y="506.684625" style="fill: #a6761d"/>
    </g>
   </g>
   <g id="PolyCollection_18">
    <defs>
     <path id="m31394d0ff6" d="M 49.807188 -454.349094 
L 49.807188 -451.181094 
L 94.092902 -451.181094 
L 94.092902 -438.509094 
L 138.378616 -438.509094 
L 138.378616 -457.517094 
L 182.66433 -457.517094 
L 182.66433 -457.517094 
L 182.66433 -457.517094 
L 138.378616 -457.517094 
L 138.378616 -444.053094 
L 94.092902 -444.053094 
L 94.092902 -454.349094 
L 49.807188 -454.349094 
z
"/>
    </defs>
    <g clip-path="url(#p7dba5ca987)">
     <use xlink:href="#m31394d0ff6" x="0" y="506.684625" style="fill: #a6761d"/>
    </g>
   </g>
   <g id="PolyCollection_19">
    <defs>
     <path id="mc631bbb320" d="M 195.950045 -462.269094 
L 195.950045 -460.685094 
L 240.235759 -460.685094 
L 240.235759 -460.685094 
L 284.521473 -460.685094 
L 284.521473 -461.477094 
L 328.807187 -461.477094 
L 328.807187 -463.061094 
L 328.807187 -463.061094 
L 284.521473 -463.061094 
L 284.521473 -460.685094 
L 240.235759 -460.685094 
L 240.235759 -462.269094 
L 195.950045 -462.269094 
z
"/>
    </defs>
    <g clip-path="url(#p7dba5ca987)">
     <use xlink:href="#mc631bbb320" x="0" y="506.684625" style="fill: #666666"/>
    </g>
   </g>
   <g id="PolyCollection_20">
    <defs>
     <path id="m9b16cd74aa" d="M 49.807188 -455.141094 
L 49.807188 -454.349094 
L 94.092902 -454.349094 
L 94.092902 -444.053094 
L 138.378616 -444.053094 
L 138.378616 -457.517094 
L 182.66433 -457.517094 
L 182.66433 -462.269094 
L 182.66433 -462.269094 
L 138.378616 -462.269094 
L 138.378616 -448.013094 
L 94.092902 -448.013094 
L 94.092902 -455.141094 
L 49.807188 -455.141094 
z
"/>
    </defs>
    <g clip-path="url(#p7dba5ca987)">
     <use xlink:href="#m9b16cd74aa" x="0" y="506.684625" style="fill: #666666"/>
    </g>
   </g>
   <g id="PolyCollection_21">
    <defs>
     <path id="mee2559935a" d="M 195.950045 -463.061094 
L 195.950045 -462.269094 
L 240.235759 -462.269094 
L 240.235759 -460.685094 
L 284.521473 -460.685094 
L 284.521473 -463.061094 
L 328.807187 -463.061094 
L 328.807187 -463.061094 
L 328.807187 -463.061094 
L 284.521473 -463.061094 
L 284.521473 -464.645094 
L 240.235759 -464.645094 
L 240.235759 -463.061094 
L 195.950045 -463.061094 
z
"/>
    </defs>
    <g clip-path="url(#p7dba5ca987)">
     <use xlink:href="#mee2559935a" x="0" y="506.684625" style="fill: #1b9e77"/>
    </g>
   </g>
   <g id="PolyCollection_22">
    <defs>
     <path id="m02a610bb0c" d="M 49.807188 -456.725094 
L 49.807188 -455.141094 
L 94.092902 -455.141094 
L 94.092902 -448.013094 
L 138.378616 -448.013094 
L 138.378616 -462.269094 
L 182.66433 -462.269094 
L 182.66433 -462.269094 
L 182.66433 -462.269094 
L 138.378616 -462.269094 
L 138.378616 -452.765094 
L 94.092902 -452.765094 
L 94.092902 -456.725094 
L 49.807188 -456.725094 
z
"/>
    </defs>
    <g clip-path="url(#p7dba5ca987)">
     <use xlink:href="#m02a610bb0c" x="0" y="506.684625" style="fill: #1b9e77"/>
    </g>
   </g>
   <g id="PolyCollection_23">
    <defs>
     <path id="maeccf5b9c4" d="M 195.950045 -463.061094 
L 195.950045 -463.061094 
L 240.235759 -463.061094 
L 240.235759 -464.645094 
L 284.521473 -464.645094 
L 284.521473 -463.061094 
L 328.807187 -463.061094 
L 328.807187 -465.437094 
L 328.807187 -465.437094 
L 284.521473 -465.437094 
L 284.521473 -464.645094 
L 240.235759 -464.645094 
L 240.235759 -463.061094 
L 195.950045 -463.061094 
z
"/>
    </defs>
    <g clip-path="url(#p7dba5ca987)">
     <use xlink:href="#maeccf5b9c4" x="0" y="506.684625" style="fill: #d95f02"/>
    </g>
   </g>
   <g id="PolyCollection_24">
    <defs>
     <path id="m41cbe52e0a" d="M 49.807188 -456.725094 
L 49.807188 -456.725094 
L 94.092902 -456.725094 
L 94.092902 -452.765094 
L 138.378616 -452.765094 
L 138.378616 -462.269094 
L 182.66433 -462.269094 
L 182.66433 -463.061094 
L 182.66433 -463.061094 
L 138.378616 -463.061094 
L 138.378616 -458.309094 
L 94.092902 -458.309094 
L 94.092902 -456.725094 
L 49.807188 -456.725094 
z
"/>
    </defs>
    <g clip-path="url(#p7dba5ca987)">
     <use xlink:href="#m41cbe52e0a" x="0" y="506.684625" style="fill: #d95f02"/>
    </g>
   </g>
   <g id="PolyCollection_25">
    <defs>
     <path id="m27490a24eb" d="M 195.950045 -464.645094 
L 195.950045 -463.061094 
L 240.235759 -463.061094 
L 240.235759 -464.645094 
L 284.521473 -464.645094 
L 284.521473 -465.437094 
L 328.807187 -465.437094 
L 328.807187 -465.437094 
L 328.807187 -465.437094 
L 284.521473 -465.437094 
L 284.521473 -467.021094 
L 240.235759 -467.021094 
L 240.235759 -464.645094 
L 195.950045 -464.645094 
z
"/>
    </defs>
    <g clip-path="url(#p7dba5ca987)">
     <use xlink:href="#m27490a24eb" x="0" y="506.684625" style="fill: #7570b3"/>
    </g>
   </g>
   <g id="PolyCollection_26">
    <defs>
     <path id="mdd1e56a4c7" d="M 49.807188 -456.725094 
L 49.807188 -456.725094 
L 94.092902 -456.725094 
L 94.092902 -458.309094 
L 138.378616 -458.309094 
L 138.378616 -463.061094 
L 182.66433 -463.061094 
L 182.66433 -463.853094 
L 182.66433 -463.853094 
L 138.378616 -463.853094 
L 138.378616 -458.309094 
L 94.092902 -458.309094 
L 94.092902 -456.725094 
L 49.807188 -456.725094 
z
"/>
    </defs>
    <g clip-path="url(#p7dba5ca987)">
     <use xlink:href="#mdd1e56a4c7" x="0" y="506.684625" style="fill: #7570b3"/>
    </g>
   </g>
   <g id="PolyCollection_27">
    <defs>
     <path id="mb73bc87a8b" d="M 195.950045 -464.645094 
L 195.950045 -464.645094 
L 240.235759 -464.645094 
L 240.235759 -467.021094 
L 284.521473 -467.021094 
L 284.521473 -465.437094 
L 328.807187 -465.437094 
L 328.807187 -465.437094 
L 328.807187 -465.437094 
L 284.521473 -465.437094 
L 284.521473 -467.021094 
L 240.235759 -467.021094 
L 240.235759 -464.645094 
L 195.950045 -464.645094 
z
"/>
    </defs>
    <g clip-path="url(#p7dba5ca987)">
     <use xlink:href="#mb73bc87a8b" x="0" y="506.684625" style="fill: #e7298a"/>
    </g>
   </g>
   <g id="PolyCollection_28">
    <defs>
     <path id="md0eb3667a7" d="M 49.807188 -460.685094 
L 49.807188 -456.725094 
L 94.092902 -456.725094 
L 94.092902 -458.309094 
L 138.378616 -458.309094 
L 138.378616 -463.853094 
L 182.66433 -463.853094 
L 182.66433 -463.853094 
L 182.66433 -463.853094 
L 138.378616 -463.853094 
L 138.378616 -459.101094 
L 94.092902 -459.101094 
L 94.092902 -460.685094 
L 49.807188 -460.685094 
z
"/>
    </defs>
    <g clip-path="url(#p7dba5ca987)">
     <use xlink:href="#md0eb3667a7" x="0" y="506.684625" style="fill: #e7298a"/>
    </g>
   </g>
   <g id="PolyCollection_29">
    <defs>
     <path id="m636703232c" d="M 195.950045 -467.021094 
L 195.950045 -464.645094 
L 240.235759 -464.645094 
L 240.235759 -467.021094 
L 284.521473 -467.021094 
L 284.521473 -465.437094 
L 328.807187 -465.437094 
L 328.807187 -465.437094 
L 328.807187 -465.437094 
L 284.521473 -465.437094 
L 284.521473 -467.021094 
L 240.235759 -467.021094 
L 240.235759 -467.021094 
L 195.950045 -467.021094 
z
"/>
    </defs>
    <g clip-path="url(#p7dba5ca987)">
     <use xlink:href="#m636703232c" x="0" y="506.684625" style="fill: #fbb4ae"/>
    </g>
   </g>
   <g id="PolyCollection_30">
    <defs>
     <path id="m09e96852bf" d="M 49.807188 -462.269094 
L 49.807188 -460.685094 
L 94.092902 -460.685094 
L 94.092902 -459.101094 
L 138.378616 -459.101094 
L 138.378616 -463.853094 
L 182.66433 -463.853094 
L 182.66433 -463.853094 
L 182.66433 -463.853094 
L 138.378616 -463.853094 
L 138.378616 -459.101094 
L 94.092902 -459.101094 
L 94.092902 -462.269094 
L 49.807188 -462.269094 
z
"/>
    </defs>
    <g clip-path="url(#p7dba5ca987)">
     <use xlink:href="#m09e96852bf" x="0" y="506.684625" style="fill: #fbb4ae"/>
    </g>
   </g>
   <g id="PolyCollection_31">
    <defs>
     <path id="mde0cda8ede" d="M 195.950045 -467.021094 
L 195.950045 -467.021094 
L 240.235759 -467.021094 
L 240.235759 -467.021094 
L 284.521473 -467.021094 
L 284.521473 -465.437094 
L 328.807187 -465.437094 
L 328.807187 -465.437094 
L 328.807187 -465.437094 
L 284.521473 -465.437094 
L 284.521473 -467.021094 
L 240.235759 -467.021094 
L 240.235759 -467.021094 
L 195.950045 -467.021094 
z
"/>
    </defs>
    <g clip-path="url(#p7dba5ca987)">
     <use xlink:href="#mde0cda8ede" x="0" y="506.684625" style="fill: #b3cde3"/>
    </g>
   </g>
   <g id="PolyCollection_32">
    <defs>
     <path id="mf2a5eb6a1c" d="M 49.807188 -462.269094 
L 49.807188 -462.269094 
L 94.092902 -462.269094 
L 94.092902 -459.101094 
L 138.378616 -459.101094 
L 138.378616 -463.853094 
L 182.66433 -463.853094 
L 182.66433 -465.437094 
L 182.66433 -465.437094 
L 138.378616 -465.437094 
L 138.378616 -461.477094 
L 94.092902 -461.477094 
L 94.092902 -462.269094 
L 49.807188 -462.269094 
z
"/>
    </defs>
    <g clip-path="url(#p7dba5ca987)">
     <use xlink:href="#mf2a5eb6a1c" x="0" y="506.684625" style="fill: #b3cde3"/>
    </g>
   </g>
   <g id="PolyCollection_33">
    <defs>
     <path id="m64a4a463a7" d="M 195.950045 -467.021094 
L 195.950045 -467.021094 
L 240.235759 -467.021094 
L 240.235759 -467.021094 
L 284.521473 -467.021094 
L 284.521473 -465.437094 
L 328.807187 -465.437094 
L 328.807187 -465.437094 
L 328.807187 -465.437094 
L 284.521473 -465.437094 
L 284.521473 -467.021094 
L 240.235759 -467.021094 
L 240.235759 -467.021094 
L 195.950045 -467.021094 
z
"/>
    </defs>
    <g clip-path="url(#p7dba5ca987)">
     <use xlink:href="#m64a4a463a7" x="0" y="506.684625" style="fill: #ccebc5"/>
    </g>
   </g>
   <g id="PolyCollection_34">
    <defs>
     <path id="m93b6af937d" d="M 49.807188 -463.853094 
L 49.807188 -462.269094 
L 94.092902 -462.269094 
L 94.092902 -461.477094 
L 138.378616 -461.477094 
L 138.378616 -465.437094 
L 182.66433 -465.437094 
L 182.66433 -465.437094 
L 182.66433 -465.437094 
L 138.378616 -465.437094 
L 138.378616 -463.061094 
L 94.092902 -463.061094 
L 94.092902 -463.853094 
L 49.807188 -463.853094 
z
"/>
    </defs>
    <g clip-path="url(#p7dba5ca987)">
     <use xlink:href="#m93b6af937d" x="0" y="506.684625" style="fill: #ccebc5"/>
    </g>
   </g>
   <g id="PolyCollection_35">
    <defs>
     <path id="m81522eb302" d="M 195.950045 -467.021094 
L 195.950045 -467.021094 
L 240.235759 -467.021094 
L 240.235759 -467.021094 
L 284.521473 -467.021094 
L 284.521473 -465.437094 
L 328.807187 -465.437094 
L 328.807187 -465.437094 
L 328.807187 -465.437094 
L 284.521473 -465.437094 
L 284.521473 -467.021094 
L 240.235759 -467.021094 
L 240.235759 -467.021094 
L 195.950045 -467.021094 
z
"/>
    </defs>
    <g clip-path="url(#p7dba5ca987)">
     <use xlink:href="#m81522eb302" x="0" y="506.684625" style="fill: #decbe4"/>
    </g>
   </g>
   <g id="PolyCollection_36">
    <defs>
     <path id="m4f60b42fcc" d="M 49.807188 -464.645094 
L 49.807188 -463.853094 
L 94.092902 -463.853094 
L 94.092902 -463.061094 
L 138.378616 -463.061094 
L 138.378616 -465.437094 
L 182.66433 -465.437094 
L 182.66433 -466.229094 
L 182.66433 -466.229094 
L 138.378616 -466.229094 
L 138.378616 -463.061094 
L 94.092902 -463.061094 
L 94.092902 -464.645094 
L 49.807188 -464.645094 
z
"/>
    </defs>
    <g clip-path="url(#p7dba5ca987)">
     <use xlink:href="#m4f60b42fcc" x="0" y="506.684625" style="fill: #decbe4"/>
    </g>
   </g>
   <g id="PolyCollection_37">
    <defs>
     <path id="m27abfda4c6" d="M 195.950045 -467.021094 
L 195.950045 -467.021094 
L 240.235759 -467.021094 
L 240.235759 -467.021094 
L 284.521473 -467.021094 
L 284.521473 -465.437094 
L 328.807187 -465.437094 
L 328.807187 -465.437094 
L 328.807187 -465.437094 
L 284.521473 -465.437094 
L 284.521473 -467.021094 
L 240.235759 -467.021094 
L 240.235759 -467.021094 
L 195.950045 -467.021094 
z
"/>
    </defs>
    <g clip-path="url(#p7dba5ca987)">
     <use xlink:href="#m27abfda4c6" x="0" y="506.684625" style="fill: #fed9a6"/>
    </g>
   </g>
   <g id="PolyCollection_38">
    <defs>
     <path id="m323dfa6a77" d="M 49.807188 -464.645094 
L 49.807188 -464.645094 
L 94.092902 -464.645094 
L 94.092902 -463.061094 
L 138.378616 -463.061094 
L 138.378616 -466.229094 
L 182.66433 -466.229094 
L 182.66433 -466.229094 
L 182.66433 -466.229094 
L 138.378616 -466.229094 
L 138.378616 -464.645094 
L 94.092902 -464.645094 
L 94.092902 -464.645094 
L 49.807188 -464.645094 
z
"/>
    </defs>
    <g clip-path="url(#p7dba5ca987)">
     <use xlink:href="#m323dfa6a77" x="0" y="506.684625" style="fill: #fed9a6"/>
    </g>
   </g>
   <g id="PolyCollection_39">
    <defs>
     <path id="m96bae9de30" d="M 195.950045 -467.021094 
L 195.950045 -467.021094 
L 240.235759 -467.021094 
L 240.235759 -467.021094 
L 284.521473 -467.021094 
L 284.521473 -465.437094 
L 328.807187 -465.437094 
L 328.807187 -467.021094 
L 328.807187 -467.021094 
L 284.521473 -467.021094 
L 284.521473 -467.021094 
L 240.235759 -467.021094 
L 240.235759 -467.021094 
L 195.950045 -467.021094 
z
"/>
    </defs>
    <g clip-path="url(#p7dba5ca987)">
     <use xlink:href="#m96bae9de30" x="0" y="506.684625" style="fill: #ffffcc"/>
    </g>
   </g>
   <g id="PolyCollection_40">
    <defs>
     <path id="m26b8ccbd07" d="M 49.807188 -464.645094 
L 49.807188 -464.645094 
L 94.092902 -464.645094 
L 94.092902 -464.645094 
L 138.378616 -464.645094 
L 138.378616 -466.229094 
L 182.66433 -466.229094 
L 182.66433 -466.229094 
L 182.66433 -466.229094 
L 138.378616 -466.229094 
L 138.378616 -464.645094 
L 94.092902 -464.645094 
L 94.092902 -464.645094 
L 49.807188 -464.645094 
z
"/>
    </defs>
    <g clip-path="url(#p7dba5ca987)">
     <use xlink:href="#m26b8ccbd07" x="0" y="506.684625" style="fill: #ffffcc"/>
    </g>
   </g>
   <g id="PolyCollection_41">
    <defs>
     <path id="mfb79ce34e1" d="M 195.950045 -467.021094 
L 195.950045 -467.021094 
L 240.235759 -467.021094 
L 240.235759 -467.021094 
L 284.521473 -467.021094 
L 284.521473 -467.021094 
L 328.807187 -467.021094 
L 328.807187 -467.021094 
L 328.807187 -467.021094 
L 284.521473 -467.021094 
L 284.521473 -467.021094 
L 240.235759 -467.021094 
L 240.235759 -467.021094 
L 195.950045 -467.021094 
z
"/>
    </defs>
    <g clip-path="url(#p7dba5ca987)">
     <use xlink:href="#mfb79ce34e1" x="0" y="506.684625" style="fill: #e5d8bd"/>
    </g>
   </g>
   <g id="PolyCollection_42">
    <defs>
     <path id="m44e1f7fa52" d="M 49.807188 -464.645094 
L 49.807188 -464.645094 
L 94.092902 -464.645094 
L 94.092902 -464.645094 
L 138.378616 -464.645094 
L 138.378616 -466.229094 
L 182.66433 -466.229094 
L 182.66433 -466.229094 
L 182.66433 -466.229094 
L 138.378616 -466.229094 
L 138.378616 -465.437094 
L 94.092902 -465.437094 
L 94.092902 -464.645094 
L 49.807188 -464.645094 
z
"/>
    </defs>
    <g clip-path="url(#p7dba5ca987)">
     <use xlink:href="#m44e1f7fa52" x="0" y="506.684625" style="fill: #e5d8bd"/>
    </g>
   </g>
   <g id="PolyCollection_43">
    <defs>
     <path id="mb639801070" d="M 195.950045 -467.021094 
L 195.950045 -467.021094 
L 240.235759 -467.021094 
L 240.235759 -467.021094 
L 284.521473 -467.021094 
L 284.521473 -467.021094 
L 328.807187 -467.021094 
L 328.807187 -467.021094 
L 328.807187 -467.021094 
L 284.521473 -467.021094 
L 284.521473 -467.021094 
L 240.235759 -467.021094 
L 240.235759 -467.021094 
L 195.950045 -467.021094 
z
"/>
    </defs>
    <g clip-path="url(#p7dba5ca987)">
     <use xlink:href="#mb639801070" x="0" y="506.684625" style="fill: #fddaec"/>
    </g>
   </g>
   <g id="PolyCollection_44">
    <defs>
     <path id="m9491686056" d="M 49.807188 -464.645094 
L 49.807188 -464.645094 
L 94.092902 -464.645094 
L 94.092902 -465.437094 
L 138.378616 -465.437094 
L 138.378616 -466.229094 
L 182.66433 -466.229094 
L 182.66433 -467.021094 
L 182.66433 -467.021094 
L 138.378616 -467.021094 
L 138.378616 -465.437094 
L 94.092902 -465.437094 
L 94.092902 -464.645094 
L 49.807188 -464.645094 
z
"/>
    </defs>
    <g clip-path="url(#p7dba5ca987)">
     <use xlink:href="#m9491686056" x="0" y="506.684625" style="fill: #fddaec"/>
    </g>
   </g>
   <g id="PolyCollection_45">
    <defs>
     <path id="m689fdaa1cc" d="M 195.950045 -467.021094 
L 195.950045 -467.021094 
L 240.235759 -467.021094 
L 240.235759 -467.021094 
L 284.521473 -467.021094 
L 284.521473 -467.021094 
L 328.807187 -467.021094 
L 328.807187 -467.021094 
L 328.807187 -467.021094 
L 284.521473 -467.021094 
L 284.521473 -467.021094 
L 240.235759 -467.021094 
L 240.235759 -467.021094 
L 195.950045 -467.021094 
z
"/>
    </defs>
    <g clip-path="url(#p7dba5ca987)">
     <use xlink:href="#m689fdaa1cc" x="0" y="506.684625" style="fill: #f2f2f2"/>
    </g>
   </g>
   <g id="PolyCollection_46">
    <defs>
     <path id="mc071cb9510" d="M 49.807188 -464.645094 
L 49.807188 -464.645094 
L 94.092902 -464.645094 
L 94.092902 -465.437094 
L 138.378616 -465.437094 
L 138.378616 -467.021094 
L 182.66433 -467.021094 
L 182.66433 -467.021094 
L 182.66433 -467.021094 
L 138.378616 -467.021094 
L 138.378616 -466.229094 
L 94.092902 -466.229094 
L 94.092902 -464.645094 
L 49.807188 -464.645094 
z
"/>
    </defs>
    <g clip-path="url(#p7dba5ca987)">
     <use xlink:href="#mc071cb9510" x="0" y="506.684625" style="fill: #f2f2f2"/>
    </g>
   </g>
   <g id="PolyCollection_47">
    <defs>
     <path id="m649cb5390b" d="M 195.950045 -467.021094 
L 195.950045 -467.021094 
L 240.235759 -467.021094 
L 240.235759 -467.021094 
L 284.521473 -467.021094 
L 284.521473 -467.021094 
L 328.807187 -467.021094 
L 328.807187 -467.021094 
L 328.807187 -467.021094 
L 284.521473 -467.021094 
L 284.521473 -467.021094 
L 240.235759 -467.021094 
L 240.235759 -467.021094 
L 195.950045 -467.021094 
z
"/>
    </defs>
    <g clip-path="url(#p7dba5ca987)">
     <use xlink:href="#m649cb5390b" x="0" y="506.684625" style="fill: #fbb4ae"/>
    </g>
   </g>
   <g id="PolyCollection_48">
    <defs>
     <path id="m39880dcbfd" d="M 49.807188 -465.437094 
L 49.807188 -464.645094 
L 94.092902 -464.645094 
L 94.092902 -466.229094 
L 138.378616 -466.229094 
L 138.378616 -467.021094 
L 182.66433 -467.021094 
L 182.66433 -467.021094 
L 182.66433 -467.021094 
L 138.378616 -467.021094 
L 138.378616 -466.229094 
L 94.092902 -466.229094 
L 94.092902 -465.437094 
L 49.807188 -465.437094 
z
"/>
    </defs>
    <g clip-path="url(#p7dba5ca987)">
     <use xlink:href="#m39880dcbfd" x="0" y="506.684625" style="fill: #fbb4ae"/>
    </g>
   </g>
   <g id="PolyCollection_49">
    <defs>
     <path id="m3802dcbef1" d="M 195.950045 -467.021094 
L 195.950045 -467.021094 
L 240.235759 -467.021094 
L 240.235759 -467.021094 
L 284.521473 -467.021094 
L 284.521473 -467.021094 
L 328.807187 -467.021094 
L 328.807187 -467.021094 
L 328.807187 -467.021094 
L 284.521473 -467.021094 
L 284.521473 -467.021094 
L 240.235759 -467.021094 
L 240.235759 -467.021094 
L 195.950045 -467.021094 
z
"/>
    </defs>
    <g clip-path="url(#p7dba5ca987)">
     <use xlink:href="#m3802dcbef1" x="0" y="506.684625" style="fill: #b3cde3"/>
    </g>
   </g>
   <g id="PolyCollection_50">
    <defs>
     <path id="madbf18038a" d="M 49.807188 -465.437094 
L 49.807188 -465.437094 
L 94.092902 -465.437094 
L 94.092902 -466.229094 
L 138.378616 -466.229094 
L 138.378616 -467.021094 
L 182.66433 -467.021094 
L 182.66433 -467.021094 
L 182.66433 -467.021094 
L 138.378616 -467.021094 
L 138.378616 -467.021094 
L 94.092902 -467.021094 
L 94.092902 -465.437094 
L 49.807188 -465.437094 
z
"/>
    </defs>
    <g clip-path="url(#p7dba5ca987)">
     <use xlink:href="#madbf18038a" x="0" y="506.684625" style="fill: #b3cde3"/>
    </g>
   </g>
   <g id="PolyCollection_51">
    <defs>
     <path id="m2967a64681" d="M 195.950045 -467.021094 
L 195.950045 -467.021094 
L 240.235759 -467.021094 
L 240.235759 -467.021094 
L 284.521473 -467.021094 
L 284.521473 -467.021094 
L 328.807187 -467.021094 
L 328.807187 -467.021094 
L 328.807187 -467.021094 
L 284.521473 -467.021094 
L 284.521473 -467.021094 
L 240.235759 -467.021094 
L 240.235759 -467.021094 
L 195.950045 -467.021094 
z
"/>
    </defs>
    <g clip-path="url(#p7dba5ca987)">
     <use xlink:href="#m2967a64681" x="0" y="506.684625" style="fill: #ccebc5"/>
    </g>
   </g>
   <g id="PolyCollection_52">
    <defs>
     <path id="mf7a226f0dd" d="M 49.807188 -466.229094 
L 49.807188 -465.437094 
L 94.092902 -465.437094 
L 94.092902 -467.021094 
L 138.378616 -467.021094 
L 138.378616 -467.021094 
L 182.66433 -467.021094 
L 182.66433 -467.021094 
L 182.66433 -467.021094 
L 138.378616 -467.021094 
L 138.378616 -467.021094 
L 94.092902 -467.021094 
L 94.092902 -466.229094 
L 49.807188 -466.229094 
z
"/>
    </defs>
    <g clip-path="url(#p7dba5ca987)">
     <use xlink:href="#mf7a226f0dd" x="0" y="506.684625" style="fill: #ccebc5"/>
    </g>
   </g>
   <g id="PolyCollection_53">
    <defs>
     <path id="m783fe32212" d="M 195.950045 -467.021094 
L 195.950045 -467.021094 
L 240.235759 -467.021094 
L 240.235759 -467.021094 
L 284.521473 -467.021094 
L 284.521473 -467.021094 
L 328.807187 -467.021094 
L 328.807187 -467.021094 
L 328.807187 -467.021094 
L 284.521473 -467.021094 
L 284.521473 -467.021094 
L 240.235759 -467.021094 
L 240.235759 -467.021094 
L 195.950045 -467.021094 
z
"/>
    </defs>
    <g clip-path="url(#p7dba5ca987)">
     <use xlink:href="#m783fe32212" x="0" y="506.684625" style="fill: #a6cee3"/>
    </g>
   </g>
   <g id="PolyCollection_54">
    <defs>
     <path id="m4cc0664a57" d="M 49.807188 -467.021094 
L 49.807188 -466.229094 
L 94.092902 -466.229094 
L 94.092902 -467.021094 
L 138.378616 -467.021094 
L 138.378616 -467.021094 
L 182.66433 -467.021094 
L 182.66433 -467.021094 
L 182.66433 -467.021094 
L 138.378616 -467.021094 
L 138.378616 -467.021094 
L 94.092902 -467.021094 
L 94.092902 -467.021094 
L 49.807188 -467.021094 
z
"/>
    </defs>
    <g clip-path="url(#p7dba5ca987)">
     <use xlink:href="#m4cc0664a57" x="0" y="506.684625" style="fill: #a6cee3"/>
    </g>
   </g>
   <g id="patch_3">
    <path d="M 195.950045 372.303531 
L 328.807187 372.303531 
L 328.807187 39.663531 
L 195.950045 39.663531 
L 195.950045 372.303531 
z
" clip-path="url(#p7dba5ca987)" style="fill: none; stroke: #808080; stroke-linejoin: miter"/>
   </g>
   <g id="patch_4">
    <path d="M 49.807188 372.303531 
L 182.66433 372.303531 
L 182.66433 39.663531 
L 49.807188 39.663531 
L 49.807188 372.303531 
z
" clip-path="url(#p7dba5ca987)" style="fill: none; stroke: #808080; stroke-linejoin: miter"/>
   </g>
   <g id="patch_5">
    <path d="M 49.807188 372.303531 
L 49.807188 39.663531 
" style="fill: none; stroke: #ffffff; stroke-width: 1.25; stroke-linejoin: miter; stroke-linecap: square"/>
   </g>
   <g id="patch_6">
    <path d="M 328.807187 372.303531 
L 328.807187 39.663531 
" style="fill: none; stroke: #ffffff; stroke-width: 1.25; stroke-linejoin: miter; stroke-linecap: square"/>
   </g>
   <g id="patch_7">
    <path d="M 49.807188 372.303531 
L 328.807187 372.303531 
" style="fill: none; stroke: #ffffff; stroke-width: 1.25; stroke-linejoin: miter; stroke-linecap: square"/>
   </g>
   <g id="patch_8">
    <path d="M 49.807188 39.663531 
L 328.807187 39.663531 
" style="fill: none; stroke: #ffffff; stroke-width: 1.25; stroke-linejoin: miter; stroke-linecap: square"/>
   </g>
   <g id="legend_1">
    <g id="patch_9">
     <path d="M 339.297188 493.239656 
L 592.092656 493.239656 
Q 594.292656 493.239656 594.292656 491.039656 
L 594.292656 30.731531 
Q 594.292656 28.531531 592.092656 28.531531 
L 339.297188 28.531531 
Q 337.097188 28.531531 337.097188 30.731531 
L 337.097188 491.039656 
Q 337.097188 493.239656 339.297188 493.239656 
z
" style="fill: #eaeaf2; opacity: 0.8; stroke: #cccccc; stroke-linejoin: miter"/>
    </g>
    <g id="text_14">
     <text style="fill: #262626; font: 700 12px 'sans-serif'; text-anchor: start" x="422.204297" y="42.049656" transform="rotate(-0, 422.204297, 42.049656)">Rank: Family</text>
    </g>
    <g id="patch_10">
     <path d="M 341.497187 58.497313 
L 363.497187 58.497313 
L 363.497187 50.797313 
L 341.497187 50.797313 
z
" style="fill: #ffff99; stroke: #ffff99; stroke-linejoin: miter"/>
    </g>
    <g id="text_15">
     <text style="fill: #262626; font: 11px 'sans-serif'; text-anchor: start" x="372.297188" y="58.497313" transform="rotate(-0, 372.297188, 58.497313)">42.74 %: f__Lachnospiraceae</text>
    </g>
    <g id="patch_11">
     <path d="M 341.497187 74.949187 
L 363.497187 74.949187 
L 363.497187 67.249187 
L 341.497187 67.249187 
z
" style="fill: #b15928; stroke: #b15928; stroke-linejoin: miter"/>
    </g>
    <g id="text_16">
     <text style="fill: #262626; font: 11px 'sans-serif'; text-anchor: start" x="372.297188" y="74.949187" transform="rotate(-0, 372.297188, 74.949187)">37.10 %: f__Muribaculaceae</text>
    </g>
    <g id="patch_12">
     <path d="M 341.497187 91.401063 
L 363.497187 91.401063 
L 363.497187 83.701063 
L 341.497187 83.701063 
z
" style="fill: #1b9e77; stroke: #1b9e77; stroke-linejoin: miter"/>
    </g>
    <g id="text_17">
     <text style="fill: #262626; font: 11px 'sans-serif'; text-anchor: start" x="372.297188" y="91.401063" transform="rotate(-0, 372.297188, 91.401063)">6.43 %: f__Bacteroidaceae</text>
    </g>
    <g id="patch_13">
     <path d="M 341.497187 107.852938 
L 363.497187 107.852938 
L 363.497187 100.152938 
L 341.497187 100.152938 
z
" style="fill: #d95f02; stroke: #d95f02; stroke-linejoin: miter"/>
    </g>
    <g id="text_18">
     <text style="fill: #262626; font: 11px 'sans-serif'; text-anchor: start" x="372.297188" y="107.852938" transform="rotate(-0, 372.297188, 107.852938)">3.25 %: f__Lactobacillaceae</text>
    </g>
    <g id="patch_14">
     <path d="M 341.497187 124.304813 
L 363.497187 124.304813 
L 363.497187 116.604813 
L 341.497187 116.604813 
z
" style="fill: #7570b3; stroke: #7570b3; stroke-linejoin: miter"/>
    </g>
    <g id="text_19">
     <text style="fill: #262626; font: 11px 'sans-serif'; text-anchor: start" x="372.297188" y="124.304813" transform="rotate(-0, 372.297188, 124.304813)">2.50 %: f__CAG-508</text>
    </g>
    <g id="patch_15">
     <path d="M 341.497187 140.756687 
L 363.497187 140.756687 
L 363.497187 133.056688 
L 341.497187 133.056688 
z
" style="fill: #e7298a; stroke: #e7298a; stroke-linejoin: miter"/>
    </g>
    <g id="text_20">
     <text style="fill: #262626; font: 11px 'sans-serif'; text-anchor: start" x="372.297188" y="140.756687" transform="rotate(-0, 372.297188, 140.756687)">2.26 %: f__Oscillospiraceae_88309</text>
    </g>
    <g id="patch_16">
     <path d="M 341.497187 157.208563 
L 363.497187 157.208563 
L 363.497187 149.508563 
L 341.497187 149.508563 
z
" style="fill: #66a61e; stroke: #66a61e; stroke-linejoin: miter"/>
    </g>
    <g id="text_21">
     <text style="fill: #262626; font: 11px 'sans-serif'; text-anchor: start" x="372.297188" y="157.208563" transform="rotate(-0, 372.297188, 157.208563)">1.03 %: f__Rikenellaceae</text>
    </g>
    <g id="patch_17">
     <path d="M 341.497187 173.660438 
L 363.497187 173.660438 
L 363.497187 165.960438 
L 341.497187 165.960438 
z
" style="fill: #e6ab02; stroke: #e6ab02; stroke-linejoin: miter"/>
    </g>
    <g id="text_22">
     <text style="fill: #262626; font: 11px 'sans-serif'; text-anchor: start" x="372.297188" y="173.660438" transform="rotate(-0, 372.297188, 173.660438)">0.83 %: f__Pseudomonadaceae</text>
    </g>
    <g id="patch_18">
     <path d="M 341.497187 190.112313 
L 363.497187 190.112313 
L 363.497187 182.412313 
L 341.497187 182.412313 
z
" style="fill: #a6761d; stroke: #a6761d; stroke-linejoin: miter"/>
    </g>
    <g id="text_23">
     <text style="fill: #262626; font: 11px 'sans-serif'; text-anchor: start" x="372.297188" y="190.112313" transform="rotate(-0, 372.297188, 190.112313)">0.67 %: f__</text>
    </g>
    <g id="patch_19">
     <path d="M 341.497187 206.564188 
L 363.497187 206.564188 
L 363.497187 198.864188 
L 341.497187 198.864188 
z
" style="fill: #666666; stroke: #666666; stroke-linejoin: miter"/>
    </g>
    <g id="text_24">
     <text style="fill: #262626; font: 11px 'sans-serif'; text-anchor: start" x="372.297188" y="206.564188" transform="rotate(-0, 372.297188, 206.564188)">0.63 %: f__Parvibaculaceae</text>
    </g>
    <g id="patch_20">
     <path d="M 341.497187 223.016063 
L 363.497187 223.016063 
L 363.497187 215.316063 
L 341.497187 215.316063 
z
" style="fill: #1b9e77; stroke: #1b9e77; stroke-linejoin: miter"/>
    </g>
    <g id="text_25">
     <text style="fill: #262626; font: 11px 'sans-serif'; text-anchor: start" x="372.297188" y="223.016063" transform="rotate(-0, 372.297188, 223.016063)">0.56 %: f__Ruminococcaceae</text>
    </g>
    <g id="patch_21">
     <path d="M 341.497187 239.467938 
L 363.497187 239.467938 
L 363.497187 231.767938 
L 341.497187 231.767938 
z
" style="fill: #d95f02; stroke: #d95f02; stroke-linejoin: miter"/>
    </g>
    <g id="text_26">
     <text style="fill: #262626; font: 11px 'sans-serif'; text-anchor: start" x="372.297188" y="239.467938" transform="rotate(-0, 372.297188, 239.467938)">0.44 %: f__Dehalobacteriaceae</text>
    </g>
    <g id="patch_22">
     <path d="M 341.497187 255.919813 
L 363.497187 255.919813 
L 363.497187 248.219813 
L 341.497187 248.219813 
z
" style="fill: #7570b3; stroke: #7570b3; stroke-linejoin: miter"/>
    </g>
    <g id="text_27">
     <text style="fill: #262626; font: 11px 'sans-serif'; text-anchor: start" x="372.297188" y="255.919813" transform="rotate(-0, 372.297188, 255.919813)">0.24 %: f__Burkholderiaceae_A_595421</text>
    </g>
    <g id="patch_23">
     <path d="M 341.497187 272.371688 
L 363.497187 272.371688 
L 363.497187 264.671688 
L 341.497187 264.671688 
z
" style="fill: #e7298a; stroke: #e7298a; stroke-linejoin: miter"/>
    </g>
    <g id="text_28">
     <text style="fill: #262626; font: 11px 'sans-serif'; text-anchor: start" x="372.297188" y="272.371688" transform="rotate(-0, 372.297188, 272.371688)">0.24 %: f__Turicibacteraceae</text>
    </g>
    <g id="patch_24">
     <path d="M 341.497187 288.823563 
L 363.497187 288.823563 
L 363.497187 281.123563 
L 341.497187 281.123563 
z
" style="fill: #fbb4ae; stroke: #fbb4ae; stroke-linejoin: miter"/>
    </g>
    <g id="text_29">
     <text style="fill: #262626; font: 11px 'sans-serif'; text-anchor: start" x="372.297188" y="288.823563" transform="rotate(-0, 372.297188, 288.823563)">0.20 %: f__Butyricicoccaceae</text>
    </g>
    <g id="patch_25">
     <path d="M 341.497187 305.275438 
L 363.497187 305.275438 
L 363.497187 297.575438 
L 341.497187 297.575438 
z
" style="fill: #b3cde3; stroke: #b3cde3; stroke-linejoin: miter"/>
    </g>
    <g id="text_30">
     <text style="fill: #262626; font: 11px 'sans-serif'; text-anchor: start" x="372.297188" y="305.275438" transform="rotate(-0, 372.297188, 305.275438)">0.20 %: f__Tannerellaceae</text>
    </g>
    <g id="patch_26">
     <path d="M 341.497187 321.727313 
L 363.497187 321.727313 
L 363.497187 314.027313 
L 341.497187 314.027313 
z
" style="fill: #ccebc5; stroke: #ccebc5; stroke-linejoin: miter"/>
    </g>
    <g id="text_31">
     <text style="fill: #262626; font: 11px 'sans-serif'; text-anchor: start" x="372.297188" y="321.727313" transform="rotate(-0, 372.297188, 321.727313)">0.16 %: f__Desulfovibrionaceae</text>
    </g>
    <g id="patch_27">
     <path d="M 341.497187 338.179188 
L 363.497187 338.179188 
L 363.497187 330.479188 
L 341.497187 330.479188 
z
" style="fill: #decbe4; stroke: #decbe4; stroke-linejoin: miter"/>
    </g>
    <g id="text_32">
     <text style="fill: #262626; font: 11px 'sans-serif'; text-anchor: start" x="372.297188" y="338.179188" transform="rotate(-0, 372.297188, 338.179188)">0.08 %: f__Gastranaerophilaceae</text>
    </g>
    <g id="patch_28">
     <path d="M 341.497187 354.631062 
L 363.497187 354.631062 
L 363.497187 346.931062 
L 341.497187 346.931062 
z
" style="fill: #fed9a6; stroke: #fed9a6; stroke-linejoin: miter"/>
    </g>
    <g id="text_33">
     <text style="fill: #262626; font: 11px 'sans-serif'; text-anchor: start" x="372.297188" y="354.631062" transform="rotate(-0, 372.297188, 354.631062)">0.08 %: f__Clostridiaceae_222000</text>
    </g>
    <g id="patch_29">
     <path d="M 341.497187 371.082937 
L 363.497187 371.082937 
L 363.497187 363.382937 
L 341.497187 363.382937 
z
" style="fill: #ffffcc; stroke: #ffffcc; stroke-linejoin: miter"/>
    </g>
    <g id="text_34">
     <text style="fill: #262626; font: 11px 'sans-serif'; text-anchor: start" x="372.297188" y="371.082937" transform="rotate(-0, 372.297188, 371.082937)">0.08 %: f__Erysipelotrichaceae</text>
    </g>
    <g id="patch_30">
     <path d="M 341.497187 387.534812 
L 363.497187 387.534812 
L 363.497187 379.834812 
L 341.497187 379.834812 
z
" style="fill: #e5d8bd; stroke: #e5d8bd; stroke-linejoin: miter"/>
    </g>
    <g id="text_35">
     <text style="fill: #262626; font: 11px 'sans-serif'; text-anchor: start" x="372.297188" y="387.534812" transform="rotate(-0, 372.297188, 387.534812)">0.04 %: f__Acutalibacteraceae</text>
    </g>
    <g id="patch_31">
     <path d="M 341.497187 403.986687 
L 363.497187 403.986687 
L 363.497187 396.286687 
L 341.497187 396.286687 
z
" style="fill: #fddaec; stroke: #fddaec; stroke-linejoin: miter"/>
    </g>
    <g id="text_36">
     <text style="fill: #262626; font: 11px 'sans-serif'; text-anchor: start" x="372.297188" y="403.986687" transform="rotate(-0, 372.297188, 403.986687)">0.04 %: f__Caulobacteraceae</text>
    </g>
    <g id="patch_32">
     <path d="M 341.497187 420.438562 
L 363.497187 420.438562 
L 363.497187 412.738562 
L 341.497187 412.738562 
z
" style="fill: #f2f2f2; stroke: #f2f2f2; stroke-linejoin: miter"/>
    </g>
    <g id="text_37">
     <text style="fill: #262626; font: 11px 'sans-serif'; text-anchor: start" x="372.297188" y="420.438562" transform="rotate(-0, 372.297188, 420.438562)">0.04 %: f__Mycobacteriaceae</text>
    </g>
    <g id="patch_33">
     <path d="M 341.497187 436.890437 
L 363.497187 436.890437 
L 363.497187 429.190437 
L 341.497187 429.190437 
z
" style="fill: #fbb4ae; stroke: #fbb4ae; stroke-linejoin: miter"/>
    </g>
    <g id="text_38">
     <text style="fill: #262626; font: 11px 'sans-serif'; text-anchor: start" x="372.297188" y="436.890437" transform="rotate(-0, 372.297188, 436.890437)">0.04 %: f__Rhizobiaceae</text>
    </g>
    <g id="patch_34">
     <path d="M 341.497187 453.342312 
L 363.497187 453.342312 
L 363.497187 445.642312 
L 341.497187 445.642312 
z
" style="fill: #b3cde3; stroke: #b3cde3; stroke-linejoin: miter"/>
    </g>
    <g id="text_39">
     <text style="fill: #262626; font: 11px 'sans-serif'; text-anchor: start" x="372.297188" y="453.342312" transform="rotate(-0, 372.297188, 453.342312)">0.04 %: f__Rhodobacteraceae</text>
    </g>
    <g id="patch_35">
     <path d="M 341.497187 469.794187 
L 363.497187 469.794187 
L 363.497187 462.094187 
L 341.497187 462.094187 
z
" style="fill: #ccebc5; stroke: #ccebc5; stroke-linejoin: miter"/>
    </g>
    <g id="text_40">
     <text style="fill: #262626; font: 11px 'sans-serif'; text-anchor: start" x="372.297188" y="469.794187" transform="rotate(-0, 372.297188, 469.794187)">0.04 %: f__Akkermansiaceae</text>
    </g>
    <g id="patch_36">
     <path d="M 341.497187 486.246062 
L 363.497187 486.246062 
L 363.497187 478.546062 
L 341.497187 478.546062 
z
" style="fill: #a6cee3; stroke: #a6cee3; stroke-linejoin: miter"/>
    </g>
    <g id="text_41">
     <text style="fill: #262626; font: 11px 'sans-serif'; text-anchor: start" x="372.297188" y="486.246062" transform="rotate(-0, 372.297188, 486.246062)">0.04 %: f__UBA660</text>
    </g>
   </g>
  </g>
  <g id="axes_2">
   <g id="matplotlib.axis_3">
    <g id="xtick_7">
     <g id="line2d_19">
      <defs>
       <path id="m2370ae6ec2" d="M 0 0 
L 0 -6 
" style="stroke: #262626; stroke-width: 1.25"/>
      </defs>
      <g>
       <use xlink:href="#m2370ae6ec2" x="262.378616" y="39.663531" style="fill: #262626; stroke: #262626; stroke-width: 1.25"/>
      </g>
     </g>
     <g id="text_42">
      <text style="fill: #262626; font: 11px 'sans-serif'" transform="translate(247.031897 15.558281)">TCDD</text>
      <text style="fill: #262626; font: 11px 'sans-serif'" transform="translate(246.493069 27.875875)">(n=3)</text>
     </g>
    </g>
    <g id="xtick_8">
     <g id="line2d_20">
      <g>
       <use xlink:href="#m2370ae6ec2" x="116.235759" y="39.663531" style="fill: #262626; stroke: #262626; stroke-width: 1.25"/>
      </g>
     </g>
     <g id="text_43">
      <text style="fill: #262626; font: 11px 'sans-serif'" transform="translate(97.173962 15.558281)">control</text>
      <text style="fill: #262626; font: 11px 'sans-serif'" transform="translate(100.350212 27.875875)">(n=3)</text>
     </g>
    </g>
   </g>
   <g id="patch_37">
    <path d="M 49.807188 372.303531 
L 49.807188 39.663531 
" style="fill: none; stroke: #ffffff; stroke-width: 1.25; stroke-linejoin: miter; stroke-linecap: square"/>
   </g>
   <g id="patch_38">
    <path d="M 328.807187 372.303531 
L 328.807187 39.663531 
" style="fill: none; stroke: #ffffff; stroke-width: 1.25; stroke-linejoin: miter; stroke-linecap: square"/>
   </g>
   <g id="patch_39">
    <path d="M 49.807188 372.303531 
L 328.807187 372.303531 
" style="fill: none; stroke: #ffffff; stroke-width: 1.25; stroke-linejoin: miter; stroke-linecap: square"/>
   </g>
   <g id="patch_40">
    <path d="M 49.807188 39.663531 
L 328.807187 39.663531 
" style="fill: none; stroke: #ffffff; stroke-width: 1.25; stroke-linejoin: miter; stroke-linecap: square"/>
   </g>
  </g>
 </g>
 <defs>
  <clipPath id="p7dba5ca987">
   <rect x="49.807188" y="39.663531" width="279" height="332.64"/>
  </clipPath>
 </defs>
</svg>
