<?xml version="1.0" encoding="utf-8" standalone="no"?>
<!DOCTYPE svg PUBLIC "-//W3C//DTD SVG 1.1//EN"
  "http://www.w3.org/Graphics/SVG/1.1/DTD/svg11.dtd">
<svg xmlns:xlink="http://www.w3.org/1999/xlink" width="737.10875pt" height="382.304062pt" viewBox="0 0 737.10875 382.304062" xmlns="http://www.w3.org/2000/svg" version="1.1">
 <metadata>
  <rdf:RDF xmlns:dc="http://purl.org/dc/elements/1.1/" xmlns:cc="http://creativecommons.org/ns#" xmlns:rdf="http://www.w3.org/1999/02/22-rdf-syntax-ns#">
   <cc:Work>
    <dc:type rdf:resource="http://purl.org/dc/dcmitype/StillImage"/>
    <dc:date>2025-02-28T16:42:41.962937</dc:date>
    <dc:format>image/svg+xml</dc:format>
    <dc:creator>
     <cc:Agent>
      <dc:title>Matplotlib v3.5.3, https://matplotlib.org/</dc:title>
     </cc:Agent>
    </dc:creator>
   </cc:Work>
  </rdf:RDF>
 </metadata>
 <defs>
  <style type="text/css">*{stroke-linejoin: round; stroke-linecap: butt}</style>
 </defs>
 <g id="figure_1">
  <g id="patch_1">
   <path d="M 0 382.304062 
L 737.10875 382.304062 
L 737.10875 0 
L 0 0 
z
" style="fill: #ffffff"/>
  </g>
  <g id="axes_1">
   <g id="patch_2">
    <path d="M 60.30875 354.958125 
L 170.079242 354.958125 
L 170.079242 22.318125 
L 60.30875 22.318125 
z
" style="fill: #ffffff"/>
   </g>
   <g id="matplotlib.axis_1">
    <g id="xtick_1">
     <g id="line2d_1">
      <defs>
       <path id="m56ff910c4b" d="M 0 0 
L 0 6 
" style="stroke: #262626; stroke-width: 1.25"/>
      </defs>
      <g>
       <use xlink:href="#m56ff910c4b" x="87.474175" y="354.958125" style="fill: #262626; stroke: #262626; stroke-width: 1.25"/>
      </g>
     </g>
     <g id="text_1">
      <text style="fill: #262626; font: 11px 'sans-serif'; text-anchor: middle" x="87.474175" y="372.816406" transform="rotate(-0, 87.474175, 372.816406)">control</text>
     </g>
    </g>
    <g id="xtick_2">
     <g id="line2d_2">
      <g>
       <use xlink:href="#m56ff910c4b" x="142.913817" y="354.958125" style="fill: #262626; stroke: #262626; stroke-width: 1.25"/>
      </g>
     </g>
     <g id="text_2">
      <text style="fill: #262626; font: 11px 'sans-serif'; text-anchor: middle" x="142.913817" y="372.816406" transform="rotate(-0, 142.913817, 372.816406)">TCDD</text>
     </g>
    </g>
   </g>
   <g id="matplotlib.axis_2">
    <g id="ytick_1">
     <g id="line2d_3">
      <defs>
       <path id="mfd9d7c936d" d="M 0 0 
L -6 0 
" style="stroke: #262626; stroke-width: 1.25"/>
      </defs>
      <g>
       <use xlink:href="#mfd9d7c936d" x="60.30875" y="330.480596" style="fill: #262626; stroke: #262626; stroke-width: 1.25"/>
      </g>
     </g>
     <g id="text_3">
      <text style="fill: #262626; font: 11px 'sans-serif'; text-anchor: end" x="50.80875" y="334.659737" transform="rotate(-0, 50.80875, 334.659737)">250</text>
     </g>
    </g>
    <g id="ytick_2">
     <g id="line2d_4">
      <g>
       <use xlink:href="#mfd9d7c936d" x="60.30875" y="287.26462" style="fill: #262626; stroke: #262626; stroke-width: 1.25"/>
      </g>
     </g>
     <g id="text_4">
      <text style="fill: #262626; font: 11px 'sans-serif'; text-anchor: end" x="50.80875" y="291.443761" transform="rotate(-0, 50.80875, 291.443761)">500</text>
     </g>
    </g>
    <g id="ytick_3">
     <g id="line2d_5">
      <g>
       <use xlink:href="#mfd9d7c936d" x="60.30875" y="244.048644" style="fill: #262626; stroke: #262626; stroke-width: 1.25"/>
      </g>
     </g>
     <g id="text_5">
      <text style="fill: #262626; font: 11px 'sans-serif'; text-anchor: end" x="50.80875" y="248.227784" transform="rotate(-0, 50.80875, 248.227784)">750</text>
     </g>
    </g>
    <g id="ytick_4">
     <g id="line2d_6">
      <g>
       <use xlink:href="#mfd9d7c936d" x="60.30875" y="200.832667" style="fill: #262626; stroke: #262626; stroke-width: 1.25"/>
      </g>
     </g>
     <g id="text_6">
      <text style="fill: #262626; font: 11px 'sans-serif'; text-anchor: end" x="50.80875" y="205.011808" transform="rotate(-0, 50.80875, 205.011808)">1000</text>
     </g>
    </g>
    <g id="ytick_5">
     <g id="line2d_7">
      <g>
       <use xlink:href="#mfd9d7c936d" x="60.30875" y="157.616691" style="fill: #262626; stroke: #262626; stroke-width: 1.25"/>
      </g>
     </g>
     <g id="text_7">
      <text style="fill: #262626; font: 11px 'sans-serif'; text-anchor: end" x="50.80875" y="161.795832" transform="rotate(-0, 50.80875, 161.795832)">1250</text>
     </g>
    </g>
    <g id="ytick_6">
     <g id="line2d_8">
      <g>
       <use xlink:href="#mfd9d7c936d" x="60.30875" y="114.400715" style="fill: #262626; stroke: #262626; stroke-width: 1.25"/>
      </g>
     </g>
     <g id="text_8">
      <text style="fill: #262626; font: 11px 'sans-serif'; text-anchor: end" x="50.80875" y="118.579856" transform="rotate(-0, 50.80875, 118.579856)">1500</text>
     </g>
    </g>
    <g id="ytick_7">
     <g id="line2d_9">
      <g>
       <use xlink:href="#mfd9d7c936d" x="60.30875" y="71.184739" style="fill: #262626; stroke: #262626; stroke-width: 1.25"/>
      </g>
     </g>
     <g id="text_9">
      <text style="fill: #262626; font: 11px 'sans-serif'; text-anchor: end" x="50.80875" y="75.363879" transform="rotate(-0, 50.80875, 75.363879)">1750</text>
     </g>
    </g>
    <g id="ytick_8">
     <g id="line2d_10">
      <g>
       <use xlink:href="#mfd9d7c936d" x="60.30875" y="27.968763" style="fill: #262626; stroke: #262626; stroke-width: 1.25"/>
      </g>
     </g>
     <g id="text_10">
      <text style="fill: #262626; font: 11px 'sans-serif'; text-anchor: end" x="50.80875" y="32.147903" transform="rotate(-0, 50.80875, 32.147903)">2000</text>
     </g>
    </g>
    <g id="text_11">
     <text style="fill: #262626; font: 12px 'sans-serif'; text-anchor: middle" x="16.318125" y="188.638125" transform="rotate(-90, 16.318125, 188.638125)">absolute abundance</text>
    </g>
   </g>
   <g id="patch_3">
    <path d="M 65.298318 172.742283 
L 109.650032 172.742283 
L 109.650032 98.583668 
L 65.298318 98.583668 
L 65.298318 172.742283 
z
" clip-path="url(#pd4a4a76555)" style="fill: #d3d3d3; stroke: #7f7f7f; stroke-width: 1.5; stroke-linejoin: miter"/>
   </g>
   <g id="patch_4">
    <path d="M 120.73796 337.913744 
L 165.089674 337.913744 
L 165.089674 324.948951 
L 120.73796 324.948951 
L 120.73796 337.913744 
z
" clip-path="url(#pd4a4a76555)" style="fill: #d3d3d3; stroke: #7f7f7f; stroke-width: 1.5; stroke-linejoin: miter"/>
   </g>
   <g id="line2d_11">
    <path d="M 87.474175 172.742283 
L 87.474175 217.946194 
" clip-path="url(#pd4a4a76555)" style="fill: none; stroke: #7f7f7f; stroke-width: 1.5; stroke-linecap: round"/>
   </g>
   <g id="line2d_12">
    <path d="M 87.474175 98.583668 
L 87.474175 69.628964 
" clip-path="url(#pd4a4a76555)" style="fill: none; stroke: #7f7f7f; stroke-width: 1.5; stroke-linecap: round"/>
   </g>
   <g id="line2d_13">
    <path d="M 76.386246 217.946194 
L 98.562103 217.946194 
" clip-path="url(#pd4a4a76555)" style="fill: none; stroke: #7f7f7f; stroke-width: 1.5; stroke-linecap: round"/>
   </g>
   <g id="line2d_14">
    <path d="M 76.386246 69.628964 
L 98.562103 69.628964 
" clip-path="url(#pd4a4a76555)" style="fill: none; stroke: #7f7f7f; stroke-width: 1.5; stroke-linecap: round"/>
   </g>
   <g id="line2d_15"/>
   <g id="line2d_16">
    <path d="M 142.913817 337.913744 
L 142.913817 341.371022 
" clip-path="url(#pd4a4a76555)" style="fill: none; stroke: #7f7f7f; stroke-width: 1.5; stroke-linecap: round"/>
   </g>
   <g id="line2d_17">
    <path d="M 142.913817 324.948951 
L 142.913817 315.441436 
" clip-path="url(#pd4a4a76555)" style="fill: none; stroke: #7f7f7f; stroke-width: 1.5; stroke-linecap: round"/>
   </g>
   <g id="line2d_18">
    <path d="M 131.825889 341.371022 
L 154.001746 341.371022 
" clip-path="url(#pd4a4a76555)" style="fill: none; stroke: #7f7f7f; stroke-width: 1.5; stroke-linecap: round"/>
   </g>
   <g id="line2d_19">
    <path d="M 131.825889 315.441436 
L 154.001746 315.441436 
" clip-path="url(#pd4a4a76555)" style="fill: none; stroke: #7f7f7f; stroke-width: 1.5; stroke-linecap: round"/>
   </g>
   <g id="line2d_20"/>
   <g id="line2d_21">
    <path d="M 87.474175 51.693988 
L 87.474175 45.715663 
L 142.913817 45.715663 
L 142.913817 51.693988 
" clip-path="url(#pd4a4a76555)" style="fill: none; stroke: #333333; stroke-width: 1.5; stroke-linecap: round"/>
   </g>
   <g id="line2d_22">
    <path d="M 65.298318 127.538372 
L 109.650032 127.538372 
" clip-path="url(#pd4a4a76555)" style="fill: none; stroke: #7f7f7f; stroke-width: 1.5; stroke-linecap: round"/>
   </g>
   <g id="line2d_23">
    <path d="M 120.73796 334.456466 
L 165.089674 334.456466 
" clip-path="url(#pd4a4a76555)" style="fill: none; stroke: #7f7f7f; stroke-width: 1.5; stroke-linecap: round"/>
   </g>
   <g id="patch_5">
    <path d="M 60.30875 354.958125 
L 60.30875 22.318125 
" style="fill: none; stroke: #262626; stroke-width: 1.25; stroke-linejoin: miter; stroke-linecap: square"/>
   </g>
   <g id="patch_6">
    <path d="M 170.079242 354.958125 
L 170.079242 22.318125 
" style="fill: none; stroke: #262626; stroke-width: 1.25; stroke-linejoin: miter; stroke-linecap: square"/>
   </g>
   <g id="patch_7">
    <path d="M 60.30875 354.958125 
L 170.079242 354.958125 
" style="fill: none; stroke: #262626; stroke-width: 1.25; stroke-linejoin: miter; stroke-linecap: square"/>
   </g>
   <g id="patch_8">
    <path d="M 60.30875 22.318125 
L 170.079242 22.318125 
" style="fill: none; stroke: #262626; stroke-width: 1.25; stroke-linejoin: miter; stroke-linecap: square"/>
   </g>
   <g id="PathCollection_1">
    <defs>
     <path id="C0_0_d261b97db7" d="M 0 5 
C 1.326016 5 2.597899 4.473168 3.535534 3.535534 
C 4.473168 2.597899 5 1.326016 5 -0 
C 5 -1.326016 4.473168 -2.597899 3.535534 -3.535534 
C 2.597899 -4.473168 1.326016 -5 0 -5 
C -1.326016 -5 -2.597899 -4.473168 -3.535534 -3.535534 
C -4.473168 -2.597899 -5 -1.326016 -5 0 
C -5 1.326016 -4.473168 2.597899 -3.535534 3.535534 
C -2.597899 4.473168 -1.326016 5 0 5 
z
"/>
    </defs>
    <g clip-path="url(#pd4a4a76555)">
     <use xlink:href="#C0_0_d261b97db7" x="87.808538" y="217.946194" style="fill: #ff7f0e"/>
    </g>
    <g clip-path="url(#pd4a4a76555)">
     <use xlink:href="#C0_0_d261b97db7" x="82.337449" y="69.628964" style="fill: #ff7f0e"/>
    </g>
    <g clip-path="url(#pd4a4a76555)">
     <use xlink:href="#C0_0_d261b97db7" x="89.171029" y="127.538372" style="fill: #ff7f0e"/>
    </g>
   </g>
   <g id="PathCollection_2">
    <defs>
     <path id="C1_0_5ee7ad5a03" d="M 0 5 
C 1.326016 5 2.597899 4.473168 3.535534 3.535534 
C 4.473168 2.597899 5 1.326016 5 -0 
C 5 -1.326016 4.473168 -2.597899 3.535534 -3.535534 
C 2.597899 -4.473168 1.326016 -5 0 -5 
C -1.326016 -5 -2.597899 -4.473168 -3.535534 -3.535534 
C -4.473168 -2.597899 -5 -1.326016 -5 0 
C -5 1.326016 -4.473168 2.597899 -3.535534 3.535534 
C -2.597899 4.473168 -1.326016 5 0 5 
z
"/>
    </defs>
    <g clip-path="url(#pd4a4a76555)">
     <use xlink:href="#C1_0_5ee7ad5a03" x="145.02742" y="315.441436" style="fill: #1f77b4"/>
    </g>
    <g clip-path="url(#pd4a4a76555)">
     <use xlink:href="#C1_0_5ee7ad5a03" x="145.08405" y="341.371022" style="fill: #1f77b4"/>
    </g>
    <g clip-path="url(#pd4a4a76555)">
     <use xlink:href="#C1_0_5ee7ad5a03" x="143.126515" y="334.456466" style="fill: #1f77b4"/>
    </g>
   </g>
   <g id="text_12">
    <text style="fill: #262626; font: 12px 'sans-serif'; text-anchor: middle" x="115.193996" y="42.220038" transform="rotate(-0, 115.193996, 42.220038)">*</text>
   </g>
   <g id="text_13">
    <text style="fill: #262626; font: 12px 'sans-serif'; text-anchor: middle" x="115.193996" y="16.318125" transform="rotate(-0, 115.193996, 16.318125)">Muribaculaceae</text>
   </g>
  </g>
  <g id="axes_2">
   <g id="patch_9">
    <path d="M 246.918586 354.958125 
L 356.689078 354.958125 
L 356.689078 22.318125 
L 246.918586 22.318125 
z
" style="fill: #ffffff"/>
   </g>
   <g id="matplotlib.axis_3">
    <g id="xtick_3">
     <g id="line2d_24">
      <g>
       <use xlink:href="#m56ff910c4b" x="274.084011" y="354.958125" style="fill: #262626; stroke: #262626; stroke-width: 1.25"/>
      </g>
     </g>
     <g id="text_14">
      <text style="fill: #262626; font: 11px 'sans-serif'; text-anchor: middle" x="274.084011" y="372.816406" transform="rotate(-0, 274.084011, 372.816406)">control</text>
     </g>
    </g>
    <g id="xtick_4">
     <g id="line2d_25">
      <g>
       <use xlink:href="#m56ff910c4b" x="329.523653" y="354.958125" style="fill: #262626; stroke: #262626; stroke-width: 1.25"/>
      </g>
     </g>
     <g id="text_15">
      <text style="fill: #262626; font: 11px 'sans-serif'; text-anchor: middle" x="329.523653" y="372.816406" transform="rotate(-0, 329.523653, 372.816406)">TCDD</text>
     </g>
    </g>
   </g>
   <g id="matplotlib.axis_4">
    <g id="ytick_9">
     <g id="line2d_26">
      <g>
       <use xlink:href="#mfd9d7c936d" x="246.918586" y="342.398014" style="fill: #262626; stroke: #262626; stroke-width: 1.25"/>
      </g>
     </g>
     <g id="text_16">
      <text style="fill: #262626; font: 11px 'sans-serif'; text-anchor: end" x="237.418586" y="346.577155" transform="rotate(-0, 237.418586, 346.577155)">200</text>
     </g>
    </g>
    <g id="ytick_10">
     <g id="line2d_27">
      <g>
       <use xlink:href="#mfd9d7c936d" x="246.918586" y="301.318338" style="fill: #262626; stroke: #262626; stroke-width: 1.25"/>
      </g>
     </g>
     <g id="text_17">
      <text style="fill: #262626; font: 11px 'sans-serif'; text-anchor: end" x="237.418586" y="305.497478" transform="rotate(-0, 237.418586, 305.497478)">400</text>
     </g>
    </g>
    <g id="ytick_11">
     <g id="line2d_28">
      <g>
       <use xlink:href="#mfd9d7c936d" x="246.918586" y="260.238661" style="fill: #262626; stroke: #262626; stroke-width: 1.25"/>
      </g>
     </g>
     <g id="text_18">
      <text style="fill: #262626; font: 11px 'sans-serif'; text-anchor: end" x="237.418586" y="264.417802" transform="rotate(-0, 237.418586, 264.417802)">600</text>
     </g>
    </g>
    <g id="ytick_12">
     <g id="line2d_29">
      <g>
       <use xlink:href="#mfd9d7c936d" x="246.918586" y="219.158985" style="fill: #262626; stroke: #262626; stroke-width: 1.25"/>
      </g>
     </g>
     <g id="text_19">
      <text style="fill: #262626; font: 11px 'sans-serif'; text-anchor: end" x="237.418586" y="223.338126" transform="rotate(-0, 237.418586, 223.338126)">800</text>
     </g>
    </g>
    <g id="ytick_13">
     <g id="line2d_30">
      <g>
       <use xlink:href="#mfd9d7c936d" x="246.918586" y="178.079309" style="fill: #262626; stroke: #262626; stroke-width: 1.25"/>
      </g>
     </g>
     <g id="text_20">
      <text style="fill: #262626; font: 11px 'sans-serif'; text-anchor: end" x="237.418586" y="182.25845" transform="rotate(-0, 237.418586, 182.25845)">1000</text>
     </g>
    </g>
    <g id="ytick_14">
     <g id="line2d_31">
      <g>
       <use xlink:href="#mfd9d7c936d" x="246.918586" y="136.999633" style="fill: #262626; stroke: #262626; stroke-width: 1.25"/>
      </g>
     </g>
     <g id="text_21">
      <text style="fill: #262626; font: 11px 'sans-serif'; text-anchor: end" x="237.418586" y="141.178773" transform="rotate(-0, 237.418586, 141.178773)">1200</text>
     </g>
    </g>
    <g id="ytick_15">
     <g id="line2d_32">
      <g>
       <use xlink:href="#mfd9d7c936d" x="246.918586" y="95.919957" style="fill: #262626; stroke: #262626; stroke-width: 1.25"/>
      </g>
     </g>
     <g id="text_22">
      <text style="fill: #262626; font: 11px 'sans-serif'; text-anchor: end" x="237.418586" y="100.099097" transform="rotate(-0, 237.418586, 100.099097)">1400</text>
     </g>
    </g>
    <g id="ytick_16">
     <g id="line2d_33">
      <g>
       <use xlink:href="#mfd9d7c936d" x="246.918586" y="54.84028" style="fill: #262626; stroke: #262626; stroke-width: 1.25"/>
      </g>
     </g>
     <g id="text_23">
      <text style="fill: #262626; font: 11px 'sans-serif'; text-anchor: end" x="237.418586" y="59.019421" transform="rotate(-0, 237.418586, 59.019421)">1600</text>
     </g>
    </g>
    <g id="text_24">
     <text style="fill: #262626; font: 12px 'sans-serif'; text-anchor: middle" x="202.927961" y="188.638125" transform="rotate(-90, 202.927961, 188.638125)">absolute abundance</text>
    </g>
   </g>
   <g id="patch_10">
    <path d="M 251.908154 168.630983 
L 296.259868 168.630983 
L 296.259868 92.325485 
L 251.908154 92.325485 
L 251.908154 168.630983 
z
" clip-path="url(#p5a16ef5e28)" style="fill: #d3d3d3; stroke: #7f7f7f; stroke-width: 1.5; stroke-linejoin: miter"/>
   </g>
   <g id="patch_11">
    <path d="M 307.347796 317.955607 
L 351.69951 317.955607 
L 351.69951 283.448679 
L 307.347796 283.448679 
L 307.347796 317.955607 
z
" clip-path="url(#p5a16ef5e28)" style="fill: #d3d3d3; stroke: #7f7f7f; stroke-width: 1.5; stroke-linejoin: miter"/>
   </g>
   <g id="line2d_34">
    <path d="M 274.084011 168.630983 
L 274.084011 222.239961 
" clip-path="url(#p5a16ef5e28)" style="fill: none; stroke: #7f7f7f; stroke-width: 1.5; stroke-linecap: round"/>
   </g>
   <g id="line2d_35">
    <path d="M 274.084011 92.325485 
L 274.084011 69.628964 
" clip-path="url(#p5a16ef5e28)" style="fill: none; stroke: #7f7f7f; stroke-width: 1.5; stroke-linecap: round"/>
   </g>
   <g id="line2d_36">
    <path d="M 262.996082 222.239961 
L 285.171939 222.239961 
" clip-path="url(#p5a16ef5e28)" style="fill: none; stroke: #7f7f7f; stroke-width: 1.5; stroke-linecap: round"/>
   </g>
   <g id="line2d_37">
    <path d="M 262.996082 69.628964 
L 285.171939 69.628964 
" clip-path="url(#p5a16ef5e28)" style="fill: none; stroke: #7f7f7f; stroke-width: 1.5; stroke-linecap: round"/>
   </g>
   <g id="line2d_38"/>
   <g id="line2d_39">
    <path d="M 329.523653 317.955607 
L 329.523653 341.371022 
" clip-path="url(#p5a16ef5e28)" style="fill: none; stroke: #7f7f7f; stroke-width: 1.5; stroke-linecap: round"/>
   </g>
   <g id="line2d_40">
    <path d="M 329.523653 283.448679 
L 329.523653 272.357166 
" clip-path="url(#p5a16ef5e28)" style="fill: none; stroke: #7f7f7f; stroke-width: 1.5; stroke-linecap: round"/>
   </g>
   <g id="line2d_41">
    <path d="M 318.435725 341.371022 
L 340.611582 341.371022 
" clip-path="url(#p5a16ef5e28)" style="fill: none; stroke: #7f7f7f; stroke-width: 1.5; stroke-linecap: round"/>
   </g>
   <g id="line2d_42">
    <path d="M 318.435725 272.357166 
L 340.611582 272.357166 
" clip-path="url(#p5a16ef5e28)" style="fill: none; stroke: #7f7f7f; stroke-width: 1.5; stroke-linecap: round"/>
   </g>
   <g id="line2d_43"/>
   <g id="line2d_44">
    <path d="M 274.084011 51.693988 
L 274.084011 45.715663 
L 329.523653 45.715663 
L 329.523653 51.693988 
" clip-path="url(#p5a16ef5e28)" style="fill: none; stroke: #333333; stroke-width: 1.5; stroke-linecap: round"/>
   </g>
   <g id="line2d_45">
    <path d="M 251.908154 115.022006 
L 296.259868 115.022006 
" clip-path="url(#p5a16ef5e28)" style="fill: none; stroke: #7f7f7f; stroke-width: 1.5; stroke-linecap: round"/>
   </g>
   <g id="line2d_46">
    <path d="M 307.347796 294.540191 
L 351.69951 294.540191 
" clip-path="url(#p5a16ef5e28)" style="fill: none; stroke: #7f7f7f; stroke-width: 1.5; stroke-linecap: round"/>
   </g>
   <g id="patch_12">
    <path d="M 246.918586 354.958125 
L 246.918586 22.318125 
" style="fill: none; stroke: #262626; stroke-width: 1.25; stroke-linejoin: miter; stroke-linecap: square"/>
   </g>
   <g id="patch_13">
    <path d="M 356.689078 354.958125 
L 356.689078 22.318125 
" style="fill: none; stroke: #262626; stroke-width: 1.25; stroke-linejoin: miter; stroke-linecap: square"/>
   </g>
   <g id="patch_14">
    <path d="M 246.918586 354.958125 
L 356.689078 354.958125 
" style="fill: none; stroke: #262626; stroke-width: 1.25; stroke-linejoin: miter; stroke-linecap: square"/>
   </g>
   <g id="patch_15">
    <path d="M 246.918586 22.318125 
L 356.689078 22.318125 
" style="fill: none; stroke: #262626; stroke-width: 1.25; stroke-linejoin: miter; stroke-linecap: square"/>
   </g>
   <g id="PathCollection_3">
    <defs>
     <path id="C2_0_25fe4ace93" d="M 0 5 
C 1.326016 5 2.597899 4.473168 3.535534 3.535534 
C 4.473168 2.597899 5 1.326016 5 -0 
C 5 -1.326016 4.473168 -2.597899 3.535534 -3.535534 
C 2.597899 -4.473168 1.326016 -5 0 -5 
C -1.326016 -5 -2.597899 -4.473168 -3.535534 -3.535534 
C -4.473168 -2.597899 -5 -1.326016 -5 0 
C -5 1.326016 -4.473168 2.597899 -3.535534 3.535534 
C -2.597899 4.473168 -1.326016 5 0 5 
z
"/>
    </defs>
    <g clip-path="url(#p5a16ef5e28)">
     <use xlink:href="#C2_0_25fe4ace93" x="276.613357" y="69.628964" style="fill: #ff7f0e"/>
    </g>
    <g clip-path="url(#p5a16ef5e28)">
     <use xlink:href="#C2_0_25fe4ace93" x="275.498655" y="115.022006" style="fill: #ff7f0e"/>
    </g>
    <g clip-path="url(#p5a16ef5e28)">
     <use xlink:href="#C2_0_25fe4ace93" x="279.52362" y="222.239961" style="fill: #ff7f0e"/>
    </g>
   </g>
   <g id="PathCollection_4">
    <defs>
     <path id="C3_0_5368515afd" d="M 0 5 
C 1.326016 5 2.597899 4.473168 3.535534 3.535534 
C 4.473168 2.597899 5 1.326016 5 -0 
C 5 -1.326016 4.473168 -2.597899 3.535534 -3.535534 
C 2.597899 -4.473168 1.326016 -5 0 -5 
C -1.326016 -5 -2.597899 -4.473168 -3.535534 -3.535534 
C -4.473168 -2.597899 -5 -1.326016 -5 0 
C -5 1.326016 -4.473168 2.597899 -3.535534 3.535534 
C -2.597899 4.473168 -1.326016 5 0 5 
z
"/>
    </defs>
    <g clip-path="url(#p5a16ef5e28)">
     <use xlink:href="#C3_0_5368515afd" x="327.07176" y="272.357166" style="fill: #1f77b4"/>
    </g>
    <g clip-path="url(#p5a16ef5e28)">
     <use xlink:href="#C3_0_5368515afd" x="327.635139" y="341.371022" style="fill: #1f77b4"/>
    </g>
    <g clip-path="url(#p5a16ef5e28)">
     <use xlink:href="#C3_0_5368515afd" x="334.641681" y="294.540191" style="fill: #1f77b4"/>
    </g>
   </g>
   <g id="text_25">
    <text style="fill: #262626; font: 12px 'sans-serif'; text-anchor: middle" x="301.803832" y="42.220038" transform="rotate(-0, 301.803832, 42.220038)">*</text>
   </g>
   <g id="text_26">
    <text style="fill: #262626; font: 12px 'sans-serif'; text-anchor: middle" x="301.803832" y="16.318125" transform="rotate(-0, 301.803832, 16.318125)">Lachnospiraceae</text>
   </g>
  </g>
  <g id="axes_3">
   <g id="patch_16">
    <path d="M 433.528422 354.958125 
L 543.298914 354.958125 
L 543.298914 22.318125 
L 433.528422 22.318125 
z
" style="fill: #ffffff"/>
   </g>
   <g id="matplotlib.axis_5">
    <g id="xtick_5">
     <g id="line2d_47">
      <g>
       <use xlink:href="#m56ff910c4b" x="460.693847" y="354.958125" style="fill: #262626; stroke: #262626; stroke-width: 1.25"/>
      </g>
     </g>
     <g id="text_27">
      <text style="fill: #262626; font: 11px 'sans-serif'; text-anchor: middle" x="460.693847" y="372.816406" transform="rotate(-0, 460.693847, 372.816406)">control</text>
     </g>
    </g>
    <g id="xtick_6">
     <g id="line2d_48">
      <g>
       <use xlink:href="#m56ff910c4b" x="516.133489" y="354.958125" style="fill: #262626; stroke: #262626; stroke-width: 1.25"/>
      </g>
     </g>
     <g id="text_28">
      <text style="fill: #262626; font: 11px 'sans-serif'; text-anchor: middle" x="516.133489" y="372.816406" transform="rotate(-0, 516.133489, 372.816406)">TCDD</text>
     </g>
    </g>
   </g>
   <g id="matplotlib.axis_6">
    <g id="ytick_17">
     <g id="line2d_49">
      <g>
       <use xlink:href="#mfd9d7c936d" x="433.528422" y="337.952883" style="fill: #262626; stroke: #262626; stroke-width: 1.25"/>
      </g>
     </g>
     <g id="text_29">
      <text style="fill: #262626; font: 11px 'sans-serif'; text-anchor: end" x="424.028422" y="342.132024" transform="rotate(-0, 424.028422, 342.132024)">25</text>
     </g>
    </g>
    <g id="ytick_18">
     <g id="line2d_50">
      <g>
       <use xlink:href="#mfd9d7c936d" x="433.528422" y="295.226144" style="fill: #262626; stroke: #262626; stroke-width: 1.25"/>
      </g>
     </g>
     <g id="text_30">
      <text style="fill: #262626; font: 11px 'sans-serif'; text-anchor: end" x="424.028422" y="299.405285" transform="rotate(-0, 424.028422, 299.405285)">50</text>
     </g>
    </g>
    <g id="ytick_19">
     <g id="line2d_51">
      <g>
       <use xlink:href="#mfd9d7c936d" x="433.528422" y="252.499406" style="fill: #262626; stroke: #262626; stroke-width: 1.25"/>
      </g>
     </g>
     <g id="text_31">
      <text style="fill: #262626; font: 11px 'sans-serif'; text-anchor: end" x="424.028422" y="256.678546" transform="rotate(-0, 424.028422, 256.678546)">75</text>
     </g>
    </g>
    <g id="ytick_20">
     <g id="line2d_52">
      <g>
       <use xlink:href="#mfd9d7c936d" x="433.528422" y="209.772667" style="fill: #262626; stroke: #262626; stroke-width: 1.25"/>
      </g>
     </g>
     <g id="text_32">
      <text style="fill: #262626; font: 11px 'sans-serif'; text-anchor: end" x="424.028422" y="213.951807" transform="rotate(-0, 424.028422, 213.951807)">100</text>
     </g>
    </g>
    <g id="ytick_21">
     <g id="line2d_53">
      <g>
       <use xlink:href="#mfd9d7c936d" x="433.528422" y="167.045928" style="fill: #262626; stroke: #262626; stroke-width: 1.25"/>
      </g>
     </g>
     <g id="text_33">
      <text style="fill: #262626; font: 11px 'sans-serif'; text-anchor: end" x="424.028422" y="171.225069" transform="rotate(-0, 424.028422, 171.225069)">125</text>
     </g>
    </g>
    <g id="ytick_22">
     <g id="line2d_54">
      <g>
       <use xlink:href="#mfd9d7c936d" x="433.528422" y="124.319189" style="fill: #262626; stroke: #262626; stroke-width: 1.25"/>
      </g>
     </g>
     <g id="text_34">
      <text style="fill: #262626; font: 11px 'sans-serif'; text-anchor: end" x="424.028422" y="128.49833" transform="rotate(-0, 424.028422, 128.49833)">150</text>
     </g>
    </g>
    <g id="ytick_23">
     <g id="line2d_55">
      <g>
       <use xlink:href="#mfd9d7c936d" x="433.528422" y="81.592451" style="fill: #262626; stroke: #262626; stroke-width: 1.25"/>
      </g>
     </g>
     <g id="text_35">
      <text style="fill: #262626; font: 11px 'sans-serif'; text-anchor: end" x="424.028422" y="85.771591" transform="rotate(-0, 424.028422, 85.771591)">175</text>
     </g>
    </g>
    <g id="ytick_24">
     <g id="line2d_56">
      <g>
       <use xlink:href="#mfd9d7c936d" x="433.528422" y="38.865712" style="fill: #262626; stroke: #262626; stroke-width: 1.25"/>
      </g>
     </g>
     <g id="text_36">
      <text style="fill: #262626; font: 11px 'sans-serif'; text-anchor: end" x="424.028422" y="43.044852" transform="rotate(-0, 424.028422, 43.044852)">200</text>
     </g>
    </g>
    <g id="text_37">
     <text style="fill: #262626; font: 12px 'sans-serif'; text-anchor: middle" x="396.536547" y="188.638125" transform="rotate(-90, 396.536547, 188.638125)">absolute abundance</text>
    </g>
   </g>
   <g id="patch_17">
    <path d="M 438.51799 123.464655 
L 482.869704 123.464655 
L 482.869704 76.465242 
L 438.51799 76.465242 
L 438.51799 123.464655 
z
" clip-path="url(#p2601617dd4)" style="fill: #d3d3d3; stroke: #7f7f7f; stroke-width: 1.5; stroke-linejoin: miter"/>
   </g>
   <g id="patch_18">
    <path d="M 493.957632 340.516487 
L 538.309346 340.516487 
L 538.309346 223.445223 
L 493.957632 223.445223 
L 493.957632 340.516487 
z
" clip-path="url(#p2601617dd4)" style="fill: #d3d3d3; stroke: #7f7f7f; stroke-width: 1.5; stroke-linejoin: miter"/>
   </g>
   <g id="line2d_57">
    <path d="M 460.693847 123.464655 
L 460.693847 163.627789 
" clip-path="url(#p2601617dd4)" style="fill: none; stroke: #7f7f7f; stroke-width: 1.5; stroke-linecap: round"/>
   </g>
   <g id="line2d_58">
    <path d="M 460.693847 76.465242 
L 460.693847 69.628964 
" clip-path="url(#p2601617dd4)" style="fill: none; stroke: #7f7f7f; stroke-width: 1.5; stroke-linecap: round"/>
   </g>
   <g id="line2d_59">
    <path d="M 449.605918 163.627789 
L 471.781775 163.627789 
" clip-path="url(#p2601617dd4)" style="fill: none; stroke: #7f7f7f; stroke-width: 1.5; stroke-linecap: round"/>
   </g>
   <g id="line2d_60">
    <path d="M 449.605918 69.628964 
L 471.781775 69.628964 
" clip-path="url(#p2601617dd4)" style="fill: none; stroke: #7f7f7f; stroke-width: 1.5; stroke-linecap: round"/>
   </g>
   <g id="line2d_61"/>
   <g id="line2d_62">
    <path d="M 516.133489 340.516487 
L 516.133489 341.371022 
" clip-path="url(#p2601617dd4)" style="fill: none; stroke: #7f7f7f; stroke-width: 1.5; stroke-linecap: round"/>
   </g>
   <g id="line2d_63">
    <path d="M 516.133489 223.445223 
L 516.133489 107.228494 
" clip-path="url(#p2601617dd4)" style="fill: none; stroke: #7f7f7f; stroke-width: 1.5; stroke-linecap: round"/>
   </g>
   <g id="line2d_64">
    <path d="M 505.045561 341.371022 
L 527.221418 341.371022 
" clip-path="url(#p2601617dd4)" style="fill: none; stroke: #7f7f7f; stroke-width: 1.5; stroke-linecap: round"/>
   </g>
   <g id="line2d_65">
    <path d="M 505.045561 107.228494 
L 527.221418 107.228494 
" clip-path="url(#p2601617dd4)" style="fill: none; stroke: #7f7f7f; stroke-width: 1.5; stroke-linecap: round"/>
   </g>
   <g id="line2d_66"/>
   <g id="line2d_67">
    <path d="M 460.693847 51.693988 
L 460.693847 45.715663 
L 516.133489 45.715663 
L 516.133489 51.693988 
" clip-path="url(#p2601617dd4)" style="fill: none; stroke: #333333; stroke-width: 1.5; stroke-linecap: round"/>
   </g>
   <g id="line2d_68">
    <path d="M 438.51799 83.30152 
L 482.869704 83.30152 
" clip-path="url(#p2601617dd4)" style="fill: none; stroke: #7f7f7f; stroke-width: 1.5; stroke-linecap: round"/>
   </g>
   <g id="line2d_69">
    <path d="M 493.957632 339.661953 
L 538.309346 339.661953 
" clip-path="url(#p2601617dd4)" style="fill: none; stroke: #7f7f7f; stroke-width: 1.5; stroke-linecap: round"/>
   </g>
   <g id="patch_19">
    <path d="M 433.528422 354.958125 
L 433.528422 22.318125 
" style="fill: none; stroke: #262626; stroke-width: 1.25; stroke-linejoin: miter; stroke-linecap: square"/>
   </g>
   <g id="patch_20">
    <path d="M 543.298914 354.958125 
L 543.298914 22.318125 
" style="fill: none; stroke: #262626; stroke-width: 1.25; stroke-linejoin: miter; stroke-linecap: square"/>
   </g>
   <g id="patch_21">
    <path d="M 433.528422 354.958125 
L 543.298914 354.958125 
" style="fill: none; stroke: #262626; stroke-width: 1.25; stroke-linejoin: miter; stroke-linecap: square"/>
   </g>
   <g id="patch_22">
    <path d="M 433.528422 22.318125 
L 543.298914 22.318125 
" style="fill: none; stroke: #262626; stroke-width: 1.25; stroke-linejoin: miter; stroke-linecap: square"/>
   </g>
   <g id="PathCollection_5">
    <defs>
     <path id="C4_0_056f36dded" d="M 0 5 
C 1.326016 5 2.597899 4.473168 3.535534 3.535534 
C 4.473168 2.597899 5 1.326016 5 -0 
C 5 -1.326016 4.473168 -2.597899 3.535534 -3.535534 
C 2.597899 -4.473168 1.326016 -5 0 -5 
C -1.326016 -5 -2.597899 -4.473168 -3.535534 -3.535534 
C -4.473168 -2.597899 -5 -1.326016 -5 0 
C -5 1.326016 -4.473168 2.597899 -3.535534 3.535534 
C -2.597899 4.473168 -1.326016 5 0 5 
z
"/>
    </defs>
    <g clip-path="url(#p2601617dd4)">
     <use xlink:href="#C4_0_056f36dded" x="463.815039" y="69.628964" style="fill: #ff7f0e"/>
    </g>
    <g clip-path="url(#p2601617dd4)">
     <use xlink:href="#C4_0_056f36dded" x="462.906396" y="163.627789" style="fill: #ff7f0e"/>
    </g>
    <g clip-path="url(#p2601617dd4)">
     <use xlink:href="#C4_0_056f36dded" x="458.408794" y="83.30152" style="fill: #ff7f0e"/>
    </g>
   </g>
   <g id="PathCollection_6">
    <defs>
     <path id="C5_0_c1d904efea" d="M 0 5 
C 1.326016 5 2.597899 4.473168 3.535534 3.535534 
C 4.473168 2.597899 5 1.326016 5 -0 
C 5 -1.326016 4.473168 -2.597899 3.535534 -3.535534 
C 2.597899 -4.473168 1.326016 -5 0 -5 
C -1.326016 -5 -2.597899 -4.473168 -3.535534 -3.535534 
C -4.473168 -2.597899 -5 -1.326016 -5 0 
C -5 1.326016 -4.473168 2.597899 -3.535534 3.535534 
C -2.597899 4.473168 -1.326016 5 0 5 
z
"/>
    </defs>
    <g clip-path="url(#p2601617dd4)">
     <use xlink:href="#C5_0_c1d904efea" x="512.968233" y="107.228494" style="fill: #1f77b4"/>
    </g>
    <g clip-path="url(#p2601617dd4)">
     <use xlink:href="#C5_0_c1d904efea" x="518.075209" y="339.661953" style="fill: #1f77b4"/>
    </g>
    <g clip-path="url(#p2601617dd4)">
     <use xlink:href="#C5_0_c1d904efea" x="510.766466" y="341.371022" style="fill: #1f77b4"/>
    </g>
   </g>
   <g id="text_38">
    <text style="fill: #262626; font: 12px 'sans-serif'; text-anchor: middle" x="488.413668" y="42.220038" transform="rotate(-0, 488.413668, 42.220038)">ns</text>
   </g>
   <g id="text_39">
    <text style="fill: #262626; font: 12px 'sans-serif'; text-anchor: middle" x="488.413668" y="16.318125" transform="rotate(-0, 488.413668, 16.318125)">Bacteroidaceae</text>
   </g>
  </g>
  <g id="axes_4">
   <g id="patch_23">
    <path d="M 620.138258 354.958125 
L 729.90875 354.958125 
L 729.90875 22.318125 
L 620.138258 22.318125 
z
" style="fill: #ffffff"/>
   </g>
   <g id="matplotlib.axis_7">
    <g id="xtick_7">
     <g id="line2d_70">
      <g>
       <use xlink:href="#m56ff910c4b" x="647.303683" y="354.958125" style="fill: #262626; stroke: #262626; stroke-width: 1.25"/>
      </g>
     </g>
     <g id="text_40">
      <text style="fill: #262626; font: 11px 'sans-serif'; text-anchor: middle" x="647.303683" y="372.816406" transform="rotate(-0, 647.303683, 372.816406)">control</text>
     </g>
    </g>
    <g id="xtick_8">
     <g id="line2d_71">
      <g>
       <use xlink:href="#m56ff910c4b" x="702.743325" y="354.958125" style="fill: #262626; stroke: #262626; stroke-width: 1.25"/>
      </g>
     </g>
     <g id="text_41">
      <text style="fill: #262626; font: 11px 'sans-serif'; text-anchor: middle" x="702.743325" y="372.816406" transform="rotate(-0, 702.743325, 372.816406)">TCDD</text>
     </g>
    </g>
   </g>
   <g id="matplotlib.axis_8">
    <g id="ytick_25">
     <g id="line2d_72">
      <g>
       <use xlink:href="#mfd9d7c936d" x="620.138258" y="344.172487" style="fill: #262626; stroke: #262626; stroke-width: 1.25"/>
      </g>
     </g>
     <g id="text_42">
      <text style="fill: #262626; font: 11px 'sans-serif'; text-anchor: end" x="610.638258" y="348.351627" transform="rotate(-0, 610.638258, 348.351627)">0</text>
     </g>
    </g>
    <g id="ytick_26">
     <g id="line2d_73">
      <g>
       <use xlink:href="#mfd9d7c936d" x="620.138258" y="297.481411" style="fill: #262626; stroke: #262626; stroke-width: 1.25"/>
      </g>
     </g>
     <g id="text_43">
      <text style="fill: #262626; font: 11px 'sans-serif'; text-anchor: end" x="610.638258" y="301.660552" transform="rotate(-0, 610.638258, 301.660552)">50</text>
     </g>
    </g>
    <g id="ytick_27">
     <g id="line2d_74">
      <g>
       <use xlink:href="#mfd9d7c936d" x="620.138258" y="250.790336" style="fill: #262626; stroke: #262626; stroke-width: 1.25"/>
      </g>
     </g>
     <g id="text_44">
      <text style="fill: #262626; font: 11px 'sans-serif'; text-anchor: end" x="610.638258" y="254.969477" transform="rotate(-0, 610.638258, 254.969477)">100</text>
     </g>
    </g>
    <g id="ytick_28">
     <g id="line2d_75">
      <g>
       <use xlink:href="#mfd9d7c936d" x="620.138258" y="204.099261" style="fill: #262626; stroke: #262626; stroke-width: 1.25"/>
      </g>
     </g>
     <g id="text_45">
      <text style="fill: #262626; font: 11px 'sans-serif'; text-anchor: end" x="610.638258" y="208.278401" transform="rotate(-0, 610.638258, 208.278401)">150</text>
     </g>
    </g>
    <g id="ytick_29">
     <g id="line2d_76">
      <g>
       <use xlink:href="#mfd9d7c936d" x="620.138258" y="157.408185" style="fill: #262626; stroke: #262626; stroke-width: 1.25"/>
      </g>
     </g>
     <g id="text_46">
      <text style="fill: #262626; font: 11px 'sans-serif'; text-anchor: end" x="610.638258" y="161.587326" transform="rotate(-0, 610.638258, 161.587326)">200</text>
     </g>
    </g>
    <g id="ytick_30">
     <g id="line2d_77">
      <g>
       <use xlink:href="#mfd9d7c936d" x="620.138258" y="110.71711" style="fill: #262626; stroke: #262626; stroke-width: 1.25"/>
      </g>
     </g>
     <g id="text_47">
      <text style="fill: #262626; font: 11px 'sans-serif'; text-anchor: end" x="610.638258" y="114.896251" transform="rotate(-0, 610.638258, 114.896251)">250</text>
     </g>
    </g>
    <g id="ytick_31">
     <g id="line2d_78">
      <g>
       <use xlink:href="#mfd9d7c936d" x="620.138258" y="64.026035" style="fill: #262626; stroke: #262626; stroke-width: 1.25"/>
      </g>
     </g>
     <g id="text_48">
      <text style="fill: #262626; font: 11px 'sans-serif'; text-anchor: end" x="610.638258" y="68.205175" transform="rotate(-0, 610.638258, 68.205175)">300</text>
     </g>
    </g>
    <g id="text_49">
     <text style="fill: #262626; font: 12px 'sans-serif'; text-anchor: middle" x="583.146383" y="188.638125" transform="rotate(-90, 583.146383, 188.638125)">absolute abundance</text>
    </g>
   </g>
   <g id="patch_24">
    <path d="M 625.127826 238.183746 
L 669.47954 238.183746 
L 669.47954 130.327362 
L 625.127826 130.327362 
L 625.127826 238.183746 
z
" clip-path="url(#pc16d646e95)" style="fill: #d3d3d3; stroke: #7f7f7f; stroke-width: 1.5; stroke-linejoin: miter"/>
   </g>
   <g id="patch_25">
    <path d="M 680.567468 340.437201 
L 724.919182 340.437201 
L 724.919182 325.962967 
L 680.567468 325.962967 
L 680.567468 340.437201 
z
" clip-path="url(#pc16d646e95)" style="fill: #d3d3d3; stroke: #7f7f7f; stroke-width: 1.5; stroke-linejoin: miter"/>
   </g>
   <g id="line2d_79">
    <path d="M 647.303683 238.183746 
L 647.303683 285.341732 
" clip-path="url(#pc16d646e95)" style="fill: none; stroke: #7f7f7f; stroke-width: 1.5; stroke-linecap: round"/>
   </g>
   <g id="line2d_80">
    <path d="M 647.303683 130.327362 
L 647.303683 69.628964 
" clip-path="url(#pc16d646e95)" style="fill: none; stroke: #7f7f7f; stroke-width: 1.5; stroke-linecap: round"/>
   </g>
   <g id="line2d_81">
    <path d="M 636.215754 285.341732 
L 658.391611 285.341732 
" clip-path="url(#pc16d646e95)" style="fill: none; stroke: #7f7f7f; stroke-width: 1.5; stroke-linecap: round"/>
   </g>
   <g id="line2d_82">
    <path d="M 636.215754 69.628964 
L 658.391611 69.628964 
" clip-path="url(#pc16d646e95)" style="fill: none; stroke: #7f7f7f; stroke-width: 1.5; stroke-linecap: round"/>
   </g>
   <g id="line2d_83"/>
   <g id="line2d_84">
    <path d="M 702.743325 340.437201 
L 702.743325 341.371022 
" clip-path="url(#pc16d646e95)" style="fill: none; stroke: #7f7f7f; stroke-width: 1.5; stroke-linecap: round"/>
   </g>
   <g id="line2d_85">
    <path d="M 702.743325 325.962967 
L 702.743325 312.422555 
" clip-path="url(#pc16d646e95)" style="fill: none; stroke: #7f7f7f; stroke-width: 1.5; stroke-linecap: round"/>
   </g>
   <g id="line2d_86">
    <path d="M 691.655397 341.371022 
L 713.831254 341.371022 
" clip-path="url(#pc16d646e95)" style="fill: none; stroke: #7f7f7f; stroke-width: 1.5; stroke-linecap: round"/>
   </g>
   <g id="line2d_87">
    <path d="M 691.655397 312.422555 
L 713.831254 312.422555 
" clip-path="url(#pc16d646e95)" style="fill: none; stroke: #7f7f7f; stroke-width: 1.5; stroke-linecap: round"/>
   </g>
   <g id="line2d_88"/>
   <g id="line2d_89">
    <path d="M 647.303683 51.693988 
L 647.303683 45.715663 
L 702.743325 45.715663 
L 702.743325 51.693988 
" clip-path="url(#pc16d646e95)" style="fill: none; stroke: #333333; stroke-width: 1.5; stroke-linecap: round"/>
   </g>
   <g id="line2d_90">
    <path d="M 625.127826 191.02576 
L 669.47954 191.02576 
" clip-path="url(#pc16d646e95)" style="fill: none; stroke: #7f7f7f; stroke-width: 1.5; stroke-linecap: round"/>
   </g>
   <g id="line2d_91">
    <path d="M 680.567468 339.503379 
L 724.919182 339.503379 
" clip-path="url(#pc16d646e95)" style="fill: none; stroke: #7f7f7f; stroke-width: 1.5; stroke-linecap: round"/>
   </g>
   <g id="patch_26">
    <path d="M 620.138258 354.958125 
L 620.138258 22.318125 
" style="fill: none; stroke: #262626; stroke-width: 1.25; stroke-linejoin: miter; stroke-linecap: square"/>
   </g>
   <g id="patch_27">
    <path d="M 729.90875 354.958125 
L 729.90875 22.318125 
" style="fill: none; stroke: #262626; stroke-width: 1.25; stroke-linejoin: miter; stroke-linecap: square"/>
   </g>
   <g id="patch_28">
    <path d="M 620.138258 354.958125 
L 729.90875 354.958125 
" style="fill: none; stroke: #262626; stroke-width: 1.25; stroke-linejoin: miter; stroke-linecap: square"/>
   </g>
   <g id="patch_29">
    <path d="M 620.138258 22.318125 
L 729.90875 22.318125 
" style="fill: none; stroke: #262626; stroke-width: 1.25; stroke-linejoin: miter; stroke-linecap: square"/>
   </g>
   <g id="PathCollection_7">
    <defs>
     <path id="C6_0_58ee592763" d="M 0 5 
C 1.326016 5 2.597899 4.473168 3.535534 3.535534 
C 4.473168 2.597899 5 1.326016 5 -0 
C 5 -1.326016 4.473168 -2.597899 3.535534 -3.535534 
C 2.597899 -4.473168 1.326016 -5 0 -5 
C -1.326016 -5 -2.597899 -4.473168 -3.535534 -3.535534 
C -4.473168 -2.597899 -5 -1.326016 -5 0 
C -5 1.326016 -4.473168 2.597899 -3.535534 3.535534 
C -2.597899 4.473168 -1.326016 5 0 5 
z
"/>
    </defs>
    <g clip-path="url(#pc16d646e95)">
     <use xlink:href="#C6_0_58ee592763" x="644.102954" y="191.02576" style="fill: #ff7f0e"/>
    </g>
    <g clip-path="url(#pc16d646e95)">
     <use xlink:href="#C6_0_58ee592763" x="642.099313" y="69.628964" style="fill: #ff7f0e"/>
    </g>
    <g clip-path="url(#pc16d646e95)">
     <use xlink:href="#C6_0_58ee592763" x="650.946941" y="285.341732" style="fill: #ff7f0e"/>
    </g>
   </g>
   <g id="PathCollection_8">
    <defs>
     <path id="C7_0_096afc680e" d="M 0 5 
C 1.326016 5 2.597899 4.473168 3.535534 3.535534 
C 4.473168 2.597899 5 1.326016 5 -0 
C 5 -1.326016 4.473168 -2.597899 3.535534 -3.535534 
C 2.597899 -4.473168 1.326016 -5 0 -5 
C -1.326016 -5 -2.597899 -4.473168 -3.535534 -3.535534 
C -4.473168 -2.597899 -5 -1.326016 -5 0 
C -5 1.326016 -4.473168 2.597899 -3.535534 3.535534 
C -2.597899 4.473168 -1.326016 5 0 5 
z
"/>
    </defs>
    <g clip-path="url(#pc16d646e95)">
     <use xlink:href="#C7_0_096afc680e" x="704.248846" y="312.422555" style="fill: #1f77b4"/>
    </g>
    <g clip-path="url(#pc16d646e95)">
     <use xlink:href="#C7_0_096afc680e" x="699.120423" y="341.371022" style="fill: #1f77b4"/>
    </g>
    <g clip-path="url(#pc16d646e95)">
     <use xlink:href="#C7_0_096afc680e" x="706.81059" y="339.503379" style="fill: #1f77b4"/>
    </g>
   </g>
   <g id="text_50">
    <text style="fill: #262626; font: 12px 'sans-serif'; text-anchor: middle" x="675.023504" y="42.220038" transform="rotate(-0, 675.023504, 42.220038)">*</text>
   </g>
   <g id="text_51">
    <text style="fill: #262626; font: 12px 'sans-serif'; text-anchor: middle" x="675.023504" y="16.318125" transform="rotate(-0, 675.023504, 16.318125)">Lactobacillaceae</text>
   </g>
  </g>
 </g>
 <defs>
  <clipPath id="pd4a4a76555">
   <rect x="60.30875" y="22.318125" width="109.770492" height="332.64"/>
  </clipPath>
  <clipPath id="p5a16ef5e28">
   <rect x="246.918586" y="22.318125" width="109.770492" height="332.64"/>
  </clipPath>
  <clipPath id="p2601617dd4">
   <rect x="433.528422" y="22.318125" width="109.770492" height="332.64"/>
  </clipPath>
  <clipPath id="pc16d646e95">
   <rect x="620.138258" y="22.318125" width="109.770492" height="332.64"/>
  </clipPath>
 </defs>
</svg>
