<?xml version="1.0" encoding="utf-8" standalone="no"?>
<!DOCTYPE svg PUBLIC "-//W3C//DTD SVG 1.1//EN"
  "http://www.w3.org/Graphics/SVG/1.1/DTD/svg11.dtd">
<svg xmlns:xlink="http://www.w3.org/1999/xlink" width="574.599375pt" height="543.732281pt" viewBox="0 0 574.599375 543.732281" xmlns="http://www.w3.org/2000/svg" version="1.1">
 <metadata>
  <rdf:RDF xmlns:dc="http://purl.org/dc/elements/1.1/" xmlns:cc="http://creativecommons.org/ns#" xmlns:rdf="http://www.w3.org/1999/02/22-rdf-syntax-ns#">
   <cc:Work>
    <dc:type rdf:resource="http://purl.org/dc/dcmitype/StillImage"/>
    <dc:date>2025-02-20T08:52:13.852738</dc:date>
    <dc:format>image/svg+xml</dc:format>
    <dc:creator>
     <cc:Agent>
      <dc:title>Matplotlib v3.5.3, https://matplotlib.org/</dc:title>
     </cc:Agent>
    </dc:creator>
   </cc:Work>
  </rdf:RDF>
 </metadata>
 <defs>
  <style type="text/css">*{stroke-linejoin: round; stroke-linecap: butt}</style>
 </defs>
 <g id="figure_1">
  <g id="patch_1">
   <path d="M 0 543.732281 
L 574.599375 543.732281 
L 574.599375 0 
L 0 0 
z
" style="fill: #ffffff"/>
  </g>
  <g id="axes_1">
   <g id="patch_2">
    <path d="M 49.807188 372.303531 
L 328.807187 372.303531 
L 328.807187 39.663531 
L 49.807188 39.663531 
z
" style="fill: #ffffff"/>
   </g>
   <g id="matplotlib.axis_1">
    <g id="xtick_1">
     <g id="line2d_1">
      <path d="M 71.950045 372.303531 
L 71.950045 39.663531 
" clip-path="url(#p220bc05682)" style="fill: none; stroke: #ffffff; stroke-linecap: round"/>
     </g>
     <g id="line2d_2">
      <defs>
       <path id="m74f68ef126" d="M 0 0 
L 0 6 
" style="stroke: #262626; stroke-width: 1.25"/>
      </defs>
      <g>
       <use xlink:href="#m74f68ef126" x="71.950045" y="372.303531" style="fill: #262626; stroke: #262626; stroke-width: 1.25"/>
      </g>
     </g>
     <g id="text_1">
      <text style="fill: #262626; font: 11px 'sans-serif'" transform="translate(74.735279 536.532281)rotate(-90)">325.1_S325.1_L001_R1_001</text>
     </g>
    </g>
    <g id="xtick_2">
     <g id="line2d_3">
      <path d="M 116.235759 372.303531 
L 116.235759 39.663531 
" clip-path="url(#p220bc05682)" style="fill: none; stroke: #ffffff; stroke-linecap: round"/>
     </g>
     <g id="line2d_4">
      <g>
       <use xlink:href="#m74f68ef126" x="116.235759" y="372.303531" style="fill: #262626; stroke: #262626; stroke-width: 1.25"/>
      </g>
     </g>
     <g id="text_2">
      <text style="fill: #262626; font: 11px 'sans-serif'" transform="translate(119.020993 536.532281)rotate(-90)">326.1_S326.1_L001_R1_001</text>
     </g>
    </g>
    <g id="xtick_3">
     <g id="line2d_5">
      <path d="M 160.521473 372.303531 
L 160.521473 39.663531 
" clip-path="url(#p220bc05682)" style="fill: none; stroke: #ffffff; stroke-linecap: round"/>
     </g>
     <g id="line2d_6">
      <g>
       <use xlink:href="#m74f68ef126" x="160.521473" y="372.303531" style="fill: #262626; stroke: #262626; stroke-width: 1.25"/>
      </g>
     </g>
     <g id="text_3">
      <text style="fill: #262626; font: 11px 'sans-serif'" transform="translate(163.306708 536.532281)rotate(-90)">327.1_S327.1_L001_R1_001</text>
     </g>
    </g>
    <g id="xtick_4">
     <g id="line2d_7">
      <path d="M 218.092902 372.303531 
L 218.092902 39.663531 
" clip-path="url(#p220bc05682)" style="fill: none; stroke: #ffffff; stroke-linecap: round"/>
     </g>
     <g id="line2d_8">
      <g>
       <use xlink:href="#m74f68ef126" x="218.092902" y="372.303531" style="fill: #262626; stroke: #262626; stroke-width: 1.25"/>
      </g>
     </g>
     <g id="text_4">
      <text style="fill: #262626; font: 11px 'sans-serif'" transform="translate(220.878136 536.532281)rotate(-90)">328.1_S328.1_L001_R1_001</text>
     </g>
    </g>
    <g id="xtick_5">
     <g id="line2d_9">
      <path d="M 262.378616 372.303531 
L 262.378616 39.663531 
" clip-path="url(#p220bc05682)" style="fill: none; stroke: #ffffff; stroke-linecap: round"/>
     </g>
     <g id="line2d_10">
      <g>
       <use xlink:href="#m74f68ef126" x="262.378616" y="372.303531" style="fill: #262626; stroke: #262626; stroke-width: 1.25"/>
      </g>
     </g>
     <g id="text_5">
      <text style="fill: #262626; font: 11px 'sans-serif'" transform="translate(265.16385 536.532281)rotate(-90)">329.1_S329.1_L001_R1_001</text>
     </g>
    </g>
    <g id="xtick_6">
     <g id="line2d_11">
      <path d="M 306.66433 372.303531 
L 306.66433 39.663531 
" clip-path="url(#p220bc05682)" style="fill: none; stroke: #ffffff; stroke-linecap: round"/>
     </g>
     <g id="line2d_12">
      <g>
       <use xlink:href="#m74f68ef126" x="306.66433" y="372.303531" style="fill: #262626; stroke: #262626; stroke-width: 1.25"/>
      </g>
     </g>
     <g id="text_6">
      <text style="fill: #262626; font: 11px 'sans-serif'" transform="translate(309.449565 536.532281)rotate(-90)">330.1_S330.1_L001_R1_001</text>
     </g>
    </g>
   </g>
   <g id="matplotlib.axis_2">
    <g id="ytick_1">
     <g id="line2d_13">
      <path d="M 49.807188 372.303531 
L 328.807187 372.303531 
" clip-path="url(#p220bc05682)" style="fill: none; stroke: #ffffff; stroke-linecap: round"/>
     </g>
     <g id="text_7">
      <text style="fill: #262626; font: 11px 'sans-serif'; text-anchor: end" x="40.307188" y="376.482672" transform="rotate(-0, 40.307188, 376.482672)">0.0</text>
     </g>
    </g>
    <g id="ytick_2">
     <g id="line2d_14">
      <path d="M 49.807188 305.775531 
L 328.807187 305.775531 
" clip-path="url(#p220bc05682)" style="fill: none; stroke: #ffffff; stroke-linecap: round"/>
     </g>
     <g id="text_8">
      <text style="fill: #262626; font: 11px 'sans-serif'; text-anchor: end" x="40.307188" y="309.954672" transform="rotate(-0, 40.307188, 309.954672)">0.2</text>
     </g>
    </g>
    <g id="ytick_3">
     <g id="line2d_15">
      <path d="M 49.807188 239.247531 
L 328.807187 239.247531 
" clip-path="url(#p220bc05682)" style="fill: none; stroke: #ffffff; stroke-linecap: round"/>
     </g>
     <g id="text_9">
      <text style="fill: #262626; font: 11px 'sans-serif'; text-anchor: end" x="40.307188" y="243.426672" transform="rotate(-0, 40.307188, 243.426672)">0.4</text>
     </g>
    </g>
    <g id="ytick_4">
     <g id="line2d_16">
      <path d="M 49.807188 172.719531 
L 328.807187 172.719531 
" clip-path="url(#p220bc05682)" style="fill: none; stroke: #ffffff; stroke-linecap: round"/>
     </g>
     <g id="text_10">
      <text style="fill: #262626; font: 11px 'sans-serif'; text-anchor: end" x="40.307188" y="176.898672" transform="rotate(-0, 40.307188, 176.898672)">0.6</text>
     </g>
    </g>
    <g id="ytick_5">
     <g id="line2d_17">
      <path d="M 49.807188 106.191531 
L 328.807187 106.191531 
" clip-path="url(#p220bc05682)" style="fill: none; stroke: #ffffff; stroke-linecap: round"/>
     </g>
     <g id="text_11">
      <text style="fill: #262626; font: 11px 'sans-serif'; text-anchor: end" x="40.307188" y="110.370672" transform="rotate(-0, 40.307188, 110.370672)">0.8</text>
     </g>
    </g>
    <g id="ytick_6">
     <g id="line2d_18">
      <path d="M 49.807188 39.663531 
L 328.807187 39.663531 
" clip-path="url(#p220bc05682)" style="fill: none; stroke: #ffffff; stroke-linecap: round"/>
     </g>
     <g id="text_12">
      <text style="fill: #262626; font: 11px 'sans-serif'; text-anchor: end" x="40.307188" y="43.842672" transform="rotate(-0, 40.307188, 43.842672)">1.0</text>
     </g>
    </g>
    <g id="text_13">
     <text style="fill: #262626; font: 12px 'sans-serif'; text-anchor: middle" x="16.318125" y="205.983531" transform="rotate(-90, 16.318125, 205.983531)">relative abundance</text>
    </g>
   </g>
   <g id="PolyCollection_1">
    <defs>
     <path id="macf1656f0e" d="M 195.950045 -363.09275 
L 195.950045 -171.42875 
L 240.235759 -171.42875 
L 240.235759 -171.42875 
L 284.521473 -171.42875 
L 284.521473 -171.42875 
L 328.807187 -171.42875 
L 328.807187 -314.78075 
L 328.807187 -314.78075 
L 284.521473 -314.78075 
L 284.521473 -320.32475 
L 240.235759 -320.32475 
L 240.235759 -363.09275 
L 195.950045 -363.09275 
z
"/>
    </defs>
    <g clip-path="url(#p220bc05682)">
     <use xlink:href="#macf1656f0e" x="0" y="543.732281" style="fill: #b2df8a"/>
    </g>
   </g>
   <g id="PolyCollection_2">
    <defs>
     <path id="m4711ca37c7" d="M 49.807188 -265.67675 
L 49.807188 -171.42875 
L 94.092902 -171.42875 
L 94.092902 -171.42875 
L 138.378616 -171.42875 
L 138.378616 -171.42875 
L 182.66433 -171.42875 
L 182.66433 -260.13275 
L 182.66433 -260.13275 
L 138.378616 -260.13275 
L 138.378616 -315.57275 
L 94.092902 -315.57275 
L 94.092902 -265.67675 
L 49.807188 -265.67675 
z
"/>
    </defs>
    <g clip-path="url(#p220bc05682)">
     <use xlink:href="#m4711ca37c7" x="0" y="543.732281" style="fill: #b2df8a"/>
    </g>
   </g>
   <g id="PolyCollection_3">
    <defs>
     <path id="m8e15e00826" d="M 195.950045 -476.34875 
L 195.950045 -363.09275 
L 240.235759 -363.09275 
L 240.235759 -320.32475 
L 284.521473 -320.32475 
L 284.521473 -314.78075 
L 328.807187 -314.78075 
L 328.807187 -462.88475 
L 328.807187 -462.88475 
L 284.521473 -462.88475 
L 284.521473 -429.62075 
L 240.235759 -429.62075 
L 240.235759 -476.34875 
L 195.950045 -476.34875 
z
"/>
    </defs>
    <g clip-path="url(#p220bc05682)">
     <use xlink:href="#m8e15e00826" x="0" y="543.732281" style="fill: #1f78b4"/>
    </g>
   </g>
   <g id="PolyCollection_4">
    <defs>
     <path id="mb29cb088a7" d="M 49.807188 -419.32475 
L 49.807188 -265.67675 
L 94.092902 -265.67675 
L 94.092902 -315.57275 
L 138.378616 -315.57275 
L 138.378616 -260.13275 
L 182.66433 -260.13275 
L 182.66433 -451.00475 
L 182.66433 -451.00475 
L 138.378616 -451.00475 
L 138.378616 -407.44475 
L 94.092902 -407.44475 
L 94.092902 -419.32475 
L 49.807188 -419.32475 
z
"/>
    </defs>
    <g clip-path="url(#p220bc05682)">
     <use xlink:href="#mb29cb088a7" x="0" y="543.732281" style="fill: #1f78b4"/>
    </g>
   </g>
   <g id="PolyCollection_5">
    <defs>
     <path id="mcd64a16716" d="M 195.950045 -488.22875 
L 195.950045 -476.34875 
L 240.235759 -476.34875 
L 240.235759 -429.62075 
L 284.521473 -429.62075 
L 284.521473 -462.88475 
L 328.807187 -462.88475 
L 328.807187 -481.89275 
L 328.807187 -481.89275 
L 284.521473 -481.89275 
L 284.521473 -478.72475 
L 240.235759 -478.72475 
L 240.235759 -488.22875 
L 195.950045 -488.22875 
z
"/>
    </defs>
    <g clip-path="url(#p220bc05682)">
     <use xlink:href="#mcd64a16716" x="0" y="543.732281" style="fill: #fb9a99"/>
    </g>
   </g>
   <g id="PolyCollection_6">
    <defs>
     <path id="m87f4226f13" d="M 49.807188 -428.03675 
L 49.807188 -419.32475 
L 94.092902 -419.32475 
L 94.092902 -407.44475 
L 138.378616 -407.44475 
L 138.378616 -451.00475 
L 182.66433 -451.00475 
L 182.66433 -473.18075 
L 182.66433 -473.18075 
L 138.378616 -473.18075 
L 138.378616 -428.03675 
L 94.092902 -428.03675 
L 94.092902 -428.03675 
L 49.807188 -428.03675 
z
"/>
    </defs>
    <g clip-path="url(#p220bc05682)">
     <use xlink:href="#m87f4226f13" x="0" y="543.732281" style="fill: #fb9a99"/>
    </g>
   </g>
   <g id="PolyCollection_7">
    <defs>
     <path id="m876256ebd6" d="M 195.950045 -489.02075 
L 195.950045 -488.22875 
L 240.235759 -488.22875 
L 240.235759 -478.72475 
L 284.521473 -478.72475 
L 284.521473 -481.89275 
L 328.807187 -481.89275 
L 328.807187 -484.26875 
L 328.807187 -484.26875 
L 284.521473 -484.26875 
L 284.521473 -486.64475 
L 240.235759 -486.64475 
L 240.235759 -489.02075 
L 195.950045 -489.02075 
z
"/>
    </defs>
    <g clip-path="url(#p220bc05682)">
     <use xlink:href="#m876256ebd6" x="0" y="543.732281" style="fill: #e31a1c"/>
    </g>
   </g>
   <g id="PolyCollection_8">
    <defs>
     <path id="m635354e98c" d="M 49.807188 -446.25275 
L 49.807188 -428.03675 
L 94.092902 -428.03675 
L 94.092902 -428.03675 
L 138.378616 -428.03675 
L 138.378616 -473.18075 
L 182.66433 -473.18075 
L 182.66433 -479.51675 
L 182.66433 -479.51675 
L 138.378616 -479.51675 
L 138.378616 -452.58875 
L 94.092902 -452.58875 
L 94.092902 -446.25275 
L 49.807188 -446.25275 
z
"/>
    </defs>
    <g clip-path="url(#p220bc05682)">
     <use xlink:href="#m635354e98c" x="0" y="543.732281" style="fill: #e31a1c"/>
    </g>
   </g>
   <g id="PolyCollection_9">
    <defs>
     <path id="mac7d086c02" d="M 195.950045 -489.02075 
L 195.950045 -489.02075 
L 240.235759 -489.02075 
L 240.235759 -486.64475 
L 284.521473 -486.64475 
L 284.521473 -484.26875 
L 328.807187 -484.26875 
L 328.807187 -484.26875 
L 328.807187 -484.26875 
L 284.521473 -484.26875 
L 284.521473 -486.64475 
L 240.235759 -486.64475 
L 240.235759 -489.02075 
L 195.950045 -489.02075 
z
"/>
    </defs>
    <g clip-path="url(#p220bc05682)">
     <use xlink:href="#mac7d086c02" x="0" y="543.732281" style="fill: #b15928"/>
    </g>
   </g>
   <g id="PolyCollection_10">
    <defs>
     <path id="mdd95c02c4a" d="M 49.807188 -472.38875 
L 49.807188 -446.25275 
L 94.092902 -446.25275 
L 94.092902 -452.58875 
L 138.378616 -452.58875 
L 138.378616 -479.51675 
L 182.66433 -479.51675 
L 182.66433 -480.30875 
L 182.66433 -480.30875 
L 138.378616 -480.30875 
L 138.378616 -472.38875 
L 94.092902 -472.38875 
L 94.092902 -472.38875 
L 49.807188 -472.38875 
z
"/>
    </defs>
    <g clip-path="url(#p220bc05682)">
     <use xlink:href="#mdd95c02c4a" x="0" y="543.732281" style="fill: #b15928"/>
    </g>
   </g>
   <g id="PolyCollection_11">
    <defs>
     <path id="mb8cc19ed10" d="M 195.950045 -492.18875 
L 195.950045 -489.02075 
L 240.235759 -489.02075 
L 240.235759 -486.64475 
L 284.521473 -486.64475 
L 284.521473 -484.26875 
L 328.807187 -484.26875 
L 328.807187 -486.64475 
L 328.807187 -486.64475 
L 284.521473 -486.64475 
L 284.521473 -493.77275 
L 240.235759 -493.77275 
L 240.235759 -492.18875 
L 195.950045 -492.18875 
z
"/>
    </defs>
    <g clip-path="url(#p220bc05682)">
     <use xlink:href="#mb8cc19ed10" x="0" y="543.732281" style="fill: #fdbf6f"/>
    </g>
   </g>
   <g id="PolyCollection_12">
    <defs>
     <path id="m2ff491ea13" d="M 49.807188 -479.51675 
L 49.807188 -472.38875 
L 94.092902 -472.38875 
L 94.092902 -472.38875 
L 138.378616 -472.38875 
L 138.378616 -480.30875 
L 182.66433 -480.30875 
L 182.66433 -495.35675 
L 182.66433 -495.35675 
L 138.378616 -495.35675 
L 138.378616 -476.34875 
L 94.092902 -476.34875 
L 94.092902 -479.51675 
L 49.807188 -479.51675 
z
"/>
    </defs>
    <g clip-path="url(#p220bc05682)">
     <use xlink:href="#m2ff491ea13" x="0" y="543.732281" style="fill: #fdbf6f"/>
    </g>
   </g>
   <g id="PolyCollection_13">
    <defs>
     <path id="m86e2d6b230" d="M 195.950045 -492.98075 
L 195.950045 -492.18875 
L 240.235759 -492.18875 
L 240.235759 -493.77275 
L 284.521473 -493.77275 
L 284.521473 -486.64475 
L 328.807187 -486.64475 
L 328.807187 -492.98075 
L 328.807187 -492.98075 
L 284.521473 -492.98075 
L 284.521473 -499.31675 
L 240.235759 -499.31675 
L 240.235759 -492.98075 
L 195.950045 -492.98075 
z
"/>
    </defs>
    <g clip-path="url(#p220bc05682)">
     <use xlink:href="#m86e2d6b230" x="0" y="543.732281" style="fill: #6a3d9a"/>
    </g>
   </g>
   <g id="PolyCollection_14">
    <defs>
     <path id="m7c391b6041" d="M 49.807188 -482.68475 
L 49.807188 -479.51675 
L 94.092902 -479.51675 
L 94.092902 -476.34875 
L 138.378616 -476.34875 
L 138.378616 -495.35675 
L 182.66433 -495.35675 
L 182.66433 -495.35675 
L 182.66433 -495.35675 
L 138.378616 -495.35675 
L 138.378616 -478.72475 
L 94.092902 -478.72475 
L 94.092902 -482.68475 
L 49.807188 -482.68475 
z
"/>
    </defs>
    <g clip-path="url(#p220bc05682)">
     <use xlink:href="#m7c391b6041" x="0" y="543.732281" style="fill: #6a3d9a"/>
    </g>
   </g>
   <g id="PolyCollection_15">
    <defs>
     <path id="mdce9fcf07a" d="M 195.950045 -496.14875 
L 195.950045 -492.98075 
L 240.235759 -492.98075 
L 240.235759 -499.31675 
L 284.521473 -499.31675 
L 284.521473 -492.98075 
L 328.807187 -492.98075 
L 328.807187 -498.52475 
L 328.807187 -498.52475 
L 284.521473 -498.52475 
L 284.521473 -499.31675 
L 240.235759 -499.31675 
L 240.235759 -496.14875 
L 195.950045 -496.14875 
z
"/>
    </defs>
    <g clip-path="url(#p220bc05682)">
     <use xlink:href="#mdce9fcf07a" x="0" y="543.732281" style="fill: #b2df8a"/>
    </g>
   </g>
   <g id="PolyCollection_16">
    <defs>
     <path id="m2c487d6dd8" d="M 49.807188 -483.47675 
L 49.807188 -482.68475 
L 94.092902 -482.68475 
L 94.092902 -478.72475 
L 138.378616 -478.72475 
L 138.378616 -495.35675 
L 182.66433 -495.35675 
L 182.66433 -495.35675 
L 182.66433 -495.35675 
L 138.378616 -495.35675 
L 138.378616 -480.30875 
L 94.092902 -480.30875 
L 94.092902 -483.47675 
L 49.807188 -483.47675 
z
"/>
    </defs>
    <g clip-path="url(#p220bc05682)">
     <use xlink:href="#m2c487d6dd8" x="0" y="543.732281" style="fill: #b2df8a"/>
    </g>
   </g>
   <g id="PolyCollection_17">
    <defs>
     <path id="mc53b2bb2a0" d="M 195.950045 -497.73275 
L 195.950045 -496.14875 
L 240.235759 -496.14875 
L 240.235759 -499.31675 
L 284.521473 -499.31675 
L 284.521473 -498.52475 
L 328.807187 -498.52475 
L 328.807187 -498.52475 
L 328.807187 -498.52475 
L 284.521473 -498.52475 
L 284.521473 -501.69275 
L 240.235759 -501.69275 
L 240.235759 -497.73275 
L 195.950045 -497.73275 
z
"/>
    </defs>
    <g clip-path="url(#p220bc05682)">
     <use xlink:href="#mc53b2bb2a0" x="0" y="543.732281" style="fill: #ffff99"/>
    </g>
   </g>
   <g id="PolyCollection_18">
    <defs>
     <path id="mcbbe2bdb03" d="M 49.807188 -485.85275 
L 49.807188 -483.47675 
L 94.092902 -483.47675 
L 94.092902 -480.30875 
L 138.378616 -480.30875 
L 138.378616 -495.35675 
L 182.66433 -495.35675 
L 182.66433 -496.94075 
L 182.66433 -496.94075 
L 138.378616 -496.94075 
L 138.378616 -483.47675 
L 94.092902 -483.47675 
L 94.092902 -485.85275 
L 49.807188 -485.85275 
z
"/>
    </defs>
    <g clip-path="url(#p220bc05682)">
     <use xlink:href="#mcbbe2bdb03" x="0" y="543.732281" style="fill: #ffff99"/>
    </g>
   </g>
   <g id="PolyCollection_19">
    <defs>
     <path id="mbf3cff8466" d="M 195.950045 -497.73275 
L 195.950045 -497.73275 
L 240.235759 -497.73275 
L 240.235759 -501.69275 
L 284.521473 -501.69275 
L 284.521473 -498.52475 
L 328.807187 -498.52475 
L 328.807187 -500.10875 
L 328.807187 -500.10875 
L 284.521473 -500.10875 
L 284.521473 -502.48475 
L 240.235759 -502.48475 
L 240.235759 -497.73275 
L 195.950045 -497.73275 
z
"/>
    </defs>
    <g clip-path="url(#p220bc05682)">
     <use xlink:href="#mbf3cff8466" x="0" y="543.732281" style="fill: #cab2d6"/>
    </g>
   </g>
   <g id="PolyCollection_20">
    <defs>
     <path id="m7cc6970e2e" d="M 49.807188 -488.22875 
L 49.807188 -485.85275 
L 94.092902 -485.85275 
L 94.092902 -483.47675 
L 138.378616 -483.47675 
L 138.378616 -496.94075 
L 182.66433 -496.94075 
L 182.66433 -496.94075 
L 182.66433 -496.94075 
L 138.378616 -496.94075 
L 138.378616 -488.22875 
L 94.092902 -488.22875 
L 94.092902 -488.22875 
L 49.807188 -488.22875 
z
"/>
    </defs>
    <g clip-path="url(#p220bc05682)">
     <use xlink:href="#m7cc6970e2e" x="0" y="543.732281" style="fill: #cab2d6"/>
    </g>
   </g>
   <g id="PolyCollection_21">
    <defs>
     <path id="md11c9a4bc0" d="M 195.950045 -499.31675 
L 195.950045 -497.73275 
L 240.235759 -497.73275 
L 240.235759 -502.48475 
L 284.521473 -502.48475 
L 284.521473 -500.10875 
L 328.807187 -500.10875 
L 328.807187 -502.48475 
L 328.807187 -502.48475 
L 284.521473 -502.48475 
L 284.521473 -502.48475 
L 240.235759 -502.48475 
L 240.235759 -499.31675 
L 195.950045 -499.31675 
z
"/>
    </defs>
    <g clip-path="url(#p220bc05682)">
     <use xlink:href="#md11c9a4bc0" x="0" y="543.732281" style="fill: #a6761d"/>
    </g>
   </g>
   <g id="PolyCollection_22">
    <defs>
     <path id="m062bf76d06" d="M 49.807188 -488.22875 
L 49.807188 -488.22875 
L 94.092902 -488.22875 
L 94.092902 -488.22875 
L 138.378616 -488.22875 
L 138.378616 -496.94075 
L 182.66433 -496.94075 
L 182.66433 -497.73275 
L 182.66433 -497.73275 
L 138.378616 -497.73275 
L 138.378616 -491.39675 
L 94.092902 -491.39675 
L 94.092902 -488.22875 
L 49.807188 -488.22875 
z
"/>
    </defs>
    <g clip-path="url(#p220bc05682)">
     <use xlink:href="#m062bf76d06" x="0" y="543.732281" style="fill: #a6761d"/>
    </g>
   </g>
   <g id="PolyCollection_23">
    <defs>
     <path id="m983a1522ef" d="M 195.950045 -504.06875 
L 195.950045 -499.31675 
L 240.235759 -499.31675 
L 240.235759 -502.48475 
L 284.521473 -502.48475 
L 284.521473 -502.48475 
L 328.807187 -502.48475 
L 328.807187 -504.06875 
L 328.807187 -504.06875 
L 284.521473 -504.06875 
L 284.521473 -504.06875 
L 240.235759 -504.06875 
L 240.235759 -504.06875 
L 195.950045 -504.06875 
z
"/>
    </defs>
    <g clip-path="url(#p220bc05682)">
     <use xlink:href="#m983a1522ef" x="0" y="543.732281" style="fill: #ffffff"/>
    </g>
   </g>
   <g id="PolyCollection_24">
    <defs>
     <path id="md314c091b5" d="M 49.807188 -504.06875 
L 49.807188 -488.22875 
L 94.092902 -488.22875 
L 94.092902 -491.39675 
L 138.378616 -491.39675 
L 138.378616 -497.73275 
L 182.66433 -497.73275 
L 182.66433 -504.06875 
L 182.66433 -504.06875 
L 138.378616 -504.06875 
L 138.378616 -504.06875 
L 94.092902 -504.06875 
L 94.092902 -504.06875 
L 49.807188 -504.06875 
z
"/>
    </defs>
    <g clip-path="url(#p220bc05682)">
     <use xlink:href="#md314c091b5" x="0" y="543.732281" style="fill: #ffffff"/>
    </g>
   </g>
   <g id="patch_3">
    <path d="M 195.950045 372.303531 
L 328.807187 372.303531 
L 328.807187 39.663531 
L 195.950045 39.663531 
L 195.950045 372.303531 
z
" clip-path="url(#p220bc05682)" style="fill: none; stroke: #808080; stroke-linejoin: miter"/>
   </g>
   <g id="patch_4">
    <path d="M 49.807188 372.303531 
L 182.66433 372.303531 
L 182.66433 39.663531 
L 49.807188 39.663531 
L 49.807188 372.303531 
z
" clip-path="url(#p220bc05682)" style="fill: none; stroke: #808080; stroke-linejoin: miter"/>
   </g>
   <g id="patch_5">
    <path d="M 49.807188 372.303531 
L 49.807188 39.663531 
" style="fill: none; stroke: #ffffff; stroke-width: 1.25; stroke-linejoin: miter; stroke-linecap: square"/>
   </g>
   <g id="patch_6">
    <path d="M 328.807187 372.303531 
L 328.807187 39.663531 
" style="fill: none; stroke: #ffffff; stroke-width: 1.25; stroke-linejoin: miter; stroke-linecap: square"/>
   </g>
   <g id="patch_7">
    <path d="M 49.807188 372.303531 
L 328.807187 372.303531 
" style="fill: none; stroke: #ffffff; stroke-width: 1.25; stroke-linejoin: miter; stroke-linecap: square"/>
   </g>
   <g id="patch_8">
    <path d="M 49.807188 39.663531 
L 328.807187 39.663531 
" style="fill: none; stroke: #ffffff; stroke-width: 1.25; stroke-linejoin: miter; stroke-linecap: square"/>
   </g>
   <g id="legend_1">
    <g id="patch_9">
     <path d="M 339.297188 246.155594 
L 565.199375 246.155594 
Q 567.399375 246.155594 567.399375 243.955594 
L 567.399375 30.731531 
Q 567.399375 28.531531 565.199375 28.531531 
L 339.297188 28.531531 
Q 337.097188 28.531531 337.097188 30.731531 
L 337.097188 243.955594 
Q 337.097188 246.155594 339.297188 246.155594 
z
" style="fill: #eaeaf2; opacity: 0.8; stroke: #cccccc; stroke-linejoin: miter"/>
    </g>
    <g id="text_14">
     <text style="fill: #262626; font: 700 12px 'sans-serif'; text-anchor: start" x="408.757656" y="42.049656" transform="rotate(-0, 408.757656, 42.049656)">Rank: Family</text>
    </g>
    <g id="patch_10">
     <path d="M 341.497187 58.497313 
L 363.497187 58.497313 
L 363.497187 50.797313 
L 341.497187 50.797313 
z
" style="fill: #b2df8a; stroke: #b2df8a; stroke-linejoin: miter"/>
    </g>
    <g id="text_15">
     <text style="fill: #262626; font: 11px 'sans-serif'; text-anchor: start" x="372.297188" y="58.497313" transform="rotate(-0, 372.297188, 58.497313)">40.63 %: f__Lachnospiraceae</text>
    </g>
    <g id="patch_11">
     <path d="M 341.497187 74.949188 
L 363.497187 74.949188 
L 363.497187 67.249188 
L 341.497187 67.249188 
z
" style="fill: #1f78b4; stroke: #1f78b4; stroke-linejoin: miter"/>
    </g>
    <g id="text_16">
     <text style="fill: #262626; font: 11px 'sans-serif'; text-anchor: start" x="372.297188" y="74.949188" transform="rotate(-0, 372.297188, 74.949188)">40.44 %: f__Muribaculaceae</text>
    </g>
    <g id="patch_12">
     <path d="M 341.497187 91.401063 
L 363.497187 91.401063 
L 363.497187 83.701063 
L 341.497187 83.701063 
z
" style="fill: #fb9a99; stroke: #fb9a99; stroke-linejoin: miter"/>
    </g>
    <g id="text_17">
     <text style="fill: #262626; font: 11px 'sans-serif'; text-anchor: start" x="372.297188" y="91.401063" transform="rotate(-0, 372.297188, 91.401063)">6.59 %: f__Bacteroidaceae</text>
    </g>
    <g id="patch_13">
     <path d="M 341.497187 107.852938 
L 363.497187 107.852938 
L 363.497187 100.152938 
L 341.497187 100.152938 
z
" style="fill: #e31a1c; stroke: #e31a1c; stroke-linejoin: miter"/>
    </g>
    <g id="text_18">
     <text style="fill: #262626; font: 11px 'sans-serif'; text-anchor: start" x="372.297188" y="107.852938" transform="rotate(-0, 372.297188, 107.852938)">3.02 %: f__Lactobacillaceae</text>
    </g>
    <g id="patch_14">
     <path d="M 341.497187 124.304813 
L 363.497187 124.304813 
L 363.497187 116.604813 
L 341.497187 116.604813 
z
" style="fill: #b15928; stroke: #b15928; stroke-linejoin: miter"/>
    </g>
    <g id="text_19">
     <text style="fill: #262626; font: 11px 'sans-serif'; text-anchor: start" x="372.297188" y="124.304813" transform="rotate(-0, 372.297188, 124.304813)">2.34 %: f__CAG-508</text>
    </g>
    <g id="patch_15">
     <path d="M 341.497187 140.756688 
L 363.497187 140.756688 
L 363.497187 133.056688 
L 341.497187 133.056688 
z
" style="fill: #fdbf6f; stroke: #fdbf6f; stroke-linejoin: miter"/>
    </g>
    <g id="text_20">
     <text style="fill: #262626; font: 11px 'sans-serif'; text-anchor: start" x="372.297188" y="140.756688" transform="rotate(-0, 372.297188, 140.756688)">1.94 %: f__Oscillospiraceae_88309</text>
    </g>
    <g id="patch_16">
     <path d="M 341.497187 157.208563 
L 363.497187 157.208563 
L 363.497187 149.508563 
L 341.497187 149.508563 
z
" style="fill: #6a3d9a; stroke: #6a3d9a; stroke-linejoin: miter"/>
    </g>
    <g id="text_21">
     <text style="fill: #262626; font: 11px 'sans-serif'; text-anchor: start" x="372.297188" y="157.208563" transform="rotate(-0, 372.297188, 157.208563)">0.91 %: f__Rikenellaceae</text>
    </g>
    <g id="patch_17">
     <path d="M 341.497187 173.660438 
L 363.497187 173.660438 
L 363.497187 165.960438 
L 341.497187 165.960438 
z
" style="fill: #b2df8a; stroke: #b2df8a; stroke-linejoin: miter"/>
    </g>
    <g id="text_22">
     <text style="fill: #262626; font: 11px 'sans-serif'; text-anchor: start" x="372.297188" y="173.660438" transform="rotate(-0, 372.297188, 173.660438)">0.56 %: f__Pseudomonadaceae</text>
    </g>
    <g id="patch_18">
     <path d="M 341.497187 190.112313 
L 363.497187 190.112313 
L 363.497187 182.412313 
L 341.497187 182.412313 
z
" style="fill: #ffff99; stroke: #ffff99; stroke-linejoin: miter"/>
    </g>
    <g id="text_23">
     <text style="fill: #262626; font: 11px 'sans-serif'; text-anchor: start" x="372.297188" y="190.112313" transform="rotate(-0, 372.297188, 190.112313)">0.56 %: f__Ruminococcaceae</text>
    </g>
    <g id="patch_19">
     <path d="M 341.497187 206.564188 
L 363.497187 206.564188 
L 363.497187 198.864188 
L 341.497187 198.864188 
z
" style="fill: #cab2d6; stroke: #cab2d6; stroke-linejoin: miter"/>
    </g>
    <g id="text_24">
     <text style="fill: #262626; font: 11px 'sans-serif'; text-anchor: start" x="372.297188" y="206.564188" transform="rotate(-0, 372.297188, 206.564188)">0.48 %: f__</text>
    </g>
    <g id="patch_20">
     <path d="M 341.497187 223.016063 
L 363.497187 223.016063 
L 363.497187 215.316063 
L 341.497187 215.316063 
z
" style="fill: #a6761d; stroke: #a6761d; stroke-linejoin: miter"/>
    </g>
    <g id="text_25">
     <text style="fill: #262626; font: 11px 'sans-serif'; text-anchor: start" x="372.297188" y="223.016063" transform="rotate(-0, 372.297188, 223.016063)">0.40 %: f__Dehalobacteriaceae</text>
    </g>
    <g id="patch_21">
     <path d="M 341.497187 239.467938 
L 363.497187 239.467938 
L 363.497187 231.767938 
L 341.497187 231.767938 
z
" style="fill: #ffffff; stroke: #ffffff; stroke-linejoin: miter"/>
    </g>
    <g id="text_26">
     <text style="fill: #262626; font: 11px 'sans-serif'; text-anchor: start" x="372.297188" y="239.467938" transform="rotate(-0, 372.297188, 239.467938)">2.14 %: low abundance</text>
    </g>
   </g>
  </g>
  <g id="axes_2">
   <g id="matplotlib.axis_3">
    <g id="xtick_7">
     <g id="line2d_19">
      <defs>
       <path id="mbbee2c3fb7" d="M 0 0 
L 0 -6 
" style="stroke: #262626; stroke-width: 1.25"/>
      </defs>
      <g>
       <use xlink:href="#mbbee2c3fb7" x="262.378616" y="39.663531" style="fill: #262626; stroke: #262626; stroke-width: 1.25"/>
      </g>
     </g>
     <g id="text_27">
      <text style="fill: #262626; font: 11px 'sans-serif'" transform="translate(247.031897 15.558281)">TCDD</text>
      <text style="fill: #262626; font: 11px 'sans-serif'" transform="translate(246.493069 27.875875)">(n=3)</text>
     </g>
    </g>
    <g id="xtick_8">
     <g id="line2d_20">
      <g>
       <use xlink:href="#mbbee2c3fb7" x="116.235759" y="39.663531" style="fill: #262626; stroke: #262626; stroke-width: 1.25"/>
      </g>
     </g>
     <g id="text_28">
      <text style="fill: #262626; font: 11px 'sans-serif'" transform="translate(107.266462 15.558281)">ctrl</text>
      <text style="fill: #262626; font: 11px 'sans-serif'" transform="translate(100.350212 27.875875)">(n=3)</text>
     </g>
    </g>
   </g>
   <g id="patch_22">
    <path d="M 49.807188 372.303531 
L 49.807188 39.663531 
" style="fill: none; stroke: #ffffff; stroke-width: 1.25; stroke-linejoin: miter; stroke-linecap: square"/>
   </g>
   <g id="patch_23">
    <path d="M 328.807187 372.303531 
L 328.807187 39.663531 
" style="fill: none; stroke: #ffffff; stroke-width: 1.25; stroke-linejoin: miter; stroke-linecap: square"/>
   </g>
   <g id="patch_24">
    <path d="M 49.807188 372.303531 
L 328.807187 372.303531 
" style="fill: none; stroke: #ffffff; stroke-width: 1.25; stroke-linejoin: miter; stroke-linecap: square"/>
   </g>
   <g id="patch_25">
    <path d="M 49.807188 39.663531 
L 328.807187 39.663531 
" style="fill: none; stroke: #ffffff; stroke-width: 1.25; stroke-linejoin: miter; stroke-linecap: square"/>
   </g>
  </g>
 </g>
 <defs>
  <clipPath id="p220bc05682">
   <rect x="49.807188" y="39.663531" width="279" height="332.64"/>
  </clipPath>
 </defs>
</svg>
