<?xml version="1.0" encoding="utf-8" standalone="no"?>
<!DOCTYPE svg PUBLIC "-//W3C//DTD SVG 1.1//EN"
  "http://www.w3.org/Graphics/SVG/1.1/DTD/svg11.dtd">
<svg xmlns:xlink="http://www.w3.org/1999/xlink" width="730.11pt" height="382.304062pt" viewBox="0 0 730.11 382.304062" xmlns="http://www.w3.org/2000/svg" version="1.1">
 <metadata>
  <rdf:RDF xmlns:dc="http://purl.org/dc/elements/1.1/" xmlns:cc="http://creativecommons.org/ns#" xmlns:rdf="http://www.w3.org/1999/02/22-rdf-syntax-ns#">
   <cc:Work>
    <dc:type rdf:resource="http://purl.org/dc/dcmitype/StillImage"/>
    <dc:date>2025-02-28T16:42:26.128414</dc:date>
    <dc:format>image/svg+xml</dc:format>
    <dc:creator>
     <cc:Agent>
      <dc:title>Matplotlib v3.5.3, https://matplotlib.org/</dc:title>
     </cc:Agent>
    </dc:creator>
   </cc:Work>
  </rdf:RDF>
 </metadata>
 <defs>
  <style type="text/css">*{stroke-linejoin: round; stroke-linecap: butt}</style>
 </defs>
 <g id="figure_1">
  <g id="patch_1">
   <path d="M 0 382.304062 
L 730.11 382.304062 
L 730.11 0 
L 0 0 
z
" style="fill: #ffffff"/>
  </g>
  <g id="axes_1">
   <g id="patch_2">
    <path d="M 53.31 354.958125 
L 163.080492 354.958125 
L 163.080492 22.318125 
L 53.31 22.318125 
z
" style="fill: #ffffff"/>
   </g>
   <g id="matplotlib.axis_1">
    <g id="xtick_1">
     <g id="line2d_1">
      <defs>
       <path id="m1d2af699ad" d="M 0 0 
L 0 6 
" style="stroke: #262626; stroke-width: 1.25"/>
      </defs>
      <g>
       <use xlink:href="#m1d2af699ad" x="80.475425" y="354.958125" style="fill: #262626; stroke: #262626; stroke-width: 1.25"/>
      </g>
     </g>
     <g id="text_1">
      <text style="fill: #262626; font: 11px 'sans-serif'; text-anchor: middle" x="80.475425" y="372.816406" transform="rotate(-0, 80.475425, 372.816406)">control</text>
     </g>
    </g>
    <g id="xtick_2">
     <g id="line2d_2">
      <g>
       <use xlink:href="#m1d2af699ad" x="135.915067" y="354.958125" style="fill: #262626; stroke: #262626; stroke-width: 1.25"/>
      </g>
     </g>
     <g id="text_2">
      <text style="fill: #262626; font: 11px 'sans-serif'; text-anchor: middle" x="135.915067" y="372.816406" transform="rotate(-0, 135.915067, 372.816406)">TCDD</text>
     </g>
    </g>
   </g>
   <g id="matplotlib.axis_2">
    <g id="ytick_1">
     <g id="line2d_3">
      <defs>
       <path id="m2f0497144f" d="M 0 0 
L -6 0 
" style="stroke: #262626; stroke-width: 1.25"/>
      </defs>
      <g>
       <use xlink:href="#m2f0497144f" x="53.31" y="341.371022" style="fill: #262626; stroke: #262626; stroke-width: 1.25"/>
      </g>
     </g>
     <g id="text_3">
      <text style="fill: #262626; font: 11px 'sans-serif'; text-anchor: end" x="43.81" y="345.550163" transform="rotate(-0, 43.81, 345.550163)">20</text>
     </g>
    </g>
    <g id="ytick_2">
     <g id="line2d_4">
      <g>
       <use xlink:href="#m2f0497144f" x="53.31" y="287.560713" style="fill: #262626; stroke: #262626; stroke-width: 1.25"/>
      </g>
     </g>
     <g id="text_4">
      <text style="fill: #262626; font: 11px 'sans-serif'; text-anchor: end" x="43.81" y="291.739854" transform="rotate(-0, 43.81, 291.739854)">40</text>
     </g>
    </g>
    <g id="ytick_3">
     <g id="line2d_5">
      <g>
       <use xlink:href="#m2f0497144f" x="53.31" y="233.750405" style="fill: #262626; stroke: #262626; stroke-width: 1.25"/>
      </g>
     </g>
     <g id="text_5">
      <text style="fill: #262626; font: 11px 'sans-serif'; text-anchor: end" x="43.81" y="237.929546" transform="rotate(-0, 43.81, 237.929546)">60</text>
     </g>
    </g>
    <g id="ytick_4">
     <g id="line2d_6">
      <g>
       <use xlink:href="#m2f0497144f" x="53.31" y="179.940096" style="fill: #262626; stroke: #262626; stroke-width: 1.25"/>
      </g>
     </g>
     <g id="text_6">
      <text style="fill: #262626; font: 11px 'sans-serif'; text-anchor: end" x="43.81" y="184.119237" transform="rotate(-0, 43.81, 184.119237)">80</text>
     </g>
    </g>
    <g id="ytick_5">
     <g id="line2d_7">
      <g>
       <use xlink:href="#m2f0497144f" x="53.31" y="126.129788" style="fill: #262626; stroke: #262626; stroke-width: 1.25"/>
      </g>
     </g>
     <g id="text_7">
      <text style="fill: #262626; font: 11px 'sans-serif'; text-anchor: end" x="43.81" y="130.308928" transform="rotate(-0, 43.81, 130.308928)">100</text>
     </g>
    </g>
    <g id="ytick_6">
     <g id="line2d_8">
      <g>
       <use xlink:href="#m2f0497144f" x="53.31" y="72.319479" style="fill: #262626; stroke: #262626; stroke-width: 1.25"/>
      </g>
     </g>
     <g id="text_8">
      <text style="fill: #262626; font: 11px 'sans-serif'; text-anchor: end" x="43.81" y="76.49862" transform="rotate(-0, 43.81, 76.49862)">120</text>
     </g>
    </g>
    <g id="text_9">
     <text style="fill: #262626; font: 12px 'sans-serif'; text-anchor: middle" x="16.318125" y="188.638125" transform="rotate(-90, 16.318125, 188.638125)">relative abundance</text>
    </g>
   </g>
   <g id="patch_3">
    <path d="M 58.299568 326.573187 
L 102.651282 326.573187 
L 102.651282 302.358548 
L 58.299568 302.358548 
L 58.299568 326.573187 
z
" clip-path="url(#p1a7859f527)" style="fill: #d3d3d3; stroke: #7f7f7f; stroke-width: 1.5; stroke-linejoin: miter"/>
   </g>
   <g id="patch_4">
    <path d="M 113.73921 239.131436 
L 158.090924 239.131436 
L 158.090924 119.403499 
L 113.73921 119.403499 
L 113.73921 239.131436 
z
" clip-path="url(#p1a7859f527)" style="fill: #d3d3d3; stroke: #7f7f7f; stroke-width: 1.5; stroke-linejoin: miter"/>
   </g>
   <g id="line2d_9">
    <path d="M 80.475425 326.573187 
L 80.475425 341.371022 
" clip-path="url(#p1a7859f527)" style="fill: none; stroke: #7f7f7f; stroke-width: 1.5; stroke-linecap: round"/>
   </g>
   <g id="line2d_10">
    <path d="M 80.475425 302.358548 
L 80.475425 292.941744 
" clip-path="url(#p1a7859f527)" style="fill: none; stroke: #7f7f7f; stroke-width: 1.5; stroke-linecap: round"/>
   </g>
   <g id="line2d_11">
    <path d="M 69.387496 341.371022 
L 91.563353 341.371022 
" clip-path="url(#p1a7859f527)" style="fill: none; stroke: #7f7f7f; stroke-width: 1.5; stroke-linecap: round"/>
   </g>
   <g id="line2d_12">
    <path d="M 69.387496 292.941744 
L 91.563353 292.941744 
" clip-path="url(#p1a7859f527)" style="fill: none; stroke: #7f7f7f; stroke-width: 1.5; stroke-linecap: round"/>
   </g>
   <g id="line2d_13"/>
   <g id="line2d_14">
    <path d="M 135.915067 239.131436 
L 135.915067 309.084837 
" clip-path="url(#p1a7859f527)" style="fill: none; stroke: #7f7f7f; stroke-width: 1.5; stroke-linecap: round"/>
   </g>
   <g id="line2d_15">
    <path d="M 135.915067 119.403499 
L 135.915067 69.628964 
" clip-path="url(#p1a7859f527)" style="fill: none; stroke: #7f7f7f; stroke-width: 1.5; stroke-linecap: round"/>
   </g>
   <g id="line2d_16">
    <path d="M 124.827139 309.084837 
L 147.002996 309.084837 
" clip-path="url(#p1a7859f527)" style="fill: none; stroke: #7f7f7f; stroke-width: 1.5; stroke-linecap: round"/>
   </g>
   <g id="line2d_17">
    <path d="M 124.827139 69.628964 
L 147.002996 69.628964 
" clip-path="url(#p1a7859f527)" style="fill: none; stroke: #7f7f7f; stroke-width: 1.5; stroke-linecap: round"/>
   </g>
   <g id="line2d_18"/>
   <g id="line2d_19">
    <path d="M 80.475425 51.693988 
L 80.475425 45.715663 
L 135.915067 45.715663 
L 135.915067 51.693988 
" clip-path="url(#p1a7859f527)" style="fill: none; stroke: #333333; stroke-width: 1.5; stroke-linecap: round"/>
   </g>
   <g id="line2d_20">
    <path d="M 58.299568 311.775352 
L 102.651282 311.775352 
" clip-path="url(#p1a7859f527)" style="fill: none; stroke: #7f7f7f; stroke-width: 1.5; stroke-linecap: round"/>
   </g>
   <g id="line2d_21">
    <path d="M 113.73921 169.178035 
L 158.090924 169.178035 
" clip-path="url(#p1a7859f527)" style="fill: none; stroke: #7f7f7f; stroke-width: 1.5; stroke-linecap: round"/>
   </g>
   <g id="patch_5">
    <path d="M 53.31 354.958125 
L 53.31 22.318125 
" style="fill: none; stroke: #262626; stroke-width: 1.25; stroke-linejoin: miter; stroke-linecap: square"/>
   </g>
   <g id="patch_6">
    <path d="M 163.080492 354.958125 
L 163.080492 22.318125 
" style="fill: none; stroke: #262626; stroke-width: 1.25; stroke-linejoin: miter; stroke-linecap: square"/>
   </g>
   <g id="patch_7">
    <path d="M 53.31 354.958125 
L 163.080492 354.958125 
" style="fill: none; stroke: #262626; stroke-width: 1.25; stroke-linejoin: miter; stroke-linecap: square"/>
   </g>
   <g id="patch_8">
    <path d="M 53.31 22.318125 
L 163.080492 22.318125 
" style="fill: none; stroke: #262626; stroke-width: 1.25; stroke-linejoin: miter; stroke-linecap: square"/>
   </g>
   <g id="PathCollection_1">
    <defs>
     <path id="C0_0_3fbb9b55ed" d="M 0 5 
C 1.326016 5 2.597899 4.473168 3.535534 3.535534 
C 4.473168 2.597899 5 1.326016 5 -0 
C 5 -1.326016 4.473168 -2.597899 3.535534 -3.535534 
C 2.597899 -4.473168 1.326016 -5 0 -5 
C -1.326016 -5 -2.597899 -4.473168 -3.535534 -3.535534 
C -4.473168 -2.597899 -5 -1.326016 -5 0 
C -5 1.326016 -4.473168 2.597899 -3.535534 3.535534 
C -2.597899 4.473168 -1.326016 5 0 5 
z
"/>
    </defs>
    <g clip-path="url(#p1a7859f527)">
     <use xlink:href="#C0_0_3fbb9b55ed" x="83.089079" y="292.941744" style="fill: #ff7f0e"/>
    </g>
    <g clip-path="url(#p1a7859f527)">
     <use xlink:href="#C0_0_3fbb9b55ed" x="81.734239" y="311.775352" style="fill: #ff7f0e"/>
    </g>
    <g clip-path="url(#p1a7859f527)">
     <use xlink:href="#C0_0_3fbb9b55ed" x="84.316443" y="341.371022" style="fill: #ff7f0e"/>
    </g>
   </g>
   <g id="PathCollection_2">
    <defs>
     <path id="C1_0_c2ca05374c" d="M 0 5 
C 1.326016 5 2.597899 4.473168 3.535534 3.535534 
C 4.473168 2.597899 5 1.326016 5 -0 
C 5 -1.326016 4.473168 -2.597899 3.535534 -3.535534 
C 2.597899 -4.473168 1.326016 -5 0 -5 
C -1.326016 -5 -2.597899 -4.473168 -3.535534 -3.535534 
C -4.473168 -2.597899 -5 -1.326016 -5 0 
C -5 1.326016 -4.473168 2.597899 -3.535534 3.535534 
C -2.597899 4.473168 -1.326016 5 0 5 
z
"/>
    </defs>
    <g clip-path="url(#p1a7859f527)">
     <use xlink:href="#C1_0_c2ca05374c" x="138.589961" y="309.084837" style="fill: #1f77b4"/>
    </g>
    <g clip-path="url(#p1a7859f527)">
     <use xlink:href="#C1_0_c2ca05374c" x="138.318402" y="169.178035" style="fill: #1f77b4"/>
    </g>
    <g clip-path="url(#p1a7859f527)">
     <use xlink:href="#C1_0_c2ca05374c" x="140.795326" y="69.628964" style="fill: #1f77b4"/>
    </g>
   </g>
   <g id="text_10">
    <text style="fill: #262626; font: 12px 'sans-serif'; text-anchor: middle" x="108.195246" y="42.220038" transform="rotate(-0, 108.195246, 42.220038)">ns</text>
   </g>
   <g id="text_11">
    <text style="fill: #262626; font: 12px 'sans-serif'; text-anchor: middle" x="108.195246" y="16.318125" transform="rotate(-0, 108.195246, 16.318125)">COE1</text>
   </g>
  </g>
  <g id="axes_2">
   <g id="patch_9">
    <path d="M 239.919836 354.958125 
L 349.690328 354.958125 
L 349.690328 22.318125 
L 239.919836 22.318125 
z
" style="fill: #ffffff"/>
   </g>
   <g id="matplotlib.axis_3">
    <g id="xtick_3">
     <g id="line2d_22">
      <g>
       <use xlink:href="#m1d2af699ad" x="267.085261" y="354.958125" style="fill: #262626; stroke: #262626; stroke-width: 1.25"/>
      </g>
     </g>
     <g id="text_12">
      <text style="fill: #262626; font: 11px 'sans-serif'; text-anchor: middle" x="267.085261" y="372.816406" transform="rotate(-0, 267.085261, 372.816406)">control</text>
     </g>
    </g>
    <g id="xtick_4">
     <g id="line2d_23">
      <g>
       <use xlink:href="#m1d2af699ad" x="322.524903" y="354.958125" style="fill: #262626; stroke: #262626; stroke-width: 1.25"/>
      </g>
     </g>
     <g id="text_13">
      <text style="fill: #262626; font: 11px 'sans-serif'; text-anchor: middle" x="322.524903" y="372.816406" transform="rotate(-0, 322.524903, 372.816406)">TCDD</text>
     </g>
    </g>
   </g>
   <g id="matplotlib.axis_4">
    <g id="ytick_7">
     <g id="line2d_24">
      <g>
       <use xlink:href="#m2f0497144f" x="239.919836" y="319.631657" style="fill: #262626; stroke: #262626; stroke-width: 1.25"/>
      </g>
     </g>
     <g id="text_14">
      <text style="fill: #262626; font: 11px 'sans-serif'; text-anchor: end" x="230.419836" y="323.810798" transform="rotate(-0, 230.419836, 323.810798)">10</text>
     </g>
    </g>
    <g id="ytick_8">
     <g id="line2d_25">
      <g>
       <use xlink:href="#m2f0497144f" x="239.919836" y="265.283246" style="fill: #262626; stroke: #262626; stroke-width: 1.25"/>
      </g>
     </g>
     <g id="text_15">
      <text style="fill: #262626; font: 11px 'sans-serif'; text-anchor: end" x="230.419836" y="269.462386" transform="rotate(-0, 230.419836, 269.462386)">20</text>
     </g>
    </g>
    <g id="ytick_9">
     <g id="line2d_26">
      <g>
       <use xlink:href="#m2f0497144f" x="239.919836" y="210.934834" style="fill: #262626; stroke: #262626; stroke-width: 1.25"/>
      </g>
     </g>
     <g id="text_16">
      <text style="fill: #262626; font: 11px 'sans-serif'; text-anchor: end" x="230.419836" y="215.113975" transform="rotate(-0, 230.419836, 215.113975)">30</text>
     </g>
    </g>
    <g id="ytick_10">
     <g id="line2d_27">
      <g>
       <use xlink:href="#m2f0497144f" x="239.919836" y="156.586422" style="fill: #262626; stroke: #262626; stroke-width: 1.25"/>
      </g>
     </g>
     <g id="text_17">
      <text style="fill: #262626; font: 11px 'sans-serif'; text-anchor: end" x="230.419836" y="160.765563" transform="rotate(-0, 230.419836, 160.765563)">40</text>
     </g>
    </g>
    <g id="ytick_11">
     <g id="line2d_28">
      <g>
       <use xlink:href="#m2f0497144f" x="239.919836" y="102.238011" style="fill: #262626; stroke: #262626; stroke-width: 1.25"/>
      </g>
     </g>
     <g id="text_18">
      <text style="fill: #262626; font: 11px 'sans-serif'; text-anchor: end" x="230.419836" y="106.417151" transform="rotate(-0, 230.419836, 106.417151)">50</text>
     </g>
    </g>
    <g id="ytick_12">
     <g id="line2d_29">
      <g>
       <use xlink:href="#m2f0497144f" x="239.919836" y="47.889599" style="fill: #262626; stroke: #262626; stroke-width: 1.25"/>
      </g>
     </g>
     <g id="text_19">
      <text style="fill: #262626; font: 11px 'sans-serif'; text-anchor: end" x="230.419836" y="52.06874" transform="rotate(-0, 230.419836, 52.06874)">60</text>
     </g>
    </g>
    <g id="text_20">
     <text style="fill: #262626; font: 12px 'sans-serif'; text-anchor: middle" x="209.926711" y="188.638125" transform="rotate(-90, 209.926711, 188.638125)">relative abundance</text>
    </g>
   </g>
   <g id="patch_10">
    <path d="M 244.909404 172.890946 
L 289.261118 172.890946 
L 289.261118 72.346384 
L 244.909404 72.346384 
L 244.909404 172.890946 
z
" clip-path="url(#p26b40c4b39)" style="fill: #d3d3d3; stroke: #7f7f7f; stroke-width: 1.5; stroke-linejoin: miter"/>
   </g>
   <g id="patch_11">
    <path d="M 300.349046 257.130984 
L 344.70076 257.130984 
L 344.70076 126.694796 
L 300.349046 126.694796 
L 300.349046 257.130984 
z
" clip-path="url(#p26b40c4b39)" style="fill: #d3d3d3; stroke: #7f7f7f; stroke-width: 1.5; stroke-linejoin: miter"/>
   </g>
   <g id="line2d_30">
    <path d="M 267.085261 172.890946 
L 267.085261 270.718087 
" clip-path="url(#p26b40c4b39)" style="fill: none; stroke: #7f7f7f; stroke-width: 1.5; stroke-linecap: round"/>
   </g>
   <g id="line2d_31">
    <path d="M 267.085261 72.346384 
L 267.085261 69.628964 
" clip-path="url(#p26b40c4b39)" style="fill: none; stroke: #7f7f7f; stroke-width: 1.5; stroke-linecap: round"/>
   </g>
   <g id="line2d_32">
    <path d="M 255.997332 270.718087 
L 278.173189 270.718087 
" clip-path="url(#p26b40c4b39)" style="fill: none; stroke: #7f7f7f; stroke-width: 1.5; stroke-linecap: round"/>
   </g>
   <g id="line2d_33">
    <path d="M 255.997332 69.628964 
L 278.173189 69.628964 
" clip-path="url(#p26b40c4b39)" style="fill: none; stroke: #7f7f7f; stroke-width: 1.5; stroke-linecap: round"/>
   </g>
   <g id="line2d_34"/>
   <g id="line2d_35">
    <path d="M 322.524903 257.130984 
L 322.524903 341.371022 
" clip-path="url(#p26b40c4b39)" style="fill: none; stroke: #7f7f7f; stroke-width: 1.5; stroke-linecap: round"/>
   </g>
   <g id="line2d_36">
    <path d="M 322.524903 126.694796 
L 322.524903 80.498646 
" clip-path="url(#p26b40c4b39)" style="fill: none; stroke: #7f7f7f; stroke-width: 1.5; stroke-linecap: round"/>
   </g>
   <g id="line2d_37">
    <path d="M 311.436975 341.371022 
L 333.612832 341.371022 
" clip-path="url(#p26b40c4b39)" style="fill: none; stroke: #7f7f7f; stroke-width: 1.5; stroke-linecap: round"/>
   </g>
   <g id="line2d_38">
    <path d="M 311.436975 80.498646 
L 333.612832 80.498646 
" clip-path="url(#p26b40c4b39)" style="fill: none; stroke: #7f7f7f; stroke-width: 1.5; stroke-linecap: round"/>
   </g>
   <g id="line2d_39"/>
   <g id="line2d_40">
    <path d="M 267.085261 51.693988 
L 267.085261 45.715663 
L 322.524903 45.715663 
L 322.524903 51.693988 
" clip-path="url(#p26b40c4b39)" style="fill: none; stroke: #333333; stroke-width: 1.5; stroke-linecap: round"/>
   </g>
   <g id="line2d_41">
    <path d="M 244.909404 75.063805 
L 289.261118 75.063805 
" clip-path="url(#p26b40c4b39)" style="fill: none; stroke: #7f7f7f; stroke-width: 1.5; stroke-linecap: round"/>
   </g>
   <g id="line2d_42">
    <path d="M 300.349046 172.890946 
L 344.70076 172.890946 
" clip-path="url(#p26b40c4b39)" style="fill: none; stroke: #7f7f7f; stroke-width: 1.5; stroke-linecap: round"/>
   </g>
   <g id="patch_12">
    <path d="M 239.919836 354.958125 
L 239.919836 22.318125 
" style="fill: none; stroke: #262626; stroke-width: 1.25; stroke-linejoin: miter; stroke-linecap: square"/>
   </g>
   <g id="patch_13">
    <path d="M 349.690328 354.958125 
L 349.690328 22.318125 
" style="fill: none; stroke: #262626; stroke-width: 1.25; stroke-linejoin: miter; stroke-linecap: square"/>
   </g>
   <g id="patch_14">
    <path d="M 239.919836 354.958125 
L 349.690328 354.958125 
" style="fill: none; stroke: #262626; stroke-width: 1.25; stroke-linejoin: miter; stroke-linecap: square"/>
   </g>
   <g id="patch_15">
    <path d="M 239.919836 22.318125 
L 349.690328 22.318125 
" style="fill: none; stroke: #262626; stroke-width: 1.25; stroke-linejoin: miter; stroke-linecap: square"/>
   </g>
   <g id="PathCollection_3">
    <defs>
     <path id="C2_0_cf0e83d837" d="M 0 5 
C 1.326016 5 2.597899 4.473168 3.535534 3.535534 
C 4.473168 2.597899 5 1.326016 5 -0 
C 5 -1.326016 4.473168 -2.597899 3.535534 -3.535534 
C 2.597899 -4.473168 1.326016 -5 0 -5 
C -1.326016 -5 -2.597899 -4.473168 -3.535534 -3.535534 
C -4.473168 -2.597899 -5 -1.326016 -5 0 
C -5 1.326016 -4.473168 2.597899 -3.535534 3.535534 
C -2.597899 4.473168 -1.326016 5 0 5 
z
"/>
    </defs>
    <g clip-path="url(#p26b40c4b39)">
     <use xlink:href="#C2_0_cf0e83d837" x="263.458532" y="69.628964" style="fill: #ff7f0e"/>
    </g>
    <g clip-path="url(#p26b40c4b39)">
     <use xlink:href="#C2_0_cf0e83d837" x="271.837213" y="270.718087" style="fill: #ff7f0e"/>
    </g>
    <g clip-path="url(#p26b40c4b39)">
     <use xlink:href="#C2_0_cf0e83d837" x="272.079718" y="75.063805" style="fill: #ff7f0e"/>
    </g>
   </g>
   <g id="PathCollection_4">
    <defs>
     <path id="C3_0_c7bec3032d" d="M 0 5 
C 1.326016 5 2.597899 4.473168 3.535534 3.535534 
C 4.473168 2.597899 5 1.326016 5 -0 
C 5 -1.326016 4.473168 -2.597899 3.535534 -3.535534 
C 2.597899 -4.473168 1.326016 -5 0 -5 
C -1.326016 -5 -2.597899 -4.473168 -3.535534 -3.535534 
C -4.473168 -2.597899 -5 -1.326016 -5 0 
C -5 1.326016 -4.473168 2.597899 -3.535534 3.535534 
C -2.597899 4.473168 -1.326016 5 0 5 
z
"/>
    </defs>
    <g clip-path="url(#p26b40c4b39)">
     <use xlink:href="#C3_0_c7bec3032d" x="321.773035" y="172.890946" style="fill: #1f77b4"/>
    </g>
    <g clip-path="url(#p26b40c4b39)">
     <use xlink:href="#C3_0_c7bec3032d" x="322.834003" y="341.371022" style="fill: #1f77b4"/>
    </g>
    <g clip-path="url(#p26b40c4b39)">
     <use xlink:href="#C3_0_c7bec3032d" x="324.141524" y="80.498646" style="fill: #1f77b4"/>
    </g>
   </g>
   <g id="text_21">
    <text style="fill: #262626; font: 12px 'sans-serif'; text-anchor: middle" x="294.805082" y="42.220038" transform="rotate(-0, 294.805082, 42.220038)">ns</text>
   </g>
   <g id="text_22">
    <text style="fill: #262626; font: 12px 'sans-serif'; text-anchor: middle" x="294.805082" y="16.318125" transform="rotate(-0, 294.805082, 16.318125)">Lepagella</text>
   </g>
  </g>
  <g id="axes_3">
   <g id="patch_16">
    <path d="M 426.529672 354.958125 
L 536.300164 354.958125 
L 536.300164 22.318125 
L 426.529672 22.318125 
z
" style="fill: #ffffff"/>
   </g>
   <g id="matplotlib.axis_5">
    <g id="xtick_5">
     <g id="line2d_43">
      <g>
       <use xlink:href="#m1d2af699ad" x="453.695097" y="354.958125" style="fill: #262626; stroke: #262626; stroke-width: 1.25"/>
      </g>
     </g>
     <g id="text_23">
      <text style="fill: #262626; font: 11px 'sans-serif'; text-anchor: middle" x="453.695097" y="372.816406" transform="rotate(-0, 453.695097, 372.816406)">control</text>
     </g>
    </g>
    <g id="xtick_6">
     <g id="line2d_44">
      <g>
       <use xlink:href="#m1d2af699ad" x="509.134739" y="354.958125" style="fill: #262626; stroke: #262626; stroke-width: 1.25"/>
      </g>
     </g>
     <g id="text_24">
      <text style="fill: #262626; font: 11px 'sans-serif'; text-anchor: middle" x="509.134739" y="372.816406" transform="rotate(-0, 509.134739, 372.816406)">TCDD</text>
     </g>
    </g>
   </g>
   <g id="matplotlib.axis_6">
    <g id="ytick_13">
     <g id="line2d_45">
      <g>
       <use xlink:href="#m2f0497144f" x="426.529672" y="343.207117" style="fill: #262626; stroke: #262626; stroke-width: 1.25"/>
      </g>
     </g>
     <g id="text_25">
      <text style="fill: #262626; font: 11px 'sans-serif'; text-anchor: end" x="417.029672" y="347.386258" transform="rotate(-0, 417.029672, 347.386258)">0</text>
     </g>
    </g>
    <g id="ytick_14">
     <g id="line2d_46">
      <g>
       <use xlink:href="#m2f0497144f" x="426.529672" y="297.304742" style="fill: #262626; stroke: #262626; stroke-width: 1.25"/>
      </g>
     </g>
     <g id="text_26">
      <text style="fill: #262626; font: 11px 'sans-serif'; text-anchor: end" x="417.029672" y="301.483883" transform="rotate(-0, 417.029672, 301.483883)">25</text>
     </g>
    </g>
    <g id="ytick_15">
     <g id="line2d_47">
      <g>
       <use xlink:href="#m2f0497144f" x="426.529672" y="251.402368" style="fill: #262626; stroke: #262626; stroke-width: 1.25"/>
      </g>
     </g>
     <g id="text_27">
      <text style="fill: #262626; font: 11px 'sans-serif'; text-anchor: end" x="417.029672" y="255.581508" transform="rotate(-0, 417.029672, 255.581508)">50</text>
     </g>
    </g>
    <g id="ytick_16">
     <g id="line2d_48">
      <g>
       <use xlink:href="#m2f0497144f" x="426.529672" y="205.499993" style="fill: #262626; stroke: #262626; stroke-width: 1.25"/>
      </g>
     </g>
     <g id="text_28">
      <text style="fill: #262626; font: 11px 'sans-serif'; text-anchor: end" x="417.029672" y="209.679134" transform="rotate(-0, 417.029672, 209.679134)">75</text>
     </g>
    </g>
    <g id="ytick_17">
     <g id="line2d_49">
      <g>
       <use xlink:href="#m2f0497144f" x="426.529672" y="159.597618" style="fill: #262626; stroke: #262626; stroke-width: 1.25"/>
      </g>
     </g>
     <g id="text_29">
      <text style="fill: #262626; font: 11px 'sans-serif'; text-anchor: end" x="417.029672" y="163.776759" transform="rotate(-0, 417.029672, 163.776759)">100</text>
     </g>
    </g>
    <g id="ytick_18">
     <g id="line2d_50">
      <g>
       <use xlink:href="#m2f0497144f" x="426.529672" y="113.695243" style="fill: #262626; stroke: #262626; stroke-width: 1.25"/>
      </g>
     </g>
     <g id="text_30">
      <text style="fill: #262626; font: 11px 'sans-serif'; text-anchor: end" x="417.029672" y="117.874384" transform="rotate(-0, 417.029672, 117.874384)">125</text>
     </g>
    </g>
    <g id="ytick_19">
     <g id="line2d_51">
      <g>
       <use xlink:href="#m2f0497144f" x="426.529672" y="67.792869" style="fill: #262626; stroke: #262626; stroke-width: 1.25"/>
      </g>
     </g>
     <g id="text_31">
      <text style="fill: #262626; font: 11px 'sans-serif'; text-anchor: end" x="417.029672" y="71.972009" transform="rotate(-0, 417.029672, 71.972009)">150</text>
     </g>
    </g>
    <g id="text_32">
     <text style="fill: #262626; font: 12px 'sans-serif'; text-anchor: middle" x="389.537797" y="188.638125" transform="rotate(-90, 389.537797, 188.638125)">relative abundance</text>
    </g>
   </g>
   <g id="patch_17">
    <path d="M 431.51924 341.371022 
L 475.870954 341.371022 
L 475.870954 341.371022 
L 431.51924 341.371022 
L 431.51924 341.371022 
z
" clip-path="url(#p879f31e197)" style="fill: #d3d3d3; stroke: #7f7f7f; stroke-width: 1.5; stroke-linejoin: miter"/>
   </g>
   <g id="patch_18">
    <path d="M 486.958882 335.862737 
L 531.310596 335.862737 
L 531.310596 200.909755 
L 486.958882 200.909755 
L 486.958882 335.862737 
z
" clip-path="url(#p879f31e197)" style="fill: #d3d3d3; stroke: #7f7f7f; stroke-width: 1.5; stroke-linejoin: miter"/>
   </g>
   <g id="line2d_52">
    <path d="M 453.695097 341.371022 
L 453.695097 341.371022 
" clip-path="url(#p879f31e197)" style="fill: none; stroke: #7f7f7f; stroke-width: 1.5; stroke-linecap: round"/>
   </g>
   <g id="line2d_53">
    <path d="M 453.695097 341.371022 
L 453.695097 341.371022 
" clip-path="url(#p879f31e197)" style="fill: none; stroke: #7f7f7f; stroke-width: 1.5; stroke-linecap: round"/>
   </g>
   <g id="line2d_54">
    <path d="M 442.607168 341.371022 
L 464.783025 341.371022 
" clip-path="url(#p879f31e197)" style="fill: none; stroke: #7f7f7f; stroke-width: 1.5; stroke-linecap: round"/>
   </g>
   <g id="line2d_55">
    <path d="M 442.607168 341.371022 
L 464.783025 341.371022 
" clip-path="url(#p879f31e197)" style="fill: none; stroke: #7f7f7f; stroke-width: 1.5; stroke-linecap: round"/>
   </g>
   <g id="line2d_56"/>
   <g id="line2d_57">
    <path d="M 509.134739 335.862737 
L 509.134739 339.534927 
" clip-path="url(#p879f31e197)" style="fill: none; stroke: #7f7f7f; stroke-width: 1.5; stroke-linecap: round"/>
   </g>
   <g id="line2d_58">
    <path d="M 509.134739 200.909755 
L 509.134739 69.628964 
" clip-path="url(#p879f31e197)" style="fill: none; stroke: #7f7f7f; stroke-width: 1.5; stroke-linecap: round"/>
   </g>
   <g id="line2d_59">
    <path d="M 498.046811 339.534927 
L 520.222668 339.534927 
" clip-path="url(#p879f31e197)" style="fill: none; stroke: #7f7f7f; stroke-width: 1.5; stroke-linecap: round"/>
   </g>
   <g id="line2d_60">
    <path d="M 498.046811 69.628964 
L 520.222668 69.628964 
" clip-path="url(#p879f31e197)" style="fill: none; stroke: #7f7f7f; stroke-width: 1.5; stroke-linecap: round"/>
   </g>
   <g id="line2d_61"/>
   <g id="line2d_62">
    <path d="M 453.695097 51.693988 
L 453.695097 45.715663 
L 509.134739 45.715663 
L 509.134739 51.693988 
" clip-path="url(#p879f31e197)" style="fill: none; stroke: #333333; stroke-width: 1.5; stroke-linecap: round"/>
   </g>
   <g id="line2d_63">
    <path d="M 431.51924 341.371022 
L 475.870954 341.371022 
" clip-path="url(#p879f31e197)" style="fill: none; stroke: #7f7f7f; stroke-width: 1.5; stroke-linecap: round"/>
   </g>
   <g id="line2d_64">
    <path d="M 486.958882 332.190547 
L 531.310596 332.190547 
" clip-path="url(#p879f31e197)" style="fill: none; stroke: #7f7f7f; stroke-width: 1.5; stroke-linecap: round"/>
   </g>
   <g id="patch_19">
    <path d="M 426.529672 354.958125 
L 426.529672 22.318125 
" style="fill: none; stroke: #262626; stroke-width: 1.25; stroke-linejoin: miter; stroke-linecap: square"/>
   </g>
   <g id="patch_20">
    <path d="M 536.300164 354.958125 
L 536.300164 22.318125 
" style="fill: none; stroke: #262626; stroke-width: 1.25; stroke-linejoin: miter; stroke-linecap: square"/>
   </g>
   <g id="patch_21">
    <path d="M 426.529672 354.958125 
L 536.300164 354.958125 
" style="fill: none; stroke: #262626; stroke-width: 1.25; stroke-linejoin: miter; stroke-linecap: square"/>
   </g>
   <g id="patch_22">
    <path d="M 426.529672 22.318125 
L 536.300164 22.318125 
" style="fill: none; stroke: #262626; stroke-width: 1.25; stroke-linejoin: miter; stroke-linecap: square"/>
   </g>
   <g id="PathCollection_5">
    <defs>
     <path id="C4_0_febfeddf94" d="M 0 5 
C 1.326016 5 2.597899 4.473168 3.535534 3.535534 
C 4.473168 2.597899 5 1.326016 5 -0 
C 5 -1.326016 4.473168 -2.597899 3.535534 -3.535534 
C 2.597899 -4.473168 1.326016 -5 0 -5 
C -1.326016 -5 -2.597899 -4.473168 -3.535534 -3.535534 
C -4.473168 -2.597899 -5 -1.326016 -5 0 
C -5 1.326016 -4.473168 2.597899 -3.535534 3.535534 
C -2.597899 4.473168 -1.326016 5 0 5 
z
"/>
    </defs>
    <g clip-path="url(#p879f31e197)">
     <use xlink:href="#C4_0_febfeddf94" x="459.178187" y="341.371022" style="fill: #ff7f0e"/>
    </g>
    <g clip-path="url(#p879f31e197)">
     <use xlink:href="#C4_0_febfeddf94" x="451.693394" y="341.371022" style="fill: #ff7f0e"/>
    </g>
    <g clip-path="url(#p879f31e197)">
     <use xlink:href="#C4_0_febfeddf94" x="456.064884" y="341.371022" style="fill: #ff7f0e"/>
    </g>
   </g>
   <g id="PathCollection_6">
    <defs>
     <path id="C5_0_ede918865d" d="M 0 5 
C 1.326016 5 2.597899 4.473168 3.535534 3.535534 
C 4.473168 2.597899 5 1.326016 5 -0 
C 5 -1.326016 4.473168 -2.597899 3.535534 -3.535534 
C 2.597899 -4.473168 1.326016 -5 0 -5 
C -1.326016 -5 -2.597899 -4.473168 -3.535534 -3.535534 
C -4.473168 -2.597899 -5 -1.326016 -5 0 
C -5 1.326016 -4.473168 2.597899 -3.535534 3.535534 
C -2.597899 4.473168 -1.326016 5 0 5 
z
"/>
    </defs>
    <g clip-path="url(#p879f31e197)">
     <use xlink:href="#C5_0_ede918865d" x="511.596678" y="69.628964" style="fill: #1f77b4"/>
    </g>
    <g clip-path="url(#p879f31e197)">
     <use xlink:href="#C5_0_ede918865d" x="504.288574" y="332.190547" style="fill: #1f77b4"/>
    </g>
    <g clip-path="url(#p879f31e197)">
     <use xlink:href="#C5_0_ede918865d" x="504.343634" y="339.534927" style="fill: #1f77b4"/>
    </g>
   </g>
   <g id="text_33">
    <text style="fill: #262626; font: 12px 'sans-serif'; text-anchor: middle" x="481.414918" y="42.220038" transform="rotate(-0, 481.414918, 42.220038)">*</text>
   </g>
   <g id="text_34">
    <text style="fill: #262626; font: 12px 'sans-serif'; text-anchor: middle" x="481.414918" y="16.318125" transform="rotate(-0, 481.414918, 16.318125)">C-53</text>
   </g>
  </g>
  <g id="axes_4">
   <g id="patch_23">
    <path d="M 613.139508 354.958125 
L 722.91 354.958125 
L 722.91 22.318125 
L 613.139508 22.318125 
z
" style="fill: #ffffff"/>
   </g>
   <g id="matplotlib.axis_7">
    <g id="xtick_7">
     <g id="line2d_65">
      <g>
       <use xlink:href="#m1d2af699ad" x="640.304933" y="354.958125" style="fill: #262626; stroke: #262626; stroke-width: 1.25"/>
      </g>
     </g>
     <g id="text_35">
      <text style="fill: #262626; font: 11px 'sans-serif'; text-anchor: middle" x="640.304933" y="372.816406" transform="rotate(-0, 640.304933, 372.816406)">control</text>
     </g>
    </g>
    <g id="xtick_8">
     <g id="line2d_66">
      <g>
       <use xlink:href="#m1d2af699ad" x="695.744575" y="354.958125" style="fill: #262626; stroke: #262626; stroke-width: 1.25"/>
      </g>
     </g>
     <g id="text_36">
      <text style="fill: #262626; font: 11px 'sans-serif'; text-anchor: middle" x="695.744575" y="372.816406" transform="rotate(-0, 695.744575, 372.816406)">TCDD</text>
     </g>
    </g>
   </g>
   <g id="matplotlib.axis_8">
    <g id="ytick_20">
     <g id="line2d_67">
      <g>
       <use xlink:href="#m2f0497144f" x="613.139508" y="333.136414" style="fill: #262626; stroke: #262626; stroke-width: 1.25"/>
      </g>
     </g>
     <g id="text_37">
      <text style="fill: #262626; font: 11px 'sans-serif'; text-anchor: end" x="603.639508" y="337.315555" transform="rotate(-0, 603.639508, 337.315555)">10</text>
     </g>
    </g>
    <g id="ytick_21">
     <g id="line2d_68">
      <g>
       <use xlink:href="#m2f0497144f" x="613.139508" y="291.963375" style="fill: #262626; stroke: #262626; stroke-width: 1.25"/>
      </g>
     </g>
     <g id="text_38">
      <text style="fill: #262626; font: 11px 'sans-serif'; text-anchor: end" x="603.639508" y="296.142516" transform="rotate(-0, 603.639508, 296.142516)">15</text>
     </g>
    </g>
    <g id="ytick_22">
     <g id="line2d_69">
      <g>
       <use xlink:href="#m2f0497144f" x="613.139508" y="250.790336" style="fill: #262626; stroke: #262626; stroke-width: 1.25"/>
      </g>
     </g>
     <g id="text_39">
      <text style="fill: #262626; font: 11px 'sans-serif'; text-anchor: end" x="603.639508" y="254.969477" transform="rotate(-0, 603.639508, 254.969477)">20</text>
     </g>
    </g>
    <g id="ytick_23">
     <g id="line2d_70">
      <g>
       <use xlink:href="#m2f0497144f" x="613.139508" y="209.617297" style="fill: #262626; stroke: #262626; stroke-width: 1.25"/>
      </g>
     </g>
     <g id="text_40">
      <text style="fill: #262626; font: 11px 'sans-serif'; text-anchor: end" x="603.639508" y="213.796437" transform="rotate(-0, 603.639508, 213.796437)">25</text>
     </g>
    </g>
    <g id="ytick_24">
     <g id="line2d_71">
      <g>
       <use xlink:href="#m2f0497144f" x="613.139508" y="168.444258" style="fill: #262626; stroke: #262626; stroke-width: 1.25"/>
      </g>
     </g>
     <g id="text_41">
      <text style="fill: #262626; font: 11px 'sans-serif'; text-anchor: end" x="603.639508" y="172.623398" transform="rotate(-0, 603.639508, 172.623398)">30</text>
     </g>
    </g>
    <g id="ytick_25">
     <g id="line2d_72">
      <g>
       <use xlink:href="#m2f0497144f" x="613.139508" y="127.271219" style="fill: #262626; stroke: #262626; stroke-width: 1.25"/>
      </g>
     </g>
     <g id="text_42">
      <text style="fill: #262626; font: 11px 'sans-serif'; text-anchor: end" x="603.639508" y="131.450359" transform="rotate(-0, 603.639508, 131.450359)">35</text>
     </g>
    </g>
    <g id="ytick_26">
     <g id="line2d_73">
      <g>
       <use xlink:href="#m2f0497144f" x="613.139508" y="86.098179" style="fill: #262626; stroke: #262626; stroke-width: 1.25"/>
      </g>
     </g>
     <g id="text_43">
      <text style="fill: #262626; font: 11px 'sans-serif'; text-anchor: end" x="603.639508" y="90.27732" transform="rotate(-0, 603.639508, 90.27732)">40</text>
     </g>
    </g>
    <g id="ytick_27">
     <g id="line2d_74">
      <g>
       <use xlink:href="#m2f0497144f" x="613.139508" y="44.92514" style="fill: #262626; stroke: #262626; stroke-width: 1.25"/>
      </g>
     </g>
     <g id="text_44">
      <text style="fill: #262626; font: 11px 'sans-serif'; text-anchor: end" x="603.639508" y="49.104281" transform="rotate(-0, 603.639508, 49.104281)">45</text>
     </g>
    </g>
    <g id="text_45">
     <text style="fill: #262626; font: 12px 'sans-serif'; text-anchor: middle" x="583.146383" y="188.638125" transform="rotate(-90, 583.146383, 188.638125)">relative abundance</text>
    </g>
   </g>
   <g id="patch_24">
    <path d="M 618.129076 291.963375 
L 662.48079 291.963375 
L 662.48079 156.092346 
L 618.129076 156.092346 
L 618.129076 291.963375 
z
" clip-path="url(#pd2bdece493)" style="fill: #d3d3d3; stroke: #7f7f7f; stroke-width: 1.5; stroke-linejoin: miter"/>
   </g>
   <g id="patch_25">
    <path d="M 673.568718 296.080679 
L 717.920432 296.080679 
L 717.920432 246.673032 
L 673.568718 246.673032 
L 673.568718 296.080679 
z
" clip-path="url(#pd2bdece493)" style="fill: #d3d3d3; stroke: #7f7f7f; stroke-width: 1.5; stroke-linejoin: miter"/>
   </g>
   <g id="line2d_75">
    <path d="M 640.304933 291.963375 
L 640.304933 341.371022 
" clip-path="url(#pd2bdece493)" style="fill: none; stroke: #7f7f7f; stroke-width: 1.5; stroke-linecap: round"/>
   </g>
   <g id="line2d_76">
    <path d="M 640.304933 156.092346 
L 640.304933 69.628964 
" clip-path="url(#pd2bdece493)" style="fill: none; stroke: #7f7f7f; stroke-width: 1.5; stroke-linecap: round"/>
   </g>
   <g id="line2d_77">
    <path d="M 629.217004 341.371022 
L 651.392861 341.371022 
" clip-path="url(#pd2bdece493)" style="fill: none; stroke: #7f7f7f; stroke-width: 1.5; stroke-linecap: round"/>
   </g>
   <g id="line2d_78">
    <path d="M 629.217004 69.628964 
L 651.392861 69.628964 
" clip-path="url(#pd2bdece493)" style="fill: none; stroke: #7f7f7f; stroke-width: 1.5; stroke-linecap: round"/>
   </g>
   <g id="line2d_79"/>
   <g id="line2d_80">
    <path d="M 695.744575 296.080679 
L 695.744575 300.197983 
" clip-path="url(#pd2bdece493)" style="fill: none; stroke: #7f7f7f; stroke-width: 1.5; stroke-linecap: round"/>
   </g>
   <g id="line2d_81">
    <path d="M 695.744575 246.673032 
L 695.744575 201.382689 
" clip-path="url(#pd2bdece493)" style="fill: none; stroke: #7f7f7f; stroke-width: 1.5; stroke-linecap: round"/>
   </g>
   <g id="line2d_82">
    <path d="M 684.656647 300.197983 
L 706.832504 300.197983 
" clip-path="url(#pd2bdece493)" style="fill: none; stroke: #7f7f7f; stroke-width: 1.5; stroke-linecap: round"/>
   </g>
   <g id="line2d_83">
    <path d="M 684.656647 201.382689 
L 706.832504 201.382689 
" clip-path="url(#pd2bdece493)" style="fill: none; stroke: #7f7f7f; stroke-width: 1.5; stroke-linecap: round"/>
   </g>
   <g id="line2d_84"/>
   <g id="line2d_85">
    <path d="M 640.304933 51.693988 
L 640.304933 45.715663 
L 695.744575 45.715663 
L 695.744575 51.693988 
" clip-path="url(#pd2bdece493)" style="fill: none; stroke: #333333; stroke-width: 1.5; stroke-linecap: round"/>
   </g>
   <g id="line2d_86">
    <path d="M 618.129076 242.555728 
L 662.48079 242.555728 
" clip-path="url(#pd2bdece493)" style="fill: none; stroke: #7f7f7f; stroke-width: 1.5; stroke-linecap: round"/>
   </g>
   <g id="line2d_87">
    <path d="M 673.568718 291.963375 
L 717.920432 291.963375 
" clip-path="url(#pd2bdece493)" style="fill: none; stroke: #7f7f7f; stroke-width: 1.5; stroke-linecap: round"/>
   </g>
   <g id="patch_26">
    <path d="M 613.139508 354.958125 
L 613.139508 22.318125 
" style="fill: none; stroke: #262626; stroke-width: 1.25; stroke-linejoin: miter; stroke-linecap: square"/>
   </g>
   <g id="patch_27">
    <path d="M 722.91 354.958125 
L 722.91 22.318125 
" style="fill: none; stroke: #262626; stroke-width: 1.25; stroke-linejoin: miter; stroke-linecap: square"/>
   </g>
   <g id="patch_28">
    <path d="M 613.139508 354.958125 
L 722.91 354.958125 
" style="fill: none; stroke: #262626; stroke-width: 1.25; stroke-linejoin: miter; stroke-linecap: square"/>
   </g>
   <g id="patch_29">
    <path d="M 613.139508 22.318125 
L 722.91 22.318125 
" style="fill: none; stroke: #262626; stroke-width: 1.25; stroke-linejoin: miter; stroke-linecap: square"/>
   </g>
   <g id="PathCollection_7">
    <defs>
     <path id="C6_0_e40e25005b" d="M 0 5 
C 1.326016 5 2.597899 4.473168 3.535534 3.535534 
C 4.473168 2.597899 5 1.326016 5 -0 
C 5 -1.326016 4.473168 -2.597899 3.535534 -3.535534 
C 2.597899 -4.473168 1.326016 -5 0 -5 
C -1.326016 -5 -2.597899 -4.473168 -3.535534 -3.535534 
C -4.473168 -2.597899 -5 -1.326016 -5 0 
C -5 1.326016 -4.473168 2.597899 -3.535534 3.535534 
C -2.597899 4.473168 -1.326016 5 0 5 
z
"/>
    </defs>
    <g clip-path="url(#pd2bdece493)">
     <use xlink:href="#C6_0_e40e25005b" x="642.940555" y="242.555728" style="fill: #ff7f0e"/>
    </g>
    <g clip-path="url(#pd2bdece493)">
     <use xlink:href="#C6_0_e40e25005b" x="639.244801" y="341.371022" style="fill: #ff7f0e"/>
    </g>
    <g clip-path="url(#pd2bdece493)">
     <use xlink:href="#C6_0_e40e25005b" x="641.103168" y="69.628964" style="fill: #ff7f0e"/>
    </g>
   </g>
   <g id="PathCollection_8">
    <defs>
     <path id="C7_0_b330bf895c" d="M 0 5 
C 1.326016 5 2.597899 4.473168 3.535534 3.535534 
C 4.473168 2.597899 5 1.326016 5 -0 
C 5 -1.326016 4.473168 -2.597899 3.535534 -3.535534 
C 2.597899 -4.473168 1.326016 -5 0 -5 
C -1.326016 -5 -2.597899 -4.473168 -3.535534 -3.535534 
C -4.473168 -2.597899 -5 -1.326016 -5 0 
C -5 1.326016 -4.473168 2.597899 -3.535534 3.535534 
C -2.597899 4.473168 -1.326016 5 0 5 
z
"/>
    </defs>
    <g clip-path="url(#pd2bdece493)">
     <use xlink:href="#C7_0_b330bf895c" x="697.917091" y="291.963375" style="fill: #1f77b4"/>
    </g>
    <g clip-path="url(#pd2bdece493)">
     <use xlink:href="#C7_0_b330bf895c" x="699.245804" y="201.382689" style="fill: #1f77b4"/>
    </g>
    <g clip-path="url(#pd2bdece493)">
     <use xlink:href="#C7_0_b330bf895c" x="700.16072" y="300.197983" style="fill: #1f77b4"/>
    </g>
   </g>
   <g id="text_46">
    <text style="fill: #262626; font: 12px 'sans-serif'; text-anchor: middle" x="668.024754" y="42.220038" transform="rotate(-0, 668.024754, 42.220038)">ns</text>
   </g>
   <g id="text_47">
    <text style="fill: #262626; font: 12px 'sans-serif'; text-anchor: middle" x="668.024754" y="16.318125" transform="rotate(-0, 668.024754, 16.318125)">Duncaniella</text>
   </g>
  </g>
 </g>
 <defs>
  <clipPath id="p1a7859f527">
   <rect x="53.31" y="22.318125" width="109.770492" height="332.64"/>
  </clipPath>
  <clipPath id="p26b40c4b39">
   <rect x="239.919836" y="22.318125" width="109.770492" height="332.64"/>
  </clipPath>
  <clipPath id="p879f31e197">
   <rect x="426.529672" y="22.318125" width="109.770492" height="332.64"/>
  </clipPath>
  <clipPath id="pd2bdece493">
   <rect x="613.139508" y="22.318125" width="109.770492" height="332.64"/>
  </clipPath>
 </defs>
</svg>
