<?xml version="1.0" encoding="utf-8" standalone="no"?>
<!DOCTYPE svg PUBLIC "-//W3C//DTD SVG 1.1//EN"
  "http://www.w3.org/Graphics/SVG/1.1/DTD/svg11.dtd">
<svg xmlns:xlink="http://www.w3.org/1999/xlink" width="574.599375pt" height="506.684625pt" viewBox="0 0 574.599375 506.684625" xmlns="http://www.w3.org/2000/svg" version="1.1">
 <metadata>
  <rdf:RDF xmlns:dc="http://purl.org/dc/elements/1.1/" xmlns:cc="http://creativecommons.org/ns#" xmlns:rdf="http://www.w3.org/1999/02/22-rdf-syntax-ns#">
   <cc:Work>
    <dc:type rdf:resource="http://purl.org/dc/dcmitype/StillImage"/>
    <dc:date>2025-02-20T14:15:38.388094</dc:date>
    <dc:format>image/svg+xml</dc:format>
    <dc:creator>
     <cc:Agent>
      <dc:title>Matplotlib v3.5.3, https://matplotlib.org/</dc:title>
     </cc:Agent>
    </dc:creator>
   </cc:Work>
  </rdf:RDF>
 </metadata>
 <defs>
  <style type="text/css">*{stroke-linejoin: round; stroke-linecap: butt}</style>
 </defs>
 <g id="figure_1">
  <g id="patch_1">
   <path d="M 0 506.684625 
L 574.599375 506.684625 
L 574.599375 -0 
L 0 -0 
z
" style="fill: #ffffff"/>
  </g>
  <g id="axes_1">
   <g id="patch_2">
    <path d="M 49.807188 372.303531 
L 328.807187 372.303531 
L 328.807187 39.663531 
L 49.807188 39.663531 
z
" style="fill: #ffffff"/>
   </g>
   <g id="matplotlib.axis_1">
    <g id="xtick_1">
     <g id="line2d_1">
      <path d="M 71.950045 372.303531 
L 71.950045 39.663531 
" clip-path="url(#pc07eb28ff0)" style="fill: none; stroke: #ffffff; stroke-linecap: round"/>
     </g>
     <g id="line2d_2">
      <defs>
       <path id="m1509af434e" d="M 0 0 
L 0 6 
" style="stroke: #262626; stroke-width: 1.25"/>
      </defs>
      <g>
       <use xlink:href="#m1509af434e" x="71.950045" y="372.303531" style="fill: #262626; stroke: #262626; stroke-width: 1.25"/>
      </g>
     </g>
     <g id="text_1">
      <text style="fill: #262626; font: 11px 'sans-serif'" transform="translate(74.985357 499.484625)rotate(-90)">15900.s325.1.S325.1</text>
     </g>
    </g>
    <g id="xtick_2">
     <g id="line2d_3">
      <path d="M 116.235759 372.303531 
L 116.235759 39.663531 
" clip-path="url(#pc07eb28ff0)" style="fill: none; stroke: #ffffff; stroke-linecap: round"/>
     </g>
     <g id="line2d_4">
      <g>
       <use xlink:href="#m1509af434e" x="116.235759" y="372.303531" style="fill: #262626; stroke: #262626; stroke-width: 1.25"/>
      </g>
     </g>
     <g id="text_2">
      <text style="fill: #262626; font: 11px 'sans-serif'" transform="translate(119.271071 499.484625)rotate(-90)">15900.s326.1.S326.1</text>
     </g>
    </g>
    <g id="xtick_3">
     <g id="line2d_5">
      <path d="M 160.521473 372.303531 
L 160.521473 39.663531 
" clip-path="url(#pc07eb28ff0)" style="fill: none; stroke: #ffffff; stroke-linecap: round"/>
     </g>
     <g id="line2d_6">
      <g>
       <use xlink:href="#m1509af434e" x="160.521473" y="372.303531" style="fill: #262626; stroke: #262626; stroke-width: 1.25"/>
      </g>
     </g>
     <g id="text_3">
      <text style="fill: #262626; font: 11px 'sans-serif'" transform="translate(163.556786 499.484625)rotate(-90)">15900.s327.1.S327.1</text>
     </g>
    </g>
    <g id="xtick_4">
     <g id="line2d_7">
      <path d="M 218.092902 372.303531 
L 218.092902 39.663531 
" clip-path="url(#pc07eb28ff0)" style="fill: none; stroke: #ffffff; stroke-linecap: round"/>
     </g>
     <g id="line2d_8">
      <g>
       <use xlink:href="#m1509af434e" x="218.092902" y="372.303531" style="fill: #262626; stroke: #262626; stroke-width: 1.25"/>
      </g>
     </g>
     <g id="text_4">
      <text style="fill: #262626; font: 11px 'sans-serif'" transform="translate(221.128214 499.484625)rotate(-90)">15900.s328.1.S328.1</text>
     </g>
    </g>
    <g id="xtick_5">
     <g id="line2d_9">
      <path d="M 262.378616 372.303531 
L 262.378616 39.663531 
" clip-path="url(#pc07eb28ff0)" style="fill: none; stroke: #ffffff; stroke-linecap: round"/>
     </g>
     <g id="line2d_10">
      <g>
       <use xlink:href="#m1509af434e" x="262.378616" y="372.303531" style="fill: #262626; stroke: #262626; stroke-width: 1.25"/>
      </g>
     </g>
     <g id="text_5">
      <text style="fill: #262626; font: 11px 'sans-serif'" transform="translate(265.413929 499.484625)rotate(-90)">15900.s329.1.S329.1</text>
     </g>
    </g>
    <g id="xtick_6">
     <g id="line2d_11">
      <path d="M 306.66433 372.303531 
L 306.66433 39.663531 
" clip-path="url(#pc07eb28ff0)" style="fill: none; stroke: #ffffff; stroke-linecap: round"/>
     </g>
     <g id="line2d_12">
      <g>
       <use xlink:href="#m1509af434e" x="306.66433" y="372.303531" style="fill: #262626; stroke: #262626; stroke-width: 1.25"/>
      </g>
     </g>
     <g id="text_6">
      <text style="fill: #262626; font: 11px 'sans-serif'" transform="translate(309.699643 499.484625)rotate(-90)">15900.s330.1.S330.1</text>
     </g>
    </g>
   </g>
   <g id="matplotlib.axis_2">
    <g id="ytick_1">
     <g id="line2d_13">
      <path d="M 49.807188 372.303531 
L 328.807187 372.303531 
" clip-path="url(#pc07eb28ff0)" style="fill: none; stroke: #ffffff; stroke-linecap: round"/>
     </g>
     <g id="text_7">
      <text style="fill: #262626; font: 11px 'sans-serif'; text-anchor: end" x="40.307188" y="376.482672" transform="rotate(-0, 40.307188, 376.482672)">0.0</text>
     </g>
    </g>
    <g id="ytick_2">
     <g id="line2d_14">
      <path d="M 49.807188 305.775531 
L 328.807187 305.775531 
" clip-path="url(#pc07eb28ff0)" style="fill: none; stroke: #ffffff; stroke-linecap: round"/>
     </g>
     <g id="text_8">
      <text style="fill: #262626; font: 11px 'sans-serif'; text-anchor: end" x="40.307188" y="309.954672" transform="rotate(-0, 40.307188, 309.954672)">0.2</text>
     </g>
    </g>
    <g id="ytick_3">
     <g id="line2d_15">
      <path d="M 49.807188 239.247531 
L 328.807187 239.247531 
" clip-path="url(#pc07eb28ff0)" style="fill: none; stroke: #ffffff; stroke-linecap: round"/>
     </g>
     <g id="text_9">
      <text style="fill: #262626; font: 11px 'sans-serif'; text-anchor: end" x="40.307188" y="243.426672" transform="rotate(-0, 40.307188, 243.426672)">0.4</text>
     </g>
    </g>
    <g id="ytick_4">
     <g id="line2d_16">
      <path d="M 49.807188 172.719531 
L 328.807187 172.719531 
" clip-path="url(#pc07eb28ff0)" style="fill: none; stroke: #ffffff; stroke-linecap: round"/>
     </g>
     <g id="text_10">
      <text style="fill: #262626; font: 11px 'sans-serif'; text-anchor: end" x="40.307188" y="176.898672" transform="rotate(-0, 40.307188, 176.898672)">0.6</text>
     </g>
    </g>
    <g id="ytick_5">
     <g id="line2d_17">
      <path d="M 49.807188 106.191531 
L 328.807187 106.191531 
" clip-path="url(#pc07eb28ff0)" style="fill: none; stroke: #ffffff; stroke-linecap: round"/>
     </g>
     <g id="text_11">
      <text style="fill: #262626; font: 11px 'sans-serif'; text-anchor: end" x="40.307188" y="110.370672" transform="rotate(-0, 40.307188, 110.370672)">0.8</text>
     </g>
    </g>
    <g id="ytick_6">
     <g id="line2d_18">
      <path d="M 49.807188 39.663531 
L 328.807187 39.663531 
" clip-path="url(#pc07eb28ff0)" style="fill: none; stroke: #ffffff; stroke-linecap: round"/>
     </g>
     <g id="text_12">
      <text style="fill: #262626; font: 11px 'sans-serif'; text-anchor: end" x="40.307188" y="43.842672" transform="rotate(-0, 40.307188, 43.842672)">1.0</text>
     </g>
    </g>
    <g id="text_13">
     <text style="fill: #262626; font: 12px 'sans-serif'; text-anchor: middle" x="16.318125" y="205.983531" transform="rotate(-90, 16.318125, 205.983531)">relative abundance</text>
    </g>
   </g>
   <g id="PolyCollection_1">
    <defs>
     <path id="mf70bbe7b5f" d="M 195.950045 -334.757094 
L 195.950045 -134.381094 
L 240.235759 -134.381094 
L 240.235759 -134.381094 
L 284.521473 -134.381094 
L 284.521473 -134.381094 
L 328.807187 -134.381094 
L 328.807187 -287.237094 
L 328.807187 -287.237094 
L 284.521473 -287.237094 
L 284.521473 -294.365094 
L 240.235759 -294.365094 
L 240.235759 -334.757094 
L 195.950045 -334.757094 
z
"/>
    </defs>
    <g clip-path="url(#pc07eb28ff0)">
     <use xlink:href="#mf70bbe7b5f" x="0" y="506.684625" style="fill: #b2df8a"/>
    </g>
   </g>
   <g id="PolyCollection_2">
    <defs>
     <path id="mb9b4322495" d="M 49.807188 -227.045094 
L 49.807188 -134.381094 
L 94.092902 -134.381094 
L 94.092902 -134.381094 
L 138.378616 -134.381094 
L 138.378616 -134.381094 
L 182.66433 -134.381094 
L 182.66433 -232.589094 
L 182.66433 -232.589094 
L 138.378616 -232.589094 
L 138.378616 -283.277094 
L 94.092902 -283.277094 
L 94.092902 -227.045094 
L 49.807188 -227.045094 
z
"/>
    </defs>
    <g clip-path="url(#pc07eb28ff0)">
     <use xlink:href="#mb9b4322495" x="0" y="506.684625" style="fill: #b2df8a"/>
    </g>
   </g>
   <g id="PolyCollection_3">
    <defs>
     <path id="m79f9eb1388" d="M 195.950045 -437.717094 
L 195.950045 -334.757094 
L 240.235759 -334.757094 
L 240.235759 -294.365094 
L 284.521473 -294.365094 
L 284.521473 -287.237094 
L 328.807187 -287.237094 
L 328.807187 -425.837094 
L 328.807187 -425.837094 
L 284.521473 -425.837094 
L 284.521473 -384.653094 
L 240.235759 -384.653094 
L 240.235759 -437.717094 
L 195.950045 -437.717094 
z
"/>
    </defs>
    <g clip-path="url(#pc07eb28ff0)">
     <use xlink:href="#m79f9eb1388" x="0" y="506.684625" style="fill: #1f78b4"/>
    </g>
   </g>
   <g id="PolyCollection_4">
    <defs>
     <path id="m1b604b6f48" d="M 49.807188 -373.565094 
L 49.807188 -227.045094 
L 94.092902 -227.045094 
L 94.092902 -283.277094 
L 138.378616 -283.277094 
L 138.378616 -232.589094 
L 182.66433 -232.589094 
L 182.66433 -402.077094 
L 182.66433 -402.077094 
L 138.378616 -402.077094 
L 138.378616 -375.941094 
L 94.092902 -375.941094 
L 94.092902 -373.565094 
L 49.807188 -373.565094 
z
"/>
    </defs>
    <g clip-path="url(#pc07eb28ff0)">
     <use xlink:href="#m1b604b6f48" x="0" y="506.684625" style="fill: #1f78b4"/>
    </g>
   </g>
   <g id="PolyCollection_5">
    <defs>
     <path id="m0f5e6f6ba5" d="M 195.950045 -448.805094 
L 195.950045 -437.717094 
L 240.235759 -437.717094 
L 240.235759 -384.653094 
L 284.521473 -384.653094 
L 284.521473 -425.837094 
L 328.807187 -425.837094 
L 328.807187 -442.469094 
L 328.807187 -442.469094 
L 284.521473 -442.469094 
L 284.521473 -431.381094 
L 240.235759 -431.381094 
L 240.235759 -448.805094 
L 195.950045 -448.805094 
z
"/>
    </defs>
    <g clip-path="url(#pc07eb28ff0)">
     <use xlink:href="#m0f5e6f6ba5" x="0" y="506.684625" style="fill: #fb9a99"/>
    </g>
   </g>
   <g id="PolyCollection_6">
    <defs>
     <path id="md424ba998a" d="M 49.807188 -381.485094 
L 49.807188 -373.565094 
L 94.092902 -373.565094 
L 94.092902 -375.941094 
L 138.378616 -375.941094 
L 138.378616 -402.077094 
L 182.66433 -402.077094 
L 182.66433 -430.589094 
L 182.66433 -430.589094 
L 138.378616 -430.589094 
L 138.378616 -393.365094 
L 94.092902 -393.365094 
L 94.092902 -381.485094 
L 49.807188 -381.485094 
z
"/>
    </defs>
    <g clip-path="url(#pc07eb28ff0)">
     <use xlink:href="#md424ba998a" x="0" y="506.684625" style="fill: #fb9a99"/>
    </g>
   </g>
   <g id="PolyCollection_7">
    <defs>
     <path id="m6af41ef1b7" d="M 195.950045 -451.181094 
L 195.950045 -448.805094 
L 240.235759 -448.805094 
L 240.235759 -431.381094 
L 284.521473 -431.381094 
L 284.521473 -442.469094 
L 328.807187 -442.469094 
L 328.807187 -444.053094 
L 328.807187 -444.053094 
L 284.521473 -444.053094 
L 284.521473 -444.053094 
L 240.235759 -444.053094 
L 240.235759 -451.181094 
L 195.950045 -451.181094 
z
"/>
    </defs>
    <g clip-path="url(#pc07eb28ff0)">
     <use xlink:href="#m6af41ef1b7" x="0" y="506.684625" style="fill: #e31a1c"/>
    </g>
   </g>
   <g id="PolyCollection_8">
    <defs>
     <path id="m8edb870231" d="M 49.807188 -412.373094 
L 49.807188 -381.485094 
L 94.092902 -381.485094 
L 94.092902 -393.365094 
L 138.378616 -393.365094 
L 138.378616 -430.589094 
L 182.66433 -430.589094 
L 182.66433 -436.925094 
L 182.66433 -436.925094 
L 138.378616 -436.925094 
L 138.378616 -404.453094 
L 94.092902 -404.453094 
L 94.092902 -412.373094 
L 49.807188 -412.373094 
z
"/>
    </defs>
    <g clip-path="url(#pc07eb28ff0)">
     <use xlink:href="#m8edb870231" x="0" y="506.684625" style="fill: #e31a1c"/>
    </g>
   </g>
   <g id="PolyCollection_9">
    <defs>
     <path id="m50fbd5d987" d="M 195.950045 -451.181094 
L 195.950045 -451.181094 
L 240.235759 -451.181094 
L 240.235759 -444.053094 
L 284.521473 -444.053094 
L 284.521473 -444.053094 
L 328.807187 -444.053094 
L 328.807187 -444.053094 
L 328.807187 -444.053094 
L 284.521473 -444.053094 
L 284.521473 -446.429094 
L 240.235759 -446.429094 
L 240.235759 -451.181094 
L 195.950045 -451.181094 
z
"/>
    </defs>
    <g clip-path="url(#pc07eb28ff0)">
     <use xlink:href="#m50fbd5d987" x="0" y="506.684625" style="fill: #b15928"/>
    </g>
   </g>
   <g id="PolyCollection_10">
    <defs>
     <path id="m5032211a7e" d="M 49.807188 -432.173094 
L 49.807188 -412.373094 
L 94.092902 -412.373094 
L 94.092902 -404.453094 
L 138.378616 -404.453094 
L 138.378616 -436.925094 
L 182.66433 -436.925094 
L 182.66433 -443.261094 
L 182.66433 -443.261094 
L 138.378616 -443.261094 
L 138.378616 -425.837094 
L 94.092902 -425.837094 
L 94.092902 -432.173094 
L 49.807188 -432.173094 
z
"/>
    </defs>
    <g clip-path="url(#pc07eb28ff0)">
     <use xlink:href="#m5032211a7e" x="0" y="506.684625" style="fill: #b15928"/>
    </g>
   </g>
   <g id="PolyCollection_11">
    <defs>
     <path id="m717ba9a1a8" d="M 195.950045 -456.725094 
L 195.950045 -451.181094 
L 240.235759 -451.181094 
L 240.235759 -446.429094 
L 284.521473 -446.429094 
L 284.521473 -444.053094 
L 328.807187 -444.053094 
L 328.807187 -448.805094 
L 328.807187 -448.805094 
L 284.521473 -448.805094 
L 284.521473 -449.597094 
L 240.235759 -449.597094 
L 240.235759 -456.725094 
L 195.950045 -456.725094 
z
"/>
    </defs>
    <g clip-path="url(#pc07eb28ff0)">
     <use xlink:href="#m717ba9a1a8" x="0" y="506.684625" style="fill: #fdbf6f"/>
    </g>
   </g>
   <g id="PolyCollection_12">
    <defs>
     <path id="m4897c2769f" d="M 49.807188 -444.845094 
L 49.807188 -432.173094 
L 94.092902 -432.173094 
L 94.092902 -425.837094 
L 138.378616 -425.837094 
L 138.378616 -443.261094 
L 182.66433 -443.261094 
L 182.66433 -455.933094 
L 182.66433 -455.933094 
L 138.378616 -455.933094 
L 138.378616 -432.173094 
L 94.092902 -432.173094 
L 94.092902 -444.845094 
L 49.807188 -444.845094 
z
"/>
    </defs>
    <g clip-path="url(#pc07eb28ff0)">
     <use xlink:href="#m4897c2769f" x="0" y="506.684625" style="fill: #fdbf6f"/>
    </g>
   </g>
   <g id="PolyCollection_13">
    <defs>
     <path id="m6f38c717d4" d="M 195.950045 -457.517094 
L 195.950045 -456.725094 
L 240.235759 -456.725094 
L 240.235759 -449.597094 
L 284.521473 -449.597094 
L 284.521473 -448.805094 
L 328.807187 -448.805094 
L 328.807187 -454.349094 
L 328.807187 -454.349094 
L 284.521473 -454.349094 
L 284.521473 -457.517094 
L 240.235759 -457.517094 
L 240.235759 -457.517094 
L 195.950045 -457.517094 
z
"/>
    </defs>
    <g clip-path="url(#pc07eb28ff0)">
     <use xlink:href="#m6f38c717d4" x="0" y="506.684625" style="fill: #6a3d9a"/>
    </g>
   </g>
   <g id="PolyCollection_14">
    <defs>
     <path id="m61ece8708d" d="M 49.807188 -448.805094 
L 49.807188 -444.845094 
L 94.092902 -444.845094 
L 94.092902 -432.173094 
L 138.378616 -432.173094 
L 138.378616 -455.933094 
L 182.66433 -455.933094 
L 182.66433 -455.933094 
L 182.66433 -455.933094 
L 138.378616 -455.933094 
L 138.378616 -434.549094 
L 94.092902 -434.549094 
L 94.092902 -448.805094 
L 49.807188 -448.805094 
z
"/>
    </defs>
    <g clip-path="url(#pc07eb28ff0)">
     <use xlink:href="#m61ece8708d" x="0" y="506.684625" style="fill: #6a3d9a"/>
    </g>
   </g>
   <g id="PolyCollection_15">
    <defs>
     <path id="mc7f6d0f285" d="M 195.950045 -460.685094 
L 195.950045 -457.517094 
L 240.235759 -457.517094 
L 240.235759 -457.517094 
L 284.521473 -457.517094 
L 284.521473 -454.349094 
L 328.807187 -454.349094 
L 328.807187 -459.893094 
L 328.807187 -459.893094 
L 284.521473 -459.893094 
L 284.521473 -457.517094 
L 240.235759 -457.517094 
L 240.235759 -460.685094 
L 195.950045 -460.685094 
z
"/>
    </defs>
    <g clip-path="url(#pc07eb28ff0)">
     <use xlink:href="#mc7f6d0f285" x="0" y="506.684625" style="fill: #b2df8a"/>
    </g>
   </g>
   <g id="PolyCollection_16">
    <defs>
     <path id="m3e7be5a306" d="M 49.807188 -451.181094 
L 49.807188 -448.805094 
L 94.092902 -448.805094 
L 94.092902 -434.549094 
L 138.378616 -434.549094 
L 138.378616 -455.933094 
L 182.66433 -455.933094 
L 182.66433 -457.517094 
L 182.66433 -457.517094 
L 138.378616 -457.517094 
L 138.378616 -438.509094 
L 94.092902 -438.509094 
L 94.092902 -451.181094 
L 49.807188 -451.181094 
z
"/>
    </defs>
    <g clip-path="url(#pc07eb28ff0)">
     <use xlink:href="#m3e7be5a306" x="0" y="506.684625" style="fill: #b2df8a"/>
    </g>
   </g>
   <g id="PolyCollection_17">
    <defs>
     <path id="md94b85b8eb" d="M 195.950045 -460.685094 
L 195.950045 -460.685094 
L 240.235759 -460.685094 
L 240.235759 -457.517094 
L 284.521473 -457.517094 
L 284.521473 -459.893094 
L 328.807187 -459.893094 
L 328.807187 -461.477094 
L 328.807187 -461.477094 
L 284.521473 -461.477094 
L 284.521473 -460.685094 
L 240.235759 -460.685094 
L 240.235759 -460.685094 
L 195.950045 -460.685094 
z
"/>
    </defs>
    <g clip-path="url(#pc07eb28ff0)">
     <use xlink:href="#md94b85b8eb" x="0" y="506.684625" style="fill: #cab2d6"/>
    </g>
   </g>
   <g id="PolyCollection_18">
    <defs>
     <path id="m6695b99e12" d="M 49.807188 -454.349094 
L 49.807188 -451.181094 
L 94.092902 -451.181094 
L 94.092902 -438.509094 
L 138.378616 -438.509094 
L 138.378616 -457.517094 
L 182.66433 -457.517094 
L 182.66433 -457.517094 
L 182.66433 -457.517094 
L 138.378616 -457.517094 
L 138.378616 -444.053094 
L 94.092902 -444.053094 
L 94.092902 -454.349094 
L 49.807188 -454.349094 
z
"/>
    </defs>
    <g clip-path="url(#pc07eb28ff0)">
     <use xlink:href="#m6695b99e12" x="0" y="506.684625" style="fill: #cab2d6"/>
    </g>
   </g>
   <g id="PolyCollection_19">
    <defs>
     <path id="m51cd2ac86a" d="M 195.950045 -462.269094 
L 195.950045 -460.685094 
L 240.235759 -460.685094 
L 240.235759 -460.685094 
L 284.521473 -460.685094 
L 284.521473 -461.477094 
L 328.807187 -461.477094 
L 328.807187 -463.061094 
L 328.807187 -463.061094 
L 284.521473 -463.061094 
L 284.521473 -460.685094 
L 240.235759 -460.685094 
L 240.235759 -462.269094 
L 195.950045 -462.269094 
z
"/>
    </defs>
    <g clip-path="url(#pc07eb28ff0)">
     <use xlink:href="#m51cd2ac86a" x="0" y="506.684625" style="fill: #33a02c"/>
    </g>
   </g>
   <g id="PolyCollection_20">
    <defs>
     <path id="m0d4fb74d8e" d="M 49.807188 -455.141094 
L 49.807188 -454.349094 
L 94.092902 -454.349094 
L 94.092902 -444.053094 
L 138.378616 -444.053094 
L 138.378616 -457.517094 
L 182.66433 -457.517094 
L 182.66433 -462.269094 
L 182.66433 -462.269094 
L 138.378616 -462.269094 
L 138.378616 -448.013094 
L 94.092902 -448.013094 
L 94.092902 -455.141094 
L 49.807188 -455.141094 
z
"/>
    </defs>
    <g clip-path="url(#pc07eb28ff0)">
     <use xlink:href="#m0d4fb74d8e" x="0" y="506.684625" style="fill: #33a02c"/>
    </g>
   </g>
   <g id="PolyCollection_21">
    <defs>
     <path id="m824bc16292" d="M 195.950045 -463.061094 
L 195.950045 -462.269094 
L 240.235759 -462.269094 
L 240.235759 -460.685094 
L 284.521473 -460.685094 
L 284.521473 -463.061094 
L 328.807187 -463.061094 
L 328.807187 -463.061094 
L 328.807187 -463.061094 
L 284.521473 -463.061094 
L 284.521473 -464.645094 
L 240.235759 -464.645094 
L 240.235759 -463.061094 
L 195.950045 -463.061094 
z
"/>
    </defs>
    <g clip-path="url(#pc07eb28ff0)">
     <use xlink:href="#m824bc16292" x="0" y="506.684625" style="fill: #ffff99"/>
    </g>
   </g>
   <g id="PolyCollection_22">
    <defs>
     <path id="m9f11f9f85a" d="M 49.807188 -456.725094 
L 49.807188 -455.141094 
L 94.092902 -455.141094 
L 94.092902 -448.013094 
L 138.378616 -448.013094 
L 138.378616 -462.269094 
L 182.66433 -462.269094 
L 182.66433 -462.269094 
L 182.66433 -462.269094 
L 138.378616 -462.269094 
L 138.378616 -452.765094 
L 94.092902 -452.765094 
L 94.092902 -456.725094 
L 49.807188 -456.725094 
z
"/>
    </defs>
    <g clip-path="url(#pc07eb28ff0)">
     <use xlink:href="#m9f11f9f85a" x="0" y="506.684625" style="fill: #ffff99"/>
    </g>
   </g>
   <g id="PolyCollection_23">
    <defs>
     <path id="ma58ee3094b" d="M 195.950045 -463.061094 
L 195.950045 -463.061094 
L 240.235759 -463.061094 
L 240.235759 -464.645094 
L 284.521473 -464.645094 
L 284.521473 -463.061094 
L 328.807187 -463.061094 
L 328.807187 -465.437094 
L 328.807187 -465.437094 
L 284.521473 -465.437094 
L 284.521473 -464.645094 
L 240.235759 -464.645094 
L 240.235759 -463.061094 
L 195.950045 -463.061094 
z
"/>
    </defs>
    <g clip-path="url(#pc07eb28ff0)">
     <use xlink:href="#ma58ee3094b" x="0" y="506.684625" style="fill: #666666"/>
    </g>
   </g>
   <g id="PolyCollection_24">
    <defs>
     <path id="macdd5a54cb" d="M 49.807188 -456.725094 
L 49.807188 -456.725094 
L 94.092902 -456.725094 
L 94.092902 -452.765094 
L 138.378616 -452.765094 
L 138.378616 -462.269094 
L 182.66433 -462.269094 
L 182.66433 -463.061094 
L 182.66433 -463.061094 
L 138.378616 -463.061094 
L 138.378616 -458.309094 
L 94.092902 -458.309094 
L 94.092902 -456.725094 
L 49.807188 -456.725094 
z
"/>
    </defs>
    <g clip-path="url(#pc07eb28ff0)">
     <use xlink:href="#macdd5a54cb" x="0" y="506.684625" style="fill: #666666"/>
    </g>
   </g>
   <g id="PolyCollection_25">
    <defs>
     <path id="m67c7ea12d0" d="M 195.950045 -467.021094 
L 195.950045 -463.061094 
L 240.235759 -463.061094 
L 240.235759 -464.645094 
L 284.521473 -464.645094 
L 284.521473 -465.437094 
L 328.807187 -465.437094 
L 328.807187 -467.021094 
L 328.807187 -467.021094 
L 284.521473 -467.021094 
L 284.521473 -467.021094 
L 240.235759 -467.021094 
L 240.235759 -467.021094 
L 195.950045 -467.021094 
z
"/>
    </defs>
    <g clip-path="url(#pc07eb28ff0)">
     <use xlink:href="#m67c7ea12d0" x="0" y="506.684625" style="fill: #ffffff"/>
    </g>
   </g>
   <g id="PolyCollection_26">
    <defs>
     <path id="mbfc9f76eaf" d="M 49.807188 -467.021094 
L 49.807188 -456.725094 
L 94.092902 -456.725094 
L 94.092902 -458.309094 
L 138.378616 -458.309094 
L 138.378616 -463.061094 
L 182.66433 -463.061094 
L 182.66433 -467.021094 
L 182.66433 -467.021094 
L 138.378616 -467.021094 
L 138.378616 -467.021094 
L 94.092902 -467.021094 
L 94.092902 -467.021094 
L 49.807188 -467.021094 
z
"/>
    </defs>
    <g clip-path="url(#pc07eb28ff0)">
     <use xlink:href="#mbfc9f76eaf" x="0" y="506.684625" style="fill: #ffffff"/>
    </g>
   </g>
   <g id="patch_3">
    <path d="M 195.950045 372.303531 
L 328.807187 372.303531 
L 328.807187 39.663531 
L 195.950045 39.663531 
L 195.950045 372.303531 
z
" clip-path="url(#pc07eb28ff0)" style="fill: none; stroke: #808080; stroke-linejoin: miter"/>
   </g>
   <g id="patch_4">
    <path d="M 49.807188 372.303531 
L 182.66433 372.303531 
L 182.66433 39.663531 
L 49.807188 39.663531 
L 49.807188 372.303531 
z
" clip-path="url(#pc07eb28ff0)" style="fill: none; stroke: #808080; stroke-linejoin: miter"/>
   </g>
   <g id="patch_5">
    <path d="M 49.807188 372.303531 
L 49.807188 39.663531 
" style="fill: none; stroke: #ffffff; stroke-width: 1.25; stroke-linejoin: miter; stroke-linecap: square"/>
   </g>
   <g id="patch_6">
    <path d="M 328.807187 372.303531 
L 328.807187 39.663531 
" style="fill: none; stroke: #ffffff; stroke-width: 1.25; stroke-linejoin: miter; stroke-linecap: square"/>
   </g>
   <g id="patch_7">
    <path d="M 49.807188 372.303531 
L 328.807187 372.303531 
" style="fill: none; stroke: #ffffff; stroke-width: 1.25; stroke-linejoin: miter; stroke-linecap: square"/>
   </g>
   <g id="patch_8">
    <path d="M 49.807188 39.663531 
L 328.807187 39.663531 
" style="fill: none; stroke: #ffffff; stroke-width: 1.25; stroke-linejoin: miter; stroke-linecap: square"/>
   </g>
   <g id="legend_1">
    <g id="patch_9">
     <path d="M 339.297188 262.607469 
L 565.199375 262.607469 
Q 567.399375 262.607469 567.399375 260.407469 
L 567.399375 30.731531 
Q 567.399375 28.531531 565.199375 28.531531 
L 339.297188 28.531531 
Q 337.097188 28.531531 337.097188 30.731531 
L 337.097188 260.407469 
Q 337.097188 262.607469 339.297188 262.607469 
z
" style="fill: #eaeaf2; opacity: 0.8; stroke: #cccccc; stroke-linejoin: miter"/>
    </g>
    <g id="text_14">
     <text style="fill: #262626; font: 700 12px 'sans-serif'; text-anchor: start" x="408.757656" y="42.049656" transform="rotate(-0, 408.757656, 42.049656)">Rank: Family</text>
    </g>
    <g id="patch_10">
     <path d="M 341.497187 58.497313 
L 363.497187 58.497313 
L 363.497187 50.797313 
L 341.497187 50.797313 
z
" style="fill: #b2df8a; stroke: #b2df8a; stroke-linejoin: miter"/>
    </g>
    <g id="text_15">
     <text style="fill: #262626; font: 11px 'sans-serif'; text-anchor: start" x="372.297188" y="58.497313" transform="rotate(-0, 372.297188, 58.497313)">42.74 %: f__Lachnospiraceae</text>
    </g>
    <g id="patch_11">
     <path d="M 341.497187 74.949188 
L 363.497187 74.949188 
L 363.497187 67.249188 
L 341.497187 67.249188 
z
" style="fill: #1f78b4; stroke: #1f78b4; stroke-linejoin: miter"/>
    </g>
    <g id="text_16">
     <text style="fill: #262626; font: 11px 'sans-serif'; text-anchor: start" x="372.297188" y="74.949188" transform="rotate(-0, 372.297188, 74.949188)">37.10 %: f__Muribaculaceae</text>
    </g>
    <g id="patch_12">
     <path d="M 341.497187 91.401063 
L 363.497187 91.401063 
L 363.497187 83.701063 
L 341.497187 83.701063 
z
" style="fill: #fb9a99; stroke: #fb9a99; stroke-linejoin: miter"/>
    </g>
    <g id="text_17">
     <text style="fill: #262626; font: 11px 'sans-serif'; text-anchor: start" x="372.297188" y="91.401063" transform="rotate(-0, 372.297188, 91.401063)">6.43 %: f__Bacteroidaceae</text>
    </g>
    <g id="patch_13">
     <path d="M 341.497187 107.852937 
L 363.497187 107.852937 
L 363.497187 100.152937 
L 341.497187 100.152937 
z
" style="fill: #e31a1c; stroke: #e31a1c; stroke-linejoin: miter"/>
    </g>
    <g id="text_18">
     <text style="fill: #262626; font: 11px 'sans-serif'; text-anchor: start" x="372.297188" y="107.852937" transform="rotate(-0, 372.297188, 107.852937)">3.25 %: f__Lactobacillaceae</text>
    </g>
    <g id="patch_14">
     <path d="M 341.497187 124.304813 
L 363.497187 124.304813 
L 363.497187 116.604813 
L 341.497187 116.604813 
z
" style="fill: #b15928; stroke: #b15928; stroke-linejoin: miter"/>
    </g>
    <g id="text_19">
     <text style="fill: #262626; font: 11px 'sans-serif'; text-anchor: start" x="372.297188" y="124.304813" transform="rotate(-0, 372.297188, 124.304813)">2.50 %: f__CAG-508</text>
    </g>
    <g id="patch_15">
     <path d="M 341.497187 140.756688 
L 363.497187 140.756688 
L 363.497187 133.056688 
L 341.497187 133.056688 
z
" style="fill: #fdbf6f; stroke: #fdbf6f; stroke-linejoin: miter"/>
    </g>
    <g id="text_20">
     <text style="fill: #262626; font: 11px 'sans-serif'; text-anchor: start" x="372.297188" y="140.756688" transform="rotate(-0, 372.297188, 140.756688)">2.26 %: f__Oscillospiraceae_88309</text>
    </g>
    <g id="patch_16">
     <path d="M 341.497187 157.208563 
L 363.497187 157.208563 
L 363.497187 149.508563 
L 341.497187 149.508563 
z
" style="fill: #6a3d9a; stroke: #6a3d9a; stroke-linejoin: miter"/>
    </g>
    <g id="text_21">
     <text style="fill: #262626; font: 11px 'sans-serif'; text-anchor: start" x="372.297188" y="157.208563" transform="rotate(-0, 372.297188, 157.208563)">1.03 %: f__Rikenellaceae</text>
    </g>
    <g id="patch_17">
     <path d="M 341.497187 173.660438 
L 363.497187 173.660438 
L 363.497187 165.960438 
L 341.497187 165.960438 
z
" style="fill: #b2df8a; stroke: #b2df8a; stroke-linejoin: miter"/>
    </g>
    <g id="text_22">
     <text style="fill: #262626; font: 11px 'sans-serif'; text-anchor: start" x="372.297188" y="173.660438" transform="rotate(-0, 372.297188, 173.660438)">0.83 %: f__Pseudomonadaceae</text>
    </g>
    <g id="patch_18">
     <path d="M 341.497187 190.112313 
L 363.497187 190.112313 
L 363.497187 182.412313 
L 341.497187 182.412313 
z
" style="fill: #cab2d6; stroke: #cab2d6; stroke-linejoin: miter"/>
    </g>
    <g id="text_23">
     <text style="fill: #262626; font: 11px 'sans-serif'; text-anchor: start" x="372.297188" y="190.112313" transform="rotate(-0, 372.297188, 190.112313)">0.67 %: f__</text>
    </g>
    <g id="patch_19">
     <path d="M 341.497187 206.564188 
L 363.497187 206.564188 
L 363.497187 198.864188 
L 341.497187 198.864188 
z
" style="fill: #33a02c; stroke: #33a02c; stroke-linejoin: miter"/>
    </g>
    <g id="text_24">
     <text style="fill: #262626; font: 11px 'sans-serif'; text-anchor: start" x="372.297188" y="206.564188" transform="rotate(-0, 372.297188, 206.564188)">0.63 %: f__Parvibaculaceae</text>
    </g>
    <g id="patch_20">
     <path d="M 341.497187 223.016063 
L 363.497187 223.016063 
L 363.497187 215.316063 
L 341.497187 215.316063 
z
" style="fill: #ffff99; stroke: #ffff99; stroke-linejoin: miter"/>
    </g>
    <g id="text_25">
     <text style="fill: #262626; font: 11px 'sans-serif'; text-anchor: start" x="372.297188" y="223.016063" transform="rotate(-0, 372.297188, 223.016063)">0.56 %: f__Ruminococcaceae</text>
    </g>
    <g id="patch_21">
     <path d="M 341.497187 239.467938 
L 363.497187 239.467938 
L 363.497187 231.767938 
L 341.497187 231.767938 
z
" style="fill: #666666; stroke: #666666; stroke-linejoin: miter"/>
    </g>
    <g id="text_26">
     <text style="fill: #262626; font: 11px 'sans-serif'; text-anchor: start" x="372.297188" y="239.467938" transform="rotate(-0, 372.297188, 239.467938)">0.44 %: f__Dehalobacteriaceae</text>
    </g>
    <g id="patch_22">
     <path d="M 341.497187 255.919813 
L 363.497187 255.919813 
L 363.497187 248.219813 
L 341.497187 248.219813 
z
" style="fill: #ffffff; stroke: #ffffff; stroke-linejoin: miter"/>
    </g>
    <g id="text_27">
     <text style="fill: #262626; font: 11px 'sans-serif'; text-anchor: start" x="372.297188" y="255.919813" transform="rotate(-0, 372.297188, 255.919813)">1.55 %: low abundance</text>
    </g>
   </g>
  </g>
  <g id="axes_2">
   <g id="matplotlib.axis_3">
    <g id="xtick_7">
     <g id="line2d_19">
      <defs>
       <path id="m9e141ff804" d="M 0 0 
L 0 -6 
" style="stroke: #262626; stroke-width: 1.25"/>
      </defs>
      <g>
       <use xlink:href="#m9e141ff804" x="262.378616" y="39.663531" style="fill: #262626; stroke: #262626; stroke-width: 1.25"/>
      </g>
     </g>
     <g id="text_28">
      <text style="fill: #262626; font: 11px 'sans-serif'" transform="translate(247.031897 15.558281)">TCDD</text>
      <text style="fill: #262626; font: 11px 'sans-serif'" transform="translate(246.493069 27.875875)">(n=3)</text>
     </g>
    </g>
    <g id="xtick_8">
     <g id="line2d_20">
      <g>
       <use xlink:href="#m9e141ff804" x="116.235759" y="39.663531" style="fill: #262626; stroke: #262626; stroke-width: 1.25"/>
      </g>
     </g>
     <g id="text_29">
      <text style="fill: #262626; font: 11px 'sans-serif'" transform="translate(97.173962 15.558281)">control</text>
      <text style="fill: #262626; font: 11px 'sans-serif'" transform="translate(100.350212 27.875875)">(n=3)</text>
     </g>
    </g>
   </g>
   <g id="patch_23">
    <path d="M 49.807188 372.303531 
L 49.807188 39.663531 
" style="fill: none; stroke: #ffffff; stroke-width: 1.25; stroke-linejoin: miter; stroke-linecap: square"/>
   </g>
   <g id="patch_24">
    <path d="M 328.807187 372.303531 
L 328.807187 39.663531 
" style="fill: none; stroke: #ffffff; stroke-width: 1.25; stroke-linejoin: miter; stroke-linecap: square"/>
   </g>
   <g id="patch_25">
    <path d="M 49.807188 372.303531 
L 328.807187 372.303531 
" style="fill: none; stroke: #ffffff; stroke-width: 1.25; stroke-linejoin: miter; stroke-linecap: square"/>
   </g>
   <g id="patch_26">
    <path d="M 49.807188 39.663531 
L 328.807187 39.663531 
" style="fill: none; stroke: #ffffff; stroke-width: 1.25; stroke-linejoin: miter; stroke-linecap: square"/>
   </g>
  </g>
 </g>
 <defs>
  <clipPath id="pc07eb28ff0">
   <rect x="49.807188" y="39.663531" width="279" height="332.64"/>
  </clipPath>
 </defs>
</svg>
