<?xml version="1.0" encoding="utf-8" standalone="no"?>
<!DOCTYPE svg PUBLIC "-//W3C//DTD SVG 1.1//EN"
  "http://www.w3.org/Graphics/SVG/1.1/DTD/svg11.dtd">
<svg xmlns:xlink="http://www.w3.org/1999/xlink" width="730.11pt" height="382.304062pt" viewBox="0 0 730.11 382.304062" xmlns="http://www.w3.org/2000/svg" version="1.1">
 <metadata>
  <rdf:RDF xmlns:dc="http://purl.org/dc/elements/1.1/" xmlns:cc="http://creativecommons.org/ns#" xmlns:rdf="http://www.w3.org/1999/02/22-rdf-syntax-ns#">
   <cc:Work>
    <dc:type rdf:resource="http://purl.org/dc/dcmitype/StillImage"/>
    <dc:date>2025-02-28T16:42:36.741449</dc:date>
    <dc:format>image/svg+xml</dc:format>
    <dc:creator>
     <cc:Agent>
      <dc:title>Matplotlib v3.5.3, https://matplotlib.org/</dc:title>
     </cc:Agent>
    </dc:creator>
   </cc:Work>
  </rdf:RDF>
 </metadata>
 <defs>
  <style type="text/css">*{stroke-linejoin: round; stroke-linecap: butt}</style>
 </defs>
 <g id="figure_1">
  <g id="patch_1">
   <path d="M 0 382.304062 
L 730.11 382.304062 
L 730.11 0 
L 0 0 
z
" style="fill: #ffffff"/>
  </g>
  <g id="axes_1">
   <g id="patch_2">
    <path d="M 53.31 354.958125 
L 163.080492 354.958125 
L 163.080492 22.318125 
L 53.31 22.318125 
z
" style="fill: #ffffff"/>
   </g>
   <g id="matplotlib.axis_1">
    <g id="xtick_1">
     <g id="line2d_1">
      <defs>
       <path id="m0b46190319" d="M 0 0 
L 0 6 
" style="stroke: #262626; stroke-width: 1.25"/>
      </defs>
      <g>
       <use xlink:href="#m0b46190319" x="80.475425" y="354.958125" style="fill: #262626; stroke: #262626; stroke-width: 1.25"/>
      </g>
     </g>
     <g id="text_1">
      <text style="fill: #262626; font: 11px 'sans-serif'; text-anchor: middle" x="80.475425" y="372.816406" transform="rotate(-0, 80.475425, 372.816406)">control</text>
     </g>
    </g>
    <g id="xtick_2">
     <g id="line2d_2">
      <g>
       <use xlink:href="#m0b46190319" x="135.915067" y="354.958125" style="fill: #262626; stroke: #262626; stroke-width: 1.25"/>
      </g>
     </g>
     <g id="text_2">
      <text style="fill: #262626; font: 11px 'sans-serif'; text-anchor: middle" x="135.915067" y="372.816406" transform="rotate(-0, 135.915067, 372.816406)">TCDD</text>
     </g>
    </g>
   </g>
   <g id="matplotlib.axis_2">
    <g id="ytick_1">
     <g id="line2d_3">
      <defs>
       <path id="m7bca6286ff" d="M 0 0 
L -6 0 
" style="stroke: #262626; stroke-width: 1.25"/>
      </defs>
      <g>
       <use xlink:href="#m7bca6286ff" x="53.31" y="335.376712" style="fill: #262626; stroke: #262626; stroke-width: 1.25"/>
      </g>
     </g>
     <g id="text_3">
      <text style="fill: #262626; font: 11px 'sans-serif'; text-anchor: end" x="43.81" y="339.555853" transform="rotate(-0, 43.81, 339.555853)">120</text>
     </g>
    </g>
    <g id="ytick_2">
     <g id="line2d_4">
      <g>
       <use xlink:href="#m7bca6286ff" x="53.31" y="295.414645" style="fill: #262626; stroke: #262626; stroke-width: 1.25"/>
      </g>
     </g>
     <g id="text_4">
      <text style="fill: #262626; font: 11px 'sans-serif'; text-anchor: end" x="43.81" y="299.593785" transform="rotate(-0, 43.81, 299.593785)">140</text>
     </g>
    </g>
    <g id="ytick_3">
     <g id="line2d_5">
      <g>
       <use xlink:href="#m7bca6286ff" x="53.31" y="255.452577" style="fill: #262626; stroke: #262626; stroke-width: 1.25"/>
      </g>
     </g>
     <g id="text_5">
      <text style="fill: #262626; font: 11px 'sans-serif'; text-anchor: end" x="43.81" y="259.631718" transform="rotate(-0, 43.81, 259.631718)">160</text>
     </g>
    </g>
    <g id="ytick_4">
     <g id="line2d_6">
      <g>
       <use xlink:href="#m7bca6286ff" x="53.31" y="215.49051" style="fill: #262626; stroke: #262626; stroke-width: 1.25"/>
      </g>
     </g>
     <g id="text_6">
      <text style="fill: #262626; font: 11px 'sans-serif'; text-anchor: end" x="43.81" y="219.66965" transform="rotate(-0, 43.81, 219.66965)">180</text>
     </g>
    </g>
    <g id="ytick_5">
     <g id="line2d_7">
      <g>
       <use xlink:href="#m7bca6286ff" x="53.31" y="175.528442" style="fill: #262626; stroke: #262626; stroke-width: 1.25"/>
      </g>
     </g>
     <g id="text_7">
      <text style="fill: #262626; font: 11px 'sans-serif'; text-anchor: end" x="43.81" y="179.707583" transform="rotate(-0, 43.81, 179.707583)">200</text>
     </g>
    </g>
    <g id="ytick_6">
     <g id="line2d_8">
      <g>
       <use xlink:href="#m7bca6286ff" x="53.31" y="135.566375" style="fill: #262626; stroke: #262626; stroke-width: 1.25"/>
      </g>
     </g>
     <g id="text_8">
      <text style="fill: #262626; font: 11px 'sans-serif'; text-anchor: end" x="43.81" y="139.745516" transform="rotate(-0, 43.81, 139.745516)">220</text>
     </g>
    </g>
    <g id="ytick_7">
     <g id="line2d_9">
      <g>
       <use xlink:href="#m7bca6286ff" x="53.31" y="95.604308" style="fill: #262626; stroke: #262626; stroke-width: 1.25"/>
      </g>
     </g>
     <g id="text_9">
      <text style="fill: #262626; font: 11px 'sans-serif'; text-anchor: end" x="43.81" y="99.783448" transform="rotate(-0, 43.81, 99.783448)">240</text>
     </g>
    </g>
    <g id="ytick_8">
     <g id="line2d_10">
      <g>
       <use xlink:href="#m7bca6286ff" x="53.31" y="55.64224" style="fill: #262626; stroke: #262626; stroke-width: 1.25"/>
      </g>
     </g>
     <g id="text_10">
      <text style="fill: #262626; font: 11px 'sans-serif'; text-anchor: end" x="43.81" y="59.821381" transform="rotate(-0, 43.81, 59.821381)">260</text>
     </g>
    </g>
    <g id="text_11">
     <text style="fill: #262626; font: 12px 'sans-serif'; text-anchor: middle" x="16.318125" y="188.638125" transform="rotate(-90, 16.318125, 188.638125)">relative abundance</text>
    </g>
   </g>
   <g id="patch_3">
    <path d="M 58.299568 334.37766 
L 102.651282 334.37766 
L 102.651282 263.444991 
L 58.299568 263.444991 
L 58.299568 334.37766 
z
" clip-path="url(#p210857ee8c)" style="fill: #d3d3d3; stroke: #7f7f7f; stroke-width: 1.5; stroke-linejoin: miter"/>
   </g>
   <g id="patch_4">
    <path d="M 113.73921 180.523701 
L 158.090924 180.523701 
L 158.090924 120.5806 
L 113.73921 120.5806 
L 113.73921 180.523701 
z
" clip-path="url(#p210857ee8c)" style="fill: #d3d3d3; stroke: #7f7f7f; stroke-width: 1.5; stroke-linejoin: miter"/>
   </g>
   <g id="line2d_11">
    <path d="M 80.475425 334.37766 
L 80.475425 341.371022 
" clip-path="url(#p210857ee8c)" style="fill: none; stroke: #7f7f7f; stroke-width: 1.5; stroke-linecap: round"/>
   </g>
   <g id="line2d_12">
    <path d="M 80.475425 263.444991 
L 80.475425 199.505683 
" clip-path="url(#p210857ee8c)" style="fill: none; stroke: #7f7f7f; stroke-width: 1.5; stroke-linecap: round"/>
   </g>
   <g id="line2d_13">
    <path d="M 69.387496 341.371022 
L 91.563353 341.371022 
" clip-path="url(#p210857ee8c)" style="fill: none; stroke: #7f7f7f; stroke-width: 1.5; stroke-linecap: round"/>
   </g>
   <g id="line2d_14">
    <path d="M 69.387496 199.505683 
L 91.563353 199.505683 
" clip-path="url(#p210857ee8c)" style="fill: none; stroke: #7f7f7f; stroke-width: 1.5; stroke-linecap: round"/>
   </g>
   <g id="line2d_15"/>
   <g id="line2d_16">
    <path d="M 135.915067 180.523701 
L 135.915067 189.515166 
" clip-path="url(#p210857ee8c)" style="fill: none; stroke: #7f7f7f; stroke-width: 1.5; stroke-linecap: round"/>
   </g>
   <g id="line2d_17">
    <path d="M 135.915067 120.5806 
L 135.915067 69.628964 
" clip-path="url(#p210857ee8c)" style="fill: none; stroke: #7f7f7f; stroke-width: 1.5; stroke-linecap: round"/>
   </g>
   <g id="line2d_18">
    <path d="M 124.827139 189.515166 
L 147.002996 189.515166 
" clip-path="url(#p210857ee8c)" style="fill: none; stroke: #7f7f7f; stroke-width: 1.5; stroke-linecap: round"/>
   </g>
   <g id="line2d_19">
    <path d="M 124.827139 69.628964 
L 147.002996 69.628964 
" clip-path="url(#p210857ee8c)" style="fill: none; stroke: #7f7f7f; stroke-width: 1.5; stroke-linecap: round"/>
   </g>
   <g id="line2d_20"/>
   <g id="line2d_21">
    <path d="M 80.475425 51.693988 
L 80.475425 45.715663 
L 135.915067 45.715663 
L 135.915067 51.693988 
" clip-path="url(#p210857ee8c)" style="fill: none; stroke: #333333; stroke-width: 1.5; stroke-linecap: round"/>
   </g>
   <g id="line2d_22">
    <path d="M 58.299568 327.384298 
L 102.651282 327.384298 
" clip-path="url(#p210857ee8c)" style="fill: none; stroke: #7f7f7f; stroke-width: 1.5; stroke-linecap: round"/>
   </g>
   <g id="line2d_23">
    <path d="M 113.73921 171.532236 
L 158.090924 171.532236 
" clip-path="url(#p210857ee8c)" style="fill: none; stroke: #7f7f7f; stroke-width: 1.5; stroke-linecap: round"/>
   </g>
   <g id="patch_5">
    <path d="M 53.31 354.958125 
L 53.31 22.318125 
" style="fill: none; stroke: #262626; stroke-width: 1.25; stroke-linejoin: miter; stroke-linecap: square"/>
   </g>
   <g id="patch_6">
    <path d="M 163.080492 354.958125 
L 163.080492 22.318125 
" style="fill: none; stroke: #262626; stroke-width: 1.25; stroke-linejoin: miter; stroke-linecap: square"/>
   </g>
   <g id="patch_7">
    <path d="M 53.31 354.958125 
L 163.080492 354.958125 
" style="fill: none; stroke: #262626; stroke-width: 1.25; stroke-linejoin: miter; stroke-linecap: square"/>
   </g>
   <g id="patch_8">
    <path d="M 53.31 22.318125 
L 163.080492 22.318125 
" style="fill: none; stroke: #262626; stroke-width: 1.25; stroke-linejoin: miter; stroke-linecap: square"/>
   </g>
   <g id="PathCollection_1">
    <defs>
     <path id="C0_0_268cb89367" d="M 0 5 
C 1.326016 5 2.597899 4.473168 3.535534 3.535534 
C 4.473168 2.597899 5 1.326016 5 -0 
C 5 -1.326016 4.473168 -2.597899 3.535534 -3.535534 
C 2.597899 -4.473168 1.326016 -5 0 -5 
C -1.326016 -5 -2.597899 -4.473168 -3.535534 -3.535534 
C -4.473168 -2.597899 -5 -1.326016 -5 0 
C -5 1.326016 -4.473168 2.597899 -3.535534 3.535534 
C -2.597899 4.473168 -1.326016 5 0 5 
z
"/>
    </defs>
    <g clip-path="url(#p210857ee8c)">
     <use xlink:href="#C0_0_268cb89367" x="80.095122" y="341.371022" style="fill: #ff7f0e"/>
    </g>
    <g clip-path="url(#p210857ee8c)">
     <use xlink:href="#C0_0_268cb89367" x="76.912194" y="199.505683" style="fill: #ff7f0e"/>
    </g>
    <g clip-path="url(#p210857ee8c)">
     <use xlink:href="#C0_0_268cb89367" x="76.379113" y="327.384298" style="fill: #ff7f0e"/>
    </g>
   </g>
   <g id="PathCollection_2">
    <defs>
     <path id="C1_0_0026c824b6" d="M 0 5 
C 1.326016 5 2.597899 4.473168 3.535534 3.535534 
C 4.473168 2.597899 5 1.326016 5 -0 
C 5 -1.326016 4.473168 -2.597899 3.535534 -3.535534 
C 2.597899 -4.473168 1.326016 -5 0 -5 
C -1.326016 -5 -2.597899 -4.473168 -3.535534 -3.535534 
C -4.473168 -2.597899 -5 -1.326016 -5 0 
C -5 1.326016 -4.473168 2.597899 -3.535534 3.535534 
C -2.597899 4.473168 -1.326016 5 0 5 
z
"/>
    </defs>
    <g clip-path="url(#p210857ee8c)">
     <use xlink:href="#C1_0_0026c824b6" x="132.539306" y="69.628964" style="fill: #1f77b4"/>
    </g>
    <g clip-path="url(#p210857ee8c)">
     <use xlink:href="#C1_0_0026c824b6" x="132.588424" y="171.532236" style="fill: #1f77b4"/>
    </g>
    <g clip-path="url(#p210857ee8c)">
     <use xlink:href="#C1_0_0026c824b6" x="131.832578" y="189.515166" style="fill: #1f77b4"/>
    </g>
   </g>
   <g id="text_12">
    <text style="fill: #262626; font: 12px 'sans-serif'; text-anchor: middle" x="108.195246" y="42.220038" transform="rotate(-0, 108.195246, 42.220038)">*</text>
   </g>
   <g id="text_13">
    <text style="fill: #262626; font: 12px 'sans-serif'; text-anchor: middle" x="108.195246" y="16.318125" transform="rotate(-0, 108.195246, 16.318125)">Lachnospiraceae</text>
   </g>
  </g>
  <g id="axes_2">
   <g id="patch_9">
    <path d="M 239.919836 354.958125 
L 349.690328 354.958125 
L 349.690328 22.318125 
L 239.919836 22.318125 
z
" style="fill: #ffffff"/>
   </g>
   <g id="matplotlib.axis_3">
    <g id="xtick_3">
     <g id="line2d_24">
      <g>
       <use xlink:href="#m0b46190319" x="267.085261" y="354.958125" style="fill: #262626; stroke: #262626; stroke-width: 1.25"/>
      </g>
     </g>
     <g id="text_14">
      <text style="fill: #262626; font: 11px 'sans-serif'; text-anchor: middle" x="267.085261" y="372.816406" transform="rotate(-0, 267.085261, 372.816406)">control</text>
     </g>
    </g>
    <g id="xtick_4">
     <g id="line2d_25">
      <g>
       <use xlink:href="#m0b46190319" x="322.524903" y="354.958125" style="fill: #262626; stroke: #262626; stroke-width: 1.25"/>
      </g>
     </g>
     <g id="text_15">
      <text style="fill: #262626; font: 11px 'sans-serif'; text-anchor: middle" x="322.524903" y="372.816406" transform="rotate(-0, 322.524903, 372.816406)">TCDD</text>
     </g>
    </g>
   </g>
   <g id="matplotlib.axis_4">
    <g id="ytick_9">
     <g id="line2d_26">
      <g>
       <use xlink:href="#m7bca6286ff" x="239.919836" y="325.066499" style="fill: #262626; stroke: #262626; stroke-width: 1.25"/>
      </g>
     </g>
     <g id="text_16">
      <text style="fill: #262626; font: 11px 'sans-serif'; text-anchor: end" x="230.419836" y="329.245639" transform="rotate(-0, 230.419836, 329.245639)">120</text>
     </g>
    </g>
    <g id="ytick_10">
     <g id="line2d_27">
      <g>
       <use xlink:href="#m7bca6286ff" x="239.919836" y="270.718087" style="fill: #262626; stroke: #262626; stroke-width: 1.25"/>
      </g>
     </g>
     <g id="text_17">
      <text style="fill: #262626; font: 11px 'sans-serif'; text-anchor: end" x="230.419836" y="274.897228" transform="rotate(-0, 230.419836, 274.897228)">140</text>
     </g>
    </g>
    <g id="ytick_11">
     <g id="line2d_28">
      <g>
       <use xlink:href="#m7bca6286ff" x="239.919836" y="216.369675" style="fill: #262626; stroke: #262626; stroke-width: 1.25"/>
      </g>
     </g>
     <g id="text_18">
      <text style="fill: #262626; font: 11px 'sans-serif'; text-anchor: end" x="230.419836" y="220.548816" transform="rotate(-0, 230.419836, 220.548816)">160</text>
     </g>
    </g>
    <g id="ytick_12">
     <g id="line2d_29">
      <g>
       <use xlink:href="#m7bca6286ff" x="239.919836" y="162.021264" style="fill: #262626; stroke: #262626; stroke-width: 1.25"/>
      </g>
     </g>
     <g id="text_19">
      <text style="fill: #262626; font: 11px 'sans-serif'; text-anchor: end" x="230.419836" y="166.200404" transform="rotate(-0, 230.419836, 166.200404)">180</text>
     </g>
    </g>
    <g id="ytick_13">
     <g id="line2d_30">
      <g>
       <use xlink:href="#m7bca6286ff" x="239.919836" y="107.672852" style="fill: #262626; stroke: #262626; stroke-width: 1.25"/>
      </g>
     </g>
     <g id="text_20">
      <text style="fill: #262626; font: 11px 'sans-serif'; text-anchor: end" x="230.419836" y="111.851993" transform="rotate(-0, 230.419836, 111.851993)">200</text>
     </g>
    </g>
    <g id="ytick_14">
     <g id="line2d_31">
      <g>
       <use xlink:href="#m7bca6286ff" x="239.919836" y="53.32444" style="fill: #262626; stroke: #262626; stroke-width: 1.25"/>
      </g>
     </g>
     <g id="text_21">
      <text style="fill: #262626; font: 11px 'sans-serif'; text-anchor: end" x="230.419836" y="57.503581" transform="rotate(-0, 230.419836, 57.503581)">220</text>
     </g>
    </g>
    <g id="text_22">
     <text style="fill: #262626; font: 12px 'sans-serif'; text-anchor: middle" x="202.927961" y="188.638125" transform="rotate(-90, 202.927961, 188.638125)">relative abundance</text>
    </g>
   </g>
   <g id="patch_10">
    <path d="M 244.909404 240.82646 
L 289.261118 240.82646 
L 289.261118 109.031562 
L 244.909404 109.031562 
L 244.909404 240.82646 
z
" clip-path="url(#pcf03b5c10f)" style="fill: #d3d3d3; stroke: #7f7f7f; stroke-width: 1.5; stroke-linejoin: miter"/>
   </g>
   <g id="patch_11">
    <path d="M 300.349046 319.631657 
L 344.70076 319.631657 
L 344.70076 236.75033 
L 300.349046 236.75033 
L 300.349046 319.631657 
z
" clip-path="url(#pcf03b5c10f)" style="fill: #d3d3d3; stroke: #7f7f7f; stroke-width: 1.5; stroke-linejoin: miter"/>
   </g>
   <g id="line2d_32">
    <path d="M 267.085261 240.82646 
L 267.085261 333.21876 
" clip-path="url(#pcf03b5c10f)" style="fill: none; stroke: #7f7f7f; stroke-width: 1.5; stroke-linecap: round"/>
   </g>
   <g id="line2d_33">
    <path d="M 267.085261 109.031562 
L 267.085261 69.628964 
" clip-path="url(#pcf03b5c10f)" style="fill: none; stroke: #7f7f7f; stroke-width: 1.5; stroke-linecap: round"/>
   </g>
   <g id="line2d_34">
    <path d="M 255.997332 333.21876 
L 278.173189 333.21876 
" clip-path="url(#pcf03b5c10f)" style="fill: none; stroke: #7f7f7f; stroke-width: 1.5; stroke-linecap: round"/>
   </g>
   <g id="line2d_35">
    <path d="M 255.997332 69.628964 
L 278.173189 69.628964 
" clip-path="url(#pcf03b5c10f)" style="fill: none; stroke: #7f7f7f; stroke-width: 1.5; stroke-linecap: round"/>
   </g>
   <g id="line2d_36"/>
   <g id="line2d_37">
    <path d="M 322.524903 319.631657 
L 322.524903 341.371022 
" clip-path="url(#pcf03b5c10f)" style="fill: none; stroke: #7f7f7f; stroke-width: 1.5; stroke-linecap: round"/>
   </g>
   <g id="line2d_38">
    <path d="M 322.524903 236.75033 
L 322.524903 175.608366 
" clip-path="url(#pcf03b5c10f)" style="fill: none; stroke: #7f7f7f; stroke-width: 1.5; stroke-linecap: round"/>
   </g>
   <g id="line2d_39">
    <path d="M 311.436975 341.371022 
L 333.612832 341.371022 
" clip-path="url(#pcf03b5c10f)" style="fill: none; stroke: #7f7f7f; stroke-width: 1.5; stroke-linecap: round"/>
   </g>
   <g id="line2d_40">
    <path d="M 311.436975 175.608366 
L 333.612832 175.608366 
" clip-path="url(#pcf03b5c10f)" style="fill: none; stroke: #7f7f7f; stroke-width: 1.5; stroke-linecap: round"/>
   </g>
   <g id="line2d_41"/>
   <g id="line2d_42">
    <path d="M 267.085261 51.693988 
L 267.085261 45.715663 
L 322.524903 45.715663 
L 322.524903 51.693988 
" clip-path="url(#pcf03b5c10f)" style="fill: none; stroke: #333333; stroke-width: 1.5; stroke-linecap: round"/>
   </g>
   <g id="line2d_43">
    <path d="M 244.909404 148.434161 
L 289.261118 148.434161 
" clip-path="url(#pcf03b5c10f)" style="fill: none; stroke: #7f7f7f; stroke-width: 1.5; stroke-linecap: round"/>
   </g>
   <g id="line2d_44">
    <path d="M 300.349046 297.892293 
L 344.70076 297.892293 
" clip-path="url(#pcf03b5c10f)" style="fill: none; stroke: #7f7f7f; stroke-width: 1.5; stroke-linecap: round"/>
   </g>
   <g id="patch_12">
    <path d="M 239.919836 354.958125 
L 239.919836 22.318125 
" style="fill: none; stroke: #262626; stroke-width: 1.25; stroke-linejoin: miter; stroke-linecap: square"/>
   </g>
   <g id="patch_13">
    <path d="M 349.690328 354.958125 
L 349.690328 22.318125 
" style="fill: none; stroke: #262626; stroke-width: 1.25; stroke-linejoin: miter; stroke-linecap: square"/>
   </g>
   <g id="patch_14">
    <path d="M 239.919836 354.958125 
L 349.690328 354.958125 
" style="fill: none; stroke: #262626; stroke-width: 1.25; stroke-linejoin: miter; stroke-linecap: square"/>
   </g>
   <g id="patch_15">
    <path d="M 239.919836 22.318125 
L 349.690328 22.318125 
" style="fill: none; stroke: #262626; stroke-width: 1.25; stroke-linejoin: miter; stroke-linecap: square"/>
   </g>
   <g id="PathCollection_3">
    <defs>
     <path id="C2_0_7f9d8d54d9" d="M 0 5 
C 1.326016 5 2.597899 4.473168 3.535534 3.535534 
C 4.473168 2.597899 5 1.326016 5 -0 
C 5 -1.326016 4.473168 -2.597899 3.535534 -3.535534 
C 2.597899 -4.473168 1.326016 -5 0 -5 
C -1.326016 -5 -2.597899 -4.473168 -3.535534 -3.535534 
C -4.473168 -2.597899 -5 -1.326016 -5 0 
C -5 1.326016 -4.473168 2.597899 -3.535534 3.535534 
C -2.597899 4.473168 -1.326016 5 0 5 
z
"/>
    </defs>
    <g clip-path="url(#pcf03b5c10f)">
     <use xlink:href="#C2_0_7f9d8d54d9" x="262.688982" y="148.434161" style="fill: #ff7f0e"/>
    </g>
    <g clip-path="url(#pcf03b5c10f)">
     <use xlink:href="#C2_0_7f9d8d54d9" x="267.675106" y="333.21876" style="fill: #ff7f0e"/>
    </g>
    <g clip-path="url(#pcf03b5c10f)">
     <use xlink:href="#C2_0_7f9d8d54d9" x="264.911598" y="69.628964" style="fill: #ff7f0e"/>
    </g>
   </g>
   <g id="PathCollection_4">
    <defs>
     <path id="C3_0_527a4cb118" d="M 0 5 
C 1.326016 5 2.597899 4.473168 3.535534 3.535534 
C 4.473168 2.597899 5 1.326016 5 -0 
C 5 -1.326016 4.473168 -2.597899 3.535534 -3.535534 
C 2.597899 -4.473168 1.326016 -5 0 -5 
C -1.326016 -5 -2.597899 -4.473168 -3.535534 -3.535534 
C -4.473168 -2.597899 -5 -1.326016 -5 0 
C -5 1.326016 -4.473168 2.597899 -3.535534 3.535534 
C -2.597899 4.473168 -1.326016 5 0 5 
z
"/>
    </defs>
    <g clip-path="url(#pcf03b5c10f)">
     <use xlink:href="#C3_0_527a4cb118" x="327.550604" y="297.892293" style="fill: #1f77b4"/>
    </g>
    <g clip-path="url(#pcf03b5c10f)">
     <use xlink:href="#C3_0_527a4cb118" x="326.877953" y="341.371022" style="fill: #1f77b4"/>
    </g>
    <g clip-path="url(#pcf03b5c10f)">
     <use xlink:href="#C3_0_527a4cb118" x="322.355761" y="175.608366" style="fill: #1f77b4"/>
    </g>
   </g>
   <g id="text_23">
    <text style="fill: #262626; font: 12px 'sans-serif'; text-anchor: middle" x="294.805082" y="42.220038" transform="rotate(-0, 294.805082, 42.220038)">ns</text>
   </g>
   <g id="text_24">
    <text style="fill: #262626; font: 12px 'sans-serif'; text-anchor: middle" x="294.805082" y="16.318125" transform="rotate(-0, 294.805082, 16.318125)">Muribaculaceae</text>
   </g>
  </g>
  <g id="axes_3">
   <g id="patch_16">
    <path d="M 426.529672 354.958125 
L 536.300164 354.958125 
L 536.300164 22.318125 
L 426.529672 22.318125 
z
" style="fill: #ffffff"/>
   </g>
   <g id="matplotlib.axis_5">
    <g id="xtick_5">
     <g id="line2d_45">
      <g>
       <use xlink:href="#m0b46190319" x="453.695097" y="354.958125" style="fill: #262626; stroke: #262626; stroke-width: 1.25"/>
      </g>
     </g>
     <g id="text_25">
      <text style="fill: #262626; font: 11px 'sans-serif'; text-anchor: middle" x="453.695097" y="372.816406" transform="rotate(-0, 453.695097, 372.816406)">control</text>
     </g>
    </g>
    <g id="xtick_6">
     <g id="line2d_46">
      <g>
       <use xlink:href="#m0b46190319" x="509.134739" y="354.958125" style="fill: #262626; stroke: #262626; stroke-width: 1.25"/>
      </g>
     </g>
     <g id="text_26">
      <text style="fill: #262626; font: 11px 'sans-serif'; text-anchor: middle" x="509.134739" y="372.816406" transform="rotate(-0, 509.134739, 372.816406)">TCDD</text>
     </g>
    </g>
   </g>
   <g id="matplotlib.axis_6">
    <g id="ytick_15">
     <g id="line2d_47">
      <g>
       <use xlink:href="#m7bca6286ff" x="426.529672" y="341.371022" style="fill: #262626; stroke: #262626; stroke-width: 1.25"/>
      </g>
     </g>
     <g id="text_27">
      <text style="fill: #262626; font: 11px 'sans-serif'; text-anchor: end" x="417.029672" y="345.550163" transform="rotate(-0, 417.029672, 345.550163)">10</text>
     </g>
    </g>
    <g id="ytick_16">
     <g id="line2d_48">
      <g>
       <use xlink:href="#m7bca6286ff" x="426.529672" y="285.913459" style="fill: #262626; stroke: #262626; stroke-width: 1.25"/>
      </g>
     </g>
     <g id="text_28">
      <text style="fill: #262626; font: 11px 'sans-serif'; text-anchor: end" x="417.029672" y="290.0926" transform="rotate(-0, 417.029672, 290.0926)">20</text>
     </g>
    </g>
    <g id="ytick_17">
     <g id="line2d_49">
      <g>
       <use xlink:href="#m7bca6286ff" x="426.529672" y="230.455896" style="fill: #262626; stroke: #262626; stroke-width: 1.25"/>
      </g>
     </g>
     <g id="text_29">
      <text style="fill: #262626; font: 11px 'sans-serif'; text-anchor: end" x="417.029672" y="234.635037" transform="rotate(-0, 417.029672, 234.635037)">30</text>
     </g>
    </g>
    <g id="ytick_18">
     <g id="line2d_50">
      <g>
       <use xlink:href="#m7bca6286ff" x="426.529672" y="174.998333" style="fill: #262626; stroke: #262626; stroke-width: 1.25"/>
      </g>
     </g>
     <g id="text_30">
      <text style="fill: #262626; font: 11px 'sans-serif'; text-anchor: end" x="417.029672" y="179.177474" transform="rotate(-0, 417.029672, 179.177474)">40</text>
     </g>
    </g>
    <g id="ytick_19">
     <g id="line2d_51">
      <g>
       <use xlink:href="#m7bca6286ff" x="426.529672" y="119.54077" style="fill: #262626; stroke: #262626; stroke-width: 1.25"/>
      </g>
     </g>
     <g id="text_31">
      <text style="fill: #262626; font: 11px 'sans-serif'; text-anchor: end" x="417.029672" y="123.719911" transform="rotate(-0, 417.029672, 123.719911)">50</text>
     </g>
    </g>
    <g id="ytick_20">
     <g id="line2d_52">
      <g>
       <use xlink:href="#m7bca6286ff" x="426.529672" y="64.083207" style="fill: #262626; stroke: #262626; stroke-width: 1.25"/>
      </g>
     </g>
     <g id="text_32">
      <text style="fill: #262626; font: 11px 'sans-serif'; text-anchor: end" x="417.029672" y="68.262348" transform="rotate(-0, 417.029672, 68.262348)">60</text>
     </g>
    </g>
    <g id="text_33">
     <text style="fill: #262626; font: 12px 'sans-serif'; text-anchor: middle" x="396.536547" y="188.638125" transform="rotate(-90, 396.536547, 188.638125)">relative abundance</text>
    </g>
   </g>
   <g id="patch_17">
    <path d="M 431.51924 308.096484 
L 475.870954 308.096484 
L 475.870954 236.001653 
L 431.51924 236.001653 
L 431.51924 308.096484 
z
" clip-path="url(#pfe2626fd09)" style="fill: #d3d3d3; stroke: #7f7f7f; stroke-width: 1.5; stroke-linejoin: miter"/>
   </g>
   <g id="patch_18">
    <path d="M 486.958882 299.77785 
L 531.310596 299.77785 
L 531.310596 174.998333 
L 486.958882 174.998333 
L 486.958882 299.77785 
z
" clip-path="url(#pfe2626fd09)" style="fill: #d3d3d3; stroke: #7f7f7f; stroke-width: 1.5; stroke-linejoin: miter"/>
   </g>
   <g id="line2d_53">
    <path d="M 453.695097 308.096484 
L 453.695097 341.371022 
" clip-path="url(#pfe2626fd09)" style="fill: none; stroke: #7f7f7f; stroke-width: 1.5; stroke-linecap: round"/>
   </g>
   <g id="line2d_54">
    <path d="M 453.695097 236.001653 
L 453.695097 197.181358 
" clip-path="url(#pfe2626fd09)" style="fill: none; stroke: #7f7f7f; stroke-width: 1.5; stroke-linecap: round"/>
   </g>
   <g id="line2d_55">
    <path d="M 442.607168 341.371022 
L 464.783025 341.371022 
" clip-path="url(#pfe2626fd09)" style="fill: none; stroke: #7f7f7f; stroke-width: 1.5; stroke-linecap: round"/>
   </g>
   <g id="line2d_56">
    <path d="M 442.607168 197.181358 
L 464.783025 197.181358 
" clip-path="url(#pfe2626fd09)" style="fill: none; stroke: #7f7f7f; stroke-width: 1.5; stroke-linecap: round"/>
   </g>
   <g id="line2d_57"/>
   <g id="line2d_58">
    <path d="M 509.134739 299.77785 
L 509.134739 319.187997 
" clip-path="url(#pfe2626fd09)" style="fill: none; stroke: #7f7f7f; stroke-width: 1.5; stroke-linecap: round"/>
   </g>
   <g id="line2d_59">
    <path d="M 509.134739 174.998333 
L 509.134739 69.628964 
" clip-path="url(#pfe2626fd09)" style="fill: none; stroke: #7f7f7f; stroke-width: 1.5; stroke-linecap: round"/>
   </g>
   <g id="line2d_60">
    <path d="M 498.046811 319.187997 
L 520.222668 319.187997 
" clip-path="url(#pfe2626fd09)" style="fill: none; stroke: #7f7f7f; stroke-width: 1.5; stroke-linecap: round"/>
   </g>
   <g id="line2d_61">
    <path d="M 498.046811 69.628964 
L 520.222668 69.628964 
" clip-path="url(#pfe2626fd09)" style="fill: none; stroke: #7f7f7f; stroke-width: 1.5; stroke-linecap: round"/>
   </g>
   <g id="line2d_62"/>
   <g id="line2d_63">
    <path d="M 453.695097 51.693988 
L 453.695097 45.715663 
L 509.134739 45.715663 
L 509.134739 51.693988 
" clip-path="url(#pfe2626fd09)" style="fill: none; stroke: #333333; stroke-width: 1.5; stroke-linecap: round"/>
   </g>
   <g id="line2d_64">
    <path d="M 431.51924 274.821947 
L 475.870954 274.821947 
" clip-path="url(#pfe2626fd09)" style="fill: none; stroke: #7f7f7f; stroke-width: 1.5; stroke-linecap: round"/>
   </g>
   <g id="line2d_65">
    <path d="M 486.958882 280.367703 
L 531.310596 280.367703 
" clip-path="url(#pfe2626fd09)" style="fill: none; stroke: #7f7f7f; stroke-width: 1.5; stroke-linecap: round"/>
   </g>
   <g id="patch_19">
    <path d="M 426.529672 354.958125 
L 426.529672 22.318125 
" style="fill: none; stroke: #262626; stroke-width: 1.25; stroke-linejoin: miter; stroke-linecap: square"/>
   </g>
   <g id="patch_20">
    <path d="M 536.300164 354.958125 
L 536.300164 22.318125 
" style="fill: none; stroke: #262626; stroke-width: 1.25; stroke-linejoin: miter; stroke-linecap: square"/>
   </g>
   <g id="patch_21">
    <path d="M 426.529672 354.958125 
L 536.300164 354.958125 
" style="fill: none; stroke: #262626; stroke-width: 1.25; stroke-linejoin: miter; stroke-linecap: square"/>
   </g>
   <g id="patch_22">
    <path d="M 426.529672 22.318125 
L 536.300164 22.318125 
" style="fill: none; stroke: #262626; stroke-width: 1.25; stroke-linejoin: miter; stroke-linecap: square"/>
   </g>
   <g id="PathCollection_5">
    <defs>
     <path id="C4_0_c1cdc7a7e6" d="M 0 5 
C 1.326016 5 2.597899 4.473168 3.535534 3.535534 
C 4.473168 2.597899 5 1.326016 5 -0 
C 5 -1.326016 4.473168 -2.597899 3.535534 -3.535534 
C 2.597899 -4.473168 1.326016 -5 0 -5 
C -1.326016 -5 -2.597899 -4.473168 -3.535534 -3.535534 
C -4.473168 -2.597899 -5 -1.326016 -5 0 
C -5 1.326016 -4.473168 2.597899 -3.535534 3.535534 
C -2.597899 4.473168 -1.326016 5 0 5 
z
"/>
    </defs>
    <g clip-path="url(#pfe2626fd09)">
     <use xlink:href="#C4_0_c1cdc7a7e6" x="458.319822" y="341.371022" style="fill: #ff7f0e"/>
    </g>
    <g clip-path="url(#pfe2626fd09)">
     <use xlink:href="#C4_0_c1cdc7a7e6" x="452.980822" y="274.821947" style="fill: #ff7f0e"/>
    </g>
    <g clip-path="url(#pfe2626fd09)">
     <use xlink:href="#C4_0_c1cdc7a7e6" x="458.751756" y="197.181358" style="fill: #ff7f0e"/>
    </g>
   </g>
   <g id="PathCollection_6">
    <defs>
     <path id="C5_0_da48596a9b" d="M 0 5 
C 1.326016 5 2.597899 4.473168 3.535534 3.535534 
C 4.473168 2.597899 5 1.326016 5 -0 
C 5 -1.326016 4.473168 -2.597899 3.535534 -3.535534 
C 2.597899 -4.473168 1.326016 -5 0 -5 
C -1.326016 -5 -2.597899 -4.473168 -3.535534 -3.535534 
C -4.473168 -2.597899 -5 -1.326016 -5 0 
C -5 1.326016 -4.473168 2.597899 -3.535534 3.535534 
C -2.597899 4.473168 -1.326016 5 0 5 
z
"/>
    </defs>
    <g clip-path="url(#pfe2626fd09)">
     <use xlink:href="#C5_0_da48596a9b" x="504.159061" y="319.187997" style="fill: #1f77b4"/>
    </g>
    <g clip-path="url(#pfe2626fd09)">
     <use xlink:href="#C5_0_da48596a9b" x="512.503721" y="69.628964" style="fill: #1f77b4"/>
    </g>
    <g clip-path="url(#pfe2626fd09)">
     <use xlink:href="#C5_0_da48596a9b" x="506.932586" y="280.367703" style="fill: #1f77b4"/>
    </g>
   </g>
   <g id="text_34">
    <text style="fill: #262626; font: 12px 'sans-serif'; text-anchor: middle" x="481.414918" y="42.220038" transform="rotate(-0, 481.414918, 42.220038)">ns</text>
   </g>
   <g id="text_35">
    <text style="fill: #262626; font: 12px 'sans-serif'; text-anchor: middle" x="481.414918" y="16.318125" transform="rotate(-0, 481.414918, 16.318125)">Bacteroidaceae</text>
   </g>
  </g>
  <g id="axes_4">
   <g id="patch_23">
    <path d="M 613.139508 354.958125 
L 722.91 354.958125 
L 722.91 22.318125 
L 613.139508 22.318125 
z
" style="fill: #ffffff"/>
   </g>
   <g id="matplotlib.axis_7">
    <g id="xtick_7">
     <g id="line2d_66">
      <g>
       <use xlink:href="#m0b46190319" x="640.304933" y="354.958125" style="fill: #262626; stroke: #262626; stroke-width: 1.25"/>
      </g>
     </g>
     <g id="text_36">
      <text style="fill: #262626; font: 11px 'sans-serif'; text-anchor: middle" x="640.304933" y="372.816406" transform="rotate(-0, 640.304933, 372.816406)">control</text>
     </g>
    </g>
    <g id="xtick_8">
     <g id="line2d_67">
      <g>
       <use xlink:href="#m0b46190319" x="695.744575" y="354.958125" style="fill: #262626; stroke: #262626; stroke-width: 1.25"/>
      </g>
     </g>
     <g id="text_37">
      <text style="fill: #262626; font: 11px 'sans-serif'; text-anchor: middle" x="695.744575" y="372.816406" transform="rotate(-0, 695.744575, 372.816406)">TCDD</text>
     </g>
    </g>
   </g>
   <g id="matplotlib.axis_8">
    <g id="ytick_21">
     <g id="line2d_68">
      <g>
       <use xlink:href="#m7bca6286ff" x="613.139508" y="282.615982" style="fill: #262626; stroke: #262626; stroke-width: 1.25"/>
      </g>
     </g>
     <g id="text_38">
      <text style="fill: #262626; font: 11px 'sans-serif'; text-anchor: end" x="603.639508" y="286.795123" transform="rotate(-0, 603.639508, 286.795123)">10</text>
     </g>
    </g>
    <g id="ytick_22">
     <g id="line2d_69">
      <g>
       <use xlink:href="#m7bca6286ff" x="613.139508" y="209.172183" style="fill: #262626; stroke: #262626; stroke-width: 1.25"/>
      </g>
     </g>
     <g id="text_39">
      <text style="fill: #262626; font: 11px 'sans-serif'; text-anchor: end" x="603.639508" y="213.351324" transform="rotate(-0, 603.639508, 213.351324)">20</text>
     </g>
    </g>
    <g id="ytick_23">
     <g id="line2d_70">
      <g>
       <use xlink:href="#m7bca6286ff" x="613.139508" y="135.728383" style="fill: #262626; stroke: #262626; stroke-width: 1.25"/>
      </g>
     </g>
     <g id="text_40">
      <text style="fill: #262626; font: 11px 'sans-serif'; text-anchor: end" x="603.639508" y="139.907524" transform="rotate(-0, 603.639508, 139.907524)">30</text>
     </g>
    </g>
    <g id="ytick_24">
     <g id="line2d_71">
      <g>
       <use xlink:href="#m7bca6286ff" x="613.139508" y="62.284584" style="fill: #262626; stroke: #262626; stroke-width: 1.25"/>
      </g>
     </g>
     <g id="text_41">
      <text style="fill: #262626; font: 11px 'sans-serif'; text-anchor: end" x="603.639508" y="66.463724" transform="rotate(-0, 603.639508, 66.463724)">40</text>
     </g>
    </g>
    <g id="text_42">
     <text style="fill: #262626; font: 12px 'sans-serif'; text-anchor: middle" x="583.146383" y="188.638125" transform="rotate(-90, 583.146383, 188.638125)">relative abundance</text>
    </g>
   </g>
   <g id="patch_24">
    <path d="M 618.129076 275.271602 
L 662.48079 275.271602 
L 662.48079 161.433713 
L 618.129076 161.433713 
L 618.129076 275.271602 
z
" clip-path="url(#pcff07299e3)" style="fill: #d3d3d3; stroke: #7f7f7f; stroke-width: 1.5; stroke-linejoin: miter"/>
   </g>
   <g id="patch_25">
    <path d="M 673.568718 337.698832 
L 717.920432 337.698832 
L 717.920432 286.288172 
L 673.568718 286.288172 
L 673.568718 337.698832 
z
" clip-path="url(#pcff07299e3)" style="fill: #d3d3d3; stroke: #7f7f7f; stroke-width: 1.5; stroke-linejoin: miter"/>
   </g>
   <g id="line2d_72">
    <path d="M 640.304933 275.271602 
L 640.304933 297.304742 
" clip-path="url(#pcff07299e3)" style="fill: none; stroke: #7f7f7f; stroke-width: 1.5; stroke-linecap: round"/>
   </g>
   <g id="line2d_73">
    <path d="M 640.304933 161.433713 
L 640.304933 69.628964 
" clip-path="url(#pcff07299e3)" style="fill: none; stroke: #7f7f7f; stroke-width: 1.5; stroke-linecap: round"/>
   </g>
   <g id="line2d_74">
    <path d="M 629.217004 297.304742 
L 651.392861 297.304742 
" clip-path="url(#pcff07299e3)" style="fill: none; stroke: #7f7f7f; stroke-width: 1.5; stroke-linecap: round"/>
   </g>
   <g id="line2d_75">
    <path d="M 629.217004 69.628964 
L 651.392861 69.628964 
" clip-path="url(#pcff07299e3)" style="fill: none; stroke: #7f7f7f; stroke-width: 1.5; stroke-linecap: round"/>
   </g>
   <g id="line2d_76"/>
   <g id="line2d_77">
    <path d="M 695.744575 337.698832 
L 695.744575 341.371022 
" clip-path="url(#pcff07299e3)" style="fill: none; stroke: #7f7f7f; stroke-width: 1.5; stroke-linecap: round"/>
   </g>
   <g id="line2d_78">
    <path d="M 695.744575 286.288172 
L 695.744575 238.549703 
" clip-path="url(#pcff07299e3)" style="fill: none; stroke: #7f7f7f; stroke-width: 1.5; stroke-linecap: round"/>
   </g>
   <g id="line2d_79">
    <path d="M 684.656647 341.371022 
L 706.832504 341.371022 
" clip-path="url(#pcff07299e3)" style="fill: none; stroke: #7f7f7f; stroke-width: 1.5; stroke-linecap: round"/>
   </g>
   <g id="line2d_80">
    <path d="M 684.656647 238.549703 
L 706.832504 238.549703 
" clip-path="url(#pcff07299e3)" style="fill: none; stroke: #7f7f7f; stroke-width: 1.5; stroke-linecap: round"/>
   </g>
   <g id="line2d_81"/>
   <g id="line2d_82">
    <path d="M 640.304933 51.693988 
L 640.304933 45.715663 
L 695.744575 45.715663 
L 695.744575 51.693988 
" clip-path="url(#pcff07299e3)" style="fill: none; stroke: #333333; stroke-width: 1.5; stroke-linecap: round"/>
   </g>
   <g id="line2d_83">
    <path d="M 618.129076 253.238463 
L 662.48079 253.238463 
" clip-path="url(#pcff07299e3)" style="fill: none; stroke: #7f7f7f; stroke-width: 1.5; stroke-linecap: round"/>
   </g>
   <g id="line2d_84">
    <path d="M 673.568718 334.026642 
L 717.920432 334.026642 
" clip-path="url(#pcff07299e3)" style="fill: none; stroke: #7f7f7f; stroke-width: 1.5; stroke-linecap: round"/>
   </g>
   <g id="patch_26">
    <path d="M 613.139508 354.958125 
L 613.139508 22.318125 
" style="fill: none; stroke: #262626; stroke-width: 1.25; stroke-linejoin: miter; stroke-linecap: square"/>
   </g>
   <g id="patch_27">
    <path d="M 722.91 354.958125 
L 722.91 22.318125 
" style="fill: none; stroke: #262626; stroke-width: 1.25; stroke-linejoin: miter; stroke-linecap: square"/>
   </g>
   <g id="patch_28">
    <path d="M 613.139508 354.958125 
L 722.91 354.958125 
" style="fill: none; stroke: #262626; stroke-width: 1.25; stroke-linejoin: miter; stroke-linecap: square"/>
   </g>
   <g id="patch_29">
    <path d="M 613.139508 22.318125 
L 722.91 22.318125 
" style="fill: none; stroke: #262626; stroke-width: 1.25; stroke-linejoin: miter; stroke-linecap: square"/>
   </g>
   <g id="PathCollection_7">
    <defs>
     <path id="C6_0_c41625bdf1" d="M 0 5 
C 1.326016 5 2.597899 4.473168 3.535534 3.535534 
C 4.473168 2.597899 5 1.326016 5 -0 
C 5 -1.326016 4.473168 -2.597899 3.535534 -3.535534 
C 2.597899 -4.473168 1.326016 -5 0 -5 
C -1.326016 -5 -2.597899 -4.473168 -3.535534 -3.535534 
C -4.473168 -2.597899 -5 -1.326016 -5 0 
C -5 1.326016 -4.473168 2.597899 -3.535534 3.535534 
C -2.597899 4.473168 -1.326016 5 0 5 
z
"/>
    </defs>
    <g clip-path="url(#pcff07299e3)">
     <use xlink:href="#C6_0_c41625bdf1" x="635.02244" y="69.628964" style="fill: #ff7f0e"/>
    </g>
    <g clip-path="url(#pcff07299e3)">
     <use xlink:href="#C6_0_c41625bdf1" x="638.992995" y="253.238463" style="fill: #ff7f0e"/>
    </g>
    <g clip-path="url(#pcff07299e3)">
     <use xlink:href="#C6_0_c41625bdf1" x="642.018515" y="297.304742" style="fill: #ff7f0e"/>
    </g>
   </g>
   <g id="PathCollection_8">
    <defs>
     <path id="C7_0_085fc8bb86" d="M 0 5 
C 1.326016 5 2.597899 4.473168 3.535534 3.535534 
C 4.473168 2.597899 5 1.326016 5 -0 
C 5 -1.326016 4.473168 -2.597899 3.535534 -3.535534 
C 2.597899 -4.473168 1.326016 -5 0 -5 
C -1.326016 -5 -2.597899 -4.473168 -3.535534 -3.535534 
C -4.473168 -2.597899 -5 -1.326016 -5 0 
C -5 1.326016 -4.473168 2.597899 -3.535534 3.535534 
C -2.597899 4.473168 -1.326016 5 0 5 
z
"/>
    </defs>
    <g clip-path="url(#pcff07299e3)">
     <use xlink:href="#C7_0_085fc8bb86" x="695.199594" y="334.026642" style="fill: #1f77b4"/>
    </g>
    <g clip-path="url(#pcff07299e3)">
     <use xlink:href="#C7_0_085fc8bb86" x="696.143591" y="238.549703" style="fill: #1f77b4"/>
    </g>
    <g clip-path="url(#pcff07299e3)">
     <use xlink:href="#C7_0_085fc8bb86" x="695.548055" y="341.371022" style="fill: #1f77b4"/>
    </g>
   </g>
   <g id="text_43">
    <text style="fill: #262626; font: 12px 'sans-serif'; text-anchor: middle" x="668.024754" y="42.220038" transform="rotate(-0, 668.024754, 42.220038)">ns</text>
   </g>
   <g id="text_44">
    <text style="fill: #262626; font: 12px 'sans-serif'; text-anchor: middle" x="668.024754" y="16.318125" transform="rotate(-0, 668.024754, 16.318125)">Lactobacillaceae</text>
   </g>
  </g>
 </g>
 <defs>
  <clipPath id="p210857ee8c">
   <rect x="53.31" y="22.318125" width="109.770492" height="332.64"/>
  </clipPath>
  <clipPath id="pcf03b5c10f">
   <rect x="239.919836" y="22.318125" width="109.770492" height="332.64"/>
  </clipPath>
  <clipPath id="pfe2626fd09">
   <rect x="426.529672" y="22.318125" width="109.770492" height="332.64"/>
  </clipPath>
  <clipPath id="pcff07299e3">
   <rect x="613.139508" y="22.318125" width="109.770492" height="332.64"/>
  </clipPath>
 </defs>
</svg>
