<?xml version="1.0" encoding="utf-8" standalone="no"?>
<!DOCTYPE svg PUBLIC "-//W3C//DTD SVG 1.1//EN"
  "http://www.w3.org/Graphics/SVG/1.1/DTD/svg11.dtd">
<svg xmlns:xlink="http://www.w3.org/1999/xlink" width="573.746875pt" height="543.732281pt" viewBox="0 0 573.746875 543.732281" xmlns="http://www.w3.org/2000/svg" version="1.1">
 <metadata>
  <rdf:RDF xmlns:dc="http://purl.org/dc/elements/1.1/" xmlns:cc="http://creativecommons.org/ns#" xmlns:rdf="http://www.w3.org/1999/02/22-rdf-syntax-ns#">
   <cc:Work>
    <dc:type rdf:resource="http://purl.org/dc/dcmitype/StillImage"/>
    <dc:date>2025-02-20T09:57:02.045512</dc:date>
    <dc:format>image/svg+xml</dc:format>
    <dc:creator>
     <cc:Agent>
      <dc:title>Matplotlib v3.5.3, https://matplotlib.org/</dc:title>
     </cc:Agent>
    </dc:creator>
   </cc:Work>
  </rdf:RDF>
 </metadata>
 <defs>
  <style type="text/css">*{stroke-linejoin: round; stroke-linecap: butt}</style>
 </defs>
 <g id="figure_1">
  <g id="patch_1">
   <path d="M 0 543.732281 
L 573.746875 543.732281 
L 573.746875 0 
L 0 0 
z
" style="fill: #ffffff"/>
  </g>
  <g id="axes_1">
   <g id="patch_2">
    <path d="M 49.807188 372.303531 
L 328.807187 372.303531 
L 328.807187 39.663531 
L 49.807188 39.663531 
z
" style="fill: #ffffff"/>
   </g>
   <g id="matplotlib.axis_1">
    <g id="xtick_1">
     <g id="line2d_1">
      <path d="M 71.950045 372.303531 
L 71.950045 39.663531 
" clip-path="url(#p759a076760)" style="fill: none; stroke: #ffffff; stroke-linecap: round"/>
     </g>
     <g id="line2d_2">
      <defs>
       <path id="m372cce4c3a" d="M 0 0 
L 0 6 
" style="stroke: #262626; stroke-width: 1.25"/>
      </defs>
      <g>
       <use xlink:href="#m372cce4c3a" x="71.950045" y="372.303531" style="fill: #262626; stroke: #262626; stroke-width: 1.25"/>
      </g>
     </g>
     <g id="text_1">
      <text style="fill: #262626; font: 11px 'sans-serif'" transform="translate(74.735279 536.532281)rotate(-90)">325.1_S325.1_L001_R1_001</text>
     </g>
    </g>
    <g id="xtick_2">
     <g id="line2d_3">
      <path d="M 116.235759 372.303531 
L 116.235759 39.663531 
" clip-path="url(#p759a076760)" style="fill: none; stroke: #ffffff; stroke-linecap: round"/>
     </g>
     <g id="line2d_4">
      <g>
       <use xlink:href="#m372cce4c3a" x="116.235759" y="372.303531" style="fill: #262626; stroke: #262626; stroke-width: 1.25"/>
      </g>
     </g>
     <g id="text_2">
      <text style="fill: #262626; font: 11px 'sans-serif'" transform="translate(119.020993 536.532281)rotate(-90)">326.1_S326.1_L001_R1_001</text>
     </g>
    </g>
    <g id="xtick_3">
     <g id="line2d_5">
      <path d="M 160.521473 372.303531 
L 160.521473 39.663531 
" clip-path="url(#p759a076760)" style="fill: none; stroke: #ffffff; stroke-linecap: round"/>
     </g>
     <g id="line2d_6">
      <g>
       <use xlink:href="#m372cce4c3a" x="160.521473" y="372.303531" style="fill: #262626; stroke: #262626; stroke-width: 1.25"/>
      </g>
     </g>
     <g id="text_3">
      <text style="fill: #262626; font: 11px 'sans-serif'" transform="translate(163.306708 536.532281)rotate(-90)">327.1_S327.1_L001_R1_001</text>
     </g>
    </g>
    <g id="xtick_4">
     <g id="line2d_7">
      <path d="M 218.092902 372.303531 
L 218.092902 39.663531 
" clip-path="url(#p759a076760)" style="fill: none; stroke: #ffffff; stroke-linecap: round"/>
     </g>
     <g id="line2d_8">
      <g>
       <use xlink:href="#m372cce4c3a" x="218.092902" y="372.303531" style="fill: #262626; stroke: #262626; stroke-width: 1.25"/>
      </g>
     </g>
     <g id="text_4">
      <text style="fill: #262626; font: 11px 'sans-serif'" transform="translate(220.878136 536.532281)rotate(-90)">328.1_S328.1_L001_R1_001</text>
     </g>
    </g>
    <g id="xtick_5">
     <g id="line2d_9">
      <path d="M 262.378616 372.303531 
L 262.378616 39.663531 
" clip-path="url(#p759a076760)" style="fill: none; stroke: #ffffff; stroke-linecap: round"/>
     </g>
     <g id="line2d_10">
      <g>
       <use xlink:href="#m372cce4c3a" x="262.378616" y="372.303531" style="fill: #262626; stroke: #262626; stroke-width: 1.25"/>
      </g>
     </g>
     <g id="text_5">
      <text style="fill: #262626; font: 11px 'sans-serif'" transform="translate(265.16385 536.532281)rotate(-90)">329.1_S329.1_L001_R1_001</text>
     </g>
    </g>
    <g id="xtick_6">
     <g id="line2d_11">
      <path d="M 306.66433 372.303531 
L 306.66433 39.663531 
" clip-path="url(#p759a076760)" style="fill: none; stroke: #ffffff; stroke-linecap: round"/>
     </g>
     <g id="line2d_12">
      <g>
       <use xlink:href="#m372cce4c3a" x="306.66433" y="372.303531" style="fill: #262626; stroke: #262626; stroke-width: 1.25"/>
      </g>
     </g>
     <g id="text_6">
      <text style="fill: #262626; font: 11px 'sans-serif'" transform="translate(309.449565 536.532281)rotate(-90)">330.1_S330.1_L001_R1_001</text>
     </g>
    </g>
   </g>
   <g id="matplotlib.axis_2">
    <g id="ytick_1">
     <g id="line2d_13">
      <path d="M 49.807188 372.303531 
L 328.807187 372.303531 
" clip-path="url(#p759a076760)" style="fill: none; stroke: #ffffff; stroke-linecap: round"/>
     </g>
     <g id="text_7">
      <text style="fill: #262626; font: 11px 'sans-serif'; text-anchor: end" x="40.307188" y="376.482672" transform="rotate(-0, 40.307188, 376.482672)">0.0</text>
     </g>
    </g>
    <g id="ytick_2">
     <g id="line2d_14">
      <path d="M 49.807188 305.775531 
L 328.807187 305.775531 
" clip-path="url(#p759a076760)" style="fill: none; stroke: #ffffff; stroke-linecap: round"/>
     </g>
     <g id="text_8">
      <text style="fill: #262626; font: 11px 'sans-serif'; text-anchor: end" x="40.307188" y="309.954672" transform="rotate(-0, 40.307188, 309.954672)">0.2</text>
     </g>
    </g>
    <g id="ytick_3">
     <g id="line2d_15">
      <path d="M 49.807188 239.247531 
L 328.807187 239.247531 
" clip-path="url(#p759a076760)" style="fill: none; stroke: #ffffff; stroke-linecap: round"/>
     </g>
     <g id="text_9">
      <text style="fill: #262626; font: 11px 'sans-serif'; text-anchor: end" x="40.307188" y="243.426672" transform="rotate(-0, 40.307188, 243.426672)">0.4</text>
     </g>
    </g>
    <g id="ytick_4">
     <g id="line2d_16">
      <path d="M 49.807188 172.719531 
L 328.807187 172.719531 
" clip-path="url(#p759a076760)" style="fill: none; stroke: #ffffff; stroke-linecap: round"/>
     </g>
     <g id="text_10">
      <text style="fill: #262626; font: 11px 'sans-serif'; text-anchor: end" x="40.307188" y="176.898672" transform="rotate(-0, 40.307188, 176.898672)">0.6</text>
     </g>
    </g>
    <g id="ytick_5">
     <g id="line2d_17">
      <path d="M 49.807188 106.191531 
L 328.807187 106.191531 
" clip-path="url(#p759a076760)" style="fill: none; stroke: #ffffff; stroke-linecap: round"/>
     </g>
     <g id="text_11">
      <text style="fill: #262626; font: 11px 'sans-serif'; text-anchor: end" x="40.307188" y="110.370672" transform="rotate(-0, 40.307188, 110.370672)">0.8</text>
     </g>
    </g>
    <g id="ytick_6">
     <g id="line2d_18">
      <path d="M 49.807188 39.663531 
L 328.807187 39.663531 
" clip-path="url(#p759a076760)" style="fill: none; stroke: #ffffff; stroke-linecap: round"/>
     </g>
     <g id="text_12">
      <text style="fill: #262626; font: 11px 'sans-serif'; text-anchor: end" x="40.307188" y="43.842672" transform="rotate(-0, 40.307188, 43.842672)">1.0</text>
     </g>
    </g>
    <g id="text_13">
     <text style="fill: #262626; font: 12px 'sans-serif'; text-anchor: middle" x="16.318125" y="205.983531" transform="rotate(-90, 16.318125, 205.983531)">relative abundance</text>
    </g>
   </g>
   <g id="PolyCollection_1">
    <defs>
     <path id="m3afa8aaed8" d="M 195.950045 -228.45275 
L 195.950045 -171.42875 
L 240.235759 -171.42875 
L 240.235759 -171.42875 
L 284.521473 -171.42875 
L 284.521473 -171.42875 
L 328.807187 -171.42875 
L 328.807187 -230.03675 
L 328.807187 -230.03675 
L 284.521473 -230.03675 
L 284.521473 -233.99675 
L 240.235759 -233.99675 
L 240.235759 -228.45275 
L 195.950045 -228.45275 
z
"/>
    </defs>
    <g clip-path="url(#p759a076760)">
     <use xlink:href="#m3afa8aaed8" x="0" y="543.732281" style="fill: #b2df8a"/>
    </g>
   </g>
   <g id="PolyCollection_2">
    <defs>
     <path id="m42d3e197c6" d="M 49.807188 -256.17275 
L 49.807188 -171.42875 
L 94.092902 -171.42875 
L 94.092902 -171.42875 
L 138.378616 -171.42875 
L 138.378616 -171.42875 
L 182.66433 -171.42875 
L 182.66433 -268.84475 
L 182.66433 -268.84475 
L 138.378616 -268.84475 
L 138.378616 -251.42075 
L 94.092902 -251.42075 
L 94.092902 -256.17275 
L 49.807188 -256.17275 
z
"/>
    </defs>
    <g clip-path="url(#p759a076760)">
     <use xlink:href="#m42d3e197c6" x="0" y="543.732281" style="fill: #b2df8a"/>
    </g>
   </g>
   <g id="PolyCollection_3">
    <defs>
     <path id="m61cbebad0a" d="M 195.950045 -245.87675 
L 195.950045 -228.45275 
L 240.235759 -228.45275 
L 240.235759 -233.99675 
L 284.521473 -233.99675 
L 284.521473 -230.03675 
L 328.807187 -230.03675 
L 328.807187 -329.03675 
L 328.807187 -329.03675 
L 284.521473 -329.03675 
L 284.521473 -305.27675 
L 240.235759 -305.27675 
L 240.235759 -245.87675 
L 195.950045 -245.87675 
z
"/>
    </defs>
    <g clip-path="url(#p759a076760)">
     <use xlink:href="#m61cbebad0a" x="0" y="543.732281" style="fill: #cab2d6"/>
    </g>
   </g>
   <g id="PolyCollection_4">
    <defs>
     <path id="m69b2df6f40" d="M 49.807188 -290.22875 
L 49.807188 -256.17275 
L 94.092902 -256.17275 
L 94.092902 -251.42075 
L 138.378616 -251.42075 
L 138.378616 -268.84475 
L 182.66433 -268.84475 
L 182.66433 -280.72475 
L 182.66433 -280.72475 
L 138.378616 -280.72475 
L 138.378616 -273.59675 
L 94.092902 -273.59675 
L 94.092902 -290.22875 
L 49.807188 -290.22875 
z
"/>
    </defs>
    <g clip-path="url(#p759a076760)">
     <use xlink:href="#m69b2df6f40" x="0" y="543.732281" style="fill: #cab2d6"/>
    </g>
   </g>
   <g id="PolyCollection_5">
    <defs>
     <path id="m5a716c820a" d="M 195.950045 -279.14075 
L 195.950045 -245.87675 
L 240.235759 -245.87675 
L 240.235759 -305.27675 
L 284.521473 -305.27675 
L 284.521473 -329.03675 
L 328.807187 -329.03675 
L 328.807187 -374.18075 
L 328.807187 -374.18075 
L 284.521473 -374.18075 
L 284.521473 -309.23675 
L 240.235759 -309.23675 
L 240.235759 -279.14075 
L 195.950045 -279.14075 
z
"/>
    </defs>
    <g clip-path="url(#p759a076760)">
     <use xlink:href="#m5a716c820a" x="0" y="543.732281" style="fill: #1f78b4"/>
    </g>
   </g>
   <g id="PolyCollection_6">
    <defs>
     <path id="m9654acb4ff" d="M 49.807188 -347.25275 
L 49.807188 -290.22875 
L 94.092902 -290.22875 
L 94.092902 -273.59675 
L 138.378616 -273.59675 
L 138.378616 -280.72475 
L 182.66433 -280.72475 
L 182.66433 -329.82875 
L 182.66433 -329.82875 
L 138.378616 -329.82875 
L 138.378616 -285.47675 
L 94.092902 -285.47675 
L 94.092902 -347.25275 
L 49.807188 -347.25275 
z
"/>
    </defs>
    <g clip-path="url(#p759a076760)">
     <use xlink:href="#m9654acb4ff" x="0" y="543.732281" style="fill: #1f78b4"/>
    </g>
   </g>
   <g id="PolyCollection_7">
    <defs>
     <path id="m69c2addab6" d="M 195.950045 -400.31675 
L 195.950045 -279.14075 
L 240.235759 -279.14075 
L 240.235759 -309.23675 
L 284.521473 -309.23675 
L 284.521473 -374.18075 
L 328.807187 -374.18075 
L 328.807187 -375.76475 
L 328.807187 -375.76475 
L 284.521473 -375.76475 
L 284.521473 -312.40475 
L 240.235759 -312.40475 
L 240.235759 -400.31675 
L 195.950045 -400.31675 
z
"/>
    </defs>
    <g clip-path="url(#p759a076760)">
     <use xlink:href="#m69c2addab6" x="0" y="543.732281" style="fill: #a6cee3"/>
    </g>
   </g>
   <g id="PolyCollection_8">
    <defs>
     <path id="m55063d9f13" d="M 49.807188 -350.42075 
L 49.807188 -347.25275 
L 94.092902 -347.25275 
L 94.092902 -285.47675 
L 138.378616 -285.47675 
L 138.378616 -329.82875 
L 182.66433 -329.82875 
L 182.66433 -330.62075 
L 182.66433 -330.62075 
L 138.378616 -330.62075 
L 138.378616 -287.85275 
L 94.092902 -287.85275 
L 94.092902 -350.42075 
L 49.807188 -350.42075 
z
"/>
    </defs>
    <g clip-path="url(#p759a076760)">
     <use xlink:href="#m55063d9f13" x="0" y="543.732281" style="fill: #a6cee3"/>
    </g>
   </g>
   <g id="PolyCollection_9">
    <defs>
     <path id="m4af52fe9b8" d="M 195.950045 -416.15675 
L 195.950045 -400.31675 
L 240.235759 -400.31675 
L 240.235759 -312.40475 
L 284.521473 -312.40475 
L 284.521473 -375.76475 
L 328.807187 -375.76475 
L 328.807187 -388.43675 
L 328.807187 -388.43675 
L 284.521473 -388.43675 
L 284.521473 -345.66875 
L 240.235759 -345.66875 
L 240.235759 -416.15675 
L 195.950045 -416.15675 
z
"/>
    </defs>
    <g clip-path="url(#p759a076760)">
     <use xlink:href="#m4af52fe9b8" x="0" y="543.732281" style="fill: #fb9a99"/>
    </g>
   </g>
   <g id="PolyCollection_10">
    <defs>
     <path id="mc952c3c606" d="M 49.807188 -366.26075 
L 49.807188 -350.42075 
L 94.092902 -350.42075 
L 94.092902 -287.85275 
L 138.378616 -287.85275 
L 138.378616 -330.62075 
L 182.66433 -330.62075 
L 182.66433 -372.59675 
L 182.66433 -372.59675 
L 138.378616 -372.59675 
L 138.378616 -294.18875 
L 94.092902 -294.18875 
L 94.092902 -366.26075 
L 49.807188 -366.26075 
z
"/>
    </defs>
    <g clip-path="url(#p759a076760)">
     <use xlink:href="#mc952c3c606" x="0" y="543.732281" style="fill: #fb9a99"/>
    </g>
   </g>
   <g id="PolyCollection_11">
    <defs>
     <path id="m010c82a3a0" d="M 195.950045 -418.53275 
L 195.950045 -416.15675 
L 240.235759 -416.15675 
L 240.235759 -345.66875 
L 284.521473 -345.66875 
L 284.521473 -388.43675 
L 328.807187 -388.43675 
L 328.807187 -397.94075 
L 328.807187 -397.94075 
L 284.521473 -397.94075 
L 284.521473 -368.63675 
L 240.235759 -368.63675 
L 240.235759 -418.53275 
L 195.950045 -418.53275 
z
"/>
    </defs>
    <g clip-path="url(#p759a076760)">
     <use xlink:href="#m010c82a3a0" x="0" y="543.732281" style="fill: #ff7f00"/>
    </g>
   </g>
   <g id="PolyCollection_12">
    <defs>
     <path id="m18881ba5e2" d="M 49.807188 -378.14075 
L 49.807188 -366.26075 
L 94.092902 -366.26075 
L 94.092902 -294.18875 
L 138.378616 -294.18875 
L 138.378616 -372.59675 
L 182.66433 -372.59675 
L 182.66433 -383.68475 
L 182.66433 -383.68475 
L 138.378616 -383.68475 
L 138.378616 -334.58075 
L 94.092902 -334.58075 
L 94.092902 -378.14075 
L 49.807188 -378.14075 
z
"/>
    </defs>
    <g clip-path="url(#p759a076760)">
     <use xlink:href="#m18881ba5e2" x="0" y="543.732281" style="fill: #ff7f00"/>
    </g>
   </g>
   <g id="PolyCollection_13">
    <defs>
     <path id="m49fdf48419" d="M 195.950045 -433.58075 
L 195.950045 -418.53275 
L 240.235759 -418.53275 
L 240.235759 -368.63675 
L 284.521473 -368.63675 
L 284.521473 -397.94075 
L 328.807187 -397.94075 
L 328.807187 -416.94875 
L 328.807187 -416.94875 
L 284.521473 -416.94875 
L 284.521473 -388.43675 
L 240.235759 -388.43675 
L 240.235759 -433.58075 
L 195.950045 -433.58075 
z
"/>
    </defs>
    <g clip-path="url(#p759a076760)">
     <use xlink:href="#m49fdf48419" x="0" y="543.732281" style="fill: #e31a1c"/>
    </g>
   </g>
   <g id="PolyCollection_14">
    <defs>
     <path id="m73ad79b18c" d="M 49.807188 -390.02075 
L 49.807188 -378.14075 
L 94.092902 -378.14075 
L 94.092902 -334.58075 
L 138.378616 -334.58075 
L 138.378616 -383.68475 
L 182.66433 -383.68475 
L 182.66433 -407.44475 
L 182.66433 -407.44475 
L 138.378616 -407.44475 
L 138.378616 -338.54075 
L 94.092902 -338.54075 
L 94.092902 -390.02075 
L 49.807188 -390.02075 
z
"/>
    </defs>
    <g clip-path="url(#p759a076760)">
     <use xlink:href="#m73ad79b18c" x="0" y="543.732281" style="fill: #e31a1c"/>
    </g>
   </g>
   <g id="PolyCollection_15">
    <defs>
     <path id="mf23bf8ccce" d="M 195.950045 -445.46075 
L 195.950045 -433.58075 
L 240.235759 -433.58075 
L 240.235759 -388.43675 
L 284.521473 -388.43675 
L 284.521473 -416.94875 
L 328.807187 -416.94875 
L 328.807187 -435.95675 
L 328.807187 -435.95675 
L 284.521473 -435.95675 
L 284.521473 -401.10875 
L 240.235759 -401.10875 
L 240.235759 -445.46075 
L 195.950045 -445.46075 
z
"/>
    </defs>
    <g clip-path="url(#p759a076760)">
     <use xlink:href="#mf23bf8ccce" x="0" y="543.732281" style="fill: #fdbf6f"/>
    </g>
   </g>
   <g id="PolyCollection_16">
    <defs>
     <path id="m6b53107aa3" d="M 49.807188 -399.52475 
L 49.807188 -390.02075 
L 94.092902 -390.02075 
L 94.092902 -338.54075 
L 138.378616 -338.54075 
L 138.378616 -407.44475 
L 182.66433 -407.44475 
L 182.66433 -418.53275 
L 182.66433 -418.53275 
L 138.378616 -418.53275 
L 138.378616 -346.46075 
L 94.092902 -346.46075 
L 94.092902 -399.52475 
L 49.807188 -399.52475 
z
"/>
    </defs>
    <g clip-path="url(#p759a076760)">
     <use xlink:href="#m6b53107aa3" x="0" y="543.732281" style="fill: #fdbf6f"/>
    </g>
   </g>
   <g id="PolyCollection_17">
    <defs>
     <path id="m3f6948db88" d="M 195.950045 -462.09275 
L 195.950045 -445.46075 
L 240.235759 -445.46075 
L 240.235759 -401.10875 
L 284.521473 -401.10875 
L 284.521473 -435.95675 
L 328.807187 -435.95675 
L 328.807187 -452.58875 
L 328.807187 -452.58875 
L 284.521473 -452.58875 
L 284.521473 -416.94875 
L 240.235759 -416.94875 
L 240.235759 -462.09275 
L 195.950045 -462.09275 
z
"/>
    </defs>
    <g clip-path="url(#p759a076760)">
     <use xlink:href="#m3f6948db88" x="0" y="543.732281" style="fill: #d95f02"/>
    </g>
   </g>
   <g id="PolyCollection_18">
    <defs>
     <path id="m0ceae93faa" d="M 49.807188 -405.86075 
L 49.807188 -399.52475 
L 94.092902 -399.52475 
L 94.092902 -346.46075 
L 138.378616 -346.46075 
L 138.378616 -418.53275 
L 182.66433 -418.53275 
L 182.66433 -428.03675 
L 182.66433 -428.03675 
L 138.378616 -428.03675 
L 138.378616 -350.42075 
L 94.092902 -350.42075 
L 94.092902 -405.86075 
L 49.807188 -405.86075 
z
"/>
    </defs>
    <g clip-path="url(#p759a076760)">
     <use xlink:href="#m0ceae93faa" x="0" y="543.732281" style="fill: #d95f02"/>
    </g>
   </g>
   <g id="PolyCollection_19">
    <defs>
     <path id="m8a77b48a5a" d="M 195.950045 -466.05275 
L 195.950045 -462.09275 
L 240.235759 -462.09275 
L 240.235759 -416.94875 
L 284.521473 -416.94875 
L 284.521473 -452.58875 
L 328.807187 -452.58875 
L 328.807187 -454.17275 
L 328.807187 -454.17275 
L 284.521473 -454.17275 
L 284.521473 -446.25275 
L 240.235759 -446.25275 
L 240.235759 -466.05275 
L 195.950045 -466.05275 
z
"/>
    </defs>
    <g clip-path="url(#p759a076760)">
     <use xlink:href="#m8a77b48a5a" x="0" y="543.732281" style="fill: #e7298a"/>
    </g>
   </g>
   <g id="PolyCollection_20">
    <defs>
     <path id="m59bbaa583f" d="M 49.807188 -409.82075 
L 49.807188 -405.86075 
L 94.092902 -405.86075 
L 94.092902 -350.42075 
L 138.378616 -350.42075 
L 138.378616 -428.03675 
L 182.66433 -428.03675 
L 182.66433 -434.37275 
L 182.66433 -434.37275 
L 138.378616 -434.37275 
L 138.378616 -367.84475 
L 94.092902 -367.84475 
L 94.092902 -409.82075 
L 49.807188 -409.82075 
z
"/>
    </defs>
    <g clip-path="url(#p759a076760)">
     <use xlink:href="#m59bbaa583f" x="0" y="543.732281" style="fill: #e7298a"/>
    </g>
   </g>
   <g id="PolyCollection_21">
    <defs>
     <path id="m7399c93678" d="M 195.950045 -473.97275 
L 195.950045 -466.05275 
L 240.235759 -466.05275 
L 240.235759 -446.25275 
L 284.521473 -446.25275 
L 284.521473 -454.17275 
L 328.807187 -454.17275 
L 328.807187 -467.63675 
L 328.807187 -467.63675 
L 284.521473 -467.63675 
L 284.521473 -463.67675 
L 240.235759 -463.67675 
L 240.235759 -473.97275 
L 195.950045 -473.97275 
z
"/>
    </defs>
    <g clip-path="url(#p759a076760)">
     <use xlink:href="#m7399c93678" x="0" y="543.732281" style="fill: #e6ab02"/>
    </g>
   </g>
   <g id="PolyCollection_22">
    <defs>
     <path id="mccb6a352e6" d="M 49.807188 -412.98875 
L 49.807188 -409.82075 
L 94.092902 -409.82075 
L 94.092902 -367.84475 
L 138.378616 -367.84475 
L 138.378616 -434.37275 
L 182.66433 -434.37275 
L 182.66433 -449.42075 
L 182.66433 -449.42075 
L 138.378616 -449.42075 
L 138.378616 -368.63675 
L 94.092902 -368.63675 
L 94.092902 -412.98875 
L 49.807188 -412.98875 
z
"/>
    </defs>
    <g clip-path="url(#p759a076760)">
     <use xlink:href="#mccb6a352e6" x="0" y="543.732281" style="fill: #e6ab02"/>
    </g>
   </g>
   <g id="PolyCollection_23">
    <defs>
     <path id="me0d956c498" d="M 195.950045 -479.51675 
L 195.950045 -473.97275 
L 240.235759 -473.97275 
L 240.235759 -463.67675 
L 284.521473 -463.67675 
L 284.521473 -467.63675 
L 328.807187 -467.63675 
L 328.807187 -477.93275 
L 328.807187 -477.93275 
L 284.521473 -477.93275 
L 284.521473 -473.18075 
L 240.235759 -473.18075 
L 240.235759 -479.51675 
L 195.950045 -479.51675 
z
"/>
    </defs>
    <g clip-path="url(#p759a076760)">
     <use xlink:href="#me0d956c498" x="0" y="543.732281" style="fill: #ffff99"/>
    </g>
   </g>
   <g id="PolyCollection_24">
    <defs>
     <path id="m7f77303c6c" d="M 49.807188 -420.11675 
L 49.807188 -412.98875 
L 94.092902 -412.98875 
L 94.092902 -368.63675 
L 138.378616 -368.63675 
L 138.378616 -449.42075 
L 182.66433 -449.42075 
L 182.66433 -458.13275 
L 182.66433 -458.13275 
L 138.378616 -458.13275 
L 138.378616 -378.14075 
L 94.092902 -378.14075 
L 94.092902 -420.11675 
L 49.807188 -420.11675 
z
"/>
    </defs>
    <g clip-path="url(#p759a076760)">
     <use xlink:href="#m7f77303c6c" x="0" y="543.732281" style="fill: #ffff99"/>
    </g>
   </g>
   <g id="PolyCollection_25">
    <defs>
     <path id="m727a808708" d="M 195.950045 -483.47675 
L 195.950045 -479.51675 
L 240.235759 -479.51675 
L 240.235759 -473.18075 
L 284.521473 -473.18075 
L 284.521473 -477.93275 
L 328.807187 -477.93275 
L 328.807187 -480.30875 
L 328.807187 -480.30875 
L 284.521473 -480.30875 
L 284.521473 -473.97275 
L 240.235759 -473.97275 
L 240.235759 -483.47675 
L 195.950045 -483.47675 
z
"/>
    </defs>
    <g clip-path="url(#p759a076760)">
     <use xlink:href="#m727a808708" x="0" y="543.732281" style="fill: #b15928"/>
    </g>
   </g>
   <g id="PolyCollection_26">
    <defs>
     <path id="m99151f9912" d="M 49.807188 -427.24475 
L 49.807188 -420.11675 
L 94.092902 -420.11675 
L 94.092902 -378.14075 
L 138.378616 -378.14075 
L 138.378616 -458.13275 
L 182.66433 -458.13275 
L 182.66433 -466.84475 
L 182.66433 -466.84475 
L 138.378616 -466.84475 
L 138.378616 -397.14875 
L 94.092902 -397.14875 
L 94.092902 -427.24475 
L 49.807188 -427.24475 
z
"/>
    </defs>
    <g clip-path="url(#p759a076760)">
     <use xlink:href="#m99151f9912" x="0" y="543.732281" style="fill: #b15928"/>
    </g>
   </g>
   <g id="PolyCollection_27">
    <defs>
     <path id="mbf4f55c9e1" d="M 195.950045 -483.47675 
L 195.950045 -483.47675 
L 240.235759 -483.47675 
L 240.235759 -473.97275 
L 284.521473 -473.97275 
L 284.521473 -480.30875 
L 328.807187 -480.30875 
L 328.807187 -482.68475 
L 328.807187 -482.68475 
L 284.521473 -482.68475 
L 284.521473 -473.97275 
L 240.235759 -473.97275 
L 240.235759 -483.47675 
L 195.950045 -483.47675 
z
"/>
    </defs>
    <g clip-path="url(#p759a076760)">
     <use xlink:href="#mbf4f55c9e1" x="0" y="543.732281" style="fill: #66a61e"/>
    </g>
   </g>
   <g id="PolyCollection_28">
    <defs>
     <path id="m612753c0b9" d="M 49.807188 -443.08475 
L 49.807188 -427.24475 
L 94.092902 -427.24475 
L 94.092902 -397.14875 
L 138.378616 -397.14875 
L 138.378616 -466.84475 
L 182.66433 -466.84475 
L 182.66433 -468.42875 
L 182.66433 -468.42875 
L 138.378616 -468.42875 
L 138.378616 -409.02875 
L 94.092902 -409.02875 
L 94.092902 -443.08475 
L 49.807188 -443.08475 
z
"/>
    </defs>
    <g clip-path="url(#p759a076760)">
     <use xlink:href="#m612753c0b9" x="0" y="543.732281" style="fill: #66a61e"/>
    </g>
   </g>
   <g id="PolyCollection_29">
    <defs>
     <path id="m90701a63ca" d="M 195.950045 -483.47675 
L 195.950045 -483.47675 
L 240.235759 -483.47675 
L 240.235759 -473.97275 
L 284.521473 -473.97275 
L 284.521473 -482.68475 
L 328.807187 -482.68475 
L 328.807187 -482.68475 
L 328.807187 -482.68475 
L 284.521473 -482.68475 
L 284.521473 -476.34875 
L 240.235759 -476.34875 
L 240.235759 -483.47675 
L 195.950045 -483.47675 
z
"/>
    </defs>
    <g clip-path="url(#p759a076760)">
     <use xlink:href="#m90701a63ca" x="0" y="543.732281" style="fill: #1f78b4"/>
    </g>
   </g>
   <g id="PolyCollection_30">
    <defs>
     <path id="m27b93f2522" d="M 49.807188 -443.87675 
L 49.807188 -443.08475 
L 94.092902 -443.08475 
L 94.092902 -409.02875 
L 138.378616 -409.02875 
L 138.378616 -468.42875 
L 182.66433 -468.42875 
L 182.66433 -473.18075 
L 182.66433 -473.18075 
L 138.378616 -473.18075 
L 138.378616 -426.45275 
L 94.092902 -426.45275 
L 94.092902 -443.87675 
L 49.807188 -443.87675 
z
"/>
    </defs>
    <g clip-path="url(#p759a076760)">
     <use xlink:href="#m27b93f2522" x="0" y="543.732281" style="fill: #1f78b4"/>
    </g>
   </g>
   <g id="PolyCollection_31">
    <defs>
     <path id="m003869c57d" d="M 195.950045 -483.47675 
L 195.950045 -483.47675 
L 240.235759 -483.47675 
L 240.235759 -476.34875 
L 284.521473 -476.34875 
L 284.521473 -482.68475 
L 328.807187 -482.68475 
L 328.807187 -482.68475 
L 328.807187 -482.68475 
L 284.521473 -482.68475 
L 284.521473 -476.34875 
L 240.235759 -476.34875 
L 240.235759 -483.47675 
L 195.950045 -483.47675 
z
"/>
    </defs>
    <g clip-path="url(#p759a076760)">
     <use xlink:href="#m003869c57d" x="0" y="543.732281" style="fill: #b2df8a"/>
    </g>
   </g>
   <g id="PolyCollection_32">
    <defs>
     <path id="md978832107" d="M 49.807188 -455.75675 
L 49.807188 -443.87675 
L 94.092902 -443.87675 
L 94.092902 -426.45275 
L 138.378616 -426.45275 
L 138.378616 -473.18075 
L 182.66433 -473.18075 
L 182.66433 -473.97275 
L 182.66433 -473.97275 
L 138.378616 -473.97275 
L 138.378616 -434.37275 
L 94.092902 -434.37275 
L 94.092902 -455.75675 
L 49.807188 -455.75675 
z
"/>
    </defs>
    <g clip-path="url(#p759a076760)">
     <use xlink:href="#md978832107" x="0" y="543.732281" style="fill: #b2df8a"/>
    </g>
   </g>
   <g id="PolyCollection_33">
    <defs>
     <path id="mbff958b215" d="M 195.950045 -484.26875 
L 195.950045 -483.47675 
L 240.235759 -483.47675 
L 240.235759 -476.34875 
L 284.521473 -476.34875 
L 284.521473 -482.68475 
L 328.807187 -482.68475 
L 328.807187 -482.68475 
L 328.807187 -482.68475 
L 284.521473 -482.68475 
L 284.521473 -482.68475 
L 240.235759 -482.68475 
L 240.235759 -484.26875 
L 195.950045 -484.26875 
z
"/>
    </defs>
    <g clip-path="url(#p759a076760)">
     <use xlink:href="#mbff958b215" x="0" y="543.732281" style="fill: #7570b3"/>
    </g>
   </g>
   <g id="PolyCollection_34">
    <defs>
     <path id="m87f430105a" d="M 49.807188 -456.54875 
L 49.807188 -455.75675 
L 94.092902 -455.75675 
L 94.092902 -434.37275 
L 138.378616 -434.37275 
L 138.378616 -473.97275 
L 182.66433 -473.97275 
L 182.66433 -475.55675 
L 182.66433 -475.55675 
L 138.378616 -475.55675 
L 138.378616 -443.87675 
L 94.092902 -443.87675 
L 94.092902 -456.54875 
L 49.807188 -456.54875 
z
"/>
    </defs>
    <g clip-path="url(#p759a076760)">
     <use xlink:href="#m87f430105a" x="0" y="543.732281" style="fill: #7570b3"/>
    </g>
   </g>
   <g id="PolyCollection_35">
    <defs>
     <path id="me2f16fadd6" d="M 195.950045 -485.06075 
L 195.950045 -484.26875 
L 240.235759 -484.26875 
L 240.235759 -482.68475 
L 284.521473 -482.68475 
L 284.521473 -482.68475 
L 328.807187 -482.68475 
L 328.807187 -489.02075 
L 328.807187 -489.02075 
L 284.521473 -489.02075 
L 284.521473 -488.22875 
L 240.235759 -488.22875 
L 240.235759 -485.06075 
L 195.950045 -485.06075 
z
"/>
    </defs>
    <g clip-path="url(#p759a076760)">
     <use xlink:href="#me2f16fadd6" x="0" y="543.732281" style="fill: #7570b3"/>
    </g>
   </g>
   <g id="PolyCollection_36">
    <defs>
     <path id="m6a0fba7e03" d="M 49.807188 -459.71675 
L 49.807188 -456.54875 
L 94.092902 -456.54875 
L 94.092902 -443.87675 
L 138.378616 -443.87675 
L 138.378616 -475.55675 
L 182.66433 -475.55675 
L 182.66433 -475.55675 
L 182.66433 -475.55675 
L 138.378616 -475.55675 
L 138.378616 -446.25275 
L 94.092902 -446.25275 
L 94.092902 -459.71675 
L 49.807188 -459.71675 
z
"/>
    </defs>
    <g clip-path="url(#p759a076760)">
     <use xlink:href="#m6a0fba7e03" x="0" y="543.732281" style="fill: #7570b3"/>
    </g>
   </g>
   <g id="PolyCollection_37">
    <defs>
     <path id="m3db037532b" d="M 195.950045 -486.64475 
L 195.950045 -485.06075 
L 240.235759 -485.06075 
L 240.235759 -488.22875 
L 284.521473 -488.22875 
L 284.521473 -489.02075 
L 328.807187 -489.02075 
L 328.807187 -489.02075 
L 328.807187 -489.02075 
L 284.521473 -489.02075 
L 284.521473 -492.98075 
L 240.235759 -492.98075 
L 240.235759 -486.64475 
L 195.950045 -486.64475 
z
"/>
    </defs>
    <g clip-path="url(#p759a076760)">
     <use xlink:href="#m3db037532b" x="0" y="543.732281" style="fill: #1b9e77"/>
    </g>
   </g>
   <g id="PolyCollection_38">
    <defs>
     <path id="mac80c7ed25" d="M 49.807188 -460.50875 
L 49.807188 -459.71675 
L 94.092902 -459.71675 
L 94.092902 -446.25275 
L 138.378616 -446.25275 
L 138.378616 -475.55675 
L 182.66433 -475.55675 
L 182.66433 -481.89275 
L 182.66433 -481.89275 
L 138.378616 -481.89275 
L 138.378616 -447.83675 
L 94.092902 -447.83675 
L 94.092902 -460.50875 
L 49.807188 -460.50875 
z
"/>
    </defs>
    <g clip-path="url(#p759a076760)">
     <use xlink:href="#mac80c7ed25" x="0" y="543.732281" style="fill: #1b9e77"/>
    </g>
   </g>
   <g id="PolyCollection_39">
    <defs>
     <path id="m5feb699e9b" d="M 195.950045 -492.98075 
L 195.950045 -486.64475 
L 240.235759 -486.64475 
L 240.235759 -492.98075 
L 284.521473 -492.98075 
L 284.521473 -489.02075 
L 328.807187 -489.02075 
L 328.807187 -489.02075 
L 328.807187 -489.02075 
L 284.521473 -489.02075 
L 284.521473 -492.98075 
L 240.235759 -492.98075 
L 240.235759 -492.98075 
L 195.950045 -492.98075 
z
"/>
    </defs>
    <g clip-path="url(#p759a076760)">
     <use xlink:href="#m5feb699e9b" x="0" y="543.732281" style="fill: #ccebc5"/>
    </g>
   </g>
   <g id="PolyCollection_40">
    <defs>
     <path id="m0ef0acc86d" d="M 49.807188 -462.88475 
L 49.807188 -460.50875 
L 94.092902 -460.50875 
L 94.092902 -447.83675 
L 138.378616 -447.83675 
L 138.378616 -481.89275 
L 182.66433 -481.89275 
L 182.66433 -485.06075 
L 182.66433 -485.06075 
L 138.378616 -485.06075 
L 138.378616 -450.21275 
L 94.092902 -450.21275 
L 94.092902 -462.88475 
L 49.807188 -462.88475 
z
"/>
    </defs>
    <g clip-path="url(#p759a076760)">
     <use xlink:href="#m0ef0acc86d" x="0" y="543.732281" style="fill: #ccebc5"/>
    </g>
   </g>
   <g id="PolyCollection_41">
    <defs>
     <path id="m849843d2a8" d="M 195.950045 -492.98075 
L 195.950045 -492.98075 
L 240.235759 -492.98075 
L 240.235759 -492.98075 
L 284.521473 -492.98075 
L 284.521473 -489.02075 
L 328.807187 -489.02075 
L 328.807187 -491.39675 
L 328.807187 -491.39675 
L 284.521473 -491.39675 
L 284.521473 -493.77275 
L 240.235759 -493.77275 
L 240.235759 -492.98075 
L 195.950045 -492.98075 
z
"/>
    </defs>
    <g clip-path="url(#p759a076760)">
     <use xlink:href="#m849843d2a8" x="0" y="543.732281" style="fill: #1f78b4"/>
    </g>
   </g>
   <g id="PolyCollection_42">
    <defs>
     <path id="m6734e6b2f6" d="M 49.807188 -462.88475 
L 49.807188 -462.88475 
L 94.092902 -462.88475 
L 94.092902 -450.21275 
L 138.378616 -450.21275 
L 138.378616 -485.06075 
L 182.66433 -485.06075 
L 182.66433 -486.64475 
L 182.66433 -486.64475 
L 138.378616 -486.64475 
L 138.378616 -456.54875 
L 94.092902 -456.54875 
L 94.092902 -462.88475 
L 49.807188 -462.88475 
z
"/>
    </defs>
    <g clip-path="url(#p759a076760)">
     <use xlink:href="#m6734e6b2f6" x="0" y="543.732281" style="fill: #1f78b4"/>
    </g>
   </g>
   <g id="PolyCollection_43">
    <defs>
     <path id="mc4b595a6e9" d="M 195.950045 -492.98075 
L 195.950045 -492.98075 
L 240.235759 -492.98075 
L 240.235759 -493.77275 
L 284.521473 -493.77275 
L 284.521473 -491.39675 
L 328.807187 -491.39675 
L 328.807187 -495.35675 
L 328.807187 -495.35675 
L 284.521473 -495.35675 
L 284.521473 -496.14875 
L 240.235759 -496.14875 
L 240.235759 -492.98075 
L 195.950045 -492.98075 
z
"/>
    </defs>
    <g clip-path="url(#p759a076760)">
     <use xlink:href="#mc4b595a6e9" x="0" y="543.732281" style="fill: #ff7f00"/>
    </g>
   </g>
   <g id="PolyCollection_44">
    <defs>
     <path id="mfdfb6c02aa" d="M 49.807188 -464.46875 
L 49.807188 -462.88475 
L 94.092902 -462.88475 
L 94.092902 -456.54875 
L 138.378616 -456.54875 
L 138.378616 -486.64475 
L 182.66433 -486.64475 
L 182.66433 -487.43675 
L 182.66433 -487.43675 
L 138.378616 -487.43675 
L 138.378616 -458.92475 
L 94.092902 -458.92475 
L 94.092902 -464.46875 
L 49.807188 -464.46875 
z
"/>
    </defs>
    <g clip-path="url(#p759a076760)">
     <use xlink:href="#mfdfb6c02aa" x="0" y="543.732281" style="fill: #ff7f00"/>
    </g>
   </g>
   <g id="PolyCollection_45">
    <defs>
     <path id="md5e5c2f2c0" d="M 195.950045 -492.98075 
L 195.950045 -492.98075 
L 240.235759 -492.98075 
L 240.235759 -496.14875 
L 284.521473 -496.14875 
L 284.521473 -495.35675 
L 328.807187 -495.35675 
L 328.807187 -495.35675 
L 328.807187 -495.35675 
L 284.521473 -495.35675 
L 284.521473 -497.73275 
L 240.235759 -497.73275 
L 240.235759 -492.98075 
L 195.950045 -492.98075 
z
"/>
    </defs>
    <g clip-path="url(#p759a076760)">
     <use xlink:href="#md5e5c2f2c0" x="0" y="543.732281" style="fill: #6a3d9a"/>
    </g>
   </g>
   <g id="PolyCollection_46">
    <defs>
     <path id="m657b08d49e" d="M 49.807188 -466.05275 
L 49.807188 -464.46875 
L 94.092902 -464.46875 
L 94.092902 -458.92475 
L 138.378616 -458.92475 
L 138.378616 -487.43675 
L 182.66433 -487.43675 
L 182.66433 -490.60475 
L 182.66433 -490.60475 
L 138.378616 -490.60475 
L 138.378616 -462.09275 
L 94.092902 -462.09275 
L 94.092902 -466.05275 
L 49.807188 -466.05275 
z
"/>
    </defs>
    <g clip-path="url(#p759a076760)">
     <use xlink:href="#m657b08d49e" x="0" y="543.732281" style="fill: #6a3d9a"/>
    </g>
   </g>
   <g id="PolyCollection_47">
    <defs>
     <path id="mbf211bef10" d="M 195.950045 -492.98075 
L 195.950045 -492.98075 
L 240.235759 -492.98075 
L 240.235759 -497.73275 
L 284.521473 -497.73275 
L 284.521473 -495.35675 
L 328.807187 -495.35675 
L 328.807187 -495.35675 
L 328.807187 -495.35675 
L 284.521473 -495.35675 
L 284.521473 -497.73275 
L 240.235759 -497.73275 
L 240.235759 -492.98075 
L 195.950045 -492.98075 
z
"/>
    </defs>
    <g clip-path="url(#p759a076760)">
     <use xlink:href="#mbf211bef10" x="0" y="543.732281" style="fill: #ccebc5"/>
    </g>
   </g>
   <g id="PolyCollection_48">
    <defs>
     <path id="m29baaa33ce" d="M 49.807188 -470.01275 
L 49.807188 -466.05275 
L 94.092902 -466.05275 
L 94.092902 -462.09275 
L 138.378616 -462.09275 
L 138.378616 -490.60475 
L 182.66433 -490.60475 
L 182.66433 -490.60475 
L 182.66433 -490.60475 
L 138.378616 -490.60475 
L 138.378616 -466.05275 
L 94.092902 -466.05275 
L 94.092902 -470.01275 
L 49.807188 -470.01275 
z
"/>
    </defs>
    <g clip-path="url(#p759a076760)">
     <use xlink:href="#m29baaa33ce" x="0" y="543.732281" style="fill: #ccebc5"/>
    </g>
   </g>
   <g id="PolyCollection_49">
    <defs>
     <path id="madc70c789b" d="M 195.950045 -504.06875 
L 195.950045 -492.98075 
L 240.235759 -492.98075 
L 240.235759 -497.73275 
L 284.521473 -497.73275 
L 284.521473 -495.35675 
L 328.807187 -495.35675 
L 328.807187 -504.06875 
L 328.807187 -504.06875 
L 284.521473 -504.06875 
L 284.521473 -504.06875 
L 240.235759 -504.06875 
L 240.235759 -504.06875 
L 195.950045 -504.06875 
z
"/>
    </defs>
    <g clip-path="url(#p759a076760)">
     <use xlink:href="#madc70c789b" x="0" y="543.732281" style="fill: #ffffff"/>
    </g>
   </g>
   <g id="PolyCollection_50">
    <defs>
     <path id="m54235d8521" d="M 49.807188 -504.06875 
L 49.807188 -470.01275 
L 94.092902 -470.01275 
L 94.092902 -466.05275 
L 138.378616 -466.05275 
L 138.378616 -490.60475 
L 182.66433 -490.60475 
L 182.66433 -504.06875 
L 182.66433 -504.06875 
L 138.378616 -504.06875 
L 138.378616 -504.06875 
L 94.092902 -504.06875 
L 94.092902 -504.06875 
L 49.807188 -504.06875 
z
"/>
    </defs>
    <g clip-path="url(#p759a076760)">
     <use xlink:href="#m54235d8521" x="0" y="543.732281" style="fill: #ffffff"/>
    </g>
   </g>
   <g id="patch_3">
    <path d="M 195.950045 372.303531 
L 328.807187 372.303531 
L 328.807187 39.663531 
L 195.950045 39.663531 
L 195.950045 372.303531 
z
" clip-path="url(#p759a076760)" style="fill: none; stroke: #808080; stroke-linejoin: miter"/>
   </g>
   <g id="patch_4">
    <path d="M 49.807188 372.303531 
L 182.66433 372.303531 
L 182.66433 39.663531 
L 49.807188 39.663531 
L 49.807188 372.303531 
z
" clip-path="url(#p759a076760)" style="fill: none; stroke: #808080; stroke-linejoin: miter"/>
   </g>
   <g id="patch_5">
    <path d="M 49.807188 372.303531 
L 49.807188 39.663531 
" style="fill: none; stroke: #ffffff; stroke-width: 1.25; stroke-linejoin: miter; stroke-linecap: square"/>
   </g>
   <g id="patch_6">
    <path d="M 328.807187 372.303531 
L 328.807187 39.663531 
" style="fill: none; stroke: #ffffff; stroke-width: 1.25; stroke-linejoin: miter; stroke-linecap: square"/>
   </g>
   <g id="patch_7">
    <path d="M 49.807188 372.303531 
L 328.807187 372.303531 
" style="fill: none; stroke: #ffffff; stroke-width: 1.25; stroke-linejoin: miter; stroke-linecap: square"/>
   </g>
   <g id="patch_8">
    <path d="M 49.807188 39.663531 
L 328.807187 39.663531 
" style="fill: none; stroke: #ffffff; stroke-width: 1.25; stroke-linejoin: miter; stroke-linecap: square"/>
   </g>
   <g id="legend_1">
    <g id="patch_9">
     <path d="M 339.297188 459.936219 
L 564.346875 459.936219 
Q 566.546875 459.936219 566.546875 457.736219 
L 566.546875 30.731531 
Q 566.546875 28.531531 564.346875 28.531531 
L 339.297188 28.531531 
Q 337.097188 28.531531 337.097188 30.731531 
L 337.097188 457.736219 
Q 337.097188 459.936219 339.297188 459.936219 
z
" style="fill: #eaeaf2; opacity: 0.8; stroke: #cccccc; stroke-linejoin: miter"/>
    </g>
    <g id="text_14">
     <text style="fill: #262626; font: 700 12px 'sans-serif'; text-anchor: start" x="409.296094" y="42.049656" transform="rotate(-0, 409.296094, 42.049656)">Rank: Genus</text>
    </g>
    <g id="patch_10">
     <path d="M 341.497187 58.403563 
L 363.497187 58.403563 
L 363.497187 50.703563 
L 341.497187 50.703563 
z
" style="fill: #b2df8a; stroke: #b2df8a; stroke-linejoin: miter"/>
    </g>
    <g id="text_15">
     <text style="fill: #262626; font: 11px 'sans-serif'; text-anchor: start" x="372.297188" y="58.403563" transform="rotate(-0, 372.297188, 58.403563)">22.06 %: g__</text>
    </g>
    <g id="patch_11">
     <path d="M 341.497187 74.855438 
L 363.497187 74.855438 
L 363.497187 67.155438 
L 341.497187 67.155438 
z
" style="fill: #cab2d6; stroke: #cab2d6; stroke-linejoin: miter"/>
    </g>
    <g id="text_16">
     <text style="fill: #262626; font: 11px 'sans-serif'; text-anchor: start" x="372.297188" y="74.855438" transform="rotate(-0, 372.297188, 74.855438)">12.82 %: g__COE1</text>
    </g>
    <g id="patch_12">
     <path d="M 341.497187 91.307313 
L 363.497187 91.307313 
L 363.497187 83.607313 
L 341.497187 83.607313 
z
" style="fill: #1f78b4; stroke: #1f78b4; stroke-linejoin: miter"/>
    </g>
    <g id="text_17">
     <text style="fill: #262626; font: 11px 'sans-serif'; text-anchor: start" x="372.297188" y="91.307313" transform="rotate(-0, 372.297188, 91.307313)">10.04 %: g__Lepagella</text>
    </g>
    <g id="patch_13">
     <path d="M 341.497187 107.759188 
L 363.497187 107.759188 
L 363.497187 100.059188 
L 341.497187 100.059188 
z
" style="fill: #a6cee3; stroke: #a6cee3; stroke-linejoin: miter"/>
    </g>
    <g id="text_18">
     <text style="fill: #262626; font: 11px 'sans-serif'; text-anchor: start" x="372.297188" y="107.759188" transform="rotate(-0, 372.297188, 107.759188)">6.63 %: g__C-53</text>
    </g>
    <g id="patch_14">
     <path d="M 341.497187 124.211063 
L 363.497187 124.211063 
L 363.497187 116.511063 
L 341.497187 116.511063 
z
" style="fill: #fb9a99; stroke: #fb9a99; stroke-linejoin: miter"/>
    </g>
    <g id="text_19">
     <text style="fill: #262626; font: 11px 'sans-serif'; text-anchor: start" x="372.297188" y="124.211063" transform="rotate(-0, 372.297188, 124.211063)">6.31 %: g__Duncaniella</text>
    </g>
    <g id="patch_15">
     <path d="M 341.497187 140.662938 
L 363.497187 140.662938 
L 363.497187 132.962938 
L 341.497187 132.962938 
z
" style="fill: #ff7f00; stroke: #ff7f00; stroke-linejoin: miter"/>
    </g>
    <g id="text_20">
     <text style="fill: #262626; font: 11px 'sans-serif'; text-anchor: start" x="372.297188" y="140.662938" transform="rotate(-0, 372.297188, 140.662938)">4.92 %: g__Suilimivivens</text>
    </g>
    <g id="patch_16">
     <path d="M 341.497187 157.114813 
L 363.497187 157.114813 
L 363.497187 149.414813 
L 341.497187 149.414813 
z
" style="fill: #e31a1c; stroke: #e31a1c; stroke-linejoin: miter"/>
    </g>
    <g id="text_21">
     <text style="fill: #262626; font: 11px 'sans-serif'; text-anchor: start" x="372.297188" y="157.114813" transform="rotate(-0, 372.297188, 157.114813)">4.68 %: g__UBA7173</text>
    </g>
    <g id="patch_17">
     <path d="M 341.497187 173.566688 
L 363.497187 173.566688 
L 363.497187 165.866688 
L 341.497187 165.866688 
z
" style="fill: #fdbf6f; stroke: #fdbf6f; stroke-linejoin: miter"/>
    </g>
    <g id="text_22">
     <text style="fill: #262626; font: 11px 'sans-serif'; text-anchor: start" x="372.297188" y="173.566688" transform="rotate(-0, 372.297188, 173.566688)">3.61 %: g__Muribaculum</text>
    </g>
    <g id="patch_18">
     <path d="M 341.497187 190.018563 
L 363.497187 190.018563 
L 363.497187 182.318563 
L 341.497187 182.318563 
z
" style="fill: #d95f02; stroke: #d95f02; stroke-linejoin: miter"/>
    </g>
    <g id="text_23">
     <text style="fill: #262626; font: 11px 'sans-serif'; text-anchor: start" x="372.297188" y="190.018563" transform="rotate(-0, 372.297188, 190.018563)">3.45 %: g__Petralouisia</text>
    </g>
    <g id="patch_19">
     <path d="M 341.497187 206.470438 
L 363.497187 206.470438 
L 363.497187 198.770438 
L 341.497187 198.770438 
z
" style="fill: #e7298a; stroke: #e7298a; stroke-linejoin: miter"/>
    </g>
    <g id="text_24">
     <text style="fill: #262626; font: 11px 'sans-serif'; text-anchor: start" x="372.297188" y="206.470438" transform="rotate(-0, 372.297188, 206.470438)">3.13 %: g__Alloprevotella</text>
    </g>
    <g id="patch_20">
     <path d="M 341.497187 222.922313 
L 363.497187 222.922313 
L 363.497187 215.222313 
L 341.497187 215.222313 
z
" style="fill: #e6ab02; stroke: #e6ab02; stroke-linejoin: miter"/>
    </g>
    <g id="text_25">
     <text style="fill: #262626; font: 11px 'sans-serif'; text-anchor: start" x="372.297188" y="222.922313" transform="rotate(-0, 372.297188, 222.922313)">2.90 %: g__Bacteroides_H_857956</text>
    </g>
    <g id="patch_21">
     <path d="M 341.497187 239.374188 
L 363.497187 239.374188 
L 363.497187 231.674188 
L 341.497187 231.674188 
z
" style="fill: #ffff99; stroke: #ffff99; stroke-linejoin: miter"/>
    </g>
    <g id="text_26">
     <text style="fill: #262626; font: 11px 'sans-serif'; text-anchor: start" x="372.297188" y="239.374188" transform="rotate(-0, 372.297188, 239.374188)">2.54 %: g__CAG-873</text>
    </g>
    <g id="patch_22">
     <path d="M 341.497187 255.826063 
L 363.497187 255.826063 
L 363.497187 248.126063 
L 341.497187 248.126063 
z
" style="fill: #b15928; stroke: #b15928; stroke-linejoin: miter"/>
    </g>
    <g id="text_27">
     <text style="fill: #262626; font: 11px 'sans-serif'; text-anchor: start" x="372.297188" y="255.826063" transform="rotate(-0, 372.297188, 255.826063)">2.10 %: g__Paramuribaculum</text>
    </g>
    <g id="patch_23">
     <path d="M 341.497187 272.277938 
L 363.497187 272.277938 
L 363.497187 264.577938 
L 341.497187 264.577938 
z
" style="fill: #66a61e; stroke: #66a61e; stroke-linejoin: miter"/>
    </g>
    <g id="text_28">
     <text style="fill: #262626; font: 11px 'sans-serif'; text-anchor: start" x="372.297188" y="272.277938" transform="rotate(-0, 372.297188, 272.277938)">1.59 %: g__Limosilactobacillus</text>
    </g>
    <g id="patch_24">
     <path d="M 341.497187 288.729813 
L 363.497187 288.729813 
L 363.497187 281.029813 
L 341.497187 281.029813 
z
" style="fill: #1f78b4; stroke: #1f78b4; stroke-linejoin: miter"/>
    </g>
    <g id="text_29">
     <text style="fill: #262626; font: 11px 'sans-serif'; text-anchor: start" x="372.297188" y="288.729813" transform="rotate(-0, 372.297188, 288.729813)">1.27 %: g__UBA3282</text>
    </g>
    <g id="patch_25">
     <path d="M 341.497187 305.181688 
L 363.497187 305.181688 
L 363.497187 297.481688 
L 341.497187 297.481688 
z
" style="fill: #b2df8a; stroke: #b2df8a; stroke-linejoin: miter"/>
    </g>
    <g id="text_30">
     <text style="fill: #262626; font: 11px 'sans-serif'; text-anchor: start" x="372.297188" y="305.181688" transform="rotate(-0, 372.297188, 305.181688)">1.03 %: g__UMGS1994</text>
    </g>
    <g id="patch_26">
     <path d="M 341.497187 321.633563 
L 363.497187 321.633563 
L 363.497187 313.933563 
L 341.497187 313.933563 
z
" style="fill: #7570b3; stroke: #7570b3; stroke-linejoin: miter"/>
    </g>
    <g id="text_31">
     <text style="fill: #262626; font: 11px 'sans-serif'; text-anchor: start" x="372.297188" y="321.633563" transform="rotate(-0, 372.297188, 321.633563)">0.95 %: g__Ligilactobacillus</text>
    </g>
    <g id="patch_27">
     <path d="M 341.497187 338.085438 
L 363.497187 338.085438 
L 363.497187 330.385438 
L 341.497187 330.385438 
z
" style="fill: #7570b3; stroke: #7570b3; stroke-linejoin: miter"/>
    </g>
    <g id="text_32">
     <text style="fill: #262626; font: 11px 'sans-serif'; text-anchor: start" x="372.297188" y="338.085438" transform="rotate(-0, 372.297188, 338.085438)">0.91 %: g__Alistipes_A_871400</text>
    </g>
    <g id="patch_28">
     <path d="M 341.497187 354.537313 
L 363.497187 354.537313 
L 363.497187 346.837313 
L 341.497187 346.837313 
z
" style="fill: #1b9e77; stroke: #1b9e77; stroke-linejoin: miter"/>
    </g>
    <g id="text_33">
     <text style="fill: #262626; font: 11px 'sans-serif'; text-anchor: start" x="372.297188" y="354.537313" transform="rotate(-0, 372.297188, 354.537313)">0.75 %: g__Kineothrix</text>
    </g>
    <g id="patch_29">
     <path d="M 341.497187 370.989188 
L 363.497187 370.989188 
L 363.497187 363.289188 
L 341.497187 363.289188 
z
" style="fill: #ccebc5; stroke: #ccebc5; stroke-linejoin: miter"/>
    </g>
    <g id="text_34">
     <text style="fill: #262626; font: 11px 'sans-serif'; text-anchor: start" x="372.297188" y="370.989188" transform="rotate(-0, 372.297188, 370.989188)">0.71 %: g__Luxibacter</text>
    </g>
    <g id="patch_30">
     <path d="M 341.497187 387.441062 
L 363.497187 387.441062 
L 363.497187 379.741062 
L 341.497187 379.741062 
z
" style="fill: #1f78b4; stroke: #1f78b4; stroke-linejoin: miter"/>
    </g>
    <g id="text_35">
     <text style="fill: #262626; font: 11px 'sans-serif'; text-anchor: start" x="372.297188" y="387.441062" transform="rotate(-0, 372.297188, 387.441062)">0.56 %: g__Enterocloster</text>
    </g>
    <g id="patch_31">
     <path d="M 341.497187 403.892937 
L 363.497187 403.892937 
L 363.497187 396.192937 
L 341.497187 396.192937 
z
" style="fill: #ff7f00; stroke: #ff7f00; stroke-linejoin: miter"/>
    </g>
    <g id="text_36">
     <text style="fill: #262626; font: 11px 'sans-serif'; text-anchor: start" x="372.297188" y="403.892937" transform="rotate(-0, 372.297188, 403.892937)">0.56 %: g__Prevotella</text>
    </g>
    <g id="patch_32">
     <path d="M 341.497187 420.344812 
L 363.497187 420.344812 
L 363.497187 412.644812 
L 341.497187 412.644812 
z
" style="fill: #6a3d9a; stroke: #6a3d9a; stroke-linejoin: miter"/>
    </g>
    <g id="text_37">
     <text style="fill: #262626; font: 11px 'sans-serif'; text-anchor: start" x="372.297188" y="420.344812" transform="rotate(-0, 372.297188, 420.344812)">0.48 %: g__Lactobacillus</text>
    </g>
    <g id="patch_33">
     <path d="M 341.497187 436.796687 
L 363.497187 436.796687 
L 363.497187 429.096687 
L 341.497187 429.096687 
z
" style="fill: #ccebc5; stroke: #ccebc5; stroke-linejoin: miter"/>
    </g>
    <g id="text_38">
     <text style="fill: #262626; font: 11px 'sans-serif'; text-anchor: start" x="372.297188" y="436.796687" transform="rotate(-0, 372.297188, 436.796687)">0.40 %: g__CAG-273</text>
    </g>
    <g id="patch_34">
     <path d="M 341.497187 453.248562 
L 363.497187 453.248562 
L 363.497187 445.548562 
L 341.497187 445.548562 
z
" style="fill: #ffffff; stroke: #ffffff; stroke-linejoin: miter"/>
    </g>
    <g id="text_39">
     <text style="fill: #262626; font: 11px 'sans-serif'; text-anchor: start" x="372.297188" y="453.248562" transform="rotate(-0, 372.297188, 453.248562)">5.60 %: low abundance</text>
    </g>
   </g>
  </g>
  <g id="axes_2">
   <g id="matplotlib.axis_3">
    <g id="xtick_7">
     <g id="line2d_19">
      <defs>
       <path id="m105be22712" d="M 0 0 
L 0 -6 
" style="stroke: #262626; stroke-width: 1.25"/>
      </defs>
      <g>
       <use xlink:href="#m105be22712" x="262.378616" y="39.663531" style="fill: #262626; stroke: #262626; stroke-width: 1.25"/>
      </g>
     </g>
     <g id="text_40">
      <text style="fill: #262626; font: 11px 'sans-serif'" transform="translate(247.031897 15.558281)">TCDD</text>
      <text style="fill: #262626; font: 11px 'sans-serif'" transform="translate(246.493069 27.875875)">(n=3)</text>
     </g>
    </g>
    <g id="xtick_8">
     <g id="line2d_20">
      <g>
       <use xlink:href="#m105be22712" x="116.235759" y="39.663531" style="fill: #262626; stroke: #262626; stroke-width: 1.25"/>
      </g>
     </g>
     <g id="text_41">
      <text style="fill: #262626; font: 11px 'sans-serif'" transform="translate(107.266462 15.558281)">ctrl</text>
      <text style="fill: #262626; font: 11px 'sans-serif'" transform="translate(100.350212 27.875875)">(n=3)</text>
     </g>
    </g>
   </g>
   <g id="patch_35">
    <path d="M 49.807188 372.303531 
L 49.807188 39.663531 
" style="fill: none; stroke: #ffffff; stroke-width: 1.25; stroke-linejoin: miter; stroke-linecap: square"/>
   </g>
   <g id="patch_36">
    <path d="M 328.807187 372.303531 
L 328.807187 39.663531 
" style="fill: none; stroke: #ffffff; stroke-width: 1.25; stroke-linejoin: miter; stroke-linecap: square"/>
   </g>
   <g id="patch_37">
    <path d="M 49.807188 372.303531 
L 328.807187 372.303531 
" style="fill: none; stroke: #ffffff; stroke-width: 1.25; stroke-linejoin: miter; stroke-linecap: square"/>
   </g>
   <g id="patch_38">
    <path d="M 49.807188 39.663531 
L 328.807187 39.663531 
" style="fill: none; stroke: #ffffff; stroke-width: 1.25; stroke-linejoin: miter; stroke-linecap: square"/>
   </g>
  </g>
 </g>
 <defs>
  <clipPath id="p759a076760">
   <rect x="49.807188" y="39.663531" width="279" height="332.64"/>
  </clipPath>
 </defs>
</svg>
