<?xml version="1.0" encoding="utf-8" standalone="no"?>
<!DOCTYPE svg PUBLIC "-//W3C//DTD SVG 1.1//EN"
  "http://www.w3.org/Graphics/SVG/1.1/DTD/svg11.dtd">
<svg xmlns:xlink="http://www.w3.org/1999/xlink" width="673.998125pt" height="648.506531pt" viewBox="0 0 673.998125 648.506531" xmlns="http://www.w3.org/2000/svg" version="1.1">
 <metadata>
  <rdf:RDF xmlns:dc="http://purl.org/dc/elements/1.1/" xmlns:cc="http://creativecommons.org/ns#" xmlns:rdf="http://www.w3.org/1999/02/22-rdf-syntax-ns#">
   <cc:Work>
    <dc:type rdf:resource="http://purl.org/dc/dcmitype/StillImage"/>
    <dc:date>2025-02-20T16:03:23.238550</dc:date>
    <dc:format>image/svg+xml</dc:format>
    <dc:creator>
     <cc:Agent>
      <dc:title>Matplotlib v3.5.3, https://matplotlib.org/</dc:title>
     </cc:Agent>
    </dc:creator>
   </cc:Work>
  </rdf:RDF>
 </metadata>
 <defs>
  <style type="text/css">*{stroke-linejoin: round; stroke-linecap: butt}</style>
 </defs>
 <g id="figure_1">
  <g id="patch_1">
   <path d="M 0 648.506531 
L 673.998125 648.506531 
L 673.998125 0 
L 0 0 
z
" style="fill: #ffffff"/>
  </g>
  <g id="axes_1">
   <g id="patch_2">
    <path d="M 60.30875 372.303531 
L 339.30875 372.303531 
L 339.30875 39.663531 
L 60.30875 39.663531 
z
" style="fill: #ffffff"/>
   </g>
   <g id="matplotlib.axis_1">
    <g id="xtick_1">
     <g id="line2d_1">
      <path d="M 82.451607 372.303531 
L 82.451607 39.663531 
" clip-path="url(#ped972b6a25)" style="fill: none; stroke: #ffffff; stroke-linecap: round"/>
     </g>
     <g id="line2d_2">
      <defs>
       <path id="mc580774f80" d="M 0 0 
L 0 6 
" style="stroke: #262626; stroke-width: 1.25"/>
      </defs>
      <g>
       <use xlink:href="#mc580774f80" x="82.451607" y="372.303531" style="fill: #262626; stroke: #262626; stroke-width: 1.25"/>
      </g>
     </g>
     <g id="text_1">
      <text style="fill: #262626; font: 11px 'sans-serif'" transform="translate(85.48692 499.484625)rotate(-90)">15900.s325.1.S325.1</text>
     </g>
    </g>
    <g id="xtick_2">
     <g id="line2d_3">
      <path d="M 126.737321 372.303531 
L 126.737321 39.663531 
" clip-path="url(#ped972b6a25)" style="fill: none; stroke: #ffffff; stroke-linecap: round"/>
     </g>
     <g id="line2d_4">
      <g>
       <use xlink:href="#mc580774f80" x="126.737321" y="372.303531" style="fill: #262626; stroke: #262626; stroke-width: 1.25"/>
      </g>
     </g>
     <g id="text_2">
      <text style="fill: #262626; font: 11px 'sans-serif'" transform="translate(129.772634 499.484625)rotate(-90)">15900.s326.1.S326.1</text>
     </g>
    </g>
    <g id="xtick_3">
     <g id="line2d_5">
      <path d="M 171.023036 372.303531 
L 171.023036 39.663531 
" clip-path="url(#ped972b6a25)" style="fill: none; stroke: #ffffff; stroke-linecap: round"/>
     </g>
     <g id="line2d_6">
      <g>
       <use xlink:href="#mc580774f80" x="171.023036" y="372.303531" style="fill: #262626; stroke: #262626; stroke-width: 1.25"/>
      </g>
     </g>
     <g id="text_3">
      <text style="fill: #262626; font: 11px 'sans-serif'" transform="translate(174.058348 499.484625)rotate(-90)">15900.s327.1.S327.1</text>
     </g>
    </g>
    <g id="xtick_4">
     <g id="line2d_7">
      <path d="M 228.594464 372.303531 
L 228.594464 39.663531 
" clip-path="url(#ped972b6a25)" style="fill: none; stroke: #ffffff; stroke-linecap: round"/>
     </g>
     <g id="line2d_8">
      <g>
       <use xlink:href="#mc580774f80" x="228.594464" y="372.303531" style="fill: #262626; stroke: #262626; stroke-width: 1.25"/>
      </g>
     </g>
     <g id="text_4">
      <text style="fill: #262626; font: 11px 'sans-serif'" transform="translate(231.629777 499.484625)rotate(-90)">15900.s328.1.S328.1</text>
     </g>
    </g>
    <g id="xtick_5">
     <g id="line2d_9">
      <path d="M 272.880179 372.303531 
L 272.880179 39.663531 
" clip-path="url(#ped972b6a25)" style="fill: none; stroke: #ffffff; stroke-linecap: round"/>
     </g>
     <g id="line2d_10">
      <g>
       <use xlink:href="#mc580774f80" x="272.880179" y="372.303531" style="fill: #262626; stroke: #262626; stroke-width: 1.25"/>
      </g>
     </g>
     <g id="text_5">
      <text style="fill: #262626; font: 11px 'sans-serif'" transform="translate(275.915491 499.484625)rotate(-90)">15900.s329.1.S329.1</text>
     </g>
    </g>
    <g id="xtick_6">
     <g id="line2d_11">
      <path d="M 317.165893 372.303531 
L 317.165893 39.663531 
" clip-path="url(#ped972b6a25)" style="fill: none; stroke: #ffffff; stroke-linecap: round"/>
     </g>
     <g id="line2d_12">
      <g>
       <use xlink:href="#mc580774f80" x="317.165893" y="372.303531" style="fill: #262626; stroke: #262626; stroke-width: 1.25"/>
      </g>
     </g>
     <g id="text_6">
      <text style="fill: #262626; font: 11px 'sans-serif'" transform="translate(320.201205 499.484625)rotate(-90)">15900.s330.1.S330.1</text>
     </g>
    </g>
   </g>
   <g id="matplotlib.axis_2">
    <g id="ytick_1">
     <g id="line2d_13">
      <path d="M 60.30875 372.303531 
L 339.30875 372.303531 
" clip-path="url(#ped972b6a25)" style="fill: none; stroke: #ffffff; stroke-linecap: round"/>
     </g>
     <g id="text_7">
      <text style="fill: #262626; font: 11px 'sans-serif'; text-anchor: end" x="50.80875" y="376.482672" transform="rotate(-0, 50.80875, 376.482672)">0</text>
     </g>
    </g>
    <g id="ytick_2">
     <g id="line2d_14">
      <path d="M 60.30875 332.599545 
L 339.30875 332.599545 
" clip-path="url(#ped972b6a25)" style="fill: none; stroke: #ffffff; stroke-linecap: round"/>
     </g>
     <g id="text_8">
      <text style="fill: #262626; font: 11px 'sans-serif'; text-anchor: end" x="50.80875" y="336.778685" transform="rotate(-0, 50.80875, 336.778685)">500</text>
     </g>
    </g>
    <g id="ytick_3">
     <g id="line2d_15">
      <path d="M 60.30875 292.895558 
L 339.30875 292.895558 
" clip-path="url(#ped972b6a25)" style="fill: none; stroke: #ffffff; stroke-linecap: round"/>
     </g>
     <g id="text_9">
      <text style="fill: #262626; font: 11px 'sans-serif'; text-anchor: end" x="50.80875" y="297.074699" transform="rotate(-0, 50.80875, 297.074699)">1000</text>
     </g>
    </g>
    <g id="ytick_4">
     <g id="line2d_16">
      <path d="M 60.30875 253.191571 
L 339.30875 253.191571 
" clip-path="url(#ped972b6a25)" style="fill: none; stroke: #ffffff; stroke-linecap: round"/>
     </g>
     <g id="text_10">
      <text style="fill: #262626; font: 11px 'sans-serif'; text-anchor: end" x="50.80875" y="257.370712" transform="rotate(-0, 50.80875, 257.370712)">1500</text>
     </g>
    </g>
    <g id="ytick_5">
     <g id="line2d_17">
      <path d="M 60.30875 213.487585 
L 339.30875 213.487585 
" clip-path="url(#ped972b6a25)" style="fill: none; stroke: #ffffff; stroke-linecap: round"/>
     </g>
     <g id="text_11">
      <text style="fill: #262626; font: 11px 'sans-serif'; text-anchor: end" x="50.80875" y="217.666725" transform="rotate(-0, 50.80875, 217.666725)">2000</text>
     </g>
    </g>
    <g id="ytick_6">
     <g id="line2d_18">
      <path d="M 60.30875 173.783598 
L 339.30875 173.783598 
" clip-path="url(#ped972b6a25)" style="fill: none; stroke: #ffffff; stroke-linecap: round"/>
     </g>
     <g id="text_12">
      <text style="fill: #262626; font: 11px 'sans-serif'; text-anchor: end" x="50.80875" y="177.962739" transform="rotate(-0, 50.80875, 177.962739)">2500</text>
     </g>
    </g>
    <g id="ytick_7">
     <g id="line2d_19">
      <path d="M 60.30875 134.079611 
L 339.30875 134.079611 
" clip-path="url(#ped972b6a25)" style="fill: none; stroke: #ffffff; stroke-linecap: round"/>
     </g>
     <g id="text_13">
      <text style="fill: #262626; font: 11px 'sans-serif'; text-anchor: end" x="50.80875" y="138.258752" transform="rotate(-0, 50.80875, 138.258752)">3000</text>
     </g>
    </g>
    <g id="ytick_8">
     <g id="line2d_20">
      <path d="M 60.30875 94.375625 
L 339.30875 94.375625 
" clip-path="url(#ped972b6a25)" style="fill: none; stroke: #ffffff; stroke-linecap: round"/>
     </g>
     <g id="text_14">
      <text style="fill: #262626; font: 11px 'sans-serif'; text-anchor: end" x="50.80875" y="98.554765" transform="rotate(-0, 50.80875, 98.554765)">3500</text>
     </g>
    </g>
    <g id="ytick_9">
     <g id="line2d_21">
      <path d="M 60.30875 54.671638 
L 339.30875 54.671638 
" clip-path="url(#ped972b6a25)" style="fill: none; stroke: #ffffff; stroke-linecap: round"/>
     </g>
     <g id="text_15">
      <text style="fill: #262626; font: 11px 'sans-serif'; text-anchor: end" x="50.80875" y="58.850779" transform="rotate(-0, 50.80875, 58.850779)">4000</text>
     </g>
    </g>
    <g id="text_16">
     <text style="fill: #262626; font: 12px 'sans-serif'; text-anchor: middle" x="16.318125" y="205.983531" transform="rotate(-90, 16.318125, 205.983531)">absolute abundance</text>
    </g>
   </g>
   <g id="PolyCollection_1">
    <defs>
     <path id="m9736b5b66c" d="M 206.451607 -294.22861 
L 206.451607 -276.203 
L 250.737321 -276.203 
L 250.737321 -276.203 
L 295.023036 -276.203 
L 295.023036 -276.203 
L 339.30875 -276.203 
L 339.30875 -291.052291 
L 339.30875 -291.052291 
L 295.023036 -291.052291 
L 295.023036 -302.963487 
L 250.737321 -302.963487 
L 250.737321 -294.22861 
L 206.451607 -294.22861 
z
"/>
    </defs>
    <g clip-path="url(#ped972b6a25)">
     <use xlink:href="#m9736b5b66c" x="0" y="648.506531" style="fill: #1f78b4"/>
    </g>
   </g>
   <g id="PolyCollection_2">
    <defs>
     <path id="m397d583151" d="M 60.30875 -415.881625 
L 60.30875 -276.203 
L 104.594464 -276.203 
L 104.594464 -276.203 
L 148.880179 -276.203 
L 148.880179 -276.203 
L 193.165893 -276.203 
L 193.165893 -389.279954 
L 193.165893 -389.279954 
L 148.880179 -389.279954 
L 148.880179 -347.749584 
L 104.594464 -347.749584 
L 104.594464 -415.881625 
L 60.30875 -415.881625 
z
"/>
    </defs>
    <g clip-path="url(#ped972b6a25)">
     <use xlink:href="#m397d583151" x="0" y="648.506531" style="fill: #1f78b4"/>
    </g>
   </g>
   <g id="PolyCollection_3">
    <defs>
     <path id="mf13e6c875b" d="M 206.451607 -328.612262 
L 206.451607 -294.22861 
L 250.737321 -294.22861 
L 250.737321 -302.963487 
L 295.023036 -302.963487 
L 295.023036 -291.052291 
L 339.30875 -291.052291 
L 339.30875 -307.330926 
L 339.30875 -307.330926 
L 295.023036 -307.330926 
L 295.023036 -345.923201 
L 250.737321 -345.923201 
L 250.737321 -328.612262 
L 206.451607 -328.612262 
z
"/>
    </defs>
    <g clip-path="url(#ped972b6a25)">
     <use xlink:href="#mf13e6c875b" x="0" y="648.506531" style="fill: #b2df8a"/>
    </g>
   </g>
   <g id="PolyCollection_4">
    <defs>
     <path id="m0f0ef8f82f" d="M 60.30875 -519.667846 
L 60.30875 -415.881625 
L 104.594464 -415.881625 
L 104.594464 -347.749584 
L 148.880179 -347.749584 
L 148.880179 -389.279954 
L 193.165893 -389.279954 
L 193.165893 -451.615213 
L 193.165893 -451.615213 
L 148.880179 -451.615213 
L 148.880179 -469.084967 
L 104.594464 -469.084967 
L 104.594464 -519.667846 
L 60.30875 -519.667846 
z
"/>
    </defs>
    <g clip-path="url(#ped972b6a25)">
     <use xlink:href="#m0f0ef8f82f" x="0" y="648.506531" style="fill: #b2df8a"/>
    </g>
   </g>
   <g id="PolyCollection_5">
    <defs>
     <path id="m2013b64edf" d="M 206.451607 -330.438646 
L 206.451607 -328.612262 
L 250.737321 -328.612262 
L 250.737321 -345.923201 
L 295.023036 -345.923201 
L 295.023036 -307.330926 
L 339.30875 -307.330926 
L 339.30875 -309.236717 
L 339.30875 -309.236717 
L 295.023036 -309.236717 
L 295.023036 -358.628476 
L 250.737321 -358.628476 
L 250.737321 -330.438646 
L 206.451607 -330.438646 
z
"/>
    </defs>
    <g clip-path="url(#ped972b6a25)">
     <use xlink:href="#m2013b64edf" x="0" y="648.506531" style="fill: #fb9a99"/>
    </g>
   </g>
   <g id="PolyCollection_6">
    <defs>
     <path id="m1f69c284ce" d="M 60.30875 -529.752659 
L 60.30875 -519.667846 
L 104.594464 -519.667846 
L 104.594464 -469.084967 
L 148.880179 -469.084967 
L 148.880179 -451.615213 
L 193.165893 -451.615213 
L 193.165893 -465.4322 
L 193.165893 -465.4322 
L 148.880179 -465.4322 
L 148.880179 -483.537218 
L 104.594464 -483.537218 
L 104.594464 -529.752659 
L 60.30875 -529.752659 
z
"/>
    </defs>
    <g clip-path="url(#ped972b6a25)">
     <use xlink:href="#m1f69c284ce" x="0" y="648.506531" style="fill: #fb9a99"/>
    </g>
   </g>
   <g id="PolyCollection_7">
    <defs>
     <path id="mdc4b01fe5b" d="M 206.451607 -330.835686 
L 206.451607 -330.438646 
L 250.737321 -330.438646 
L 250.737321 -358.628476 
L 295.023036 -358.628476 
L 295.023036 -309.236717 
L 339.30875 -309.236717 
L 339.30875 -309.474941 
L 339.30875 -309.474941 
L 295.023036 -309.474941 
L 295.023036 -361.328347 
L 250.737321 -361.328347 
L 250.737321 -330.835686 
L 206.451607 -330.835686 
z
"/>
    </defs>
    <g clip-path="url(#ped972b6a25)">
     <use xlink:href="#mdc4b01fe5b" x="0" y="648.506531" style="fill: #e31a1c"/>
    </g>
   </g>
   <g id="PolyCollection_8">
    <defs>
     <path id="m963d9130e4" d="M 60.30875 -553.098603 
L 60.30875 -529.752659 
L 104.594464 -529.752659 
L 104.594464 -483.537218 
L 148.880179 -483.537218 
L 148.880179 -465.4322 
L 193.165893 -465.4322 
L 193.165893 -470.434903 
L 193.165893 -470.434903 
L 148.880179 -470.434903 
L 148.880179 -496.560126 
L 104.594464 -496.560126 
L 104.594464 -553.098603 
L 60.30875 -553.098603 
z
"/>
    </defs>
    <g clip-path="url(#ped972b6a25)">
     <use xlink:href="#m963d9130e4" x="0" y="648.506531" style="fill: #e31a1c"/>
    </g>
   </g>
   <g id="PolyCollection_9">
    <defs>
     <path id="mbcb60107e4" d="M 206.451607 -330.835686 
L 206.451607 -330.835686 
L 250.737321 -330.835686 
L 250.737321 -361.328347 
L 295.023036 -361.328347 
L 295.023036 -309.474941 
L 339.30875 -309.474941 
L 339.30875 -309.474941 
L 339.30875 -309.474941 
L 295.023036 -309.474941 
L 295.023036 -362.043019 
L 250.737321 -362.043019 
L 250.737321 -330.835686 
L 206.451607 -330.835686 
z
"/>
    </defs>
    <g clip-path="url(#ped972b6a25)">
     <use xlink:href="#mbcb60107e4" x="0" y="648.506531" style="fill: #b15928"/>
    </g>
   </g>
   <g id="PolyCollection_10">
    <defs>
     <path id="mbbd11c8057" d="M 60.30875 -574.300532 
L 60.30875 -553.098603 
L 104.594464 -553.098603 
L 104.594464 -496.560126 
L 148.880179 -496.560126 
L 148.880179 -470.434903 
L 193.165893 -470.434903 
L 193.165893 -473.69063 
L 193.165893 -473.69063 
L 148.880179 -473.69063 
L 148.880179 -513.63284 
L 104.594464 -513.63284 
L 104.594464 -574.300532 
L 60.30875 -574.300532 
z
"/>
    </defs>
    <g clip-path="url(#ped972b6a25)">
     <use xlink:href="#mbbd11c8057" x="0" y="648.506531" style="fill: #b15928"/>
    </g>
   </g>
   <g id="PolyCollection_11">
    <defs>
     <path id="m817aa2a1a5" d="M 206.451607 -331.550357 
L 206.451607 -330.835686 
L 250.737321 -330.835686 
L 250.737321 -362.043019 
L 295.023036 -362.043019 
L 295.023036 -309.474941 
L 339.30875 -309.474941 
L 339.30875 -309.951389 
L 339.30875 -309.951389 
L 295.023036 -309.951389 
L 295.023036 -363.710587 
L 250.737321 -363.710587 
L 250.737321 -331.550357 
L 206.451607 -331.550357 
z
"/>
    </defs>
    <g clip-path="url(#ped972b6a25)">
     <use xlink:href="#m817aa2a1a5" x="0" y="648.506531" style="fill: #fdbf6f"/>
    </g>
   </g>
   <g id="PolyCollection_12">
    <defs>
     <path id="m014729699e" d="M 60.30875 -581.923697 
L 60.30875 -574.300532 
L 104.594464 -574.300532 
L 104.594464 -513.63284 
L 148.880179 -513.63284 
L 148.880179 -473.69063 
L 193.165893 -473.69063 
L 193.165893 -480.519715 
L 193.165893 -480.519715 
L 148.880179 -480.519715 
L 148.880179 -520.938374 
L 104.594464 -520.938374 
L 104.594464 -581.923697 
L 60.30875 -581.923697 
z
"/>
    </defs>
    <g clip-path="url(#ped972b6a25)">
     <use xlink:href="#m014729699e" x="0" y="648.506531" style="fill: #fdbf6f"/>
    </g>
   </g>
   <g id="PolyCollection_13">
    <defs>
     <path id="m4b9f1cd91a" d="M 206.451607 -331.709173 
L 206.451607 -331.550357 
L 250.737321 -331.550357 
L 250.737321 -363.710587 
L 295.023036 -363.710587 
L 295.023036 -309.951389 
L 339.30875 -309.951389 
L 339.30875 -309.951389 
L 339.30875 -309.951389 
L 295.023036 -309.951389 
L 295.023036 -364.425258 
L 250.737321 -364.425258 
L 250.737321 -331.709173 
L 206.451607 -331.709173 
z
"/>
    </defs>
    <g clip-path="url(#ped972b6a25)">
     <use xlink:href="#m4b9f1cd91a" x="0" y="648.506531" style="fill: #ffff99"/>
    </g>
   </g>
   <g id="PolyCollection_14">
    <defs>
     <path id="m768e57768a" d="M 60.30875 -584.623568 
L 60.30875 -581.923697 
L 104.594464 -581.923697 
L 104.594464 -520.938374 
L 148.880179 -520.938374 
L 148.880179 -480.519715 
L 193.165893 -480.519715 
L 193.165893 -481.154979 
L 193.165893 -481.154979 
L 148.880179 -481.154979 
L 148.880179 -525.067588 
L 104.594464 -525.067588 
L 104.594464 -584.623568 
L 60.30875 -584.623568 
z
"/>
    </defs>
    <g clip-path="url(#ped972b6a25)">
     <use xlink:href="#m768e57768a" x="0" y="648.506531" style="fill: #ffff99"/>
    </g>
   </g>
   <g id="PolyCollection_15">
    <defs>
     <path id="m4e100c73f8" d="M 206.451607 -332.106213 
L 206.451607 -331.709173 
L 250.737321 -331.709173 
L 250.737321 -364.425258 
L 295.023036 -364.425258 
L 295.023036 -309.951389 
L 339.30875 -309.951389 
L 339.30875 -310.110205 
L 339.30875 -310.110205 
L 295.023036 -310.110205 
L 295.023036 -364.663482 
L 250.737321 -364.663482 
L 250.737321 -332.106213 
L 206.451607 -332.106213 
z
"/>
    </defs>
    <g clip-path="url(#ped972b6a25)">
     <use xlink:href="#m4e100c73f8" x="0" y="648.506531" style="fill: #33a02c"/>
    </g>
   </g>
   <g id="PolyCollection_16">
    <defs>
     <path id="m1675704efd" d="M 60.30875 -586.370544 
L 60.30875 -584.623568 
L 104.594464 -584.623568 
L 104.594464 -525.067588 
L 148.880179 -525.067588 
L 148.880179 -481.154979 
L 193.165893 -481.154979 
L 193.165893 -483.537218 
L 193.165893 -483.537218 
L 148.880179 -483.537218 
L 148.880179 -528.323315 
L 104.594464 -528.323315 
L 104.594464 -586.370544 
L 60.30875 -586.370544 
z
"/>
    </defs>
    <g clip-path="url(#ped972b6a25)">
     <use xlink:href="#m1675704efd" x="0" y="648.506531" style="fill: #33a02c"/>
    </g>
   </g>
   <g id="PolyCollection_17">
    <defs>
     <path id="m8dba79e2fb" d="M 206.451607 -332.265029 
L 206.451607 -332.106213 
L 250.737321 -332.106213 
L 250.737321 -364.663482 
L 295.023036 -364.663482 
L 295.023036 -310.110205 
L 339.30875 -310.110205 
L 339.30875 -310.745468 
L 339.30875 -310.745468 
L 295.023036 -310.745468 
L 295.023036 -365.93401 
L 250.737321 -365.93401 
L 250.737321 -332.265029 
L 206.451607 -332.265029 
z
"/>
    </defs>
    <g clip-path="url(#ped972b6a25)">
     <use xlink:href="#m8dba79e2fb" x="0" y="648.506531" style="fill: #6a3d9a"/>
    </g>
   </g>
   <g id="PolyCollection_18">
    <defs>
     <path id="ma207893f2b" d="M 60.30875 -589.388047 
L 60.30875 -586.370544 
L 104.594464 -586.370544 
L 104.594464 -528.323315 
L 148.880179 -528.323315 
L 148.880179 -483.537218 
L 193.165893 -483.537218 
L 193.165893 -484.172482 
L 193.165893 -484.172482 
L 148.880179 -484.172482 
L 148.880179 -530.546738 
L 104.594464 -530.546738 
L 104.594464 -589.388047 
L 60.30875 -589.388047 
z
"/>
    </defs>
    <g clip-path="url(#ped972b6a25)">
     <use xlink:href="#ma207893f2b" x="0" y="648.506531" style="fill: #6a3d9a"/>
    </g>
   </g>
   <g id="PolyCollection_19">
    <defs>
     <path id="mdc53a8d63d" d="M 206.451607 -332.265029 
L 206.451607 -332.265029 
L 250.737321 -332.265029 
L 250.737321 -365.93401 
L 295.023036 -365.93401 
L 295.023036 -310.745468 
L 339.30875 -310.745468 
L 339.30875 -310.904284 
L 339.30875 -310.904284 
L 295.023036 -310.904284 
L 295.023036 -366.966313 
L 250.737321 -366.966313 
L 250.737321 -332.265029 
L 206.451607 -332.265029 
z
"/>
    </defs>
    <g clip-path="url(#ped972b6a25)">
     <use xlink:href="#mdc53a8d63d" x="0" y="648.506531" style="fill: #cab2d6"/>
    </g>
   </g>
   <g id="PolyCollection_20">
    <defs>
     <path id="mf1ef391140" d="M 60.30875 -592.167326 
L 60.30875 -589.388047 
L 104.594464 -589.388047 
L 104.594464 -530.546738 
L 148.880179 -530.546738 
L 148.880179 -484.172482 
L 193.165893 -484.172482 
L 193.165893 -484.728338 
L 193.165893 -484.728338 
L 148.880179 -484.728338 
L 148.880179 -533.564241 
L 104.594464 -533.564241 
L 104.594464 -592.167326 
L 60.30875 -592.167326 
z
"/>
    </defs>
    <g clip-path="url(#ped972b6a25)">
     <use xlink:href="#mf1ef391140" x="0" y="648.506531" style="fill: #cab2d6"/>
    </g>
   </g>
   <g id="PolyCollection_21">
    <defs>
     <path id="m8f5d945f04" d="M 206.451607 -332.820885 
L 206.451607 -332.265029 
L 250.737321 -332.265029 
L 250.737321 -366.966313 
L 295.023036 -366.966313 
L 295.023036 -310.904284 
L 339.30875 -310.904284 
L 339.30875 -311.46014 
L 339.30875 -311.46014 
L 295.023036 -311.46014 
L 295.023036 -366.966313 
L 250.737321 -366.966313 
L 250.737321 -332.820885 
L 206.451607 -332.820885 
z
"/>
    </defs>
    <g clip-path="url(#ped972b6a25)">
     <use xlink:href="#m8f5d945f04" x="0" y="648.506531" style="fill: #b2df8a"/>
    </g>
   </g>
   <g id="PolyCollection_22">
    <defs>
     <path id="mcf24f9faea" d="M 60.30875 -594.946605 
L 60.30875 -592.167326 
L 104.594464 -592.167326 
L 104.594464 -533.564241 
L 148.880179 -533.564241 
L 148.880179 -484.728338 
L 193.165893 -484.728338 
L 193.165893 -485.363602 
L 193.165893 -485.363602 
L 148.880179 -485.363602 
L 148.880179 -535.231809 
L 104.594464 -535.231809 
L 104.594464 -594.946605 
L 60.30875 -594.946605 
z
"/>
    </defs>
    <g clip-path="url(#ped972b6a25)">
     <use xlink:href="#mcf24f9faea" x="0" y="648.506531" style="fill: #b2df8a"/>
    </g>
   </g>
   <g id="PolyCollection_23">
    <defs>
     <path id="m183d2c2ff9" d="M 206.451607 -332.979701 
L 206.451607 -332.820885 
L 250.737321 -332.820885 
L 250.737321 -366.966313 
L 295.023036 -366.966313 
L 295.023036 -311.46014 
L 339.30875 -311.46014 
L 339.30875 -311.698364 
L 339.30875 -311.698364 
L 295.023036 -311.698364 
L 295.023036 -367.283945 
L 250.737321 -367.283945 
L 250.737321 -332.979701 
L 206.451607 -332.979701 
z
"/>
    </defs>
    <g clip-path="url(#ped972b6a25)">
     <use xlink:href="#m183d2c2ff9" x="0" y="648.506531" style="fill: #666666"/>
    </g>
   </g>
   <g id="PolyCollection_24">
    <defs>
     <path id="m006741a432" d="M 60.30875 -595.105421 
L 60.30875 -594.946605 
L 104.594464 -594.946605 
L 104.594464 -535.231809 
L 148.880179 -535.231809 
L 148.880179 -485.363602 
L 193.165893 -485.363602 
L 193.165893 -485.919457 
L 193.165893 -485.919457 
L 148.880179 -485.919457 
L 148.880179 -538.169904 
L 104.594464 -538.169904 
L 104.594464 -595.105421 
L 60.30875 -595.105421 
z
"/>
    </defs>
    <g clip-path="url(#ped972b6a25)">
     <use xlink:href="#m006741a432" x="0" y="648.506531" style="fill: #666666"/>
    </g>
   </g>
   <g id="PolyCollection_25">
    <defs>
     <path id="m6583e778ea" d="M 206.451607 -332.979701 
L 206.451607 -332.979701 
L 250.737321 -332.979701 
L 250.737321 -367.283945 
L 295.023036 -367.283945 
L 295.023036 -311.698364 
L 339.30875 -311.698364 
L 339.30875 -311.698364 
L 339.30875 -311.698364 
L 295.023036 -311.698364 
L 295.023036 -367.283945 
L 250.737321 -367.283945 
L 250.737321 -332.979701 
L 206.451607 -332.979701 
z
"/>
    </defs>
    <g clip-path="url(#ped972b6a25)">
     <use xlink:href="#m6583e778ea" x="0" y="648.506531" style="fill: #7570b3"/>
    </g>
   </g>
   <g id="PolyCollection_26">
    <defs>
     <path id="m1f1fdfa31d" d="M 60.30875 -598.28174 
L 60.30875 -595.105421 
L 104.594464 -595.105421 
L 104.594464 -538.169904 
L 148.880179 -538.169904 
L 148.880179 -485.919457 
L 193.165893 -485.919457 
L 193.165893 -485.919457 
L 193.165893 -485.919457 
L 148.880179 -485.919457 
L 148.880179 -538.805168 
L 104.594464 -538.805168 
L 104.594464 -598.28174 
L 60.30875 -598.28174 
z
"/>
    </defs>
    <g clip-path="url(#ped972b6a25)">
     <use xlink:href="#m1f1fdfa31d" x="0" y="648.506531" style="fill: #7570b3"/>
    </g>
   </g>
   <g id="PolyCollection_27">
    <defs>
     <path id="m7f8c2f3cb7" d="M 206.451607 -332.979701 
L 206.451607 -332.979701 
L 250.737321 -332.979701 
L 250.737321 -367.283945 
L 295.023036 -367.283945 
L 295.023036 -311.698364 
L 339.30875 -311.698364 
L 339.30875 -311.698364 
L 339.30875 -311.698364 
L 295.023036 -311.698364 
L 295.023036 -367.283945 
L 250.737321 -367.283945 
L 250.737321 -332.979701 
L 206.451607 -332.979701 
z
"/>
    </defs>
    <g clip-path="url(#ped972b6a25)">
     <use xlink:href="#m7f8c2f3cb7" x="0" y="648.506531" style="fill: #fed9a6"/>
    </g>
   </g>
   <g id="PolyCollection_28">
    <defs>
     <path id="m803fa60b2c" d="M 60.30875 -598.440556 
L 60.30875 -598.28174 
L 104.594464 -598.28174 
L 104.594464 -538.805168 
L 148.880179 -538.805168 
L 148.880179 -485.919457 
L 193.165893 -485.919457 
L 193.165893 -486.316497 
L 193.165893 -486.316497 
L 148.880179 -486.316497 
L 148.880179 -541.822671 
L 104.594464 -541.822671 
L 104.594464 -598.440556 
L 60.30875 -598.440556 
z
"/>
    </defs>
    <g clip-path="url(#ped972b6a25)">
     <use xlink:href="#m803fa60b2c" x="0" y="648.506531" style="fill: #fed9a6"/>
    </g>
   </g>
   <g id="PolyCollection_29">
    <defs>
     <path id="mdb95ef6952" d="M 206.451607 -332.979701 
L 206.451607 -332.979701 
L 250.737321 -332.979701 
L 250.737321 -367.283945 
L 295.023036 -367.283945 
L 295.023036 -311.698364 
L 339.30875 -311.698364 
L 339.30875 -311.698364 
L 339.30875 -311.698364 
L 295.023036 -311.698364 
L 295.023036 -367.283945 
L 250.737321 -367.283945 
L 250.737321 -332.979701 
L 206.451607 -332.979701 
z
"/>
    </defs>
    <g clip-path="url(#ped972b6a25)">
     <use xlink:href="#mdb95ef6952" x="0" y="648.506531" style="fill: #d95f02"/>
    </g>
   </g>
   <g id="PolyCollection_30">
    <defs>
     <path id="m2977130efb" d="M 60.30875 -601.696282 
L 60.30875 -598.440556 
L 104.594464 -598.440556 
L 104.594464 -541.822671 
L 148.880179 -541.822671 
L 148.880179 -486.316497 
L 193.165893 -486.316497 
L 193.165893 -486.316497 
L 193.165893 -486.316497 
L 148.880179 -486.316497 
L 148.880179 -541.981487 
L 104.594464 -541.981487 
L 104.594464 -601.696282 
L 60.30875 -601.696282 
z
"/>
    </defs>
    <g clip-path="url(#ped972b6a25)">
     <use xlink:href="#m2977130efb" x="0" y="648.506531" style="fill: #d95f02"/>
    </g>
   </g>
   <g id="PolyCollection_31">
    <defs>
     <path id="m18b4fc9596" d="M 206.451607 -332.979701 
L 206.451607 -332.979701 
L 250.737321 -332.979701 
L 250.737321 -367.283945 
L 295.023036 -367.283945 
L 295.023036 -311.698364 
L 339.30875 -311.698364 
L 339.30875 -311.698364 
L 339.30875 -311.698364 
L 295.023036 -311.698364 
L 295.023036 -367.283945 
L 250.737321 -367.283945 
L 250.737321 -332.979701 
L 206.451607 -332.979701 
z
"/>
    </defs>
    <g clip-path="url(#ped972b6a25)">
     <use xlink:href="#m18b4fc9596" x="0" y="648.506531" style="fill: #e5d8bd"/>
    </g>
   </g>
   <g id="PolyCollection_32">
    <defs>
     <path id="m2f0bfc554e" d="M 60.30875 -604.316746 
L 60.30875 -601.696282 
L 104.594464 -601.696282 
L 104.594464 -541.981487 
L 148.880179 -541.981487 
L 148.880179 -486.316497 
L 193.165893 -486.316497 
L 193.165893 -486.316497 
L 193.165893 -486.316497 
L 148.880179 -486.316497 
L 148.880179 -542.140302 
L 104.594464 -542.140302 
L 104.594464 -604.316746 
L 60.30875 -604.316746 
z
"/>
    </defs>
    <g clip-path="url(#ped972b6a25)">
     <use xlink:href="#m2f0bfc554e" x="0" y="648.506531" style="fill: #e5d8bd"/>
    </g>
   </g>
   <g id="PolyCollection_33">
    <defs>
     <path id="m2530a31507" d="M 206.451607 -332.979701 
L 206.451607 -332.979701 
L 250.737321 -332.979701 
L 250.737321 -367.283945 
L 295.023036 -367.283945 
L 295.023036 -311.698364 
L 339.30875 -311.698364 
L 339.30875 -311.698364 
L 339.30875 -311.698364 
L 295.023036 -311.698364 
L 295.023036 -367.283945 
L 250.737321 -367.283945 
L 250.737321 -332.979701 
L 206.451607 -332.979701 
z
"/>
    </defs>
    <g clip-path="url(#ped972b6a25)">
     <use xlink:href="#m2530a31507" x="0" y="648.506531" style="fill: #fbb4ae"/>
    </g>
   </g>
   <g id="PolyCollection_34">
    <defs>
     <path id="m0ba3b17b2a" d="M 60.30875 -604.872601 
L 60.30875 -604.316746 
L 104.594464 -604.316746 
L 104.594464 -542.140302 
L 148.880179 -542.140302 
L 148.880179 -486.316497 
L 193.165893 -486.316497 
L 193.165893 -487.269393 
L 193.165893 -487.269393 
L 148.880179 -487.269393 
L 148.880179 -543.01379 
L 104.594464 -543.01379 
L 104.594464 -604.872601 
L 60.30875 -604.872601 
z
"/>
    </defs>
    <g clip-path="url(#ped972b6a25)">
     <use xlink:href="#m0ba3b17b2a" x="0" y="648.506531" style="fill: #fbb4ae"/>
    </g>
   </g>
   <g id="PolyCollection_35">
    <defs>
     <path id="mf1b18f31ee" d="M 206.451607 -333.217925 
L 206.451607 -332.979701 
L 250.737321 -332.979701 
L 250.737321 -367.283945 
L 295.023036 -367.283945 
L 295.023036 -311.698364 
L 339.30875 -311.698364 
L 339.30875 -311.698364 
L 339.30875 -311.698364 
L 295.023036 -311.698364 
L 295.023036 -367.601577 
L 250.737321 -367.601577 
L 250.737321 -333.217925 
L 206.451607 -333.217925 
z
"/>
    </defs>
    <g clip-path="url(#ped972b6a25)">
     <use xlink:href="#mf1b18f31ee" x="0" y="648.506531" style="fill: #fb9a99"/>
    </g>
   </g>
   <g id="PolyCollection_36">
    <defs>
     <path id="m461bf5f59f" d="M 60.30875 -605.825497 
L 60.30875 -604.872601 
L 104.594464 -604.872601 
L 104.594464 -543.01379 
L 148.880179 -543.01379 
L 148.880179 -487.269393 
L 193.165893 -487.269393 
L 193.165893 -487.904657 
L 193.165893 -487.904657 
L 148.880179 -487.904657 
L 148.880179 -543.172606 
L 104.594464 -543.172606 
L 104.594464 -605.825497 
L 60.30875 -605.825497 
z
"/>
    </defs>
    <g clip-path="url(#ped972b6a25)">
     <use xlink:href="#m461bf5f59f" x="0" y="648.506531" style="fill: #fb9a99"/>
    </g>
   </g>
   <g id="PolyCollection_37">
    <defs>
     <path id="m160a527957" d="M 206.451607 -333.535557 
L 206.451607 -333.217925 
L 250.737321 -333.217925 
L 250.737321 -367.601577 
L 295.023036 -367.601577 
L 295.023036 -311.698364 
L 339.30875 -311.698364 
L 339.30875 -311.698364 
L 339.30875 -311.698364 
L 295.023036 -311.698364 
L 295.023036 -367.601577 
L 250.737321 -367.601577 
L 250.737321 -333.535557 
L 206.451607 -333.535557 
z
"/>
    </defs>
    <g clip-path="url(#ped972b6a25)">
     <use xlink:href="#m160a527957" x="0" y="648.506531" style="fill: #1b9e77"/>
    </g>
   </g>
   <g id="PolyCollection_38">
    <defs>
     <path id="m1d2fd12b8d" d="M 60.30875 -607.572472 
L 60.30875 -605.825497 
L 104.594464 -605.825497 
L 104.594464 -543.172606 
L 148.880179 -543.172606 
L 148.880179 -487.904657 
L 193.165893 -487.904657 
L 193.165893 -487.904657 
L 193.165893 -487.904657 
L 148.880179 -487.904657 
L 148.880179 -543.172606 
L 104.594464 -543.172606 
L 104.594464 -607.572472 
L 60.30875 -607.572472 
z
"/>
    </defs>
    <g clip-path="url(#ped972b6a25)">
     <use xlink:href="#m1d2fd12b8d" x="0" y="648.506531" style="fill: #1b9e77"/>
    </g>
   </g>
   <g id="PolyCollection_39">
    <defs>
     <path id="md48e2eb723" d="M 206.451607 -333.535557 
L 206.451607 -333.535557 
L 250.737321 -333.535557 
L 250.737321 -367.601577 
L 295.023036 -367.601577 
L 295.023036 -311.698364 
L 339.30875 -311.698364 
L 339.30875 -311.698364 
L 339.30875 -311.698364 
L 295.023036 -311.698364 
L 295.023036 -367.601577 
L 250.737321 -367.601577 
L 250.737321 -333.535557 
L 206.451607 -333.535557 
z
"/>
    </defs>
    <g clip-path="url(#ped972b6a25)">
     <use xlink:href="#md48e2eb723" x="0" y="648.506531" style="fill: #7570b3"/>
    </g>
   </g>
   <g id="PolyCollection_40">
    <defs>
     <path id="m975aab88ed" d="M 60.30875 -607.572472 
L 60.30875 -607.572472 
L 104.594464 -607.572472 
L 104.594464 -543.172606 
L 148.880179 -543.172606 
L 148.880179 -487.904657 
L 193.165893 -487.904657 
L 193.165893 -487.904657 
L 193.165893 -487.904657 
L 148.880179 -487.904657 
L 148.880179 -544.363726 
L 104.594464 -544.363726 
L 104.594464 -607.572472 
L 60.30875 -607.572472 
z
"/>
    </defs>
    <g clip-path="url(#ped972b6a25)">
     <use xlink:href="#m975aab88ed" x="0" y="648.506531" style="fill: #7570b3"/>
    </g>
   </g>
   <g id="PolyCollection_41">
    <defs>
     <path id="m3133992f57" d="M 206.451607 -333.535557 
L 206.451607 -333.535557 
L 250.737321 -333.535557 
L 250.737321 -367.601577 
L 295.023036 -367.601577 
L 295.023036 -311.698364 
L 339.30875 -311.698364 
L 339.30875 -311.698364 
L 339.30875 -311.698364 
L 295.023036 -311.698364 
L 295.023036 -367.601577 
L 250.737321 -367.601577 
L 250.737321 -333.535557 
L 206.451607 -333.535557 
z
"/>
    </defs>
    <g clip-path="url(#ped972b6a25)">
     <use xlink:href="#m3133992f57" x="0" y="648.506531" style="fill: #1b9e77"/>
    </g>
   </g>
   <g id="PolyCollection_42">
    <defs>
     <path id="m50a1d1aff3" d="M 60.30875 -607.572472 
L 60.30875 -607.572472 
L 104.594464 -607.572472 
L 104.594464 -544.363726 
L 148.880179 -544.363726 
L 148.880179 -487.904657 
L 193.165893 -487.904657 
L 193.165893 -487.904657 
L 193.165893 -487.904657 
L 148.880179 -487.904657 
L 148.880179 -545.396029 
L 104.594464 -545.396029 
L 104.594464 -607.572472 
L 60.30875 -607.572472 
z
"/>
    </defs>
    <g clip-path="url(#ped972b6a25)">
     <use xlink:href="#m50a1d1aff3" x="0" y="648.506531" style="fill: #1b9e77"/>
    </g>
   </g>
   <g id="PolyCollection_43">
    <defs>
     <path id="m95abcee78e" d="M 206.451607 -333.535557 
L 206.451607 -333.535557 
L 250.737321 -333.535557 
L 250.737321 -367.601577 
L 295.023036 -367.601577 
L 295.023036 -311.698364 
L 339.30875 -311.698364 
L 339.30875 -311.698364 
L 339.30875 -311.698364 
L 295.023036 -311.698364 
L 295.023036 -367.601577 
L 250.737321 -367.601577 
L 250.737321 -333.535557 
L 206.451607 -333.535557 
z
"/>
    </defs>
    <g clip-path="url(#ped972b6a25)">
     <use xlink:href="#m95abcee78e" x="0" y="648.506531" style="fill: #cab2d6"/>
    </g>
   </g>
   <g id="PolyCollection_44">
    <defs>
     <path id="m790a5b37e5" d="M 60.30875 -607.572472 
L 60.30875 -607.572472 
L 104.594464 -607.572472 
L 104.594464 -545.396029 
L 148.880179 -545.396029 
L 148.880179 -487.904657 
L 193.165893 -487.904657 
L 193.165893 -488.619328 
L 193.165893 -488.619328 
L 148.880179 -488.619328 
L 148.880179 -545.634253 
L 104.594464 -545.634253 
L 104.594464 -607.572472 
L 60.30875 -607.572472 
z
"/>
    </defs>
    <g clip-path="url(#ped972b6a25)">
     <use xlink:href="#m790a5b37e5" x="0" y="648.506531" style="fill: #cab2d6"/>
    </g>
   </g>
   <g id="PolyCollection_45">
    <defs>
     <path id="m2968291710" d="M 206.451607 -333.535557 
L 206.451607 -333.535557 
L 250.737321 -333.535557 
L 250.737321 -367.601577 
L 295.023036 -367.601577 
L 295.023036 -311.698364 
L 339.30875 -311.698364 
L 339.30875 -311.698364 
L 339.30875 -311.698364 
L 295.023036 -311.698364 
L 295.023036 -367.919209 
L 250.737321 -367.919209 
L 250.737321 -333.535557 
L 206.451607 -333.535557 
z
"/>
    </defs>
    <g clip-path="url(#ped972b6a25)">
     <use xlink:href="#m2968291710" x="0" y="648.506531" style="fill: #66a61e"/>
    </g>
   </g>
   <g id="PolyCollection_46">
    <defs>
     <path id="m8bc94dc7cb" d="M 60.30875 -607.572472 
L 60.30875 -607.572472 
L 104.594464 -607.572472 
L 104.594464 -545.634253 
L 148.880179 -545.634253 
L 148.880179 -488.619328 
L 193.165893 -488.619328 
L 193.165893 -488.619328 
L 193.165893 -488.619328 
L 148.880179 -488.619328 
L 148.880179 -546.110701 
L 104.594464 -546.110701 
L 104.594464 -607.572472 
L 60.30875 -607.572472 
z
"/>
    </defs>
    <g clip-path="url(#ped972b6a25)">
     <use xlink:href="#m8bc94dc7cb" x="0" y="648.506531" style="fill: #66a61e"/>
    </g>
   </g>
   <g id="PolyCollection_47">
    <defs>
     <path id="ma645ff402d" d="M 206.451607 -333.535557 
L 206.451607 -333.535557 
L 250.737321 -333.535557 
L 250.737321 -367.919209 
L 295.023036 -367.919209 
L 295.023036 -311.698364 
L 339.30875 -311.698364 
L 339.30875 -311.698364 
L 339.30875 -311.698364 
L 295.023036 -311.698364 
L 295.023036 -367.919209 
L 250.737321 -367.919209 
L 250.737321 -333.535557 
L 206.451607 -333.535557 
z
"/>
    </defs>
    <g clip-path="url(#ped972b6a25)">
     <use xlink:href="#ma645ff402d" x="0" y="648.506531" style="fill: #ff7f00"/>
    </g>
   </g>
   <g id="PolyCollection_48">
    <defs>
     <path id="md85854e0c7" d="M 60.30875 -607.731288 
L 60.30875 -607.572472 
L 104.594464 -607.572472 
L 104.594464 -546.110701 
L 148.880179 -546.110701 
L 148.880179 -488.619328 
L 193.165893 -488.619328 
L 193.165893 -488.619328 
L 193.165893 -488.619328 
L 148.880179 -488.619328 
L 148.880179 -546.745965 
L 104.594464 -546.745965 
L 104.594464 -607.731288 
L 60.30875 -607.731288 
z
"/>
    </defs>
    <g clip-path="url(#ped972b6a25)">
     <use xlink:href="#md85854e0c7" x="0" y="648.506531" style="fill: #ff7f00"/>
    </g>
   </g>
   <g id="PolyCollection_49">
    <g clip-path="url(#ped972b6a25)">
     <use xlink:href="#ma645ff402d" x="0" y="648.506531" style="fill: #ff7f00"/>
    </g>
   </g>
   <g id="PolyCollection_50">
    <defs>
     <path id="m4a7df7daf8" d="M 60.30875 -608.287144 
L 60.30875 -607.731288 
L 104.594464 -607.731288 
L 104.594464 -546.745965 
L 148.880179 -546.745965 
L 148.880179 -488.619328 
L 193.165893 -488.619328 
L 193.165893 -488.619328 
L 193.165893 -488.619328 
L 148.880179 -488.619328 
L 148.880179 -546.745965 
L 104.594464 -546.745965 
L 104.594464 -608.287144 
L 60.30875 -608.287144 
z
"/>
    </defs>
    <g clip-path="url(#ped972b6a25)">
     <use xlink:href="#m4a7df7daf8" x="0" y="648.506531" style="fill: #ff7f00"/>
    </g>
   </g>
   <g id="PolyCollection_51">
    <defs>
     <path id="m376333b085" d="M 206.451607 -333.535557 
L 206.451607 -333.535557 
L 250.737321 -333.535557 
L 250.737321 -367.919209 
L 295.023036 -367.919209 
L 295.023036 -311.698364 
L 339.30875 -311.698364 
L 339.30875 -311.698364 
L 339.30875 -311.698364 
L 295.023036 -311.698364 
L 295.023036 -367.919209 
L 250.737321 -367.919209 
L 250.737321 -333.535557 
L 206.451607 -333.535557 
z
"/>
    </defs>
    <g clip-path="url(#ped972b6a25)">
     <use xlink:href="#m376333b085" x="0" y="648.506531" style="fill: #6a3d9a"/>
    </g>
   </g>
   <g id="PolyCollection_52">
    <defs>
     <path id="m4a969c3572" d="M 60.30875 -608.287144 
L 60.30875 -608.287144 
L 104.594464 -608.287144 
L 104.594464 -546.745965 
L 148.880179 -546.745965 
L 148.880179 -488.619328 
L 193.165893 -488.619328 
L 193.165893 -489.016368 
L 193.165893 -489.016368 
L 148.880179 -489.016368 
L 148.880179 -546.745965 
L 104.594464 -546.745965 
L 104.594464 -608.287144 
L 60.30875 -608.287144 
z
"/>
    </defs>
    <g clip-path="url(#ped972b6a25)">
     <use xlink:href="#m4a969c3572" x="0" y="648.506531" style="fill: #6a3d9a"/>
    </g>
   </g>
   <g id="PolyCollection_53">
    <defs>
     <path id="m7a2592a671" d="M 206.451607 -333.535557 
L 206.451607 -333.535557 
L 250.737321 -333.535557 
L 250.737321 -367.919209 
L 295.023036 -367.919209 
L 295.023036 -311.698364 
L 339.30875 -311.698364 
L 339.30875 -311.936588 
L 339.30875 -311.936588 
L 295.023036 -311.936588 
L 295.023036 -367.919209 
L 250.737321 -367.919209 
L 250.737321 -333.535557 
L 206.451607 -333.535557 
z
"/>
    </defs>
    <g clip-path="url(#ped972b6a25)">
     <use xlink:href="#m7a2592a671" x="0" y="648.506531" style="fill: #33a02c"/>
    </g>
   </g>
   <g id="PolyCollection_54">
    <defs>
     <path id="md5c31301a3" d="M 60.30875 -608.287144 
L 60.30875 -608.287144 
L 104.594464 -608.287144 
L 104.594464 -546.745965 
L 148.880179 -546.745965 
L 148.880179 -489.016368 
L 193.165893 -489.016368 
L 193.165893 -489.016368 
L 193.165893 -489.016368 
L 148.880179 -489.016368 
L 148.880179 -546.904781 
L 104.594464 -546.904781 
L 104.594464 -608.287144 
L 60.30875 -608.287144 
z
"/>
    </defs>
    <g clip-path="url(#ped972b6a25)">
     <use xlink:href="#md5c31301a3" x="0" y="648.506531" style="fill: #33a02c"/>
    </g>
   </g>
   <g id="PolyCollection_55">
    <defs>
     <path id="m3c30cb8439" d="M 206.451607 -333.535557 
L 206.451607 -333.535557 
L 250.737321 -333.535557 
L 250.737321 -367.919209 
L 295.023036 -367.919209 
L 295.023036 -311.936588 
L 339.30875 -311.936588 
L 339.30875 -311.936588 
L 339.30875 -311.936588 
L 295.023036 -311.936588 
L 295.023036 -367.919209 
L 250.737321 -367.919209 
L 250.737321 -333.535557 
L 206.451607 -333.535557 
z
"/>
    </defs>
    <g clip-path="url(#ped972b6a25)">
     <use xlink:href="#m3c30cb8439" x="0" y="648.506531" style="fill: #e31a1c"/>
    </g>
   </g>
   <g id="PolyCollection_56">
    <defs>
     <path id="m841c06e0a8" d="M 60.30875 -608.287144 
L 60.30875 -608.287144 
L 104.594464 -608.287144 
L 104.594464 -546.904781 
L 148.880179 -546.904781 
L 148.880179 -489.016368 
L 193.165893 -489.016368 
L 193.165893 -489.334 
L 193.165893 -489.334 
L 148.880179 -489.334 
L 148.880179 -546.904781 
L 104.594464 -546.904781 
L 104.594464 -608.287144 
L 60.30875 -608.287144 
z
"/>
    </defs>
    <g clip-path="url(#ped972b6a25)">
     <use xlink:href="#m841c06e0a8" x="0" y="648.506531" style="fill: #e31a1c"/>
    </g>
   </g>
   <g id="PolyCollection_57">
    <defs>
     <path id="m85128cbc29" d="M 206.451607 -333.535557 
L 206.451607 -333.535557 
L 250.737321 -333.535557 
L 250.737321 -367.919209 
L 295.023036 -367.919209 
L 295.023036 -311.936588 
L 339.30875 -311.936588 
L 339.30875 -311.936588 
L 339.30875 -311.936588 
L 295.023036 -311.936588 
L 295.023036 -367.919209 
L 250.737321 -367.919209 
L 250.737321 -333.535557 
L 206.451607 -333.535557 
z
"/>
    </defs>
    <g clip-path="url(#ped972b6a25)">
     <use xlink:href="#m85128cbc29" x="0" y="648.506531" style="fill: #f2f2f2"/>
    </g>
   </g>
   <g id="PolyCollection_58">
    <defs>
     <path id="md4d3088355" d="M 60.30875 -608.287144 
L 60.30875 -608.287144 
L 104.594464 -608.287144 
L 104.594464 -546.904781 
L 148.880179 -546.904781 
L 148.880179 -489.334 
L 193.165893 -489.334 
L 193.165893 -489.334 
L 193.165893 -489.334 
L 148.880179 -489.334 
L 148.880179 -547.222413 
L 104.594464 -547.222413 
L 104.594464 -608.287144 
L 60.30875 -608.287144 
z
"/>
    </defs>
    <g clip-path="url(#ped972b6a25)">
     <use xlink:href="#md4d3088355" x="0" y="648.506531" style="fill: #f2f2f2"/>
    </g>
   </g>
   <g id="PolyCollection_59">
    <defs>
     <path id="m6e21781179" d="M 206.451607 -333.535557 
L 206.451607 -333.535557 
L 250.737321 -333.535557 
L 250.737321 -367.919209 
L 295.023036 -367.919209 
L 295.023036 -311.936588 
L 339.30875 -311.936588 
L 339.30875 -311.936588 
L 339.30875 -311.936588 
L 295.023036 -311.936588 
L 295.023036 -367.919209 
L 250.737321 -367.919209 
L 250.737321 -333.535557 
L 206.451607 -333.535557 
z
"/>
    </defs>
    <g clip-path="url(#ped972b6a25)">
     <use xlink:href="#m6e21781179" x="0" y="648.506531" style="fill: #ccebc5"/>
    </g>
   </g>
   <g id="PolyCollection_60">
    <defs>
     <path id="m903c8a26de" d="M 60.30875 -608.44596 
L 60.30875 -608.287144 
L 104.594464 -608.287144 
L 104.594464 -547.222413 
L 148.880179 -547.222413 
L 148.880179 -489.334 
L 193.165893 -489.334 
L 193.165893 -489.492816 
L 193.165893 -489.492816 
L 148.880179 -489.492816 
L 148.880179 -547.222413 
L 104.594464 -547.222413 
L 104.594464 -608.44596 
L 60.30875 -608.44596 
z
"/>
    </defs>
    <g clip-path="url(#ped972b6a25)">
     <use xlink:href="#m903c8a26de" x="0" y="648.506531" style="fill: #ccebc5"/>
    </g>
   </g>
   <g id="PolyCollection_61">
    <defs>
     <path id="m7d0d1486f4" d="M 206.451607 -333.535557 
L 206.451607 -333.535557 
L 250.737321 -333.535557 
L 250.737321 -367.919209 
L 295.023036 -367.919209 
L 295.023036 -311.936588 
L 339.30875 -311.936588 
L 339.30875 -311.936588 
L 339.30875 -311.936588 
L 295.023036 -311.936588 
L 295.023036 -367.919209 
L 250.737321 -367.919209 
L 250.737321 -333.535557 
L 206.451607 -333.535557 
z
"/>
    </defs>
    <g clip-path="url(#ped972b6a25)">
     <use xlink:href="#m7d0d1486f4" x="0" y="648.506531" style="fill: #fddaec"/>
    </g>
   </g>
   <g id="PolyCollection_62">
    <defs>
     <path id="m2ea0a736b4" d="M 60.30875 -608.44596 
L 60.30875 -608.44596 
L 104.594464 -608.44596 
L 104.594464 -547.222413 
L 148.880179 -547.222413 
L 148.880179 -489.492816 
L 193.165893 -489.492816 
L 193.165893 -489.492816 
L 193.165893 -489.492816 
L 148.880179 -489.492816 
L 148.880179 -547.460637 
L 104.594464 -547.460637 
L 104.594464 -608.44596 
L 60.30875 -608.44596 
z
"/>
    </defs>
    <g clip-path="url(#ped972b6a25)">
     <use xlink:href="#m2ea0a736b4" x="0" y="648.506531" style="fill: #fddaec"/>
    </g>
   </g>
   <g id="PolyCollection_63">
    <defs>
     <path id="m3b13d0c923" d="M 206.451607 -333.535557 
L 206.451607 -333.535557 
L 250.737321 -333.535557 
L 250.737321 -367.919209 
L 295.023036 -367.919209 
L 295.023036 -311.936588 
L 339.30875 -311.936588 
L 339.30875 -311.936588 
L 339.30875 -311.936588 
L 295.023036 -311.936588 
L 295.023036 -367.919209 
L 250.737321 -367.919209 
L 250.737321 -333.535557 
L 206.451607 -333.535557 
z
"/>
    </defs>
    <g clip-path="url(#ped972b6a25)">
     <use xlink:href="#m3b13d0c923" x="0" y="648.506531" style="fill: #a6cee3"/>
    </g>
   </g>
   <g id="PolyCollection_64">
    <defs>
     <path id="mb774594c25" d="M 60.30875 -608.684184 
L 60.30875 -608.44596 
L 104.594464 -608.44596 
L 104.594464 -547.460637 
L 148.880179 -547.460637 
L 148.880179 -489.492816 
L 193.165893 -489.492816 
L 193.165893 -489.492816 
L 193.165893 -489.492816 
L 148.880179 -489.492816 
L 148.880179 -547.460637 
L 104.594464 -547.460637 
L 104.594464 -608.684184 
L 60.30875 -608.684184 
z
"/>
    </defs>
    <g clip-path="url(#ped972b6a25)">
     <use xlink:href="#mb774594c25" x="0" y="648.506531" style="fill: #a6cee3"/>
    </g>
   </g>
   <g id="PolyCollection_65">
    <defs>
     <path id="m8b14fbcc67" d="M 206.451607 -333.535557 
L 206.451607 -333.535557 
L 250.737321 -333.535557 
L 250.737321 -367.919209 
L 295.023036 -367.919209 
L 295.023036 -311.936588 
L 339.30875 -311.936588 
L 339.30875 -311.936588 
L 339.30875 -311.936588 
L 295.023036 -311.936588 
L 295.023036 -367.919209 
L 250.737321 -367.919209 
L 250.737321 -333.535557 
L 206.451607 -333.535557 
z
"/>
    </defs>
    <g clip-path="url(#ped972b6a25)">
     <use xlink:href="#m8b14fbcc67" x="0" y="648.506531" style="fill: #fdbf6f"/>
    </g>
   </g>
   <g id="PolyCollection_66">
    <defs>
     <path id="m031ba53c17" d="M 60.30875 -608.684184 
L 60.30875 -608.684184 
L 104.594464 -608.684184 
L 104.594464 -547.460637 
L 148.880179 -547.460637 
L 148.880179 -489.492816 
L 193.165893 -489.492816 
L 193.165893 -489.492816 
L 193.165893 -489.492816 
L 148.880179 -489.492816 
L 148.880179 -547.619453 
L 104.594464 -547.619453 
L 104.594464 -608.684184 
L 60.30875 -608.684184 
z
"/>
    </defs>
    <g clip-path="url(#ped972b6a25)">
     <use xlink:href="#m031ba53c17" x="0" y="648.506531" style="fill: #fdbf6f"/>
    </g>
   </g>
   <g id="PolyCollection_67">
    <defs>
     <path id="me4178c5bd3" d="M 206.451607 -333.535557 
L 206.451607 -333.535557 
L 250.737321 -333.535557 
L 250.737321 -367.919209 
L 295.023036 -367.919209 
L 295.023036 -311.936588 
L 339.30875 -311.936588 
L 339.30875 -311.936588 
L 339.30875 -311.936588 
L 295.023036 -311.936588 
L 295.023036 -367.919209 
L 250.737321 -367.919209 
L 250.737321 -333.535557 
L 206.451607 -333.535557 
z
"/>
    </defs>
    <g clip-path="url(#ped972b6a25)">
     <use xlink:href="#me4178c5bd3" x="0" y="648.506531" style="fill: #e7298a"/>
    </g>
   </g>
   <g id="PolyCollection_68">
    <defs>
     <path id="m09be484170" d="M 60.30875 -608.843 
L 60.30875 -608.684184 
L 104.594464 -608.684184 
L 104.594464 -547.619453 
L 148.880179 -547.619453 
L 148.880179 -489.492816 
L 193.165893 -489.492816 
L 193.165893 -489.492816 
L 193.165893 -489.492816 
L 148.880179 -489.492816 
L 148.880179 -547.619453 
L 104.594464 -547.619453 
L 104.594464 -608.843 
L 60.30875 -608.843 
z
"/>
    </defs>
    <g clip-path="url(#ped972b6a25)">
     <use xlink:href="#m09be484170" x="0" y="648.506531" style="fill: #e7298a"/>
    </g>
   </g>
   <g id="PolyCollection_69">
    <defs>
     <path id="m9f618c3f0e" d="M 206.451607 -333.535557 
L 206.451607 -333.535557 
L 250.737321 -333.535557 
L 250.737321 -367.919209 
L 295.023036 -367.919209 
L 295.023036 -311.936588 
L 339.30875 -311.936588 
L 339.30875 -311.936588 
L 339.30875 -311.936588 
L 295.023036 -311.936588 
L 295.023036 -367.919209 
L 250.737321 -367.919209 
L 250.737321 -333.535557 
L 206.451607 -333.535557 
z
"/>
    </defs>
    <g clip-path="url(#ped972b6a25)">
     <use xlink:href="#m9f618c3f0e" x="0" y="648.506531" style="fill: #ffff99"/>
    </g>
   </g>
   <g id="PolyCollection_70">
    <defs>
     <path id="m329b36b59e" d="M 60.30875 -608.843 
L 60.30875 -608.843 
L 104.594464 -608.843 
L 104.594464 -547.619453 
L 148.880179 -547.619453 
L 148.880179 -489.492816 
L 193.165893 -489.492816 
L 193.165893 -489.651632 
L 193.165893 -489.651632 
L 148.880179 -489.651632 
L 148.880179 -547.619453 
L 104.594464 -547.619453 
L 104.594464 -608.843 
L 60.30875 -608.843 
z
"/>
    </defs>
    <g clip-path="url(#ped972b6a25)">
     <use xlink:href="#m329b36b59e" x="0" y="648.506531" style="fill: #ffff99"/>
    </g>
   </g>
   <g id="PolyCollection_71">
    <defs>
     <path id="m299871d131" d="M 206.451607 -333.535557 
L 206.451607 -333.535557 
L 250.737321 -333.535557 
L 250.737321 -367.919209 
L 295.023036 -367.919209 
L 295.023036 -311.936588 
L 339.30875 -311.936588 
L 339.30875 -311.936588 
L 339.30875 -311.936588 
L 295.023036 -311.936588 
L 295.023036 -367.919209 
L 250.737321 -367.919209 
L 250.737321 -333.535557 
L 206.451607 -333.535557 
z
"/>
    </defs>
    <g clip-path="url(#ped972b6a25)">
     <use xlink:href="#m299871d131" x="0" y="648.506531" style="fill: #d95f02"/>
    </g>
   </g>
   <g id="PolyCollection_72">
    <defs>
     <path id="mb6ea885c47" d="M 60.30875 -608.843 
L 60.30875 -608.843 
L 104.594464 -608.843 
L 104.594464 -547.619453 
L 148.880179 -547.619453 
L 148.880179 -489.651632 
L 193.165893 -489.651632 
L 193.165893 -489.651632 
L 193.165893 -489.651632 
L 148.880179 -489.651632 
L 148.880179 -547.778269 
L 104.594464 -547.778269 
L 104.594464 -608.843 
L 60.30875 -608.843 
z
"/>
    </defs>
    <g clip-path="url(#ped972b6a25)">
     <use xlink:href="#mb6ea885c47" x="0" y="648.506531" style="fill: #d95f02"/>
    </g>
   </g>
   <g id="patch_3">
    <path d="M 206.451607 372.303531 
L 339.30875 372.303531 
L 339.30875 372.224123 
L 206.451607 372.224123 
L 206.451607 372.303531 
z
" clip-path="url(#ped972b6a25)" style="fill: none; stroke: #808080; stroke-linejoin: miter"/>
   </g>
   <g id="patch_4">
    <path d="M 60.30875 372.303531 
L 193.165893 372.303531 
L 193.165893 372.224123 
L 60.30875 372.224123 
L 60.30875 372.303531 
z
" clip-path="url(#ped972b6a25)" style="fill: none; stroke: #808080; stroke-linejoin: miter"/>
   </g>
   <g id="patch_5">
    <path d="M 60.30875 372.303531 
L 60.30875 39.663531 
" style="fill: none; stroke: #ffffff; stroke-width: 1.25; stroke-linejoin: miter; stroke-linecap: square"/>
   </g>
   <g id="patch_6">
    <path d="M 339.30875 372.303531 
L 339.30875 39.663531 
" style="fill: none; stroke: #ffffff; stroke-width: 1.25; stroke-linejoin: miter; stroke-linecap: square"/>
   </g>
   <g id="patch_7">
    <path d="M 60.30875 372.303531 
L 339.30875 372.303531 
" style="fill: none; stroke: #ffffff; stroke-width: 1.25; stroke-linejoin: miter; stroke-linecap: square"/>
   </g>
   <g id="patch_8">
    <path d="M 60.30875 39.663531 
L 339.30875 39.663531 
" style="fill: none; stroke: #ffffff; stroke-width: 1.25; stroke-linejoin: miter; stroke-linecap: square"/>
   </g>
   <g id="legend_1">
    <g id="patch_9">
     <path d="M 349.79875 641.306531 
L 664.598125 641.306531 
Q 666.798125 641.306531 666.798125 639.106531 
L 666.798125 30.731531 
Q 666.798125 28.531531 664.598125 28.531531 
L 349.79875 28.531531 
Q 347.59875 28.531531 347.59875 30.731531 
L 347.59875 639.106531 
Q 347.59875 641.306531 349.79875 641.306531 
z
" style="fill: #eaeaf2; opacity: 0.8; stroke: #cccccc; stroke-linejoin: miter"/>
    </g>
    <g id="text_17">
     <text style="fill: #262626; font: 700 12px 'sans-serif'; text-anchor: start" x="463.707812" y="42.049656" transform="rotate(-0, 463.707812, 42.049656)">Rank: Family</text>
    </g>
    <g id="patch_10">
     <path d="M 351.99875 58.497312 
L 373.99875 58.497312 
L 373.99875 50.797312 
L 351.99875 50.797312 
z
" style="fill: #1f78b4; stroke: #1f78b4; stroke-linejoin: miter"/>
    </g>
    <g id="text_18">
     <text style="fill: #262626; font: 11px 'sans-serif'; text-anchor: start" x="382.79875" y="58.497312" transform="rotate(-0, 382.79875, 58.497312)">806 mean counts: f__Muribaculaceae</text>
    </g>
    <g id="patch_11">
     <path d="M 351.99875 74.949187 
L 373.99875 74.949187 
L 373.99875 67.249187 
L 351.99875 67.249187 
z
" style="fill: #b2df8a; stroke: #b2df8a; stroke-linejoin: miter"/>
    </g>
    <g id="text_19">
     <text style="fill: #262626; font: 11px 'sans-serif'; text-anchor: start" x="382.79875" y="74.949187" transform="rotate(-0, 382.79875, 74.949187)">800 mean counts: f__Lachnospiraceae</text>
    </g>
    <g id="patch_12">
     <path d="M 351.99875 91.401062 
L 373.99875 91.401062 
L 373.99875 83.701062 
L 351.99875 83.701062 
z
" style="fill: #fb9a99; stroke: #fb9a99; stroke-linejoin: miter"/>
    </g>
    <g id="text_20">
     <text style="fill: #262626; font: 11px 'sans-serif'; text-anchor: start" x="382.79875" y="91.401062" transform="rotate(-0, 382.79875, 91.401062)">115 mean counts: f__Bacteroidaceae</text>
    </g>
    <g id="patch_13">
     <path d="M 351.99875 107.852937 
L 373.99875 107.852937 
L 373.99875 100.152937 
L 351.99875 100.152937 
z
" style="fill: #e31a1c; stroke: #e31a1c; stroke-linejoin: miter"/>
    </g>
    <g id="text_21">
     <text style="fill: #262626; font: 11px 'sans-serif'; text-anchor: start" x="382.79875" y="107.852937" transform="rotate(-0, 382.79875, 107.852937)">94 mean counts: f__Lactobacillaceae</text>
    </g>
    <g id="patch_14">
     <path d="M 351.99875 124.304812 
L 373.99875 124.304812 
L 373.99875 116.604812 
L 351.99875 116.604812 
z
" style="fill: #b15928; stroke: #b15928; stroke-linejoin: miter"/>
    </g>
    <g id="text_22">
     <text style="fill: #262626; font: 11px 'sans-serif'; text-anchor: start" x="382.79875" y="124.304812" transform="rotate(-0, 382.79875, 124.304812)">89 mean counts: f__CAG-508</text>
    </g>
    <g id="patch_15">
     <path d="M 351.99875 140.756687 
L 373.99875 140.756687 
L 373.99875 133.056687 
L 351.99875 133.056687 
z
" style="fill: #fdbf6f; stroke: #fdbf6f; stroke-linejoin: miter"/>
    </g>
    <g id="text_23">
     <text style="fill: #262626; font: 11px 'sans-serif'; text-anchor: start" x="382.79875" y="140.756687" transform="rotate(-0, 382.79875, 140.756687)">52 mean counts: f__Oscillospiraceae_88309</text>
    </g>
    <g id="patch_16">
     <path d="M 351.99875 157.208562 
L 373.99875 157.208562 
L 373.99875 149.508562 
L 351.99875 149.508562 
z
" style="fill: #ffff99; stroke: #ffff99; stroke-linejoin: miter"/>
    </g>
    <g id="text_24">
     <text style="fill: #262626; font: 11px 'sans-serif'; text-anchor: start" x="382.79875" y="157.208562" transform="rotate(-0, 382.79875, 157.208562)">18 mean counts: f__Ruminococcaceae</text>
    </g>
    <g id="patch_17">
     <path d="M 351.99875 173.660437 
L 373.99875 173.660437 
L 373.99875 165.960437 
L 351.99875 165.960437 
z
" style="fill: #33a02c; stroke: #33a02c; stroke-linejoin: miter"/>
    </g>
    <g id="text_25">
     <text style="fill: #262626; font: 11px 'sans-serif'; text-anchor: start" x="382.79875" y="173.660437" transform="rotate(-0, 382.79875, 173.660437)">17 mean counts: f__Parvibaculaceae</text>
    </g>
    <g id="patch_18">
     <path d="M 351.99875 190.112312 
L 373.99875 190.112312 
L 373.99875 182.412312 
L 351.99875 182.412312 
z
" style="fill: #6a3d9a; stroke: #6a3d9a; stroke-linejoin: miter"/>
    </g>
    <g id="text_26">
     <text style="fill: #262626; font: 11px 'sans-serif'; text-anchor: start" x="382.79875" y="190.112312" transform="rotate(-0, 382.79875, 190.112312)">17 mean counts: f__Rikenellaceae</text>
    </g>
    <g id="patch_19">
     <path d="M 351.99875 206.564187 
L 373.99875 206.564187 
L 373.99875 198.864187 
L 351.99875 198.864187 
z
" style="fill: #cab2d6; stroke: #cab2d6; stroke-linejoin: miter"/>
    </g>
    <g id="text_27">
     <text style="fill: #262626; font: 11px 'sans-serif'; text-anchor: start" x="382.79875" y="206.564187" transform="rotate(-0, 382.79875, 206.564187)">16 mean counts: f__</text>
    </g>
    <g id="patch_20">
     <path d="M 351.99875 223.016062 
L 373.99875 223.016062 
L 373.99875 215.316062 
L 351.99875 215.316062 
z
" style="fill: #b2df8a; stroke: #b2df8a; stroke-linejoin: miter"/>
    </g>
    <g id="text_28">
     <text style="fill: #262626; font: 11px 'sans-serif'; text-anchor: start" x="382.79875" y="223.016062" transform="rotate(-0, 382.79875, 223.016062)">13 mean counts: f__Pseudomonadaceae</text>
    </g>
    <g id="patch_21">
     <path d="M 351.99875 239.467937 
L 373.99875 239.467937 
L 373.99875 231.767937 
L 351.99875 231.767937 
z
" style="fill: #666666; stroke: #666666; stroke-linejoin: miter"/>
    </g>
    <g id="text_29">
     <text style="fill: #262626; font: 11px 'sans-serif'; text-anchor: start" x="382.79875" y="239.467937" transform="rotate(-0, 382.79875, 239.467937)">9 mean counts: f__Dehalobacteriaceae</text>
    </g>
    <g id="patch_22">
     <path d="M 351.99875 255.919812 
L 373.99875 255.919812 
L 373.99875 248.219812 
L 351.99875 248.219812 
z
" style="fill: #7570b3; stroke: #7570b3; stroke-linejoin: miter"/>
    </g>
    <g id="text_30">
     <text style="fill: #262626; font: 11px 'sans-serif'; text-anchor: start" x="382.79875" y="255.919812" transform="rotate(-0, 382.79875, 255.919812)">8 mean counts: f__Desulfovibrionaceae</text>
    </g>
    <g id="patch_23">
     <path d="M 351.99875 272.371687 
L 373.99875 272.371687 
L 373.99875 264.671687 
L 351.99875 264.671687 
z
" style="fill: #fed9a6; stroke: #fed9a6; stroke-linejoin: miter"/>
    </g>
    <g id="text_31">
     <text style="fill: #262626; font: 11px 'sans-serif'; text-anchor: start" x="382.79875" y="272.371687" transform="rotate(-0, 382.79875, 272.371687)">8 mean counts: f__Tannerellaceae</text>
    </g>
    <g id="patch_24">
     <path d="M 351.99875 288.823562 
L 373.99875 288.823562 
L 373.99875 281.123562 
L 351.99875 281.123562 
z
" style="fill: #d95f02; stroke: #d95f02; stroke-linejoin: miter"/>
    </g>
    <g id="text_32">
     <text style="fill: #262626; font: 11px 'sans-serif'; text-anchor: start" x="382.79875" y="288.823562" transform="rotate(-0, 382.79875, 288.823562)">7 mean counts: f__Turicibacteraceae</text>
    </g>
    <g id="patch_25">
     <path d="M 351.99875 305.275437 
L 373.99875 305.275437 
L 373.99875 297.575437 
L 351.99875 297.575437 
z
" style="fill: #e5d8bd; stroke: #e5d8bd; stroke-linejoin: miter"/>
    </g>
    <g id="text_33">
     <text style="fill: #262626; font: 11px 'sans-serif'; text-anchor: start" x="382.79875" y="305.275437" transform="rotate(-0, 382.79875, 305.275437)">6 mean counts: f__UBA660</text>
    </g>
    <g id="patch_26">
     <path d="M 351.99875 321.727312 
L 373.99875 321.727312 
L 373.99875 314.027312 
L 351.99875 314.027312 
z
" style="fill: #fbb4ae; stroke: #fbb4ae; stroke-linejoin: miter"/>
    </g>
    <g id="text_34">
     <text style="fill: #262626; font: 11px 'sans-serif'; text-anchor: start" x="382.79875" y="321.727312" transform="rotate(-0, 382.79875, 321.727312)">5 mean counts: f__Gastranaerophilaceae</text>
    </g>
    <g id="patch_27">
     <path d="M 351.99875 338.179187 
L 373.99875 338.179187 
L 373.99875 330.479187 
L 351.99875 330.479187 
z
" style="fill: #fb9a99; stroke: #fb9a99; stroke-linejoin: miter"/>
    </g>
    <g id="text_35">
     <text style="fill: #262626; font: 11px 'sans-serif'; text-anchor: start" x="382.79875" y="338.179187" transform="rotate(-0, 382.79875, 338.179187)">5 mean counts: f__Burkholderiaceae_A_595421</text>
    </g>
    <g id="patch_28">
     <path d="M 351.99875 354.631062 
L 373.99875 354.631062 
L 373.99875 346.931062 
L 351.99875 346.931062 
z
" style="fill: #1b9e77; stroke: #1b9e77; stroke-linejoin: miter"/>
    </g>
    <g id="text_36">
     <text style="fill: #262626; font: 11px 'sans-serif'; text-anchor: start" x="382.79875" y="354.631062" transform="rotate(-0, 382.79875, 354.631062)">4 mean counts: f__Butyricicoccaceae</text>
    </g>
    <g id="patch_29">
     <path d="M 351.99875 371.082937 
L 373.99875 371.082937 
L 373.99875 363.382937 
L 351.99875 363.382937 
z
" style="fill: #7570b3; stroke: #7570b3; stroke-linejoin: miter"/>
    </g>
    <g id="text_37">
     <text style="fill: #262626; font: 11px 'sans-serif'; text-anchor: start" x="382.79875" y="371.082937" transform="rotate(-0, 382.79875, 371.082937)">2 mean counts: f__Peptostreptococcaceae_256921</text>
    </g>
    <g id="patch_30">
     <path d="M 351.99875 387.534812 
L 373.99875 387.534812 
L 373.99875 379.834812 
L 351.99875 379.834812 
z
" style="fill: #1b9e77; stroke: #1b9e77; stroke-linejoin: miter"/>
    </g>
    <g id="text_38">
     <text style="fill: #262626; font: 11px 'sans-serif'; text-anchor: start" x="382.79875" y="387.534812" transform="rotate(-0, 382.79875, 387.534812)">2 mean counts: f__Clostridiaceae_222000</text>
    </g>
    <g id="patch_31">
     <path d="M 351.99875 403.986687 
L 373.99875 403.986687 
L 373.99875 396.286687 
L 351.99875 396.286687 
z
" style="fill: #cab2d6; stroke: #cab2d6; stroke-linejoin: miter"/>
    </g>
    <g id="text_39">
     <text style="fill: #262626; font: 11px 'sans-serif'; text-anchor: start" x="382.79875" y="403.986687" transform="rotate(-0, 382.79875, 403.986687)">2 mean counts: f__Rhodobacteraceae</text>
    </g>
    <g id="patch_32">
     <path d="M 351.99875 420.438562 
L 373.99875 420.438562 
L 373.99875 412.738562 
L 351.99875 412.738562 
z
" style="fill: #66a61e; stroke: #66a61e; stroke-linejoin: miter"/>
    </g>
    <g id="text_40">
     <text style="fill: #262626; font: 11px 'sans-serif'; text-anchor: start" x="382.79875" y="420.438562" transform="rotate(-0, 382.79875, 420.438562)">2 mean counts: f__Acutalibacteraceae</text>
    </g>
    <g id="patch_33">
     <path d="M 351.99875 436.890437 
L 373.99875 436.890437 
L 373.99875 429.190437 
L 351.99875 429.190437 
z
" style="fill: #ff7f00; stroke: #ff7f00; stroke-linejoin: miter"/>
    </g>
    <g id="text_41">
     <text style="fill: #262626; font: 11px 'sans-serif'; text-anchor: start" x="382.79875" y="436.890437" transform="rotate(-0, 382.79875, 436.890437)">2 mean counts: f__Akkermansiaceae</text>
    </g>
    <g id="patch_34">
     <path d="M 351.99875 453.342312 
L 373.99875 453.342312 
L 373.99875 445.642312 
L 351.99875 445.642312 
z
" style="fill: #ff7f00; stroke: #ff7f00; stroke-linejoin: miter"/>
    </g>
    <g id="text_42">
     <text style="fill: #262626; font: 11px 'sans-serif'; text-anchor: start" x="382.79875" y="453.342312" transform="rotate(-0, 382.79875, 453.342312)">1 mean counts: f__Rhizobiaceae</text>
    </g>
    <g id="patch_35">
     <path d="M 351.99875 469.794187 
L 373.99875 469.794187 
L 373.99875 462.094187 
L 351.99875 462.094187 
z
" style="fill: #6a3d9a; stroke: #6a3d9a; stroke-linejoin: miter"/>
    </g>
    <g id="text_43">
     <text style="fill: #262626; font: 11px 'sans-serif'; text-anchor: start" x="382.79875" y="469.794187" transform="rotate(-0, 382.79875, 469.794187)">1 mean counts: f__Xanthobacteraceae</text>
    </g>
    <g id="patch_36">
     <path d="M 351.99875 486.246062 
L 373.99875 486.246062 
L 373.99875 478.546062 
L 351.99875 478.546062 
z
" style="fill: #33a02c; stroke: #33a02c; stroke-linejoin: miter"/>
    </g>
    <g id="text_44">
     <text style="fill: #262626; font: 11px 'sans-serif'; text-anchor: start" x="382.79875" y="486.246062" transform="rotate(-0, 382.79875, 486.246062)">1 mean counts: f__Erysipelotrichaceae</text>
    </g>
    <g id="patch_37">
     <path d="M 351.99875 502.697937 
L 373.99875 502.697937 
L 373.99875 494.997937 
L 351.99875 494.997937 
z
" style="fill: #e31a1c; stroke: #e31a1c; stroke-linejoin: miter"/>
    </g>
    <g id="text_45">
     <text style="fill: #262626; font: 11px 'sans-serif'; text-anchor: start" x="382.79875" y="502.697937" transform="rotate(-0, 382.79875, 502.697937)">1 mean counts: f__Caulobacteraceae</text>
    </g>
    <g id="patch_38">
     <path d="M 351.99875 519.149812 
L 373.99875 519.149812 
L 373.99875 511.449812 
L 351.99875 511.449812 
z
" style="fill: #f2f2f2; stroke: #f2f2f2; stroke-linejoin: miter"/>
    </g>
    <g id="text_46">
     <text style="fill: #262626; font: 11px 'sans-serif'; text-anchor: start" x="382.79875" y="519.149812" transform="rotate(-0, 382.79875, 519.149812)">1 mean counts: f__CAG-239</text>
    </g>
    <g id="patch_39">
     <path d="M 351.99875 535.601687 
L 373.99875 535.601687 
L 373.99875 527.901687 
L 351.99875 527.901687 
z
" style="fill: #ccebc5; stroke: #ccebc5; stroke-linejoin: miter"/>
    </g>
    <g id="text_47">
     <text style="fill: #262626; font: 11px 'sans-serif'; text-anchor: start" x="382.79875" y="535.601687" transform="rotate(-0, 382.79875, 535.601687)">1 mean counts: f__CAG-314</text>
    </g>
    <g id="patch_40">
     <path d="M 351.99875 552.053562 
L 373.99875 552.053562 
L 373.99875 544.353562 
L 351.99875 544.353562 
z
" style="fill: #fddaec; stroke: #fddaec; stroke-linejoin: miter"/>
    </g>
    <g id="text_48">
     <text style="fill: #262626; font: 11px 'sans-serif'; text-anchor: start" x="382.79875" y="552.053562" transform="rotate(-0, 382.79875, 552.053562)">0 mean counts: f__Anaerovoracaceae</text>
    </g>
    <g id="patch_41">
     <path d="M 351.99875 568.505437 
L 373.99875 568.505437 
L 373.99875 560.805437 
L 351.99875 560.805437 
z
" style="fill: #a6cee3; stroke: #a6cee3; stroke-linejoin: miter"/>
    </g>
    <g id="text_49">
     <text style="fill: #262626; font: 11px 'sans-serif'; text-anchor: start" x="382.79875" y="568.505437" transform="rotate(-0, 382.79875, 568.505437)">0 mean counts: f__CAG-272</text>
    </g>
    <g id="patch_42">
     <path d="M 351.99875 584.957312 
L 373.99875 584.957312 
L 373.99875 577.257312 
L 351.99875 577.257312 
z
" style="fill: #fdbf6f; stroke: #fdbf6f; stroke-linejoin: miter"/>
    </g>
    <g id="text_50">
     <text style="fill: #262626; font: 11px 'sans-serif'; text-anchor: start" x="382.79875" y="584.957312" transform="rotate(-0, 382.79875, 584.957312)">0 mean counts: f__Mycobacteriaceae</text>
    </g>
    <g id="patch_43">
     <path d="M 351.99875 601.409187 
L 373.99875 601.409187 
L 373.99875 593.709187 
L 351.99875 593.709187 
z
" style="fill: #e7298a; stroke: #e7298a; stroke-linejoin: miter"/>
    </g>
    <g id="text_51">
     <text style="fill: #262626; font: 11px 'sans-serif'; text-anchor: start" x="382.79875" y="601.409187" transform="rotate(-0, 382.79875, 601.409187)">0 mean counts: f__Marinifilaceae</text>
    </g>
    <g id="patch_44">
     <path d="M 351.99875 617.861062 
L 373.99875 617.861062 
L 373.99875 610.161062 
L 351.99875 610.161062 
z
" style="fill: #ffff99; stroke: #ffff99; stroke-linejoin: miter"/>
    </g>
    <g id="text_52">
     <text style="fill: #262626; font: 11px 'sans-serif'; text-anchor: start" x="382.79875" y="617.861062" transform="rotate(-0, 382.79875, 617.861062)">0 mean counts: f__UBA1242</text>
    </g>
    <g id="patch_45">
     <path d="M 351.99875 634.312937 
L 373.99875 634.312937 
L 373.99875 626.612937 
L 351.99875 626.612937 
z
" style="fill: #d95f02; stroke: #d95f02; stroke-linejoin: miter"/>
    </g>
    <g id="text_53">
     <text style="fill: #262626; font: 11px 'sans-serif'; text-anchor: start" x="382.79875" y="634.312937" transform="rotate(-0, 382.79875, 634.312937)">0 mean counts: f__UBA932</text>
    </g>
   </g>
  </g>
  <g id="axes_2">
   <g id="matplotlib.axis_3">
    <g id="xtick_7">
     <g id="line2d_22">
      <defs>
       <path id="m0b0fc564e9" d="M 0 0 
L 0 -6 
" style="stroke: #262626; stroke-width: 1.25"/>
      </defs>
      <g>
       <use xlink:href="#m0b0fc564e9" x="272.880179" y="39.663531" style="fill: #262626; stroke: #262626; stroke-width: 1.25"/>
      </g>
     </g>
     <g id="text_54">
      <text style="fill: #262626; font: 11px 'sans-serif'" transform="translate(257.53346 15.558281)">TCDD</text>
      <text style="fill: #262626; font: 11px 'sans-serif'" transform="translate(256.994632 27.875875)">(n=3)</text>
     </g>
    </g>
    <g id="xtick_8">
     <g id="line2d_23">
      <g>
       <use xlink:href="#m0b0fc564e9" x="126.737321" y="39.663531" style="fill: #262626; stroke: #262626; stroke-width: 1.25"/>
      </g>
     </g>
     <g id="text_55">
      <text style="fill: #262626; font: 11px 'sans-serif'" transform="translate(107.675525 15.558281)">control</text>
      <text style="fill: #262626; font: 11px 'sans-serif'" transform="translate(110.851775 27.875875)">(n=3)</text>
     </g>
    </g>
   </g>
   <g id="patch_46">
    <path d="M 60.30875 372.303531 
L 60.30875 39.663531 
" style="fill: none; stroke: #ffffff; stroke-width: 1.25; stroke-linejoin: miter; stroke-linecap: square"/>
   </g>
   <g id="patch_47">
    <path d="M 339.30875 372.303531 
L 339.30875 39.663531 
" style="fill: none; stroke: #ffffff; stroke-width: 1.25; stroke-linejoin: miter; stroke-linecap: square"/>
   </g>
   <g id="patch_48">
    <path d="M 60.30875 372.303531 
L 339.30875 372.303531 
" style="fill: none; stroke: #ffffff; stroke-width: 1.25; stroke-linejoin: miter; stroke-linecap: square"/>
   </g>
   <g id="patch_49">
    <path d="M 60.30875 39.663531 
L 339.30875 39.663531 
" style="fill: none; stroke: #ffffff; stroke-width: 1.25; stroke-linejoin: miter; stroke-linecap: square"/>
   </g>
  </g>
 </g>
 <defs>
  <clipPath id="ped972b6a25">
   <rect x="60.30875" y="39.663531" width="279" height="332.64"/>
  </clipPath>
 </defs>
</svg>
