<?xml version="1.0" encoding="utf-8" standalone="no"?>
<!DOCTYPE svg PUBLIC "-//W3C//DTD SVG 1.1//EN"
  "http://www.w3.org/Graphics/SVG/1.1/DTD/svg11.dtd">
<svg xmlns:xlink="http://www.w3.org/1999/xlink" width="430.710406pt" height="437.863594pt" viewBox="0 0 430.710406 437.863594" xmlns="http://www.w3.org/2000/svg" version="1.1">
 <metadata>
  <rdf:RDF xmlns:dc="http://purl.org/dc/elements/1.1/" xmlns:cc="http://creativecommons.org/ns#" xmlns:rdf="http://www.w3.org/1999/02/22-rdf-syntax-ns#">
   <cc:Work>
    <dc:type rdf:resource="http://purl.org/dc/dcmitype/StillImage"/>
    <dc:date>2025-02-20T14:16:44.953396</dc:date>
    <dc:format>image/svg+xml</dc:format>
    <dc:creator>
     <cc:Agent>
      <dc:title>Matplotlib v3.5.3, https://matplotlib.org/</dc:title>
     </cc:Agent>
    </dc:creator>
   </cc:Work>
  </rdf:RDF>
 </metadata>
 <defs>
  <style type="text/css">*{stroke-linejoin: round; stroke-linecap: butt}</style>
 </defs>
 <g id="figure_1">
  <g id="patch_1">
   <path d="M 0 437.863594 
L 430.710406 437.863594 
L 430.710406 0 
L 0 0 
z
" style="fill: #ffffff"/>
  </g>
  <g id="axes_1">
   <g id="patch_2">
    <path d="M 53.31 383.04 
L 220.71 383.04 
L 220.71 50.4 
L 53.31 50.4 
z
" style="fill: #ffffff"/>
   </g>
   <g id="matplotlib.axis_1"/>
   <g id="matplotlib.axis_2">
    <g id="ytick_1">
     <g id="line2d_1">
      <path d="M 53.31 383.04 
L 220.71 383.04 
" clip-path="url(#p5bb168172f)" style="fill: none; stroke: #ffffff; stroke-linecap: round"/>
     </g>
     <g id="text_1">
      <text style="fill: #262626; font: 11px 'sans-serif'; text-anchor: end" x="43.81" y="387.219141" transform="rotate(-0, 43.81, 387.219141)">0</text>
     </g>
    </g>
    <g id="ytick_2">
     <g id="line2d_2">
      <path d="M 53.31 316.512 
L 220.71 316.512 
" clip-path="url(#p5bb168172f)" style="fill: none; stroke: #ffffff; stroke-linecap: round"/>
     </g>
     <g id="text_2">
      <text style="fill: #262626; font: 11px 'sans-serif'; text-anchor: end" x="43.81" y="320.691141" transform="rotate(-0, 43.81, 320.691141)">20</text>
     </g>
    </g>
    <g id="ytick_3">
     <g id="line2d_3">
      <path d="M 53.31 249.984 
L 220.71 249.984 
" clip-path="url(#p5bb168172f)" style="fill: none; stroke: #ffffff; stroke-linecap: round"/>
     </g>
     <g id="text_3">
      <text style="fill: #262626; font: 11px 'sans-serif'; text-anchor: end" x="43.81" y="254.163141" transform="rotate(-0, 43.81, 254.163141)">40</text>
     </g>
    </g>
    <g id="ytick_4">
     <g id="line2d_4">
      <path d="M 53.31 183.456 
L 220.71 183.456 
" clip-path="url(#p5bb168172f)" style="fill: none; stroke: #ffffff; stroke-linecap: round"/>
     </g>
     <g id="text_4">
      <text style="fill: #262626; font: 11px 'sans-serif'; text-anchor: end" x="43.81" y="187.635141" transform="rotate(-0, 43.81, 187.635141)">60</text>
     </g>
    </g>
    <g id="ytick_5">
     <g id="line2d_5">
      <path d="M 53.31 116.928 
L 220.71 116.928 
" clip-path="url(#p5bb168172f)" style="fill: none; stroke: #ffffff; stroke-linecap: round"/>
     </g>
     <g id="text_5">
      <text style="fill: #262626; font: 11px 'sans-serif'; text-anchor: end" x="43.81" y="121.107141" transform="rotate(-0, 43.81, 121.107141)">80</text>
     </g>
    </g>
    <g id="ytick_6">
     <g id="line2d_6">
      <path d="M 53.31 50.4 
L 220.71 50.4 
" clip-path="url(#p5bb168172f)" style="fill: none; stroke: #ffffff; stroke-linecap: round"/>
     </g>
     <g id="text_6">
      <text style="fill: #262626; font: 11px 'sans-serif'; text-anchor: end" x="43.81" y="54.579141" transform="rotate(-0, 43.81, 54.579141)">100</text>
     </g>
    </g>
    <g id="text_7">
     <text style="fill: #262626; font: 12px 'sans-serif'; text-anchor: middle" x="16.318125" y="216.72" transform="rotate(-90, 16.318125, 216.72)">relative abundance phylum level %</text>
    </g>
   </g>
   <g id="PolyCollection_1">
    <defs>
     <path id="m4c4634780f" d="M 143.744483 -231.47761 
L 143.744483 -54.823594 
L 182.227241 -54.823594 
L 182.227241 -54.823594 
L 220.71 -54.823594 
L 220.71 -248.213098 
L 220.71 -248.213098 
L 182.227241 -248.213098 
L 182.227241 -231.47761 
L 143.744483 -231.47761 
z
"/>
    </defs>
    <g clip-path="url(#p5bb168172f)">
     <use xlink:href="#m4c4634780f" x="0" y="437.863594" style="fill: #b2df8a"/>
    </g>
   </g>
   <g id="PolyCollection_2">
    <defs>
     <path id="m20efc0478d" d="M 53.31 -250.785514 
L 53.31 -54.823594 
L 91.792759 -54.823594 
L 91.792759 -54.823594 
L 130.275517 -54.823594 
L 130.275517 -268.821994 
L 130.275517 -268.821994 
L 91.792759 -268.821994 
L 91.792759 -250.785514 
L 53.31 -250.785514 
z
"/>
    </defs>
    <g clip-path="url(#p5bb168172f)">
     <use xlink:href="#m20efc0478d" x="0" y="437.863594" style="fill: #b2df8a"/>
    </g>
   </g>
   <g id="PolyCollection_3">
    <defs>
     <path id="m13d63bc544" d="M 143.744483 -339.681706 
L 143.744483 -231.47761 
L 182.227241 -231.47761 
L 182.227241 -248.213098 
L 220.71 -248.213098 
L 220.71 -348.685162 
L 220.71 -348.685162 
L 182.227241 -348.685162 
L 182.227241 -339.681706 
L 143.744483 -339.681706 
z
"/>
    </defs>
    <g clip-path="url(#p5bb168172f)">
     <use xlink:href="#m13d63bc544" x="0" y="437.863594" style="fill: #1f78b4"/>
    </g>
   </g>
   <g id="PolyCollection_4">
    <defs>
     <path id="m3e67fb30b9" d="M 53.31 -351.582826 
L 53.31 -250.785514 
L 91.792759 -250.785514 
L 91.792759 -268.821994 
L 130.275517 -268.821994 
L 130.275517 -353.829994 
L 130.275517 -353.829994 
L 91.792759 -353.829994 
L 91.792759 -351.582826 
L 53.31 -351.582826 
z
"/>
    </defs>
    <g clip-path="url(#p5bb168172f)">
     <use xlink:href="#m3e67fb30b9" x="0" y="437.863594" style="fill: #1f78b4"/>
    </g>
   </g>
   <g id="PolyCollection_5">
    <defs>
     <path id="m00203cd05b" d="M 143.744483 -371.541226 
L 143.744483 -339.681706 
L 182.227241 -339.681706 
L 182.227241 -348.685162 
L 220.71 -348.685162 
L 220.71 -374.793706 
L 220.71 -374.793706 
L 182.227241 -374.793706 
L 182.227241 -371.541226 
L 143.744483 -371.541226 
z
"/>
    </defs>
    <g clip-path="url(#p5bb168172f)">
     <use xlink:href="#m00203cd05b" x="0" y="437.863594" style="fill: #33a02c"/>
    </g>
   </g>
   <g id="PolyCollection_6">
    <defs>
     <path id="m210abe9c4b" d="M 53.31 -370.787242 
L 53.31 -351.582826 
L 91.792759 -351.582826 
L 91.792759 -353.829994 
L 130.275517 -353.829994 
L 130.275517 -374.631082 
L 130.275517 -374.631082 
L 91.792759 -374.631082 
L 91.792759 -370.787242 
L 53.31 -370.787242 
z
"/>
    </defs>
    <g clip-path="url(#p5bb168172f)">
     <use xlink:href="#m210abe9c4b" x="0" y="437.863594" style="fill: #33a02c"/>
    </g>
   </g>
   <g id="PolyCollection_7">
    <defs>
     <path id="m4db2c297b0" d="M 143.744483 -378.741034 
L 143.744483 -371.541226 
L 182.227241 -371.541226 
L 182.227241 -374.793706 
L 220.71 -374.793706 
L 220.71 -380.544682 
L 220.71 -380.544682 
L 182.227241 -380.544682 
L 182.227241 -378.741034 
L 143.744483 -378.741034 
z
"/>
    </defs>
    <g clip-path="url(#p5bb168172f)">
     <use xlink:href="#m4db2c297b0" x="0" y="437.863594" style="fill: #fdbf6f"/>
    </g>
   </g>
   <g id="PolyCollection_8">
    <defs>
     <path id="m0193140155" d="M 53.31 -373.389226 
L 53.31 -370.787242 
L 91.792759 -370.787242 
L 91.792759 -374.631082 
L 130.275517 -374.631082 
L 130.275517 -378.312298 
L 130.275517 -378.312298 
L 91.792759 -378.312298 
L 91.792759 -373.389226 
L 53.31 -373.389226 
z
"/>
    </defs>
    <g clip-path="url(#p5bb168172f)">
     <use xlink:href="#m0193140155" x="0" y="437.863594" style="fill: #fdbf6f"/>
    </g>
   </g>
   <g id="PolyCollection_9">
    <defs>
     <path id="m6f595bfc45" d="M 143.744483 -379.790698 
L 143.744483 -378.741034 
L 182.227241 -378.741034 
L 182.227241 -380.544682 
L 220.71 -380.544682 
L 220.71 -381.062122 
L 220.71 -381.062122 
L 182.227241 -381.062122 
L 182.227241 -379.790698 
L 143.744483 -379.790698 
z
"/>
    </defs>
    <g clip-path="url(#p5bb168172f)">
     <use xlink:href="#m6f595bfc45" x="0" y="437.863594" style="fill: #fb9a99"/>
    </g>
   </g>
   <g id="PolyCollection_10">
    <defs>
     <path id="m0caeb4dda8" d="M 53.31 -380.64817 
L 53.31 -373.389226 
L 91.792759 -373.389226 
L 91.792759 -378.312298 
L 130.275517 -378.312298 
L 130.275517 -380.929066 
L 130.275517 -380.929066 
L 91.792759 -380.929066 
L 91.792759 -380.64817 
L 53.31 -380.64817 
z
"/>
    </defs>
    <g clip-path="url(#p5bb168172f)">
     <use xlink:href="#m0caeb4dda8" x="0" y="437.863594" style="fill: #fb9a99"/>
    </g>
   </g>
   <g id="PolyCollection_11">
    <defs>
     <path id="m34b55fb8d9" d="M 143.744483 -382.20049 
L 143.744483 -379.790698 
L 182.227241 -379.790698 
L 182.227241 -381.062122 
L 220.71 -381.062122 
L 220.71 -383.427562 
L 220.71 -383.427562 
L 182.227241 -383.427562 
L 182.227241 -382.20049 
L 143.744483 -382.20049 
z
"/>
    </defs>
    <g clip-path="url(#p5bb168172f)">
     <use xlink:href="#m34b55fb8d9" x="0" y="437.863594" style="fill: #ff7f00"/>
    </g>
   </g>
   <g id="PolyCollection_12">
    <defs>
     <path id="mb6ec68a242" d="M 53.31 -382.836202 
L 53.31 -380.64817 
L 91.792759 -380.64817 
L 91.792759 -380.929066 
L 130.275517 -380.929066 
L 130.275517 -383.353642 
L 130.275517 -383.353642 
L 91.792759 -383.353642 
L 91.792759 -382.836202 
L 53.31 -382.836202 
z
"/>
    </defs>
    <g clip-path="url(#p5bb168172f)">
     <use xlink:href="#mb6ec68a242" x="0" y="437.863594" style="fill: #ff7f00"/>
    </g>
   </g>
   <g id="PolyCollection_13">
    <defs>
     <path id="m5013a3ded1" d="M 143.744483 -384.610282 
L 143.744483 -382.20049 
L 182.227241 -382.20049 
L 182.227241 -383.427562 
L 220.71 -383.427562 
L 220.71 -385.645162 
L 220.71 -385.645162 
L 182.227241 -385.645162 
L 182.227241 -384.610282 
L 143.744483 -384.610282 
z
"/>
    </defs>
    <g clip-path="url(#p5bb168172f)">
     <use xlink:href="#m5013a3ded1" x="0" y="437.863594" style="fill: #e31a1c"/>
    </g>
   </g>
   <g id="PolyCollection_14">
    <defs>
     <path id="m3f06940431" d="M 53.31 -383.945002 
L 53.31 -382.836202 
L 91.792759 -382.836202 
L 91.792759 -383.353642 
L 130.275517 -383.353642 
L 130.275517 -384.211114 
L 130.275517 -384.211114 
L 91.792759 -384.211114 
L 91.792759 -383.945002 
L 53.31 -383.945002 
z
"/>
    </defs>
    <g clip-path="url(#p5bb168172f)">
     <use xlink:href="#m3f06940431" x="0" y="437.863594" style="fill: #e31a1c"/>
    </g>
   </g>
   <g id="PolyCollection_15">
    <defs>
     <path id="m5c3493d2de" d="M 143.744483 -385.423402 
L 143.744483 -384.610282 
L 182.227241 -384.610282 
L 182.227241 -385.645162 
L 220.71 -385.645162 
L 220.71 -386.384362 
L 220.71 -386.384362 
L 182.227241 -386.384362 
L 182.227241 -385.423402 
L 143.744483 -385.423402 
z
"/>
    </defs>
    <g clip-path="url(#p5bb168172f)">
     <use xlink:href="#m5c3493d2de" x="0" y="437.863594" style="fill: #cab2d6"/>
    </g>
   </g>
   <g id="PolyCollection_16">
    <defs>
     <path id="m380938d862" d="M 53.31 -385.556458 
L 53.31 -383.945002 
L 91.792759 -383.945002 
L 91.792759 -384.211114 
L 130.275517 -384.211114 
L 130.275517 -385.689514 
L 130.275517 -385.689514 
L 91.792759 -385.689514 
L 91.792759 -385.556458 
L 53.31 -385.556458 
z
"/>
    </defs>
    <g clip-path="url(#p5bb168172f)">
     <use xlink:href="#m380938d862" x="0" y="437.863594" style="fill: #cab2d6"/>
    </g>
   </g>
   <g id="PolyCollection_17">
    <defs>
     <path id="m624ada25ed" d="M 143.744483 -386.48785 
L 143.744483 -385.423402 
L 182.227241 -385.423402 
L 182.227241 -386.384362 
L 220.71 -386.384362 
L 220.71 -386.827882 
L 220.71 -386.827882 
L 182.227241 -386.827882 
L 182.227241 -386.48785 
L 143.744483 -386.48785 
z
"/>
    </defs>
    <g clip-path="url(#p5bb168172f)">
     <use xlink:href="#m624ada25ed" x="0" y="437.863594" style="fill: #ffff99"/>
    </g>
   </g>
   <g id="PolyCollection_18">
    <defs>
     <path id="m4120c854f3" d="M 53.31 -386.443498 
L 53.31 -385.556458 
L 91.792759 -385.556458 
L 91.792759 -385.689514 
L 130.275517 -385.689514 
L 130.275517 -386.768746 
L 130.275517 -386.768746 
L 91.792759 -386.768746 
L 91.792759 -386.443498 
L 53.31 -386.443498 
z
"/>
    </defs>
    <g clip-path="url(#p5bb168172f)">
     <use xlink:href="#m4120c854f3" x="0" y="437.863594" style="fill: #ffff99"/>
    </g>
   </g>
   <g id="PolyCollection_19">
    <defs>
     <path id="m0bf12d47aa" d="M 143.744483 -387.463594 
L 143.744483 -386.48785 
L 182.227241 -386.48785 
L 182.227241 -386.827882 
L 220.71 -386.827882 
L 220.71 -387.463594 
L 220.71 -387.463594 
L 182.227241 -387.463594 
L 182.227241 -387.463594 
L 143.744483 -387.463594 
z
"/>
    </defs>
    <g clip-path="url(#p5bb168172f)">
     <use xlink:href="#m0bf12d47aa" x="0" y="437.863594" style="fill: #6a3d9a"/>
    </g>
   </g>
   <g id="PolyCollection_20">
    <defs>
     <path id="m03be2720e8" d="M 53.31 -387.463594 
L 53.31 -386.443498 
L 91.792759 -386.443498 
L 91.792759 -386.768746 
L 130.275517 -386.768746 
L 130.275517 -387.463594 
L 130.275517 -387.463594 
L 91.792759 -387.463594 
L 91.792759 -387.463594 
L 53.31 -387.463594 
z
"/>
    </defs>
    <g clip-path="url(#p5bb168172f)">
     <use xlink:href="#m03be2720e8" x="0" y="437.863594" style="fill: #6a3d9a"/>
    </g>
   </g>
   <g id="patch_3">
    <path d="M 143.744483 383.04 
L 220.71 383.04 
L 220.71 50.4 
L 143.744483 50.4 
L 143.744483 383.04 
z
" clip-path="url(#p5bb168172f)" style="fill: none; stroke: #808080; stroke-linejoin: miter"/>
   </g>
   <g id="patch_4">
    <path d="M 53.31 383.04 
L 130.275517 383.04 
L 130.275517 50.4 
L 53.31 50.4 
L 53.31 383.04 
z
" clip-path="url(#p5bb168172f)" style="fill: none; stroke: #808080; stroke-linejoin: miter"/>
   </g>
   <g id="patch_5">
    <path d="M 53.31 383.04 
L 53.31 50.4 
" style="fill: none; stroke: #ffffff; stroke-width: 1.25; stroke-linejoin: miter; stroke-linecap: square"/>
   </g>
   <g id="patch_6">
    <path d="M 220.71 383.04 
L 220.71 50.4 
" style="fill: none; stroke: #ffffff; stroke-width: 1.25; stroke-linejoin: miter; stroke-linecap: square"/>
   </g>
   <g id="patch_7">
    <path d="M 53.31 383.04 
L 220.71 383.04 
" style="fill: none; stroke: #ffffff; stroke-width: 1.25; stroke-linejoin: miter; stroke-linecap: square"/>
   </g>
   <g id="patch_8">
    <path d="M 53.31 50.4 
L 220.71 50.4 
" style="fill: none; stroke: #ffffff; stroke-width: 1.25; stroke-linejoin: miter; stroke-linecap: square"/>
   </g>
   <g id="legend_1">
    <g id="patch_9">
     <path d="M 230.084 235.98975 
L 421.310406 235.98975 
Q 423.510406 235.98975 423.510406 233.78975 
L 423.510406 41.468 
Q 423.510406 39.268 421.310406 39.268 
L 230.084 39.268 
Q 227.884 39.268 227.884 41.468 
L 227.884 233.78975 
Q 227.884 235.98975 230.084 235.98975 
z
" style="fill: #eaeaf2; opacity: 0.8; stroke: #cccccc; stroke-linejoin: miter"/>
    </g>
    <g id="text_8">
     <text style="fill: #262626; font: 700 12px 'sans-serif'" transform="translate(255.919078 52.786125)">Aggregrated "mean"</text>
     <text style="fill: #262626; font: 700 12px 'sans-serif'" transform="translate(255.919078 66.31725)">Rank: Phylum</text>
    </g>
    <g id="patch_10">
     <path d="M 232.284 82.764906 
L 254.284 82.764906 
L 254.284 75.064906 
L 232.284 75.064906 
z
" style="fill: #b2df8a; stroke: #b2df8a; stroke-linejoin: miter"/>
    </g>
    <g id="text_9">
     <text style="fill: #262626; font: 11px 'sans-serif'; text-anchor: start" x="263.084" y="82.764906" transform="rotate(-0, 263.084, 82.764906)">Bacillota_A_368345</text>
    </g>
    <g id="patch_11">
     <path d="M 232.284 99.216781 
L 254.284 99.216781 
L 254.284 91.516781 
L 232.284 91.516781 
z
" style="fill: #1f78b4; stroke: #1f78b4; stroke-linejoin: miter"/>
    </g>
    <g id="text_10">
     <text style="fill: #262626; font: 11px 'sans-serif'; text-anchor: start" x="263.084" y="99.216781" transform="rotate(-0, 263.084, 99.216781)">Bacteroidota</text>
    </g>
    <g id="patch_12">
     <path d="M 232.284 115.362719 
L 254.284 115.362719 
L 254.284 107.662719 
L 232.284 107.662719 
z
" style="fill: #33a02c; stroke: #33a02c; stroke-linejoin: miter"/>
    </g>
    <g id="text_11">
     <text style="fill: #262626; font: 11px 'sans-serif'; text-anchor: start" x="263.084" y="115.362719" transform="rotate(-0, 263.084, 115.362719)">Bacillota_I</text>
    </g>
    <g id="patch_13">
     <path d="M 232.284 131.814594 
L 254.284 131.814594 
L 254.284 124.114594 
L 232.284 124.114594 
z
" style="fill: #fdbf6f; stroke: #fdbf6f; stroke-linejoin: miter"/>
    </g>
    <g id="text_12">
     <text style="fill: #262626; font: 11px 'sans-serif'; text-anchor: start" x="263.084" y="131.814594" transform="rotate(-0, 263.084, 131.814594)">Desulfobacterota_G_459543</text>
    </g>
    <g id="patch_14">
     <path d="M 232.284 148.266469 
L 254.284 148.266469 
L 254.284 140.566469 
L 232.284 140.566469 
z
" style="fill: #fb9a99; stroke: #fb9a99; stroke-linejoin: miter"/>
    </g>
    <g id="text_13">
     <text style="fill: #262626; font: 11px 'sans-serif'; text-anchor: start" x="263.084" y="148.266469" transform="rotate(-0, 263.084, 148.266469)">Verrucomicrobiota</text>
    </g>
    <g id="patch_15">
     <path d="M 232.284 164.412406 
L 254.284 164.412406 
L 254.284 156.712406 
L 232.284 156.712406 
z
" style="fill: #ff7f00; stroke: #ff7f00; stroke-linejoin: miter"/>
    </g>
    <g id="text_14">
     <text style="fill: #262626; font: 11px 'sans-serif'; text-anchor: start" x="263.084" y="164.412406" transform="rotate(-0, 263.084, 164.412406)">Bacillota_B_370539</text>
    </g>
    <g id="patch_16">
     <path d="M 232.284 180.864281 
L 254.284 180.864281 
L 254.284 173.164281 
L 232.284 173.164281 
z
" style="fill: #e31a1c; stroke: #e31a1c; stroke-linejoin: miter"/>
    </g>
    <g id="text_15">
     <text style="fill: #262626; font: 11px 'sans-serif'; text-anchor: start" x="263.084" y="180.864281" transform="rotate(-0, 263.084, 180.864281)">Actinomycetota</text>
    </g>
    <g id="patch_17">
     <path d="M 232.284 197.010219 
L 254.284 197.010219 
L 254.284 189.310219 
L 232.284 189.310219 
z
" style="fill: #cab2d6; stroke: #cab2d6; stroke-linejoin: miter"/>
    </g>
    <g id="text_16">
     <text style="fill: #262626; font: 11px 'sans-serif'; text-anchor: start" x="263.084" y="197.010219" transform="rotate(-0, 263.084, 197.010219)">unclassified phylum</text>
    </g>
    <g id="patch_18">
     <path d="M 232.284 213.156156 
L 254.284 213.156156 
L 254.284 205.456156 
L 232.284 205.456156 
z
" style="fill: #ffff99; stroke: #ffff99; stroke-linejoin: miter"/>
    </g>
    <g id="text_17">
     <text style="fill: #262626; font: 11px 'sans-serif'; text-anchor: start" x="263.084" y="213.156156" transform="rotate(-0, 263.084, 213.156156)">Cyanobacteriota</text>
    </g>
    <g id="patch_19">
     <path d="M 232.284 229.302094 
L 254.284 229.302094 
L 254.284 221.602094 
L 232.284 221.602094 
z
" style="fill: #6a3d9a; stroke: #6a3d9a; stroke-linejoin: miter"/>
    </g>
    <g id="text_18">
     <text style="fill: #262626; font: 11px 'sans-serif'; text-anchor: start" x="263.084" y="229.302094" transform="rotate(-0, 263.084, 229.302094)">Pseudomonadota</text>
    </g>
   </g>
  </g>
  <g id="axes_2">
   <g id="matplotlib.axis_3">
    <g id="xtick_1">
     <g id="line2d_7">
      <defs>
       <path id="mfb395c2882" d="M 0 0 
L 0 -6 
" style="stroke: #262626; stroke-width: 1.25"/>
      </defs>
      <g>
       <use xlink:href="#mfb395c2882" x="182.227241" y="50.4" style="fill: #262626; stroke: #262626; stroke-width: 1.25"/>
      </g>
     </g>
     <g id="text_19">
      <text style="fill: #262626; font: 11px 'sans-serif'" transform="translate(163.266851 26.29475)">female</text>
      <text style="fill: #262626; font: 11px 'sans-serif'" transform="translate(162.84232 38.612344)">(n=18)</text>
     </g>
    </g>
    <g id="xtick_2">
     <g id="line2d_8">
      <g>
       <use xlink:href="#mfb395c2882" x="91.792759" y="50.4" style="fill: #262626; stroke: #262626; stroke-width: 1.25"/>
      </g>
     </g>
     <g id="text_20">
      <text style="fill: #262626; font: 11px 'sans-serif'" transform="translate(78.152759 26.29475)">male</text>
      <text style="fill: #262626; font: 11px 'sans-serif'" transform="translate(72.407837 38.612344)">(n=18)</text>
     </g>
    </g>
   </g>
   <g id="patch_20">
    <path d="M 53.31 383.04 
L 53.31 50.4 
" style="fill: none; stroke: #ffffff; stroke-width: 1.25; stroke-linejoin: miter; stroke-linecap: square"/>
   </g>
   <g id="patch_21">
    <path d="M 220.71 383.04 
L 220.71 50.4 
" style="fill: none; stroke: #ffffff; stroke-width: 1.25; stroke-linejoin: miter; stroke-linecap: square"/>
   </g>
   <g id="patch_22">
    <path d="M 53.31 383.04 
L 220.71 383.04 
" style="fill: none; stroke: #ffffff; stroke-width: 1.25; stroke-linejoin: miter; stroke-linecap: square"/>
   </g>
   <g id="patch_23">
    <path d="M 53.31 50.4 
L 220.71 50.4 
" style="fill: none; stroke: #ffffff; stroke-width: 1.25; stroke-linejoin: miter; stroke-linecap: square"/>
   </g>
  </g>
  <g id="axes_3">
   <g id="matplotlib.axis_4">
    <g id="xtick_3">
     <g id="line2d_9">
      <defs>
       <path id="m094f10c69b" d="M 0 0 
L 0 6 
" style="stroke: #262626; stroke-width: 1.25"/>
      </defs>
      <g>
       <use xlink:href="#m094f10c69b" x="201.468621" y="383.04" style="fill: #262626; stroke: #262626; stroke-width: 1.25"/>
      </g>
     </g>
     <g id="text_21">
      <text style="fill: #262626; font: 11px 'sans-serif'" transform="translate(198.345136 423.772266)rotate(-90)">TCDD</text>
      <text style="fill: #262626; font: 11px 'sans-serif'" transform="translate(210.66273 424.311094)rotate(-90)">(n=9)</text>
     </g>
    </g>
    <g id="xtick_4">
     <g id="line2d_10">
      <g>
       <use xlink:href="#m094f10c69b" x="162.985862" y="383.04" style="fill: #262626; stroke: #262626; stroke-width: 1.25"/>
      </g>
     </g>
     <g id="text_22">
      <text style="fill: #262626; font: 11px 'sans-serif'" transform="translate(159.862378 430.663594)rotate(-90)">control</text>
      <text style="fill: #262626; font: 11px 'sans-serif'" transform="translate(172.179971 427.487344)rotate(-90)">(n=9)</text>
     </g>
    </g>
    <g id="xtick_5">
     <g id="line2d_11">
      <g>
       <use xlink:href="#m094f10c69b" x="111.034138" y="383.04" style="fill: #262626; stroke: #262626; stroke-width: 1.25"/>
      </g>
     </g>
     <g id="text_23">
      <text style="fill: #262626; font: 11px 'sans-serif'" transform="translate(107.910654 423.772266)rotate(-90)">TCDD</text>
      <text style="fill: #262626; font: 11px 'sans-serif'" transform="translate(120.228247 424.311094)rotate(-90)">(n=9)</text>
     </g>
    </g>
    <g id="xtick_6">
     <g id="line2d_12">
      <g>
       <use xlink:href="#m094f10c69b" x="72.551379" y="383.04" style="fill: #262626; stroke: #262626; stroke-width: 1.25"/>
      </g>
     </g>
     <g id="text_24">
      <text style="fill: #262626; font: 11px 'sans-serif'" transform="translate(69.427895 430.663594)rotate(-90)">control</text>
      <text style="fill: #262626; font: 11px 'sans-serif'" transform="translate(81.745489 427.487344)rotate(-90)">(n=9)</text>
     </g>
    </g>
    <g id="xtick_7">
     <g id="line2d_13">
      <path d="M 182.227241 383.04 
L 182.227241 50.4 
" clip-path="url(#p5bb168172f)" style="fill: none; stroke: #ffffff; stroke-width: 2; stroke-linecap: round"/>
     </g>
     <g id="line2d_14">
      <defs>
       <path id="m8e0e31484b" d="M 0 0 
L 0 4 
" style="stroke: #262626"/>
      </defs>
      <g>
       <use xlink:href="#m8e0e31484b" x="182.227241" y="383.04" style="fill: #262626; stroke: #262626"/>
      </g>
     </g>
    </g>
    <g id="xtick_8">
     <g id="line2d_15">
      <path d="M 143.744483 383.04 
L 143.744483 50.4 
" clip-path="url(#p5bb168172f)" style="fill: none; stroke: #ffffff; stroke-width: 2; stroke-linecap: round"/>
     </g>
     <g id="line2d_16">
      <g>
       <use xlink:href="#m8e0e31484b" x="143.744483" y="383.04" style="fill: #262626; stroke: #262626"/>
      </g>
     </g>
    </g>
    <g id="xtick_9">
     <g id="line2d_17">
      <path d="M 91.792759 383.04 
L 91.792759 50.4 
" clip-path="url(#p5bb168172f)" style="fill: none; stroke: #ffffff; stroke-width: 2; stroke-linecap: round"/>
     </g>
     <g id="line2d_18">
      <g>
       <use xlink:href="#m8e0e31484b" x="91.792759" y="383.04" style="fill: #262626; stroke: #262626"/>
      </g>
     </g>
    </g>
    <g id="xtick_10">
     <g id="line2d_19">
      <path d="M 53.31 383.04 
L 53.31 50.4 
" clip-path="url(#p5bb168172f)" style="fill: none; stroke: #ffffff; stroke-width: 2; stroke-linecap: round"/>
     </g>
     <g id="line2d_20">
      <g>
       <use xlink:href="#m8e0e31484b" x="53.31" y="383.04" style="fill: #262626; stroke: #262626"/>
      </g>
     </g>
    </g>
   </g>
   <g id="patch_24">
    <path d="M 53.31 383.04 
L 53.31 50.4 
" style="fill: none; stroke: #ffffff; stroke-width: 1.25; stroke-linejoin: miter; stroke-linecap: square"/>
   </g>
   <g id="patch_25">
    <path d="M 220.71 383.04 
L 220.71 50.4 
" style="fill: none; stroke: #ffffff; stroke-width: 1.25; stroke-linejoin: miter; stroke-linecap: square"/>
   </g>
   <g id="patch_26">
    <path d="M 53.31 383.04 
L 220.71 383.04 
" style="fill: none; stroke: #ffffff; stroke-width: 1.25; stroke-linejoin: miter; stroke-linecap: square"/>
   </g>
   <g id="patch_27">
    <path d="M 53.31 50.4 
L 220.71 50.4 
" style="fill: none; stroke: #ffffff; stroke-width: 1.25; stroke-linejoin: miter; stroke-linecap: square"/>
   </g>
  </g>
  <g id="text_25">
   <text style="fill: #262626; font: 14.4px 'sans-serif'; text-anchor: middle" x="134.31" y="18.14175" transform="rotate(-0, 134.31, 18.14175)">Phylum cecum</text>
  </g>
 </g>
 <defs>
  <clipPath id="p5bb168172f">
   <rect x="53.31" y="50.4" width="167.4" height="332.64"/>
  </clipPath>
 </defs>
</svg>
