<?xml version="1.0" encoding="utf-8" standalone="no"?>
<!DOCTYPE svg PUBLIC "-//W3C//DTD SVG 1.1//EN"
  "http://www.w3.org/Graphics/SVG/1.1/DTD/svg11.dtd">
<svg xmlns:xlink="http://www.w3.org/1999/xlink" width="599.784406pt" height="473.130625pt" viewBox="0 0 599.784406 473.130625" xmlns="http://www.w3.org/2000/svg" version="1.1">
 <metadata>
  <rdf:RDF xmlns:dc="http://purl.org/dc/elements/1.1/" xmlns:cc="http://creativecommons.org/ns#" xmlns:rdf="http://www.w3.org/1999/02/22-rdf-syntax-ns#">
   <cc:Work>
    <dc:type rdf:resource="http://purl.org/dc/dcmitype/StillImage"/>
    <dc:date>2025-02-20T14:15:51.881937</dc:date>
    <dc:format>image/svg+xml</dc:format>
    <dc:creator>
     <cc:Agent>
      <dc:title>Matplotlib v3.5.3, https://matplotlib.org/</dc:title>
     </cc:Agent>
    </dc:creator>
   </cc:Work>
  </rdf:RDF>
 </metadata>
 <defs>
  <style type="text/css">*{stroke-linejoin: round; stroke-linecap: butt}</style>
 </defs>
 <g id="figure_1">
  <g id="patch_1">
   <path d="M 0 473.130625 
L 599.784406 473.130625 
L 599.784406 0 
L 0 0 
z
" style="fill: #ffffff"/>
  </g>
  <g id="axes_1">
   <g id="patch_2">
    <path d="M 53.31 383.04 
L 388.11 383.04 
L 388.11 50.4 
L 53.31 50.4 
z
" style="fill: #ffffff"/>
   </g>
   <g id="matplotlib.axis_1">
    <g id="xtick_1">
     <g id="line2d_1">
      <path d="M 73.357904 383.04 
L 73.357904 50.4 
" clip-path="url(#pc160254433)" style="fill: none; stroke: #ffffff; stroke-linecap: round"/>
     </g>
     <g id="line2d_2">
      <defs>
       <path id="m82af09ec71" d="M 0 0 
L 0 6 
" style="stroke: #262626; stroke-width: 1.25"/>
      </defs>
      <g>
       <use xlink:href="#m82af09ec71" x="73.357904" y="383.04" style="fill: #262626; stroke: #262626; stroke-width: 1.25"/>
      </g>
     </g>
     <g id="text_1">
      <text style="fill: #262626; font: 11px 'sans-serif'" transform="translate(76.393217 465.930625)rotate(-90)">control (n=9)</text>
     </g>
    </g>
    <g id="xtick_2">
     <g id="line2d_3">
      <path d="M 113.453713 383.04 
L 113.453713 50.4 
" clip-path="url(#pc160254433)" style="fill: none; stroke: #ffffff; stroke-linecap: round"/>
     </g>
     <g id="line2d_4">
      <g>
       <use xlink:href="#m82af09ec71" x="113.453713" y="383.04" style="fill: #262626; stroke: #262626; stroke-width: 1.25"/>
      </g>
     </g>
     <g id="text_2">
      <text style="fill: #262626; font: 11px 'sans-serif'" transform="translate(116.489025 458.500469)rotate(-90)">TCDD (n=9)</text>
     </g>
    </g>
    <g id="xtick_3">
     <g id="line2d_5">
      <path d="M 153.549521 383.04 
L 153.549521 50.4 
" clip-path="url(#pc160254433)" style="fill: none; stroke: #ffffff; stroke-linecap: round"/>
     </g>
     <g id="line2d_6">
      <g>
       <use xlink:href="#m82af09ec71" x="153.549521" y="383.04" style="fill: #262626; stroke: #262626; stroke-width: 1.25"/>
      </g>
     </g>
     <g id="text_3">
      <text style="fill: #262626; font: 11px 'sans-serif'" transform="translate(156.584833 465.930625)rotate(-90)">control (n=9)</text>
     </g>
    </g>
    <g id="xtick_4">
     <g id="line2d_7">
      <path d="M 193.645329 383.04 
L 193.645329 50.4 
" clip-path="url(#pc160254433)" style="fill: none; stroke: #ffffff; stroke-linecap: round"/>
     </g>
     <g id="line2d_8">
      <g>
       <use xlink:href="#m82af09ec71" x="193.645329" y="383.04" style="fill: #262626; stroke: #262626; stroke-width: 1.25"/>
      </g>
     </g>
     <g id="text_4">
      <text style="fill: #262626; font: 11px 'sans-serif'" transform="translate(196.680642 458.500469)rotate(-90)">TCDD (n=8)</text>
     </g>
    </g>
    <g id="xtick_5">
     <g id="line2d_9">
      <path d="M 247.774671 383.04 
L 247.774671 50.4 
" clip-path="url(#pc160254433)" style="fill: none; stroke: #ffffff; stroke-linecap: round"/>
     </g>
     <g id="line2d_10">
      <g>
       <use xlink:href="#m82af09ec71" x="247.774671" y="383.04" style="fill: #262626; stroke: #262626; stroke-width: 1.25"/>
      </g>
     </g>
     <g id="text_5">
      <text style="fill: #262626; font: 11px 'sans-serif'" transform="translate(250.809983 465.930625)rotate(-90)">control (n=9)</text>
     </g>
    </g>
    <g id="xtick_6">
     <g id="line2d_11">
      <path d="M 287.870479 383.04 
L 287.870479 50.4 
" clip-path="url(#pc160254433)" style="fill: none; stroke: #ffffff; stroke-linecap: round"/>
     </g>
     <g id="line2d_12">
      <g>
       <use xlink:href="#m82af09ec71" x="287.870479" y="383.04" style="fill: #262626; stroke: #262626; stroke-width: 1.25"/>
      </g>
     </g>
     <g id="text_6">
      <text style="fill: #262626; font: 11px 'sans-serif'" transform="translate(290.905792 458.500469)rotate(-90)">TCDD (n=9)</text>
     </g>
    </g>
    <g id="xtick_7">
     <g id="line2d_13">
      <path d="M 327.966287 383.04 
L 327.966287 50.4 
" clip-path="url(#pc160254433)" style="fill: none; stroke: #ffffff; stroke-linecap: round"/>
     </g>
     <g id="line2d_14">
      <g>
       <use xlink:href="#m82af09ec71" x="327.966287" y="383.04" style="fill: #262626; stroke: #262626; stroke-width: 1.25"/>
      </g>
     </g>
     <g id="text_7">
      <text style="fill: #262626; font: 11px 'sans-serif'" transform="translate(331.0016 465.930625)rotate(-90)">control (n=9)</text>
     </g>
    </g>
    <g id="xtick_8">
     <g id="line2d_15">
      <path d="M 368.062096 383.04 
L 368.062096 50.4 
" clip-path="url(#pc160254433)" style="fill: none; stroke: #ffffff; stroke-linecap: round"/>
     </g>
     <g id="line2d_16">
      <g>
       <use xlink:href="#m82af09ec71" x="368.062096" y="383.04" style="fill: #262626; stroke: #262626; stroke-width: 1.25"/>
      </g>
     </g>
     <g id="text_8">
      <text style="fill: #262626; font: 11px 'sans-serif'" transform="translate(371.097408 458.500469)rotate(-90)">TCDD (n=8)</text>
     </g>
    </g>
   </g>
   <g id="matplotlib.axis_2">
    <g id="ytick_1">
     <g id="line2d_17">
      <path d="M 53.31 383.04 
L 388.11 383.04 
" clip-path="url(#pc160254433)" style="fill: none; stroke: #ffffff; stroke-linecap: round"/>
     </g>
     <g id="text_9">
      <text style="fill: #262626; font: 11px 'sans-serif'; text-anchor: end" x="43.81" y="387.219141" transform="rotate(-0, 43.81, 387.219141)">0</text>
     </g>
    </g>
    <g id="ytick_2">
     <g id="line2d_18">
      <path d="M 53.31 316.512 
L 388.11 316.512 
" clip-path="url(#pc160254433)" style="fill: none; stroke: #ffffff; stroke-linecap: round"/>
     </g>
     <g id="text_10">
      <text style="fill: #262626; font: 11px 'sans-serif'; text-anchor: end" x="43.81" y="320.691141" transform="rotate(-0, 43.81, 320.691141)">20</text>
     </g>
    </g>
    <g id="ytick_3">
     <g id="line2d_19">
      <path d="M 53.31 249.984 
L 388.11 249.984 
" clip-path="url(#pc160254433)" style="fill: none; stroke: #ffffff; stroke-linecap: round"/>
     </g>
     <g id="text_11">
      <text style="fill: #262626; font: 11px 'sans-serif'; text-anchor: end" x="43.81" y="254.163141" transform="rotate(-0, 43.81, 254.163141)">40</text>
     </g>
    </g>
    <g id="ytick_4">
     <g id="line2d_20">
      <path d="M 53.31 183.456 
L 388.11 183.456 
" clip-path="url(#pc160254433)" style="fill: none; stroke: #ffffff; stroke-linecap: round"/>
     </g>
     <g id="text_12">
      <text style="fill: #262626; font: 11px 'sans-serif'; text-anchor: end" x="43.81" y="187.635141" transform="rotate(-0, 43.81, 187.635141)">60</text>
     </g>
    </g>
    <g id="ytick_5">
     <g id="line2d_21">
      <path d="M 53.31 116.928 
L 388.11 116.928 
" clip-path="url(#pc160254433)" style="fill: none; stroke: #ffffff; stroke-linecap: round"/>
     </g>
     <g id="text_13">
      <text style="fill: #262626; font: 11px 'sans-serif'; text-anchor: end" x="43.81" y="121.107141" transform="rotate(-0, 43.81, 121.107141)">80</text>
     </g>
    </g>
    <g id="ytick_6">
     <g id="line2d_22">
      <path d="M 53.31 50.4 
L 388.11 50.4 
" clip-path="url(#pc160254433)" style="fill: none; stroke: #ffffff; stroke-linecap: round"/>
     </g>
     <g id="text_14">
      <text style="fill: #262626; font: 11px 'sans-serif'; text-anchor: end" x="43.81" y="54.579141" transform="rotate(-0, 43.81, 54.579141)">100</text>
     </g>
    </g>
    <g id="text_15">
     <text style="fill: #262626; font: 12px 'sans-serif'; text-anchor: middle" x="16.318125" y="216.72" transform="rotate(-90, 16.318125, 216.72)">relative abundance phylum level %</text>
    </g>
   </g>
   <g id="PolyCollection_1">
    <defs>
     <path id="m8d1c41be13" d="M 227.726766 -284.300641 
L 227.726766 -90.090625 
L 267.822575 -90.090625 
L 267.822575 -90.090625 
L 307.918383 -90.090625 
L 307.918383 -90.090625 
L 348.014192 -90.090625 
L 348.014192 -90.090625 
L 388.11 -90.090625 
L 388.11 -263.709301 
L 388.11 -263.709301 
L 348.014192 -263.709301 
L 348.014192 -249.523745 
L 307.918383 -249.523745 
L 307.918383 -294.844097 
L 267.822575 -294.844097 
L 267.822575 -284.300641 
L 227.726766 -284.300641 
z
"/>
    </defs>
    <g clip-path="url(#pc160254433)">
     <use xlink:href="#m8d1c41be13" x="0" y="473.130625" style="fill: #1f78b4"/>
    </g>
   </g>
   <g id="PolyCollection_2">
    <defs>
     <path id="m27e0921e58" d="M 53.31 -258.103393 
L 53.31 -90.090625 
L 93.405808 -90.090625 
L 93.405808 -90.090625 
L 133.501617 -90.090625 
L 133.501617 -90.090625 
L 173.597425 -90.090625 
L 173.597425 -90.090625 
L 213.693234 -90.090625 
L 213.693234 -239.379457 
L 213.693234 -239.379457 
L 173.597425 -239.379457 
L 173.597425 -230.363681 
L 133.501617 -230.363681 
L 133.501617 -246.978433 
L 93.405808 -246.978433 
L 93.405808 -258.103393 
L 53.31 -258.103393 
z
"/>
    </defs>
    <g clip-path="url(#pc160254433)">
     <use xlink:href="#m27e0921e58" x="0" y="473.130625" style="fill: #1f78b4"/>
    </g>
   </g>
   <g id="PolyCollection_3">
    <defs>
     <path id="m7d80093d6d" d="M 227.726766 -340.216193 
L 227.726766 -284.300641 
L 267.822575 -284.300641 
L 267.822575 -294.844097 
L 307.918383 -294.844097 
L 307.918383 -249.523745 
L 348.014192 -249.523745 
L 348.014192 -263.709301 
L 388.11 -263.709301 
L 388.11 -356.507545 
L 388.11 -356.507545 
L 348.014192 -356.507545 
L 348.014192 -324.372673 
L 307.918383 -324.372673 
L 307.918383 -348.002433 
L 267.822575 -348.002433 
L 267.822575 -340.216193 
L 227.726766 -340.216193 
z
"/>
    </defs>
    <g clip-path="url(#pc160254433)">
     <use xlink:href="#m7d80093d6d" x="0" y="473.130625" style="fill: #b2df8a"/>
    </g>
   </g>
   <g id="PolyCollection_4">
    <defs>
     <path id="m76c702ff1d" d="M 53.31 -345.730625 
L 53.31 -258.103393 
L 93.405808 -258.103393 
L 93.405808 -246.978433 
L 133.501617 -246.978433 
L 133.501617 -230.363681 
L 173.597425 -230.363681 
L 173.597425 -239.379457 
L 213.693234 -239.379457 
L 213.693234 -352.283017 
L 213.693234 -352.283017 
L 173.597425 -352.283017 
L 173.597425 -377.279681 
L 133.501617 -377.279681 
L 133.501617 -307.107425 
L 93.405808 -307.107425 
L 93.405808 -345.730625 
L 53.31 -345.730625 
z
"/>
    </defs>
    <g clip-path="url(#pc160254433)">
     <use xlink:href="#m76c702ff1d" x="0" y="473.130625" style="fill: #b2df8a"/>
    </g>
   </g>
   <g id="PolyCollection_5">
    <defs>
     <path id="mfa32a93199" d="M 227.726766 -417.879009 
L 227.726766 -340.216193 
L 267.822575 -340.216193 
L 267.822575 -348.002433 
L 307.918383 -348.002433 
L 307.918383 -324.372673 
L 348.014192 -324.372673 
L 348.014192 -356.507545 
L 388.11 -356.507545 
L 388.11 -412.851217 
L 388.11 -412.851217 
L 348.014192 -412.851217 
L 348.014192 -414.476225 
L 307.918383 -414.476225 
L 307.918383 -410.893569 
L 267.822575 -410.893569 
L 267.822575 -417.879009 
L 227.726766 -417.879009 
z
"/>
    </defs>
    <g clip-path="url(#pc160254433)">
     <use xlink:href="#mfa32a93199" x="0" y="473.130625" style="fill: #33a02c"/>
    </g>
   </g>
   <g id="PolyCollection_6">
    <defs>
     <path id="m6d14226ae2" d="M 53.31 -414.808865 
L 53.31 -345.730625 
L 93.405808 -345.730625 
L 93.405808 -307.107425 
L 133.501617 -307.107425 
L 133.501617 -377.279681 
L 173.597425 -377.279681 
L 173.597425 -352.283017 
L 213.693234 -352.283017 
L 213.693234 -413.946157 
L 213.693234 -413.946157 
L 173.597425 -413.946157 
L 173.597425 -406.076449 
L 133.501617 -406.076449 
L 133.501617 -409.407777 
L 93.405808 -409.407777 
L 93.405808 -414.808865 
L 53.31 -414.808865 
z
"/>
    </defs>
    <g clip-path="url(#pc160254433)">
     <use xlink:href="#m6d14226ae2" x="0" y="473.130625" style="fill: #33a02c"/>
    </g>
   </g>
   <g id="PolyCollection_7">
    <defs>
     <path id="mdb2fca184a" d="M 227.726766 -418.679809 
L 227.726766 -417.879009 
L 267.822575 -417.879009 
L 267.822575 -410.893569 
L 307.918383 -410.893569 
L 307.918383 -414.476225 
L 348.014192 -414.476225 
L 348.014192 -412.851217 
L 388.11 -412.851217 
L 388.11 -415.645393 
L 388.11 -415.645393 
L 348.014192 -415.645393 
L 348.014192 -415.890561 
L 307.918383 -415.890561 
L 307.918383 -418.862145 
L 267.822575 -418.862145 
L 267.822575 -418.679809 
L 227.726766 -418.679809 
z
"/>
    </defs>
    <g clip-path="url(#pc160254433)">
     <use xlink:href="#mdb2fca184a" x="0" y="473.130625" style="fill: #fb9a99"/>
    </g>
   </g>
   <g id="PolyCollection_8">
    <defs>
     <path id="m52baa2f975" d="M 53.31 -418.561537 
L 53.31 -414.808865 
L 93.405808 -414.808865 
L 93.405808 -409.407777 
L 133.501617 -409.407777 
L 133.501617 -406.076449 
L 173.597425 -406.076449 
L 173.597425 -413.946157 
L 213.693234 -413.946157 
L 213.693234 -417.050797 
L 213.693234 -417.050797 
L 173.597425 -417.050797 
L 173.597425 -416.230593 
L 133.501617 -416.230593 
L 133.501617 -418.130337 
L 93.405808 -418.130337 
L 93.405808 -418.561537 
L 53.31 -418.561537 
z
"/>
    </defs>
    <g clip-path="url(#pc160254433)">
     <use xlink:href="#m52baa2f975" x="0" y="473.130625" style="fill: #fb9a99"/>
    </g>
   </g>
   <g id="PolyCollection_9">
    <defs>
     <path id="m2208d83e14" d="M 227.726766 -420.407073 
L 227.726766 -418.679809 
L 267.822575 -418.679809 
L 267.822575 -418.862145 
L 307.918383 -418.862145 
L 307.918383 -415.890561 
L 348.014192 -415.890561 
L 348.014192 -415.645393 
L 388.11 -415.645393 
L 388.11 -417.668953 
L 388.11 -417.668953 
L 348.014192 -417.668953 
L 348.014192 -418.465441 
L 307.918383 -418.465441 
L 307.918383 -420.219809 
L 267.822575 -420.219809 
L 267.822575 -420.407073 
L 227.726766 -420.407073 
z
"/>
    </defs>
    <g clip-path="url(#pc160254433)">
     <use xlink:href="#m2208d83e14" x="0" y="473.130625" style="fill: #e31a1c"/>
    </g>
   </g>
   <g id="PolyCollection_10">
    <defs>
     <path id="m4e716ada98" d="M 53.31 -419.490465 
L 53.31 -418.561537 
L 93.405808 -418.561537 
L 93.405808 -418.130337 
L 133.501617 -418.130337 
L 133.501617 -416.230593 
L 173.597425 -416.230593 
L 173.597425 -417.050797 
L 213.693234 -417.050797 
L 213.693234 -418.747261 
L 213.693234 -418.747261 
L 173.597425 -418.747261 
L 173.597425 -417.849441 
L 133.501617 -417.849441 
L 133.501617 -419.495393 
L 93.405808 -419.495393 
L 93.405808 -419.490465 
L 53.31 -419.490465 
z
"/>
    </defs>
    <g clip-path="url(#pc160254433)">
     <use xlink:href="#m4e716ada98" x="0" y="473.130625" style="fill: #e31a1c"/>
    </g>
   </g>
   <g id="PolyCollection_11">
    <defs>
     <path id="m9711925b05" d="M 227.726766 -421.429633 
L 227.726766 -420.407073 
L 267.822575 -420.407073 
L 267.822575 -420.219809 
L 307.918383 -420.219809 
L 307.918383 -418.465441 
L 348.014192 -418.465441 
L 348.014192 -417.668953 
L 388.11 -417.668953 
L 388.11 -420.155437 
L 388.11 -420.155437 
L 348.014192 -420.155437 
L 348.014192 -420.776673 
L 307.918383 -420.776673 
L 307.918383 -421.476449 
L 267.822575 -421.476449 
L 267.822575 -421.429633 
L 227.726766 -421.429633 
z
"/>
    </defs>
    <g clip-path="url(#pc160254433)">
     <use xlink:href="#m9711925b05" x="0" y="473.130625" style="fill: #fdbf6f"/>
    </g>
   </g>
   <g id="PolyCollection_12">
    <defs>
     <path id="m3b8c1fe0ec" d="M 53.31 -420.606657 
L 53.31 -419.490465 
L 93.405808 -419.490465 
L 93.405808 -419.495393 
L 133.501617 -419.495393 
L 133.501617 -417.849441 
L 173.597425 -417.849441 
L 173.597425 -418.747261 
L 213.693234 -418.747261 
L 213.693234 -420.094453 
L 213.693234 -420.094453 
L 173.597425 -420.094453 
L 173.597425 -419.601345 
L 133.501617 -419.601345 
L 133.501617 -420.549985 
L 93.405808 -420.549985 
L 93.405808 -420.606657 
L 53.31 -420.606657 
z
"/>
    </defs>
    <g clip-path="url(#pc160254433)">
     <use xlink:href="#m3b8c1fe0ec" x="0" y="473.130625" style="fill: #fdbf6f"/>
    </g>
   </g>
   <g id="PolyCollection_13">
    <defs>
     <path id="ma0e54b211f" d="M 227.726766 -421.932289 
L 227.726766 -421.429633 
L 267.822575 -421.429633 
L 267.822575 -421.476449 
L 307.918383 -421.476449 
L 307.918383 -420.776673 
L 348.014192 -420.776673 
L 348.014192 -420.155437 
L 388.11 -420.155437 
L 388.11 -421.136725 
L 388.11 -421.136725 
L 348.014192 -421.136725 
L 348.014192 -421.424705 
L 307.918383 -421.424705 
L 307.918383 -422.065345 
L 267.822575 -422.065345 
L 267.822575 -421.932289 
L 227.726766 -421.932289 
z
"/>
    </defs>
    <g clip-path="url(#pc160254433)">
     <use xlink:href="#ma0e54b211f" x="0" y="473.130625" style="fill: #ff7f00"/>
    </g>
   </g>
   <g id="PolyCollection_14">
    <defs>
     <path id="m8365260410" d="M 53.31 -421.602113 
L 53.31 -420.606657 
L 93.405808 -420.606657 
L 93.405808 -420.549985 
L 133.501617 -420.549985 
L 133.501617 -419.601345 
L 173.597425 -419.601345 
L 173.597425 -420.094453 
L 213.693234 -420.094453 
L 213.693234 -421.089601 
L 213.693234 -421.089601 
L 173.597425 -421.089601 
L 173.597425 -420.904801 
L 133.501617 -420.904801 
L 133.501617 -421.269473 
L 93.405808 -421.269473 
L 93.405808 -421.602113 
L 53.31 -421.602113 
z
"/>
    </defs>
    <g clip-path="url(#pc160254433)">
     <use xlink:href="#m8365260410" x="0" y="473.130625" style="fill: #ff7f00"/>
    </g>
   </g>
   <g id="PolyCollection_15">
    <defs>
     <path id="mea341b4a07" d="M 227.726766 -422.082593 
L 227.726766 -421.932289 
L 267.822575 -421.932289 
L 267.822575 -422.065345 
L 307.918383 -422.065345 
L 307.918383 -421.424705 
L 348.014192 -421.424705 
L 348.014192 -421.136725 
L 388.11 -421.136725 
L 388.11 -421.497085 
L 388.11 -421.497085 
L 348.014192 -421.497085 
L 348.014192 -421.762273 
L 307.918383 -421.762273 
L 307.918383 -422.269857 
L 267.822575 -422.269857 
L 267.822575 -422.082593 
L 227.726766 -422.082593 
z
"/>
    </defs>
    <g clip-path="url(#pc160254433)">
     <use xlink:href="#mea341b4a07" x="0" y="473.130625" style="fill: #cab2d6"/>
    </g>
   </g>
   <g id="PolyCollection_16">
    <defs>
     <path id="me9d2f6a5fc" d="M 53.31 -422.176225 
L 53.31 -421.602113 
L 93.405808 -421.602113 
L 93.405808 -421.269473 
L 133.501617 -421.269473 
L 133.501617 -420.904801 
L 173.597425 -420.904801 
L 173.597425 -421.089601 
L 213.693234 -421.089601 
L 213.693234 -421.910113 
L 213.693234 -421.910113 
L 173.597425 -421.910113 
L 173.597425 -421.683425 
L 133.501617 -421.683425 
L 133.501617 -421.774593 
L 93.405808 -421.774593 
L 93.405808 -422.176225 
L 53.31 -422.176225 
z
"/>
    </defs>
    <g clip-path="url(#pc160254433)">
     <use xlink:href="#me9d2f6a5fc" x="0" y="473.130625" style="fill: #cab2d6"/>
    </g>
   </g>
   <g id="PolyCollection_17">
    <defs>
     <path id="m6f34ef1aad" d="M 227.726766 -422.560609 
L 227.726766 -422.082593 
L 267.822575 -422.082593 
L 267.822575 -422.269857 
L 307.918383 -422.269857 
L 307.918383 -421.762273 
L 348.014192 -421.762273 
L 348.014192 -421.497085 
L 388.11 -421.497085 
L 388.11 -422.287105 
L 388.11 -422.287105 
L 348.014192 -422.287105 
L 348.014192 -422.459585 
L 307.918383 -422.459585 
L 307.918383 -422.607425 
L 267.822575 -422.607425 
L 267.822575 -422.560609 
L 227.726766 -422.560609 
z
"/>
    </defs>
    <g clip-path="url(#pc160254433)">
     <use xlink:href="#m6f34ef1aad" x="0" y="473.130625" style="fill: #6a3d9a"/>
    </g>
   </g>
   <g id="PolyCollection_18">
    <defs>
     <path id="mc474f99a58" d="M 53.31 -422.402913 
L 53.31 -422.176225 
L 93.405808 -422.176225 
L 93.405808 -421.774593 
L 133.501617 -421.774593 
L 133.501617 -421.683425 
L 173.597425 -421.683425 
L 173.597425 -421.910113 
L 213.693234 -421.910113 
L 213.693234 -422.134645 
L 213.693234 -422.134645 
L 173.597425 -422.134645 
L 173.597425 -422.040705 
L 133.501617 -422.040705 
L 133.501617 -422.186081 
L 93.405808 -422.186081 
L 93.405808 -422.402913 
L 53.31 -422.402913 
z
"/>
    </defs>
    <g clip-path="url(#pc160254433)">
     <use xlink:href="#mc474f99a58" x="0" y="473.130625" style="fill: #6a3d9a"/>
    </g>
   </g>
   <g id="PolyCollection_19">
    <defs>
     <path id="m8d7003a555" d="M 227.726766 -422.725697 
L 227.726766 -422.560609 
L 267.822575 -422.560609 
L 267.822575 -422.607425 
L 307.918383 -422.607425 
L 307.918383 -422.459585 
L 348.014192 -422.459585 
L 348.014192 -422.287105 
L 388.11 -422.287105 
L 388.11 -422.725081 
L 388.11 -422.725081 
L 348.014192 -422.725081 
L 348.014192 -422.720769 
L 307.918383 -422.720769 
L 307.918383 -422.725697 
L 267.822575 -422.725697 
L 267.822575 -422.725697 
L 227.726766 -422.725697 
z
"/>
    </defs>
    <g clip-path="url(#pc160254433)">
     <use xlink:href="#m8d7003a555" x="0" y="473.130625" style="fill: #ffff99"/>
    </g>
   </g>
   <g id="PolyCollection_20">
    <defs>
     <path id="me015a17a9c" d="M 53.31 -422.708449 
L 53.31 -422.402913 
L 93.405808 -422.402913 
L 93.405808 -422.186081 
L 133.501617 -422.186081 
L 133.501617 -422.040705 
L 173.597425 -422.040705 
L 173.597425 -422.134645 
L 213.693234 -422.134645 
L 213.693234 -422.705677 
L 213.693234 -422.705677 
L 173.597425 -422.705677 
L 173.597425 -422.708449 
L 133.501617 -422.708449 
L 133.501617 -422.725697 
L 93.405808 -422.725697 
L 93.405808 -422.708449 
L 53.31 -422.708449 
z
"/>
    </defs>
    <g clip-path="url(#pc160254433)">
     <use xlink:href="#me015a17a9c" x="0" y="473.130625" style="fill: #ffff99"/>
    </g>
   </g>
   <g id="PolyCollection_21">
    <defs>
     <path id="m6bc3703acc" d="M 227.726766 -422.730625 
L 227.726766 -422.725697 
L 267.822575 -422.725697 
L 267.822575 -422.725697 
L 307.918383 -422.725697 
L 307.918383 -422.720769 
L 348.014192 -422.720769 
L 348.014192 -422.725081 
L 388.11 -422.725081 
L 388.11 -422.730625 
L 388.11 -422.730625 
L 348.014192 -422.730625 
L 348.014192 -422.730625 
L 307.918383 -422.730625 
L 307.918383 -422.730625 
L 267.822575 -422.730625 
L 267.822575 -422.730625 
L 227.726766 -422.730625 
z
"/>
    </defs>
    <g clip-path="url(#pc160254433)">
     <use xlink:href="#m6bc3703acc" x="0" y="473.130625" style="fill: #ffffff"/>
    </g>
   </g>
   <g id="PolyCollection_22">
    <defs>
     <path id="m0e5f6ede15" d="M 53.31 -422.730625 
L 53.31 -422.708449 
L 93.405808 -422.708449 
L 93.405808 -422.725697 
L 133.501617 -422.725697 
L 133.501617 -422.708449 
L 173.597425 -422.708449 
L 173.597425 -422.705677 
L 213.693234 -422.705677 
L 213.693234 -422.730625 
L 213.693234 -422.730625 
L 173.597425 -422.730625 
L 173.597425 -422.730625 
L 133.501617 -422.730625 
L 133.501617 -422.730625 
L 93.405808 -422.730625 
L 93.405808 -422.730625 
L 53.31 -422.730625 
z
"/>
    </defs>
    <g clip-path="url(#pc160254433)">
     <use xlink:href="#m0e5f6ede15" x="0" y="473.130625" style="fill: #ffffff"/>
    </g>
   </g>
   <g id="patch_3">
    <path d="M 227.726766 383.04 
L 388.11 383.04 
L 388.11 50.4 
L 227.726766 50.4 
L 227.726766 383.04 
z
" clip-path="url(#pc160254433)" style="fill: none; stroke: #808080; stroke-linejoin: miter"/>
   </g>
   <g id="patch_4">
    <path d="M 53.31 383.04 
L 213.693234 383.04 
L 213.693234 50.4 
L 53.31 50.4 
L 53.31 383.04 
z
" clip-path="url(#pc160254433)" style="fill: none; stroke: #808080; stroke-linejoin: miter"/>
   </g>
   <g id="line2d_23">
    <path d="M 348.014192 383.04 
L 348.014192 50.4 
" clip-path="url(#pc160254433)" style="fill: none; stroke: #ffffff; stroke-width: 2; stroke-linecap: round"/>
   </g>
   <g id="line2d_24">
    <path d="M 267.822575 383.04 
L 267.822575 50.4 
" clip-path="url(#pc160254433)" style="fill: none; stroke: #ffffff; stroke-width: 2; stroke-linecap: round"/>
   </g>
   <g id="line2d_25">
    <path d="M 173.597425 383.04 
L 173.597425 50.4 
" clip-path="url(#pc160254433)" style="fill: none; stroke: #ffffff; stroke-width: 2; stroke-linecap: round"/>
   </g>
   <g id="line2d_26">
    <path d="M 93.405808 383.04 
L 93.405808 50.4 
" clip-path="url(#pc160254433)" style="fill: none; stroke: #ffffff; stroke-width: 2; stroke-linecap: round"/>
   </g>
   <g id="patch_5">
    <path d="M 53.31 383.04 
L 53.31 50.4 
" style="fill: none; stroke: #ffffff; stroke-width: 1.25; stroke-linejoin: miter; stroke-linecap: square"/>
   </g>
   <g id="patch_6">
    <path d="M 388.11 383.04 
L 388.11 50.4 
" style="fill: none; stroke: #ffffff; stroke-width: 1.25; stroke-linejoin: miter; stroke-linecap: square"/>
   </g>
   <g id="patch_7">
    <path d="M 53.31 383.04 
L 388.11 383.04 
" style="fill: none; stroke: #ffffff; stroke-width: 1.25; stroke-linejoin: miter; stroke-linecap: square"/>
   </g>
   <g id="patch_8">
    <path d="M 53.31 50.4 
L 388.11 50.4 
" style="fill: none; stroke: #ffffff; stroke-width: 1.25; stroke-linejoin: miter; stroke-linecap: square"/>
   </g>
   <g id="legend_1">
    <g id="patch_9">
     <path d="M 399.158 252.135687 
L 590.384406 252.135687 
Q 592.584406 252.135687 592.584406 249.935688 
L 592.584406 41.468 
Q 592.584406 39.268 590.384406 39.268 
L 399.158 39.268 
Q 396.958 39.268 396.958 41.468 
L 396.958 249.935688 
Q 396.958 252.135687 399.158 252.135687 
z
" style="fill: #eaeaf2; opacity: 0.8; stroke: #cccccc; stroke-linejoin: miter"/>
    </g>
    <g id="text_16">
     <text style="fill: #262626; font: 700 12px 'sans-serif'" transform="translate(424.993078 52.786125)">Aggregrated "mean"</text>
     <text style="fill: #262626; font: 700 12px 'sans-serif'" transform="translate(424.993078 66.31725)">Rank: Phylum</text>
    </g>
    <g id="patch_10">
     <path d="M 401.358 82.764906 
L 423.358 82.764906 
L 423.358 75.064906 
L 401.358 75.064906 
z
" style="fill: #1f78b4; stroke: #1f78b4; stroke-linejoin: miter"/>
    </g>
    <g id="text_17">
     <text style="fill: #262626; font: 11px 'sans-serif'; text-anchor: start" x="432.158" y="82.764906" transform="rotate(-0, 432.158, 82.764906)">Bacteroidota</text>
    </g>
    <g id="patch_11">
     <path d="M 401.358 98.910844 
L 423.358 98.910844 
L 423.358 91.210844 
L 401.358 91.210844 
z
" style="fill: #b2df8a; stroke: #b2df8a; stroke-linejoin: miter"/>
    </g>
    <g id="text_18">
     <text style="fill: #262626; font: 11px 'sans-serif'; text-anchor: start" x="432.158" y="98.910844" transform="rotate(-0, 432.158, 98.910844)">Bacillota_A_368345</text>
    </g>
    <g id="patch_12">
     <path d="M 401.358 115.362719 
L 423.358 115.362719 
L 423.358 107.662719 
L 401.358 107.662719 
z
" style="fill: #33a02c; stroke: #33a02c; stroke-linejoin: miter"/>
    </g>
    <g id="text_19">
     <text style="fill: #262626; font: 11px 'sans-serif'; text-anchor: start" x="432.158" y="115.362719" transform="rotate(-0, 432.158, 115.362719)">Bacillota_I</text>
    </g>
    <g id="patch_13">
     <path d="M 401.358 131.814594 
L 423.358 131.814594 
L 423.358 124.114594 
L 401.358 124.114594 
z
" style="fill: #fb9a99; stroke: #fb9a99; stroke-linejoin: miter"/>
    </g>
    <g id="text_20">
     <text style="fill: #262626; font: 11px 'sans-serif'; text-anchor: start" x="432.158" y="131.814594" transform="rotate(-0, 432.158, 131.814594)">Verrucomicrobiota</text>
    </g>
    <g id="patch_14">
     <path d="M 401.358 147.960531 
L 423.358 147.960531 
L 423.358 140.260531 
L 401.358 140.260531 
z
" style="fill: #e31a1c; stroke: #e31a1c; stroke-linejoin: miter"/>
    </g>
    <g id="text_21">
     <text style="fill: #262626; font: 11px 'sans-serif'; text-anchor: start" x="432.158" y="147.960531" transform="rotate(-0, 432.158, 147.960531)">Actinomycetota</text>
    </g>
    <g id="patch_15">
     <path d="M 401.358 164.106469 
L 423.358 164.106469 
L 423.358 156.406469 
L 401.358 156.406469 
z
" style="fill: #fdbf6f; stroke: #fdbf6f; stroke-linejoin: miter"/>
    </g>
    <g id="text_22">
     <text style="fill: #262626; font: 11px 'sans-serif'; text-anchor: start" x="432.158" y="164.106469" transform="rotate(-0, 432.158, 164.106469)">Desulfobacterota_G_459543</text>
    </g>
    <g id="patch_16">
     <path d="M 401.358 180.558344 
L 423.358 180.558344 
L 423.358 172.858344 
L 401.358 172.858344 
z
" style="fill: #ff7f00; stroke: #ff7f00; stroke-linejoin: miter"/>
    </g>
    <g id="text_23">
     <text style="fill: #262626; font: 11px 'sans-serif'; text-anchor: start" x="432.158" y="180.558344" transform="rotate(-0, 432.158, 180.558344)">Bacillota_B_370539</text>
    </g>
    <g id="patch_17">
     <path d="M 401.358 197.010219 
L 423.358 197.010219 
L 423.358 189.310219 
L 401.358 189.310219 
z
" style="fill: #cab2d6; stroke: #cab2d6; stroke-linejoin: miter"/>
    </g>
    <g id="text_24">
     <text style="fill: #262626; font: 11px 'sans-serif'; text-anchor: start" x="432.158" y="197.010219" transform="rotate(-0, 432.158, 197.010219)">unclassified phylum</text>
    </g>
    <g id="patch_18">
     <path d="M 401.358 213.156156 
L 423.358 213.156156 
L 423.358 205.456156 
L 401.358 205.456156 
z
" style="fill: #6a3d9a; stroke: #6a3d9a; stroke-linejoin: miter"/>
    </g>
    <g id="text_25">
     <text style="fill: #262626; font: 11px 'sans-serif'; text-anchor: start" x="432.158" y="213.156156" transform="rotate(-0, 432.158, 213.156156)">Pseudomonadota</text>
    </g>
    <g id="patch_19">
     <path d="M 401.358 229.302094 
L 423.358 229.302094 
L 423.358 221.602094 
L 401.358 221.602094 
z
" style="fill: #ffff99; stroke: #ffff99; stroke-linejoin: miter"/>
    </g>
    <g id="text_26">
     <text style="fill: #262626; font: 11px 'sans-serif'; text-anchor: start" x="432.158" y="229.302094" transform="rotate(-0, 432.158, 229.302094)">Cyanobacteriota</text>
    </g>
    <g id="patch_20">
     <path d="M 401.358 245.448031 
L 423.358 245.448031 
L 423.358 237.748031 
L 401.358 237.748031 
z
" style="fill: #ffffff; stroke: #ffffff; stroke-linejoin: miter"/>
    </g>
    <g id="text_27">
     <text style="fill: #262626; font: 11px 'sans-serif'; text-anchor: start" x="432.158" y="245.448031" transform="rotate(-0, 432.158, 245.448031)"> abundance</text>
    </g>
   </g>
  </g>
  <g id="axes_2">
   <g id="matplotlib.axis_3">
    <g id="xtick_9">
     <g id="text_28">
      <text style="fill: #262626; font: 11px 'sans-serif'" transform="translate(288.957993 26.29475)">female</text>
      <text style="fill: #262626; font: 11px 'sans-serif'" transform="translate(288.533461 38.612344)">(n=35)</text>
     </g>
    </g>
    <g id="xtick_10">
     <g id="text_29">
      <text style="fill: #262626; font: 11px 'sans-serif'" transform="translate(119.861617 26.29475)">male</text>
      <text style="fill: #262626; font: 11px 'sans-serif'" transform="translate(114.116695 38.612344)">(n=35)</text>
     </g>
    </g>
   </g>
   <g id="patch_21">
    <path d="M 53.31 383.04 
L 53.31 50.4 
" style="fill: none; stroke: #ffffff; stroke-width: 1.25; stroke-linejoin: miter; stroke-linecap: square"/>
   </g>
   <g id="patch_22">
    <path d="M 388.11 383.04 
L 388.11 50.4 
" style="fill: none; stroke: #ffffff; stroke-width: 1.25; stroke-linejoin: miter; stroke-linecap: square"/>
   </g>
   <g id="patch_23">
    <path d="M 53.31 383.04 
L 388.11 383.04 
" style="fill: none; stroke: #ffffff; stroke-width: 1.25; stroke-linejoin: miter; stroke-linecap: square"/>
   </g>
   <g id="patch_24">
    <path d="M 53.31 50.4 
L 388.11 50.4 
" style="fill: none; stroke: #ffffff; stroke-width: 1.25; stroke-linejoin: miter; stroke-linecap: square"/>
   </g>
  </g>
  <g id="axes_3">
   <g id="matplotlib.axis_4">
    <g id="xtick_11">
     <g id="text_30">
      <text style="fill: #262626; font: 11px 'sans-serif'" transform="translate(344.890707 423.421641)rotate(-90)">12w</text>
      <text style="fill: #262626; font: 11px 'sans-serif'" transform="translate(357.208301 431.309844)rotate(-90)">(n=17)</text>
     </g>
    </g>
    <g id="xtick_12">
     <g id="text_31">
      <text style="fill: #262626; font: 11px 'sans-serif'" transform="translate(264.69909 418.915937)rotate(-90)">d0</text>
      <text style="fill: #262626; font: 11px 'sans-serif'" transform="translate(277.016684 431.309844)rotate(-90)">(n=18)</text>
     </g>
    </g>
    <g id="xtick_13">
     <g id="text_32">
      <text style="fill: #262626; font: 11px 'sans-serif'" transform="translate(170.473941 423.421641)rotate(-90)">12w</text>
      <text style="fill: #262626; font: 11px 'sans-serif'" transform="translate(182.791535 431.309844)rotate(-90)">(n=17)</text>
     </g>
    </g>
    <g id="xtick_14">
     <g id="text_33">
      <text style="fill: #262626; font: 11px 'sans-serif'" transform="translate(90.282324 418.915937)rotate(-90)">d0</text>
      <text style="fill: #262626; font: 11px 'sans-serif'" transform="translate(102.599918 431.309844)rotate(-90)">(n=18)</text>
     </g>
    </g>
    <g id="xtick_15">
     <g id="line2d_27">
      <path d="M 307.918383 383.04 
L 307.918383 50.4 
" clip-path="url(#pc160254433)" style="fill: none; stroke: #ffffff; stroke-width: 7; stroke-linecap: round"/>
     </g>
    </g>
    <g id="xtick_16">
     <g id="line2d_28">
      <path d="M 227.726766 383.04 
L 227.726766 50.4 
" clip-path="url(#pc160254433)" style="fill: none; stroke: #ffffff; stroke-width: 7; stroke-linecap: round"/>
     </g>
    </g>
    <g id="xtick_17">
     <g id="line2d_29">
      <path d="M 133.501617 383.04 
L 133.501617 50.4 
" clip-path="url(#pc160254433)" style="fill: none; stroke: #ffffff; stroke-width: 7; stroke-linecap: round"/>
     </g>
    </g>
    <g id="xtick_18">
     <g id="line2d_30">
      <path d="M 53.31 383.04 
L 53.31 50.4 
" clip-path="url(#pc160254433)" style="fill: none; stroke: #ffffff; stroke-width: 7; stroke-linecap: round"/>
     </g>
    </g>
   </g>
   <g id="patch_25">
    <path d="M 53.31 383.04 
L 53.31 50.4 
" style="fill: none; stroke: #ffffff; stroke-width: 1.25; stroke-linejoin: miter; stroke-linecap: square"/>
   </g>
   <g id="patch_26">
    <path d="M 388.11 383.04 
L 388.11 50.4 
" style="fill: none; stroke: #ffffff; stroke-width: 1.25; stroke-linejoin: miter; stroke-linecap: square"/>
   </g>
   <g id="patch_27">
    <path d="M 53.31 383.04 
L 388.11 383.04 
" style="fill: none; stroke: #ffffff; stroke-width: 1.25; stroke-linejoin: miter; stroke-linecap: square"/>
   </g>
   <g id="patch_28">
    <path d="M 53.31 50.4 
L 388.11 50.4 
" style="fill: none; stroke: #ffffff; stroke-width: 1.25; stroke-linejoin: miter; stroke-linecap: square"/>
   </g>
  </g>
  <g id="text_34">
   <text style="fill: #262626; font: 14.4px 'sans-serif'; text-anchor: middle" x="215.31" y="18.14175" transform="rotate(-0, 215.31, 18.14175)">Phylum feces</text>
  </g>
 </g>
 <defs>
  <clipPath id="pc160254433">
   <rect x="53.31" y="50.4" width="334.8" height="332.64"/>
  </clipPath>
 </defs>
</svg>
