<?xml version="1.0" encoding="utf-8" standalone="no"?>
<!DOCTYPE svg PUBLIC "-//W3C//DTD SVG 1.1//EN"
  "http://www.w3.org/Graphics/SVG/1.1/DTD/svg11.dtd">
<svg xmlns:xlink="http://www.w3.org/1999/xlink" width="416.46825pt" height="688.877281pt" viewBox="0 0 416.46825 688.877281" xmlns="http://www.w3.org/2000/svg" version="1.1">
 <metadata>
  <rdf:RDF xmlns:dc="http://purl.org/dc/elements/1.1/" xmlns:cc="http://creativecommons.org/ns#" xmlns:rdf="http://www.w3.org/1999/02/22-rdf-syntax-ns#">
   <cc:Work>
    <dc:type rdf:resource="http://purl.org/dc/dcmitype/StillImage"/>
    <dc:date>2025-03-12T08:47:21.791255</dc:date>
    <dc:format>image/svg+xml</dc:format>
    <dc:creator>
     <cc:Agent>
      <dc:title>Matplotlib v3.5.3, https://matplotlib.org/</dc:title>
     </cc:Agent>
    </dc:creator>
   </cc:Work>
  </rdf:RDF>
 </metadata>
 <defs>
  <style type="text/css">*{stroke-linejoin: round; stroke-linecap: butt}</style>
 </defs>
 <g id="figure_1">
  <g id="patch_1">
   <path d="M 0 688.877281 
L 416.46825 688.877281 
L 416.46825 0 
L 0 0 
z
" style="fill: #ffffff"/>
  </g>
  <g id="axes_1">
   <g id="patch_2">
    <path d="M 73.234125 320.243478 
L 352.234125 320.243478 
L 352.234125 79.2 
L 73.234125 79.2 
z
" style="fill: #ffffff"/>
   </g>
   <g id="matplotlib.axis_1">
    <g id="xtick_1">
     <g id="line2d_1">
      <defs>
       <path id="m55475e8add" d="M 0 0 
L 0 6 
" style="stroke: #262626; stroke-width: 1.25"/>
      </defs>
      <g>
       <use xlink:href="#m55475e8add" x="141.96505" y="320.243478" style="fill: #262626; stroke: #262626; stroke-width: 1.25"/>
      </g>
     </g>
     <g id="text_1">
      <text style="fill: #262626; font: 11px 'sans-serif'" transform="translate(134.974035 338.10176)">d0</text>
      <text style="fill: #262626; font: 11px 'sans-serif'" transform="translate(123.37591 350.419353)">n=9, 9</text>
     </g>
    </g>
    <g id="xtick_2">
     <g id="line2d_2">
      <g>
       <use xlink:href="#m55475e8add" x="283.5032" y="320.243478" style="fill: #262626; stroke: #262626; stroke-width: 1.25"/>
      </g>
     </g>
     <g id="text_2">
      <text style="fill: #262626; font: 11px 'sans-serif'" transform="translate(272.006481 338.10176)">12w</text>
      <text style="fill: #262626; font: 11px 'sans-serif'" transform="translate(264.914059 350.419353)">n=9, 7</text>
     </g>
    </g>
    <g id="text_3">
     <text style="fill: #262626; font: 12px 'sans-serif'; text-anchor: middle" x="212.734125" y="365.825135" transform="rotate(-0, 212.734125, 365.825135)">timepoint</text>
    </g>
   </g>
   <g id="matplotlib.axis_2">
    <g id="ytick_1">
     <g id="line2d_3">
      <defs>
       <path id="mfbb92859bb" d="M 0 0 
L -6 0 
" style="stroke: #262626; stroke-width: 1.25"/>
      </defs>
      <g>
       <use xlink:href="#mfbb92859bb" x="73.234125" y="297.699269" style="fill: #262626; stroke: #262626; stroke-width: 1.25"/>
      </g>
     </g>
     <g id="text_4">
      <text style="fill: #262626; font: 11px 'sans-serif'; text-anchor: end" x="63.734125" y="301.878409" transform="rotate(-0, 63.734125, 301.878409)">0.2</text>
     </g>
    </g>
    <g id="ytick_2">
     <g id="line2d_4">
      <g>
       <use xlink:href="#mfbb92859bb" x="73.234125" y="250.327532" style="fill: #262626; stroke: #262626; stroke-width: 1.25"/>
      </g>
     </g>
     <g id="text_5">
      <text style="fill: #262626; font: 11px 'sans-serif'; text-anchor: end" x="63.734125" y="254.506673" transform="rotate(-0, 63.734125, 254.506673)">0.3</text>
     </g>
    </g>
    <g id="ytick_3">
     <g id="line2d_5">
      <g>
       <use xlink:href="#mfbb92859bb" x="73.234125" y="202.955795" style="fill: #262626; stroke: #262626; stroke-width: 1.25"/>
      </g>
     </g>
     <g id="text_6">
      <text style="fill: #262626; font: 11px 'sans-serif'; text-anchor: end" x="63.734125" y="207.134936" transform="rotate(-0, 63.734125, 207.134936)">0.4</text>
     </g>
    </g>
    <g id="ytick_4">
     <g id="line2d_6">
      <g>
       <use xlink:href="#mfbb92859bb" x="73.234125" y="155.584059" style="fill: #262626; stroke: #262626; stroke-width: 1.25"/>
      </g>
     </g>
     <g id="text_7">
      <text style="fill: #262626; font: 11px 'sans-serif'; text-anchor: end" x="63.734125" y="159.763199" transform="rotate(-0, 63.734125, 159.763199)">0.5</text>
     </g>
    </g>
    <g id="ytick_5">
     <g id="line2d_7">
      <g>
       <use xlink:href="#mfbb92859bb" x="73.234125" y="108.212322" style="fill: #262626; stroke: #262626; stroke-width: 1.25"/>
      </g>
     </g>
     <g id="text_8">
      <text style="fill: #262626; font: 11px 'sans-serif'; text-anchor: end" x="63.734125" y="112.391463" transform="rotate(-0, 63.734125, 112.391463)">0.6</text>
     </g>
    </g>
    <g id="text_9">
     <text style="fill: #262626; font: 12px 'sans-serif'; text-anchor: middle" x="39.411312" y="199.721739" transform="rotate(-90, 39.411312, 199.721739)">bray_curtis</text>
    </g>
   </g>
   <g id="patch_3">
    <path d="M 85.915943 261.001963 
L 141.398898 261.001963 
L 141.398898 230.431403 
L 85.915943 230.431403 
L 85.915943 261.001963 
z
" clip-path="url(#p76d0e7b2f5)" style="fill: #ededf7; stroke: #8a8a8a; stroke-width: 1.5; stroke-linejoin: miter"/>
   </g>
   <g id="patch_4">
    <path d="M 142.531203 273.792332 
L 198.014157 273.792332 
L 198.014157 212.430143 
L 142.531203 212.430143 
L 142.531203 273.792332 
z
" clip-path="url(#p76d0e7b2f5)" style="fill: #dbdbf0; stroke: #8a8a8a; stroke-width: 1.5; stroke-linejoin: miter"/>
   </g>
   <g id="patch_5">
    <path d="M 227.454093 213.977619 
L 282.937047 213.977619 
L 282.937047 168.595496 
L 227.454093 168.595496 
L 227.454093 213.977619 
z
" clip-path="url(#p76d0e7b2f5)" style="fill: #ededf7; stroke: #8a8a8a; stroke-width: 1.5; stroke-linejoin: miter"/>
   </g>
   <g id="patch_6">
    <path d="M 284.069352 265.249629 
L 339.552307 265.249629 
L 339.552307 186.912567 
L 284.069352 186.912567 
L 284.069352 265.249629 
z
" clip-path="url(#p76d0e7b2f5)" style="fill: #dbdbf0; stroke: #8a8a8a; stroke-width: 1.5; stroke-linejoin: miter"/>
   </g>
   <g id="patch_7">
    <path d="M 141.96505 392.442742 
L 141.96505 392.442742 
L 141.96505 392.442742 
L 141.96505 392.442742 
z
" clip-path="url(#p76d0e7b2f5)" style="fill: #ededf7; stroke: #8a8a8a; stroke-width: 0.75; stroke-linejoin: miter"/>
   </g>
   <g id="patch_8">
    <path d="M 141.96505 392.442742 
L 141.96505 392.442742 
L 141.96505 392.442742 
L 141.96505 392.442742 
z
" clip-path="url(#p76d0e7b2f5)" style="fill: #dbdbf0; stroke: #8a8a8a; stroke-width: 0.75; stroke-linejoin: miter"/>
   </g>
   <g id="PathCollection_1"/>
   <g id="PathCollection_2"/>
   <g id="line2d_8">
    <path d="M 113.65742 261.001963 
L 113.65742 287.530136 
" clip-path="url(#p76d0e7b2f5)" style="fill: none; stroke: #8a8a8a; stroke-width: 1.5; stroke-linecap: round"/>
   </g>
   <g id="line2d_9">
    <path d="M 113.65742 230.431403 
L 113.65742 196.481658 
" clip-path="url(#p76d0e7b2f5)" style="fill: none; stroke: #8a8a8a; stroke-width: 1.5; stroke-linecap: round"/>
   </g>
   <g id="line2d_10">
    <path d="M 99.786682 287.530136 
L 127.528159 287.530136 
" clip-path="url(#p76d0e7b2f5)" style="fill: none; stroke: #8a8a8a; stroke-width: 1.5; stroke-linecap: round"/>
   </g>
   <g id="line2d_11">
    <path d="M 99.786682 196.481658 
L 127.528159 196.481658 
" clip-path="url(#p76d0e7b2f5)" style="fill: none; stroke: #8a8a8a; stroke-width: 1.5; stroke-linecap: round"/>
   </g>
   <g id="line2d_12">
    <defs>
     <path id="m32df4e8243" d="M -0 3.535534 
L 2.12132 0 
L -0 -3.535534 
L -2.12132 -0 
z
" style="stroke: #8a8a8a; stroke-linejoin: miter"/>
    </defs>
    <g clip-path="url(#p76d0e7b2f5)">
     <use xlink:href="#m32df4e8243" x="113.65742" y="163.005631" style="fill: #8a8a8a; stroke: #8a8a8a; stroke-linejoin: miter"/>
    </g>
   </g>
   <g id="line2d_13">
    <path d="M 170.27268 273.792332 
L 170.27268 312.258183 
" clip-path="url(#p76d0e7b2f5)" style="fill: none; stroke: #8a8a8a; stroke-width: 1.5; stroke-linecap: round"/>
   </g>
   <g id="line2d_14">
    <path d="M 170.27268 212.430143 
L 170.27268 183.596546 
" clip-path="url(#p76d0e7b2f5)" style="fill: none; stroke: #8a8a8a; stroke-width: 1.5; stroke-linecap: round"/>
   </g>
   <g id="line2d_15">
    <path d="M 156.401942 312.258183 
L 184.143419 312.258183 
" clip-path="url(#p76d0e7b2f5)" style="fill: none; stroke: #8a8a8a; stroke-width: 1.5; stroke-linecap: round"/>
   </g>
   <g id="line2d_16">
    <path d="M 156.401942 183.596546 
L 184.143419 183.596546 
" clip-path="url(#p76d0e7b2f5)" style="fill: none; stroke: #8a8a8a; stroke-width: 1.5; stroke-linecap: round"/>
   </g>
   <g id="line2d_17"/>
   <g id="line2d_18">
    <path d="M 255.19557 213.977619 
L 255.19557 268.107724 
" clip-path="url(#p76d0e7b2f5)" style="fill: none; stroke: #8a8a8a; stroke-width: 1.5; stroke-linecap: round"/>
   </g>
   <g id="line2d_19">
    <path d="M 255.19557 168.595496 
L 255.19557 154.415556 
" clip-path="url(#p76d0e7b2f5)" style="fill: none; stroke: #8a8a8a; stroke-width: 1.5; stroke-linecap: round"/>
   </g>
   <g id="line2d_20">
    <path d="M 241.324831 268.107724 
L 269.066308 268.107724 
" clip-path="url(#p76d0e7b2f5)" style="fill: none; stroke: #8a8a8a; stroke-width: 1.5; stroke-linecap: round"/>
   </g>
   <g id="line2d_21">
    <path d="M 241.324831 154.415556 
L 269.066308 154.415556 
" clip-path="url(#p76d0e7b2f5)" style="fill: none; stroke: #8a8a8a; stroke-width: 1.5; stroke-linecap: round"/>
   </g>
   <g id="line2d_22"/>
   <g id="line2d_23">
    <path d="M 311.81083 265.249629 
L 311.81083 282.129758 
" clip-path="url(#p76d0e7b2f5)" style="fill: none; stroke: #8a8a8a; stroke-width: 1.5; stroke-linecap: round"/>
   </g>
   <g id="line2d_24">
    <path d="M 311.81083 186.912567 
L 311.81083 152.552268 
" clip-path="url(#p76d0e7b2f5)" style="fill: none; stroke: #8a8a8a; stroke-width: 1.5; stroke-linecap: round"/>
   </g>
   <g id="line2d_25">
    <path d="M 297.940091 282.129758 
L 325.681568 282.129758 
" clip-path="url(#p76d0e7b2f5)" style="fill: none; stroke: #8a8a8a; stroke-width: 1.5; stroke-linecap: round"/>
   </g>
   <g id="line2d_26">
    <path d="M 297.940091 152.552268 
L 325.681568 152.552268 
" clip-path="url(#p76d0e7b2f5)" style="fill: none; stroke: #8a8a8a; stroke-width: 1.5; stroke-linecap: round"/>
   </g>
   <g id="line2d_27"/>
   <g id="line2d_28">
    <path d="M 255.19557 142.011677 
L 255.19557 138.498147 
L 311.81083 138.498147 
L 311.81083 142.011677 
" clip-path="url(#p76d0e7b2f5)" style="fill: none; stroke: #333333; stroke-width: 1.5; stroke-linecap: round"/>
   </g>
   <g id="line2d_29">
    <path d="M 113.65742 150.642999 
L 113.65742 147.129469 
L 170.27268 147.129469 
L 170.27268 150.642999 
" clip-path="url(#p76d0e7b2f5)" style="fill: none; stroke: #333333; stroke-width: 1.5; stroke-linecap: round"/>
   </g>
   <g id="line2d_30">
    <path d="M 113.65742 121.298074 
L 113.65742 117.784543 
L 255.19557 117.784543 
L 255.19557 121.298074 
" clip-path="url(#p76d0e7b2f5)" style="fill: none; stroke: #333333; stroke-width: 1.5; stroke-linecap: round"/>
   </g>
   <g id="line2d_31">
    <path d="M 170.27268 100.58447 
L 170.27268 97.07094 
L 311.81083 97.07094 
L 311.81083 100.58447 
" clip-path="url(#p76d0e7b2f5)" style="fill: none; stroke: #333333; stroke-width: 1.5; stroke-linecap: round"/>
   </g>
   <g id="line2d_32">
    <path d="M 85.915943 244.011301 
L 141.398898 244.011301 
" clip-path="url(#p76d0e7b2f5)" style="fill: none; stroke: #8a8a8a; stroke-width: 1.5; stroke-linecap: round"/>
   </g>
   <g id="line2d_33">
    <path d="M 142.531203 217.356803 
L 198.014157 217.356803 
" clip-path="url(#p76d0e7b2f5)" style="fill: none; stroke: #8a8a8a; stroke-width: 1.5; stroke-linecap: round"/>
   </g>
   <g id="line2d_34">
    <path d="M 227.454093 191.839228 
L 282.937047 191.839228 
" clip-path="url(#p76d0e7b2f5)" style="fill: none; stroke: #8a8a8a; stroke-width: 1.5; stroke-linecap: round"/>
   </g>
   <g id="line2d_35">
    <path d="M 284.069352 240.72686 
L 339.552307 240.72686 
" clip-path="url(#p76d0e7b2f5)" style="fill: none; stroke: #8a8a8a; stroke-width: 1.5; stroke-linecap: round"/>
   </g>
   <g id="patch_9">
    <path d="M 73.234125 320.243478 
L 73.234125 79.2 
" style="fill: none; stroke: #262626; stroke-width: 1.25; stroke-linejoin: miter; stroke-linecap: square"/>
   </g>
   <g id="patch_10">
    <path d="M 352.234125 320.243478 
L 352.234125 79.2 
" style="fill: none; stroke: #262626; stroke-width: 1.25; stroke-linejoin: miter; stroke-linecap: square"/>
   </g>
   <g id="patch_11">
    <path d="M 73.234125 320.243478 
L 352.234125 320.243478 
" style="fill: none; stroke: #262626; stroke-width: 1.25; stroke-linejoin: miter; stroke-linecap: square"/>
   </g>
   <g id="patch_12">
    <path d="M 73.234125 79.2 
L 352.234125 79.2 
" style="fill: none; stroke: #262626; stroke-width: 1.25; stroke-linejoin: miter; stroke-linecap: square"/>
   </g>
   <g id="PathCollection_3">
    <defs>
     <path id="C0_0_69340abe70" d="M 0 2.5 
C 0.663008 2.5 1.29895 2.236584 1.767767 1.767767 
C 2.236584 1.29895 2.5 0.663008 2.5 -0 
C 2.5 -0.663008 2.236584 -1.29895 1.767767 -1.767767 
C 1.29895 -2.236584 0.663008 -2.5 0 -2.5 
C -0.663008 -2.5 -1.29895 -2.236584 -1.767767 -1.767767 
C -2.236584 -1.29895 -2.5 -0.663008 -2.5 0 
C -2.5 0.663008 -2.236584 1.29895 -1.767767 1.767767 
C -1.29895 2.236584 -0.663008 2.5 0 2.5 
z
"/>
    </defs>
    <g clip-path="url(#p76d0e7b2f5)">
     <use xlink:href="#C0_0_69340abe70" x="120.221878" y="230.431403" style="fill: #4c72b0"/>
    </g>
    <g clip-path="url(#p76d0e7b2f5)">
     <use xlink:href="#C0_0_69340abe70" x="115.726831" y="163.005631" style="fill: #4c72b0"/>
    </g>
    <g clip-path="url(#p76d0e7b2f5)">
     <use xlink:href="#C0_0_69340abe70" x="111.27838" y="196.481658" style="fill: #4c72b0"/>
    </g>
    <g clip-path="url(#p76d0e7b2f5)">
     <use xlink:href="#C0_0_69340abe70" x="115.753949" y="244.011301" style="fill: #4c72b0"/>
    </g>
    <g clip-path="url(#p76d0e7b2f5)">
     <use xlink:href="#C0_0_69340abe70" x="109.705917" y="273.160709" style="fill: #4c72b0"/>
    </g>
    <g clip-path="url(#p76d0e7b2f5)">
     <use xlink:href="#C0_0_69340abe70" x="107.586852" y="287.530136" style="fill: #4c72b0"/>
    </g>
    <g clip-path="url(#p76d0e7b2f5)">
     <use xlink:href="#C0_0_69340abe70" x="109.513904" y="261.001963" style="fill: #4c72b0"/>
    </g>
    <g clip-path="url(#p76d0e7b2f5)">
     <use xlink:href="#C0_0_69340abe70" x="106.817541" y="253.075093" style="fill: #4c72b0"/>
    </g>
    <g clip-path="url(#p76d0e7b2f5)">
     <use xlink:href="#C0_0_69340abe70" x="114.501033" y="233.968492" style="fill: #4c72b0"/>
    </g>
   </g>
   <g id="PathCollection_4">
    <defs>
     <path id="C1_0_c9a8a76daa" d="M 0 2.5 
C 0.663008 2.5 1.29895 2.236584 1.767767 1.767767 
C 2.236584 1.29895 2.5 0.663008 2.5 -0 
C 2.5 -0.663008 2.236584 -1.29895 1.767767 -1.767767 
C 1.29895 -2.236584 0.663008 -2.5 0 -2.5 
C -0.663008 -2.5 -1.29895 -2.236584 -1.767767 -1.767767 
C -2.236584 -1.29895 -2.5 -0.663008 -2.5 0 
C -2.5 0.663008 -2.236584 1.29895 -1.767767 1.767767 
C -1.29895 2.236584 -0.663008 2.5 0 2.5 
z
"/>
    </defs>
    <g clip-path="url(#p76d0e7b2f5)">
     <use xlink:href="#C1_0_c9a8a76daa" x="165.849237" y="212.430143" style="fill: #dd8452"/>
    </g>
    <g clip-path="url(#p76d0e7b2f5)">
     <use xlink:href="#C1_0_c9a8a76daa" x="166.187164" y="262.896833" style="fill: #dd8452"/>
    </g>
    <g clip-path="url(#p76d0e7b2f5)">
     <use xlink:href="#C1_0_c9a8a76daa" x="170.916468" y="273.792332" style="fill: #dd8452"/>
    </g>
    <g clip-path="url(#p76d0e7b2f5)">
     <use xlink:href="#C1_0_c9a8a76daa" x="173.518083" y="203.871649" style="fill: #dd8452"/>
    </g>
    <g clip-path="url(#p76d0e7b2f5)">
     <use xlink:href="#C1_0_c9a8a76daa" x="168.579071" y="214.009201" style="fill: #dd8452"/>
    </g>
    <g clip-path="url(#p76d0e7b2f5)">
     <use xlink:href="#C1_0_c9a8a76daa" x="175.753995" y="312.258183" style="fill: #dd8452"/>
    </g>
    <g clip-path="url(#p76d0e7b2f5)">
     <use xlink:href="#C1_0_c9a8a76daa" x="173.96541" y="183.596546" style="fill: #dd8452"/>
    </g>
    <g clip-path="url(#p76d0e7b2f5)">
     <use xlink:href="#C1_0_c9a8a76daa" x="173.355777" y="217.356803" style="fill: #dd8452"/>
    </g>
    <g clip-path="url(#p76d0e7b2f5)">
     <use xlink:href="#C1_0_c9a8a76daa" x="174.70064" y="278.592668" style="fill: #dd8452"/>
    </g>
   </g>
   <g id="PathCollection_5">
    <defs>
     <path id="C2_0_5be0ce73f7" d="M 0 2.5 
C 0.663008 2.5 1.29895 2.236584 1.767767 1.767767 
C 2.236584 1.29895 2.5 0.663008 2.5 -0 
C 2.5 -0.663008 2.236584 -1.29895 1.767767 -1.767767 
C 1.29895 -2.236584 0.663008 -2.5 0 -2.5 
C -0.663008 -2.5 -1.29895 -2.236584 -1.767767 -1.767767 
C -2.236584 -1.29895 -2.5 -0.663008 -2.5 0 
C -2.5 0.663008 -2.236584 1.29895 -1.767767 1.767767 
C -1.29895 2.236584 -0.663008 2.5 0 2.5 
z
"/>
    </defs>
    <g clip-path="url(#p76d0e7b2f5)">
     <use xlink:href="#C2_0_5be0ce73f7" x="257.711522" y="154.415556" style="fill: #4c72b0"/>
    </g>
    <g clip-path="url(#p76d0e7b2f5)">
     <use xlink:href="#C2_0_5be0ce73f7" x="252.908176" y="168.595496" style="fill: #4c72b0"/>
    </g>
    <g clip-path="url(#p76d0e7b2f5)">
     <use xlink:href="#C2_0_5be0ce73f7" x="248.863487" y="154.415556" style="fill: #4c72b0"/>
    </g>
    <g clip-path="url(#p76d0e7b2f5)">
     <use xlink:href="#C2_0_5be0ce73f7" x="253.752455" y="268.107724" style="fill: #4c72b0"/>
    </g>
    <g clip-path="url(#p76d0e7b2f5)">
     <use xlink:href="#C2_0_5be0ce73f7" x="258.428721" y="244.137625" style="fill: #4c72b0"/>
    </g>
    <g clip-path="url(#p76d0e7b2f5)">
     <use xlink:href="#C2_0_5be0ce73f7" x="260.891894" y="213.977619" style="fill: #4c72b0"/>
    </g>
    <g clip-path="url(#p76d0e7b2f5)">
     <use xlink:href="#C2_0_5be0ce73f7" x="250.341635" y="191.839228" style="fill: #4c72b0"/>
    </g>
    <g clip-path="url(#p76d0e7b2f5)">
     <use xlink:href="#C2_0_5be0ce73f7" x="255.61451" y="209.808907" style="fill: #4c72b0"/>
    </g>
    <g clip-path="url(#p76d0e7b2f5)">
     <use xlink:href="#C2_0_5be0ce73f7" x="250.058717" y="185.775646" style="fill: #4c72b0"/>
    </g>
   </g>
   <g id="PathCollection_6">
    <defs>
     <path id="C3_0_536f8553bf" d="M 0 2.5 
C 0.663008 2.5 1.29895 2.236584 1.767767 1.767767 
C 2.236584 1.29895 2.5 0.663008 2.5 -0 
C 2.5 -0.663008 2.236584 -1.29895 1.767767 -1.767767 
C 1.29895 -2.236584 0.663008 -2.5 0 -2.5 
C -0.663008 -2.5 -1.29895 -2.236584 -1.767767 -1.767767 
C -2.236584 -1.29895 -2.5 -0.663008 -2.5 0 
C -2.5 0.663008 -2.236584 1.29895 -1.767767 1.767767 
C -1.29895 2.236584 -0.663008 2.5 0 2.5 
z
"/>
    </defs>
    <g clip-path="url(#p76d0e7b2f5)">
     <use xlink:href="#C3_0_536f8553bf" x="308.344034" y="240.72686" style="fill: #dd8452"/>
    </g>
    <g clip-path="url(#p76d0e7b2f5)">
     <use xlink:href="#C3_0_536f8553bf" x="310.594726" y="258.601795" style="fill: #dd8452"/>
    </g>
    <g clip-path="url(#p76d0e7b2f5)">
     <use xlink:href="#C3_0_536f8553bf" x="313.309262" y="271.897463" style="fill: #dd8452"/>
    </g>
    <g clip-path="url(#p76d0e7b2f5)">
     <use xlink:href="#C3_0_536f8553bf" x="314.487273" y="282.129758" style="fill: #dd8452"/>
    </g>
    <g clip-path="url(#p76d0e7b2f5)">
     <use xlink:href="#C3_0_536f8553bf" x="308.257394" y="208.356173" style="fill: #dd8452"/>
    </g>
    <g clip-path="url(#p76d0e7b2f5)">
     <use xlink:href="#C3_0_536f8553bf" x="314.696109" y="165.468961" style="fill: #dd8452"/>
    </g>
    <g clip-path="url(#p76d0e7b2f5)">
     <use xlink:href="#C3_0_536f8553bf" x="309.855833" y="152.552268" style="fill: #dd8452"/>
    </g>
   </g>
   <g id="text_10">
    <text style="fill: #262626; font: 12px 'sans-serif'; text-anchor: middle" x="283.5032" y="135.002522" transform="rotate(-0, 283.5032, 135.002522)">ns</text>
   </g>
   <g id="text_11">
    <text style="fill: #262626; font: 12px 'sans-serif'; text-anchor: middle" x="141.96505" y="143.633844" transform="rotate(-0, 141.96505, 143.633844)">ns</text>
   </g>
   <g id="text_12">
    <text style="fill: #262626; font: 12px 'sans-serif'; text-anchor: middle" x="184.426495" y="114.288918" transform="rotate(-0, 184.426495, 114.288918)">ns</text>
   </g>
   <g id="text_13">
    <text style="fill: #262626; font: 12px 'sans-serif'; text-anchor: middle" x="241.041755" y="93.575315" transform="rotate(-0, 241.041755, 93.575315)">ns</text>
   </g>
   <g id="legend_1">
    <g id="patch_13">
     <path d="M 80.934125 120.291875 
L 154.257719 120.291875 
Q 156.457719 120.291875 156.457719 118.091875 
L 156.457719 86.9 
Q 156.457719 84.7 154.257719 84.7 
L 80.934125 84.7 
Q 78.734125 84.7 78.734125 86.9 
L 78.734125 118.091875 
Q 78.734125 120.291875 80.934125 120.291875 
z
" style="fill: #ffffff; opacity: 0.8; stroke: #cccccc; stroke-linejoin: miter"/>
    </g>
    <g id="PathCollection_7">
     <defs>
      <path id="m85088b6eb3" d="M 0 3 
C 0.795609 3 1.55874 2.683901 2.12132 2.12132 
C 2.683901 1.55874 3 0.795609 3 0 
C 3 -0.795609 2.683901 -1.55874 2.12132 -2.12132 
C 1.55874 -2.683901 0.795609 -3 0 -3 
C -0.795609 -3 -1.55874 -2.683901 -2.12132 -2.12132 
C -2.683901 -1.55874 -3 -0.795609 -3 0 
C -3 0.795609 -2.683901 1.55874 -2.12132 2.12132 
C -1.55874 2.683901 -0.795609 3 0 3 
z
" style="stroke: #4c72b0"/>
     </defs>
     <g>
      <use xlink:href="#m85088b6eb3" x="94.134125" y="94.570781" style="fill: #4c72b0; stroke: #4c72b0"/>
     </g>
    </g>
    <g id="text_14">
     <text style="fill: #262626; font: 11px 'sans-serif'; text-anchor: start" x="113.934125" y="97.458281" transform="rotate(-0, 113.934125, 97.458281)">control</text>
    </g>
    <g id="PathCollection_8">
     <defs>
      <path id="m92b8f16fab" d="M 0 3 
C 0.795609 3 1.55874 2.683901 2.12132 2.12132 
C 2.683901 1.55874 3 0.795609 3 0 
C 3 -0.795609 2.683901 -1.55874 2.12132 -2.12132 
C 1.55874 -2.683901 0.795609 -3 0 -3 
C -0.795609 -3 -1.55874 -2.683901 -2.12132 -2.12132 
C -2.683901 -1.55874 -3 -0.795609 -3 0 
C -3 0.795609 -2.683901 1.55874 -2.12132 2.12132 
C -1.55874 2.683901 -0.795609 3 0 3 
z
" style="stroke: #dd8452"/>
     </defs>
     <g>
      <use xlink:href="#m92b8f16fab" x="94.134125" y="110.716719" style="fill: #dd8452; stroke: #dd8452"/>
     </g>
    </g>
    <g id="text_15">
     <text style="fill: #262626; font: 11px 'sans-serif'; text-anchor: start" x="113.934125" y="113.604219" transform="rotate(-0, 113.934125, 113.604219)">TCDD</text>
    </g>
   </g>
  </g>
  <g id="axes_2">
   <g id="patch_14">
    <path d="M 73.234125 633.6 
L 352.234125 633.6 
L 352.234125 392.556522 
L 73.234125 392.556522 
z
" style="fill: #ffffff"/>
   </g>
   <g id="matplotlib.axis_3">
    <g id="xtick_3">
     <g id="line2d_36">
      <g>
       <use xlink:href="#m55475e8add" x="141.96505" y="633.6" style="fill: #262626; stroke: #262626; stroke-width: 1.25"/>
      </g>
     </g>
     <g id="text_16">
      <text style="fill: #262626; font: 11px 'sans-serif'" transform="translate(134.974035 651.458281)">d0</text>
      <text style="fill: #262626; font: 11px 'sans-serif'" transform="translate(123.37591 663.775875)">n=9, 9</text>
     </g>
    </g>
    <g id="xtick_4">
     <g id="line2d_37">
      <g>
       <use xlink:href="#m55475e8add" x="283.5032" y="633.6" style="fill: #262626; stroke: #262626; stroke-width: 1.25"/>
      </g>
     </g>
     <g id="text_17">
      <text style="fill: #262626; font: 11px 'sans-serif'" transform="translate(272.006481 651.458281)">12w</text>
      <text style="fill: #262626; font: 11px 'sans-serif'" transform="translate(264.914059 663.775875)">n=9, 7</text>
     </g>
    </g>
    <g id="text_18">
     <text style="fill: #262626; font: 12px 'sans-serif'; text-anchor: middle" x="212.734125" y="679.181656" transform="rotate(-0, 212.734125, 679.181656)">timepoint</text>
    </g>
   </g>
   <g id="matplotlib.axis_4">
    <g id="ytick_6">
     <g id="line2d_38">
      <g>
       <use xlink:href="#mfbb92859bb" x="73.234125" y="627.915048" style="fill: #262626; stroke: #262626; stroke-width: 1.25"/>
      </g>
     </g>
     <g id="text_19">
      <text style="fill: #262626; font: 11px 'sans-serif'; text-anchor: end" x="63.734125" y="632.094189" transform="rotate(-0, 63.734125, 632.094189)">0.20</text>
     </g>
    </g>
    <g id="ytick_7">
     <g id="line2d_39">
      <g>
       <use xlink:href="#mfbb92859bb" x="73.234125" y="577.936972" style="fill: #262626; stroke: #262626; stroke-width: 1.25"/>
      </g>
     </g>
     <g id="text_20">
      <text style="fill: #262626; font: 11px 'sans-serif'; text-anchor: end" x="63.734125" y="582.116113" transform="rotate(-0, 63.734125, 582.116113)">0.25</text>
     </g>
    </g>
    <g id="ytick_8">
     <g id="line2d_40">
      <g>
       <use xlink:href="#mfbb92859bb" x="73.234125" y="527.958896" style="fill: #262626; stroke: #262626; stroke-width: 1.25"/>
      </g>
     </g>
     <g id="text_21">
      <text style="fill: #262626; font: 11px 'sans-serif'; text-anchor: end" x="63.734125" y="532.138036" transform="rotate(-0, 63.734125, 532.138036)">0.30</text>
     </g>
    </g>
    <g id="ytick_9">
     <g id="line2d_41">
      <g>
       <use xlink:href="#mfbb92859bb" x="73.234125" y="477.980819" style="fill: #262626; stroke: #262626; stroke-width: 1.25"/>
      </g>
     </g>
     <g id="text_22">
      <text style="fill: #262626; font: 11px 'sans-serif'; text-anchor: end" x="63.734125" y="482.15996" transform="rotate(-0, 63.734125, 482.15996)">0.35</text>
     </g>
    </g>
    <g id="ytick_10">
     <g id="line2d_42">
      <g>
       <use xlink:href="#mfbb92859bb" x="73.234125" y="428.002743" style="fill: #262626; stroke: #262626; stroke-width: 1.25"/>
      </g>
     </g>
     <g id="text_23">
      <text style="fill: #262626; font: 11px 'sans-serif'; text-anchor: end" x="63.734125" y="432.181884" transform="rotate(-0, 63.734125, 432.181884)">0.40</text>
     </g>
    </g>
    <g id="text_24">
     <text style="fill: #262626; font: 12px 'sans-serif'; text-anchor: middle" x="32.412562" y="513.078261" transform="rotate(-90, 32.412562, 513.078261)">unweighted_unifrac</text>
    </g>
   </g>
   <g id="patch_15">
    <path d="M 85.915943 556.834562 
L 141.398898 556.834562 
L 141.398898 515.574418 
L 85.915943 515.574418 
L 85.915943 556.834562 
z
" clip-path="url(#pc6d272b2db)" style="fill: #ededf7; stroke: #8a8a8a; stroke-width: 1.5; stroke-linejoin: miter"/>
   </g>
   <g id="patch_16">
    <path d="M 142.531203 550.703546 
L 198.014157 550.703546 
L 198.014157 498.380001 
L 142.531203 498.380001 
L 142.531203 550.703546 
z
" clip-path="url(#pc6d272b2db)" style="fill: #dbdbf0; stroke: #8a8a8a; stroke-width: 1.5; stroke-linejoin: miter"/>
   </g>
   <g id="patch_17">
    <path d="M 227.454093 605.476096 
L 282.937047 605.476096 
L 282.937047 564.559392 
L 227.454093 564.559392 
L 227.454093 605.476096 
z
" clip-path="url(#pc6d272b2db)" style="fill: #ededf7; stroke: #8a8a8a; stroke-width: 1.5; stroke-linejoin: miter"/>
   </g>
   <g id="patch_18">
    <path d="M 284.069352 575.782911 
L 339.552307 575.782911 
L 339.552307 532.701452 
L 284.069352 532.701452 
L 284.069352 575.782911 
z
" clip-path="url(#pc6d272b2db)" style="fill: #dbdbf0; stroke: #8a8a8a; stroke-width: 1.5; stroke-linejoin: miter"/>
   </g>
   <g id="patch_19">
    <path d="M 141.96505 827.827354 
L 141.96505 827.827354 
L 141.96505 827.827354 
L 141.96505 827.827354 
z
" clip-path="url(#pc6d272b2db)" style="fill: #ededf7; stroke: #8a8a8a; stroke-width: 0.75; stroke-linejoin: miter"/>
   </g>
   <g id="patch_20">
    <path d="M 141.96505 827.827354 
L 141.96505 827.827354 
L 141.96505 827.827354 
L 141.96505 827.827354 
z
" clip-path="url(#pc6d272b2db)" style="fill: #dbdbf0; stroke: #8a8a8a; stroke-width: 0.75; stroke-linejoin: miter"/>
   </g>
   <g id="PathCollection_9"/>
   <g id="PathCollection_10"/>
   <g id="line2d_43">
    <path d="M 113.65742 556.834562 
L 113.65742 572.721022 
" clip-path="url(#pc6d272b2db)" style="fill: none; stroke: #8a8a8a; stroke-width: 1.5; stroke-linecap: round"/>
   </g>
   <g id="line2d_44">
    <path d="M 113.65742 515.574418 
L 113.65742 466.855879 
" clip-path="url(#pc6d272b2db)" style="fill: none; stroke: #8a8a8a; stroke-width: 1.5; stroke-linecap: round"/>
   </g>
   <g id="line2d_45">
    <path d="M 99.786682 572.721022 
L 127.528159 572.721022 
" clip-path="url(#pc6d272b2db)" style="fill: none; stroke: #8a8a8a; stroke-width: 1.5; stroke-linecap: round"/>
   </g>
   <g id="line2d_46">
    <path d="M 99.786682 466.855879 
L 127.528159 466.855879 
" clip-path="url(#pc6d272b2db)" style="fill: none; stroke: #8a8a8a; stroke-width: 1.5; stroke-linecap: round"/>
   </g>
   <g id="line2d_47"/>
   <g id="line2d_48">
    <path d="M 170.27268 550.703546 
L 170.27268 616.238983 
" clip-path="url(#pc6d272b2db)" style="fill: none; stroke: #8a8a8a; stroke-width: 1.5; stroke-linecap: round"/>
   </g>
   <g id="line2d_49">
    <path d="M 170.27268 498.380001 
L 170.27268 465.908789 
" clip-path="url(#pc6d272b2db)" style="fill: none; stroke: #8a8a8a; stroke-width: 1.5; stroke-linecap: round"/>
   </g>
   <g id="line2d_50">
    <path d="M 156.401942 616.238983 
L 184.143419 616.238983 
" clip-path="url(#pc6d272b2db)" style="fill: none; stroke: #8a8a8a; stroke-width: 1.5; stroke-linecap: round"/>
   </g>
   <g id="line2d_51">
    <path d="M 156.401942 465.908789 
L 184.143419 465.908789 
" clip-path="url(#pc6d272b2db)" style="fill: none; stroke: #8a8a8a; stroke-width: 1.5; stroke-linecap: round"/>
   </g>
   <g id="line2d_52"/>
   <g id="line2d_53">
    <path d="M 255.19557 605.476096 
L 255.19557 625.614704 
" clip-path="url(#pc6d272b2db)" style="fill: none; stroke: #8a8a8a; stroke-width: 1.5; stroke-linecap: round"/>
   </g>
   <g id="line2d_54">
    <path d="M 255.19557 564.559392 
L 255.19557 526.020497 
" clip-path="url(#pc6d272b2db)" style="fill: none; stroke: #8a8a8a; stroke-width: 1.5; stroke-linecap: round"/>
   </g>
   <g id="line2d_55">
    <path d="M 241.324831 625.614704 
L 269.066308 625.614704 
" clip-path="url(#pc6d272b2db)" style="fill: none; stroke: #8a8a8a; stroke-width: 1.5; stroke-linecap: round"/>
   </g>
   <g id="line2d_56">
    <path d="M 241.324831 526.020497 
L 269.066308 526.020497 
" clip-path="url(#pc6d272b2db)" style="fill: none; stroke: #8a8a8a; stroke-width: 1.5; stroke-linecap: round"/>
   </g>
   <g id="line2d_57"/>
   <g id="line2d_58">
    <path d="M 311.81083 575.782911 
L 311.81083 606.912444 
" clip-path="url(#pc6d272b2db)" style="fill: none; stroke: #8a8a8a; stroke-width: 1.5; stroke-linecap: round"/>
   </g>
   <g id="line2d_59">
    <path d="M 311.81083 532.701452 
L 311.81083 508.386777 
" clip-path="url(#pc6d272b2db)" style="fill: none; stroke: #8a8a8a; stroke-width: 1.5; stroke-linecap: round"/>
   </g>
   <g id="line2d_60">
    <path d="M 297.940091 606.912444 
L 325.681568 606.912444 
" clip-path="url(#pc6d272b2db)" style="fill: none; stroke: #8a8a8a; stroke-width: 1.5; stroke-linecap: round"/>
   </g>
   <g id="line2d_61">
    <path d="M 297.940091 508.386777 
L 325.681568 508.386777 
" clip-path="url(#pc6d272b2db)" style="fill: none; stroke: #8a8a8a; stroke-width: 1.5; stroke-linecap: round"/>
   </g>
   <g id="line2d_62"/>
   <g id="line2d_63">
    <path d="M 255.19557 497.846187 
L 255.19557 494.332657 
L 311.81083 494.332657 
L 311.81083 497.846187 
" clip-path="url(#pc6d272b2db)" style="fill: none; stroke: #333333; stroke-width: 1.5; stroke-linecap: round"/>
   </g>
   <g id="line2d_64">
    <path d="M 113.65742 455.368199 
L 113.65742 451.854669 
L 170.27268 451.854669 
L 170.27268 455.368199 
" clip-path="url(#pc6d272b2db)" style="fill: none; stroke: #333333; stroke-width: 1.5; stroke-linecap: round"/>
   </g>
   <g id="line2d_65">
    <path d="M 113.65742 434.654595 
L 113.65742 431.141065 
L 255.19557 431.141065 
L 255.19557 434.654595 
" clip-path="url(#pc6d272b2db)" style="fill: none; stroke: #333333; stroke-width: 1.5; stroke-linecap: round"/>
   </g>
   <g id="line2d_66">
    <path d="M 170.27268 413.940992 
L 170.27268 410.427462 
L 311.81083 410.427462 
L 311.81083 413.940992 
" clip-path="url(#pc6d272b2db)" style="fill: none; stroke: #333333; stroke-width: 1.5; stroke-linecap: round"/>
   </g>
   <g id="line2d_67">
    <path d="M 85.915943 544.186759 
L 141.398898 544.186759 
" clip-path="url(#pc6d272b2db)" style="fill: none; stroke: #8a8a8a; stroke-width: 1.5; stroke-linecap: round"/>
   </g>
   <g id="line2d_68">
    <path d="M 142.531203 520.237539 
L 198.014157 520.237539 
" clip-path="url(#pc6d272b2db)" style="fill: none; stroke: #8a8a8a; stroke-width: 1.5; stroke-linecap: round"/>
   </g>
   <g id="line2d_69">
    <path d="M 227.454093 601.174363 
L 282.937047 601.174363 
" clip-path="url(#pc6d272b2db)" style="fill: none; stroke: #8a8a8a; stroke-width: 1.5; stroke-linecap: round"/>
   </g>
   <g id="line2d_70">
    <path d="M 284.069352 559.452173 
L 339.552307 559.452173 
" clip-path="url(#pc6d272b2db)" style="fill: none; stroke: #8a8a8a; stroke-width: 1.5; stroke-linecap: round"/>
   </g>
   <g id="patch_21">
    <path d="M 73.234125 633.6 
L 73.234125 392.556522 
" style="fill: none; stroke: #262626; stroke-width: 1.25; stroke-linejoin: miter; stroke-linecap: square"/>
   </g>
   <g id="patch_22">
    <path d="M 352.234125 633.6 
L 352.234125 392.556522 
" style="fill: none; stroke: #262626; stroke-width: 1.25; stroke-linejoin: miter; stroke-linecap: square"/>
   </g>
   <g id="patch_23">
    <path d="M 73.234125 633.6 
L 352.234125 633.6 
" style="fill: none; stroke: #262626; stroke-width: 1.25; stroke-linejoin: miter; stroke-linecap: square"/>
   </g>
   <g id="patch_24">
    <path d="M 73.234125 392.556522 
L 352.234125 392.556522 
" style="fill: none; stroke: #262626; stroke-width: 1.25; stroke-linejoin: miter; stroke-linecap: square"/>
   </g>
   <g id="PathCollection_11">
    <defs>
     <path id="C4_0_4085bde708" d="M 0 2.5 
C 0.663008 2.5 1.29895 2.236584 1.767767 1.767767 
C 2.236584 1.29895 2.5 0.663008 2.5 -0 
C 2.5 -0.663008 2.236584 -1.29895 1.767767 -1.767767 
C 1.29895 -2.236584 0.663008 -2.5 0 -2.5 
C -0.663008 -2.5 -1.29895 -2.236584 -1.767767 -1.767767 
C -2.236584 -1.29895 -2.5 -0.663008 -2.5 0 
C -2.5 0.663008 -2.236584 1.29895 -1.767767 1.767767 
C -1.29895 2.236584 -0.663008 2.5 0 2.5 
z
"/>
    </defs>
    <g clip-path="url(#pc6d272b2db)">
     <use xlink:href="#C4_0_4085bde708" x="107.938519" y="479.295246" style="fill: #4c72b0"/>
    </g>
    <g clip-path="url(#pc6d272b2db)">
     <use xlink:href="#C4_0_4085bde708" x="107.172272" y="466.855879" style="fill: #4c72b0"/>
    </g>
    <g clip-path="url(#pc6d272b2db)">
     <use xlink:href="#C4_0_4085bde708" x="110.963611" y="560.785302" style="fill: #4c72b0"/>
    </g>
    <g clip-path="url(#pc6d272b2db)">
     <use xlink:href="#C4_0_4085bde708" x="115.949212" y="515.574418" style="fill: #4c72b0"/>
    </g>
    <g clip-path="url(#pc6d272b2db)">
     <use xlink:href="#C4_0_4085bde708" x="110.1636" y="533.834099" style="fill: #4c72b0"/>
    </g>
    <g clip-path="url(#pc6d272b2db)">
     <use xlink:href="#C4_0_4085bde708" x="113.117452" y="556.834562" style="fill: #4c72b0"/>
    </g>
    <g clip-path="url(#pc6d272b2db)">
     <use xlink:href="#C4_0_4085bde708" x="109.508169" y="544.186759" style="fill: #4c72b0"/>
    </g>
    <g clip-path="url(#pc6d272b2db)">
     <use xlink:href="#C4_0_4085bde708" x="112.069337" y="553.368642" style="fill: #4c72b0"/>
    </g>
    <g clip-path="url(#pc6d272b2db)">
     <use xlink:href="#C4_0_4085bde708" x="113.163339" y="572.721022" style="fill: #4c72b0"/>
    </g>
   </g>
   <g id="PathCollection_12">
    <defs>
     <path id="C5_0_94c645accc" d="M 0 2.5 
C 0.663008 2.5 1.29895 2.236584 1.767767 1.767767 
C 2.236584 1.29895 2.5 0.663008 2.5 -0 
C 2.5 -0.663008 2.236584 -1.29895 1.767767 -1.767767 
C 1.29895 -2.236584 0.663008 -2.5 0 -2.5 
C -0.663008 -2.5 -1.29895 -2.236584 -1.767767 -1.767767 
C -2.236584 -1.29895 -2.5 -0.663008 -2.5 0 
C -2.5 0.663008 -2.236584 1.29895 -1.767767 1.767767 
C -1.29895 2.236584 -0.663008 2.5 0 2.5 
z
"/>
    </defs>
    <g clip-path="url(#pc6d272b2db)">
     <use xlink:href="#C5_0_94c645accc" x="166.650211" y="498.380001" style="fill: #dd8452"/>
    </g>
    <g clip-path="url(#pc6d272b2db)">
     <use xlink:href="#C5_0_94c645accc" x="173.026731" y="538.05762" style="fill: #dd8452"/>
    </g>
    <g clip-path="url(#pc6d272b2db)">
     <use xlink:href="#C5_0_94c645accc" x="167.982747" y="550.703546" style="fill: #dd8452"/>
    </g>
    <g clip-path="url(#pc6d272b2db)">
     <use xlink:href="#C5_0_94c645accc" x="173.902029" y="465.908789" style="fill: #dd8452"/>
    </g>
    <g clip-path="url(#pc6d272b2db)">
     <use xlink:href="#C5_0_94c645accc" x="174.704237" y="498.320333" style="fill: #dd8452"/>
    </g>
    <g clip-path="url(#pc6d272b2db)">
     <use xlink:href="#C5_0_94c645accc" x="164.84842" y="580.336348" style="fill: #dd8452"/>
    </g>
    <g clip-path="url(#pc6d272b2db)">
     <use xlink:href="#C5_0_94c645accc" x="166.621755" y="516.181851" style="fill: #dd8452"/>
    </g>
    <g clip-path="url(#pc6d272b2db)">
     <use xlink:href="#C5_0_94c645accc" x="173.034421" y="616.238983" style="fill: #dd8452"/>
    </g>
    <g clip-path="url(#pc6d272b2db)">
     <use xlink:href="#C5_0_94c645accc" x="165.505635" y="520.237539" style="fill: #dd8452"/>
    </g>
   </g>
   <g id="PathCollection_13">
    <defs>
     <path id="C6_0_5cc950efdb" d="M 0 2.5 
C 0.663008 2.5 1.29895 2.236584 1.767767 1.767767 
C 2.236584 1.29895 2.5 0.663008 2.5 -0 
C 2.5 -0.663008 2.236584 -1.29895 1.767767 -1.767767 
C 1.29895 -2.236584 0.663008 -2.5 0 -2.5 
C -0.663008 -2.5 -1.29895 -2.236584 -1.767767 -1.767767 
C -2.236584 -1.29895 -2.5 -0.663008 -2.5 0 
C -2.5 0.663008 -2.236584 1.29895 -1.767767 1.767767 
C -1.29895 2.236584 -0.663008 2.5 0 2.5 
z
"/>
    </defs>
    <g clip-path="url(#pc6d272b2db)">
     <use xlink:href="#C6_0_5cc950efdb" x="258.811183" y="539.615032" style="fill: #4c72b0"/>
    </g>
    <g clip-path="url(#pc6d272b2db)">
     <use xlink:href="#C6_0_5cc950efdb" x="254.986" y="605.476096" style="fill: #4c72b0"/>
    </g>
    <g clip-path="url(#pc6d272b2db)">
     <use xlink:href="#C6_0_5cc950efdb" x="255.881767" y="526.020497" style="fill: #4c72b0"/>
    </g>
    <g clip-path="url(#pc6d272b2db)">
     <use xlink:href="#C6_0_5cc950efdb" x="259.318237" y="603.940251" style="fill: #4c72b0"/>
    </g>
    <g clip-path="url(#pc6d272b2db)">
     <use xlink:href="#C6_0_5cc950efdb" x="259.067754" y="585.15324" style="fill: #4c72b0"/>
    </g>
    <g clip-path="url(#pc6d272b2db)">
     <use xlink:href="#C6_0_5cc950efdb" x="249.536936" y="608.110538" style="fill: #4c72b0"/>
    </g>
    <g clip-path="url(#pc6d272b2db)">
     <use xlink:href="#C6_0_5cc950efdb" x="259.304605" y="564.559392" style="fill: #4c72b0"/>
    </g>
    <g clip-path="url(#pc6d272b2db)">
     <use xlink:href="#C6_0_5cc950efdb" x="258.699611" y="601.174363" style="fill: #4c72b0"/>
    </g>
    <g clip-path="url(#pc6d272b2db)">
     <use xlink:href="#C6_0_5cc950efdb" x="249.693418" y="625.614704" style="fill: #4c72b0"/>
    </g>
   </g>
   <g id="PathCollection_14">
    <defs>
     <path id="C7_0_c13f350af5" d="M 0 2.5 
C 0.663008 2.5 1.29895 2.236584 1.767767 1.767767 
C 2.236584 1.29895 2.5 0.663008 2.5 -0 
C 2.5 -0.663008 2.236584 -1.29895 1.767767 -1.767767 
C 1.29895 -2.236584 0.663008 -2.5 0 -2.5 
C -0.663008 -2.5 -1.29895 -2.236584 -1.767767 -1.767767 
C -2.236584 -1.29895 -2.5 -0.663008 -2.5 0 
C -2.5 0.663008 -2.236584 1.29895 -1.767767 1.767767 
C -1.29895 2.236584 -0.663008 2.5 0 2.5 
z
"/>
    </defs>
    <g clip-path="url(#pc6d272b2db)">
     <use xlink:href="#C7_0_c13f350af5" x="306.998786" y="606.912444" style="fill: #dd8452"/>
    </g>
    <g clip-path="url(#pc6d272b2db)">
     <use xlink:href="#C7_0_c13f350af5" x="305.424521" y="559.452173" style="fill: #dd8452"/>
    </g>
    <g clip-path="url(#pc6d272b2db)">
     <use xlink:href="#C7_0_c13f350af5" x="310.657497" y="547.862962" style="fill: #dd8452"/>
    </g>
    <g clip-path="url(#pc6d272b2db)">
     <use xlink:href="#C7_0_c13f350af5" x="314.664672" y="570.13326" style="fill: #dd8452"/>
    </g>
    <g clip-path="url(#pc6d272b2db)">
     <use xlink:href="#C7_0_c13f350af5" x="305.106473" y="581.432562" style="fill: #dd8452"/>
    </g>
    <g clip-path="url(#pc6d272b2db)">
     <use xlink:href="#C7_0_c13f350af5" x="312.741397" y="517.539943" style="fill: #dd8452"/>
    </g>
    <g clip-path="url(#pc6d272b2db)">
     <use xlink:href="#C7_0_c13f350af5" x="312.240262" y="508.386777" style="fill: #dd8452"/>
    </g>
   </g>
   <g id="text_25">
    <text style="fill: #262626; font: 12px 'sans-serif'; text-anchor: middle" x="283.5032" y="490.837032" transform="rotate(-0, 283.5032, 490.837032)">ns</text>
   </g>
   <g id="text_26">
    <text style="fill: #262626; font: 12px 'sans-serif'; text-anchor: middle" x="141.96505" y="448.359044" transform="rotate(-0, 141.96505, 448.359044)">ns</text>
   </g>
   <g id="text_27">
    <text style="fill: #262626; font: 12px 'sans-serif'; text-anchor: middle" x="184.426495" y="427.64544" transform="rotate(-0, 184.426495, 427.64544)">* (ns)</text>
   </g>
   <g id="text_28">
    <text style="fill: #262626; font: 12px 'sans-serif'; text-anchor: middle" x="241.041755" y="406.931837" transform="rotate(-0, 241.041755, 406.931837)">ns</text>
   </g>
   <g id="legend_2">
    <g id="patch_25">
     <path d="M 80.934125 433.648397 
L 154.257719 433.648397 
Q 156.457719 433.648397 156.457719 431.448397 
L 156.457719 400.256522 
Q 156.457719 398.056522 154.257719 398.056522 
L 80.934125 398.056522 
Q 78.734125 398.056522 78.734125 400.256522 
L 78.734125 431.448397 
Q 78.734125 433.648397 80.934125 433.648397 
z
" style="fill: #ffffff; opacity: 0.8; stroke: #cccccc; stroke-linejoin: miter"/>
    </g>
    <g id="PathCollection_15">
     <g>
      <use xlink:href="#m85088b6eb3" x="94.134125" y="407.927303" style="fill: #4c72b0; stroke: #4c72b0"/>
     </g>
    </g>
    <g id="text_29">
     <text style="fill: #262626; font: 11px 'sans-serif'; text-anchor: start" x="113.934125" y="410.814803" transform="rotate(-0, 113.934125, 410.814803)">control</text>
    </g>
    <g id="PathCollection_16">
     <g>
      <use xlink:href="#m92b8f16fab" x="94.134125" y="424.07324" style="fill: #dd8452; stroke: #dd8452"/>
     </g>
    </g>
    <g id="text_30">
     <text style="fill: #262626; font: 11px 'sans-serif'; text-anchor: start" x="113.934125" y="426.96074" transform="rotate(-0, 113.934125, 426.96074)">TCDD</text>
    </g>
   </g>
  </g>
  <g id="text_31">
   <text style="fill: #262626; font: 14.4px 'sans-serif'; text-anchor: middle" x="208.234125" y="18.14175" transform="rotate(-0, 208.234125, 18.14175)">Feces, male: TIMEPOINT: Test for distances within cages</text>
  </g>
 </g>
 <defs>
  <clipPath id="p76d0e7b2f5">
   <rect x="73.234125" y="79.2" width="279" height="241.043478"/>
  </clipPath>
  <clipPath id="pc6d272b2db">
   <rect x="73.234125" y="392.556522" width="279" height="241.043478"/>
  </clipPath>
 </defs>
</svg>
